<svg width="315" height="103" viewBox="0 0 315 103" fill="none" xmlns="http://www.w3.org/2000/svg">
<mask id="mask0_7003_60823" style="mask-type:alpha" maskUnits="userSpaceOnUse" x="9" y="0" width="218" height="91">
<path d="M117.904 0C153.051 0 200.185 48.5866 222.728 74.3771C228.205 80.6431 223.679 90.0376 215.356 90.0376H20.4515C12.1291 90.0376 7.60276 80.6431 13.0799 74.3771C35.6232 48.5866 82.7566 0 117.904 0Z" fill="#D9D9D9"/>
<path d="M117.904 0C153.977 0 202.677 51.1805 224.458 76.3668C229.194 81.843 225.256 90.0376 218.017 90.0376H17.7914C10.5515 90.0376 6.61411 81.8429 11.3499 76.3668C33.1313 51.1805 81.8306 0 117.904 0Z" fill="#D9D9D9"/>
</mask>
<g mask="url(#mask0_7003_60823)">
<rect x="0.0286865" y="-32.1875" width="246.19" height="134.839" fill="#FFF3D5"/>
<circle cx="175.933" cy="43.6706" r="1.73986" transform="rotate(-143.123 175.933 43.6706)" fill="#FFE5BB"/>
<circle cx="212.468" cy="55.8542" r="1.73986" transform="rotate(-143.123 212.468 55.8542)" fill="#FFE5BB"/>
<circle cx="226.732" cy="77.4301" r="1.73986" transform="rotate(-143.123 226.732 77.4301)" fill="#FFE5BB"/>
<circle cx="212.291" cy="85.0839" r="1.73986" transform="rotate(-143.123 212.291 85.0839)" fill="#FFE5BB"/>
<circle cx="142.526" cy="57.7595" r="1.73986" transform="rotate(-143.123 142.526 57.7595)" fill="#FFE5BB"/>
<circle cx="123.732" cy="82.8105" r="1.73986" transform="rotate(-143.123 123.732 82.8105)" fill="#FFE5BB"/>
<circle cx="131.041" cy="73.0686" r="1.73986" transform="rotate(-143.123 131.041 73.0686)" fill="#FFE5BB"/>
<circle cx="194.374" cy="55.33" r="1.73986" transform="rotate(-143.123 194.374 55.33)" fill="#FFE5BB"/>
<circle cx="194.374" cy="55.33" r="1.73986" transform="rotate(-143.123 194.374 55.33)" fill="#FFE5BB"/>
<circle cx="137.65" cy="88.9023" r="1.73986" transform="rotate(-143.123 137.65 88.9023)" fill="#FFE5BB"/>
<circle cx="194.374" cy="55.33" r="1.73986" transform="rotate(-143.123 194.374 55.33)" fill="#FFE5BB"/>
<circle cx="213.51" cy="71.8608" r="1.73986" transform="rotate(-143.123 213.51 71.8608)" fill="#FFE5BB"/>
<circle cx="201.852" cy="81.6025" r="1.73986" transform="rotate(-143.123 201.852 81.6025)" fill="#FFE5BB"/>
<circle cx="201.852" cy="81.6025" r="1.73986" transform="rotate(-143.123 201.852 81.6025)" fill="#FFE5BB"/>
<circle cx="198.025" cy="72.207" r="1.73986" transform="rotate(-143.123 198.025 72.207)" fill="#FFE5BB"/>
<circle cx="201.852" cy="81.6025" r="1.73986" transform="rotate(-143.123 201.852 81.6025)" fill="#FFE5BB"/>
<circle cx="149.83" cy="87.1635" r="1.73986" transform="rotate(-143.123 149.83 87.1635)" fill="#FFE5BB"/>
<circle cx="146.003" cy="77.7683" r="1.73986" transform="rotate(-143.123 146.003 77.7683)" fill="#FFE5BB"/>
<circle cx="147.048" cy="67.6769" r="1.73986" transform="rotate(-143.123 147.048 67.6769)" fill="#FFE5BB"/>
<circle cx="177.148" cy="60.8955" r="1.73986" transform="rotate(-143.123 177.148 60.8955)" fill="#FFE5BB"/>
<circle cx="177.148" cy="60.8955" r="1.73986" transform="rotate(-143.123 177.148 60.8955)" fill="#FFE5BB"/>
<circle cx="157.315" cy="56.8911" r="1.73986" transform="rotate(-143.123 157.315 56.8911)" fill="#FFE5BB"/>
<circle cx="177.148" cy="60.8955" r="1.73986" transform="rotate(-143.123 177.148 60.8955)" fill="#FFE5BB"/>
<circle cx="183.583" cy="88.5598" r="1.73986" transform="rotate(-143.123 183.583 88.5598)" fill="#FFE5BB"/>
<circle cx="191.064" cy="84.3852" r="1.73986" transform="rotate(-143.123 191.064 84.3852)" fill="#FFE5BB"/>
<circle cx="174.187" cy="88.0366" r="1.73986" transform="rotate(-143.123 174.187 88.0366)" fill="#FFE5BB"/>
<circle cx="187.239" cy="70.6396" r="1.73986" transform="rotate(-143.123 187.239 70.6396)" fill="#FFE5BB"/>
<circle cx="174.187" cy="88.0366" r="1.73986" transform="rotate(-143.123 174.187 88.0366)" fill="#FFE5BB"/>
<circle cx="161.313" cy="84.9035" r="1.73986" transform="rotate(-143.123 161.313 84.9035)" fill="#FFE5BB"/>
<circle cx="157.138" cy="77.4216" r="1.73986" transform="rotate(-143.123 157.138 77.4216)" fill="#FFE5BB"/>
<circle cx="162.881" cy="69.7668" r="1.73986" transform="rotate(-143.123 162.881 69.7668)" fill="#FFE5BB"/>
<circle cx="173.667" cy="71.3342" r="1.73986" transform="rotate(-143.123 173.667 71.3342)" fill="#FFE5BB"/>
<circle cx="179.93" cy="80.3823" r="1.73986" transform="rotate(-143.123 179.93 80.3823)" fill="#FFE5BB"/>
<circle cx="169.317" cy="80.0327" r="1.73986" transform="rotate(-143.123 169.317 80.0327)" fill="#FFE5BB"/>
<circle cx="96.3945" cy="66.5208" r="1.73986" transform="rotate(17.0908 96.3945 66.5208)" fill="white"/>
<circle cx="57.8917" cy="67.4243" r="1.73986" transform="rotate(17.0908 57.8917 67.4243)" fill="white"/>
<circle cx="37.166" cy="51.9507" r="1.73986" transform="rotate(17.0908 37.166 51.9507)" fill="white"/>
<circle cx="37.424" cy="62.9514" r="1.73986" transform="rotate(17.0908 37.424 62.9514)" fill="white"/>
<circle cx="48.1643" cy="39.8601" r="1.73986" transform="rotate(17.0908 48.1643 39.8601)" fill="white"/>
<circle cx="57.2439" cy="28.0904" r="1.73986" transform="rotate(17.0908 57.2439 28.0904)" fill="white"/>
<circle cx="72.5909" cy="13.6961" r="1.73986" transform="rotate(17.0908 72.5909 13.6961)" fill="white"/>
<circle cx="83.4626" cy="7.93802" r="1.73986" transform="rotate(17.0908 83.4626 7.93802)" fill="white"/>
<circle cx="92.4802" cy="5.24954" r="1.73986" transform="rotate(17.0908 92.4802 5.24954)" fill="white"/>
<circle cx="112.499" cy="2.30325" r="1.73986" transform="rotate(17.0908 112.499 2.30325)" fill="white"/>
<circle cx="100.795" cy="7.80618" r="1.73986" transform="rotate(17.0908 100.795 7.80618)" fill="white"/>
<circle cx="123.06" cy="41.9556" r="1.73986" transform="rotate(17.0908 123.06 41.9556)" fill="white"/>
<circle cx="132.264" cy="12.0208" r="1.73986" transform="rotate(17.0908 132.264 12.0208)" fill="white"/>
<circle cx="128.684" cy="23.6621" r="1.73986" transform="rotate(17.0908 128.684 23.6621)" fill="white"/>
<circle cx="75.0953" cy="61.7923" r="1.73986" transform="rotate(17.0908 75.0953 61.7923)" fill="white"/>
<circle cx="75.0953" cy="61.7923" r="1.73986" transform="rotate(17.0908 75.0953 61.7923)" fill="white"/>
<circle cx="117.105" cy="11.001" r="1.73986" transform="rotate(17.0908 117.105 11.001)" fill="white"/>
<circle cx="75.0953" cy="61.7923" r="1.73986" transform="rotate(17.0908 75.0953 61.7923)" fill="white"/>
<circle cx="51.4928" cy="52.7154" r="1.73986" transform="rotate(17.0908 51.4928 52.7154)" fill="white"/>
<circle cx="59.165" cy="39.6023" r="1.73986" transform="rotate(17.0908 59.165 39.6023)" fill="white"/>
<circle cx="59.165" cy="39.6023" r="1.73986" transform="rotate(17.0908 59.165 39.6023)" fill="white"/>
<circle cx="65.9463" cy="47.148" r="1.73986" transform="rotate(17.0908 65.9463 47.148)" fill="white"/>
<circle cx="59.165" cy="39.6023" r="1.73986" transform="rotate(17.0908 59.165 39.6023)" fill="white"/>
<circle cx="67.6043" cy="23.9947" r="1.73986" transform="rotate(17.0908 67.6043 23.9947)" fill="white"/>
<circle cx="80.906" cy="16.2527" r="1.73986" transform="rotate(17.0908 80.906 16.2527)" fill="white"/>
<circle cx="80.906" cy="16.2527" r="1.73986" transform="rotate(17.0908 80.906 16.2527)" fill="white"/>
<circle cx="91.5866" cy="14.0762" r="1.73986" transform="rotate(17.0908 91.5866 14.0762)" fill="white"/>
<circle cx="106.234" cy="16.7591" r="1.73986" transform="rotate(17.0908 106.234 16.7591)" fill="white"/>
<circle cx="113.015" cy="24.3052" r="1.73986" transform="rotate(17.0908 113.015 24.3052)" fill="white"/>
<circle cx="115.447" cy="34.1538" r="1.73986" transform="rotate(17.0908 115.447 34.1538)" fill="white"/>
<circle cx="89.4196" cy="50.7246" r="1.73986" transform="rotate(17.0908 89.4196 50.7246)" fill="white"/>
<circle cx="89.4196" cy="50.7246" r="1.73986" transform="rotate(17.0908 89.4196 50.7246)" fill="white"/>
<circle cx="109.438" cy="47.7784" r="1.73986" transform="rotate(17.0908 109.438 47.7784)" fill="white"/>
<circle cx="89.4196" cy="50.7246" r="1.73986" transform="rotate(17.0908 89.4196 50.7246)" fill="white"/>
<circle cx="74.0007" cy="26.8716" r="1.73986" transform="rotate(17.0908 74.0007 26.8716)" fill="white"/>
<circle cx="68.3737" cy="33.3323" r="1.73986" transform="rotate(17.0908 68.3737 33.3323)" fill="white"/>
<circle cx="83.0184" cy="24.1831" r="1.73986" transform="rotate(17.0908 83.0184 24.1831)" fill="white"/>
<circle cx="76.6268" cy="44.971" r="1.73986" transform="rotate(17.0908 76.6268 44.971)" fill="white"/>
<circle cx="83.0184" cy="24.1831" r="1.73986" transform="rotate(17.0908 83.0184 24.1831)" fill="white"/>
<circle cx="96.1935" cy="22.7735" r="1.73986" transform="rotate(17.0908 96.1935 22.7735)" fill="white"/>
<circle cx="102.654" cy="28.4004" r="1.73986" transform="rotate(17.0908 102.654 28.4004)" fill="white"/>
<circle cx="99.8421" cy="37.5469" r="1.73986" transform="rotate(17.0908 99.8421 37.5469)" fill="white"/>
<circle cx="89.1616" cy="39.7239" r="1.73986" transform="rotate(17.0908 89.1616 39.7239)" fill="white"/>
<circle cx="80.206" cy="33.3299" r="1.73986" transform="rotate(17.0908 80.206 33.3299)" fill="white"/>
<circle cx="90.3108" cy="30.0659" r="1.73986" transform="rotate(17.0908 90.3108 30.0659)" fill="white"/>
</g>
<mask id="mask1_7003_60823" style="mask-type:alpha" maskUnits="userSpaceOnUse" x="146" y="35" width="163" height="68">
<path d="M227.109 35.667C251.618 35.667 283.947 67.3621 301.775 87.1914C307.339 93.3803 302.871 102.785 294.549 102.785H159.669C151.346 102.785 146.879 93.3803 152.443 87.1913C170.27 67.3621 202.599 35.667 227.109 35.667Z" fill="#D9D9D9"/>
<path d="M227.109 35.667C254 35.667 290.302 73.8195 306.539 92.5946C310.07 96.6768 307.135 102.785 301.738 102.785H152.48C147.083 102.785 144.148 96.6768 147.678 92.5946C163.915 73.8195 200.218 35.667 227.109 35.667Z" fill="#D9D9D9"/>
</mask>
<g mask="url(#mask1_7003_60823)">
<rect x="139.239" y="11.6729" width="183.522" height="100.516" fill="#FFECC0"/>
<circle cx="270.366" cy="68.2208" r="1.29697" transform="rotate(-143.123 270.366 68.2208)" fill="#FEDF96"/>
<circle cx="297.601" cy="77.3033" r="1.29697" transform="rotate(-143.123 297.601 77.3033)" fill="#FEDF96"/>
<circle cx="308.234" cy="93.3868" r="1.29697" transform="rotate(-143.123 308.234 93.3868)" fill="#FEDF96"/>
<circle cx="297.469" cy="99.0927" r="1.29697" transform="rotate(-143.123 297.469 99.0927)" fill="#FEDF96"/>
<circle cx="245.463" cy="78.7233" r="1.29697" transform="rotate(-143.123 245.463 78.7233)" fill="#FEDF96"/>
<circle cx="231.453" cy="97.3978" r="1.29697" transform="rotate(-143.123 231.453 97.3978)" fill="#FEDF96"/>
<circle cx="236.901" cy="90.1356" r="1.29697" transform="rotate(-143.123 236.901 90.1356)" fill="#FEDF96"/>
<circle cx="284.113" cy="76.9125" r="1.29697" transform="rotate(-143.123 284.113 76.9125)" fill="#FEDF96"/>
<circle cx="284.113" cy="76.9125" r="1.29697" transform="rotate(-143.123 284.113 76.9125)" fill="#FEDF96"/>
<circle cx="241.828" cy="101.939" r="1.29697" transform="rotate(-143.123 241.828 101.939)" fill="#FEDF96"/>
<circle cx="284.113" cy="76.9125" r="1.29697" transform="rotate(-143.123 284.113 76.9125)" fill="#FEDF96"/>
<circle cx="298.378" cy="89.2355" r="1.29697" transform="rotate(-143.123 298.378 89.2355)" fill="#FEDF96"/>
<circle cx="289.687" cy="96.4974" r="1.29697" transform="rotate(-143.123 289.687 96.4974)" fill="#FEDF96"/>
<circle cx="289.687" cy="96.4974" r="1.29697" transform="rotate(-143.123 289.687 96.4974)" fill="#FEDF96"/>
<circle cx="286.835" cy="89.4933" r="1.29697" transform="rotate(-143.123 286.835 89.4933)" fill="#FEDF96"/>
<circle cx="289.687" cy="96.4974" r="1.29697" transform="rotate(-143.123 289.687 96.4974)" fill="#FEDF96"/>
<circle cx="250.907" cy="100.643" r="1.29697" transform="rotate(-143.123 250.907 100.643)" fill="#FEDF96"/>
<circle cx="248.055" cy="93.639" r="1.29697" transform="rotate(-143.123 248.055 93.639)" fill="#FEDF96"/>
<circle cx="248.834" cy="86.1166" r="1.29697" transform="rotate(-143.123 248.834 86.1166)" fill="#FEDF96"/>
<circle cx="271.272" cy="81.0614" r="1.29697" transform="rotate(-143.123 271.272 81.0614)" fill="#FEDF96"/>
<circle cx="271.272" cy="81.0614" r="1.29697" transform="rotate(-143.123 271.272 81.0614)" fill="#FEDF96"/>
<circle cx="256.487" cy="78.0765" r="1.29697" transform="rotate(-143.123 256.487 78.0765)" fill="#FEDF96"/>
<circle cx="271.272" cy="81.0614" r="1.29697" transform="rotate(-143.123 271.272 81.0614)" fill="#FEDF96"/>
<circle cx="276.069" cy="101.684" r="1.29697" transform="rotate(-143.123 276.069 101.684)" fill="#FEDF96"/>
<circle cx="281.646" cy="98.5717" r="1.29697" transform="rotate(-143.123 281.646 98.5717)" fill="#FEDF96"/>
<circle cx="269.065" cy="101.293" r="1.29697" transform="rotate(-143.123 269.065 101.293)" fill="#FEDF96"/>
<circle cx="278.794" cy="88.3253" r="1.29697" transform="rotate(-143.123 278.794 88.3253)" fill="#FEDF96"/>
<circle cx="269.065" cy="101.293" r="1.29697" transform="rotate(-143.123 269.065 101.293)" fill="#FEDF96"/>
<circle cx="259.468" cy="98.9581" r="1.29697" transform="rotate(-143.123 259.468 98.9581)" fill="#FEDF96"/>
<circle cx="256.356" cy="93.381" r="1.29697" transform="rotate(-143.123 256.356 93.381)" fill="#FEDF96"/>
<circle cx="260.636" cy="87.6744" r="1.29697" transform="rotate(-143.123 260.636 87.6744)" fill="#FEDF96"/>
<circle cx="268.677" cy="88.8431" r="1.29697" transform="rotate(-143.123 268.677 88.8431)" fill="#FEDF96"/>
<circle cx="273.346" cy="95.5875" r="1.29697" transform="rotate(-143.123 273.346 95.5875)" fill="#FEDF96"/>
<circle cx="265.434" cy="95.3273" r="1.29697" transform="rotate(-143.123 265.434 95.3273)" fill="#FEDF96"/>
<circle cx="211.074" cy="85.2549" r="1.29697" transform="rotate(17.0908 211.074 85.2549)" fill="#FFFBE3"/>
<circle cx="182.373" cy="85.9282" r="1.29697" transform="rotate(17.0908 182.373 85.9282)" fill="#FFFBE3"/>
<circle cx="166.923" cy="74.3936" r="1.29697" transform="rotate(17.0908 166.923 74.3936)" fill="#FFFBE3"/>
<circle cx="167.115" cy="82.594" r="1.29697" transform="rotate(17.0908 167.115 82.594)" fill="#FFFBE3"/>
<circle cx="175.121" cy="65.3809" r="1.29697" transform="rotate(17.0908 175.121 65.3809)" fill="#FFFBE3"/>
<circle cx="181.89" cy="56.6067" r="1.29697" transform="rotate(17.0908 181.89 56.6067)" fill="#FFFBE3"/>
<circle cx="193.33" cy="45.8767" r="1.29697" transform="rotate(17.0908 193.33 45.8767)" fill="#FFFBE3"/>
<circle cx="201.434" cy="41.5842" r="1.29697" transform="rotate(17.0908 201.434 41.5842)" fill="#FFFBE3"/>
<circle cx="208.157" cy="39.5803" r="1.29697" transform="rotate(17.0908 208.157 39.5803)" fill="#FFFBE3"/>
<circle cx="223.079" cy="37.3838" r="1.29697" transform="rotate(17.0908 223.079 37.3838)" fill="#FFFBE3"/>
<circle cx="214.355" cy="41.4861" r="1.29697" transform="rotate(17.0908 214.355 41.4861)" fill="#FFFBE3"/>
<circle cx="230.952" cy="66.9426" r="1.29697" transform="rotate(17.0908 230.952 66.9426)" fill="#FFFBE3"/>
<circle cx="237.813" cy="44.6277" r="1.29697" transform="rotate(17.0908 237.813 44.6277)" fill="#FFFBE3"/>
<circle cx="235.145" cy="53.3059" r="1.29697" transform="rotate(17.0908 235.145 53.3059)" fill="#FFFBE3"/>
<circle cx="195.197" cy="81.7298" r="1.29697" transform="rotate(17.0908 195.197 81.7298)" fill="#FFFBE3"/>
<circle cx="195.197" cy="81.7298" r="1.29697" transform="rotate(17.0908 195.197 81.7298)" fill="#FFFBE3"/>
<circle cx="226.513" cy="43.8674" r="1.29697" transform="rotate(17.0908 226.513 43.8674)" fill="#FFFBE3"/>
<circle cx="195.197" cy="81.7298" r="1.29697" transform="rotate(17.0908 195.197 81.7298)" fill="#FFFBE3"/>
<circle cx="177.602" cy="74.9636" r="1.29697" transform="rotate(17.0908 177.602 74.9636)" fill="#FFFBE3"/>
<circle cx="183.322" cy="65.1882" r="1.29697" transform="rotate(17.0908 183.322 65.1882)" fill="#FFFBE3"/>
<circle cx="183.322" cy="65.1882" r="1.29697" transform="rotate(17.0908 183.322 65.1882)" fill="#FFFBE3"/>
<circle cx="188.377" cy="70.8132" r="1.29697" transform="rotate(17.0908 188.377 70.8132)" fill="#FFFBE3"/>
<circle cx="183.322" cy="65.1882" r="1.29697" transform="rotate(17.0908 183.322 65.1882)" fill="#FFFBE3"/>
<circle cx="189.613" cy="53.5535" r="1.29697" transform="rotate(17.0908 189.613 53.5535)" fill="#FFFBE3"/>
<circle cx="199.529" cy="47.7825" r="1.29697" transform="rotate(17.0908 199.529 47.7825)" fill="#FFFBE3"/>
<circle cx="199.529" cy="47.7825" r="1.29697" transform="rotate(17.0908 199.529 47.7825)" fill="#FFFBE3"/>
<circle cx="207.49" cy="46.1599" r="1.29697" transform="rotate(17.0908 207.49 46.1599)" fill="#FFFBE3"/>
<circle cx="218.409" cy="48.1597" r="1.29697" transform="rotate(17.0908 218.409 48.1597)" fill="#FFFBE3"/>
<circle cx="223.464" cy="53.7849" r="1.29697" transform="rotate(17.0908 223.464 53.7849)" fill="#FFFBE3"/>
<circle cx="225.277" cy="61.1267" r="1.29697" transform="rotate(17.0908 225.277 61.1267)" fill="#FFFBE3"/>
<circle cx="205.875" cy="73.4795" r="1.29697" transform="rotate(17.0908 205.875 73.4795)" fill="#FFFBE3"/>
<circle cx="205.875" cy="73.4795" r="1.29697" transform="rotate(17.0908 205.875 73.4795)" fill="#FFFBE3"/>
<circle cx="220.798" cy="71.2835" r="1.29697" transform="rotate(17.0908 220.798 71.2835)" fill="#FFFBE3"/>
<circle cx="205.875" cy="73.4795" r="1.29697" transform="rotate(17.0908 205.875 73.4795)" fill="#FFFBE3"/>
<circle cx="194.381" cy="55.6983" r="1.29697" transform="rotate(17.0908 194.381 55.6983)" fill="#FFFBE3"/>
<circle cx="190.186" cy="60.5147" r="1.29697" transform="rotate(17.0908 190.186 60.5147)" fill="#FFFBE3"/>
<circle cx="201.103" cy="53.6941" r="1.29697" transform="rotate(17.0908 201.103 53.6941)" fill="#FFFBE3"/>
<circle cx="196.339" cy="69.1904" r="1.29697" transform="rotate(17.0908 196.339 69.1904)" fill="#FFFBE3"/>
<circle cx="201.103" cy="53.6941" r="1.29697" transform="rotate(17.0908 201.103 53.6941)" fill="#FFFBE3"/>
<circle cx="210.925" cy="52.6431" r="1.29697" transform="rotate(17.0908 210.925 52.6431)" fill="#FFFBE3"/>
<circle cx="215.741" cy="56.8379" r="1.29697" transform="rotate(17.0908 215.741 56.8379)" fill="#FFFBE3"/>
<circle cx="213.644" cy="63.6563" r="1.29697" transform="rotate(17.0908 213.644 63.6563)" fill="#FFFBE3"/>
<circle cx="205.683" cy="65.2788" r="1.29697" transform="rotate(17.0908 205.683 65.2788)" fill="#FFFBE3"/>
<circle cx="199.007" cy="60.5125" r="1.29697" transform="rotate(17.0908 199.007 60.5125)" fill="#FFFBE3"/>
<circle cx="206.539" cy="58.0794" r="1.29697" transform="rotate(17.0908 206.539 58.0794)" fill="#FFFBE3"/>
</g>
</svg>
