<svg width="924" height="490" viewBox="0 0 924 490" fill="none" xmlns="http://www.w3.org/2000/svg">
  <!-- Background rectangle to fill entire SVG -->
  <rect width="924" height="490" fill="#A9CAF5" rx="8" ry="8" />
  
  <path d="M-4.48029 22.1744C42.1864 50.6744 177.12 95.8744 343.52 48.6744C551.52 -10.3256 530.52 -34.324 671.02 -31.824C811.52 -29.324 967.02 156.675 1253.02 121.675C1399.76 103.717 1458.91 83.977 1477.02 68.7857V48.6744C1484.43 53.2174 1487.14 60.2903 1477.02 68.7857V189.175C1412.35 164.008 1371.22 100.776 1140.02 161.176C851.02 236.676 617.886 117.994 521.52 100.176C389.02 75.6758 -7.48047 140.676 -104.48 218.676C-182.08 281.076 -36.8136 96.6745 -4.48029 22.1744Z" fill="white" fill-opacity="0.5"/>
  <path d="M1447.12 74.1744C1400.45 102.674 1265.52 147.874 1099.12 100.674C891.115 41.6744 912.115 17.676 771.615 20.176C631.115 22.676 478.5 159 192.5 124C-3.14124 100.058 -45.2047 39.3144 -40.3671 14.2917L-34.3849 5C-37.38 6.83572 -39.5471 10.0507 -40.3671 14.2917L-111 124C-46.3334 98.8333 71.4153 152.776 302.615 213.176C591.615 288.676 571.73 152.46 771.615 115.5C971.5 78.5401 1450.12 192.676 1547.12 270.676C1624.72 333.076 1479.45 148.674 1447.12 74.1744Z" fill="#FCFCFF" fill-opacity="0.5"/>
  <path d="M1425 273.025V336.525L0 363.024V336.525C90 336.525 188.833 299.201 305 273.025C420.346 247.033 483.977 301.165 606.5 310.524C725.508 319.615 782.416 273.184 876.5 298.024C968.352 322.276 1035 345.525 1164 273.025C1267.2 215.025 1381 248.858 1425 273.025Z" fill="#0B2215"/>
  <path d="M0 273.025V336.525L1425 363.024V336.525C1335 336.525 1238 289.024 1120 273.025C1002 257.025 938 298.024 818.5 310.524C699 323.024 652 286 557 286C462 286 390 345.525 261 273.025C157.8 215.025 44 248.858 0 273.025Z" fill="#1C3A29"/>
  <path d="M-1 373H1833V490H-1V373Z" fill="#909090"/>
  <path d="M-2 428H1902" stroke="#FCD579" stroke-width="10" stroke-dasharray="30 30"/>
  <rect x="-1" y="335" width="925" height="38" fill="#FFE5C9"/>
</svg>