<svg width="121" height="103" viewBox="0 0 121 103" fill="none" xmlns="http://www.w3.org/2000/svg">
<g clip-path="url(#clip0_5179_51606)">
<path d="M47.1855 98.3973V83.5739C47.1855 81.5219 45.5242 79.8584 43.4749 79.8584C41.4255 79.8584 39.7642 81.5219 39.7642 83.5739V98.3973C39.7642 100.449 41.4255 102.113 43.4749 102.113C45.5242 102.113 47.1855 100.449 47.1855 98.3973Z" fill="#171759"/>
<path d="M48.8783 94.6816H43.4792C41.4272 94.6816 39.7637 96.343 39.7637 98.3923C39.7637 100.442 41.4272 102.103 43.4792 102.103H48.8783C50.9304 102.103 52.5939 100.442 52.5939 98.3923C52.5939 96.343 50.9304 94.6816 48.8783 94.6816Z" fill="#171759"/>
<path d="M28.1005 98.6404L31.4199 84.1934C31.8794 82.1935 30.6328 80.2002 28.6355 79.7413C26.6382 79.2824 24.6465 80.5316 24.187 82.5316L20.8676 96.9785C20.4081 98.9785 21.6547 100.972 23.652 101.431C25.6494 101.89 27.641 100.64 28.1005 98.6404Z" fill="#171759"/>
<path d="M30.5902 95.4048L25.3282 94.1958C23.3283 93.7363 21.335 94.9829 20.8761 96.9802C20.4172 98.9775 21.6664 100.969 23.6663 101.429L28.9283 102.638C30.9283 103.097 32.9215 101.851 33.3805 99.8533C33.8394 97.856 32.5901 95.8643 30.5902 95.4048Z" fill="#171759"/>
<path d="M35.1976 89.5046C54.3606 89.5046 69.8953 73.97 69.8953 54.807C69.8953 35.644 54.3606 20.1094 35.1976 20.1094C16.0347 20.1094 0.5 35.644 0.5 54.807C0.5 73.97 16.0347 89.5046 35.1976 89.5046Z" fill="#62657A"/>
<path d="M37.6063 73.6652C48.0214 73.6652 56.4645 65.2221 56.4645 54.807C56.4645 44.3919 48.0214 35.9487 37.6063 35.9487C27.1912 35.9487 18.748 44.3919 18.748 54.807C18.748 65.2221 27.1912 73.6652 37.6063 73.6652Z" stroke="#D3D3DD" stroke-width="2.73827" stroke-miterlimit="10"/>
<path d="M37.6067 69.2045C45.5583 69.2045 52.0043 62.7585 52.0043 54.8069C52.0043 46.8552 45.5583 40.4092 37.6067 40.4092C29.655 40.4092 23.209 46.8552 23.209 54.8069C23.209 62.7585 29.655 69.2045 37.6067 69.2045Z" fill="#D3D3DD"/>
<path opacity="0.2" d="M0.5 54.8068C0.5 73.965 16.0394 89.5045 35.1976 89.5045C44.9896 89.5045 53.8333 85.4503 60.1323 78.9191C54.7719 82.3056 48.4245 84.2698 41.6224 84.2698C22.4642 84.2698 6.93445 68.7304 6.93445 49.5722C6.93445 40.206 10.6403 31.7009 16.6877 25.46C6.96347 31.5945 0.5 42.4508 0.5 54.8068Z" fill="#3D3D60"/>
<path d="M3.80078 55.8423C4.32328 71.6139 16.4858 84.4441 31.9769 86.0213" stroke="#4E4E68" stroke-width="2.73827" stroke-miterlimit="10" stroke-linecap="round"/>
<path d="M8.5625 57.9033C9.83004 68.779 17.5998 77.6711 27.8852 80.5739" stroke="#4E4E68" stroke-width="2.73827" stroke-miterlimit="10" stroke-linecap="round"/>
<path d="M66.596 53.7718C66.0735 38.0001 53.911 25.1699 38.4199 23.5928" stroke="#4E4E68" stroke-width="2.73827" stroke-miterlimit="10" stroke-linecap="round"/>
<path d="M61.8344 51.7106C60.5669 40.8349 52.7972 31.9428 42.5117 29.04" stroke="#4E4E68" stroke-width="2.73827" stroke-miterlimit="10" stroke-linecap="round"/>
<path d="M51.209 57.2939V55.8909C51.209 54.5389 50.113 53.4429 48.761 53.4429C47.409 53.4429 46.313 54.5389 46.313 55.8909V57.2939C46.313 58.6459 47.409 59.7419 48.761 59.7419C50.113 59.7419 51.209 58.6459 51.209 57.2939Z" fill="#171759"/>
<path d="M33.0762 57.2939V55.8909C33.0762 54.5389 31.9802 53.4429 30.6282 53.4429C29.2762 53.4429 28.1802 54.5389 28.1802 55.8909V57.2939C28.1802 58.6459 29.2762 59.7419 30.6282 59.7419C31.9802 59.7419 33.0762 58.6459 33.0762 57.2939Z" fill="#171759"/>
<path d="M35.4276 59.752C35.4276 62.1032 37.3338 64.0093 39.685 64.0093C42.0363 64.0093 43.9424 62.1032 43.9424 59.752H35.418H35.4276Z" fill="white" stroke="#171759" stroke-width="2.03193" stroke-linecap="round" stroke-linejoin="round"/>
<path d="M83.934 98.1608L87.0004 85.3487C87.4252 83.574 89.2059 82.479 90.9778 82.9031C92.7496 83.3272 93.8417 85.1097 93.4169 86.8844L90.3504 99.6966C89.9257 101.471 88.145 102.566 86.3731 102.142C84.6012 101.718 83.5092 99.9356 83.934 98.1608Z" fill="#171759"/>
<path d="M83.2428 94.6129L87.9018 95.728C89.6765 96.1527 90.7715 97.9334 90.3474 99.7053C89.9233 101.477 88.1408 102.569 86.3661 102.144L81.7071 101.029C79.9324 100.605 78.8375 98.8239 79.2615 97.052C79.6856 95.2802 81.4681 94.1881 83.2428 94.6129Z" fill="#171759"/>
<path d="M96.9552 99.6577L95.6489 85.0664C95.499 83.3981 96.7747 81.9323 98.4788 81.8057L99.3383 81.7409C101.048 81.6054 102.555 82.857 102.705 84.5254L104.012 99.1166C104.162 100.785 102.886 102.251 101.182 102.377L100.322 102.442C98.6123 102.578 97.1051 101.326 96.9552 99.6577Z" fill="#171759"/>
<path d="M94.5705 95.9554L100.56 95.4842C102.27 95.3487 103.777 96.6003 103.927 98.2686L104.003 99.1102C104.153 100.778 102.878 102.244 101.174 102.371L95.1841 102.842C93.4741 102.978 91.9669 101.726 91.817 100.058L91.7405 99.2161C91.5906 97.5478 92.8664 96.0819 94.5705 95.9554Z" fill="#171759"/>
<path d="M93.3937 92.6867C78.4287 92.6867 66.2972 80.5552 66.2972 65.5902C66.2972 50.6252 78.4287 38.4937 93.3937 38.4937C108.359 38.4937 120.49 50.6252 120.49 65.5902C120.49 80.5552 108.359 92.6867 93.3937 92.6867Z" fill="#62657A"/>
<path d="M91.5099 80.3142C83.3777 80.3142 76.7854 73.7219 76.7854 65.5897C76.7854 57.4576 83.3777 50.8652 91.5099 50.8652C99.642 50.8652 106.234 57.4576 106.234 65.5897C106.234 73.7219 99.642 80.3142 91.5099 80.3142Z" stroke="#D3D3DD" stroke-width="2.13864" stroke-miterlimit="10"/>
<path d="M91.5115 76.8286C85.3046 76.8286 80.2729 71.797 80.2729 65.5901C80.2729 59.3832 85.3046 54.3516 91.5115 54.3516C97.7183 54.3516 102.75 59.3832 102.75 65.5901C102.75 71.797 97.7183 76.8286 91.5115 76.8286Z" fill="#D3D3DD"/>
<path opacity="0.2" d="M120.489 65.5898C120.489 80.5602 108.353 92.6863 93.3928 92.6863C85.7472 92.6863 78.8394 89.5211 73.9205 84.4205C78.1016 87.0617 83.0632 88.6015 88.3777 88.6015C103.348 88.6015 115.474 76.4648 115.474 61.505C115.474 54.1909 112.576 47.5397 107.861 42.6743C115.453 47.4756 120.5 55.9445 120.5 65.6005L120.489 65.5898Z" fill="#3D3D60"/>
<path d="M117.91 66.3921C117.504 78.7106 107.998 88.7301 95.9036 89.9599" stroke="#4E4E68" stroke-width="2.13864" stroke-miterlimit="10" stroke-linecap="round"/>
<path d="M114.199 68.0068C113.215 76.4972 107.142 83.4478 99.1005 85.7147" stroke="#4E4E68" stroke-width="2.13864" stroke-miterlimit="10" stroke-linecap="round"/>
<path d="M68.8684 64.7772C69.2748 52.4587 78.781 42.4392 90.875 41.2095" stroke="#4E4E68" stroke-width="2.13864" stroke-miterlimit="10" stroke-linecap="round"/>
<path d="M72.5887 63.1732C73.5725 54.6829 79.6462 47.7323 87.6875 45.4653" stroke="#4E4E68" stroke-width="2.13864" stroke-miterlimit="10" stroke-linecap="round"/>
<path d="M95.4785 66.1224V64.9782C95.4785 63.8857 96.3642 63 97.4568 63H97.4674C98.56 63 99.4457 63.8857 99.4457 64.9782V66.1224C99.4457 67.215 98.56 68.1006 97.4674 68.1006H97.4568C96.3642 68.1006 95.4785 67.215 95.4785 66.1224Z" fill="#171759"/>
<path d="M80.8086 65.8055V64.6613C80.8086 63.5688 81.6943 62.6831 82.7868 62.6831H82.7975C83.8901 62.6831 84.7758 63.5688 84.7758 64.6613V65.8055C84.7758 66.8981 83.8901 67.7837 82.7975 67.7837H82.7868C81.6943 67.7837 80.8086 66.8981 80.8086 65.8055Z" fill="#171759"/>
<path d="M93.2656 68.5176C92.9983 70.0039 91.7044 71.1374 90.1325 71.1374C88.5606 71.1374 87.2668 70.0039 86.9994 68.5176" stroke="#171759" stroke-width="1.64675" stroke-linecap="round" stroke-linejoin="round"/>
<path fill-rule="evenodd" clip-rule="evenodd" d="M93.4517 41.0678C96.7226 39.4707 98.8 37.0822 98.8 34.4132C98.8 29.6046 92.0573 25.7065 83.7398 25.7065C75.4223 25.7065 68.6797 29.6046 68.6797 34.4132C68.6797 39.2217 75.4223 43.1198 83.7398 43.1198C85.9354 43.1198 88.0212 42.8482 89.9023 42.3599L91.2701 44.5316L93.4517 41.0678Z" fill="#BBD567"/>
</g>
<path fill-rule="evenodd" clip-rule="evenodd" d="M57.2617 21.5451C52.731 19.3328 49.8536 16.0244 49.8536 12.3275C49.8536 5.66697 59.1931 0.267578 70.7139 0.267578C82.2347 0.267578 91.5742 5.66697 91.5742 12.3275C91.5742 18.9879 82.2347 24.3873 70.7139 24.3873C67.6728 24.3873 64.7836 24.0111 62.1781 23.3348L60.2835 26.3429L57.2617 21.5451Z" fill="#1C3A29"/>
<defs>
<clipPath id="clip0_5179_51606">
<rect width="120" height="82.6222" fill="white" transform="translate(0.5 20.1099)"/>
</clipPath>
</defs>
</svg>
