<svg width="121" height="117" viewBox="0 0 121 117" fill="none" xmlns="http://www.w3.org/2000/svg">
<path opacity="0.2" d="M59.0334 116.646C79.5899 116.646 96.2542 113.228 96.2542 109.013C96.2542 104.797 79.5899 101.379 59.0334 101.379C38.4769 101.379 21.8125 104.797 21.8125 109.013C21.8125 113.228 38.4769 116.646 59.0334 116.646Z" fill="#3D3D60"/>
<path d="M54.0371 106.097V86.1134C54.0371 83.3533 51.7995 81.1157 49.0394 81.1157H49.032C46.2718 81.1157 44.0343 83.3533 44.0343 86.1134V106.097C44.0343 108.857 46.2718 111.095 49.032 111.095H49.0394C51.7995 111.095 54.0371 108.857 54.0371 106.097Z" fill="#171759"/>
<path d="M41.7532 111.095H49.0394C51.7995 111.095 54.0371 108.857 54.0371 106.097V106.09C54.0371 103.329 51.7995 101.092 49.0394 101.092H41.7532C38.993 101.092 36.7555 103.329 36.7555 106.09V106.097C36.7555 108.857 38.993 111.095 41.7532 111.095Z" fill="#171759"/>
<path d="M77.3932 101.501L69.9104 82.9716C68.8769 80.4122 65.9643 79.1752 63.4049 80.2088L63.3981 80.2115C60.8387 81.2451 59.6018 84.1577 60.6353 86.7171L68.1181 105.247C69.1516 107.806 72.0642 109.043 74.6236 108.01L74.6304 108.007C77.1898 106.973 78.4267 104.061 77.3932 101.501Z" fill="#171759"/>
<path d="M67.9047 110.706L74.6608 107.978C77.2201 106.944 78.4571 104.032 77.4236 101.472L77.4208 101.465C76.3873 98.9061 73.4746 97.6692 70.9153 98.7027L64.1592 101.431C61.5998 102.465 60.3629 105.377 61.3964 107.936L61.3992 107.943C62.4327 110.503 65.3453 111.74 67.9047 110.706Z" fill="#171759"/>
<path d="M55.6599 93.8422C81.4758 93.8422 102.404 72.9142 102.404 47.0983C102.404 21.2824 81.4758 0.354492 55.6599 0.354492C29.844 0.354492 8.91602 21.2824 8.91602 47.0983C8.91602 72.9142 29.844 93.8422 55.6599 93.8422Z" fill="#62657A"/>
<path d="M52.7087 71.762C66.7378 71.762 78.1107 60.3892 78.1107 46.36C78.1107 32.3309 66.7378 20.958 52.7087 20.958C38.6795 20.958 27.3066 32.3309 27.3066 46.36C27.3066 60.3892 38.6795 71.762 52.7087 71.762Z" stroke="#D3D3DD" stroke-width="3.69108" stroke-miterlimit="10"/>
<path d="M52.7074 65.7527C63.4178 65.7527 72.1003 57.0702 72.1003 46.3597C72.1003 35.6493 63.4178 26.9668 52.7074 26.9668C41.997 26.9668 33.3145 35.6493 33.3145 46.3597C33.3145 57.0702 41.997 65.7527 52.7074 65.7527Z" fill="#D3D3DD"/>
<path opacity="0.2" d="M102.405 47.0979C102.405 72.9134 81.4761 93.8418 55.6607 93.8418C42.4688 93.8418 30.5613 88.379 22.0645 79.5868C29.2842 84.149 37.8327 86.7918 47.0014 86.7918C72.8168 86.7918 93.7378 65.8634 93.7378 40.048C93.7378 27.4245 88.7401 15.9674 80.5976 7.55908C93.7009 15.8345 102.405 30.4512 102.405 47.0979Z" fill="#3D3D60"/>
<path d="M97.961 48.4937C97.2523 69.7469 80.8713 87.0285 60.002 89.1472" stroke="#4E4E68" stroke-width="3.69108" stroke-miterlimit="10" stroke-linecap="round"/>
<path d="M91.5466 51.27C89.8414 65.9236 79.3661 77.8975 65.5098 81.81" stroke="#4E4E68" stroke-width="3.69108" stroke-miterlimit="10" stroke-linecap="round"/>
<path d="M13.3691 45.7034C14.0778 24.4501 30.4589 7.16848 51.3282 5.0498" stroke="#4E4E68" stroke-width="3.69108" stroke-miterlimit="10" stroke-linecap="round"/>
<path d="M19.7832 42.9204C21.4885 28.2668 31.9638 16.2929 45.8201 12.3804" stroke="#4E4E68" stroke-width="3.69108" stroke-miterlimit="10" stroke-linecap="round"/>
<path d="M37.6846 53.6904C42.1163 53.6904 45.709 50.0978 45.709 45.666C45.709 41.2343 42.1163 37.6416 37.6846 37.6416C33.2528 37.6416 29.6602 41.2343 29.6602 45.666C29.6602 50.0978 33.2528 53.6904 37.6846 53.6904Z" stroke="#ED351D" stroke-width="2.95286" stroke-linecap="round" stroke-linejoin="round"/>
<path d="M63.5381 53.6904C67.9699 53.6904 71.5625 50.0978 71.5625 45.666C71.5625 41.2343 67.9699 37.6416 63.5381 37.6416C59.1063 37.6416 55.5137 41.2343 55.5137 45.666C55.5137 50.0978 59.1063 53.6904 63.5381 53.6904Z" stroke="#ED351D" stroke-width="2.95286" stroke-linecap="round" stroke-linejoin="round"/>
<path d="M45.709 45.666C46.5948 45.2378 48.2706 44.5587 50.4852 44.5365C52.8328 44.507 54.6193 45.2304 55.5199 45.666" stroke="#ED351D" stroke-width="2.95286" stroke-linecap="round" stroke-linejoin="round"/>
<path d="M79.5399 67.891L82.668 72.3335L112.003 51.6783L108.875 47.2357L79.5399 67.891Z" fill="#FFBC00"/>
<path d="M76.4188 63.4457L79.5469 67.8882L108.882 47.2329L105.754 42.7904L76.4188 63.4457Z" fill="#FFD815"/>
<path d="M105.752 42.7968L112.004 51.6758L115.275 49.3723L109.024 40.4933L105.752 42.7968Z" fill="#DBD9E2"/>
<path d="M115.279 49.3716L109.027 40.4926L111.822 38.5249C113.162 37.5814 115.014 37.9028 115.957 39.2428L118.792 43.2688C119.735 44.6088 119.414 46.4603 118.074 47.4038L115.279 49.3716Z" fill="#FF558A"/>
<path d="M76.4344 63.4424L82.687 72.3231L77.3276 73.4157L73.5996 68.1227L76.4344 63.4424Z" fill="#FFE7C5"/>
<path d="M73.5996 68.1226L77.3276 73.4156L72.3742 74.4195C71.2521 74.6484 70.3884 73.423 70.9864 72.4485L73.5996 68.1226Z" fill="#171759"/>
<path d="M100.619 71.5041C104.989 71.5041 108.532 67.961 108.532 63.5904C108.532 59.2198 104.989 55.6768 100.619 55.6768C96.2482 55.6768 92.7051 59.2198 92.7051 63.5904C92.7051 67.961 96.2482 71.5041 100.619 71.5041Z" fill="#171759"/>
<path d="M41.7012 47.903V46.0132C41.7012 44.1908 40.2238 42.7134 38.4013 42.7134C36.5789 42.7134 35.1015 44.1908 35.1015 46.0132V47.903C35.1015 49.7255 36.5789 51.2029 38.4013 51.2029C40.2238 51.2029 41.7012 49.7255 41.7012 47.903Z" fill="#171759"/>
<path d="M66.1289 47.903V46.0132C66.1289 44.1908 64.6515 42.7134 62.8291 42.7134C61.0066 42.7134 59.5293 44.1908 59.5293 46.0132V47.903C59.5293 49.7255 61.0066 51.2029 62.8291 51.2029C64.6515 51.2029 66.1289 49.7255 66.1289 47.903Z" fill="#171759"/>
<path d="M45.3926 51.897C45.8355 54.37 47.9985 56.2524 50.6118 56.2524C53.2251 56.2524 55.388 54.37 55.831 51.897" stroke="#171759" stroke-width="2.7314" stroke-linecap="round" stroke-linejoin="round"/>
<path d="M38.3778 89.937L15.2421 94.4771C14.2086 94.6764 13.1382 94.0268 12.8429 93.0302L4.44203 64.225C4.14674 63.221 4.75208 62.2466 5.78559 62.0399L28.9213 57.4998C29.9548 57.3005 31.0252 57.9501 31.3205 58.9467L39.7214 87.7519C40.0167 88.7559 39.4113 89.7303 38.3778 89.937Z" fill="#C2E9F9"/>
<path d="M36.37 90.3286L13.2343 94.8687C12.2008 95.068 11.1304 94.4184 10.8351 93.4218L2.43421 64.6166C2.13893 63.6126 2.74427 62.6382 3.77777 62.4315L26.9135 57.8914C27.947 57.6921 29.0174 58.3417 29.3127 59.3383L37.7136 88.1435C38.0089 89.1475 37.4035 90.1219 36.37 90.3286Z" fill="#F3FDFF"/>
<path d="M37.2117 91.022L12.5331 95.8647C11.4996 96.064 10.4292 95.4144 10.1339 94.4178L1.73304 65.6126C1.43776 64.6086 2.04308 63.6342 3.07658 63.4275L27.7552 58.5848C28.7887 58.3855 29.8591 59.0351 30.1544 60.0317L38.5552 88.8369C38.8505 89.8409 38.2452 90.8153 37.2117 91.022Z" fill="#3A6DED"/>
<path d="M36.0535 91.2515L11.3749 96.0942C10.3414 96.2935 9.27103 95.6439 8.97574 94.6473L0.57484 65.8421C0.279553 64.8381 0.884896 63.8637 1.9184 63.657L26.597 58.8143C27.6305 58.615 28.7009 59.2646 28.9962 60.2612L37.3971 89.0664C37.6923 90.0703 37.087 91.0448 36.0535 91.2515Z" fill="#5086FF"/>
<path d="M22.5811 63.5905L7.77987 66.4917C6.74637 66.691 5.67596 66.0414 5.38067 65.0448L5.23304 64.528C4.93776 63.5241 5.5431 62.5496 6.5766 62.3429L21.3778 59.4417C22.4113 59.2424 23.4817 59.892 23.777 60.8886L23.9247 61.4054C24.22 62.4093 23.6146 63.3838 22.5811 63.5905Z" fill="#3A6DED"/>
<path d="M22.3233 62.7194L7.52208 65.6206C6.48858 65.8199 5.41817 65.1703 5.12288 64.1737L4.97523 63.6569C4.67994 62.653 5.28529 61.6785 6.31879 61.4718L21.12 58.5706C22.1535 58.3713 23.2239 59.0209 23.5192 60.0175L23.6669 60.5343C23.9622 61.5382 23.3568 62.5127 22.3233 62.7194Z" fill="#AAB0BA"/>
</svg>
