<svg width="124" height="107" viewBox="0 0 124 107" fill="none" xmlns="http://www.w3.org/2000/svg">
<path d="M58.4828 51.2257L52.5392 42.8001C51.7182 41.6363 50.1093 41.3584 48.9455 42.1793L48.9424 42.1815C47.7787 43.0025 47.5007 44.6114 48.3217 45.7752L54.2654 54.2008C55.0863 55.3646 56.6952 55.6425 57.859 54.8216L57.8621 54.8194C59.0259 53.9984 59.3038 52.3895 58.4828 51.2257Z" fill="#171759"/>
<path d="M57.9644 48.4397L54.8924 50.6068C53.7286 51.4277 53.4507 53.0367 54.2716 54.2005L54.2738 54.2036C55.0948 55.3673 56.7037 55.6452 57.8675 54.8243L60.9395 52.6572C62.1033 51.8362 62.3812 50.2273 61.5603 49.0635L61.5581 49.0604C60.7371 47.8966 59.1282 47.6187 57.9644 48.4397Z" fill="#171759"/>
<path d="M17.5195 61.8135L25.1826 82.0138L28.8648 79.7261L46.1798 60.6215M84.3857 51.5639L93.4399 50.269L94.6352 54.3496L88.267 59.0278" stroke="#484848" stroke-width="0.996069"/>
<path d="M81.9976 47.5865L78.4151 40.7203H81.9976V27.187L73.4414 29.0762" stroke="#484848" stroke-width="0.996069"/>
<path d="M25.38 104.8C36.4813 104.8 45.4806 95.8011 45.4806 84.6998C45.4806 73.5985 36.4813 64.5991 25.38 64.5991C14.2787 64.5991 5.2793 73.5985 5.2793 84.6998C5.2793 95.8011 14.2787 104.8 25.38 104.8Z" stroke="#62657A" stroke-width="3.98096"/>
<path d="M4.83008 79.2315C7.41654 72.0266 13.1871 66.0203 19.9537 64.6025" stroke="#4E4E68" stroke-width="0.597642" stroke-miterlimit="10" stroke-linecap="round"/>
<path d="M6.52344 78.6839C8.21344 73.2254 13.1905 68.4211 17.965 66.7842" stroke="#4E4E68" stroke-width="0.597642" stroke-miterlimit="10" stroke-linecap="round"/>
<path d="M101.4 104.8C112.501 104.8 121.5 95.8011 121.5 84.6998C121.5 73.5985 112.501 64.5991 101.4 64.5991C90.2982 64.5991 81.2988 73.5985 81.2988 84.6998C81.2988 95.8011 90.2982 104.8 101.4 104.8Z" stroke="#62657A" stroke-width="3.98096"/>
<path d="M81.0508 79.2315C83.6372 72.0266 89.4078 66.0203 96.1744 64.6025" stroke="#4E4E68" stroke-width="0.597642" stroke-miterlimit="10" stroke-linecap="round"/>
<path d="M82.7422 78.6839C84.4355 73.2254 89.4092 68.4211 94.1837 66.7842" stroke="#4E4E68" stroke-width="0.597642" stroke-miterlimit="10" stroke-linecap="round"/>
<path d="M56.8457 92.9707L23.0392 88.4485C20.6187 88.1232 18.8125 86.0613 18.8125 83.6176C18.8125 80.9979 20.881 78.8464 23.5007 78.7468L57.5828 77.4453C62.0054 77.276 65.6809 80.8153 65.6809 85.2379C65.6809 89.9559 61.5239 93.5949 56.8491 92.9674L56.8457 92.9707Z" fill="#BBD567"/>
<path d="M48.3651 78.2323C43.7865 56.4416 7.27056 51.863 1.5 81.7152" stroke="#BBD567" stroke-width="2.58646"/>
<path d="M120.628 70.788C108.266 51.8627 73.4404 60.8174 77.8198 89.4743" stroke="#BBD567" stroke-width="2.58646"/>
<path d="M49.7598 65.1974C57.1904 68.5807 75.4119 72.6812 84.0876 53.2578M63.1901 81.5163L88.5633 61.6148" stroke="#BBD567" stroke-width="2.98489"/>
<path d="M45.7773 57.6339L61.1998 86.7888M81.5993 48.3804L101.003 83.7043" stroke="#9AB445" stroke-width="2.58646"/>
<path d="M45.0249 55.2887L45.0218 55.29C43.8469 55.7546 43.2712 57.0838 43.7359 58.2586L44.3954 59.9259C44.8601 61.1008 46.1892 61.6765 47.364 61.2118L47.3671 61.2106C48.542 60.7459 49.1177 59.4167 48.653 58.2419L47.9936 56.5746C47.5289 55.3998 46.1998 54.824 45.0249 55.2887Z" fill="#BBD567"/>
<path d="M81.4409 46.7301L81.4378 46.7314C80.263 47.196 79.6873 48.5252 80.1519 49.7L80.8114 51.3673C81.2761 52.5422 82.6052 53.1179 83.7801 52.6532L83.7831 52.652C84.958 52.1873 85.5337 50.8582 85.069 49.6833L84.4096 48.016C83.9449 46.8412 82.6158 46.2654 81.4409 46.7301Z" fill="#BBD567"/>
<path d="M101.502 88.6811C103.756 88.6811 105.583 86.8542 105.583 84.6006C105.583 82.3469 103.756 80.52 101.502 80.52C99.2488 80.52 97.4219 82.3469 97.4219 84.6006C97.4219 86.8542 99.2488 88.6811 101.502 88.6811Z" fill="#4E4E68"/>
<path d="M18.8125 83.9033C19.1113 86.689 21.1001 88.0835 22.7935 88.3823L57.1213 92.9609C62.5931 93.4589 65.5779 88.8803 65.6776 85.6962C45.8757 85.1982 34.733 84.8994 18.8125 83.9066V83.9033Z" fill="#9AB445"/>
<path d="M115.43 61.2158L112.146 61.8135C115.331 63.208 119.411 67.086 119.909 67.6836L119.61 64.5991L115.43 61.2158Z" fill="#FCD579"/>
<path d="M57.52 89.0791C59.7737 89.0791 61.6006 87.2522 61.6006 84.9985C61.6006 82.7449 59.7737 80.918 57.52 80.918C55.2664 80.918 53.4395 82.7449 53.4395 84.9985C53.4395 87.2522 55.2664 89.0791 57.52 89.0791Z" fill="#62657A"/>
<path d="M57.4199 85.0986V96.5401" stroke="#484848" stroke-width="0.996069"/>
<path d="M61.9976 95.8428H52.8438V99.4253H61.9976V95.8428Z" fill="#FCD579"/>
<path d="M56.9349 49.6752H35.536C34.3606 49.6752 33.4144 50.7078 33.7563 51.8333C36.3328 60.3033 48.3687 57.2785 51.3303 54.9046C52.934 53.6163 55.1984 52.4575 56.812 52.0824C57.4429 51.9363 58.0139 51.4017 58.0139 50.7543C58.0139 50.1566 57.5292 49.6719 56.9316 49.6719L56.9349 49.6752Z" fill="#FCD579"/>
<path d="M96.0656 57.8691L92.2042 44.2727C92.0249 43.6386 92.4997 43.0044 93.1604 43.0044H101.415C101.916 43.0044 102.338 43.3763 102.401 43.8743L103.699 54.0076C103.749 54.3961 103.566 54.7813 103.227 54.9838L97.5332 58.4468C96.972 58.7888 96.2383 58.4999 96.059 57.8691H96.0656Z" fill="#F0C254"/>
<path d="M102.893 42.3105H91.9492C91.234 42.3105 90.6543 42.8895 90.6543 43.6038C90.6543 44.318 91.234 44.897 91.9492 44.897H102.893C103.608 44.897 104.188 44.318 104.188 43.6038C104.188 42.8895 103.608 42.3105 102.893 42.3105Z" fill="#FCD579"/>
<path d="M66.8413 29.2289L77.5291 26.8683C78.2263 26.7155 78.917 27.1538 79.0697 27.851C79.2224 28.5483 78.7841 29.2389 78.0869 29.3916L67.3991 31.7523C66.7018 31.905 66.0112 31.4668 65.8585 30.7695C65.7058 30.0723 66.144 29.3817 66.8413 29.2289Z" fill="#FCD579"/>
<path d="M50.013 55.6419L47.8965 46.9068C47.6042 45.7002 46.3891 44.9591 45.1826 45.2515L45.1794 45.2523C43.9729 45.5446 43.2318 46.7597 43.5241 47.9662L45.6406 56.7013C45.9329 57.9078 47.148 58.6489 48.3545 58.3566L48.3577 58.3558C49.5642 58.0634 50.3053 56.8484 50.013 55.6419Z" fill="#171759"/>
<path d="M50.4789 53.2268L47.294 53.9985C46.0874 54.2909 45.3464 55.5059 45.6387 56.7124L45.6395 56.7156C45.9318 57.9222 47.1469 58.6632 48.3534 58.3709L51.5383 57.5992C52.7448 57.3069 53.4859 56.0918 53.1936 54.8853L53.1928 54.8821C52.9004 53.6756 51.6854 52.9345 50.4789 53.2268Z" fill="#171759"/>
<path d="M48.3635 49.8575C59.9746 49.8575 69.3872 40.4448 69.3872 28.8338C69.3872 17.2227 59.9746 7.81006 48.3635 7.81006C36.7525 7.81006 27.3398 17.2227 27.3398 28.8338C27.3398 40.4448 36.7525 49.8575 48.3635 49.8575Z" fill="#62657A"/>
<path d="M50.3155 40.5871C56.6253 40.5871 61.7405 35.472 61.7405 29.1622C61.7405 22.8524 56.6253 17.7373 50.3155 17.7373C44.0057 17.7373 38.8906 22.8524 38.8906 29.1622C38.8906 35.472 44.0057 40.5871 50.3155 40.5871Z" stroke="#D3D3DD" stroke-width="1.66012" stroke-miterlimit="10"/>
<path d="M50.6558 37.8878C55.473 37.8878 59.3781 33.9828 59.3781 29.1656C59.3781 24.3484 55.473 20.4434 50.6558 20.4434C45.8387 20.4434 41.9336 24.3484 41.9336 29.1656C41.9336 33.9828 45.8387 37.8878 50.6558 37.8878Z" fill="#D3D3DD"/>
<path opacity="0.2" d="M69.386 28.8334C69.386 40.4443 59.9732 49.8571 48.3623 49.8571C42.4291 49.8571 37.0735 47.4002 33.252 43.4458C36.4991 45.4977 40.344 46.6863 44.4677 46.6863C56.0785 46.6863 65.4881 37.2735 65.4881 25.6626C65.4881 19.985 63.2403 14.832 59.5781 11.0503C65.4715 14.7723 69.386 21.3463 69.386 28.8334Z" fill="#3D3D60"/>
<path d="M67.389 29.4609C67.0703 39.0199 59.7027 46.7925 50.3164 47.7454" stroke="#4E4E68" stroke-width="1.66012" stroke-miterlimit="10" stroke-linecap="round"/>
<path d="M64.5054 30.71C63.7384 37.3006 59.027 42.686 52.7949 44.4458" stroke="#4E4E68" stroke-width="1.66012" stroke-miterlimit="10" stroke-linecap="round"/>
<path d="M29.3398 28.2064C29.6586 18.6474 37.0262 10.8748 46.4125 9.92188" stroke="#4E4E68" stroke-width="1.66012" stroke-miterlimit="10" stroke-linecap="round"/>
<path d="M32.2246 26.9545C32.9916 20.3639 37.703 14.9785 43.9351 13.2188" stroke="#4E4E68" stroke-width="1.66012" stroke-miterlimit="10" stroke-linecap="round"/>
<path d="M47.7637 28.9996V28.1497C47.7637 27.33 47.0992 26.6655 46.2795 26.6655C45.4599 26.6655 44.7954 27.33 44.7954 28.1497V28.9996C44.7954 29.8193 45.4599 30.4838 46.2795 30.4838C47.0992 30.4838 47.7637 29.8193 47.7637 28.9996Z" fill="#171759"/>
<path d="M58.748 29.0031V28.1531C58.748 27.3334 58.0836 26.6689 57.2639 26.6689C56.4442 26.6689 55.7798 27.3334 55.7798 28.1531V29.0031C55.7798 29.8227 56.4442 30.4872 57.2639 30.4872C58.0836 30.4872 58.748 29.8227 58.748 29.0031Z" fill="#171759"/>
<path d="M54.355 30.4839C54.355 31.9083 53.1995 33.067 51.7751 33.067C50.3508 33.067 49.1953 31.9083 49.1953 30.4839H54.3583H54.355Z" fill="white" stroke="#171759" stroke-width="1.22849" stroke-linecap="round" stroke-linejoin="round"/>
<path d="M68.7557 22.3655C68.696 23.6504 68.0319 34.4512 59.8774 39.1858C57.125 40.7862 54.5186 41.1115 53.4129 41.2377C48.0574 41.8519 41.4867 40.1254 37.0973 34.9791C32.5187 29.6103 32.7047 23.3251 32.7877 21.8442" stroke="#201C3A" stroke-width="2.65618" stroke-miterlimit="10"/>
<path d="M68.6441 26.121C65.4898 25.3474 61.8974 24.69 57.9197 24.3348C49.161 23.5512 41.634 24.5074 35.9962 25.7326C35.9962 25.7326 33.5094 26.5527 28.0875 26.121C27.7588 26.0945 27.2142 26.0148 26.7892 25.613C26.4572 25.2976 26.248 24.866 26.248 24.3879V21.5989C26.248 20.646 27.0748 19.8657 28.0875 19.8657H68.6474C69.6567 19.8657 70.4868 20.646 70.4868 21.5989V24.3879C70.4868 25.3408 69.6601 26.121 68.6474 26.121H68.6441Z" fill="#312A4C"/>
<path d="M27.3746 22.9931C26.2922 22.9931 25.4256 22.08 25.5186 21.0076C26.5445 9.41999 36.4554 0.199707 48.3617 0.199707C60.2681 0.199707 70.179 9.41999 71.2049 21.0076C71.3012 22.0767 70.4313 22.9931 69.3489 22.9931H27.3713H27.3746Z" fill="#6155FF"/>
<path d="M56.3794 38.964L50.2955 39.3959C49.7321 39.4358 49.3078 39.925 49.3478 40.4883L49.4731 42.2536C49.5131 42.8169 50.0022 43.2412 50.5656 43.2012L56.6495 42.7694C57.2129 42.7294 57.6372 42.2403 57.5972 41.6769L57.4719 39.9117C57.4319 39.3483 56.9428 38.924 56.3794 38.964Z" fill="#312A4C"/>
<path d="M66.8432 29.2919L77.5311 26.9312C78.2283 26.7785 78.9189 27.2168 79.0716 27.914C79.2244 28.6113 78.7861 29.3019 78.0888 29.4546L67.401 31.8153C66.7038 31.968 66.0132 31.5298 65.8604 30.8325C65.7077 30.1353 66.146 29.4447 66.8432 29.2919Z" fill="#FCD579"/>
<path d="M73.4401 32.6357C75.4059 32.6357 76.9994 31.0421 76.9994 29.0764C76.9994 27.1106 75.4059 25.5171 73.4401 25.5171C71.4744 25.5171 69.8809 27.1106 69.8809 29.0764C69.8809 31.0421 71.4744 32.6357 73.4401 32.6357Z" fill="#171759"/>
</svg>
