<svg width="604" height="343" viewBox="0 0 604 343" fill="none" xmlns="http://www.w3.org/2000/svg">
<g clip-path="url(#clip0_5885_38460)">
<path d="M238.355 164.524L222.071 140.918C219.821 137.657 215.413 136.879 212.225 139.179L212.216 139.185C209.028 141.485 208.267 145.993 210.516 149.253L226.8 172.86C229.049 176.12 233.457 176.899 236.645 174.599L236.654 174.593C239.842 172.293 240.604 167.785 238.355 164.524Z" fill="#171759"/>
<path d="M236.936 156.734L228.519 162.806C225.331 165.106 224.569 169.614 226.819 172.874L226.825 172.883C229.074 176.144 233.482 176.922 236.67 174.622L245.087 168.551C248.275 166.251 249.037 161.743 246.788 158.482L246.782 158.474C244.532 155.213 240.124 154.434 236.936 156.734Z" fill="#171759"/>
<path d="M108.355 198.038L132.435 262.966L144.005 255.613L198.412 194.207M318.474 165.094L346.924 160.932L350.68 174.047L330.67 189.084" stroke="#484848" stroke-width="3.20157"/>
<path d="M310.962 152.308L299.705 130.239H310.962V86.7402L284.076 92.8125" stroke="#484848" stroke-width="3.20157"/>
<path d="M133.061 336.207C167.944 336.207 196.222 307.282 196.222 271.6C196.222 235.918 167.944 206.992 133.061 206.992C98.1784 206.992 69.9004 235.918 69.9004 271.6C69.9004 307.282 98.1784 336.207 133.061 336.207Z" stroke="#62657A" stroke-width="12.7956"/>
<path d="M68.4922 254.022C76.6194 230.864 94.7518 211.559 116.014 207.002" stroke="#4E4E68" stroke-width="1.92094" stroke-miterlimit="10" stroke-linecap="round"/>
<path d="M73.8125 252.264C79.1228 234.719 94.7617 219.277 109.764 214.016" stroke="#4E4E68" stroke-width="1.92094" stroke-miterlimit="10" stroke-linecap="round"/>
<path d="M371.932 336.207C406.815 336.207 435.093 307.282 435.093 271.6C435.093 235.918 406.815 206.992 371.932 206.992C337.05 206.992 308.771 235.918 308.771 271.6C308.771 307.282 337.05 336.207 371.932 336.207Z" stroke="#62657A" stroke-width="12.7956"/>
<path d="M308 254.022C316.127 230.864 334.26 211.559 355.522 207.002" stroke="#4E4E68" stroke-width="1.92094" stroke-miterlimit="10" stroke-linecap="round"/>
<path d="M313.309 252.264C318.629 234.719 334.258 219.277 349.26 214.016" stroke="#4E4E68" stroke-width="1.92094" stroke-miterlimit="10" stroke-linecap="round"/>
<path d="M231.933 298.184L125.705 283.649C118.099 282.603 112.424 275.976 112.424 268.121C112.424 259.701 118.924 252.786 127.155 252.466L234.249 248.282C248.145 247.738 259.694 259.114 259.694 273.329C259.694 288.494 246.632 300.191 231.943 298.174L231.933 298.184Z" fill="#BBD567"/>
<path d="M205.288 250.81C190.901 180.771 76.1597 166.054 58.0273 262.005" stroke="#BBD567" stroke-width="8.31341"/>
<path d="M432.349 226.885C393.507 166.055 284.077 194.837 297.838 286.946" stroke="#BBD567" stroke-width="8.31341"/>
<path d="M209.658 208.913C233.007 219.788 290.263 232.968 317.524 170.537M251.87 261.366L331.598 197.398" stroke="#BBD567" stroke-width="9.59403"/>
<path d="M197.16 184.604L245.621 278.314M309.721 154.861L370.69 268.4" stroke="#9AB445" stroke-width="8.31341"/>
<path d="M194.79 177.067L194.78 177.071C191.088 178.565 189.279 182.837 190.74 186.613L192.812 191.972C194.272 195.748 198.448 197.599 202.14 196.105L202.15 196.101C205.841 194.607 207.65 190.335 206.19 186.559L204.118 181.2C202.658 177.424 198.481 175.573 194.79 177.067Z" fill="#BBD567"/>
<path d="M309.218 149.548L309.208 149.551C305.516 151.045 303.707 155.317 305.167 159.093L307.239 164.452C308.7 168.229 312.876 170.079 316.568 168.585L316.577 168.581C320.269 167.088 322.078 162.816 320.618 159.04L318.546 153.681C317.086 149.904 312.909 148.054 309.218 149.548Z" fill="#BBD567"/>
<path d="M372.246 284.396C379.327 284.396 385.068 278.523 385.068 271.28C385.068 264.036 379.327 258.164 372.246 258.164C365.164 258.164 359.424 264.036 359.424 271.28C359.424 278.523 365.164 284.396 372.246 284.396Z" fill="#4E4E68"/>
<path d="M112.424 269.039C113.363 277.993 119.612 282.475 124.933 283.435L232.798 298.152C249.992 299.753 259.371 285.036 259.684 274.802C197.462 273.201 162.45 272.241 112.424 269.05V269.039Z" fill="#9AB445"/>
<path d="M503.563 93.7754L415.395 197.079L428.217 216.267L602.999 295.901L503.573 93.7754H503.563Z" fill="url(#paint0_linear_5885_38460)" fill-opacity="0.5"/>
<path d="M416.021 196.117L405.703 198.038C415.708 202.52 428.53 214.985 430.095 216.906L429.156 206.992L416.021 196.117Z" fill="#FCD579"/>
<path d="M234.051 285.677C241.132 285.677 246.873 279.805 246.873 272.561C246.873 265.317 241.132 259.445 234.051 259.445C226.969 259.445 221.229 265.317 221.229 272.561C221.229 279.805 226.969 285.677 234.051 285.677Z" fill="#62657A"/>
<path d="M233.738 272.881V309.656" stroke="#484848" stroke-width="3.20157"/>
<path d="M248.115 307.414H219.352V318.929H248.115V307.414Z" fill="#FCD579"/>
<path d="M232.215 159.022H164.975C161.281 159.022 158.308 162.341 159.383 165.959C167.479 193.183 205.298 183.461 214.604 175.831C219.643 171.69 226.758 167.965 231.829 166.76C233.811 166.29 235.605 164.572 235.605 162.491C235.605 160.57 234.082 159.012 232.204 159.012L232.215 159.022Z" fill="#FCD579"/>
<path d="M355.177 185.36L343.044 141.659C342.48 139.62 343.972 137.582 346.048 137.582H371.985C373.56 137.582 374.885 138.777 375.083 140.378L379.162 172.949C379.319 174.197 378.745 175.435 377.681 176.086L359.789 187.217C358.025 188.316 355.72 187.388 355.156 185.36H355.177Z" fill="#F0C254"/>
<path d="M376.627 135.352H342.241C339.994 135.352 338.172 137.213 338.172 139.508C338.172 141.804 339.994 143.665 342.241 143.665H376.627C378.875 143.665 380.696 141.804 380.696 139.508C380.696 137.213 378.875 135.352 376.627 135.352Z" fill="#FCD579"/>
<path d="M263.346 93.3044L296.929 85.7167C299.12 85.2258 301.29 86.6345 301.77 88.8756C302.25 91.1167 300.873 93.3365 298.682 93.8274L265.098 101.415C262.907 101.906 260.737 100.497 260.258 98.2562C259.778 96.0151 261.155 93.7954 263.346 93.3044Z" fill="#FCD579"/>
<path d="M134.334 280.245C139.261 280.245 143.254 276.16 143.254 271.121C143.254 266.081 139.261 261.996 134.334 261.996C129.408 261.996 125.414 266.081 125.414 271.121C125.414 276.16 129.408 280.245 134.334 280.245Z" fill="#62657A"/>
<path d="M155.814 274.492H118.527V286.007H155.814V274.492Z" fill="#FCD579"/>
<g filter="url(#filter0_d_5885_38460)">
<path d="M210.466 178.206L203.816 150.129C202.897 146.251 199.079 143.869 195.288 144.809L195.278 144.811C191.487 145.751 189.158 149.656 190.077 153.534L196.727 181.611C197.646 185.489 201.463 187.871 205.255 186.931L205.265 186.929C209.056 185.989 211.385 182.084 210.466 178.206Z" fill="#171759"/>
<path d="M211.944 170.434L201.937 172.914C198.146 173.854 195.817 177.759 196.735 181.637L196.738 181.647C197.657 185.525 201.474 187.907 205.266 186.968L215.273 184.487C219.064 183.548 221.393 179.642 220.475 175.764L220.472 175.754C219.553 171.876 215.736 169.494 211.944 170.434Z" fill="#171759"/>
<path d="M205.288 159.608C241.772 159.608 271.349 129.354 271.349 92.0334C271.349 54.7131 241.772 24.459 205.288 24.459C168.803 24.459 139.227 54.7131 139.227 92.0334C139.227 129.354 168.803 159.608 205.288 159.608Z" fill="#62657A"/>
<path d="M211.411 129.813C231.238 129.813 247.311 113.372 247.311 93.0911C247.311 72.8101 231.238 56.3691 211.411 56.3691C191.585 56.3691 175.512 72.8101 175.512 93.0911C175.512 113.372 191.585 129.813 211.411 129.813Z" stroke="#D3D3DD" stroke-width="5.33595" stroke-miterlimit="10"/>
<path d="M212.485 121.137C227.622 121.137 239.893 108.585 239.893 93.1015C239.893 77.6181 227.622 65.0664 212.485 65.0664C197.349 65.0664 185.078 77.6181 185.078 93.1015C185.078 108.585 197.349 121.137 212.485 121.137Z" fill="#D3D3DD"/>
<path opacity="0.2" d="M271.348 92.0337C271.348 129.353 241.771 159.608 205.287 159.608C186.643 159.608 169.815 151.711 157.807 139.001C168.01 145.596 180.091 149.416 193.049 149.416C229.533 149.416 259.1 119.162 259.1 81.842C259.1 63.5931 252.036 47.0303 240.529 34.875C259.047 46.8382 271.348 67.9685 271.348 92.0337Z" fill="#3D3D60"/>
<path d="M265.056 94.0488C264.055 124.773 240.904 149.756 211.41 152.819" stroke="#4E4E68" stroke-width="5.33595" stroke-miterlimit="10" stroke-linecap="round"/>
<path d="M255.99 98.0625C253.58 119.246 238.776 136.556 219.193 142.212" stroke="#4E4E68" stroke-width="5.33595" stroke-miterlimit="10" stroke-linecap="round"/>
<path d="M145.506 90.0143C146.507 59.2899 169.658 34.307 199.152 31.2441" stroke="#4E4E68" stroke-width="5.33595" stroke-miterlimit="10" stroke-linecap="round"/>
<path d="M154.572 85.9895C156.982 64.8058 171.787 47.4959 191.369 41.8398" stroke="#4E4E68" stroke-width="5.33595" stroke-miterlimit="10" stroke-linecap="round"/>
<path d="M203.387 92.5668V89.8348C203.387 87.2002 201.299 85.0645 198.723 85.0645C196.148 85.0645 194.06 87.2002 194.06 89.8348V92.5668C194.06 95.2014 196.148 97.3371 198.723 97.3371C201.299 97.3371 203.387 95.2014 203.387 92.5668Z" fill="#171759"/>
<path d="M237.91 92.5785V89.8465C237.91 87.2119 235.822 85.0762 233.247 85.0762C230.671 85.0762 228.583 87.2119 228.583 89.8465V92.5785C228.583 95.2131 230.671 97.3488 233.247 97.3488C235.822 97.3488 237.91 95.2131 237.91 92.5785Z" fill="#171759"/>
<path d="M224.107 97.3379C224.107 101.916 220.477 105.641 216.001 105.641C211.525 105.641 207.895 101.916 207.895 97.3379H224.118H224.107Z" fill="white" stroke="#171759" stroke-width="3.9486" stroke-linecap="round" stroke-linejoin="round"/>
<path d="M269.367 71.2458C269.179 75.3758 267.093 110.091 241.469 125.31C232.82 130.453 224.631 131.499 221.157 131.905C204.328 133.879 183.682 128.33 169.889 111.788C155.502 94.5319 156.087 74.33 156.347 69.5703" stroke="#201C3A" stroke-width="8.53751" stroke-miterlimit="10"/>
<path d="M269.012 83.3168C259.101 80.8302 247.813 78.7172 235.314 77.5753C207.792 75.0567 184.141 78.1302 166.426 82.0682C166.426 82.0682 158.612 84.7041 141.575 83.3168C140.542 83.2314 138.831 82.9753 137.495 81.684C136.452 80.6702 135.795 79.2828 135.795 77.7461V68.7817C135.795 65.7188 138.393 63.2109 141.575 63.2109H269.023C272.194 63.2109 274.803 65.7188 274.803 68.7817V77.7461C274.803 80.8089 272.205 83.3168 269.023 83.3168H269.012Z" fill="#312A4C"/>
<path d="M139.342 73.2626C135.941 73.2626 133.218 70.3278 133.51 66.8808C136.734 29.6358 167.876 0 205.288 0C242.7 0 273.843 29.6358 277.066 66.8808C277.369 70.3171 274.635 73.2626 271.234 73.2626H139.331H139.342Z" fill="#6155FF"/>
<path d="M230.481 124.588L211.363 125.976C209.593 126.105 208.26 127.677 208.386 129.488L208.779 135.162C208.905 136.972 210.442 138.336 212.212 138.207L231.329 136.819C233.1 136.691 234.433 135.119 234.307 133.308L233.913 127.634C233.788 125.823 232.251 124.46 230.481 124.588Z" fill="#312A4C"/>
</g>
<path d="M263.346 93.5076L296.929 85.9199C299.12 85.4289 301.29 86.8376 301.77 89.0787C302.25 91.3198 300.873 93.5396 298.682 94.0305L265.098 101.618C262.907 102.109 260.737 100.7 260.258 98.4593C259.778 96.2182 261.155 93.9985 263.346 93.5076Z" fill="#FCD579"/>
<path d="M284.077 104.254C290.253 104.254 295.261 99.1316 295.261 92.8133C295.261 86.495 290.253 81.373 284.077 81.373C277.9 81.373 272.893 86.495 272.893 92.8133C272.893 99.1316 277.9 104.254 284.077 104.254Z" fill="#171759"/>
<path d="M292.945 41.7268L298.099 42.9754C300.644 43.5944 300.644 47.2976 298.099 47.9165L292.945 49.1651C292.298 49.3252 291.787 49.8375 291.641 50.4991L290.42 55.771C289.815 58.375 286.195 58.375 285.59 55.771L284.369 50.4991C284.213 49.8375 283.712 49.3145 283.065 49.1651L277.911 47.9165C275.366 47.2976 275.366 43.5944 277.911 42.9754L283.065 41.7268C283.712 41.5667 284.223 41.0545 284.369 40.3928L285.59 35.1209C286.195 32.517 289.815 32.517 290.42 35.1209L291.641 40.3928C291.797 41.0545 292.298 41.5774 292.945 41.7268Z" fill="#FFCD40"/>
<path d="M269.418 30.2022L271.077 30.6078C272.851 31.0347 272.851 33.6173 271.077 34.0441L269.418 34.4497C268.865 34.5884 268.427 35.0259 268.292 35.6022L267.895 37.2991C267.478 39.1133 264.953 39.1133 264.536 37.2991L264.139 35.6022C264.004 35.0366 263.576 34.5884 263.012 34.4497L261.354 34.0441C259.58 33.6173 259.58 31.0347 261.354 30.6078L263.012 30.2022C263.565 30.0635 264.004 29.626 264.139 29.0497L264.536 27.3529C264.953 25.5386 267.478 25.5386 267.895 27.3529L268.292 29.0497C268.427 29.6153 268.855 30.0635 269.418 30.2022Z" fill="#FFCD40"/>
</g>
<defs>
<filter id="filter0_d_5885_38460" x="131.092" y="0" width="148.393" height="191.964" filterUnits="userSpaceOnUse" color-interpolation-filters="sRGB">
<feFlood flood-opacity="0" result="BackgroundImageFix"/>
<feColorMatrix in="SourceAlpha" type="matrix" values="0 0 0 0 0 0 0 0 0 0 0 0 0 0 0 0 0 0 127 0" result="hardAlpha"/>
<feOffset dy="2.3958"/>
<feGaussianBlur stdDeviation="1.1979"/>
<feComposite in2="hardAlpha" operator="out"/>
<feColorMatrix type="matrix" values="0 0 0 0 0 0 0 0 0 0 0 0 0 0 0 0 0 0 0.25 0"/>
<feBlend mode="normal" in2="BackgroundImageFix" result="effect1_dropShadow_5885_38460"/>
<feBlend mode="normal" in="SourceGraphic" in2="effect1_dropShadow_5885_38460" result="shape"/>
</filter>
<linearGradient id="paint0_linear_5885_38460" x1="444.92" y1="220.067" x2="549.581" y2="196.782" gradientUnits="userSpaceOnUse">
<stop stop-color="#FCD579"/>
<stop offset="1" stop-color="white" stop-opacity="0"/>
</linearGradient>
<clipPath id="clip0_5885_38460">
<rect width="603.168" height="342.6" fill="white"/>
</clipPath>
</defs>
</svg>
