<svg width="320" height="329" viewBox="0 0 320 329" fill="none" xmlns="http://www.w3.org/2000/svg">
<g clip-path="url(#clip0_6487_22236)">
<path d="M154.2 208.3C146.733 208.3 140.681 202.247 140.681 194.781C140.681 187.315 146.733 181.262 154.2 181.262C161.666 181.262 167.719 187.315 167.719 194.781C167.719 202.247 161.666 208.3 154.2 208.3Z" fill="#171759"/>
<path d="M198.182 253.878V217.921C198.182 212.943 202.211 208.908 207.182 208.908C212.154 208.908 216.183 212.943 216.183 217.921V253.878C216.183 258.855 212.154 262.89 207.182 262.89C202.211 262.89 198.182 258.855 198.182 253.878Z" fill="#171759"/>
<path d="M194.098 244.888H207.194C212.172 244.888 216.207 248.918 216.207 253.889C216.207 258.86 212.172 262.89 207.194 262.89H194.098C189.12 262.89 185.085 258.86 185.085 253.889C185.085 248.918 189.12 244.888 194.098 244.888Z" fill="#171759"/>
<path d="M244.304 254.679L236.253 219.635C235.138 214.784 238.162 209.949 243.007 208.835C247.852 207.722 252.683 210.753 253.797 215.604L261.849 250.648C262.964 255.499 259.94 260.334 255.095 261.447C250.25 262.56 245.419 259.53 244.304 254.679Z" fill="#171759"/>
<path d="M238.304 246.431L251.068 243.498C255.919 242.384 260.754 245.407 261.867 250.252C262.98 255.097 259.95 259.928 255.099 261.043L242.335 263.976C237.484 265.09 232.649 262.066 231.536 257.221C230.422 252.377 233.453 247.546 238.304 246.431Z" fill="#171759"/>
<path d="M227.288 232.331C180.805 232.331 143.123 194.649 143.123 148.165C143.123 101.682 180.805 64 227.288 64C273.771 64 311.453 101.682 311.453 148.165C311.453 194.649 273.771 232.331 227.288 232.331Z" fill="#62657A"/>
<path d="M221.445 193.91C196.182 193.91 175.701 173.429 175.701 148.166C175.701 122.902 196.182 102.422 221.445 102.422C246.709 102.422 267.189 122.902 267.189 148.166C267.189 173.429 246.709 193.91 221.445 193.91Z" stroke="#D3D3DD" stroke-width="6.64216" stroke-miterlimit="10"/>
<path d="M221.445 183.091C202.157 183.091 186.521 167.455 186.521 148.167C186.521 128.879 202.157 113.243 221.445 113.243C240.733 113.243 256.369 128.879 256.369 148.167C256.369 167.455 240.733 183.091 221.445 183.091Z" fill="#D3D3DD"/>
<path opacity="0.2" d="M311.453 148.141C311.453 194.612 273.759 232.306 227.288 232.306C203.536 232.306 182.084 222.472 166.804 206.629C179.807 214.844 195.204 219.608 211.703 219.608C258.175 219.608 295.845 181.915 295.845 135.443C295.845 112.724 286.856 92.0931 272.187 76.9546C295.775 91.8584 311.453 118.169 311.453 148.141Z" fill="#3D3D60"/>
<path d="M303.449 150.652C302.182 188.909 272.679 220.031 235.103 223.857" stroke="#4E4E68" stroke-width="6.64216" stroke-miterlimit="10" stroke-linecap="round"/>
<path d="M291.902 155.674C288.828 182.055 269.981 203.625 245.032 210.666" stroke="#4E4E68" stroke-width="6.64216" stroke-miterlimit="10" stroke-linecap="round"/>
<path d="M151.125 145.652C152.392 107.395 181.894 76.2731 219.471 72.4474" stroke="#4E4E68" stroke-width="6.64216" stroke-miterlimit="10" stroke-linecap="round"/>
<path d="M162.696 140.63C165.77 114.249 184.617 92.6795 209.566 85.6383" stroke="#4E4E68" stroke-width="6.64216" stroke-miterlimit="10" stroke-linecap="round"/>
<path d="M189.998 151.341V147.938C189.998 144.659 192.657 142 195.936 142C199.216 142 201.874 144.659 201.874 147.938V151.341C201.874 154.621 199.216 157.279 195.936 157.279C192.657 157.279 189.998 154.621 189.998 151.341Z" fill="#171759"/>
<path d="M233.98 151.341V147.938C233.98 144.659 236.639 142 239.919 142C243.198 142 245.857 144.659 245.857 147.938V151.341C245.857 154.621 243.198 157.279 239.919 157.279C236.639 157.279 233.98 154.621 233.98 151.341Z" fill="#171759"/>
<path d="M228.254 157.279C228.254 162.982 223.63 167.606 217.927 167.606C212.224 167.606 207.6 162.982 207.6 157.279H228.277H228.254Z" fill="white" stroke="#171759" stroke-width="4.92881" stroke-linecap="round" stroke-linejoin="round"/>
<path d="M59.1106 248.355L65.8412 220.234C66.7735 216.338 70.6821 213.935 74.5711 214.866C78.4602 215.797 80.857 219.709 79.9247 223.604L73.1941 251.726C72.2618 255.621 68.3534 258.024 64.4643 257.094C60.5752 256.163 58.1783 252.25 59.1106 248.355Z" fill="#171759"/>
<path d="M57.5957 240.625L67.8219 243.072C71.7173 244.005 74.1204 247.913 73.1896 251.802C72.2588 255.691 68.3465 258.088 64.4511 257.156L54.2249 254.708C50.3295 253.776 47.9264 249.868 48.8572 245.978C49.788 242.089 53.7003 239.692 57.5957 240.625Z" fill="#171759"/>
<path d="M99.68 248.339L79.7768 223.084C77.5001 220.197 78.087 215.973 81.0678 213.696L82.5699 212.546C85.5507 210.246 89.8221 210.739 92.0988 213.626L112.002 238.88C114.279 241.767 113.692 245.992 110.711 248.268L109.209 249.418C106.228 251.718 101.957 251.225 99.68 248.339Z" fill="#171759"/>
<path d="M90.8786 244.395L101.323 236.345C104.304 234.045 108.575 234.538 110.852 237.425L112.002 238.88C114.279 241.767 113.692 245.991 110.711 248.268L100.267 256.319C97.286 258.619 93.0142 258.126 90.7376 255.239L89.5876 253.784C87.3109 250.897 87.8978 246.672 90.8786 244.395Z" fill="#171759"/>
<path d="M79.848 236.346C47.0013 236.346 20.3738 209.718 20.3738 176.871C20.3738 144.025 47.0013 117.397 79.848 117.397C112.695 117.397 139.322 144.025 139.322 176.871C139.322 209.718 112.695 236.346 79.848 236.346Z" fill="#62657A"/>
<path d="M75.7181 209.191C57.8689 209.191 43.3992 194.722 43.3992 176.872C43.3992 159.023 57.8689 144.553 75.7181 144.553C93.5674 144.553 108.037 159.023 108.037 176.872C108.037 194.722 93.5674 209.191 75.7181 209.191Z" stroke="#D3D3DD" stroke-width="4.69411" stroke-miterlimit="10"/>
<path d="M75.7153 201.539C62.0918 201.539 51.0477 190.495 51.0477 176.872C51.0477 163.248 62.0918 152.204 75.7153 152.204C89.3388 152.204 100.383 163.248 100.383 176.872C100.383 190.495 89.3388 201.539 75.7153 201.539Z" fill="#D3D3DD"/>
<path opacity="0.2" d="M139.346 176.849C139.346 209.708 112.707 236.324 79.8714 236.324C63.09 236.324 47.9281 229.376 37.1316 218.181C46.3086 223.978 57.199 227.358 68.8639 227.358C101.723 227.358 128.338 200.719 128.338 167.884C128.338 151.83 121.978 137.231 111.627 126.552C128.291 137.09 139.369 155.679 139.369 176.873L139.346 176.849Z" fill="#3D3D60"/>
<path d="M133.691 178.631C132.8 205.669 111.934 227.661 85.3889 230.36" stroke="#4E4E68" stroke-width="4.69411" stroke-miterlimit="10" stroke-linecap="round"/>
<path d="M125.523 182.175C123.364 200.811 110.033 216.067 92.3828 221.042" stroke="#4E4E68" stroke-width="4.69411" stroke-miterlimit="10" stroke-linecap="round"/>
<path d="M26.0337 175.088C26.9256 148.05 47.7908 126.058 74.3359 123.359" stroke="#4E4E68" stroke-width="4.69411" stroke-miterlimit="10" stroke-linecap="round"/>
<path d="M34.1995 171.543C36.3588 152.908 49.69 137.652 67.3398 132.676" stroke="#4E4E68" stroke-width="4.69411" stroke-miterlimit="10" stroke-linecap="round"/>
<path d="M85.8301 174.126V171.615C85.8301 169.217 87.7742 167.273 90.1722 167.273H90.1957C92.5938 167.273 94.5377 169.217 94.5377 171.615V174.126C94.5377 176.524 92.5938 178.468 90.1957 178.468H90.1722C87.7742 178.468 85.8301 176.524 85.8301 174.126Z" fill="#171759"/>
<path d="M53.625 174.126V171.615C53.625 169.217 55.5691 167.273 57.9671 167.273H57.9906C60.3887 167.273 62.3326 169.217 62.3326 171.615V174.126C62.3326 176.524 60.3887 178.468 57.9906 178.468H57.9671C55.5691 178.468 53.625 176.524 53.625 174.126Z" fill="#171759"/>
<path d="M80.9707 179.384C80.3839 182.646 77.5442 185.134 74.094 185.134C70.6438 185.134 67.8038 182.646 67.217 179.384" stroke="#171759" stroke-width="3.61446" stroke-linecap="round" stroke-linejoin="round"/>
<path d="M306.481 212.125C299.015 212.125 292.962 206.073 292.962 198.606C292.962 191.14 299.015 185.087 306.481 185.087C313.947 185.087 320 191.14 320 198.606C320 206.073 313.947 212.125 306.481 212.125Z" fill="#171759"/>
<path d="M9.83395 163.307C4.4027 163.307 -0.000350952 158.904 -0.000350952 153.473C-0.000350952 148.041 4.4027 143.638 9.83395 143.638C15.2652 143.638 19.668 148.041 19.668 153.473C19.668 158.904 15.2652 163.307 9.83395 163.307Z" fill="#171759"/>
<path d="M137.281 211.093C131.85 211.093 127.447 206.69 127.447 201.259C127.447 195.828 131.85 191.425 137.281 191.425C142.712 191.425 147.115 195.828 147.115 201.259C147.115 206.69 142.712 211.093 137.281 211.093Z" fill="#171759" stroke="#171759" stroke-width="1.94805" stroke-miterlimit="10"/>
</g>
<defs>
<clipPath id="clip0_6487_22236">
<rect width="320" height="329" fill="white"/>
</clipPath>
</defs>
</svg>
