<svg width="173" height="194" viewBox="0 0 173 194" fill="none" xmlns="http://www.w3.org/2000/svg">
<path opacity="0.2" d="M74.8412 193.144C107.581 193.144 134.122 187.701 134.122 180.987C134.122 174.273 107.581 168.83 74.8412 168.83C42.1014 168.83 15.5605 174.273 15.5605 180.987C15.5605 187.701 42.1014 193.144 74.8412 193.144Z" fill="#3D3D60"/>
<path d="M143.527 144.505C145.702 147.891 146.972 151.912 146.972 156.215C146.972 162.2 144.514 167.655 140.576 171.594C139.835 172.346 139.047 173.028 138.201 173.651C137.366 174.275 136.484 174.839 135.567 175.356C132.487 177.038 128.948 177.99 125.209 177.99L24.4951 177.99C12.5144 177.99 2.7205 168.196 2.7205 156.215C2.7205 151.912 3.97853 147.891 6.1654 144.505C2.45007 135.652 0.404297 125.94 0.404297 115.758C0.404297 74.6427 33.7247 41.3105 74.8402 41.3105C89.4428 41.3105 103.07 45.5197 114.557 52.7857C114.58 52.7975 114.604 52.821 114.627 52.8328C115.239 53.2208 115.85 53.6205 116.461 54.032C116.955 54.3612 117.449 54.7022 117.931 55.0549C118.307 55.3136 118.683 55.584 119.048 55.8662C119.26 56.019 119.471 56.1719 119.683 56.3365C120.059 56.6069 120.423 56.9008 120.788 57.183C121.27 57.5592 121.729 57.9355 122.199 58.3117C122.74 58.7585 123.269 59.217 123.798 59.6756C124.209 60.04 124.621 60.3928 125.021 60.7807C125.42 61.1335 125.808 61.4979 126.196 61.8742C126.737 62.3797 127.278 62.9088 127.795 63.4497C128.383 64.0258 128.948 64.6254 129.488 65.225C129.794 65.5425 130.088 65.8599 130.358 66.1774C130.841 66.6947 131.287 67.212 131.734 67.7529C131.816 67.8352 131.887 67.9292 131.969 68.0233C132.251 68.3525 132.522 68.6817 132.781 69.0227C132.992 69.2813 133.204 69.54 133.404 69.7986C133.78 70.2689 134.156 70.751 134.509 71.2448C134.815 71.6446 135.12 72.0678 135.414 72.4793C135.496 72.5851 135.567 72.691 135.626 72.7968C135.896 73.1495 136.143 73.5022 136.378 73.8667C136.543 74.0901 136.707 74.3252 136.849 74.5604C137.072 74.8896 137.295 75.2305 137.519 75.5715C137.895 76.1476 138.259 76.7473 138.624 77.3469C138.965 77.8995 139.294 78.4638 139.612 79.0399C139.729 79.2281 139.835 79.4279 139.941 79.6278C140.235 80.1334 140.505 80.6507 140.775 81.168C141.011 81.6148 141.246 82.0733 141.469 82.5319C141.634 82.8493 141.787 83.1668 141.939 83.4842C142.339 84.2955 142.715 85.1067 143.056 85.9298C143.315 86.4824 143.55 87.0467 143.774 87.6111C143.797 87.6346 143.809 87.6698 143.809 87.6934C144.079 88.34 144.326 88.9749 144.573 89.6333C144.902 90.5034 145.22 91.3969 145.502 92.2905C145.714 92.8901 145.902 93.5015 146.09 94.1129C146.137 94.254 146.172 94.3951 146.219 94.5479C146.396 95.124 146.56 95.7236 146.725 96.3115C146.76 96.4526 146.795 96.5937 146.831 96.7348C147.019 97.452 147.207 98.1692 147.371 98.8981C147.571 99.7682 147.759 100.662 147.924 101.544C148.03 102.061 148.124 102.59 148.206 103.107C148.277 103.436 148.324 103.766 148.371 104.095C148.43 104.436 148.488 104.777 148.524 105.118C148.582 105.494 148.641 105.87 148.688 106.246C148.782 106.999 148.865 107.763 148.935 108.516C149.017 109.28 149.076 110.056 149.123 110.82C149.17 111.455 149.206 112.078 149.217 112.713C149.241 113.03 149.253 113.348 149.253 113.677C149.276 114.371 149.288 115.065 149.288 115.758C149.288 123.4 148.136 130.761 145.996 137.709C145.631 138.861 145.255 140.014 144.844 141.142C144.444 142.271 143.997 143.388 143.538 144.493L143.527 144.493L143.527 144.505Z" fill="#62657A"/>
<path d="M74.8419 160.906C97.1857 160.906 115.299 142.793 115.299 120.449C115.299 98.105 97.1857 79.9917 74.8419 79.9917C52.498 79.9917 34.3848 98.105 34.3848 120.449C34.3848 142.793 52.498 160.906 74.8419 160.906Z" stroke="#D3D3DD" stroke-width="5.87868" stroke-miterlimit="10"/>
<path d="M74.8417 151.336C91.8999 151.336 105.728 137.507 105.728 120.449C105.728 103.391 91.8999 89.5625 74.8417 89.5625C57.7835 89.5625 43.9551 103.391 43.9551 120.449C43.9551 137.507 57.7835 151.336 74.8417 151.336Z" fill="#D3D3DD"/>
<path opacity="0.2" d="M143.528 144.504C145.703 147.89 146.973 151.911 146.973 156.214C146.973 162.199 144.516 167.654 140.577 171.593C139.836 172.345 139.049 173.027 138.202 173.65C137.367 174.285 136.485 174.85 135.568 175.355C132.488 177.037 128.949 177.989 125.21 177.989L108.797 177.989C113.935 176.613 118.544 173.886 122.2 170.217C127.62 164.785 130.995 157.308 130.995 149.078C130.995 144.727 130.054 140.6 128.349 136.862C128.326 136.779 128.279 136.685 128.244 136.603C128.538 136.003 128.808 135.404 129.078 134.792C129.161 134.616 129.231 134.44 129.313 134.263C133.276 125.163 135.486 115.11 135.486 104.529C135.486 84.4237 127.526 66.1763 114.558 52.7847C114.581 52.7964 114.605 52.8199 114.629 52.8317C115.24 53.2197 115.851 53.6194 116.463 54.0309C116.956 54.3602 117.45 54.7011 117.932 55.0538C118.309 55.3125 118.685 55.5829 119.049 55.8651C119.261 56.0179 119.473 56.1708 119.684 56.3354C120.06 56.6058 120.425 56.8997 120.789 57.1819C121.271 57.5582 121.73 57.9344 122.2 58.3106C122.741 58.7574 123.27 59.2159 123.799 59.6745C124.211 60.039 124.622 60.3917 125.022 60.7797C125.422 61.1324 125.81 61.4969 126.198 61.8731C126.739 62.3787 127.279 62.9078 127.797 63.4486C128.396 64.0365 128.961 64.6243 129.49 65.224C129.796 65.5414 130.089 65.8589 130.36 66.1763C130.842 66.6936 131.289 67.211 131.736 67.7518C131.818 67.8341 131.888 67.9282 131.971 68.0222C132.253 68.3514 132.523 68.6806 132.782 69.0216C132.994 69.2803 133.205 69.5389 133.405 69.7976C133.781 70.2679 134.158 70.7499 134.51 71.2437C134.816 71.6435 135.122 72.0668 135.416 72.4783C135.498 72.5841 135.568 72.6899 135.627 72.7957C135.898 73.1484 136.145 73.5012 136.38 73.8656C136.544 74.089 136.709 74.3242 136.85 74.5593C137.073 74.8885 137.297 75.2295 137.52 75.5704C137.896 76.1466 138.261 76.7462 138.625 77.3458C138.966 77.8984 139.295 78.4628 139.613 79.0389C139.73 79.227 139.836 79.4269 139.942 79.6267C140.236 80.1323 140.506 80.6496 140.777 81.167C141.012 81.6137 141.247 82.0723 141.471 82.5308C141.635 82.8483 141.788 83.1657 141.941 83.4832C142.341 84.2944 142.717 85.1057 143.058 85.9287C143.316 86.4813 143.552 87.0456 143.775 87.61C143.799 87.6335 143.81 87.6688 143.81 87.6923C144.081 88.339 144.328 88.9738 144.575 89.6323C144.904 90.5023 145.221 91.3959 145.503 92.2894C145.715 92.889 145.903 93.5004 146.091 94.1118C146.138 94.2529 146.174 94.394 146.221 94.5468C146.397 95.1229 146.562 95.7226 146.726 96.3104C146.761 96.4515 146.797 96.5926 146.832 96.7337C147.02 97.4509 147.208 98.1681 147.373 98.8971C147.573 99.7671 147.761 100.661 147.925 101.542C148.031 102.06 148.125 102.589 148.208 103.106C148.278 103.435 148.325 103.765 148.372 104.094C148.431 104.435 148.49 104.776 148.525 105.117C148.584 105.493 148.643 105.869 148.69 106.245C148.784 106.998 148.866 107.762 148.937 108.515C149.019 109.279 149.078 110.055 149.125 110.819C149.172 111.454 149.207 112.077 149.219 112.712C149.242 113.029 149.254 113.347 149.254 113.676C149.277 114.37 149.289 115.063 149.289 115.757C149.289 123.399 148.137 130.76 145.997 137.708C145.644 138.86 145.256 140.001 144.845 141.141C144.445 142.27 143.998 143.387 143.54 144.492L143.528 144.492L143.528 144.504Z" fill="#3D3D60"/>
<path d="M142.208 117.98C141.867 128.315 139.187 138.073 134.684 146.727" stroke="#4E4E68" stroke-width="5.87868" stroke-miterlimit="10" stroke-linecap="round"/>
<path d="M131.993 122.401C130.959 131.29 127.902 139.555 123.281 146.727" stroke="#4E4E68" stroke-width="5.87868" stroke-miterlimit="10" stroke-linecap="round"/>
<path d="M7.48242 113.535C8.61113 79.686 34.7007 52.162 67.9388 48.7876" stroke="#4E4E68" stroke-width="5.87868" stroke-miterlimit="10" stroke-linecap="round"/>
<path d="M17.6992 109.103C20.4152 85.7643 37.0989 66.6938 59.1675 60.4624" stroke="#4E4E68" stroke-width="5.87868" stroke-miterlimit="10" stroke-linecap="round"/>
<path d="M96.9332 126.739L96.9332 136.039C96.9332 138.132 95.2166 139.849 93.1238 139.849C91.031 139.849 89.3145 138.132 89.3145 136.039L89.3145 126.751C89.3145 126.751 89.3733 126.822 89.4085 126.857C89.4791 126.927 89.5496 126.998 89.6202 127.057C90.5372 127.891 91.7718 128.397 93.1121 128.397C94.6288 128.397 95.9809 127.762 96.9332 126.739Z" fill="#0098FF"/>
<path d="M93.1235 138.579C94.5261 138.579 95.6631 137.442 95.6631 136.039C95.6631 134.637 94.5261 133.5 93.1235 133.5C91.721 133.5 90.584 134.637 90.584 136.039C90.584 137.442 91.721 138.579 93.1235 138.579Z" fill="#0B7AFF"/>
<path d="M91.6894 135.403C92.3453 135.403 92.8769 134.872 92.8769 134.216C92.8769 133.56 92.3453 133.028 91.6894 133.028C91.0336 133.028 90.502 133.56 90.502 134.216C90.502 134.872 91.0336 135.403 91.6894 135.403Z" fill="#C2F4FF"/>
<path d="M61.8255 123.142C61.8255 126.046 59.4741 128.397 56.57 128.397C53.6659 128.397 51.3145 126.046 51.3145 123.142" stroke="#171759" stroke-width="4.70295" stroke-miterlimit="10" stroke-linecap="round"/>
<path d="M98.3685 123.154C98.3685 124.435 97.9099 125.611 97.1457 126.516C97.0752 126.599 97.0164 126.669 96.9341 126.74C95.9817 127.763 94.6297 128.398 93.113 128.398C91.7726 128.398 90.5381 127.892 89.621 127.057C89.5505 126.998 89.4799 126.928 89.4094 126.857C89.3741 126.822 89.3388 126.787 89.3153 126.752C88.41 125.823 87.8691 124.553 87.8691 123.154" stroke="#171759" stroke-width="4.70295" stroke-miterlimit="10" stroke-linecap="round"/>
<path d="M66.541 139.18C67.2465 135.241 70.6914 132.243 74.8535 132.243C79.0156 132.243 82.4605 135.241 83.1659 139.18" stroke="#171759" stroke-width="4.35023" stroke-linecap="round" stroke-linejoin="round"/>
<path d="M50.7001 175.43L48.6944 169.072C46.9614 163.579 41.1039 160.531 35.6111 162.264L35.5999 162.268C30.1071 164.001 27.0591 169.858 28.792 175.351L30.7978 181.709C32.5307 187.201 38.3883 190.249 43.8811 188.516L43.8923 188.513C49.3851 186.78 52.433 180.922 50.7001 175.43Z" fill="#171759"/>
<path d="M118.87 181.74L120.876 175.382C122.609 169.889 119.561 164.032 114.068 162.299L114.057 162.295C108.564 160.562 102.707 163.61 100.974 169.103L98.9679 175.461C97.2349 180.953 100.283 186.811 105.776 188.544L105.787 188.547C111.28 190.28 117.137 187.232 118.87 181.74Z" fill="#171759"/>
<path d="M161.07 39.1352L159.589 39.0764C159.13 39.0529 158.742 39.3703 158.648 39.8171L158.366 41.2633C156.461 51.0807 144.34 52.9618 138.955 46.2249C138.614 45.8016 137.967 45.8016 137.591 46.2013L128.397 56.1716C126.656 58.0645 123.623 55.9952 124.752 53.6908L130.748 41.322C130.995 40.8047 130.713 40.1581 130.148 40.0405C121.307 38.1358 117.991 25.6495 126.586 20.0059L127.82 19.1947C128.197 18.9478 128.338 18.454 128.15 18.0425L127.538 16.7139C122.588 6.12048 135.31 -3.89679 144.445 3.39277L145.586 4.30985C145.939 4.59202 146.456 4.56851 146.785 4.26282L147.855 3.26344C156.391 -4.6963 169.853 4.29809 165.75 15.2442L165.232 16.6198C165.068 17.0431 165.244 17.5251 165.644 17.7485L166.925 18.454C177.143 24.1093 172.745 39.6878 161.082 39.1587L161.07 39.1352Z" fill="#B6E3FF"/>
<path d="M111.502 54.6658L116.746 47.5879C117.287 50.9505 117.839 54.3249 118.38 57.6875C122.695 56.9585 127.022 56.2178 131.337 55.4888C130.149 58.146 128.973 60.7914 127.786 63.4486C129.949 64.4715 132.101 65.5061 134.264 66.529L128.585 70.7029" fill="#62657A"/>
<path d="M111.502 54.6658L116.746 47.5879C117.287 50.9505 117.839 54.3249 118.38 57.6875C122.695 56.9585 127.022 56.2178 131.337 55.4888C130.149 58.146 128.973 60.7914 127.786 63.4486C129.949 64.4715 132.101 65.5061 134.264 66.529L128.585 70.7029" stroke="#4E4E68" stroke-width="4.70295" stroke-linecap="round" stroke-linejoin="round"/>
</svg>
