<svg width="315" height="179" viewBox="0 0 315 179" fill="none" xmlns="http://www.w3.org/2000/svg">
<g clip-path="url(#clip0_6407_21951)">
<path d="M124.656 85.6875L116.188 73.4122C115.018 71.7167 112.726 71.3119 111.068 72.5079L111.064 72.5111C109.406 73.7071 109.01 76.0512 110.18 77.7467L118.647 90.022C119.817 91.7175 122.109 92.1224 123.767 90.9263L123.771 90.9231C125.429 89.7271 125.825 87.383 124.656 85.6875Z" fill="#171759"/>
<path d="M123.918 81.6371L119.541 84.7943C117.883 85.9904 117.487 88.3344 118.657 90.0299L118.66 90.0345C119.829 91.7299 122.122 92.1348 123.78 90.9388L128.156 87.7815C129.814 86.5855 130.21 84.2415 129.041 82.546L129.038 82.5414C127.868 80.8459 125.576 80.441 123.918 81.6371Z" fill="#171759"/>
<path d="M57.0527 103.115L69.5739 136.877L75.5903 133.054L103.882 101.123M166.314 85.9841L181.109 83.8198L183.062 90.64L172.656 98.4591" stroke="#484848" stroke-width="1.66482"/>
<path d="M162.408 79.3352L156.555 67.859L162.408 67.859L162.408 45.2397L148.428 48.3973" stroke="#484848" stroke-width="1.66482"/>
<path d="M69.9022 174.963C88.0412 174.963 102.746 159.922 102.746 141.367C102.746 122.813 88.0412 107.771 69.9022 107.771C51.7632 107.771 37.0586 122.813 37.0586 141.367C37.0586 159.922 51.7632 174.963 69.9022 174.963Z" stroke="#62657A" stroke-width="6.65371"/>
<path d="M36.3242 132.227C40.5504 120.185 49.9792 110.146 61.0356 107.776" stroke="#4E4E68" stroke-width="0.998889" stroke-miterlimit="10" stroke-linecap="round"/>
<path d="M39.0918 131.312C41.8532 122.189 49.9854 114.159 57.7867 111.423" stroke="#4E4E68" stroke-width="0.998889" stroke-miterlimit="10" stroke-linecap="round"/>
<path d="M194.113 174.963C212.252 174.963 226.957 159.922 226.957 141.367C226.957 122.813 212.252 107.771 194.113 107.771C175.974 107.771 161.27 122.813 161.27 141.367C161.27 159.922 175.974 174.963 194.113 174.963Z" stroke="#62657A" stroke-width="6.65371"/>
<path d="M160.867 132.227C165.093 120.185 174.522 110.146 185.579 107.776" stroke="#4E4E68" stroke-width="0.998889" stroke-miterlimit="10" stroke-linecap="round"/>
<path d="M163.631 131.312C166.398 122.189 174.524 114.159 182.326 111.423" stroke="#4E4E68" stroke-width="0.998889" stroke-miterlimit="10" stroke-linecap="round"/>
<path d="M121.312 155.191L66.0741 147.632C62.1192 147.089 59.168 143.642 59.168 139.558C59.168 135.18 62.5478 131.584 66.8282 131.417L122.517 129.242C129.743 128.959 135.749 134.874 135.749 142.266C135.749 150.152 128.956 156.234 121.318 155.185L121.312 155.191Z" fill="#BBD567"/>
<path d="M107.458 130.557C99.9769 94.1363 40.3116 86.4836 30.8828 136.378" stroke="#BBD567" stroke-width="4.32297"/>
<path d="M225.531 118.115C205.333 86.4839 148.429 101.451 155.585 149.347" stroke="#BBD567" stroke-width="4.32297"/>
<path d="M109.73 108.771C121.872 114.425 151.645 121.279 165.821 88.8149M131.68 136.046L173.139 102.783" stroke="#BBD567" stroke-width="4.9889"/>
<path d="M103.23 96.1292L128.43 144.858M161.762 80.6631L193.466 139.703" stroke="#9AB445" stroke-width="4.32297"/>
<path d="M101.999 92.2103L101.993 92.2124C100.074 92.989 99.1331 95.2105 99.8924 97.1742L100.97 99.9608C101.729 101.924 103.901 102.887 105.821 102.11L105.826 102.108C107.745 101.331 108.686 99.1098 107.927 97.1462L106.849 94.3595C106.09 92.3959 103.918 91.4336 101.999 92.2103Z" fill="#BBD567"/>
<path d="M161.502 77.9003L161.497 77.9023C159.578 78.679 158.637 80.9005 159.396 82.8641L160.474 85.6507C161.233 87.6144 163.405 88.5766 165.324 87.7999L165.33 87.7979C167.249 87.0212 168.19 84.7998 167.431 82.8361L166.353 80.0495C165.594 78.0858 163.422 77.1236 161.502 77.9003Z" fill="#BBD567"/>
<path d="M194.277 148.021C197.959 148.021 200.944 144.968 200.944 141.201C200.944 137.434 197.959 134.381 194.277 134.381C190.594 134.381 187.609 137.434 187.609 141.201C187.609 144.968 190.594 148.021 194.277 148.021Z" fill="#4E4E68"/>
<path d="M59.168 140.036C59.6562 144.692 62.9059 147.022 65.6727 147.522L121.763 155.174C130.703 156.007 135.581 148.354 135.743 143.032C103.388 142.2 85.1813 141.7 59.168 140.041L59.168 140.036Z" fill="#9AB445"/>
<path d="M262.562 48.8989L216.715 102.617L223.382 112.595L314.269 154.004L262.568 48.8989L262.562 48.8989Z" fill="url(#paint0_linear_6407_21951)" fill-opacity="0.5"/>
<path d="M217.039 102.116L211.674 103.115C216.877 105.446 223.544 111.928 224.358 112.926L223.869 107.771L217.039 102.116Z" fill="#FCD579"/>
<path d="M122.415 148.687C126.098 148.687 129.083 145.633 129.083 141.867C129.083 138.1 126.098 135.046 122.415 135.046C118.733 135.046 115.748 138.1 115.748 141.867C115.748 145.633 118.733 148.687 122.415 148.687Z" fill="#62657A"/>
<path d="M122.254 142.034L122.254 161.157" stroke="#484848" stroke-width="1.66482"/>
<path d="M129.728 159.99L114.771 159.99L114.771 165.978L129.728 165.978L129.728 159.99Z" fill="#FCD579"/>
<path d="M121.461 82.8268L86.4962 82.8268C84.5757 82.8268 83.0295 84.5527 83.5883 86.4339C87.7982 100.59 107.464 95.5349 112.303 91.5671C114.924 89.414 118.624 87.4772 121.26 86.8501C122.291 86.606 123.224 85.7125 123.224 84.6304C123.224 83.6315 122.432 82.8213 121.456 82.8213L121.461 82.8268Z" fill="#FCD579"/>
<path d="M185.401 96.5223L179.092 73.7976C178.799 72.7377 179.574 71.6777 180.654 71.6777L194.141 71.6777C194.96 71.6777 195.649 72.2993 195.752 73.1317L197.873 90.0684C197.955 90.7177 197.656 91.3614 197.103 91.6999L187.799 97.4879C186.882 98.0595 185.683 97.5767 185.39 96.5223L185.401 96.5223Z" fill="#F0C254"/>
<path d="M196.556 70.5181L178.674 70.5181C177.506 70.5181 176.559 71.4858 176.559 72.6796C176.559 73.8733 177.506 74.841 178.674 74.841L196.556 74.841C197.724 74.841 198.671 73.8733 198.671 72.6796C198.671 71.4858 197.724 70.5181 196.556 70.5181Z" fill="#FCD579"/>
<path d="M137.648 48.6536L155.111 44.708C156.25 44.4527 157.379 45.1852 157.628 46.3506C157.878 47.516 157.162 48.6702 156.022 48.9255L138.559 52.8711C137.42 53.1264 136.291 52.3939 136.042 51.2285C135.792 50.0631 136.508 48.9089 137.648 48.6536Z" fill="#FCD579"/>
<path d="M71.729 93.0324L39.9488 93.0324C37.3719 93.0324 35.2832 90.8571 35.2832 88.1711L35.2832 87.7328C35.2832 87.2999 35.37 86.8892 35.5219 86.5119C35.587 86.3509 35.7769 85.9181 36.1675 85.513C36.9541 84.6972 37.9958 84.6084 38.2941 84.5918C45.9924 84.6029 53.6906 84.614 61.3888 84.6251C61.8445 84.6084 62.5118 84.6029 63.3093 84.7139C64.7578 84.9081 65.794 85.341 66.3039 85.5518C71.9894 87.9048 73.1613 88.038 73.579 89.331C73.8014 90.0135 73.8069 91.0069 73.3023 91.8282C72.8249 92.6051 72.0654 92.9214 71.729 93.038L71.729 93.0324Z" fill="#FCD579"/>
<path d="M45.4824 93.5312C46.0629 98.4092 46.6434 103.293 47.2293 108.171L70.6929 142.027" stroke="#9AB445" stroke-width="4.32297"/>
<path d="M37.0293 94.0538C48.205 93.9539 59.3753 93.854 70.551 93.7541C72.3901 93.7375 74.6632 94.581 76.7139 96.3457C79.0359 98.349 79.9853 100.991 80.3976 102.622" stroke="#BBD567" stroke-width="4.32297"/>
<path d="M70.5623 145.862C73.124 145.862 75.2008 143.738 75.2008 141.118C75.2008 138.497 73.124 136.373 70.5623 136.373C68.0005 136.373 65.9238 138.497 65.9238 141.118C65.9238 143.738 68.0005 145.862 70.5623 145.862Z" fill="#62657A"/>
<path d="M81.7311 142.872L62.3418 142.872L62.3418 148.859L81.7311 148.859L81.7311 142.872Z" fill="#FCD579"/>
<path d="M52.3739 100.43L48.9157 85.8305C48.438 83.8139 46.4527 82.5753 44.4813 83.0639L44.476 83.0652C42.5046 83.5538 41.2937 85.5846 41.7714 87.6012L45.2296 102.201C45.7072 104.217 47.6926 105.456 49.664 104.968L49.6692 104.966C51.6406 104.478 52.8515 102.447 52.3739 100.43Z" fill="#171759"/>
<path d="M53.1348 96.39L47.9308 97.6798C45.9595 98.1684 44.7485 100.199 45.2262 102.216L45.2275 102.221C45.7051 104.238 47.6905 105.476 49.6619 104.988L54.8659 103.698C56.8372 103.209 58.0482 101.179 57.5705 99.162L57.5692 99.1566C57.0916 97.14 55.1062 95.9014 53.1348 96.39Z" fill="#171759"/>
<path d="M49.6799 90.7637C68.6518 90.7637 84.0316 75.0316 84.0316 55.625C84.0316 36.2185 68.6518 20.4863 49.6799 20.4863C30.7079 20.4863 15.3281 36.2185 15.3281 55.625C15.3281 75.0316 30.7079 90.7637 49.6799 90.7637Z" fill="#62657A"/>
<path d="M52.8631 75.2705C63.173 75.2705 71.5309 66.7211 71.5309 56.175C71.5309 45.6289 63.173 37.0796 52.8631 37.0796C42.5532 37.0796 34.1953 45.6289 34.1953 56.175C34.1953 66.7211 42.5532 75.2705 52.8631 75.2705Z" stroke="#D3D3DD" stroke-width="2.77469" stroke-miterlimit="10"/>
<path d="M53.4236 70.759C61.2946 70.759 67.6754 64.2321 67.6754 56.1808C67.6754 48.1294 61.2946 41.6025 53.4236 41.6025C45.5526 41.6025 39.1719 48.1294 39.1719 56.1808C39.1719 64.2321 45.5526 70.759 53.4236 70.759Z" fill="#D3D3DD"/>
<path opacity="0.2" d="M84.0258 55.619C84.0258 75.0252 68.6456 90.7577 49.674 90.7577C39.9794 90.7577 31.2287 86.6512 24.9844 80.0418C30.2901 83.4714 36.5724 85.458 43.3104 85.458C62.2819 85.458 77.6567 69.7255 77.6567 50.3193C77.6567 40.8299 73.9839 32.2172 68 25.8965C77.6296 32.1173 84.0258 43.1051 84.0258 55.619Z" fill="#3D3D60"/>
<path d="M80.7611 56.6689C80.2403 72.6456 68.202 85.6367 52.8652 87.2294" stroke="#4E4E68" stroke-width="2.77469" stroke-miterlimit="10" stroke-linecap="round"/>
<path d="M76.0464 58.7612C74.7932 69.7768 67.095 78.7779 56.9121 81.719" stroke="#4E4E68" stroke-width="2.77469" stroke-miterlimit="10" stroke-linecap="round"/>
<path d="M18.5937 54.5771C19.1146 38.6004 31.1529 25.6093 46.4896 24.0166" stroke="#4E4E68" stroke-width="2.77469" stroke-miterlimit="10" stroke-linecap="round"/>
<path d="M23.3086 52.4842C24.5618 41.4686 32.26 32.4675 42.4429 29.5264" stroke="#4E4E68" stroke-width="2.77469" stroke-miterlimit="10" stroke-linecap="round"/>
<path d="M48.6992 55.909L48.6992 54.4884C48.6992 53.1184 47.6135 52.0078 46.2742 52.0078C44.9349 52.0078 43.8492 53.1184 43.8492 54.4884L43.8492 55.909C43.8492 57.279 44.9349 58.3896 46.2742 58.3896C47.6135 58.3896 48.6992 57.279 48.6992 55.909Z" fill="#171759"/>
<path d="M66.6543 55.9027L66.6543 54.482C66.6543 53.1121 65.5686 52.0015 64.2293 52.0015C62.89 52.0015 61.8043 53.1121 61.8043 54.482L61.8043 55.9027C61.8043 57.2727 62.89 58.3833 64.2293 58.3833C65.5686 58.3833 66.6543 57.2727 66.6543 55.9027Z" fill="#171759"/>
<path d="M59.4677 58.3833C59.4677 60.764 57.5798 62.7007 55.2524 62.7007C52.925 62.7007 51.0371 60.764 51.0371 58.3833L59.4731 58.3833L59.4677 58.3833Z" fill="white" stroke="#171759" stroke-width="2.05327" stroke-linecap="round" stroke-linejoin="round"/>
<path d="M83.0012 44.8136C82.9036 46.9612 81.8186 65.0134 68.4945 72.9268C63.9971 75.6016 59.7384 76.1455 57.9319 76.3563C49.1812 77.383 38.4449 74.4973 31.2729 65.8957C23.7917 56.9224 24.0955 46.4174 24.2311 43.9424" stroke="#201C3A" stroke-width="4.43951" stroke-miterlimit="10"/>
<path d="M82.8161 51.0903C77.6622 49.7973 71.7923 48.6985 65.293 48.1047C50.9816 46.7951 38.6829 48.3933 29.4711 50.441C29.4711 50.441 25.4077 51.8117 16.5485 51.0903C16.0114 51.0459 15.1217 50.9127 14.4273 50.2412C13.8848 49.714 13.543 48.9926 13.543 48.1935L13.543 43.532C13.543 41.9394 14.8938 40.6353 16.5485 40.6353L82.8215 40.6353C84.4708 40.6353 85.827 41.9394 85.827 43.532L85.827 48.1935C85.827 49.7862 84.4762 51.0903 82.8215 51.0903L82.8161 51.0903Z" fill="#312A4C"/>
<path d="M15.3837 45.8622C13.6151 45.8622 12.1991 44.3361 12.351 42.5436C14.0274 23.1707 30.2213 7.76563 49.6812 7.76563C69.141 7.76563 85.3295 23.1763 87.0059 42.5436C87.1632 44.3305 85.7418 45.8622 83.9732 45.8622L15.3837 45.8622Z" fill="#FF525F"/>
<path d="M62.7737 72.5562L52.8328 73.2779C51.9122 73.3447 51.219 74.1622 51.2843 75.1038L51.489 78.0542C51.5544 78.9958 52.3536 79.705 53.2741 79.6382L63.215 78.9164C64.1355 78.8496 64.8288 78.0321 64.7634 77.0905L64.5587 74.1401C64.4934 73.1985 63.6942 72.4893 62.7737 72.5562Z" fill="#312A4C"/>
<g filter="url(#filter0_d_6407_21951)">
<path d="M110.149 92.8018L106.691 78.2021C106.213 76.1855 104.228 74.9469 102.257 75.4355L102.251 75.4368C100.28 75.9254 99.0691 77.9562 99.5468 79.9728L103.005 94.5725C103.483 96.589 105.468 97.8277 107.439 97.3391L107.445 97.3378C109.416 96.8492 110.627 94.8184 110.149 92.8018Z" fill="#171759"/>
<path d="M110.918 88.7601L105.714 90.0499C103.743 90.5385 102.532 92.5693 103.009 94.5858L103.011 94.5912C103.488 96.6078 105.474 97.8464 107.445 97.3578L112.649 96.0681C114.62 95.5795 115.831 93.5486 115.354 91.5321L115.352 91.5267C114.875 89.5101 112.889 88.2715 110.918 88.7601Z" fill="#171759"/>
<path d="M107.457 83.1309C126.429 83.1309 141.809 67.3988 141.809 47.9922C141.809 28.5856 126.429 12.8535 107.457 12.8535C88.4853 12.8535 73.1055 28.5856 73.1055 47.9922C73.1055 67.3988 88.4853 83.1309 107.457 83.1309Z" fill="#62657A"/>
<path d="M110.64 67.6376C120.95 67.6376 129.308 59.0883 129.308 48.5422C129.308 37.9961 120.95 29.4468 110.64 29.4468C100.331 29.4468 91.9727 37.9961 91.9727 48.5422C91.9727 59.0883 100.331 67.6376 110.64 67.6376Z" stroke="#D3D3DD" stroke-width="2.77469" stroke-miterlimit="10"/>
<path d="M111.199 63.1262C119.07 63.1262 125.451 56.5993 125.451 48.548C125.451 40.4966 119.07 33.9697 111.199 33.9697C103.328 33.9697 96.9473 40.4966 96.9473 48.548C96.9473 56.5993 103.328 63.1262 111.199 63.1262Z" fill="#D3D3DD"/>
<path opacity="0.2" d="M141.807 47.9925C141.807 67.3987 126.427 83.1312 107.455 83.1312C97.7606 83.1312 89.0099 79.0247 82.7656 72.4154C88.0714 75.8449 94.3536 77.8316 101.092 77.8316C120.063 77.8316 135.438 62.0991 135.438 42.6929C135.438 33.2034 131.765 24.5908 125.781 18.27C135.411 24.4909 141.807 35.4787 141.807 47.9925Z" fill="#3D3D60"/>
<path d="M138.536 49.0396C138.016 65.0162 125.977 78.0073 110.641 79.6" stroke="#4E4E68" stroke-width="2.77469" stroke-miterlimit="10" stroke-linecap="round"/>
<path d="M133.822 51.1265C132.569 62.142 124.87 71.1431 114.687 74.0843" stroke="#4E4E68" stroke-width="2.77469" stroke-miterlimit="10" stroke-linecap="round"/>
<path d="M76.3711 46.9413C76.8919 30.9646 88.9302 17.9735 104.267 16.3809" stroke="#4E4E68" stroke-width="2.77469" stroke-miterlimit="10" stroke-linecap="round"/>
<path d="M81.0859 44.8484C82.3391 33.8329 90.0373 24.8318 100.22 21.8906" stroke="#4E4E68" stroke-width="2.77469" stroke-miterlimit="10" stroke-linecap="round"/>
<path d="M106.469 48.2699L106.469 46.8492C106.469 45.4792 105.383 44.3687 104.044 44.3687C102.704 44.3687 101.619 45.4792 101.619 46.8492L101.619 48.2699C101.619 49.6399 102.704 50.7504 104.044 50.7504C105.383 50.7504 106.469 49.6399 106.469 48.2699Z" fill="#171759"/>
<path d="M124.424 48.2762L124.424 46.8556C124.424 45.4856 123.338 44.375 121.999 44.375C120.66 44.375 119.574 45.4856 119.574 46.8556L119.574 48.2762C119.574 49.6462 120.66 50.7568 121.999 50.7568C123.338 50.7568 124.424 49.6462 124.424 48.2762Z" fill="#171759"/>
<path d="M117.243 50.7505C117.243 53.1312 115.355 55.0679 113.028 55.0679C110.7 55.0679 108.812 53.1312 108.812 50.7505L117.249 50.7505L117.243 50.7505Z" fill="white" stroke="#171759" stroke-width="2.05327" stroke-linecap="round" stroke-linejoin="round"/>
<path d="M140.779 37.1828C140.681 39.3304 139.596 57.3825 126.272 65.296C121.774 67.9708 117.516 68.5146 115.709 68.7255C106.959 69.7521 96.2222 66.8664 89.0502 58.2649C81.569 49.2915 81.8728 38.7865 82.0085 36.3115" stroke="#201C3A" stroke-width="4.43951" stroke-miterlimit="10"/>
<path d="M140.593 43.4599C135.44 42.1669 129.57 41.0681 123.07 40.4744C108.759 39.1647 96.4602 40.7629 87.2484 42.8106C87.2484 42.8106 83.185 44.1813 74.3258 43.4599C73.7887 43.4155 72.899 43.2823 72.2046 42.6109C71.6621 42.0837 71.3203 41.3623 71.3203 40.5631L71.3203 35.9017C71.3203 34.309 72.6712 33.0049 74.3258 33.0049L140.599 33.0049C142.248 33.0049 143.604 34.309 143.604 35.9017L143.604 40.5631C143.604 42.1558 142.253 43.4599 140.599 43.4599L140.593 43.4599Z" fill="#312A4C"/>
<path d="M73.1649 38.2313C71.3963 38.2313 69.9804 36.7052 70.1323 34.9128C71.8086 15.5454 88.0026 0.134766 107.457 0.134766C126.911 0.134766 143.105 15.5454 144.782 34.9128C144.939 36.6997 143.518 38.2313 141.749 38.2313L73.1595 38.2313L73.1649 38.2313Z" fill="#6155FF"/>
<path d="M120.557 64.9214L110.616 65.6431C109.695 65.71 109.002 66.5275 109.068 67.4691L109.272 70.4195C109.338 71.3611 110.137 72.0702 111.057 72.0034L120.998 71.2816C121.919 71.2148 122.612 70.3973 122.547 69.4557L122.342 66.5053C122.277 65.5637 121.477 64.8546 120.557 64.9214Z" fill="#312A4C"/>
</g>
<path d="M137.648 48.7595L155.111 44.8139C156.25 44.5587 157.379 45.2912 157.628 46.4565C157.878 47.6219 157.162 48.7762 156.022 49.0315L138.559 52.9771C137.42 53.2323 136.291 52.4998 136.042 51.3345C135.792 50.1691 136.508 49.0148 137.648 48.7595Z" fill="#FCD579"/>
<path d="M148.427 54.3471C151.639 54.3471 154.243 51.6837 154.243 48.3982C154.243 45.1127 151.639 42.4492 148.427 42.4492C145.215 42.4492 142.611 45.1127 142.611 48.3982C142.611 51.6837 145.215 54.3471 148.427 54.3471Z" fill="#171759"/>
<path d="M6.52469 64.2748C9.73662 64.2748 12.3404 61.6114 12.3404 58.3259C12.3404 55.0404 9.73662 52.377 6.52469 52.377C3.31277 52.377 0.708984 55.0404 0.708984 58.3259C0.708984 61.6114 3.31277 64.2748 6.52469 64.2748Z" fill="#171759"/>
<path d="M153.039 21.8329L155.719 22.4822C157.043 22.8041 157.043 24.7297 155.719 25.0516L153.039 25.7009C152.703 25.7841 152.437 26.0505 152.361 26.3945L151.726 29.1359C151.411 30.49 149.529 30.49 149.214 29.1359L148.579 26.3945C148.498 26.0505 148.238 25.7785 147.901 25.7009L145.221 25.0516C143.898 24.7297 143.898 22.8041 145.221 22.4822L147.901 21.8329C148.238 21.7497 148.503 21.4833 148.579 21.1393L149.214 18.3979C149.529 17.0438 151.411 17.0438 151.726 18.3979L152.361 21.1393C152.442 21.4833 152.703 21.7552 153.039 21.8329Z" fill="#FFCD40"/>
<path d="M140.807 15.8406L141.67 16.0515C142.592 16.2735 142.592 17.6164 141.67 17.8384L140.807 18.0493C140.52 18.1214 140.292 18.3489 140.221 18.6486L140.015 19.5309C139.798 20.4743 138.485 20.4743 138.268 19.5309L138.062 18.6486C137.992 18.3545 137.769 18.1214 137.476 18.0493L136.614 17.8384C135.691 17.6164 135.691 16.2735 136.614 16.0515L137.476 15.8406C137.764 15.7685 137.992 15.5409 138.062 15.2413L138.268 14.3589C138.485 13.4155 139.798 13.4155 140.015 14.3589L140.221 15.2413C140.292 15.5354 140.514 15.7685 140.807 15.8406Z" fill="#FFCD40"/>
</g>
<defs>
<filter id="filter0_d_6407_21951" x="68.8753" y="0.134766" width="77.1635" height="99.8212" filterUnits="userSpaceOnUse" color-interpolation-filters="sRGB">
<feFlood flood-opacity="0" result="BackgroundImageFix"/>
<feColorMatrix in="SourceAlpha" type="matrix" values="0 0 0 0 0 0 0 0 0 0 0 0 0 0 0 0 0 0 127 0" result="hardAlpha"/>
<feOffset dy="1.24582"/>
<feGaussianBlur stdDeviation="0.622909"/>
<feComposite in2="hardAlpha" operator="out"/>
<feColorMatrix type="matrix" values="0 0 0 0 0 0 0 0 0 0 0 0 0 0 0 0 0 0 0.25 0"/>
<feBlend mode="normal" in2="BackgroundImageFix" result="effect1_dropShadow_6407_21951"/>
<feBlend mode="normal" in="SourceGraphic" in2="effect1_dropShadow_6407_21951" result="shape"/>
</filter>
<linearGradient id="paint0_linear_6407_21951" x1="232.068" y1="114.57" x2="286.492" y2="102.462" gradientUnits="userSpaceOnUse">
<stop stop-color="#FCD579"/>
<stop offset="1" stop-color="white" stop-opacity="0"/>
</linearGradient>
<clipPath id="clip0_6407_21951">
<rect width="313.647" height="178.152" fill="white" transform="translate(0.710938 0.134766)"/>
</clipPath>
</defs>
</svg>
