<svg width="465" height="264" viewBox="0 0 465 264" fill="none" xmlns="http://www.w3.org/2000/svg">
<g clip-path="url(#clip0_5885_38937)">
<path d="M183.391 126.587L170.862 108.424C169.131 105.915 165.74 105.316 163.287 107.086L163.28 107.09C160.827 108.86 160.241 112.328 161.972 114.837L174.501 133C176.231 135.509 179.623 136.108 182.076 134.338L182.083 134.333C184.536 132.564 185.122 129.095 183.391 126.587Z" fill="#171759"/>
<path d="M182.301 120.593L175.825 125.264C173.372 127.034 172.786 130.502 174.516 133.011L174.521 133.018C176.251 135.527 179.643 136.126 182.096 134.356L188.572 129.684C191.025 127.915 191.611 124.446 189.881 121.938L189.876 121.931C188.145 119.422 184.754 118.823 182.301 120.593Z" fill="#171759"/>
<path d="M83.3672 152.373L101.894 202.329L110.796 196.672L152.658 149.425M245.034 127.026L266.925 123.823L269.814 133.915L254.418 145.484" stroke="#484848" stroke-width="2.46332"/>
<path d="M239.256 117.189L230.595 100.208H239.256V66.7397L218.57 71.4118" stroke="#484848" stroke-width="2.46332"/>
<path d="M102.376 258.682C129.215 258.682 150.972 236.426 150.972 208.972C150.972 181.519 129.215 159.263 102.376 159.263C75.5367 159.263 53.7793 181.519 53.7793 208.972C53.7793 236.426 75.5367 258.682 102.376 258.682Z" stroke="#62657A" stroke-width="9.84507"/>
<path d="M52.6973 195.448C58.9504 177.63 72.9017 162.776 89.261 159.27" stroke="#4E4E68" stroke-width="1.47799" stroke-miterlimit="10" stroke-linecap="round"/>
<path d="M56.791 194.095C60.8768 180.596 72.9096 168.715 84.4526 164.667" stroke="#4E4E68" stroke-width="1.47799" stroke-miterlimit="10" stroke-linecap="round"/>
<path d="M286.165 258.682C313.004 258.682 334.761 236.426 334.761 208.972C334.761 181.519 313.004 159.263 286.165 159.263C259.326 159.263 237.568 181.519 237.568 208.972C237.568 236.426 259.326 258.682 286.165 258.682Z" stroke="#62657A" stroke-width="9.84507"/>
<path d="M236.977 195.448C243.23 177.63 257.181 162.776 273.54 159.27" stroke="#4E4E68" stroke-width="1.47799" stroke-miterlimit="10" stroke-linecap="round"/>
<path d="M241.062 194.095C245.156 180.596 257.181 168.715 268.724 164.667" stroke="#4E4E68" stroke-width="1.47799" stroke-miterlimit="10" stroke-linecap="round"/>
<path d="M178.449 229.427L96.7166 218.243C90.8648 217.439 86.498 212.34 86.498 206.296C86.498 199.818 91.499 194.497 97.8324 194.251L180.231 191.032C190.923 190.613 199.81 199.366 199.81 210.303C199.81 221.971 189.76 230.971 178.457 229.419L178.449 229.427Z" fill="#BBD567"/>
<path d="M157.948 192.977C146.879 139.088 58.5958 127.765 44.6445 201.59" stroke="#BBD567" stroke-width="6.39642"/>
<path d="M332.651 174.568C302.766 127.765 218.569 149.91 229.157 220.78" stroke="#BBD567" stroke-width="6.39642"/>
<path d="M161.312 160.741C179.277 169.108 223.33 179.249 244.305 131.214M193.79 201.098L255.134 151.881" stroke="#BBD567" stroke-width="7.38175"/>
<path d="M151.695 142.037L188.982 214.138M238.3 119.153L285.211 206.51" stroke="#9AB445" stroke-width="6.39642"/>
<path d="M149.871 136.238L149.864 136.241C147.023 137.39 145.631 140.677 146.755 143.583L148.349 147.706C149.473 150.611 152.686 152.035 155.526 150.886L155.534 150.883C158.374 149.734 159.766 146.447 158.643 143.541L157.048 139.418C155.925 136.513 152.712 135.089 149.871 136.238Z" fill="#BBD567"/>
<path d="M237.912 115.064L237.905 115.067C235.064 116.216 233.672 119.503 234.796 122.409L236.39 126.532C237.514 129.437 240.727 130.861 243.567 129.712L243.575 129.709C246.415 128.56 247.807 125.273 246.684 122.367L245.089 118.244C243.966 115.339 240.753 113.915 237.912 115.064Z" fill="#BBD567"/>
<path d="M286.408 218.818C291.857 218.818 296.274 214.299 296.274 208.726C296.274 203.153 291.857 198.635 286.408 198.635C280.96 198.635 276.543 203.153 276.543 208.726C276.543 214.299 280.96 218.818 286.408 218.818Z" fill="#4E4E68"/>
<path d="M86.498 207.002C87.2205 213.892 92.0288 217.34 96.1226 218.079L179.116 229.402C192.344 230.634 199.561 219.311 199.802 211.436C151.928 210.205 124.988 209.466 86.498 207.011V207.002Z" fill="#9AB445"/>
<path d="M387.445 72.1523L319.607 151.635L329.473 166.399L463.952 227.67L387.453 72.1523H387.445Z" fill="url(#paint0_linear_5885_38937)" fill-opacity="0.5"/>
<path d="M320.089 150.895L312.15 152.373C319.848 155.822 329.714 165.412 330.918 166.89L330.195 159.262L320.089 150.895Z" fill="#FCD579"/>
<path d="M180.078 219.803C185.527 219.803 189.944 215.285 189.944 209.712C189.944 204.139 185.527 199.621 180.078 199.621C174.63 199.621 170.213 204.139 170.213 209.712C170.213 215.285 174.63 219.803 180.078 219.803Z" fill="#62657A"/>
<path d="M179.84 209.958V238.253" stroke="#484848" stroke-width="2.46332"/>
<path d="M190.898 236.528H168.768V245.388H190.898V236.528Z" fill="#FCD579"/>
<path d="M178.666 122.354H126.931C124.089 122.354 121.801 124.908 122.628 127.691C128.857 148.638 157.956 141.157 165.116 135.286C168.993 132.1 174.468 129.235 178.369 128.307C179.894 127.946 181.275 126.624 181.275 125.023C181.275 123.545 180.103 122.346 178.658 122.346L178.666 122.354Z" fill="#FCD579"/>
<path d="M273.276 142.619L263.94 108.995C263.506 107.426 264.654 105.858 266.252 105.858H286.207C287.419 105.858 288.439 106.778 288.591 108.009L291.73 133.069C291.85 134.03 291.409 134.983 290.59 135.483L276.824 144.048C275.467 144.893 273.693 144.179 273.259 142.619H273.276Z" fill="#F0C254"/>
<path d="M289.78 104.142H263.322C261.593 104.142 260.191 105.573 260.191 107.34C260.191 109.106 261.593 110.538 263.322 110.538H289.78C291.509 110.538 292.91 109.106 292.91 107.34C292.91 105.573 291.509 104.142 289.78 104.142Z" fill="#FCD579"/>
<path d="M202.619 71.7901L228.459 65.952C230.145 65.5743 231.814 66.6582 232.183 68.3825C232.553 70.1068 231.493 71.8147 229.807 72.1924L203.968 78.0305C202.282 78.4082 200.613 77.3244 200.243 75.6C199.874 73.8757 200.934 72.1678 202.619 71.7901Z" fill="#FCD579"/>
<path d="M105.081 137.454H58.0577C54.2448 137.454 51.1543 134.236 51.1543 130.261V129.613C51.1543 128.972 51.2827 128.365 51.5075 127.806C51.6038 127.568 51.8848 126.928 52.4627 126.328C53.6267 125.121 55.1679 124.99 55.6094 124.965C66.9999 124.982 78.3905 124.998 89.781 125.015C90.4553 124.99 91.4427 124.982 92.6227 125.146C94.7659 125.433 96.2991 126.074 97.0537 126.386C105.466 129.867 107.2 130.064 107.818 131.978C108.147 132.988 108.155 134.457 107.409 135.673C106.702 136.822 105.579 137.29 105.081 137.463V137.454Z" fill="#FCD579"/>
<path d="M66.2461 138.192C67.105 145.41 67.9639 152.636 68.8308 159.853L103.548 209.949" stroke="#9AB445" stroke-width="6.39642"/>
<path d="M53.7402 138.965C70.2762 138.817 86.8042 138.67 103.34 138.522C106.061 138.497 109.425 139.745 112.459 142.356C115.895 145.321 117.299 149.229 117.909 151.643" stroke="#BBD567" stroke-width="6.39642"/>
<path d="M103.355 215.624C107.146 215.624 110.219 212.481 110.219 208.604C110.219 204.727 107.146 201.583 103.355 201.583C99.565 201.583 96.4922 204.727 96.4922 208.604C96.4922 212.481 99.565 215.624 103.355 215.624Z" fill="#62657A"/>
<path d="M119.882 211.198H91.1934V220.057H119.882V211.198Z" fill="#FCD579"/>
<g filter="url(#filter0_d_5885_38937)">
<path d="M161.93 137.114L156.813 115.511C156.106 112.528 153.169 110.695 150.252 111.418L150.244 111.42C147.327 112.143 145.535 115.148 146.242 118.131L151.359 139.734C152.066 142.717 155.003 144.55 157.92 143.827L157.928 143.825C160.845 143.102 162.637 140.098 161.93 137.114Z" fill="#171759"/>
<path d="M163.069 131.134L155.369 133.043C152.453 133.765 150.661 136.77 151.368 139.754L151.369 139.762C152.076 142.746 155.014 144.579 157.931 143.856L165.631 141.947C168.548 141.224 170.339 138.219 169.633 135.236L169.631 135.228C168.924 132.244 165.986 130.411 163.069 131.134Z" fill="#171759"/>
<path d="M157.945 122.804C186.017 122.804 208.773 99.5264 208.773 70.8118C208.773 42.0972 186.017 18.8193 157.945 18.8193C129.874 18.8193 107.117 42.0972 107.117 70.8118C107.117 99.5264 129.874 122.804 157.945 122.804Z" fill="#62657A"/>
<path d="M162.657 99.8801C177.912 99.8801 190.278 87.2303 190.278 71.6259C190.278 56.0215 177.912 43.3716 162.657 43.3716C147.402 43.3716 135.035 56.0215 135.035 71.6259C135.035 87.2303 147.402 99.8801 162.657 99.8801Z" stroke="#D3D3DD" stroke-width="4.10553" stroke-miterlimit="10"/>
<path d="M163.484 93.2044C175.13 93.2044 184.571 83.547 184.571 71.6339C184.571 59.7209 175.13 50.0635 163.484 50.0635C151.838 50.0635 142.396 59.7209 142.396 71.6339C142.396 83.547 151.838 93.2044 163.484 93.2044Z" fill="#D3D3DD"/>
<path opacity="0.2" d="M208.774 70.8124C208.774 99.5265 186.017 122.805 157.946 122.805C143.601 122.805 130.653 116.729 121.414 106.949C129.265 112.024 138.56 114.963 148.53 114.963C176.601 114.963 199.35 91.685 199.35 62.9709C199.35 48.93 193.915 36.1864 185.062 26.834C199.31 36.0386 208.774 52.2965 208.774 70.8124Z" fill="#3D3D60"/>
<path d="M203.93 72.3628C203.159 96.0024 185.347 115.225 162.654 117.581" stroke="#4E4E68" stroke-width="4.10553" stroke-miterlimit="10" stroke-linecap="round"/>
<path d="M196.954 75.4507C195.1 91.7496 183.71 105.068 168.643 109.42" stroke="#4E4E68" stroke-width="4.10553" stroke-miterlimit="10" stroke-linecap="round"/>
<path d="M111.945 69.2589C112.716 45.6192 130.528 26.3971 153.221 24.0405" stroke="#4E4E68" stroke-width="4.10553" stroke-miterlimit="10" stroke-linecap="round"/>
<path d="M118.92 66.162C120.774 49.8631 132.165 36.5447 147.232 32.1929" stroke="#4E4E68" stroke-width="4.10553" stroke-miterlimit="10" stroke-linecap="round"/>
<path d="M156.484 71.2226V69.1205C156.484 67.0935 154.878 65.4502 152.896 65.4502C150.915 65.4502 149.308 67.0935 149.308 69.1205V71.2226C149.308 73.2496 150.915 74.8929 152.896 74.8929C154.878 74.8929 156.484 73.2496 156.484 71.2226Z" fill="#171759"/>
<path d="M183.047 71.2314V69.1293C183.047 67.1023 181.44 65.459 179.459 65.459C177.477 65.459 175.871 67.1023 175.871 69.1293V71.2314C175.871 73.2584 177.477 74.9017 179.459 74.9017C181.44 74.9017 183.047 73.2584 183.047 71.2314Z" fill="#171759"/>
<path d="M172.427 74.8931C172.427 78.4156 169.634 81.2813 166.19 81.2813C162.747 81.2813 159.953 78.4156 159.953 74.8931H172.435H172.427Z" fill="white" stroke="#171759" stroke-width="3.03809" stroke-linecap="round" stroke-linejoin="round"/>
<path d="M207.248 54.817C207.104 57.9947 205.499 84.7052 185.784 96.4142C179.129 100.372 172.828 101.177 170.155 101.489C157.207 103.008 141.321 98.738 130.709 86.0108C119.64 72.7335 120.089 57.19 120.29 53.5278" stroke="#201C3A" stroke-width="6.56885" stroke-miterlimit="10"/>
<path d="M206.974 64.1049C199.348 62.1917 190.662 60.5659 181.046 59.6873C159.87 57.7495 141.673 60.1143 128.042 63.1442C128.042 63.1442 122.03 65.1723 108.922 64.1049C108.127 64.0392 106.811 63.8421 105.783 62.8486C104.98 62.0686 104.475 61.0011 104.475 59.8187V52.9214C104.475 50.5649 106.473 48.6353 108.922 48.6353H206.982C209.422 48.6353 211.429 50.5649 211.429 52.9214V59.8187C211.429 62.1753 209.43 64.1049 206.982 64.1049H206.974Z" fill="#312A4C"/>
<path d="M107.205 56.369C104.588 56.369 102.493 54.1109 102.718 51.4587C105.198 22.8021 129.159 0 157.945 0C186.73 0 210.691 22.8021 213.172 51.4587C213.404 54.1027 211.301 56.369 208.684 56.369H107.197H107.205Z" fill="#FF525F"/>
<path d="M177.327 95.8594L162.619 96.9274C161.256 97.0263 160.231 98.2359 160.327 99.6291L160.63 103.995C160.727 105.388 161.909 106.437 163.272 106.338L177.98 105.27C179.342 105.171 180.368 103.962 180.272 102.569L179.969 98.2031C179.872 96.8098 178.689 95.7606 177.327 95.8594Z" fill="#312A4C"/>
</g>
<path d="M202.619 71.9454L228.459 66.1073C230.145 65.7296 231.814 66.8135 232.183 68.5378C232.553 70.2621 231.493 71.97 229.807 72.3477L203.968 78.1858C202.282 78.5635 200.613 77.4796 200.243 75.7553C199.874 74.031 200.934 72.3231 202.619 71.9454Z" fill="#FCD579"/>
<path d="M218.568 80.2139C223.32 80.2139 227.173 76.273 227.173 71.4116C227.173 66.5503 223.32 62.6094 218.568 62.6094C213.816 62.6094 209.963 66.5503 209.963 71.4116C209.963 76.273 213.816 80.2139 218.568 80.2139Z" fill="#171759"/>
<path d="M225.394 32.1053L229.359 33.066C231.318 33.5422 231.318 36.3915 229.359 36.8677L225.394 37.8284C224.896 37.9516 224.503 38.3457 224.39 38.8548L223.451 42.9111C222.985 44.9146 220.2 44.9146 219.734 42.9111L218.795 38.8548C218.675 38.3457 218.29 37.9434 217.792 37.8284L213.826 36.8677C211.868 36.3915 211.868 33.5422 213.826 33.066L217.792 32.1053C218.29 31.9821 218.683 31.588 218.795 31.0789L219.734 27.0226C220.2 25.0191 222.985 25.0191 223.451 27.0226L224.39 31.0789C224.511 31.588 224.896 31.9903 225.394 32.1053Z" fill="#FFCD40"/>
<path d="M207.291 23.2378L208.567 23.5498C209.932 23.8783 209.932 25.8653 208.567 26.1938L207.291 26.5058C206.866 26.6125 206.528 26.9492 206.424 27.3926L206.119 28.6982C205.798 30.094 203.855 30.094 203.534 28.6982L203.229 27.3926C203.125 26.9574 202.796 26.6125 202.362 26.5058L201.086 26.1938C199.721 25.8653 199.721 23.8783 201.086 23.5498L202.362 23.2378C202.788 23.1311 203.125 22.7944 203.229 22.351L203.534 21.0454C203.855 19.6496 205.798 19.6496 206.119 21.0454L206.424 22.351C206.528 22.7862 206.857 23.1311 207.291 23.2378Z" fill="#FFCD40"/>
</g>
<defs>
<filter id="filter0_d_5885_38937" x="100.858" y="0" width="114.175" height="147.7" filterUnits="userSpaceOnUse" color-interpolation-filters="sRGB">
<feFlood flood-opacity="0" result="BackgroundImageFix"/>
<feColorMatrix in="SourceAlpha" type="matrix" values="0 0 0 0 0 0 0 0 0 0 0 0 0 0 0 0 0 0 127 0" result="hardAlpha"/>
<feOffset dy="1.84336"/>
<feGaussianBlur stdDeviation="0.921678"/>
<feComposite in2="hardAlpha" operator="out"/>
<feColorMatrix type="matrix" values="0 0 0 0 0 0 0 0 0 0 0 0 0 0 0 0 0 0 0.25 0"/>
<feBlend mode="normal" in2="BackgroundImageFix" result="effect1_dropShadow_5885_38937"/>
<feBlend mode="normal" in="SourceGraphic" in2="effect1_dropShadow_5885_38937" result="shape"/>
</filter>
<linearGradient id="paint0_linear_5885_38937" x1="342.324" y1="169.322" x2="422.852" y2="151.407" gradientUnits="userSpaceOnUse">
<stop stop-color="#FCD579"/>
<stop offset="1" stop-color="white" stop-opacity="0"/>
</linearGradient>
<clipPath id="clip0_5885_38937">
<rect width="464.083" height="263.6" fill="white"/>
</clipPath>
</defs>
</svg>
