<svg width="234" height="162" viewBox="0 0 234 162" fill="none" xmlns="http://www.w3.org/2000/svg">
<path d="M196.738 153.457L191.576 131.891C190.861 128.903 187.863 127.06 184.881 127.774C181.898 128.488 180.06 131.488 180.775 134.476L185.937 156.043C186.652 159.03 189.649 160.873 192.632 160.159C195.614 159.445 197.453 156.445 196.738 153.457Z" fill="#171759"/>
<path d="M197.9 147.529L190.058 149.407C187.07 150.122 185.227 153.119 185.941 156.102C186.655 159.084 189.655 160.923 192.643 160.208L200.485 158.33C203.473 157.615 205.316 154.618 204.602 151.635C203.888 148.653 200.888 146.814 197.9 147.529Z" fill="#171759"/>
<path d="M165.63 153.445L180.894 134.077C182.64 131.863 182.19 128.623 179.904 126.877L178.752 125.995C176.466 124.231 173.19 124.609 171.444 126.823L156.18 146.191C154.434 148.405 154.884 151.645 157.17 153.391L158.322 154.273C160.608 156.037 163.884 155.659 165.63 153.445Z" fill="#171759"/>
<path d="M172.38 150.421L164.37 144.247C162.084 142.483 158.808 142.861 157.062 145.075L156.18 146.191C154.434 148.405 154.884 151.645 157.17 153.391L165.18 159.565C167.466 161.329 170.742 160.951 172.488 158.737L173.37 157.621C175.116 155.407 174.666 152.167 172.38 150.421Z" fill="#171759"/>
<path d="M180.837 144.246C206.027 144.246 226.448 123.825 226.448 98.6345C226.448 73.4437 206.027 53.0225 180.837 53.0225C155.646 53.0225 135.225 73.4437 135.225 98.6345C135.225 123.825 155.646 144.246 180.837 144.246Z" fill="#62657A"/>
<path d="M184.005 123.42C197.694 123.42 208.791 112.323 208.791 98.6342C208.791 84.9452 197.694 73.8481 184.005 73.8481C170.316 73.8481 159.219 84.9452 159.219 98.6342C159.219 112.323 170.316 123.42 184.005 123.42Z" stroke="#D3D3DD" stroke-width="3.6" stroke-miterlimit="10"/>
<path d="M184.004 117.552C194.452 117.552 202.922 109.082 202.922 98.6343C202.922 88.1862 194.452 79.7163 184.004 79.7163C173.556 79.7163 165.086 88.1862 165.086 98.6343C165.086 109.082 173.556 117.552 184.004 117.552Z" fill="#D3D3DD"/>
<path opacity="0.2" d="M135.207 98.616C135.207 123.816 155.637 144.228 180.819 144.228C193.689 144.228 205.317 138.9 213.597 130.314C206.559 134.76 198.207 137.352 189.261 137.352C164.061 137.352 143.649 116.922 143.649 91.74C143.649 79.428 148.527 68.232 156.465 60.042C143.685 68.124 135.189 82.38 135.189 98.634L135.207 98.616Z" fill="#3D3D60"/>
<path d="M139.543 99.9849C140.227 120.721 156.229 137.587 176.587 139.657" stroke="#4E4E68" stroke-width="3.6" stroke-miterlimit="10" stroke-linecap="round"/>
<path d="M145.807 102.703C147.463 116.995 157.687 128.695 171.223 132.511" stroke="#4E4E68" stroke-width="3.6" stroke-miterlimit="10" stroke-linecap="round"/>
<path d="M222.108 97.2663C221.424 76.5303 205.422 59.6642 185.064 57.5942" stroke="#4E4E68" stroke-width="3.6" stroke-miterlimit="10" stroke-linecap="round"/>
<path d="M215.844 94.5487C214.188 80.2567 203.964 68.5567 190.428 64.7407" stroke="#4E4E68" stroke-width="3.6" stroke-miterlimit="10" stroke-linecap="round"/>
<path d="M176.25 96.5285L176.25 94.6024C176.25 92.7633 174.759 91.2725 172.92 91.2725L172.902 91.2725C171.063 91.2725 169.572 92.7633 169.572 94.6024L169.572 96.5285C169.572 98.3676 171.063 99.8585 172.902 99.8585L172.92 99.8585C174.759 99.8585 176.25 98.3676 176.25 96.5285Z" fill="#171759"/>
<path d="M200.941 96.5285L200.941 94.6026C200.941 92.7635 199.45 91.2725 197.611 91.2725L197.593 91.2725C195.754 91.2725 194.263 92.7635 194.263 94.6026L194.263 96.5285C194.263 98.3676 195.754 99.8585 197.593 99.8585L197.611 99.8585C199.45 99.8585 200.941 98.3676 200.941 96.5285Z" fill="#171759"/>
<path d="M179.973 100.561C180.423 103.063 182.601 104.971 185.247 104.971C187.893 104.971 190.071 103.063 190.521 100.561" stroke="#171759" stroke-width="2.772" stroke-linecap="round" stroke-linejoin="round"/>
<path d="M92.4609 146.442L92.4609 118.866C92.4609 115.049 89.3704 111.954 85.558 111.954C81.7456 111.954 78.655 115.049 78.655 118.866L78.655 146.442C78.655 150.26 81.7456 153.354 85.558 153.354C89.3704 153.354 92.4609 150.26 92.4609 146.442Z" fill="#171759"/>
<path d="M95.5945 139.548L85.5506 139.548C81.7332 139.548 78.6387 142.638 78.6387 146.451C78.6387 150.263 81.7332 153.354 85.5506 153.354L95.5945 153.354C99.4119 153.354 102.507 150.263 102.507 146.451C102.507 142.638 99.4119 139.548 95.5945 139.548Z" fill="#171759"/>
<path d="M57.0935 147.058L63.2686 120.182C64.1234 116.461 61.8043 112.753 58.0887 111.9C54.3731 111.046 50.668 113.37 49.8132 117.09L43.6381 143.966C42.7833 147.686 45.1023 151.394 48.8179 152.248C52.5335 153.102 56.2386 150.778 57.0935 147.058Z" fill="#171759"/>
<path d="M61.6935 140.733L51.9046 138.484C48.1841 137.629 44.4759 139.948 43.6222 143.664C42.7685 147.379 45.0926 151.084 48.813 151.939L58.6019 154.188C62.3223 155.043 66.0304 152.724 66.8841 149.008C67.7378 145.293 65.4139 141.588 61.6935 140.733Z" fill="#171759"/>
<path d="M70.1398 129.919C105.789 129.919 134.688 101.02 134.688 65.3707C134.688 29.7218 105.789 0.822754 70.1398 0.822754C34.4909 0.822754 5.5918 29.7218 5.5918 65.3707C5.5918 101.02 34.4909 129.919 70.1398 129.919Z" fill="#62657A"/>
<path d="M74.6191 100.453C93.9943 100.453 109.701 84.7463 109.701 65.371C109.701 45.9958 93.9943 30.2891 74.6191 30.2891C55.2438 30.2891 39.5371 45.9958 39.5371 65.371C39.5371 84.7463 55.2438 100.453 74.6191 100.453Z" stroke="#D3D3DD" stroke-width="5.094" stroke-miterlimit="10"/>
<path d="M74.6219 92.1554C89.4143 92.1554 101.406 80.1638 101.406 65.3714C101.406 50.579 89.4143 38.5874 74.6219 38.5874C59.8295 38.5874 47.8379 50.579 47.8379 65.3714C47.8379 80.1638 59.8295 92.1554 74.6219 92.1554Z" fill="#D3D3DD"/>
<path opacity="0.2" d="M5.5918 65.3527C5.5918 100.993 34.4998 129.901 70.1398 129.901C88.3558 129.901 104.808 122.359 116.526 110.209C106.554 116.509 94.7458 120.163 82.0918 120.163C46.4518 120.163 17.5618 91.2548 17.5618 55.6148C17.5618 38.1908 24.4558 22.3688 35.7058 10.7588C17.6158 22.1888 5.5918 42.3667 5.5918 65.3527Z" fill="#3D3D60"/>
<path d="M11.7305 67.2793C12.7025 96.6193 35.3285 120.487 64.1465 123.421" stroke="#4E4E68" stroke-width="5.094" stroke-miterlimit="10" stroke-linecap="round"/>
<path d="M20.5859 71.1309C22.9439 91.3629 37.3979 107.905 56.5319 113.305" stroke="#4E4E68" stroke-width="5.094" stroke-miterlimit="10" stroke-linecap="round"/>
<path d="M128.549 63.4452C127.577 34.1052 104.951 10.2372 76.1328 7.30322" stroke="#4E4E68" stroke-width="5.094" stroke-miterlimit="10" stroke-linecap="round"/>
<path d="M119.674 59.5935C117.316 39.3615 102.863 22.8194 83.7285 17.4194" stroke="#4E4E68" stroke-width="5.094" stroke-miterlimit="10" stroke-linecap="round"/>
<path d="M99.9102 69.9975L99.9102 67.3875C99.9102 64.8724 97.8712 62.8335 95.3561 62.8335C92.841 62.8335 90.8022 64.8724 90.8022 67.3875L90.8022 69.9975C90.8022 72.5126 92.841 74.5515 95.3561 74.5515C97.8712 74.5515 99.9102 72.5126 99.9102 69.9975Z" fill="#171759"/>
<path d="M66.1777 69.9975L66.1777 67.3875C66.1777 64.8724 64.1388 62.8335 61.6237 62.8335C59.1086 62.8335 57.0697 64.8724 57.0697 67.3875L57.0697 69.9975C57.0697 72.5126 59.1086 74.5515 61.6237 74.5515C64.1388 74.5515 66.1777 72.5126 66.1777 69.9975Z" fill="#171759"/>
<path d="M70.5705 74.5522C70.5705 78.9262 74.1166 82.4722 78.4906 82.4722C82.8646 82.4722 86.4106 78.9262 86.4106 74.5522L70.5527 74.5522L70.5705 74.5522Z" fill="white" stroke="#171759" stroke-width="3.78" stroke-linecap="round" stroke-linejoin="round"/>
<path d="M127.345 113.413C133.071 113.413 137.713 108.771 137.713 103.045C137.713 97.3186 133.071 92.6768 127.345 92.6768C121.618 92.6768 116.977 97.3186 116.977 103.045C116.977 108.771 121.618 113.413 127.345 113.413Z" fill="#171759"/>
<path d="M10.5614 116.347C16.2875 116.347 20.9294 111.705 20.9294 105.979C20.9294 100.253 16.2875 95.6113 10.5614 95.6113C4.83529 95.6113 0.193359 100.253 0.193359 105.979C0.193359 111.705 4.83529 116.347 10.5614 116.347Z" fill="#171759"/>
<path d="M225.534 118.507C229.699 118.507 233.076 115.13 233.076 110.965C233.076 106.8 229.699 103.423 225.534 103.423C221.369 103.423 217.992 106.8 217.992 110.965C217.992 115.13 221.369 118.507 225.534 118.507Z" fill="#171759"/>
<path d="M140.323 115.554C144.489 115.554 147.865 112.178 147.865 108.012C147.865 103.847 144.489 100.47 140.323 100.47C136.158 100.47 132.781 103.847 132.781 108.012C132.781 112.178 136.158 115.554 140.323 115.554Z" fill="#171759" stroke="#171759" stroke-width="1.494" stroke-miterlimit="10"/>
<path d="M225.274 81.2487C225.14 84.0343 223.707 107.431 206.042 117.69C200.082 121.158 194.431 121.855 192.034 122.136C180.436 123.475 166.2 119.725 156.691 108.569C146.767 96.9313 147.169 83.3245 147.356 80.1104" stroke="#201C3A" stroke-width="7.74" stroke-miterlimit="10"/>
<path d="M225.02 89.3782C218.189 87.7041 210.395 86.2845 201.784 85.5078C182.806 83.8069 166.508 85.8827 154.28 88.5344C154.28 88.5344 148.897 90.3156 137.152 89.3782C136.442 89.3246 135.263 89.1505 134.339 88.28C133.616 87.5969 133.174 86.6595 133.174 85.6283L133.174 79.5883C133.174 77.5258 134.969 75.8384 137.152 75.8384L225.02 75.8384C227.216 75.8384 228.997 77.5258 228.997 79.5883L228.997 85.6283C228.997 87.6907 227.203 89.3782 225.02 89.3782Z" fill="#312A4C"/>
<path d="M135.624 82.6017C133.281 82.6017 131.406 80.6196 131.607 78.3027C133.83 53.1918 155.298 33.2236 181.092 33.2236C206.886 33.2236 228.354 53.1918 230.577 78.3027C230.778 80.6196 228.903 82.6017 226.559 82.6017L135.624 82.6017Z" fill="#68DFF2"/>
<path d="M196.569 117.238L187.204 117.903C184.932 118.064 183.221 120.037 183.382 122.309L183.383 122.323C183.544 124.595 185.517 126.307 187.789 126.145L197.154 125.481C199.426 125.319 201.138 123.346 200.976 121.074L200.975 121.061C200.814 118.788 198.841 117.077 196.569 117.238Z" fill="#312A4C"/>
</svg>
