<svg width="425" height="411" viewBox="0 0 425 411" fill="none" xmlns="http://www.w3.org/2000/svg">
<path d="M279.332 20V7.4H283.472C284.456 7.4 285.266 7.562 285.902 7.886C286.538 8.21 287.006 8.654 287.306 9.218C287.618 9.77 287.774 10.394 287.774 11.09C287.774 11.774 287.624 12.398 287.324 12.962C287.024 13.514 286.556 13.958 285.92 14.294C285.284 14.618 284.468 14.78 283.472 14.78H280.844V20H279.332ZM280.844 13.502H283.436C284.444 13.502 285.158 13.286 285.578 12.854C286.01 12.41 286.226 11.822 286.226 11.09C286.226 10.322 286.01 9.728 285.578 9.308C285.158 8.876 284.444 8.66 283.436 8.66H280.844V13.502ZM292.592 20.216C291.848 20.216 291.23 20.09 290.738 19.838C290.258 19.586 289.898 19.25 289.658 18.83C289.418 18.398 289.298 17.93 289.298 17.426C289.298 16.814 289.454 16.298 289.766 15.878C290.09 15.458 290.54 15.14 291.116 14.924C291.704 14.696 292.388 14.582 293.168 14.582H295.58C295.58 14.018 295.49 13.55 295.31 13.178C295.142 12.806 294.89 12.524 294.554 12.332C294.218 12.14 293.81 12.044 293.33 12.044C292.754 12.044 292.25 12.194 291.818 12.494C291.398 12.782 291.14 13.202 291.044 13.754H289.496C289.568 13.118 289.784 12.578 290.144 12.134C290.516 11.69 290.984 11.354 291.548 11.126C292.112 10.886 292.706 10.766 293.33 10.766C294.158 10.766 294.848 10.922 295.4 11.234C295.964 11.534 296.384 11.96 296.66 12.512C296.948 13.052 297.092 13.694 297.092 14.438V20H295.742L295.652 18.398C295.532 18.65 295.376 18.89 295.184 19.118C295.004 19.334 294.788 19.526 294.536 19.694C294.296 19.85 294.014 19.976 293.69 20.072C293.366 20.168 293 20.216 292.592 20.216ZM292.826 18.938C293.258 18.938 293.642 18.854 293.978 18.686C294.314 18.506 294.602 18.266 294.842 17.966C295.094 17.666 295.28 17.33 295.4 16.958C295.52 16.574 295.58 16.184 295.58 15.788V15.752H293.294C292.718 15.752 292.25 15.824 291.89 15.968C291.53 16.1 291.272 16.286 291.116 16.526C290.96 16.766 290.882 17.042 290.882 17.354C290.882 17.678 290.954 17.96 291.098 18.2C291.254 18.44 291.476 18.626 291.764 18.758C292.052 18.878 292.406 18.938 292.826 18.938ZM299.755 20V10.982H301.123L301.249 12.71C301.441 12.302 301.693 11.954 302.005 11.666C302.329 11.378 302.713 11.156 303.157 11C303.601 10.844 304.105 10.766 304.669 10.766V12.35H304.183C303.787 12.35 303.409 12.404 303.049 12.512C302.701 12.608 302.389 12.77 302.113 12.998C301.849 13.226 301.639 13.538 301.483 13.934C301.339 14.318 301.267 14.804 301.267 15.392V20H299.755ZM312.322 20L307.984 15.05L311.926 10.982H313.78L309.262 15.59L309.28 14.51L314.248 20H312.322ZM306.724 20V7.04H308.236V20H306.724ZM316.317 20V10.982H317.829V20H316.317ZM317.073 9.038C316.773 9.038 316.521 8.942 316.317 8.75C316.125 8.546 316.029 8.294 316.029 7.994C316.029 7.694 316.125 7.454 316.317 7.274C316.521 7.082 316.773 6.986 317.073 6.986C317.361 6.986 317.607 7.082 317.811 7.274C318.015 7.454 318.117 7.694 318.117 7.994C318.117 8.294 318.015 8.546 317.811 8.75C317.607 8.942 317.361 9.038 317.073 9.038ZM320.821 20V10.982H322.189L322.279 12.584C322.567 12.02 322.981 11.576 323.521 11.252C324.061 10.928 324.673 10.766 325.357 10.766C326.053 10.766 326.659 10.91 327.175 11.198C327.691 11.474 328.093 11.9 328.381 12.476C328.669 13.052 328.813 13.778 328.813 14.654V20H327.301V14.816C327.301 13.904 327.103 13.22 326.707 12.764C326.311 12.296 325.747 12.062 325.015 12.062C324.499 12.062 324.037 12.188 323.629 12.44C323.233 12.692 322.915 13.052 322.675 13.52C322.447 13.988 322.333 14.564 322.333 15.248V20H320.821ZM335.082 24.176C334.266 24.176 333.546 24.068 332.922 23.852C332.298 23.648 331.806 23.33 331.446 22.898C331.098 22.466 330.924 21.932 330.924 21.296C330.924 21.032 330.978 20.744 331.086 20.432C331.206 20.12 331.404 19.814 331.68 19.514C331.968 19.214 332.37 18.944 332.886 18.704L333.93 19.316C333.306 19.58 332.892 19.88 332.688 20.216C332.496 20.552 332.4 20.864 332.4 21.152C332.4 21.548 332.514 21.878 332.742 22.142C332.982 22.406 333.3 22.604 333.696 22.736C334.104 22.868 334.566 22.934 335.082 22.934C335.586 22.934 336.024 22.856 336.396 22.7C336.768 22.556 337.056 22.352 337.26 22.088C337.464 21.824 337.566 21.518 337.566 21.17C337.566 20.762 337.41 20.414 337.098 20.126C336.786 19.85 336.198 19.688 335.334 19.64C334.626 19.592 334.032 19.526 333.552 19.442C333.084 19.358 332.688 19.262 332.364 19.154C332.052 19.034 331.788 18.902 331.572 18.758C331.368 18.614 331.182 18.464 331.014 18.308V17.894L332.778 16.148L334.074 16.616L332.274 18.254L332.508 17.624C332.64 17.72 332.766 17.81 332.886 17.894C333.006 17.978 333.168 18.05 333.372 18.11C333.588 18.17 333.876 18.224 334.236 18.272C334.596 18.32 335.076 18.368 335.676 18.416C336.492 18.476 337.146 18.62 337.638 18.848C338.142 19.076 338.502 19.382 338.718 19.766C338.946 20.15 339.06 20.6 339.06 21.116C339.06 21.62 338.916 22.106 338.628 22.574C338.352 23.042 337.92 23.426 337.332 23.726C336.744 24.026 335.994 24.176 335.082 24.176ZM335.064 17.174C334.308 17.174 333.66 17.03 333.12 16.742C332.592 16.454 332.19 16.07 331.914 15.59C331.638 15.11 331.5 14.57 331.5 13.97C331.5 13.382 331.638 12.848 331.914 12.368C332.202 11.888 332.61 11.504 333.138 11.216C333.666 10.916 334.308 10.766 335.064 10.766C335.82 10.766 336.462 10.916 336.99 11.216C337.518 11.504 337.92 11.888 338.196 12.368C338.472 12.848 338.61 13.382 338.61 13.97C338.61 14.57 338.472 15.11 338.196 15.59C337.92 16.07 337.518 16.454 336.99 16.742C336.462 17.03 335.82 17.174 335.064 17.174ZM335.064 15.932C335.7 15.932 336.204 15.764 336.576 15.428C336.96 15.092 337.152 14.606 337.152 13.97C337.152 13.346 336.96 12.866 336.576 12.53C336.204 12.194 335.7 12.026 335.064 12.026C334.428 12.026 333.912 12.194 333.516 12.53C333.132 12.866 332.94 13.346 332.94 13.97C332.94 14.606 333.132 15.092 333.516 15.428C333.9 15.764 334.416 15.932 335.064 15.932ZM336.522 12.26L336.072 10.982H339.78V12.116L336.522 12.26ZM347.075 20V7.4H348.587V18.794H354.455V20H347.075ZM359.79 20.216C359.046 20.216 358.428 20.09 357.936 19.838C357.456 19.586 357.096 19.25 356.856 18.83C356.616 18.398 356.496 17.93 356.496 17.426C356.496 16.814 356.652 16.298 356.964 15.878C357.288 15.458 357.738 15.14 358.314 14.924C358.902 14.696 359.586 14.582 360.366 14.582H362.778C362.778 14.018 362.688 13.55 362.508 13.178C362.34 12.806 362.088 12.524 361.752 12.332C361.416 12.14 361.008 12.044 360.528 12.044C359.952 12.044 359.448 12.194 359.016 12.494C358.596 12.782 358.338 13.202 358.242 13.754H356.694C356.766 13.118 356.982 12.578 357.342 12.134C357.714 11.69 358.182 11.354 358.746 11.126C359.31 10.886 359.904 10.766 360.528 10.766C361.356 10.766 362.046 10.922 362.598 11.234C363.162 11.534 363.582 11.96 363.858 12.512C364.146 13.052 364.29 13.694 364.29 14.438V20H362.94L362.85 18.398C362.73 18.65 362.574 18.89 362.382 19.118C362.202 19.334 361.986 19.526 361.734 19.694C361.494 19.85 361.212 19.976 360.888 20.072C360.564 20.168 360.198 20.216 359.79 20.216ZM360.024 18.938C360.456 18.938 360.84 18.854 361.176 18.686C361.512 18.506 361.8 18.266 362.04 17.966C362.292 17.666 362.478 17.33 362.598 16.958C362.718 16.574 362.778 16.184 362.778 15.788V15.752H360.492C359.916 15.752 359.448 15.824 359.088 15.968C358.728 16.1 358.47 16.286 358.314 16.526C358.158 16.766 358.08 17.042 358.08 17.354C358.08 17.678 358.152 17.96 358.296 18.2C358.452 18.44 358.674 18.626 358.962 18.758C359.25 18.878 359.604 18.938 360.024 18.938ZM366.953 20V10.982H368.321L368.411 12.584C368.699 12.02 369.113 11.576 369.653 11.252C370.193 10.928 370.805 10.766 371.489 10.766C372.185 10.766 372.791 10.91 373.307 11.198C373.823 11.474 374.225 11.9 374.513 12.476C374.801 13.052 374.945 13.778 374.945 14.654V20H373.433V14.816C373.433 13.904 373.235 13.22 372.839 12.764C372.443 12.296 371.879 12.062 371.147 12.062C370.631 12.062 370.169 12.188 369.761 12.44C369.365 12.692 369.047 13.052 368.807 13.52C368.579 13.988 368.465 14.564 368.465 15.248V20H366.953ZM381.646 20.216C380.794 20.216 380.038 20.024 379.378 19.64C378.718 19.244 378.196 18.692 377.812 17.984C377.44 17.264 377.254 16.436 377.254 15.5C377.254 14.54 377.44 13.712 377.812 13.016C378.184 12.308 378.7 11.756 379.36 11.36C380.032 10.964 380.806 10.766 381.682 10.766C382.558 10.766 383.308 10.964 383.932 11.36C384.556 11.756 385.03 12.272 385.354 12.908C385.69 13.544 385.858 14.24 385.858 14.996C385.858 15.116 385.858 15.248 385.858 15.392C385.858 15.524 385.852 15.674 385.84 15.842H378.388V14.672H384.364C384.328 13.844 384.052 13.202 383.536 12.746C383.032 12.278 382.402 12.044 381.646 12.044C381.13 12.044 380.65 12.164 380.206 12.404C379.762 12.632 379.402 12.968 379.126 13.412C378.862 13.856 378.73 14.414 378.73 15.086V15.59C378.73 16.322 378.868 16.94 379.144 17.444C379.42 17.948 379.78 18.326 380.224 18.578C380.668 18.818 381.142 18.938 381.646 18.938C382.27 18.938 382.786 18.8 383.194 18.524C383.614 18.236 383.92 17.846 384.112 17.354H385.606C385.45 17.906 385.192 18.398 384.832 18.83C384.472 19.25 384.022 19.586 383.482 19.838C382.954 20.09 382.342 20.216 381.646 20.216Z" fill="black"/>
<path d="M167.582 20V7.4H172.01C172.898 7.4 173.63 7.544 174.206 7.832C174.794 8.108 175.232 8.492 175.52 8.984C175.808 9.464 175.952 10.004 175.952 10.604C175.952 11.252 175.808 11.792 175.52 12.224C175.244 12.656 174.878 12.986 174.422 13.214C173.978 13.442 173.504 13.58 173 13.628L173.252 13.448C173.792 13.46 174.29 13.604 174.746 13.88C175.202 14.156 175.562 14.528 175.826 14.996C176.102 15.464 176.24 15.986 176.24 16.562C176.24 17.198 176.084 17.78 175.772 18.308C175.46 18.824 174.998 19.238 174.386 19.55C173.786 19.85 173.042 20 172.154 20H167.582ZM169.094 18.74H171.992C172.844 18.74 173.504 18.542 173.972 18.146C174.452 17.738 174.692 17.174 174.692 16.454C174.692 15.746 174.446 15.182 173.954 14.762C173.474 14.33 172.808 14.114 171.956 14.114H169.094V18.74ZM169.094 12.908H171.902C172.718 12.908 173.336 12.716 173.756 12.332C174.188 11.948 174.404 11.426 174.404 10.766C174.404 10.13 174.188 9.62 173.756 9.236C173.336 8.852 172.7 8.66 171.848 8.66H169.094V12.908ZM178.86 20V10.982H180.372V20H178.86ZM179.616 9.038C179.316 9.038 179.064 8.942 178.86 8.75C178.668 8.546 178.572 8.294 178.572 7.994C178.572 7.694 178.668 7.454 178.86 7.274C179.064 7.082 179.316 6.986 179.616 6.986C179.904 6.986 180.15 7.082 180.354 7.274C180.558 7.454 180.66 7.694 180.66 7.994C180.66 8.294 180.558 8.546 180.354 8.75C180.15 8.942 179.904 9.038 179.616 9.038ZM188.962 20L184.624 15.05L188.566 10.982H190.42L185.902 15.59L185.92 14.51L190.888 20H188.962ZM183.364 20V7.04H184.876V20H183.364ZM196.158 20.216C195.306 20.216 194.55 20.024 193.89 19.64C193.23 19.244 192.708 18.692 192.324 17.984C191.952 17.264 191.766 16.436 191.766 15.5C191.766 14.54 191.952 13.712 192.324 13.016C192.696 12.308 193.212 11.756 193.872 11.36C194.544 10.964 195.318 10.766 196.194 10.766C197.07 10.766 197.82 10.964 198.444 11.36C199.068 11.756 199.542 12.272 199.866 12.908C200.202 13.544 200.37 14.24 200.37 14.996C200.37 15.116 200.37 15.248 200.37 15.392C200.37 15.524 200.364 15.674 200.352 15.842H192.9V14.672H198.876C198.84 13.844 198.564 13.202 198.048 12.746C197.544 12.278 196.914 12.044 196.158 12.044C195.642 12.044 195.162 12.164 194.718 12.404C194.274 12.632 193.914 12.968 193.638 13.412C193.374 13.856 193.242 14.414 193.242 15.086V15.59C193.242 16.322 193.38 16.94 193.656 17.444C193.932 17.948 194.292 18.326 194.736 18.578C195.18 18.818 195.654 18.938 196.158 18.938C196.782 18.938 197.298 18.8 197.706 18.524C198.126 18.236 198.432 17.846 198.624 17.354H200.118C199.962 17.906 199.704 18.398 199.344 18.83C198.984 19.25 198.534 19.586 197.994 19.838C197.466 20.09 196.854 20.216 196.158 20.216ZM207.984 20V7.4H209.496V18.794H215.364V20H207.984ZM220.698 20.216C219.954 20.216 219.336 20.09 218.844 19.838C218.364 19.586 218.004 19.25 217.764 18.83C217.524 18.398 217.404 17.93 217.404 17.426C217.404 16.814 217.56 16.298 217.872 15.878C218.196 15.458 218.646 15.14 219.222 14.924C219.81 14.696 220.494 14.582 221.274 14.582H223.686C223.686 14.018 223.596 13.55 223.416 13.178C223.248 12.806 222.996 12.524 222.66 12.332C222.324 12.14 221.916 12.044 221.436 12.044C220.86 12.044 220.356 12.194 219.924 12.494C219.504 12.782 219.246 13.202 219.15 13.754H217.602C217.674 13.118 217.89 12.578 218.25 12.134C218.622 11.69 219.09 11.354 219.654 11.126C220.218 10.886 220.812 10.766 221.436 10.766C222.264 10.766 222.954 10.922 223.506 11.234C224.07 11.534 224.49 11.96 224.766 12.512C225.054 13.052 225.198 13.694 225.198 14.438V20H223.848L223.758 18.398C223.638 18.65 223.482 18.89 223.29 19.118C223.11 19.334 222.894 19.526 222.642 19.694C222.402 19.85 222.12 19.976 221.796 20.072C221.472 20.168 221.106 20.216 220.698 20.216ZM220.932 18.938C221.364 18.938 221.748 18.854 222.084 18.686C222.42 18.506 222.708 18.266 222.948 17.966C223.2 17.666 223.386 17.33 223.506 16.958C223.626 16.574 223.686 16.184 223.686 15.788V15.752H221.4C220.824 15.752 220.356 15.824 219.996 15.968C219.636 16.1 219.378 16.286 219.222 16.526C219.066 16.766 218.988 17.042 218.988 17.354C218.988 17.678 219.06 17.96 219.204 18.2C219.36 18.44 219.582 18.626 219.87 18.758C220.158 18.878 220.512 18.938 220.932 18.938ZM227.862 20V10.982H229.23L229.32 12.584C229.608 12.02 230.022 11.576 230.562 11.252C231.102 10.928 231.714 10.766 232.398 10.766C233.094 10.766 233.7 10.91 234.216 11.198C234.732 11.474 235.134 11.9 235.422 12.476C235.71 13.052 235.854 13.778 235.854 14.654V20H234.342V14.816C234.342 13.904 234.144 13.22 233.748 12.764C233.352 12.296 232.788 12.062 232.056 12.062C231.54 12.062 231.078 12.188 230.67 12.44C230.274 12.692 229.956 13.052 229.716 13.52C229.488 13.988 229.374 14.564 229.374 15.248V20H227.862ZM242.554 20.216C241.702 20.216 240.946 20.024 240.286 19.64C239.626 19.244 239.104 18.692 238.72 17.984C238.348 17.264 238.162 16.436 238.162 15.5C238.162 14.54 238.348 13.712 238.72 13.016C239.092 12.308 239.608 11.756 240.268 11.36C240.94 10.964 241.714 10.766 242.59 10.766C243.466 10.766 244.216 10.964 244.84 11.36C245.464 11.756 245.938 12.272 246.262 12.908C246.598 13.544 246.766 14.24 246.766 14.996C246.766 15.116 246.766 15.248 246.766 15.392C246.766 15.524 246.76 15.674 246.748 15.842H239.296V14.672H245.272C245.236 13.844 244.96 13.202 244.444 12.746C243.94 12.278 243.31 12.044 242.554 12.044C242.038 12.044 241.558 12.164 241.114 12.404C240.67 12.632 240.31 12.968 240.034 13.412C239.77 13.856 239.638 14.414 239.638 15.086V15.59C239.638 16.322 239.776 16.94 240.052 17.444C240.328 17.948 240.688 18.326 241.132 18.578C241.576 18.818 242.05 18.938 242.554 18.938C243.178 18.938 243.694 18.8 244.102 18.524C244.522 18.236 244.828 17.846 245.02 17.354H246.514C246.358 17.906 246.1 18.398 245.74 18.83C245.38 19.25 244.93 19.586 244.39 19.838C243.862 20.09 243.25 20.216 242.554 20.216Z" fill="black"/>
<path d="M16.034 20V8.642H12.272V7.4H21.308V8.642H17.546V20H16.034ZM22.4223 20V10.982H23.7903L23.9163 12.71C24.1083 12.302 24.3603 11.954 24.6723 11.666C24.9963 11.378 25.3803 11.156 25.8243 11C26.2683 10.844 26.7723 10.766 27.3363 10.766V12.35H26.8503C26.4543 12.35 26.0763 12.404 25.7163 12.512C25.3683 12.608 25.0563 12.77 24.7803 12.998C24.5163 13.226 24.3063 13.538 24.1503 13.934C24.0063 14.318 23.9343 14.804 23.9343 15.392V20H22.4223ZM32.3617 20.216C31.6177 20.216 30.9997 20.09 30.5077 19.838C30.0277 19.586 29.6677 19.25 29.4277 18.83C29.1877 18.398 29.0677 17.93 29.0677 17.426C29.0677 16.814 29.2237 16.298 29.5357 15.878C29.8597 15.458 30.3097 15.14 30.8857 14.924C31.4737 14.696 32.1577 14.582 32.9377 14.582H35.3497C35.3497 14.018 35.2597 13.55 35.0797 13.178C34.9117 12.806 34.6597 12.524 34.3237 12.332C33.9877 12.14 33.5797 12.044 33.0997 12.044C32.5237 12.044 32.0197 12.194 31.5877 12.494C31.1677 12.782 30.9097 13.202 30.8137 13.754H29.2657C29.3377 13.118 29.5537 12.578 29.9137 12.134C30.2857 11.69 30.7537 11.354 31.3177 11.126C31.8817 10.886 32.4757 10.766 33.0997 10.766C33.9277 10.766 34.6177 10.922 35.1697 11.234C35.7337 11.534 36.1537 11.96 36.4297 12.512C36.7177 13.052 36.8617 13.694 36.8617 14.438V20H35.5117L35.4217 18.398C35.3017 18.65 35.1457 18.89 34.9537 19.118C34.7737 19.334 34.5577 19.526 34.3057 19.694C34.0657 19.85 33.7837 19.976 33.4597 20.072C33.1357 20.168 32.7697 20.216 32.3617 20.216ZM32.5957 18.938C33.0277 18.938 33.4117 18.854 33.7477 18.686C34.0837 18.506 34.3717 18.266 34.6117 17.966C34.8637 17.666 35.0497 17.33 35.1697 16.958C35.2897 16.574 35.3497 16.184 35.3497 15.788V15.752H33.0637C32.4877 15.752 32.0197 15.824 31.6597 15.968C31.2997 16.1 31.0417 16.286 30.8857 16.526C30.7297 16.766 30.6517 17.042 30.6517 17.354C30.6517 17.678 30.7237 17.96 30.8677 18.2C31.0237 18.44 31.2457 18.626 31.5337 18.758C31.8217 18.878 32.1757 18.938 32.5957 18.938ZM41.8011 20L38.3811 10.982H39.9651L42.6831 18.542L45.4011 10.982H46.9491L43.5471 20H41.8011ZM52.5476 20.216C51.6956 20.216 50.9396 20.024 50.2796 19.64C49.6196 19.244 49.0976 18.692 48.7136 17.984C48.3416 17.264 48.1556 16.436 48.1556 15.5C48.1556 14.54 48.3416 13.712 48.7136 13.016C49.0856 12.308 49.6016 11.756 50.2616 11.36C50.9336 10.964 51.7076 10.766 52.5836 10.766C53.4596 10.766 54.2096 10.964 54.8336 11.36C55.4576 11.756 55.9316 12.272 56.2556 12.908C56.5916 13.544 56.7596 14.24 56.7596 14.996C56.7596 15.116 56.7596 15.248 56.7596 15.392C56.7596 15.524 56.7536 15.674 56.7416 15.842H49.2896V14.672H55.2656C55.2296 13.844 54.9536 13.202 54.4376 12.746C53.9336 12.278 53.3036 12.044 52.5476 12.044C52.0316 12.044 51.5516 12.164 51.1076 12.404C50.6636 12.632 50.3036 12.968 50.0276 13.412C49.7636 13.856 49.6316 14.414 49.6316 15.086V15.59C49.6316 16.322 49.7696 16.94 50.0456 17.444C50.3216 17.948 50.6816 18.326 51.1256 18.578C51.5696 18.818 52.0436 18.938 52.5476 18.938C53.1716 18.938 53.6876 18.8 54.0956 18.524C54.5156 18.236 54.8216 17.846 55.0136 17.354H56.5076C56.3516 17.906 56.0936 18.398 55.7336 18.83C55.3736 19.25 54.9236 19.586 54.3836 19.838C53.8556 20.09 53.2436 20.216 52.5476 20.216ZM59.1416 20V7.04H60.6536V20H59.1416ZM68.7407 20V7.4H70.2527V18.794H76.1207V20H68.7407ZM81.4553 20.216C80.7113 20.216 80.0933 20.09 79.6013 19.838C79.1213 19.586 78.7613 19.25 78.5213 18.83C78.2813 18.398 78.1613 17.93 78.1613 17.426C78.1613 16.814 78.3173 16.298 78.6293 15.878C78.9533 15.458 79.4033 15.14 79.9793 14.924C80.5673 14.696 81.2513 14.582 82.0313 14.582H84.4433C84.4433 14.018 84.3533 13.55 84.1733 13.178C84.0053 12.806 83.7533 12.524 83.4173 12.332C83.0813 12.14 82.6733 12.044 82.1933 12.044C81.6173 12.044 81.1133 12.194 80.6813 12.494C80.2613 12.782 80.0033 13.202 79.9073 13.754H78.3593C78.4313 13.118 78.6473 12.578 79.0073 12.134C79.3793 11.69 79.8473 11.354 80.4113 11.126C80.9753 10.886 81.5693 10.766 82.1933 10.766C83.0213 10.766 83.7113 10.922 84.2633 11.234C84.8273 11.534 85.2473 11.96 85.5233 12.512C85.8113 13.052 85.9553 13.694 85.9553 14.438V20H84.6053L84.5153 18.398C84.3953 18.65 84.2393 18.89 84.0473 19.118C83.8673 19.334 83.6513 19.526 83.3993 19.694C83.1593 19.85 82.8773 19.976 82.5533 20.072C82.2293 20.168 81.8633 20.216 81.4553 20.216ZM81.6893 18.938C82.1213 18.938 82.5053 18.854 82.8413 18.686C83.1773 18.506 83.4653 18.266 83.7053 17.966C83.9573 17.666 84.1433 17.33 84.2633 16.958C84.3833 16.574 84.4433 16.184 84.4433 15.788V15.752H82.1573C81.5813 15.752 81.1133 15.824 80.7533 15.968C80.3933 16.1 80.1353 16.286 79.9793 16.526C79.8233 16.766 79.7453 17.042 79.7453 17.354C79.7453 17.678 79.8173 17.96 79.9613 18.2C80.1173 18.44 80.3393 18.626 80.6273 18.758C80.9153 18.878 81.2693 18.938 81.6893 18.938ZM88.6187 20V10.982H89.9867L90.0767 12.584C90.3647 12.02 90.7787 11.576 91.3187 11.252C91.8587 10.928 92.4707 10.766 93.1547 10.766C93.8507 10.766 94.4567 10.91 94.9727 11.198C95.4887 11.474 95.8907 11.9 96.1787 12.476C96.4667 13.052 96.6107 13.778 96.6107 14.654V20H95.0987V14.816C95.0987 13.904 94.9007 13.22 94.5047 12.764C94.1087 12.296 93.5447 12.062 92.8127 12.062C92.2967 12.062 91.8347 12.188 91.4267 12.44C91.0307 12.692 90.7127 13.052 90.4727 13.52C90.2447 13.988 90.1307 14.564 90.1307 15.248V20H88.6187ZM103.311 20.216C102.459 20.216 101.703 20.024 101.043 19.64C100.383 19.244 99.8611 18.692 99.4771 17.984C99.1051 17.264 98.9191 16.436 98.9191 15.5C98.9191 14.54 99.1051 13.712 99.4771 13.016C99.8491 12.308 100.365 11.756 101.025 11.36C101.697 10.964 102.471 10.766 103.347 10.766C104.223 10.766 104.973 10.964 105.597 11.36C106.221 11.756 106.695 12.272 107.019 12.908C107.355 13.544 107.523 14.24 107.523 14.996C107.523 15.116 107.523 15.248 107.523 15.392C107.523 15.524 107.517 15.674 107.505 15.842H100.053V14.672H106.029C105.993 13.844 105.717 13.202 105.201 12.746C104.697 12.278 104.067 12.044 103.311 12.044C102.795 12.044 102.315 12.164 101.871 12.404C101.427 12.632 101.067 12.968 100.791 13.412C100.527 13.856 100.395 14.414 100.395 15.086V15.59C100.395 16.322 100.533 16.94 100.809 17.444C101.085 17.948 101.445 18.326 101.889 18.578C102.333 18.818 102.807 18.938 103.311 18.938C103.935 18.938 104.451 18.8 104.859 18.524C105.279 18.236 105.585 17.846 105.777 17.354H107.271C107.115 17.906 106.857 18.398 106.497 18.83C106.137 19.25 105.687 19.586 105.147 19.838C104.619 20.09 104.007 20.216 103.311 20.216Z" fill="black"/>
<rect x="2" y="36" width="423" height="375" fill="#9595A5"/>
<path d="M214.702 113.694H205.293V97.3163H197.704L209.997 81.2666L222.291 97.3163H214.702V113.694Z" fill="#F9F9F9"/>
<path d="M225.718 208.835C223.497 208.835 221.326 207.745 219.48 205.704C217.633 203.662 216.194 200.76 215.344 197.365C214.494 193.97 214.271 190.235 214.705 186.631C215.138 183.027 216.207 179.716 217.778 177.118C219.348 174.519 221.349 172.75 223.528 172.033C225.706 171.316 227.964 171.684 230.016 173.09C232.068 174.496 233.821 176.878 235.055 179.933C236.289 182.988 236.948 186.581 236.948 190.255C236.944 195.181 235.76 199.904 233.655 203.387C231.55 206.87 228.696 208.829 225.718 208.835ZM225.718 177.621C224.208 177.621 222.732 178.362 221.476 179.75C220.22 181.139 219.242 183.112 218.664 185.42C218.086 187.729 217.934 190.269 218.229 192.72C218.524 195.171 219.251 197.422 220.319 199.189C221.387 200.956 222.747 202.159 224.229 202.647C225.71 203.134 227.245 202.884 228.641 201.928C230.036 200.971 231.228 199.352 232.067 197.274C232.907 195.197 233.354 192.754 233.354 190.255C233.352 186.906 232.547 183.694 231.115 181.326C229.684 178.957 227.743 177.625 225.718 177.621ZM205.505 190.255C205.505 193.93 204.847 197.522 203.613 200.578C202.379 203.633 200.625 206.014 198.573 207.421C196.521 208.827 194.264 209.195 192.085 208.478C189.907 207.761 187.906 205.991 186.336 203.393C184.765 200.795 183.696 197.484 183.262 193.88C182.829 190.276 183.051 186.54 183.901 183.145C184.751 179.75 186.191 176.849 188.037 174.807C189.884 172.765 192.055 171.676 194.276 171.676C197.253 171.681 200.107 173.641 202.213 177.124C204.318 180.607 205.502 185.329 205.505 190.255ZM194.276 177.621C192.766 177.621 191.289 178.362 190.034 179.75C188.778 181.139 187.799 183.112 187.221 185.42C186.643 187.729 186.492 190.269 186.787 192.72C187.081 195.171 187.809 197.422 188.877 199.189C189.944 200.956 191.305 202.159 192.786 202.647C194.268 203.134 195.803 202.884 197.198 201.928C198.593 200.971 199.786 199.352 200.625 197.274C201.464 195.197 201.912 192.754 201.912 190.255C201.91 186.906 201.104 183.694 199.673 181.326C198.241 178.957 196.3 177.625 194.276 177.621Z" fill="#F9F9F9"/>
<path d="M203.045 145.696C200.931 145.696 199.217 142.861 199.217 139.363C199.217 135.865 200.931 133.029 203.045 133.029C205.159 133.029 206.873 135.865 206.873 139.363C206.873 142.861 205.159 145.696 203.045 145.696Z" fill="#F9F9F9"/>
<path d="M217.302 171.359L211.794 180.35V196.943H208.201V179.728C208.202 179.138 208.273 178.553 208.411 178.009C208.548 177.464 208.75 176.97 209.003 176.554L214.761 167.155L207.299 154.808L200.767 165.873C200.515 166.297 200.215 166.634 199.884 166.864C199.553 167.095 199.198 167.214 198.839 167.216H195.624V161.27H198.461L208.846 143.678L208.9 143.764L209.843 142.203L222.42 163.012L217.338 171.42L217.302 171.359Z" fill="#F9F9F9"/>
<rect x="259.25" y="36" width="7.5" height="375" fill="white"/>
<g filter="url(#filter0_d_5907_19916)">
<path d="M320.189 233.25H348.544C365.895 233.25 379.983 247.338 379.983 264.689V373.963C379.983 386.966 369.426 397.529 356.417 397.529H312.31C299.308 397.529 288.745 386.972 288.745 373.963V264.689C288.751 247.338 302.839 233.25 320.189 233.25Z" fill="#B9D950"/>
<path d="M389.527 298.256C390.515 295.967 388.222 292.775 384.405 291.128C380.588 289.481 376.693 290.002 375.705 292.292C374.717 294.581 377.01 297.773 380.827 299.42C384.644 301.067 388.539 300.546 389.527 298.256Z" fill="#B9D950"/>
<path d="M287.739 300.958C291.556 299.311 293.849 296.119 292.861 293.83C291.873 291.54 287.978 291.019 284.161 292.666C280.344 294.313 278.051 297.504 279.039 299.794C280.027 302.084 283.922 302.605 287.739 300.958Z" fill="#B9D950"/>
<path d="M323.195 241.619H345.532C362.883 241.619 376.971 255.707 376.971 273.058V364.702C376.971 377.704 366.413 388.267 353.405 388.267H315.316C302.314 388.267 291.75 377.71 291.75 364.702V273.058C291.75 255.707 305.839 241.619 323.189 241.619H323.195Z" fill="#D5FA5D"/>
<path d="M317.088 281.551H351.646C363.873 281.551 373.798 291.476 373.798 303.703V352.403C373.798 360.282 367.398 366.681 359.519 366.681H309.209C301.33 366.681 294.93 360.282 294.93 352.403V303.703C294.93 291.476 304.855 281.551 317.082 281.551H317.088Z" fill="#86CFED"/>
<path d="M365.018 308.921H303.721V353.219H365.018V308.921Z" fill="#D5FA5D"/>
<path d="M306.77 309.889L294.332 295.555L291.989 297.587L304.428 311.922L306.77 309.889Z" fill="#D5FA5D"/>
<path d="M364.404 312.164L376.237 298.527L373.894 296.495L362.061 310.131L364.404 312.164Z" fill="#D5FA5D"/>
<path d="M295.108 365.424L308.375 350.135L306.033 348.102L292.765 363.391L295.108 365.424Z" fill="#D5FA5D"/>
<path d="M375.738 363.348L362.471 348.059L360.128 350.091L373.396 365.381L375.738 363.348Z" fill="#D5FA5D"/>
</g>
<g filter="url(#filter1_d_5907_19916)">
<path d="M49.4392 154.5H77.7942C95.1448 154.5 109.233 168.588 109.233 185.939V295.213C109.233 308.216 98.6758 318.779 85.6673 318.779H41.5602C28.5577 318.779 17.9946 308.222 17.9946 295.213V185.939C18.0006 168.588 32.0886 154.5 49.4392 154.5Z" fill="#272727"/>
<path d="M118.777 219.506C119.765 217.217 117.472 214.025 113.655 212.378C109.838 210.731 105.943 211.252 104.955 213.542C103.967 215.831 106.26 219.023 110.077 220.67C113.894 222.317 117.789 221.796 118.777 219.506Z" fill="#272727"/>
<path d="M16.9888 222.208C20.8058 220.561 23.0991 217.369 22.1112 215.08C21.1233 212.79 17.2281 212.269 13.4112 213.916C9.59425 215.563 7.30088 218.754 8.28882 221.044C9.27676 223.334 13.1719 223.855 16.9888 222.208Z" fill="#272727"/>
<path d="M52.4451 162.869H74.782C92.1325 162.869 106.221 176.957 106.221 194.308V285.952C106.221 298.954 95.6635 309.517 82.655 309.517H44.566C31.5635 309.517 21.0005 298.96 21.0005 285.952V194.308C21.0005 176.957 35.0885 162.869 52.4391 162.869H52.4451Z" fill="#3F3F3F"/>
<path d="M46.3376 202.801H80.8957C93.1228 202.801 103.048 212.726 103.048 224.953V273.653C103.048 281.532 96.6478 287.931 88.7687 287.931H38.4586C30.5795 287.931 24.1797 281.532 24.1797 273.653V224.953C24.1797 212.726 34.1045 202.801 46.3317 202.801H46.3376Z" fill="#86CFED"/>
<path d="M94.2679 230.171H32.9712V274.469H94.2679V230.171Z" fill="#3F3F3F"/>
<path d="M36.0203 231.139L23.5815 216.805L21.239 218.837L33.6778 233.172L36.0203 231.139Z" fill="#3F3F3F"/>
<path d="M93.654 233.414L105.487 219.777L103.144 217.745L91.3114 231.381L93.654 233.414Z" fill="#3F3F3F"/>
<path d="M24.358 286.674L37.6255 271.385L35.283 269.352L22.0155 284.641L24.358 286.674Z" fill="#3F3F3F"/>
<path d="M104.988 284.598L91.7207 269.309L89.3782 271.341L102.646 286.631L104.988 284.598Z" fill="#3F3F3F"/>
</g>
<g clip-path="url(#clip0_5907_19916)" filter="url(#filter2_d_5907_19916)">
<path d="M210.107 314.303V328.403" stroke="#9AB445" stroke-width="3.05623"/>
<path d="M210.845 339.658H209.373C207.707 339.658 206.356 341.009 206.356 342.675V364.771C206.356 366.437 207.707 367.788 209.373 367.788H210.845C212.511 367.788 213.862 366.437 213.862 364.771V342.675C213.862 341.009 212.511 339.658 210.845 339.658Z" fill="#62657A"/>
<path d="M224.189 320.21L219.935 310.479C219.348 309.135 217.782 308.521 216.438 309.109L216.434 309.11C215.09 309.698 214.477 311.264 215.064 312.608L219.318 322.339C219.905 323.683 221.471 324.297 222.815 323.709L222.819 323.707C224.163 323.12 224.776 321.554 224.189 320.21Z" fill="#171759"/>
<path d="M224.237 317.29L220.689 318.841C219.345 319.428 218.732 320.994 219.319 322.338L219.321 322.342C219.908 323.686 221.474 324.299 222.818 323.712L226.366 322.161C227.71 321.573 228.324 320.007 227.736 318.663L227.735 318.66C227.147 317.315 225.581 316.702 224.237 317.29Z" fill="#171759"/>
<path d="M200.325 322.341L204.578 312.61C205.166 311.265 204.552 309.7 203.208 309.112L203.205 309.11C201.861 308.523 200.295 309.136 199.707 310.48L195.454 320.212C194.866 321.556 195.48 323.122 196.824 323.709L196.827 323.711C198.171 324.298 199.737 323.685 200.325 322.341Z" fill="#171759"/>
<path d="M193.282 322.158L196.83 323.709C198.174 324.296 199.74 323.683 200.327 322.339L200.329 322.335C200.917 320.991 200.303 319.425 198.959 318.838L195.411 317.287C194.067 316.699 192.501 317.313 191.913 318.657L191.912 318.66C191.324 320.004 191.938 321.57 193.282 322.158Z" fill="#171759"/>
<path d="M209.75 313.828C223.47 313.828 234.593 302.706 234.593 288.986C234.593 275.266 223.47 264.144 209.75 264.144C196.03 264.144 184.908 275.266 184.908 288.986C184.908 302.706 196.03 313.828 209.75 313.828Z" fill="#62657A"/>
<path opacity="0.43" d="M209.75 302.486C217.206 302.486 223.25 296.442 223.25 288.986C223.25 281.53 217.206 275.486 209.75 275.486C202.295 275.486 196.25 281.53 196.25 288.986C196.25 296.442 202.295 302.486 209.75 302.486Z" stroke="#D3D3DD" stroke-width="1.96164" stroke-miterlimit="10"/>
<path opacity="0.43" d="M209.75 299.293C215.442 299.293 220.057 294.678 220.057 288.986C220.057 283.294 215.442 278.68 209.75 278.68C204.058 278.68 199.444 283.294 199.444 288.986C199.444 294.678 204.058 299.293 209.75 299.293Z" fill="#D3D3DD"/>
<path opacity="0.2" d="M234.593 288.986C234.593 302.705 223.47 313.828 209.75 313.828C202.739 313.828 196.411 310.925 191.896 306.252C195.732 308.677 200.276 310.081 205.148 310.081C218.868 310.081 229.987 298.959 229.987 285.239C229.987 278.53 227.331 272.441 223.003 267.973C229.967 272.371 234.593 280.139 234.593 288.986Z" fill="#3D3D60"/>
<path d="M232.23 289.728C231.854 301.023 223.148 310.207 212.057 311.333" stroke="#4E4E68" stroke-width="1.96164" stroke-miterlimit="10" stroke-linecap="round"/>
<path d="M228.821 291.203C227.915 298.991 222.347 305.354 214.983 307.434" stroke="#4E4E68" stroke-width="1.96164" stroke-miterlimit="10" stroke-linecap="round"/>
<path d="M187.273 288.245C187.65 276.95 196.356 267.766 207.447 266.64" stroke="#4E4E68" stroke-width="1.96164" stroke-miterlimit="10" stroke-linecap="round"/>
<path d="M190.683 286.77C191.589 278.982 197.156 272.618 204.52 270.539" stroke="#4E4E68" stroke-width="1.96164" stroke-miterlimit="10" stroke-linecap="round"/>
<path d="M214.948 311.533H205.27C203.389 311.533 201.864 313.058 201.864 314.939V314.943C201.864 316.823 203.389 318.348 205.27 318.348H214.948C216.829 318.348 218.354 316.823 218.354 314.943V314.939C218.354 313.058 216.829 311.533 214.948 311.533Z" fill="#FCD579"/>
<path d="M210.107 322.51C212.685 322.51 214.78 324.605 214.78 327.182V344.923H205.435V327.182C205.435 324.605 207.53 322.51 210.107 322.51Z" fill="#BBD567"/>
<path d="M210.845 339.658H209.373C207.707 339.658 206.356 341.009 206.356 342.675V364.771C206.356 366.437 207.707 367.788 209.373 367.788H210.845C212.511 367.788 213.862 366.437 213.862 364.771V342.675C213.862 341.009 212.511 339.658 210.845 339.658Z" fill="#62657A"/>
<path d="M210.107 322.51C212.685 322.51 214.78 324.605 214.78 327.182V344.923H205.435V327.182C205.435 324.605 207.53 322.51 210.107 322.51Z" fill="#BBD567"/>
<path d="M233.714 287.879C226.852 288.907 218.817 289.66 209.836 289.664C200.782 289.668 192.688 288.911 185.787 287.879C185.642 287.879 184.873 287.863 184.253 287.279C183.86 286.906 183.613 286.396 183.613 285.831V282.535C183.613 281.409 184.59 280.487 185.787 280.487H233.714C234.906 280.487 235.887 281.409 235.887 282.535V285.831C235.887 286.957 234.91 287.879 233.714 287.879Z" fill="#312A4C"/>
<path d="M184.951 284.183C183.672 284.183 182.648 283.104 182.758 281.837C183.97 268.145 195.681 257.25 209.75 257.25C223.819 257.25 235.53 268.145 236.742 281.837C236.856 283.1 235.828 284.183 234.549 284.183H184.951Z" fill="#FF525F"/>
</g>
<g filter="url(#filter3_d_5907_19916)">
<path d="M320.189 54H348.544C365.895 54 379.983 68.088 379.983 85.4386V194.713C379.983 207.716 369.426 218.279 356.417 218.279H312.31C299.308 218.279 288.745 207.722 288.745 194.713V85.4386C288.751 68.088 302.839 54 320.189 54Z" fill="#F76626"/>
<path d="M389.527 119.006C390.515 116.717 388.222 113.525 384.405 111.878C380.588 110.231 376.693 110.752 375.705 113.042C374.717 115.331 377.01 118.523 380.827 120.17C384.644 121.817 388.539 121.296 389.527 119.006Z" fill="#F76626"/>
<path d="M287.739 121.708C291.556 120.061 293.849 116.869 292.861 114.58C291.873 112.29 287.978 111.769 284.161 113.416C280.344 115.063 278.051 118.254 279.039 120.544C280.027 122.834 283.922 123.355 287.739 121.708Z" fill="#F76626"/>
<path d="M323.195 62.3691H345.532C362.883 62.3691 376.971 76.4572 376.971 93.8078V185.452C376.971 198.454 366.413 209.017 353.405 209.017H315.316C302.314 209.017 291.75 198.46 291.75 185.452V93.8078C291.75 76.4572 305.839 62.3691 323.189 62.3691H323.195Z" fill="#FC8332"/>
<path d="M317.088 102.301H351.646C363.873 102.301 373.798 112.226 373.798 124.453V173.153C373.798 181.032 367.398 187.431 359.519 187.431H309.209C301.33 187.431 294.93 181.032 294.93 173.153V124.453C294.93 112.226 304.855 102.301 317.082 102.301H317.088Z" fill="#B4DEEF"/>
<path d="M365.018 129.671H303.721V173.969H365.018V129.671Z" fill="#FC8332"/>
<path d="M306.77 130.639L294.332 116.305L291.989 118.337L304.428 132.672L306.77 130.639Z" fill="#FC8332"/>
<path d="M364.404 132.914L376.237 119.277L373.894 117.245L362.061 130.881L364.404 132.914Z" fill="#FC8332"/>
<path d="M295.108 186.174L308.375 170.885L306.033 168.852L292.765 184.141L295.108 186.174Z" fill="#FC8332"/>
<path d="M375.738 184.098L362.471 168.809L360.128 170.841L373.396 186.131L375.738 184.098Z" fill="#FC8332"/>
</g>
<rect x="145.25" y="36" width="12" height="375" fill="white"/>
<circle cx="121.25" cy="243.75" r="36.75" fill="#FF3939" fill-opacity="0.2" stroke="#ED3B23" stroke-width="1.5"/>
<path d="M115.157 251V236.3H121.205C122.213 236.3 123.067 236.461 123.767 236.783C124.467 237.105 124.999 237.553 125.363 238.127C125.727 238.687 125.909 239.338 125.909 240.08C125.909 240.822 125.748 241.445 125.426 241.949C125.104 242.453 124.677 242.845 124.145 243.125C123.613 243.391 123.039 243.545 122.423 243.587L122.759 243.356C123.431 243.384 124.026 243.566 124.544 243.902C125.076 244.224 125.489 244.658 125.783 245.204C126.091 245.75 126.245 246.345 126.245 246.989C126.245 247.773 126.056 248.466 125.678 249.068C125.3 249.67 124.747 250.146 124.019 250.496C123.305 250.832 122.43 251 121.394 251H115.157ZM117.992 248.69H120.953C121.723 248.69 122.318 248.515 122.738 248.165C123.158 247.815 123.368 247.311 123.368 246.653C123.368 245.995 123.151 245.484 122.717 245.12C122.283 244.742 121.681 244.553 120.911 244.553H117.992V248.69ZM117.992 242.432H120.743C121.471 242.432 122.031 242.264 122.423 241.928C122.815 241.592 123.011 241.116 123.011 240.5C123.011 239.898 122.815 239.429 122.423 239.093C122.031 238.743 121.457 238.568 120.701 238.568H117.992V242.432Z" fill="white"/>
<circle cx="288.5" cy="148.5" r="36.75" fill="#FF3939" fill-opacity="0.2" stroke="#ED3B23" stroke-width="1.5"/>
<path d="M281.462 155.75L286.838 141.05H290.051L295.406 155.75H292.403L288.413 144.284L284.423 155.75H281.462ZM283.835 152.411L284.57 150.206H292.067L292.802 152.411H283.835Z" fill="white"/>
<circle cx="382.25" cy="325.5" r="36.75" fill="#FF3939" fill-opacity="0.2" stroke="#ED3B23" stroke-width="1.5"/>
<path d="M382.814 333.002C381.344 333.002 380.077 332.687 379.013 332.057C377.949 331.413 377.13 330.524 376.556 329.39C375.982 328.242 375.695 326.919 375.695 325.421C375.695 323.923 375.982 322.6 376.556 321.452C377.13 320.304 377.949 319.408 379.013 318.764C380.077 318.12 381.344 317.798 382.814 317.798C384.606 317.798 386.069 318.239 387.203 319.121C388.337 320.003 389.044 321.249 389.324 322.859H386.216C386.034 322.075 385.656 321.466 385.082 321.032C384.508 320.584 383.745 320.36 382.793 320.36C381.911 320.36 381.155 320.57 380.525 320.99C379.895 321.396 379.412 321.977 379.076 322.733C378.754 323.475 378.593 324.371 378.593 325.421C378.593 326.457 378.754 327.353 379.076 328.109C379.412 328.865 379.895 329.446 380.525 329.852C381.155 330.258 381.911 330.461 382.793 330.461C383.745 330.461 384.508 330.258 385.082 329.852C385.656 329.432 386.034 328.851 386.216 328.109H389.324C389.058 329.635 388.351 330.832 387.203 331.7C386.069 332.568 384.606 333.002 382.814 333.002Z" fill="white"/>
<defs>
<filter id="filter0_d_5907_19916" x="271.31" y="229.5" width="125.947" height="179.279" filterUnits="userSpaceOnUse" color-interpolation-filters="sRGB">
<feFlood flood-opacity="0" result="BackgroundImageFix"/>
<feColorMatrix in="SourceAlpha" type="matrix" values="0 0 0 0 0 0 0 0 0 0 0 0 0 0 0 0 0 0 127 0" result="hardAlpha"/>
<feOffset dy="3.75"/>
<feGaussianBlur stdDeviation="3.75"/>
<feColorMatrix type="matrix" values="0 0 0 0 0 0 0 0 0 0 0 0 0 0 0 0 0 0 0.15 0"/>
<feBlend mode="normal" in2="BackgroundImageFix" result="effect1_dropShadow_5907_19916"/>
<feBlend mode="normal" in="SourceGraphic" in2="effect1_dropShadow_5907_19916" result="shape"/>
</filter>
<filter id="filter1_d_5907_19916" x="0.55957" y="150.75" width="125.947" height="179.279" filterUnits="userSpaceOnUse" color-interpolation-filters="sRGB">
<feFlood flood-opacity="0" result="BackgroundImageFix"/>
<feColorMatrix in="SourceAlpha" type="matrix" values="0 0 0 0 0 0 0 0 0 0 0 0 0 0 0 0 0 0 127 0" result="hardAlpha"/>
<feOffset dy="3.75"/>
<feGaussianBlur stdDeviation="3.75"/>
<feColorMatrix type="matrix" values="0 0 0 0 0 0 0 0 0 0 0 0 0 0 0 0 0 0 0.15 0"/>
<feBlend mode="normal" in2="BackgroundImageFix" result="effect1_dropShadow_5907_19916"/>
<feBlend mode="normal" in="SourceGraphic" in2="effect1_dropShadow_5907_19916" result="shape"/>
</filter>
<filter id="filter2_d_5907_19916" x="175.25" y="253.5" width="69" height="125.538" filterUnits="userSpaceOnUse" color-interpolation-filters="sRGB">
<feFlood flood-opacity="0" result="BackgroundImageFix"/>
<feColorMatrix in="SourceAlpha" type="matrix" values="0 0 0 0 0 0 0 0 0 0 0 0 0 0 0 0 0 0 127 0" result="hardAlpha"/>
<feOffset dy="3.75"/>
<feGaussianBlur stdDeviation="3.75"/>
<feColorMatrix type="matrix" values="0 0 0 0 0 0 0 0 0 0 0 0 0 0 0 0 0 0 0.15 0"/>
<feBlend mode="normal" in2="BackgroundImageFix" result="effect1_dropShadow_5907_19916"/>
<feBlend mode="normal" in="SourceGraphic" in2="effect1_dropShadow_5907_19916" result="shape"/>
</filter>
<filter id="filter3_d_5907_19916" x="271.31" y="50.25" width="125.947" height="179.279" filterUnits="userSpaceOnUse" color-interpolation-filters="sRGB">
<feFlood flood-opacity="0" result="BackgroundImageFix"/>
<feColorMatrix in="SourceAlpha" type="matrix" values="0 0 0 0 0 0 0 0 0 0 0 0 0 0 0 0 0 0 127 0" result="hardAlpha"/>
<feOffset dy="3.75"/>
<feGaussianBlur stdDeviation="3.75"/>
<feColorMatrix type="matrix" values="0 0 0 0 0 0 0 0 0 0 0 0 0 0 0 0 0 0 0.15 0"/>
<feBlend mode="normal" in2="BackgroundImageFix" result="effect1_dropShadow_5907_19916"/>
<feBlend mode="normal" in="SourceGraphic" in2="effect1_dropShadow_5907_19916" result="shape"/>
</filter>
<clipPath id="clip0_5907_19916">
<rect width="54" height="110.538" fill="white" transform="translate(182.75 257.25)"/>
</clipPath>
</defs>
</svg>
