<svg width="69" height="69" viewBox="0 0 69 69" fill="none" xmlns="http://www.w3.org/2000/svg">
<g clip-path="url(#clip0_1615_2083)">
<path fill-rule="evenodd" clip-rule="evenodd" d="M36.1759 16.22C33.5865 16.8996 31.3323 18.497 29.8328 20.7148C29.5665 21.131 29.2195 21.4896 28.8123 21.7694C28.405 22.0492 27.9458 22.2445 27.4618 22.3438C26.9777 22.443 26.4787 22.4443 25.9942 22.3474C25.5097 22.2505 25.0495 22.0574 24.6409 21.7796C24.2323 21.5018 23.8835 21.1449 23.6152 20.73C23.3469 20.3151 23.1645 19.8506 23.0788 19.364C22.993 18.8774 23.0057 18.3786 23.1161 17.8969C23.2265 17.4153 23.4323 16.9607 23.7214 16.56C25.2181 14.3553 27.1738 12.5003 29.4545 11.1221C31.7353 9.74401 34.287 8.87536 36.9349 8.57574C35.0791 7.55293 32.9224 7.21617 30.8432 7.62453C29.8951 7.7818 28.9231 7.56368 28.1332 7.01641C27.3433 6.46914 26.7975 5.63575 26.6116 4.69291C26.4257 3.75006 26.6144 2.77189 27.1375 1.96576C27.6606 1.15963 28.4771 0.588916 29.4139 0.374603C32.7604 -0.285363 36.2293 0.113727 39.3385 1.51639C42.4477 2.91905 45.0426 5.25559 46.7625 8.20117C49.9944 6.99387 53.5122 6.77472 56.869 7.57156C60.2257 8.36841 63.2698 10.1453 65.6142 12.6763C65.9443 13.0323 66.2011 13.4498 66.3698 13.905C66.5385 14.3602 66.616 14.8442 66.5977 15.3293C66.5794 15.8144 66.4657 16.2912 66.2631 16.7324C66.0606 17.1735 65.7731 17.5705 65.4171 17.9006C65.0611 18.2307 64.6436 18.4874 64.1884 18.6562C63.7332 18.8249 63.2493 18.9023 62.7641 18.884C62.279 18.8657 61.8022 18.752 61.3611 18.5495C60.9199 18.3469 60.5229 18.0594 60.1928 17.7035C58.5372 15.9139 56.2851 14.7905 53.8596 14.5442H53.83C55.5886 16.4494 56.8662 18.7473 57.5563 21.2464C58.2465 23.7455 58.3292 26.3735 57.7975 28.911C57.7008 29.389 57.5104 29.843 57.2374 30.247C56.9644 30.6511 56.6142 30.9971 56.2069 31.2652C55.7996 31.5333 55.3432 31.7181 54.8642 31.8091C54.3851 31.9001 53.8928 31.8953 53.4156 31.7952C52.9384 31.6951 52.4857 31.5015 52.0836 31.2257C51.6815 30.9498 51.3379 30.5972 51.0727 30.188C50.8075 29.7788 50.6259 29.3212 50.5383 28.8415C50.4507 28.3618 50.4589 27.8695 50.5624 27.393C50.9851 25.3729 50.6903 23.2685 49.7286 21.4424C48.7669 19.6162 47.1986 18.1825 45.2937 17.388C43.1892 18.8222 41.4199 21.1781 40.0744 24.4359C38.7338 27.6789 37.9058 31.6267 37.5904 35.9293C40.3426 36.6357 42.9693 37.7628 45.3775 39.2709C49.1972 41.6366 52.5732 44.9387 55.353 48.9309C53.5101 49.3745 51.9081 50.509 50.8778 52.1C50.4507 52.7768 50.0202 53.3337 49.5865 53.7707C48.6556 54.6858 47.4025 55.1985 46.0971 55.1985C44.7917 55.1985 43.5386 54.6858 42.6077 53.7707C42.1991 53.3447 41.8296 52.8829 41.5037 52.3907C39.5963 49.5519 36.2991 48.9358 34.3474 48.9358C32.3957 48.9358 29.0985 49.5519 27.1911 52.3907C26.8652 52.8829 26.4957 53.3447 26.0871 53.7707C25.1562 54.6858 23.903 55.1985 22.5977 55.1985C21.2923 55.1985 20.0392 54.6858 19.1083 53.7707C18.6175 53.2619 18.1829 52.7018 17.812 52.1C15.9885 49.2069 12.7208 48.6007 10.8529 48.6007C9.83761 48.6007 8.43789 48.7781 7.06282 49.3892C9.90168 45.1852 13.3911 41.7302 17.3488 39.2709C21.2205 36.8188 25.6599 35.408 30.237 35.1752C30.6066 30.3551 31.5627 25.6828 33.2434 21.6118C34.0174 19.7111 35.001 17.9026 36.1759 16.22ZM14.2438 56.6293C13.9578 55.961 13.4811 55.3918 12.8733 54.993C12.2655 54.5942 11.5536 54.3835 10.8267 54.3871C10.0997 54.3908 9.39001 54.6088 8.78629 55.0137C8.18258 55.4187 7.71167 55.9926 7.43247 56.6638C7.01122 57.67 6.37251 58.5706 5.56215 59.3008C4.7518 60.0311 3.78988 60.573 2.74539 60.8876C2.28004 61.0258 1.84645 61.2543 1.4694 61.56C1.09235 61.8658 0.779205 62.2428 0.547858 62.6696C0.316511 63.0963 0.171487 63.5645 0.121067 64.0473C0.0706475 64.5301 0.115819 65.0181 0.254002 65.4835C0.392186 65.9489 0.620675 66.3824 0.926425 66.7595C1.23217 67.1365 1.6092 67.4497 2.03596 67.681C2.46273 67.9124 2.93089 68.0574 3.4137 68.1078C3.89652 68.1582 4.38454 68.1131 4.8499 67.9749C7.09552 67.3047 9.14969 66.1104 10.843 64.4904C11.6973 65.325 12.6436 66.0544 13.6819 66.6787C18.8421 69.7738 26.3533 69.7738 31.5135 66.6787C32.543 66.0683 33.4946 65.3351 34.3474 64.4953C35.2017 65.3266 36.1463 66.0544 37.1813 66.6787C42.3415 69.7738 49.8527 69.7738 55.0129 66.6787C56.0512 66.0544 56.9975 65.325 57.8517 64.4904L58.182 64.8009C59.8084 66.2647 61.7453 67.349 63.8449 67.97C64.7723 68.2109 65.757 68.0823 66.5914 67.6113C67.4258 67.1403 68.0447 66.3637 68.3177 65.4452C68.5906 64.5267 68.4962 63.5381 68.0544 62.6879C67.6126 61.8376 66.8579 61.1922 65.9494 60.8876C64.9049 60.573 63.943 60.0311 63.1326 59.3008C62.3223 58.5706 61.6836 57.67 61.2623 56.6638C60.9831 55.9926 60.5122 55.4187 59.9085 55.0137C59.3048 54.6088 58.5951 54.3908 57.8681 54.3871C57.1412 54.3835 56.4293 54.5942 55.8215 54.993C55.2137 55.3918 54.737 55.961 54.451 56.6293C53.7856 58.1756 52.6512 59.4738 51.208 60.3405C48.3889 62.031 43.8004 62.031 40.9862 60.3405C39.5409 59.4764 38.4058 58.1774 37.7432 56.6293C37.4577 55.9654 36.9839 55.3998 36.3804 55.0024C35.7768 54.6049 35.07 54.3931 34.3474 54.3931C33.6247 54.3931 32.9179 54.6049 32.3144 55.0024C31.7109 55.3998 31.2371 55.9654 30.9516 56.6293C30.289 58.1774 29.1539 59.4764 27.7086 60.3405C24.8895 62.031 20.301 62.031 17.4818 60.3405C16.0383 59.4756 14.9051 58.1767 14.2438 56.6293Z" fill="#1C3A29"/>
</g>
<defs>
<clipPath id="clip0_1615_2083">
<rect width="69" height="69" fill="white"/>
</clipPath>
</defs>
</svg>
