<svg width="177" height="179" viewBox="0 0 177 179" fill="none" xmlns="http://www.w3.org/2000/svg">
<path opacity="0.2" d="M80.345 178.708C111.046 178.708 135.934 173.604 135.934 167.308C135.934 161.012 111.046 155.908 80.345 155.908C49.644 155.908 24.7559 161.012 24.7559 167.308C24.7559 173.604 49.644 178.708 80.345 178.708Z" fill="#3D3D60"/>
<path d="M75.7129 158.763L75.7129 128.918C75.7129 124.795 72.3711 121.454 68.2488 121.454L68.2378 121.454C64.1155 121.454 60.7737 124.795 60.7737 128.918L60.7737 158.763C60.7737 162.885 64.1155 166.227 68.2378 166.227L68.2488 166.227C72.3711 166.227 75.7129 162.885 75.7129 158.763Z" fill="#171759"/>
<path d="M57.3572 166.227L68.239 166.227C72.3613 166.227 75.7031 162.885 75.7031 158.763L75.7031 158.752C75.7031 154.63 72.3613 151.288 68.239 151.288L57.3572 151.288C53.2349 151.288 49.8931 154.63 49.8931 158.752L49.8931 158.763C49.8931 162.885 53.2349 166.227 57.3572 166.227Z" fill="#171759"/>
<path d="M99.9258 158.763L99.9258 128.918C99.9258 124.795 96.584 121.454 92.4617 121.454L92.4507 121.454C88.3284 121.454 84.9866 124.795 84.9866 128.918L84.9866 158.763C84.9866 162.885 88.3284 166.227 92.4507 166.227L92.4617 166.227C96.584 166.227 99.9258 162.885 99.9258 158.763Z" fill="#171759"/>
<path d="M103.332 151.299L92.4504 151.299C88.3281 151.299 84.9863 154.641 84.9863 158.763L84.9863 158.774C84.9863 162.896 88.3281 166.238 92.4504 166.238L103.332 166.238C107.455 166.238 110.796 162.896 110.796 158.774L110.796 158.763C110.796 154.641 107.455 151.299 103.332 151.299Z" fill="#171759"/>
<path d="M80.3449 140.462C118.901 140.462 150.157 109.206 150.157 70.6501C150.157 32.0941 118.901 0.838379 80.3449 0.838379C41.789 0.838379 10.5332 32.0941 10.5332 70.6501C10.5332 109.206 41.789 140.462 80.3449 140.462Z" fill="#62657A"/>
<path d="M80.346 108.588C101.298 108.588 118.284 91.6029 118.284 70.6504C118.284 49.698 101.298 32.7126 80.346 32.7126C59.3935 32.7126 42.4082 49.698 42.4082 70.6504C42.4082 91.6029 59.3935 108.588 80.346 108.588Z" stroke="#D3D3DD" stroke-width="5.51261" stroke-miterlimit="10"/>
<path d="M80.3441 99.6125C96.3401 99.6125 109.307 86.6453 109.307 70.6493C109.307 54.6533 96.3401 41.686 80.3441 41.686C64.3482 41.686 51.3809 54.6533 51.3809 70.6493C51.3809 86.6453 64.3482 99.6125 80.3441 99.6125Z" fill="#D3D3DD"/>
<path opacity="0.2" d="M150.157 70.6497C150.157 109.205 118.901 140.461 80.3457 140.461C60.6436 140.461 42.86 132.303 30.1699 119.172C40.9526 125.985 53.7198 129.932 67.4131 129.932C105.968 129.932 137.214 98.6759 137.214 60.1207C137.214 41.2675 129.75 24.1564 117.589 11.5986C137.159 23.9579 150.157 45.7878 150.157 70.6497Z" fill="#3D3D60"/>
<path d="M143.52 72.7339C142.461 104.476 117.996 130.286 86.8281 133.45" stroke="#4E4E68" stroke-width="5.51261" stroke-miterlimit="10" stroke-linecap="round"/>
<path d="M133.939 76.8799C131.392 98.765 115.747 116.648 95.0527 122.491" stroke="#4E4E68" stroke-width="5.51261" stroke-miterlimit="10" stroke-linecap="round"/>
<path d="M17.1816 68.5672C18.2401 36.8256 42.705 11.0156 73.8733 7.85132" stroke="#4E4E68" stroke-width="5.51261" stroke-miterlimit="10" stroke-linecap="round"/>
<path d="M26.7637 64.4104C29.3105 42.5253 44.9553 24.6424 65.6496 18.7991" stroke="#4E4E68" stroke-width="5.51261" stroke-miterlimit="10" stroke-linecap="round"/>
<path d="M67.0371 73.1523L67.0371 70.3299C67.0371 67.6081 64.8306 65.4016 62.1088 65.4016C59.387 65.4016 57.1806 67.6081 57.1806 70.3299L57.1806 73.1523C57.1806 75.8742 59.387 78.0806 62.1088 78.0806C64.8306 78.0806 67.0371 75.8742 67.0371 73.1523Z" fill="#171759"/>
<path d="M103.52 73.1523L103.52 70.3299C103.52 67.6081 101.313 65.4016 98.5913 65.4016C95.8694 65.4016 93.663 67.6081 93.663 70.3299L93.663 73.1523C93.663 75.8742 95.8694 78.0806 98.5913 78.0806C101.313 78.0806 103.52 75.8742 103.52 73.1523Z" fill="#171759"/>
<path d="M88.9223 78.0803C88.9223 82.8101 85.0855 86.6579 80.3557 86.6579C75.6258 86.6579 71.7891 82.8101 71.7891 78.0803L88.9333 78.0803L88.9223 78.0803Z" fill="white" stroke="#171759" stroke-width="4.07933" stroke-linecap="round" stroke-linejoin="round"/>
<path d="M165.173 71.8627C171.7 71.8627 176.992 66.5711 176.992 60.0436C176.992 53.5162 171.7 48.2246 165.173 48.2246C158.645 48.2246 153.354 53.5162 153.354 60.0436C153.354 66.5711 158.645 71.8627 165.173 71.8627Z" fill="#171759"/>
<path d="M158.956 28.7426L164.402 30.0326C167.092 30.672 167.092 34.4978 164.402 35.1373L158.956 36.4272C158.272 36.5926 157.732 37.1218 157.578 37.8054L156.288 43.2518C155.648 45.942 151.822 45.942 151.183 43.2518L149.893 37.8054C149.728 37.1218 149.198 36.5816 148.515 36.4272L143.068 35.1373C140.378 34.4978 140.378 30.672 143.068 30.0326L148.515 28.7426C149.198 28.5772 149.739 28.048 149.893 27.3645L151.183 21.918C151.822 19.2279 155.648 19.2279 156.288 21.918L157.578 27.3645C157.743 28.048 158.272 28.5883 158.956 28.7426Z" fill="#FFCD40"/>
<path d="M134.104 16.8358L135.857 17.2547C137.731 17.6957 137.731 20.3639 135.857 20.8049L134.104 21.2238C133.52 21.3671 133.057 21.8192 132.913 22.4145L132.494 24.1675C132.053 26.0418 129.385 26.0418 128.944 24.1675L128.525 22.4145C128.382 21.8302 127.93 21.3671 127.335 21.2238L125.581 20.8049C123.707 20.3639 123.707 17.6957 125.581 17.2547L127.335 16.8358C127.919 16.6924 128.382 16.2404 128.525 15.6451L128.944 13.892C129.385 12.0178 132.053 12.0178 132.494 13.892L132.913 15.6451C133.057 16.2294 133.509 16.6924 134.104 16.8358Z" fill="#FFCD40"/>
<rect x="1.9668" y="76.5586" width="39.8492" height="53.4136" rx="4.25449" transform="rotate(-13.1081 1.9668 76.5586)" fill="#BBD567"/>
<path d="M12.543 85.841C12.2251 85.915 11.9345 85.9088 11.6713 85.8222C11.4072 85.7326 11.1835 85.576 11.0001 85.3526C10.8159 85.1261 10.685 84.8461 10.6073 84.5126C10.5297 84.1791 10.5234 83.8701 10.5886 83.5855C10.6537 83.3009 10.7849 83.06 10.9822 82.863C11.1794 82.6659 11.437 82.5304 11.7549 82.4563C12.1476 82.3649 12.4915 82.3883 12.7865 82.5266C13.0816 82.6649 13.3004 82.9064 13.4431 83.251L12.7652 83.4088C12.681 83.2445 12.5637 83.1288 12.4134 83.062C12.2624 82.992 12.0856 82.9806 11.883 83.0278C11.696 83.0713 11.5464 83.1554 11.4342 83.2801C11.3212 83.4017 11.2485 83.555 11.216 83.74C11.1859 83.9212 11.198 84.1286 11.2525 84.3624C11.3062 84.593 11.3869 84.7845 11.4947 84.9368C11.6055 85.0884 11.7385 85.1938 11.8936 85.253C12.0486 85.3121 12.2196 85.32 12.4066 85.2764C12.6092 85.2292 12.7639 85.1456 12.8706 85.0255C12.9766 84.9022 13.0322 84.7529 13.0374 84.5776L13.7152 84.4197C13.7351 84.7732 13.6429 85.0756 13.4386 85.3269C13.2342 85.5782 12.9357 85.7496 12.543 85.841ZM15.724 85.1003C15.4902 85.1547 15.2706 85.15 15.0652 85.0861C14.8629 85.0215 14.6897 84.9058 14.5457 84.7389C14.4017 84.572 14.3007 84.3639 14.2426 84.1146C14.1831 83.859 14.1804 83.6214 14.2344 83.4019C14.2884 83.1823 14.3911 82.9957 14.5427 82.8422C14.6942 82.6886 14.8884 82.5842 15.1252 82.5291C15.3683 82.4725 15.5879 82.4772 15.784 82.5433C15.9801 82.6093 16.1448 82.7237 16.278 82.8866C16.4111 83.0494 16.505 83.2477 16.5594 83.4815C16.5667 83.5126 16.5731 83.5473 16.5787 83.5854C16.5874 83.6228 16.5949 83.6621 16.6012 83.7034L14.7266 84.1399L14.6362 83.7519L15.8891 83.4601C15.8429 83.2901 15.7607 83.1697 15.6423 83.0987C15.5232 83.0245 15.3919 83.0042 15.2486 83.0376C15.1426 83.0622 15.0525 83.1128 14.9783 83.1892C14.9065 83.2618 14.8564 83.3572 14.8281 83.4755C14.8029 83.5931 14.8092 83.7329 14.847 83.895L14.8785 84.0306C14.9112 84.1708 14.9613 84.2873 15.0289 84.38C15.0996 84.4719 15.1835 84.5362 15.2808 84.5727C15.378 84.6092 15.4842 84.614 15.5995 84.5871C15.7273 84.5574 15.8192 84.5146 15.8752 84.4589C15.9305 84.4 15.9697 84.3285 15.9928 84.2442L16.6333 84.0951C16.6223 84.2455 16.5788 84.3903 16.5028 84.5296C16.4299 84.6681 16.3279 84.7872 16.1966 84.8867C16.0654 84.9863 15.9078 85.0575 15.724 85.1003ZM17.5041 84.6266L16.9315 82.1676L17.4925 82.037L17.6477 82.4493C17.6854 82.3289 17.7426 82.2219 17.8194 82.1284C17.8962 82.035 17.9914 81.957 18.1049 81.8944C18.2178 81.8287 18.349 81.7784 18.4986 81.7436L18.6543 82.4121L18.313 82.4916C18.232 82.5104 18.1562 82.5379 18.0858 82.574C18.0185 82.6094 17.9606 82.6574 17.9123 82.7179C17.8671 82.7777 17.838 82.8502 17.8249 82.9354C17.8119 83.0206 17.8196 83.1239 17.8479 83.2455L18.1353 84.4797L17.5041 84.6266ZM20.7095 83.8803C20.5474 83.918 20.3982 83.9264 20.2619 83.9056C20.1249 83.8817 20.0084 83.8184 19.9122 83.716C19.8154 83.6104 19.7426 83.4532 19.694 83.2444L19.4371 82.1411L19.0117 82.2402L18.8887 81.7119L19.3141 81.6128L19.2242 80.9093L19.7852 80.7787L19.9452 81.4659L20.581 81.3178L20.704 81.8461L20.0682 81.9941L20.3273 83.1068C20.352 83.2127 20.3924 83.2805 20.4486 83.3102C20.5048 83.3398 20.5889 83.3416 20.7011 83.3154L21.0377 83.237L21.1629 83.7747L20.7095 83.8803ZM21.8368 83.6177L21.2642 81.1587L21.8953 81.0118L22.4679 83.4708L21.8368 83.6177ZM21.5146 80.7949C21.3993 80.8217 21.2982 80.8108 21.2113 80.762C21.1236 80.7101 21.0678 80.6328 21.0439 80.5299C21.0199 80.4271 21.0362 80.3346 21.0926 80.2524C21.1483 80.1672 21.2338 80.1111 21.3492 80.0843C21.4645 80.0574 21.566 80.0699 21.6536 80.1218C21.7436 80.1698 21.8006 80.2453 21.8246 80.3481C21.8485 80.451 21.8311 80.5454 21.7723 80.6314C21.7158 80.7135 21.6299 80.768 21.5146 80.7949ZM23.3435 83.2669L22.8939 81.3362L22.5527 81.4156L22.4297 80.8874L22.7709 80.8079L22.7459 80.7004C22.7002 80.504 22.6966 80.3406 22.7352 80.21C22.7769 80.0787 22.8524 79.9724 22.9616 79.8912C23.0708 79.8099 23.208 79.75 23.3732 79.7115L23.6303 79.6517L23.7555 80.1893L23.5965 80.2263C23.4968 80.2495 23.4298 80.2865 23.3957 80.3371C23.3607 80.3847 23.3542 80.4552 23.3759 80.5487L23.402 80.6609L24.8092 80.3333L25.3818 82.7923L24.7507 82.9392L24.3011 81.0085L23.5251 81.1892L23.9746 83.1199L23.3435 83.2669ZM24.4176 80.0696C24.3054 80.0957 24.2039 80.0832 24.1132 80.0321C24.0255 79.9802 23.9697 79.9028 23.9458 79.8C23.9218 79.6971 23.9381 79.6046 23.9945 79.5225C24.0533 79.4365 24.1389 79.3805 24.2511 79.3543C24.3695 79.3268 24.4725 79.3389 24.5602 79.3908C24.6471 79.4395 24.7025 79.5153 24.7265 79.6182C24.7504 79.721 24.7345 79.8151 24.6788 79.9003C24.6231 79.9856 24.536 80.042 24.4176 80.0696ZM27.2813 82.4091C27.0444 82.4643 26.8213 82.4587 26.6121 82.3925C26.4059 82.3255 26.2292 82.2089 26.0821 82.0427C25.935 81.8766 25.8335 81.6735 25.7776 81.4335C25.7167 81.1717 25.7148 80.9307 25.7719 80.7104C25.829 80.4901 25.9353 80.3043 26.0906 80.1532C26.2484 79.9981 26.4457 79.8931 26.6825 79.8379C26.988 79.7668 27.2624 79.7883 27.5058 79.9025C27.7493 80.0166 27.934 80.2102 28.06 80.4831L27.3915 80.6388C27.3366 80.53 27.2559 80.4519 27.1496 80.4043C27.0463 80.3561 26.9308 80.3469 26.8031 80.3766C26.6846 80.4042 26.5906 80.4589 26.521 80.5409C26.4506 80.6197 26.4067 80.7203 26.3892 80.8426C26.3709 80.9619 26.38 81.0994 26.4162 81.2552C26.4431 81.3705 26.4799 81.472 26.5266 81.5597C26.5733 81.6474 26.6276 81.7186 26.6896 81.7731C26.7509 81.8246 26.8198 81.8595 26.8963 81.8778C26.976 81.8954 27.061 81.8936 27.1514 81.8726C27.2387 81.8523 27.3118 81.8205 27.3707 81.7772C27.432 81.73 27.4795 81.673 27.5132 81.606C27.5461 81.5359 27.5629 81.4597 27.5634 81.3774L28.232 81.2218C28.2405 81.5122 28.1599 81.7659 27.9903 81.9828C27.8199 82.1966 27.5836 82.3387 27.2813 82.4091ZM29.8959 81.8003C29.7058 81.8446 29.5407 81.8485 29.4008 81.8121C29.2602 81.7725 29.1457 81.7039 29.0572 81.6062C28.968 81.5054 28.9078 81.388 28.8766 81.254C28.8418 81.1044 28.8471 80.9652 28.8927 80.8363C28.9414 80.7067 29.0317 80.5936 29.1637 80.4972C29.2987 80.4 29.4769 80.3257 29.6982 80.2742L30.2639 80.1424C30.2334 80.0115 30.1978 79.9081 30.1571 79.8322C30.1157 79.7531 30.0576 79.7009 29.9827 79.6756C29.9109 79.6496 29.8143 79.6508 29.6927 79.6791C29.5805 79.7052 29.494 79.75 29.4332 79.8134C29.3717 79.8738 29.3425 79.9529 29.3455 80.0507L28.7331 80.1933C28.711 80.0276 28.7301 79.877 28.7905 79.7413C28.8533 79.6018 28.9519 79.482 29.0863 79.3817C29.2206 79.2814 29.3844 79.2088 29.5776 79.1638C29.802 79.1115 30.0024 79.1043 30.1788 79.1421C30.3575 79.176 30.5041 79.2552 30.6185 79.3797C30.7354 79.5004 30.8173 79.662 30.8645 79.8646L31.2292 81.4307L30.7009 81.5537L30.5459 81.2054C30.5261 81.2757 30.4975 81.3431 30.4599 81.4077C30.4248 81.4685 30.3804 81.5248 30.3268 81.5767C30.2732 81.6286 30.2096 81.673 30.136 81.7099C30.0663 81.7491 29.9863 81.7792 29.8959 81.8003ZM29.9323 81.2793C30.0039 81.2626 30.0673 81.2314 30.1224 81.1857C30.1775 81.14 30.2222 81.0852 30.2566 81.0214C30.2934 80.9537 30.3175 80.8807 30.3289 80.8025C30.3433 80.7236 30.3455 80.6409 30.3352 80.5546L30.3309 80.5359L29.8587 80.6458C29.7652 80.6676 29.6917 80.6979 29.6383 80.7366C29.5849 80.7753 29.5496 80.8213 29.5325 80.8746C29.5184 80.9271 29.5183 80.983 29.5321 81.0422C29.5473 81.1077 29.5728 81.1609 29.6087 81.2018C29.6476 81.242 29.6949 81.2688 29.7506 81.2821C29.8062 81.2955 29.8668 81.2945 29.9323 81.2793ZM33.0423 81.0085C32.8803 81.0462 32.7311 81.0547 32.5948 81.0338C32.4578 81.0099 32.3412 80.9467 32.2451 80.8442C32.1482 80.7386 32.0755 80.5814 32.0269 80.3726L31.77 79.2693L31.3445 79.3684L31.2215 78.8401L31.6469 78.7411L31.557 78.0375L32.118 77.9069L32.2781 78.5941L32.9139 78.446L33.0369 78.9743L32.4011 79.1224L32.6602 80.235C32.6848 80.341 32.7253 80.4088 32.7814 80.4384C32.8376 80.468 32.9218 80.4698 33.034 80.4436L33.3706 80.3653L33.4958 80.9029L33.0423 81.0085ZM35.2173 80.5612C34.9836 80.6156 34.764 80.6109 34.5586 80.547C34.3562 80.4824 34.1831 80.3666 34.0391 80.1998C33.8951 80.0329 33.794 79.8248 33.736 79.5754C33.6765 79.3199 33.6737 79.0823 33.7277 78.8627C33.7817 78.6432 33.8845 78.4566 34.036 78.303C34.1876 78.1495 34.3817 78.0451 34.6186 77.9899C34.8617 77.9333 35.0813 77.9381 35.2774 78.0041C35.4735 78.0702 35.6381 78.1846 35.7713 78.3474C35.9045 78.5103 35.9983 78.7086 36.0528 78.9423C36.06 78.9735 36.0664 79.0081 36.072 79.0462C36.0807 79.0836 36.0883 79.123 36.0946 79.1642L34.2199 79.6007L34.1296 79.2127L35.3825 78.921C35.3363 78.751 35.254 78.6305 35.1357 78.5595C35.0165 78.4854 34.8853 78.465 34.7419 78.4984C34.636 78.5231 34.5459 78.5736 34.4717 78.6501C34.3999 78.7226 34.3498 78.8181 34.3215 78.9364C34.2963 79.054 34.3026 79.1938 34.3403 79.3558L34.3719 79.4914C34.4046 79.6317 34.4547 79.7481 34.5223 79.8408C34.593 79.9328 34.6769 79.997 34.7741 80.0335C34.8713 80.07 34.9776 80.0749 35.0929 80.048C35.2207 80.0182 35.3126 79.9755 35.3686 79.9197C35.4239 79.8609 35.4631 79.7893 35.4862 79.7051L36.1267 79.5559C36.1157 79.7064 36.0722 79.8512 35.9962 79.9904C35.9233 80.129 35.8213 80.248 35.69 80.3476C35.5588 80.4472 35.4012 80.5183 35.2173 80.5612Z" fill="#1C3A29"/>
<path d="M24.9028 97.807C24.8798 97.7083 24.8493 97.6633 24.8113 97.6722L24.5784 97.8585C24.566 97.8054 24.5268 97.7745 24.4607 97.7658L24.3669 97.7756C24.3061 97.7898 24.2363 97.8341 24.1576 97.9085C24.1335 97.874 24.1057 97.8405 24.0741 97.8078C24.0424 97.7751 24.0155 97.7454 23.9932 97.7185C23.8502 97.5516 23.7028 97.3657 23.551 97.1608C23.405 96.9465 23.2655 96.7427 23.1324 96.5495C23.0069 96.3545 22.9072 96.2015 22.8333 96.0906C22.7799 95.9989 22.7112 95.8587 22.6273 95.67C22.5433 95.4814 22.4469 95.2395 22.3382 94.9445C22.4341 94.9782 22.5049 94.9898 22.5505 94.9792C22.6037 94.9668 22.6345 94.8755 22.6429 94.7054C22.6728 94.7305 22.7181 94.7359 22.7788 94.7218C22.8244 94.7112 22.8551 94.688 22.8708 94.6523L22.9894 94.3364L23.2105 94.357L23.2219 94.3543C23.237 94.3508 23.2505 94.3397 23.2621 94.3209C23.2738 94.3022 23.293 94.2817 23.3199 94.2594C23.3718 94.2073 23.413 94.1777 23.4434 94.1706L23.4802 94.174C23.6913 94.221 23.8518 94.3598 23.9616 94.5905C24.2328 95.136 24.4367 95.3929 24.5735 95.361C24.7102 95.3292 24.8361 95.1477 24.9512 94.8166C25.0088 94.651 25.061 94.4626 25.1079 94.2515C25.1625 94.0386 25.2117 93.8029 25.2556 93.5444C25.292 93.632 25.3179 93.6741 25.333 93.6705C25.371 93.6617 25.4135 93.5517 25.4604 93.3405C25.515 93.1276 25.6097 92.8293 25.7445 92.4455C25.8183 92.2121 25.9163 91.945 26.0385 91.6443C26.1683 91.3418 26.3077 91.029 26.4567 90.706C26.6057 90.383 26.7507 90.0769 26.8916 89.7878C27.0401 89.497 27.1738 89.2456 27.2926 89.0338C27.4114 88.8219 27.5027 88.6805 27.5662 88.6097C27.8089 88.3449 27.9926 88.1019 28.1173 87.8807C28.1221 87.9357 28.1222 87.9877 28.1176 88.0368C28.1188 88.0766 28.1212 88.104 28.1248 88.1192C28.1318 88.1496 28.1506 88.1613 28.181 88.1542L28.4629 87.9204L28.4735 87.9659C28.4876 88.0267 28.5099 88.0536 28.5403 88.0465C28.5631 88.0412 28.6007 87.9964 28.6531 87.9121C28.7056 87.8278 28.7321 87.7696 28.7326 87.7374L28.747 87.9023L29.0813 87.5841L29.0379 87.8105C29.14 87.6986 29.2176 87.6365 29.2708 87.6241C29.3012 87.617 29.3284 87.6307 29.3525 87.6652C29.3747 87.692 29.3894 87.7206 29.3965 87.751C29.4071 87.7966 29.4005 87.8542 29.3766 87.9238C29.3528 87.9934 29.3202 88.0771 29.2789 88.1748C29.2475 88.2462 29.1928 88.355 29.1147 88.5014C29.0425 88.6383 28.9304 88.8446 28.7783 89.1203C28.6245 89.3883 28.4227 89.7597 28.1728 90.2343C28.1046 90.3543 28.0048 90.5617 27.8732 90.8567C27.7399 91.144 27.5898 91.4793 27.4227 91.8625C27.2615 92.2364 27.1012 92.6141 26.9418 92.9956C26.7823 93.3771 26.6424 93.722 26.522 94.0303C26.3998 94.3311 26.3158 94.5549 26.2699 94.7017L25.842 96.0627C25.7502 96.3564 25.6744 96.5982 25.6146 96.7884C25.553 96.9709 25.5027 97.0987 25.4636 97.1719C25.3815 97.3352 25.2845 97.4859 25.1725 97.6241L25.0567 97.591L24.9788 97.6692L24.9028 97.807Z" fill="#1C3A29"/>
<path d="M12.321 134.309C18.8485 134.309 24.14 129.018 24.14 122.49C24.14 115.963 18.8485 110.671 12.321 110.671C5.79352 110.671 0.501953 115.963 0.501953 122.49C0.501953 129.018 5.79352 134.309 12.321 134.309Z" fill="#171759"/>
</svg>
