<svg width="197" height="198" viewBox="0 0 197 198" fill="none" xmlns="http://www.w3.org/2000/svg">
<path opacity="0.2" d="M144.032 160.378C131.736 166.026 92.8398 156.786 66.5758 143.578C46.5438 133.506 41.8718 124.802 51.7518 122.274C61.6318 119.746 83.3838 123.186 105.792 130.978C134.368 140.906 155.4 155.162 144.032 160.386L144.032 160.378Z" fill="#3D3D60"/>
<path d="M49.8867 80.8746L54.8146 105.619L57.1986 103.347L69.4066 80.8826M102.615 69.4986C103.783 68.3626 104.959 67.2266 106.135 66.0906C107.071 70.3066 108.015 74.5226 108.951 78.7306C108.015 79.5306 107.079 80.3306 106.143 81.1306" stroke="#484848" stroke-width="1.288"/>
<path d="M100.447 63.3708L97.2715 52.9068L100.775 52.7468" stroke="#484848" stroke-width="1.288"/>
<path d="M54.8963 84.6904C62.3763 85.4184 68.7603 97.6664 68.6483 111.738C68.5443 125.522 62.2243 134.466 55.0003 132.122C48.2483 129.922 42.9843 118.482 42.8483 106.242C42.7123 93.7784 47.9123 84.0184 54.8963 84.6904Z" stroke="#62657A" stroke-width="5.152"/>
<path d="M42.5273 100.083C43.9273 92.1627 47.2713 85.6187 51.4233 84.3547" stroke="#4E4E68" stroke-width="0.776" stroke-miterlimit="10" stroke-linecap="round"/>
<path d="M43.4883 99.643C44.4003 93.603 47.2962 88.435 50.2002 86.843" stroke="#4E4E68" stroke-width="0.776" stroke-miterlimit="10" stroke-linecap="round"/>
<path d="M119.816 90.9867C132.856 92.2507 143.408 108.827 142.24 127.427C141.104 145.523 129.368 156.315 117.064 152.315C105.784 148.643 97.68 133.555 98.144 118.027C98.616 102.131 107.92 89.8267 119.816 90.9867Z" stroke="#62657A" stroke-width="5.152"/>
<path d="M98.1367 110.203C100.913 100.163 106.929 91.9071 114.081 90.4351" stroke="#4E4E68" stroke-width="0.776" stroke-miterlimit="10" stroke-linecap="round"/>
<path d="M99.752 109.707C101.624 102.035 106.792 95.539 111.824 93.603" stroke="#4E4E68" stroke-width="0.776" stroke-miterlimit="10" stroke-linecap="round"/>
<path d="M77.0722 124.251L53.4802 112.883C51.9682 112.155 50.8402 109.515 50.8322 106.691C50.8162 103.651 52.0882 101.371 53.7362 101.547L77.9442 104.163C81.5122 104.547 84.4642 109.867 84.3522 115.819C84.2322 122.107 80.7522 126.027 77.0722 124.251Z" fill="#0B7AFF"/>
<path d="M68.9919 104.083C65.8239 75.4031 41.7438 68.843 38.8398 102.627" stroke="#0B7AFF" stroke-width="3.608" stroke-miterlimit="10"/>
<path d="M141.184 103.883C127.432 70.5146 90.4636 82.8106 93.3756 123.987" stroke="#0B7AFF" stroke-width="3.608" stroke-miterlimit="10"/>
<path d="M72.0547 87.1466C77.7987 92.2906 93.1907 100.011 102.231 72.0906M82.3827 110.411L106.303 85.1146" stroke="#0B7AFF" stroke-width="3.608" stroke-miterlimit="10"/>
<path d="M69.1445 76.9227L80.6485 117.059M100.017 64.5867L118.041 120.739" stroke="#09458B" stroke-width="3.344"/>
<path d="M68.5992 73.7946C69.4872 73.2106 70.4792 74.0186 70.8232 75.6026L71.3032 77.8506C71.6392 79.4346 71.1832 81.1706 70.2952 81.7226C69.4072 82.2666 68.4232 81.4346 68.0952 79.8666L67.6232 77.6506C67.2952 76.0906 67.7272 74.3626 68.6072 73.7866L68.5992 73.7946Z" fill="#0B7AFF"/>
<path d="M99.9354 62.0667C101.111 61.3387 102.407 62.2107 102.815 64.0347L103.391 66.6187C103.799 68.4427 103.151 70.4827 101.967 71.1707C100.791 71.8507 99.5194 70.9387 99.1194 69.1467L98.5594 66.6107C98.1594 64.8267 98.7754 62.7947 99.9434 62.0747L99.9354 62.0667Z" fill="#0B7AFF"/>
<path d="M118.801 115.971C121.297 116.443 123.217 119.683 123.041 123.187C122.865 126.691 120.705 129.003 118.241 128.419C115.777 127.835 114.001 124.667 114.145 121.291C114.289 117.915 116.353 115.507 118.801 115.971Z" fill="#4E4E68"/>
<path d="M50.832 107.027C51.032 110.291 52.272 112.179 53.328 112.771L77.2881 124.291C81.6161 126.067 84.176 120.651 84.336 116.427C68.928 112.427 61.104 110.379 50.832 107.027Z" fill="#09458B"/>
<path d="M134.992 88.2509L130.832 88.9389C134.68 91.6269 139.52 98.7709 140.112 99.8589L140.048 94.5149L135 88.2429L134.992 88.2509Z" fill="#FCD579"/>
<path d="M77.823 108.731C79.615 109.075 81.055 111.787 80.999 114.771C80.943 117.755 79.4471 119.795 77.6631 119.371C75.8791 118.947 74.5351 116.283 74.5751 113.395C74.6151 110.507 76.055 108.395 77.823 108.739L77.823 108.731Z" fill="#62657A"/>
<path d="M77.6711 114.187L77.4551 128.931" stroke="#484848" stroke-width="1.288"/>
<path d="M73.9604 127.075L81.0804 129.043L81.0003 133.667L73.9043 131.571L73.9604 127.075Z" fill="#FCD579"/>
<path d="M77.9679 66.3951L61.7679 66.2671C60.9439 66.2671 60.2879 67.5871 60.5199 69.0351C62.2879 79.9551 71.1039 76.5631 73.4159 73.4751C74.6959 71.7711 76.5119 70.2351 77.8239 69.7471C78.3359 69.5551 78.8159 68.8191 78.8319 67.9151C78.8479 67.0831 78.4559 66.4031 77.9679 66.3951Z" fill="#FCD579"/>
<path d="M107.856 85.8745L104.544 64.2905C104.392 63.2825 104.928 62.2585 105.632 62.2425L114.719 62.0025C115.287 61.9865 115.752 62.5945 115.784 63.4185L116.544 80.1305C116.576 80.7705 116.336 81.3865 115.936 81.6985L109.399 86.8825C108.775 87.3785 108.008 86.8825 107.856 85.8665L107.856 85.8745Z" fill="#F0C254"/>
<path d="M104.375 61.1629L116.447 60.7949C117.271 60.7709 117.903 61.7229 117.855 62.9229C117.799 64.1229 117.087 65.0989 116.263 65.1149L104.231 65.2989C103.479 65.3069 102.911 64.4029 102.951 63.2749C102.991 62.1389 103.623 61.2029 104.375 61.1789L104.375 61.1629Z" fill="#FCD579"/>
<path d="M104.496 53.8903L118.328 50.8343C119.232 50.6343 120.128 51.2023 120.32 52.1063C120.52 53.0103 119.952 53.9063 119.048 54.0983L105.216 57.1543C104.312 57.3543 103.416 56.7863 103.224 55.8823C103.024 54.9783 103.592 54.0823 104.496 53.8903Z" fill="#FCD579"/>
<path d="M93.3437 59.458L103.48 55.906" stroke="#484848" stroke-width="1.288"/>
<path d="M81.3755 62.9781L92.3995 58.2501C93.1435 57.9301 93.8795 58.4661 94.0315 59.4421C94.1915 60.4181 93.7115 61.4661 92.9675 61.7781L81.9195 66.4021C81.2235 66.6901 80.5355 66.1621 80.3835 65.2261C80.2315 64.2821 80.6715 63.2821 81.3675 62.9781L81.3755 62.9781Z" fill="#FCD579"/>
<path d="M98.7988 57.906L99.8469 61.426" stroke="#484848" stroke-width="1.288"/>
<circle cx="98.527" cy="99.162" r="94.4" stroke="#FF393B" stroke-width="8"/>
<path d="M41.3262 26.762L155.326 173.562" stroke="#FF3939" stroke-width="8"/>
</svg>
