<svg width="234" height="183" viewBox="0 0 234 183" fill="none" xmlns="http://www.w3.org/2000/svg">
<rect x="0.832031" y="8.79883" width="100.42" height="134.602" rx="10.7213" transform="rotate(-5.02341 0.832031 8.79883)" fill="#FCCC5D"/>
<path d="M30.3368 37.5758C29.3606 37.6616 28.5008 37.5264 27.7574 37.1701C27.0225 36.8037 26.4313 36.2607 25.9839 35.5411C25.545 34.8114 25.2818 33.9492 25.1944 32.9543C25.1069 31.9595 25.2157 31.0645 25.5205 30.2695C25.8347 29.4736 26.3217 28.8311 26.9814 28.3421C27.6504 27.8523 28.473 27.5645 29.4493 27.4787C30.6301 27.3749 31.6227 27.5828 32.4273 28.1024C33.2319 28.6219 33.7742 29.4081 34.0541 30.461L32.004 30.6412C31.8374 30.1311 31.5461 29.7492 31.1303 29.4953C30.723 29.2313 30.2078 29.1266 29.5849 29.1814C29.0084 29.2321 28.5233 29.4152 28.1294 29.731C27.744 30.0365 27.4618 30.4502 27.2828 30.9718C27.103 31.4842 27.0437 32.0891 27.105 32.7864C27.1655 33.4744 27.3294 34.0596 27.5966 34.5421C27.8639 35.0245 28.2139 35.3826 28.6467 35.6163C29.0888 35.8491 29.5981 35.9402 30.1745 35.8895C30.7975 35.8348 31.2877 35.6558 31.6452 35.3527C32.0019 35.0403 32.219 34.6324 32.2965 34.129L34.3606 33.9475C34.2637 34.9773 33.864 35.8135 33.1616 36.4561C32.4592 37.0988 31.5176 37.472 30.3368 37.5758ZM36.5181 36.8638L35.9003 29.8349L37.783 29.6694L38.4009 36.6983L36.5181 36.8638ZM36.7641 28.7893C36.4293 28.8187 36.1418 28.7456 35.9015 28.5699C35.6697 28.3842 35.5403 28.1379 35.5134 27.8311C35.4864 27.5243 35.5712 27.2638 35.7679 27.0498C35.9731 26.8256 36.243 26.6989 36.5777 26.6694C36.9217 26.6392 37.2096 26.717 37.4415 26.9027C37.6818 27.0783 37.8154 27.3196 37.8424 27.6264C37.8693 27.9332 37.7802 28.1987 37.5751 28.4228C37.3784 28.6369 37.1081 28.759 36.7641 28.7893ZM43.7481 36.2283C43.2553 36.2716 42.8164 36.2352 42.4315 36.1192C42.055 35.993 41.7489 35.7622 41.5133 35.4269C41.2769 35.0823 41.1313 34.5985 41.0766 33.9756L40.8142 30.9911L39.6148 31.0965L39.4763 29.5206L40.6757 29.4152L40.7169 27.4861L42.3905 27.339L42.5584 29.2497L44.4133 29.0866L44.5518 30.6625L42.697 30.8256L42.9617 33.838C42.9895 34.1541 43.0785 34.3664 43.2286 34.4751C43.3786 34.5837 43.621 34.6233 43.9557 34.5938L44.8762 34.5129L45.0172 36.1167L43.7481 36.2283ZM49.2801 35.9107C48.6944 35.9622 48.2028 35.9117 47.8052 35.7592C47.4069 35.5975 47.1008 35.3667 46.8871 35.067C46.6818 34.7571 46.562 34.4069 46.5277 34.0164C46.4901 33.5887 46.5639 33.2028 46.7492 32.8586C46.9437 32.5135 47.2513 32.2288 47.6719 32.0045C48.1019 31.7793 48.6515 31.6373 49.321 31.5785L51.0642 31.4252C51.034 31.0812 50.9626 30.8017 50.85 30.5868C50.7366 30.3625 50.5774 30.2032 50.3723 30.1088C50.1673 30.0143 49.902 29.9814 49.5766 30.01C49.2233 30.0411 48.9281 30.1467 48.6909 30.3268C48.4623 30.4968 48.334 30.7423 48.306 31.0634L46.479 31.2239C46.4814 30.7178 46.6061 30.2712 46.8531 29.884C47.1086 29.4868 47.4599 29.1655 47.9068 28.9201C48.3629 28.6739 48.8793 28.5254 49.4557 28.4747C50.1158 28.4167 50.6974 28.478 51.2005 28.6587C51.7036 28.8393 52.1037 29.1274 52.4008 29.5229C52.6979 29.9184 52.8734 30.423 52.9274 31.0366L53.3098 35.3878L51.72 35.5276L51.4164 34.4721C51.3305 34.667 51.2243 34.845 51.0979 35.006C50.9715 35.167 50.8203 35.3115 50.6441 35.4394C50.468 35.5673 50.2661 35.6694 50.0386 35.7456C49.8119 35.8311 49.5591 35.8862 49.2801 35.9107ZM49.5989 34.421C49.8407 34.3998 50.0508 34.3392 50.2294 34.2391C50.4165 34.129 50.5732 33.9934 50.6996 33.8324C50.8252 33.6621 50.9166 33.476 50.9738 33.2742C51.0395 33.0623 51.0761 32.8389 51.0835 32.6041L51.0823 32.5901L49.6458 32.7164C49.3576 32.7417 49.1238 32.7997 48.9444 32.8905C48.7735 32.9711 48.6519 33.0801 48.5796 33.2177C48.5074 33.3552 48.4786 33.5076 48.4934 33.675C48.5097 33.8609 48.565 34.0107 48.6593 34.1242C48.7536 34.2377 48.8827 34.32 49.0464 34.3712C49.2102 34.4224 49.3944 34.439 49.5989 34.421ZM58.4292 34.9378C57.9364 34.9811 57.4976 34.9448 57.1126 34.8287C56.7361 34.7025 56.43 34.4717 56.1944 34.1364C55.958 33.7918 55.8124 33.308 55.7577 32.6851L55.4953 29.7006L54.296 29.806L54.1574 28.2301L55.3568 28.1247L55.3981 26.1957L57.0716 26.0485L57.2396 27.9592L59.0944 27.7961L59.2329 29.3721L57.3781 29.5351L57.6429 32.5475C57.6707 32.8636 57.7596 33.076 57.9097 33.1846C58.0598 33.2932 58.3022 33.3328 58.6369 33.3034L59.5573 33.2224L59.6983 34.8263L58.4292 34.9378ZM61.6175 34.6576L60.9997 27.6287L62.8824 27.4632L63.5003 34.4921L61.6175 34.6576ZM61.8635 26.583C61.5287 26.6124 61.2412 26.5393 61.0009 26.3637C60.7691 26.1779 60.6397 25.9317 60.6128 25.6248C60.5858 25.318 60.6706 25.0576 60.8673 24.8436C61.0725 24.6194 61.3424 24.4926 61.6771 24.4632C62.0211 24.4329 62.309 24.5107 62.5409 24.6965C62.7812 24.8721 62.9148 25.1133 62.9418 25.4201C62.9687 25.7269 62.8796 25.9924 62.6745 26.2166C62.4778 26.4306 62.2075 26.5528 61.8635 26.583ZM69.0156 34.1759C68.3462 34.2348 67.7283 34.1345 67.1621 33.8751C66.6044 33.6055 66.1433 33.2104 65.779 32.6896C65.4231 32.1587 65.2138 31.5353 65.1508 30.8194C65.0863 30.0849 65.1833 29.4299 65.4419 28.8544C65.709 28.2688 66.0986 27.7988 66.6109 27.4446C67.1224 27.0811 67.7128 26.8699 68.3823 26.8111C69.061 26.7514 69.6792 26.8564 70.237 27.1259C70.8032 27.3853 71.2642 27.7805 71.6201 28.3113C71.9844 28.8321 72.1984 29.4551 72.2622 30.1803C72.3259 30.9055 72.2243 31.5609 71.9572 32.1466C71.6986 32.7221 71.3135 33.1916 70.8021 33.5551C70.2898 33.9093 69.6943 34.1163 69.0156 34.1759ZM68.8722 32.5442C69.1883 32.5164 69.4607 32.4175 69.6893 32.2475C69.9273 32.0767 70.1025 31.8317 70.215 31.5127C70.3368 31.1928 70.3776 30.805 70.3376 30.3495C70.2976 29.8939 70.1901 29.5239 70.0152 29.2394C69.8487 28.9449 69.6335 28.7342 69.3694 28.6076C69.1137 28.4707 68.8325 28.4158 68.5257 28.4428C68.2282 28.4689 67.9608 28.5721 67.7237 28.7522C67.4857 28.923 67.3059 29.1684 67.1841 29.4883C67.0708 29.7981 67.0341 30.1807 67.0742 30.6363C67.1142 31.0919 67.2175 31.467 67.3839 31.7615C67.5596 32.0553 67.7749 32.2659 68.0297 32.3934C68.2938 32.5201 68.5746 32.5704 68.8722 32.5442ZM74.4727 33.5276L73.8548 26.4987L75.5144 26.3528L75.7544 27.4841C75.934 27.0749 76.2083 26.7322 76.5776 26.4561C76.9561 26.1792 77.4197 26.0167 77.9682 25.9685C78.554 25.917 79.0574 25.9945 79.4784 26.2011C79.8994 26.4077 80.2327 26.7345 80.4781 27.1814C80.7328 27.6274 80.89 28.1898 80.9496 28.8686L81.3063 32.9269L79.4375 33.0912L79.0968 29.2141C79.0477 28.6563 78.8893 28.2392 78.6214 27.9629C78.3628 27.6859 77.9871 27.569 77.4943 27.6123C77.1782 27.6401 76.9012 27.7394 76.6632 27.9102C76.4346 28.0802 76.2628 28.3108 76.1478 28.602C76.0321 28.8839 75.9913 29.2201 76.0257 29.6106L76.3554 33.3621L74.4727 33.5276Z" fill="#1C3A29"/>
<path d="M39.4228 76.3261L37.1561 50.5389L39.1827 50.3608L41.4494 76.1479L39.4228 76.3261ZM40.4921 74.0123C38.9845 74.1448 37.6485 73.986 36.4842 73.5358C35.32 73.0857 34.3913 72.3978 33.6983 71.4721C33.0052 70.5465 32.6019 69.4375 32.4883 68.1452L35.0729 67.918C35.1435 68.7208 35.3949 69.4485 35.8271 70.1011C36.2577 70.7341 36.8435 71.2253 37.5845 71.5745C38.3434 71.9024 39.2613 72.019 40.3382 71.9244C41.2389 71.8452 42.0003 71.6402 42.6223 71.3093C43.2622 70.957 43.7352 70.5011 44.0412 69.9415C44.3667 69.3801 44.4994 68.7567 44.4391 68.0714C44.3686 67.2686 44.1355 66.638 43.7401 66.1795C43.3429 65.7014 42.8368 65.3315 42.2219 65.0698C41.6052 64.7886 40.9047 64.5641 40.1204 64.3962C39.3557 64.2267 38.5493 64.0312 37.7011 63.8098C36.0065 63.3865 34.7207 62.7892 33.8439 62.0178C32.9867 61.2447 32.5005 60.2022 32.3851 58.8903C32.2905 57.8134 32.4616 56.8414 32.8984 55.9743C33.353 55.0859 34.0394 54.3645 34.9575 53.8103C35.8935 53.2347 37.0272 52.8884 38.3587 52.7714C39.6706 52.6561 40.8277 52.801 41.8302 53.2062C42.8522 53.6096 43.6752 54.218 44.2992 55.0313C44.9215 55.8251 45.2816 56.78 45.3797 57.8961L42.7952 58.1233C42.7401 57.4967 42.5416 56.9222 42.1997 56.3998C41.8578 55.8774 41.3687 55.4764 40.7325 55.1969C40.0945 54.8978 39.3252 54.7878 38.4245 54.867C37.6787 54.9128 37.0233 55.0888 36.4583 55.395C35.9111 55.6799 35.4926 56.0817 35.2028 56.6005C34.9325 57.1175 34.8284 57.7285 34.8903 58.4333C34.9489 59.0991 35.1332 59.6255 35.4435 60.0126C35.7538 60.3997 36.1862 60.7168 36.7406 60.9641C37.2934 61.1917 37.9432 61.401 38.69 61.5918C39.4369 61.7827 40.2842 61.9943 41.232 62.2267C42.2599 62.4718 43.1771 62.8055 43.9838 63.2279C44.8083 63.629 45.4784 64.1818 45.9942 64.8862C46.5099 65.5907 46.8177 66.5108 46.9175 67.6464C47.0036 68.6254 46.821 69.5787 46.3698 70.5063C45.9382 71.4322 45.2374 72.214 44.2674 72.8517C43.2974 73.4894 42.039 73.8763 40.4921 74.0123ZM56.001 74.8688L53.7343 49.0817L55.7609 48.9035L58.0276 74.6907L56.001 74.8688ZM57.0703 72.555C55.5626 72.6876 54.2267 72.5288 53.0624 72.0786C51.8981 71.6285 50.9695 70.9406 50.2764 70.0149C49.5834 69.0893 49.1801 67.9803 49.0665 66.688L51.6511 66.4608C51.7217 67.2636 51.9731 67.9913 52.4053 68.6439C52.8359 69.2769 53.4217 69.768 54.1627 70.1173C54.9216 70.4452 55.8395 70.5618 56.9164 70.4672C57.8171 70.388 58.5785 70.1829 59.2005 69.852C59.8404 69.4998 60.3134 69.0439 60.6193 68.4842C60.9449 67.9229 61.0775 67.2995 61.0173 66.6142C60.9467 65.8114 60.7137 65.1808 60.3183 64.7222C59.9211 64.2441 59.415 63.8743 58.8 63.6126C58.1834 63.3314 57.4829 63.1068 56.6986 62.939C55.9339 62.7694 55.1275 62.5739 54.2793 62.3525C52.5846 61.9293 51.2989 61.332 50.4221 60.5606C49.5649 59.7875 49.0786 58.745 48.9633 57.4331C48.8687 56.3562 49.0397 55.3842 49.4765 54.5171C49.9312 53.6286 50.6176 52.9073 51.5357 52.353C52.4717 51.7775 53.6054 51.4312 54.9369 51.3141C56.2487 51.1988 57.4059 51.3438 58.4084 51.7489C59.4304 52.1524 60.2534 52.7608 60.8774 53.5741C61.4996 54.3679 61.8598 55.3228 61.9579 56.4389L59.3733 56.666C59.3183 56.0395 59.1198 55.465 58.7779 54.9426C58.436 54.4201 57.9469 54.0192 57.3107 53.7396C56.6727 53.4406 55.9034 53.3306 55.0027 53.4098C54.2569 53.4556 53.6015 53.6316 53.0365 53.9378C52.4893 54.2226 52.0708 54.6245 51.781 55.1432C51.5107 55.6603 51.4066 56.2712 51.4685 56.9761C51.527 57.6418 51.7114 58.1683 52.0217 58.5553C52.332 58.9424 52.7643 59.2596 53.3188 59.5068C53.8716 59.7345 54.5214 59.9437 55.2682 60.1346C56.0151 60.3255 56.8624 60.5371 57.8102 60.7695C58.8381 61.0146 59.7553 61.3483 60.562 61.7707C61.3865 62.1718 62.0566 62.7245 62.5724 63.429C63.0881 64.1335 63.3959 65.0535 63.4957 66.1892C63.5818 67.1682 63.3992 68.1215 62.948 69.0491C62.5163 69.9749 61.8155 70.7567 60.8455 71.3945C59.8756 72.0322 58.6172 72.4191 57.0703 72.555ZM72.5792 73.4116L70.3125 47.6244L72.3391 47.4463L74.6058 73.2335L72.5792 73.4116ZM73.6485 71.0978C72.1408 71.2303 70.8049 71.0715 69.6406 70.6214C68.4763 70.1712 67.5477 69.4833 66.8546 68.5577C66.1616 67.632 65.7583 66.523 65.6447 65.2308L68.2293 65.0036C68.2998 65.8064 68.5512 66.5341 68.9835 67.1867C69.414 67.8197 69.9998 68.3108 70.7409 68.66C71.4998 68.988 72.4177 69.1046 73.4946 69.0099C74.3953 68.9308 75.1566 68.7257 75.7787 68.3948C76.4186 68.0426 76.8915 67.5866 77.1975 67.027C77.5231 66.4656 77.6557 65.8423 77.5955 65.157C77.5249 64.3542 77.2919 63.7235 76.8964 63.265C76.4992 62.7869 75.9932 62.417 75.3782 62.1554C74.7616 61.8741 74.0611 61.6496 73.2768 61.4818C72.5121 61.3122 71.7057 61.1167 70.8575 60.8953C69.1628 60.4721 67.8771 59.8747 67.0003 59.1033C66.1431 58.3302 65.6568 57.2878 65.5415 55.9759C65.4468 54.899 65.6179 53.927 66.0547 53.0598C66.5094 52.1714 67.1958 51.4501 68.1139 50.8958C69.0499 50.3203 70.1836 49.974 71.515 49.8569C72.8269 49.7416 73.9841 49.8865 74.9865 50.2917C76.0086 50.6952 76.8316 51.3035 77.4556 52.1169C78.0778 52.9106 78.438 53.8656 78.5361 54.9816L75.9515 55.2088C75.8964 54.5823 75.6979 54.0078 75.3561 53.4853C75.0142 52.9629 74.5251 52.5619 73.8888 52.2824C73.2509 51.9833 72.4815 51.8734 71.5809 51.9525C70.8351 51.9984 70.1797 52.1744 69.6147 52.4805C69.0675 52.7654 68.649 53.1672 68.3591 53.686C68.0889 54.203 67.9847 54.814 68.0467 55.5189C68.1052 56.1846 68.2896 56.711 68.5999 57.0981C68.9101 57.4852 69.3425 57.8024 69.897 58.0496C70.4498 58.2773 71.0996 58.4865 71.8464 58.6774C72.5932 58.8682 73.4406 59.0799 74.3884 59.3123C75.4162 59.5573 76.3335 59.8911 77.1401 60.3135C77.9647 60.7145 78.6348 61.2673 79.1505 61.9718C79.6663 62.6762 79.9741 63.5963 80.0739 64.7319C80.1599 65.711 79.9774 66.6643 79.5262 67.5918C79.0945 68.5177 78.3937 69.2995 77.4237 69.9372C76.4537 70.575 75.1953 70.9618 73.6485 71.0978Z" fill="#1C3A29"/>
<path opacity="0.2" d="M153.477 182.758C180.338 182.758 202.112 178.293 202.112 172.784C202.112 167.276 180.338 162.81 153.477 162.81C126.617 162.81 104.842 167.276 104.842 172.784C104.842 178.293 126.617 182.758 153.477 182.758Z" fill="#3D3D60"/>
<path d="M146.949 168.975L146.949 142.863C146.949 139.256 144.025 136.333 140.419 136.333L140.409 136.333C136.803 136.333 133.879 139.256 133.879 142.863L133.879 168.975C133.879 172.582 136.803 175.505 140.409 175.505L140.419 175.505C144.025 175.505 146.949 172.582 146.949 168.975Z" fill="#171759"/>
<path d="M130.898 175.505L140.419 175.505C144.025 175.505 146.949 172.582 146.949 168.975L146.949 168.965C146.949 165.359 144.025 162.435 140.419 162.435L130.898 162.435C127.292 162.435 124.368 165.359 124.368 168.965L124.368 168.975C124.368 172.582 127.292 175.505 130.898 175.505Z" fill="#171759"/>
<path d="M177.469 162.97L167.691 138.758C166.341 135.413 162.535 133.797 159.191 135.148L159.182 135.151C155.838 136.502 154.221 140.308 155.572 143.652L165.349 167.864C166.7 171.208 170.506 172.824 173.85 171.474L173.859 171.47C177.203 170.12 178.819 166.314 177.469 162.97Z" fill="#171759"/>
<path d="M165.07 174.997L173.898 171.432C177.242 170.082 178.858 166.276 177.508 162.932L177.504 162.923C176.154 159.578 172.348 157.962 169.004 159.313L160.176 162.878C156.831 164.228 155.215 168.034 156.566 171.378L156.569 171.387C157.92 174.731 161.726 176.348 165.07 174.997Z" fill="#171759"/>
<path d="M149.071 152.961C182.804 152.961 210.149 125.615 210.149 91.8823C210.149 58.1495 182.804 30.8037 149.071 30.8037C115.338 30.8037 87.9922 58.1495 87.9922 91.8823C87.9922 125.615 115.338 152.961 149.071 152.961Z" fill="#62657A"/>
<path d="M145.212 124.11C163.543 124.11 178.403 109.249 178.403 90.9176C178.403 72.5861 163.543 57.7256 145.212 57.7256C126.88 57.7256 112.02 72.5861 112.02 90.9176C112.02 109.249 126.88 124.11 145.212 124.11Z" stroke="#D3D3DD" stroke-width="4.82301" stroke-miterlimit="10"/>
<path d="M145.211 116.257C159.206 116.257 170.551 104.912 170.551 90.9173C170.551 76.9223 159.206 65.5771 145.211 65.5771C131.216 65.5771 119.871 76.9223 119.871 90.9173C119.871 104.912 131.216 116.257 145.211 116.257Z" fill="#D3D3DD"/>
<path opacity="0.2" d="M210.15 91.8819C210.15 125.614 182.803 152.961 149.071 152.961C131.833 152.961 116.274 145.822 105.172 134.334C114.606 140.295 125.776 143.749 137.756 143.749C171.488 143.749 198.825 116.402 198.825 82.6699C198.825 66.1752 192.295 51.2046 181.655 40.2178C198.777 51.031 210.15 70.1301 210.15 91.8819Z" fill="#3D3D60"/>
<path d="M204.342 93.7053C203.416 121.476 182.012 144.058 154.742 146.826" stroke="#4E4E68" stroke-width="4.82301" stroke-miterlimit="10" stroke-linecap="round"/>
<path d="M195.959 97.3335C193.731 116.481 180.043 132.127 161.937 137.239" stroke="#4E4E68" stroke-width="4.82301" stroke-miterlimit="10" stroke-linecap="round"/>
<path d="M93.8066 90.0599C94.7327 62.289 116.137 39.7076 143.407 36.9392" stroke="#4E4E68" stroke-width="4.82301" stroke-miterlimit="10" stroke-linecap="round"/>
<path d="M102.189 86.4237C104.418 67.2763 118.105 51.6305 136.211 46.5181" stroke="#4E4E68" stroke-width="4.82301" stroke-miterlimit="10" stroke-linecap="round"/>
<path d="M180.272 119.052L184.359 124.856L222.69 97.8669L218.603 92.062L180.272 119.052Z" fill="#FFBC00"/>
<path d="M176.194 113.243L180.281 119.048L218.612 92.0583L214.525 86.2535L176.194 113.243Z" fill="#FFD815"/>
<path d="M214.522 86.2624L222.691 97.8643L226.966 94.8543L218.797 83.2524L214.522 86.2624Z" fill="#DBD9E2"/>
<path d="M226.973 94.8533L218.804 83.2515L222.455 80.6802C224.206 79.4474 226.626 79.8674 227.858 81.6183L231.563 86.879C232.795 88.6299 232.375 91.0492 230.624 92.282L226.973 94.8533Z" fill="#FF558A"/>
<path d="M176.214 113.238L184.384 124.842L177.381 126.27L172.51 119.354L176.214 113.238Z" fill="#FFE7C5"/>
<path d="M172.51 119.354L177.381 126.27L170.909 127.582C169.442 127.881 168.314 126.28 169.095 125.007L172.51 119.354Z" fill="#171759"/>
<path d="M207.815 123.773C213.526 123.773 218.156 119.144 218.156 113.433C218.156 107.722 213.526 103.092 207.815 103.092C202.104 103.092 197.475 107.722 197.475 113.433C197.475 119.144 202.104 123.773 207.815 123.773Z" fill="#171759"/>
<path d="M130.83 92.935L130.83 90.4656C130.83 88.0843 128.9 86.1538 126.518 86.1538C124.137 86.1538 122.207 88.0843 122.207 90.4656L122.207 92.935C122.207 95.3163 124.137 97.2467 126.518 97.2467C128.9 97.2467 130.83 95.3163 130.83 92.935Z" fill="#171759"/>
<path d="M162.75 92.935L162.75 90.4656C162.75 88.0843 160.82 86.1538 158.438 86.1538C156.057 86.1538 154.126 88.0843 154.126 90.4656L154.126 92.935C154.126 95.3163 156.057 97.2467 158.438 97.2467C160.82 97.2467 162.75 95.3163 162.75 92.935Z" fill="#171759"/>
<path d="M135.652 103.845C136.231 100.613 139.057 98.1536 142.472 98.1536C145.887 98.1536 148.713 100.613 149.292 103.845" stroke="#171759" stroke-width="3.56903" stroke-linecap="round" stroke-linejoin="round"/>
<path d="M126.487 147.86L96.2568 153.792C94.9064 154.052 93.5077 153.204 93.1218 151.901L82.1447 114.262C81.7588 112.951 82.5498 111.677 83.9002 111.407L114.131 105.475C115.481 105.215 116.88 106.063 117.266 107.366L128.243 145.004C128.629 146.316 127.838 147.59 126.487 147.86Z" fill="#C2E9F9"/>
<path d="M123.864 148.371L93.6338 154.303C92.2833 154.563 90.8846 153.714 90.4988 152.412L79.5216 114.773C79.1358 113.462 79.9268 112.188 81.2772 111.918L111.508 105.986C112.858 105.726 114.257 106.574 114.643 107.877L125.62 145.515C126.006 146.827 125.215 148.1 123.864 148.371Z" fill="#F3FDFF"/>
<path d="M124.962 149.278L92.7158 155.605C91.3653 155.866 89.9666 155.017 89.5808 153.715L78.6037 116.076C78.2178 114.764 79.0088 113.491 80.3592 113.221L112.606 106.893C113.956 106.632 115.355 107.481 115.741 108.784L126.718 146.422C127.104 147.734 126.313 149.007 124.962 149.278Z" fill="#3A6DED"/>
<path d="M123.449 149.577L91.2021 155.904C89.8517 156.165 88.453 155.316 88.0672 154.014L77.09 116.375C76.7041 115.063 77.4951 113.79 78.8456 113.52L111.092 107.192C112.443 106.932 113.841 107.78 114.227 109.083L125.204 146.721C125.59 148.033 124.799 149.307 123.449 149.577Z" fill="#5086FF"/>
<path d="M105.844 113.433L86.5038 117.224C85.1533 117.485 83.7547 116.636 83.3688 115.334L83.1759 114.658C82.7901 113.347 83.5811 112.073 84.9315 111.803L104.272 108.012C105.622 107.752 107.021 108.601 107.407 109.903L107.6 110.578C107.986 111.89 107.195 113.163 105.844 113.433Z" fill="#3A6DED"/>
<path d="M105.506 112.295L86.1659 116.086C84.8155 116.347 83.4168 115.498 83.031 114.195L82.838 113.52C82.4522 112.208 83.2432 110.935 84.5936 110.665L103.934 106.874C105.284 106.614 106.683 107.463 107.069 108.765L107.262 109.44C107.648 110.752 106.857 112.025 105.506 112.295Z" fill="#AAB0BA"/>
<path d="M151.752 82.0453L157.632 78.9653" stroke="#171759" stroke-width="3.5672" stroke-linecap="round"/>
<path d="M131.871 82.0458L126.271 78.6858" stroke="#171759" stroke-width="3.5672" stroke-linecap="round"/>
</svg>
