<svg width="199" height="219" viewBox="0 0 199 219" fill="none" xmlns="http://www.w3.org/2000/svg">
<rect x="0.613281" y="0.14209" width="197.4" height="217.7" fill="#9595A5"/>
<path d="M111.075 34.299L106.684 34.299L106.684 26.6562L103.143 26.6562L108.879 19.1664L114.616 26.6562L111.075 26.6562L111.075 34.299Z" fill="#F9F9F9"/>
<path d="M116.215 78.6981C115.178 78.6981 114.165 78.1896 113.303 77.2369C112.442 76.2841 111.77 74.93 111.373 73.3457C110.977 71.7614 110.873 70.018 111.075 68.3361C111.277 66.6542 111.776 65.1093 112.509 63.8967C113.242 62.6841 114.176 61.8583 115.192 61.5238C116.209 61.1892 117.263 61.3609 118.22 62.0172C119.178 62.6734 119.996 63.7847 120.572 65.2106C121.148 66.6364 121.455 68.3128 121.455 70.0276C121.454 72.3264 120.901 74.5303 119.918 76.1557C118.936 77.7812 117.604 78.6955 116.215 78.6981ZM116.215 64.1317C115.51 64.1317 114.821 64.4775 114.235 65.1254C113.649 65.7732 113.192 66.694 112.922 67.7714C112.653 68.8487 112.582 70.0342 112.72 71.1779C112.857 72.3216 113.197 73.3721 113.695 74.1967C114.193 75.0212 114.828 75.5828 115.519 75.8103C116.211 76.0378 116.927 75.921 117.578 75.4748C118.23 75.0285 118.786 74.2728 119.178 73.3032C119.569 72.3337 119.778 71.1937 119.778 70.0276C119.777 68.4645 119.401 66.9659 118.733 65.8606C118.065 64.7552 117.159 64.1335 116.215 64.1317ZM106.782 70.0276C106.782 71.7425 106.475 73.4188 105.899 74.8447C105.323 76.2705 104.505 77.3819 103.547 78.0381C102.589 78.6944 101.536 78.8661 100.519 78.5315C99.5027 78.197 98.569 77.3712 97.8361 76.1586C97.1032 74.946 96.6041 73.4011 96.4019 71.7192C96.1997 70.0373 96.3035 68.2939 96.7001 66.7096C97.0967 65.1253 97.7684 63.7711 98.6302 62.8184C99.492 61.8657 100.505 61.3572 101.542 61.3572C102.931 61.3598 104.263 62.2741 105.245 63.8996C106.228 65.525 106.78 67.7289 106.782 70.0276ZM101.542 64.1317C100.837 64.1317 100.148 64.4775 99.5618 65.1254C98.9758 65.7732 98.5191 66.694 98.2494 67.7714C97.9797 68.8487 97.9091 70.0342 98.0466 71.1779C98.1841 72.3216 98.5235 73.3721 99.0218 74.1967C99.5202 75.0212 100.155 75.5828 100.846 75.8103C101.538 76.0378 102.254 75.921 102.905 75.4748C103.556 75.0285 104.113 74.2728 104.505 73.3032C104.896 72.3337 105.105 71.1937 105.105 70.0276C105.104 68.4645 104.728 66.9659 104.06 65.8606C103.392 64.7552 102.486 64.1335 101.542 64.1317Z" fill="#F9F9F9"/>
<path d="M105.634 49.2337C104.647 49.2337 103.847 47.9104 103.847 46.2781C103.847 44.6458 104.647 43.3225 105.634 43.3225C106.62 43.3225 107.42 44.6458 107.42 46.2781C107.42 47.9104 106.62 49.2337 105.634 49.2337Z" fill="#F9F9F9"/>
<path d="M112.285 61.2093L109.715 65.4049L109.715 73.1485L108.038 73.1485L108.038 65.1149C108.039 64.8394 108.072 64.5667 108.136 64.3126C108.2 64.0584 108.294 63.8277 108.413 63.6337L111.1 59.2474L107.617 53.4857L104.569 58.649C104.452 58.8469 104.312 59.0042 104.157 59.1118C104.003 59.2194 103.837 59.2751 103.669 59.2758L102.169 59.2758L102.169 56.5012L103.493 56.5012L108.34 48.2914L108.364 48.3316L108.805 47.6033L114.674 57.3142L112.302 61.2379L112.285 61.2093Z" fill="#F9F9F9"/>
<rect x="131.863" y="0.14209" width="3.5" height="217.7" fill="white"/>
<g filter="url(#filter0_d_6409_35294)">
<path d="M160.303 136.642L173.535 136.642C181.632 136.642 188.207 143.217 188.207 151.314L188.207 202.309C188.207 208.377 183.28 213.306 177.209 213.306L156.626 213.306C150.558 213.306 145.629 208.379 145.629 202.309L145.629 151.314C145.632 143.217 152.206 136.642 160.303 136.642Z" fill="#B9D950"/>
<path d="M192.66 166.978C193.121 165.91 192.051 164.421 190.27 163.652C188.489 162.884 186.671 163.127 186.21 164.195C185.749 165.264 186.819 166.753 188.6 167.521C190.381 168.29 192.199 168.047 192.66 166.978Z" fill="#B9D950"/>
<path d="M145.158 168.24C146.94 167.471 148.01 165.982 147.549 164.913C147.088 163.845 145.27 163.602 143.489 164.37C141.708 165.139 140.637 166.628 141.098 167.697C141.559 168.765 143.377 169.008 145.158 168.24Z" fill="#B9D950"/>
<path d="M161.705 140.548L172.129 140.548C180.226 140.548 186.801 147.122 186.801 155.219L186.801 197.986C186.801 204.054 181.874 208.983 175.803 208.983L158.029 208.983C151.961 208.983 147.031 204.057 147.031 197.986L147.031 155.219C147.031 147.122 153.606 140.548 161.703 140.548L161.705 140.548Z" fill="#D5FA5D"/>
<path d="M158.854 159.182L174.981 159.182C180.687 159.182 185.319 163.814 185.319 169.52L185.319 192.247C185.319 195.924 182.332 198.91 178.655 198.91L155.177 198.91C151.5 198.91 148.514 195.924 148.514 192.247L148.514 169.52C148.514 163.814 153.145 159.182 158.851 159.182L158.854 159.182Z" fill="#86CFED"/>
<path d="M181.222 171.955L152.617 171.955L152.617 192.628L181.222 192.628L181.222 171.955Z" fill="#D5FA5D"/>
<path d="M154.039 172.408L148.234 165.718L147.141 166.667L152.946 173.356L154.039 172.408Z" fill="#D5FA5D"/>
<path d="M180.935 173.469L186.457 167.105L185.364 166.157L179.842 172.52L180.935 173.469Z" fill="#D5FA5D"/>
<path d="M148.598 198.323L154.789 191.188L153.696 190.24L147.504 197.375L148.598 198.323Z" fill="#D5FA5D"/>
<path d="M186.225 197.355L180.033 190.22L178.94 191.168L185.132 198.303L186.225 197.355Z" fill="#D5FA5D"/>
</g>
<g filter="url(#filter1_d_6409_35294)">
<path d="M33.9515 98.1425L47.1838 98.1425C55.2808 98.1425 61.8552 104.717 61.8552 112.814L61.8552 163.809C61.8552 169.877 56.9285 174.806 50.8579 174.806L30.2746 174.806C24.2068 174.806 19.2773 169.879 19.2773 163.809L19.2773 112.814C19.2801 104.717 25.8545 98.1425 33.9515 98.1425Z" fill="#272727"/>
<path d="M66.3067 128.479C66.7678 127.411 65.6975 125.921 63.9163 125.153C62.135 124.384 60.3173 124.627 59.8563 125.696C59.3952 126.764 60.4655 128.253 62.2467 129.022C64.0279 129.791 65.8457 129.547 66.3067 128.479Z" fill="#272727"/>
<path d="M18.8069 129.74C20.5881 128.971 21.6584 127.482 21.1973 126.413C20.7363 125.345 18.9186 125.102 17.1373 125.87C15.3561 126.639 14.2859 128.128 14.7469 129.197C15.2079 130.265 17.0257 130.508 18.8069 129.74Z" fill="#272727"/>
<path d="M35.3519 102.048L45.7757 102.048C53.8727 102.048 60.4471 108.622 60.4471 116.719L60.4471 159.486C60.4471 165.554 55.5205 170.483 49.4499 170.483L31.675 170.483C25.6072 170.483 20.6777 165.557 20.6777 159.486L20.6777 116.719C20.6777 108.622 27.2522 102.048 35.3491 102.048L35.3519 102.048Z" fill="#3F3F3F"/>
<path d="M32.5025 120.682L48.6296 120.682C54.3356 120.682 58.9671 125.314 58.9671 131.02L58.9671 153.747C58.9671 157.424 55.9805 160.41 52.3037 160.41L28.8256 160.41C25.1487 160.41 22.1621 157.424 22.1621 153.747L22.1621 131.02C22.1621 125.314 26.7937 120.682 32.4997 120.682L32.5025 120.682Z" fill="#86CFED"/>
<path d="M54.8707 133.455L26.2656 133.455L26.2656 154.128L54.8707 154.128L54.8707 133.455Z" fill="#3F3F3F"/>
<path d="M27.6876 133.908L21.8828 127.218L20.7896 128.167L26.5944 134.856L27.6876 133.908Z" fill="#3F3F3F"/>
<path d="M54.5835 134.969L60.1055 128.605L59.0123 127.657L53.4903 134.02L54.5835 134.969Z" fill="#3F3F3F"/>
<path d="M22.246 159.823L28.4375 152.688L27.3443 151.74L21.1528 158.875L22.246 159.823Z" fill="#3F3F3F"/>
<path d="M59.8731 158.855L53.6816 151.72L52.5885 152.669L58.78 159.804L59.8731 158.855Z" fill="#3F3F3F"/>
</g>
<g clip-path="url(#clip0_6409_35294)" filter="url(#filter2_d_6409_35294)">
<path d="M109.98 111.817L109.98 118.397" stroke="#9AB445" stroke-width="1.42624"/>
<path d="M110.325 123.649L109.638 123.649C108.861 123.649 108.23 124.28 108.23 125.057L108.23 135.369C108.23 136.146 108.861 136.777 109.638 136.777L110.325 136.777C111.103 136.777 111.733 136.146 111.733 135.369L111.733 125.057C111.733 124.28 111.103 123.649 110.325 123.649Z" fill="#62657A"/>
<path d="M116.554 114.576L114.569 110.034C114.295 109.407 113.564 109.121 112.937 109.395L112.935 109.396C112.308 109.67 112.021 110.401 112.296 111.028L114.281 115.569C114.555 116.196 115.285 116.483 115.913 116.208L115.914 116.208C116.542 115.934 116.828 115.203 116.554 114.576Z" fill="#171759"/>
<path d="M116.577 113.213L114.921 113.936C114.294 114.21 114.007 114.941 114.282 115.568L114.282 115.57C114.556 116.197 115.287 116.484 115.914 116.209L117.57 115.486C118.198 115.212 118.484 114.481 118.21 113.854L118.209 113.852C117.935 113.225 117.204 112.938 116.577 113.213Z" fill="#171759"/>
<path d="M105.417 115.569L107.402 111.028C107.676 110.401 107.39 109.67 106.763 109.396L106.761 109.395C106.134 109.121 105.403 109.407 105.129 110.034L103.144 114.576C102.87 115.203 103.156 115.934 103.783 116.208L103.785 116.209C104.412 116.483 105.143 116.196 105.417 115.569Z" fill="#171759"/>
<path d="M102.13 115.484L103.786 116.207C104.413 116.481 105.144 116.195 105.418 115.568L105.419 115.566C105.693 114.939 105.407 114.208 104.78 113.934L103.124 113.21C102.497 112.936 101.766 113.222 101.492 113.85L101.491 113.851C101.217 114.479 101.503 115.209 102.13 115.484Z" fill="#171759"/>
<path d="M109.814 111.596C116.216 111.596 121.407 106.406 121.407 100.003C121.407 93.6003 116.216 88.4099 109.814 88.4099C103.411 88.4099 98.2207 93.6003 98.2207 100.003C98.2207 106.406 103.411 111.596 109.814 111.596Z" fill="#62657A"/>
<path opacity="0.43" d="M109.814 106.303C113.293 106.303 116.114 103.482 116.114 100.003C116.114 96.5235 113.293 93.7029 109.814 93.7029C106.334 93.7029 103.514 96.5235 103.514 100.003C103.514 103.482 106.334 106.303 109.814 106.303Z" stroke="#D3D3DD" stroke-width="0.915432" stroke-miterlimit="10"/>
<path opacity="0.43" d="M109.814 104.812C112.47 104.812 114.623 102.659 114.623 100.003C114.623 97.3465 112.47 95.1931 109.814 95.1931C107.157 95.1931 105.004 97.3465 105.004 100.003C105.004 102.659 107.157 104.812 109.814 104.812Z" fill="#D3D3DD"/>
<path opacity="0.2" d="M121.406 100.003C121.406 106.406 116.215 111.596 109.813 111.596C106.541 111.596 103.588 110.241 101.48 108.061C103.271 109.192 105.391 109.848 107.665 109.848C114.068 109.848 119.256 104.657 119.256 98.2546C119.256 95.1239 118.017 92.2824 115.997 90.197C119.247 92.2494 121.406 95.8745 121.406 100.003Z" fill="#3D3D60"/>
<path d="M120.303 100.349C120.127 105.62 116.065 109.906 110.889 110.431" stroke="#4E4E68" stroke-width="0.915432" stroke-miterlimit="10" stroke-linecap="round"/>
<path d="M118.713 101.038C118.29 104.672 115.692 107.642 112.256 108.612" stroke="#4E4E68" stroke-width="0.915432" stroke-miterlimit="10" stroke-linecap="round"/>
<path d="M99.3242 99.657C99.5 94.386 103.563 90.0999 108.739 89.5745" stroke="#4E4E68" stroke-width="0.915432" stroke-miterlimit="10" stroke-linecap="round"/>
<path d="M100.914 98.9684C101.337 95.3342 103.935 92.3645 107.372 91.3942" stroke="#4E4E68" stroke-width="0.915432" stroke-miterlimit="10" stroke-linecap="round"/>
<path d="M112.239 110.524L107.722 110.524C106.844 110.524 106.133 111.235 106.133 112.113L106.133 112.115C106.133 112.993 106.844 113.704 107.722 113.704L112.239 113.704C113.116 113.704 113.828 112.993 113.828 112.115L113.828 112.113C113.828 111.235 113.116 110.524 112.239 110.524Z" fill="#FCD579"/>
<path d="M109.979 115.646C111.182 115.646 112.16 116.624 112.16 117.827L112.16 126.106L107.799 126.106L107.799 117.827C107.799 116.624 108.777 115.646 109.979 115.646Z" fill="#BBD567"/>
<path d="M110.323 123.649L109.636 123.649C108.859 123.649 108.229 124.28 108.229 125.057L108.229 135.369C108.229 136.146 108.859 136.777 109.636 136.777L110.323 136.777C111.101 136.777 111.731 136.146 111.731 135.369L111.731 125.057C111.731 124.28 111.101 123.649 110.323 123.649Z" fill="#62657A"/>
<path d="M109.979 115.646C111.182 115.646 112.16 116.624 112.16 117.827L112.16 126.106L107.799 126.106L107.799 117.827C107.799 116.624 108.777 115.646 109.979 115.646Z" fill="#BBD567"/>
<path d="M120.995 99.4852C117.793 99.9649 114.044 100.316 109.853 100.318C105.627 100.32 101.85 99.9668 98.6295 99.4852C98.5618 99.4852 98.2029 99.4779 97.9137 99.2051C97.7306 99.0312 97.6152 98.7932 97.6152 98.5295L97.6152 96.9916C97.6152 96.4661 98.0711 96.0359 98.6295 96.0359L120.995 96.0359C121.552 96.0359 122.01 96.4661 122.01 96.9916L122.01 98.5295C122.01 99.055 121.554 99.4852 120.995 99.4852Z" fill="#312A4C"/>
<path d="M98.2401 97.7605C97.6433 97.7605 97.1654 97.257 97.2167 96.6657C97.7824 90.276 103.248 85.1917 109.813 85.1917C116.378 85.1917 121.844 90.276 122.409 96.6657C122.462 97.2552 121.983 97.7605 121.386 97.7605L98.2401 97.7605Z" fill="#FF525F"/>
</g>
<g filter="url(#filter3_d_6409_35294)">
<path d="M160.303 4.34155L173.535 4.34155C181.632 4.34155 188.207 10.916 188.207 19.0129L188.207 70.0078C188.207 76.0756 183.28 81.005 177.209 81.005L156.626 81.005C150.558 81.005 145.629 76.0784 145.629 70.0078L145.629 19.0129C145.632 10.916 152.206 4.34155 160.303 4.34155Z" fill="#F76626"/>
<path d="M192.66 34.6776C193.121 33.6091 192.051 32.1199 190.27 31.3513C188.489 30.5827 186.671 30.8258 186.21 31.8942C185.749 32.9627 186.819 34.4519 188.6 35.2205C190.381 35.9891 192.199 35.746 192.66 34.6776Z" fill="#F76626"/>
<path d="M145.158 35.9383C146.94 35.1697 148.01 33.6804 147.549 32.612C147.088 31.5435 145.27 31.3004 143.489 32.069C141.708 32.8376 140.637 34.3269 141.098 35.3953C141.559 36.4638 143.377 36.7069 145.158 35.9383Z" fill="#F76626"/>
<path d="M161.705 8.24683L172.129 8.24683C180.226 8.24683 186.801 14.8212 186.801 22.9182L186.801 65.6853C186.801 71.7531 181.874 76.6825 175.803 76.6825L158.029 76.6825C151.961 76.6825 147.031 71.7559 147.031 65.6853L147.031 22.9182C147.031 14.8212 153.606 8.24683 161.703 8.24683L161.705 8.24683Z" fill="#FC8332"/>
<path d="M158.854 26.8816L174.981 26.8816C180.687 26.8816 185.319 31.5132 185.319 37.2192L185.319 59.9457C185.319 63.6226 182.332 66.6092 178.655 66.6092L155.177 66.6092C151.5 66.6092 148.514 63.6226 148.514 59.9457L148.514 37.2192C148.514 31.5132 153.145 26.8816 158.851 26.8816L158.854 26.8816Z" fill="#B4DEEF"/>
<path d="M181.222 39.6545L152.617 39.6545L152.617 60.3269L181.222 60.3269L181.222 39.6545Z" fill="#FC8332"/>
<path d="M154.039 40.1066L148.234 33.4172L147.141 34.3658L152.946 41.0552L154.039 40.1066Z" fill="#FC8332"/>
<path d="M180.935 41.168L186.457 34.8044L185.364 33.8558L179.842 40.2194L180.935 41.168Z" fill="#FC8332"/>
<path d="M148.598 66.0225L154.789 58.8875L153.696 57.9388L147.504 65.0739L148.598 66.0225Z" fill="#FC8332"/>
<path d="M186.225 65.0538L180.033 57.9187L178.94 58.8673L185.132 66.0024L186.225 65.0538Z" fill="#FC8332"/>
</g>
<rect x="78.6641" y="0.14209" width="5.6" height="217.7" fill="white"/>
<path d="M185.588 88.3423L147.613 129.642" stroke="#FF3939" stroke-width="3.5" stroke-linecap="round"/>
<path d="M147.613 88.3423L185.588 129.642" stroke="#FF3939" stroke-width="3.5" stroke-linecap="round"/>
<defs>
<filter id="filter0_d_6409_35294" x="137.492" y="134.892" width="58.7754" height="83.6635" filterUnits="userSpaceOnUse" color-interpolation-filters="sRGB">
<feFlood flood-opacity="0" result="BackgroundImageFix"/>
<feColorMatrix in="SourceAlpha" type="matrix" values="0 0 0 0 0 0 0 0 0 0 0 0 0 0 0 0 0 0 127 0" result="hardAlpha"/>
<feOffset dy="1.75"/>
<feGaussianBlur stdDeviation="1.75"/>
<feColorMatrix type="matrix" values="0 0 0 0 0 0 0 0 0 0 0 0 0 0 0 0 0 0 0.15 0"/>
<feBlend mode="normal" in2="BackgroundImageFix" result="effect1_dropShadow_6409_35294"/>
<feBlend mode="normal" in="SourceGraphic" in2="effect1_dropShadow_6409_35294" result="shape"/>
</filter>
<filter id="filter1_d_6409_35294" x="11.1406" y="96.3925" width="58.7734" height="83.6635" filterUnits="userSpaceOnUse" color-interpolation-filters="sRGB">
<feFlood flood-opacity="0" result="BackgroundImageFix"/>
<feColorMatrix in="SourceAlpha" type="matrix" values="0 0 0 0 0 0 0 0 0 0 0 0 0 0 0 0 0 0 127 0" result="hardAlpha"/>
<feOffset dy="1.75"/>
<feGaussianBlur stdDeviation="1.75"/>
<feColorMatrix type="matrix" values="0 0 0 0 0 0 0 0 0 0 0 0 0 0 0 0 0 0 0.15 0"/>
<feBlend mode="normal" in2="BackgroundImageFix" result="effect1_dropShadow_6409_35294"/>
<feBlend mode="normal" in="SourceGraphic" in2="effect1_dropShadow_6409_35294" result="shape"/>
</filter>
<filter id="filter2_d_6409_35294" x="93.7129" y="83.4419" width="32.1992" height="58.5846" filterUnits="userSpaceOnUse" color-interpolation-filters="sRGB">
<feFlood flood-opacity="0" result="BackgroundImageFix"/>
<feColorMatrix in="SourceAlpha" type="matrix" values="0 0 0 0 0 0 0 0 0 0 0 0 0 0 0 0 0 0 127 0" result="hardAlpha"/>
<feOffset dy="1.75"/>
<feGaussianBlur stdDeviation="1.75"/>
<feColorMatrix type="matrix" values="0 0 0 0 0 0 0 0 0 0 0 0 0 0 0 0 0 0 0.15 0"/>
<feBlend mode="normal" in2="BackgroundImageFix" result="effect1_dropShadow_6409_35294"/>
<feBlend mode="normal" in="SourceGraphic" in2="effect1_dropShadow_6409_35294" result="shape"/>
</filter>
<filter id="filter3_d_6409_35294" x="137.492" y="2.59155" width="58.7754" height="83.6635" filterUnits="userSpaceOnUse" color-interpolation-filters="sRGB">
<feFlood flood-opacity="0" result="BackgroundImageFix"/>
<feColorMatrix in="SourceAlpha" type="matrix" values="0 0 0 0 0 0 0 0 0 0 0 0 0 0 0 0 0 0 127 0" result="hardAlpha"/>
<feOffset dy="1.75"/>
<feGaussianBlur stdDeviation="1.75"/>
<feColorMatrix type="matrix" values="0 0 0 0 0 0 0 0 0 0 0 0 0 0 0 0 0 0 0.15 0"/>
<feBlend mode="normal" in2="BackgroundImageFix" result="effect1_dropShadow_6409_35294"/>
<feBlend mode="normal" in="SourceGraphic" in2="effect1_dropShadow_6409_35294" result="shape"/>
</filter>
<clipPath id="clip0_6409_35294">
<rect width="25.2" height="51.5846" fill="white" transform="translate(97.2129 85.1919)"/>
</clipPath>
</defs>
</svg>
