<svg width="432" height="333" viewBox="0 0 432 333" fill="none" xmlns="http://www.w3.org/2000/svg">
<rect x="0.495483" width="431.504" height="333" fill="#1C3A29"/>
<path d="M38.776 208V191.2H40.792V208H38.776ZM49.6341 208.288C48.4501 208.288 47.4101 208.016 46.5141 207.472C45.6341 206.928 44.9461 206.184 44.4501 205.24C43.9701 204.296 43.7301 203.224 43.7301 202.024C43.7301 200.824 43.9701 199.76 44.4501 198.832C44.9461 197.888 45.6421 197.152 46.5381 196.624C47.4341 196.08 48.4741 195.808 49.6581 195.808C50.6341 195.808 51.4981 196.008 52.2501 196.408C53.0181 196.808 53.6021 197.368 54.0021 198.088V190.72H56.0181V208H54.1941L54.0021 206.032C53.7461 206.416 53.4181 206.784 53.0181 207.136C52.6181 207.472 52.1381 207.752 51.5781 207.976C51.0181 208.184 50.3701 208.288 49.6341 208.288ZM49.8501 206.536C50.6501 206.536 51.3541 206.352 51.9621 205.984C52.5861 205.6 53.0661 205.072 53.4021 204.4C53.7541 203.728 53.9301 202.944 53.9301 202.048C53.9301 201.152 53.7541 200.368 53.4021 199.696C53.0661 199.024 52.5861 198.504 51.9621 198.136C51.3541 197.752 50.6501 197.56 49.8501 197.56C49.0661 197.56 48.3621 197.752 47.7381 198.136C47.1301 198.504 46.6501 199.024 46.2981 199.696C45.9621 200.368 45.7941 201.152 45.7941 202.048C45.7941 202.944 45.9621 203.728 46.2981 204.4C46.6501 205.072 47.1301 205.6 47.7381 205.984C48.3621 206.352 49.0661 206.536 49.8501 206.536ZM64.6799 208.288C63.5439 208.288 62.5359 208.032 61.6559 207.52C60.7759 206.992 60.0799 206.264 59.5679 205.336C59.0719 204.392 58.8239 203.296 58.8239 202.048C58.8239 200.784 59.0719 199.688 59.5679 198.76C60.0639 197.832 60.7519 197.112 61.6319 196.6C62.5279 196.072 63.5599 195.808 64.7279 195.808C65.8959 195.808 66.8959 196.072 67.7279 196.6C68.5599 197.112 69.1999 197.792 69.6479 198.64C70.0959 199.472 70.3199 200.384 70.3199 201.376C70.3199 201.536 70.3199 201.712 70.3199 201.904C70.3199 202.08 70.3119 202.28 70.2959 202.504H60.3359V200.944H68.3279C68.2799 199.872 67.9119 199.032 67.2239 198.424C66.5519 197.816 65.7039 197.512 64.6799 197.512C63.9919 197.512 63.3519 197.664 62.7599 197.968C62.1679 198.272 61.6879 198.72 61.3199 199.312C60.9679 199.888 60.7919 200.616 60.7919 201.496V202.168C60.7919 203.144 60.9759 203.96 61.3439 204.616C61.7119 205.272 62.1919 205.768 62.7839 206.104C63.3759 206.424 64.0079 206.584 64.6799 206.584C65.5119 206.584 66.2079 206.392 66.7679 206.008C67.3279 205.624 67.7359 205.104 67.9919 204.448H69.9839C69.7759 205.184 69.4319 205.84 68.9519 206.416C68.4719 206.992 67.8719 207.448 67.1519 207.784C66.4479 208.12 65.6239 208.288 64.6799 208.288ZM76.9519 208.288C75.9599 208.288 75.1359 208.12 74.4799 207.784C73.8239 207.448 73.3359 207 73.0159 206.44C72.6959 205.88 72.5359 205.272 72.5359 204.616C72.5359 203.8 72.7439 203.112 73.1599 202.552C73.5919 201.992 74.1919 201.568 74.9599 201.28C75.7439 200.976 76.6639 200.824 77.7199 200.824H80.9359C80.9359 200.088 80.8159 199.48 80.5759 199C80.3359 198.504 79.9919 198.136 79.5439 197.896C79.0959 197.64 78.5599 197.512 77.9359 197.512C77.1519 197.512 76.4719 197.712 75.8959 198.112C75.3199 198.496 74.9679 199.064 74.8399 199.816H72.7759C72.8719 198.952 73.1679 198.224 73.6639 197.632C74.1599 197.04 74.7839 196.592 75.5359 196.288C76.3039 195.968 77.1039 195.808 77.9359 195.808C79.0399 195.808 79.9599 196.016 80.6959 196.432C81.4479 196.832 82.0079 197.4 82.3759 198.136C82.7599 198.856 82.9519 199.704 82.9519 200.68V208H81.1519L81.0319 205.864C80.8719 206.2 80.6639 206.52 80.4079 206.824C80.1679 207.112 79.8799 207.368 79.5439 207.592C79.2239 207.8 78.8479 207.968 78.4159 208.096C77.9839 208.224 77.4959 208.288 76.9519 208.288ZM77.2639 206.584C77.8399 206.584 78.3519 206.472 78.7999 206.248C79.2639 206.008 79.6559 205.688 79.9759 205.288C80.2959 204.888 80.5359 204.44 80.6959 203.944C80.8559 203.448 80.9359 202.936 80.9359 202.408V202.384H77.8879C77.1039 202.384 76.4719 202.48 75.9919 202.672C75.5119 202.848 75.1679 203.096 74.9599 203.416C74.7519 203.736 74.6479 204.104 74.6479 204.52C74.6479 204.936 74.7439 205.304 74.9359 205.624C75.1439 205.928 75.4399 206.168 75.8239 206.344C76.2239 206.504 76.7039 206.584 77.2639 206.584ZM85.9998 208V190.72H88.0158V208H85.9998ZM98.3196 208V194.032C98.3196 193.264 98.4476 192.64 98.7036 192.16C98.9596 191.664 99.3356 191.304 99.8316 191.08C100.344 190.84 100.968 190.72 101.704 190.72H102.904V192.448H102.016C101.424 192.448 100.992 192.568 100.72 192.808C100.464 193.048 100.336 193.472 100.336 194.08V208H98.3196ZM96.5196 197.8V196.096H103.264V197.8H96.5196ZM110.619 208.288C109.499 208.288 108.491 208.032 107.595 207.52C106.699 207.008 105.987 206.288 105.459 205.36C104.947 204.416 104.691 203.312 104.691 202.048C104.691 200.784 104.955 199.688 105.483 198.76C106.011 197.816 106.723 197.088 107.619 196.576C108.531 196.064 109.547 195.808 110.667 195.808C111.787 195.808 112.795 196.064 113.691 196.576C114.587 197.088 115.291 197.816 115.803 198.76C116.331 199.688 116.595 200.784 116.595 202.048C116.595 203.312 116.331 204.416 115.803 205.36C115.275 206.288 114.555 207.008 113.643 207.52C112.747 208.032 111.739 208.288 110.619 208.288ZM110.619 206.56C111.307 206.56 111.947 206.392 112.539 206.056C113.131 205.72 113.611 205.216 113.979 204.544C114.347 203.872 114.531 203.04 114.531 202.048C114.531 201.04 114.347 200.208 113.979 199.552C113.627 198.88 113.155 198.376 112.563 198.04C111.971 197.704 111.339 197.536 110.667 197.536C109.995 197.536 109.355 197.704 108.747 198.04C108.155 198.376 107.675 198.88 107.307 199.552C106.939 200.208 106.755 201.04 106.755 202.048C106.755 203.04 106.939 203.872 107.307 204.544C107.675 205.216 108.147 205.72 108.723 206.056C109.315 206.392 109.947 206.56 110.619 206.56ZM119.398 208V196.096H121.222L121.39 198.4C121.646 197.856 121.982 197.392 122.398 197.008C122.814 196.624 123.31 196.328 123.886 196.12C124.462 195.912 125.118 195.808 125.854 195.808V197.92H125.302C124.774 197.92 124.27 197.992 123.79 198.136C123.326 198.264 122.91 198.48 122.542 198.784C122.19 199.088 121.91 199.504 121.702 200.032C121.51 200.56 121.414 201.216 121.414 202V208H119.398ZM139.941 208.288C138.805 208.288 137.781 208.032 136.869 207.52C135.973 206.992 135.261 206.264 134.733 205.336C134.221 204.392 133.965 203.296 133.965 202.048C133.965 200.8 134.221 199.712 134.733 198.784C135.261 197.84 135.973 197.112 136.869 196.6C137.781 196.072 138.805 195.808 139.941 195.808C141.365 195.808 142.557 196.176 143.517 196.912C144.477 197.648 145.085 198.632 145.341 199.864H143.277C143.117 199.128 142.725 198.56 142.101 198.16C141.477 197.744 140.749 197.536 139.917 197.536C139.245 197.536 138.613 197.704 138.021 198.04C137.429 198.376 136.949 198.88 136.581 199.552C136.213 200.224 136.029 201.056 136.029 202.048C136.029 202.784 136.133 203.44 136.34 204.016C136.565 204.576 136.853 205.048 137.205 205.432C137.573 205.816 137.989 206.104 138.453 206.296C138.933 206.488 139.421 206.584 139.917 206.584C140.477 206.584 140.989 206.496 141.453 206.32C141.917 206.128 142.309 205.856 142.629 205.504C142.949 205.152 143.165 204.728 143.277 204.232H145.341C145.085 205.432 144.477 206.408 143.517 207.16C142.557 207.912 141.365 208.288 139.941 208.288ZM153.58 208.288C152.46 208.288 151.452 208.032 150.556 207.52C149.66 207.008 148.948 206.288 148.42 205.36C147.908 204.416 147.652 203.312 147.652 202.048C147.652 200.784 147.916 199.688 148.444 198.76C148.972 197.816 149.684 197.088 150.58 196.576C151.492 196.064 152.508 195.808 153.628 195.808C154.748 195.808 155.756 196.064 156.652 196.576C157.548 197.088 158.252 197.816 158.764 198.76C159.292 199.688 159.556 200.784 159.556 202.048C159.556 203.312 159.292 204.416 158.764 205.36C158.236 206.288 157.516 207.008 156.604 207.52C155.708 208.032 154.7 208.288 153.58 208.288ZM153.58 206.56C154.268 206.56 154.908 206.392 155.5 206.056C156.092 205.72 156.572 205.216 156.94 204.544C157.308 203.872 157.492 203.04 157.492 202.048C157.492 201.04 157.308 200.208 156.94 199.552C156.588 198.88 156.116 198.376 155.524 198.04C154.932 197.704 154.3 197.536 153.628 197.536C152.956 197.536 152.316 197.704 151.708 198.04C151.116 198.376 150.636 198.88 150.268 199.552C149.9 200.208 149.716 201.04 149.716 202.048C149.716 203.04 149.9 203.872 150.268 204.544C150.636 205.216 151.108 205.72 151.684 206.056C152.276 206.392 152.908 206.56 153.58 206.56ZM162.359 208V196.096H164.183L164.327 197.824C164.711 197.184 165.223 196.688 165.863 196.336C166.503 195.984 167.223 195.808 168.023 195.808C168.647 195.808 169.215 195.896 169.727 196.072C170.239 196.232 170.687 196.488 171.071 196.84C171.471 197.176 171.791 197.608 172.031 198.136C172.447 197.4 173.023 196.832 173.759 196.432C174.495 196.016 175.279 195.808 176.111 195.808C177.055 195.808 177.879 196 178.583 196.384C179.287 196.752 179.831 197.328 180.215 198.112C180.599 198.88 180.791 199.856 180.791 201.04V208H178.799V201.256C178.799 200.024 178.551 199.096 178.055 198.472C177.559 197.848 176.847 197.536 175.919 197.536C175.279 197.536 174.703 197.704 174.191 198.04C173.695 198.376 173.303 198.864 173.015 199.504C172.727 200.128 172.583 200.904 172.583 201.832V208H170.567V201.256C170.567 200.024 170.319 199.096 169.823 198.472C169.327 197.848 168.615 197.536 167.687 197.536C167.063 197.536 166.495 197.704 165.983 198.04C165.487 198.376 165.095 198.864 164.807 199.504C164.519 200.128 164.375 200.904 164.375 201.832V208H162.359ZM183.828 208V196.096H185.652L185.796 197.824C186.18 197.184 186.692 196.688 187.332 196.336C187.972 195.984 188.692 195.808 189.492 195.808C190.116 195.808 190.684 195.896 191.196 196.072C191.708 196.232 192.156 196.488 192.54 196.84C192.94 197.176 193.26 197.608 193.5 198.136C193.916 197.4 194.492 196.832 195.228 196.432C195.964 196.016 196.748 195.808 197.58 195.808C198.524 195.808 199.348 196 200.052 196.384C200.756 196.752 201.3 197.328 201.684 198.112C202.068 198.88 202.26 199.856 202.26 201.04V208H200.268V201.256C200.268 200.024 200.02 199.096 199.524 198.472C199.028 197.848 198.316 197.536 197.388 197.536C196.748 197.536 196.172 197.704 195.66 198.04C195.164 198.376 194.772 198.864 194.484 199.504C194.196 200.128 194.052 200.904 194.052 201.832V208H192.036V201.256C192.036 200.024 191.788 199.096 191.292 198.472C190.796 197.848 190.084 197.536 189.156 197.536C188.532 197.536 187.964 197.704 187.452 198.04C186.956 198.376 186.564 198.864 186.276 199.504C185.988 200.128 185.844 200.904 185.844 201.832V208H183.828ZM209.641 208.288C208.713 208.288 207.897 208.104 207.193 207.736C206.505 207.352 205.969 206.776 205.585 206.008C205.217 205.224 205.033 204.24 205.033 203.056V196.096H207.049V202.84C207.049 204.072 207.305 205 207.817 205.624C208.345 206.248 209.105 206.56 210.097 206.56C210.785 206.56 211.401 206.392 211.945 206.056C212.489 205.72 212.913 205.232 213.217 204.592C213.537 203.952 213.697 203.176 213.697 202.264V196.096H215.713V208H213.889L213.769 205.864C213.385 206.616 212.825 207.208 212.089 207.64C211.369 208.072 210.553 208.288 209.641 208.288ZM223.735 208C223.015 208 222.391 207.888 221.863 207.664C221.335 207.44 220.927 207.064 220.639 206.536C220.367 205.992 220.231 205.264 220.231 204.352V197.8H218.167V196.096H220.231L220.495 193.24H222.247V196.096H225.751V197.8H222.247V204.352C222.247 205.104 222.399 205.616 222.703 205.888C223.007 206.144 223.543 206.272 224.311 206.272H225.559V208H223.735ZM228.528 208V196.096H230.544V208H228.528ZM229.536 193.456C229.136 193.456 228.8 193.328 228.528 193.072C228.272 192.8 228.144 192.464 228.144 192.064C228.144 191.664 228.272 191.344 228.528 191.104C228.8 190.848 229.136 190.72 229.536 190.72C229.92 190.72 230.248 190.848 230.52 191.104C230.792 191.344 230.928 191.664 230.928 192.064C230.928 192.464 230.792 192.8 230.52 193.072C230.248 193.328 229.92 193.456 229.536 193.456ZM234.054 208V196.096H235.878L235.998 198.232C236.382 197.48 236.934 196.888 237.654 196.456C238.374 196.024 239.19 195.808 240.102 195.808C241.046 195.808 241.862 196 242.55 196.384C243.238 196.752 243.774 197.328 244.158 198.112C244.542 198.88 244.734 199.856 244.734 201.04V208H242.718V201.256C242.718 200.024 242.454 199.096 241.926 198.472C241.398 197.848 240.638 197.536 239.646 197.536C238.958 197.536 238.342 197.704 237.798 198.04C237.27 198.376 236.846 198.864 236.526 199.504C236.222 200.128 236.07 200.904 236.07 201.832V208H234.054ZM252.517 213.568C251.445 213.568 250.493 213.424 249.661 213.136C248.829 212.864 248.181 212.44 247.717 211.864C247.253 211.288 247.021 210.576 247.021 209.728C247.021 209.376 247.093 208.992 247.237 208.576C247.397 208.176 247.661 207.776 248.029 207.376C248.413 206.976 248.949 206.616 249.637 206.296L250.981 207.112C250.165 207.464 249.629 207.864 249.373 208.312C249.117 208.76 248.989 209.168 248.989 209.536C248.989 210.064 249.141 210.504 249.445 210.856C249.749 211.208 250.165 211.472 250.693 211.648C251.237 211.824 251.845 211.912 252.517 211.912C253.189 211.912 253.765 211.808 254.245 211.6C254.741 211.408 255.125 211.136 255.397 210.784C255.669 210.432 255.805 210.016 255.805 209.536C255.805 209.024 255.597 208.576 255.181 208.192C254.781 207.824 254.013 207.608 252.877 207.544C251.933 207.48 251.141 207.392 250.501 207.28C249.877 207.168 249.357 207.04 248.941 206.896C248.525 206.736 248.173 206.56 247.885 206.368C247.613 206.176 247.365 205.976 247.141 205.768V205.216L249.469 202.888L251.173 203.512L248.821 205.696L249.133 204.88C249.309 205.008 249.477 205.128 249.637 205.24C249.797 205.336 250.013 205.424 250.285 205.504C250.557 205.584 250.933 205.656 251.413 205.72C251.893 205.784 252.533 205.848 253.333 205.912C254.405 205.992 255.269 206.184 255.925 206.488C256.581 206.792 257.053 207.2 257.341 207.712C257.645 208.208 257.797 208.792 257.797 209.464C257.797 210.152 257.605 210.808 257.221 211.432C256.853 212.056 256.277 212.568 255.493 212.968C254.725 213.368 253.733 213.568 252.517 213.568ZM252.493 204.256C251.485 204.256 250.629 204.072 249.925 203.704C249.221 203.32 248.685 202.808 248.317 202.168C247.949 201.528 247.765 200.816 247.765 200.032C247.765 199.248 247.949 198.544 248.317 197.92C248.685 197.28 249.221 196.768 249.925 196.384C250.629 196 251.485 195.808 252.493 195.808C253.501 195.808 254.357 196 255.061 196.384C255.765 196.768 256.301 197.28 256.669 197.92C257.037 198.544 257.221 199.248 257.221 200.032C257.221 200.816 257.037 201.528 256.669 202.168C256.301 202.808 255.765 203.32 255.061 203.704C254.357 204.072 253.501 204.256 252.493 204.256ZM252.493 202.6C253.341 202.6 254.013 202.384 254.509 201.952C255.021 201.504 255.277 200.864 255.277 200.032C255.277 199.216 255.021 198.592 254.509 198.16C254.013 197.712 253.341 197.488 252.493 197.488C251.645 197.488 250.965 197.712 250.453 198.16C249.941 198.592 249.685 199.216 249.685 200.032C249.685 200.864 249.941 201.504 250.453 201.952C250.965 202.384 251.645 202.6 252.493 202.6ZM254.413 197.8L253.813 196.096H258.757V197.608L254.413 197.8ZM271.343 208.288C270.351 208.288 269.527 208.12 268.871 207.784C268.215 207.448 267.727 207 267.407 206.44C267.087 205.88 266.927 205.272 266.927 204.616C266.927 203.8 267.135 203.112 267.551 202.552C267.983 201.992 268.583 201.568 269.351 201.28C270.135 200.976 271.055 200.824 272.111 200.824H275.327C275.327 200.088 275.207 199.48 274.967 199C274.727 198.504 274.383 198.136 273.935 197.896C273.487 197.64 272.951 197.512 272.327 197.512C271.543 197.512 270.863 197.712 270.287 198.112C269.711 198.496 269.359 199.064 269.231 199.816H267.167C267.263 198.952 267.559 198.224 268.055 197.632C268.551 197.04 269.175 196.592 269.927 196.288C270.695 195.968 271.495 195.808 272.327 195.808C273.431 195.808 274.351 196.016 275.087 196.432C275.839 196.832 276.399 197.4 276.767 198.136C277.151 198.856 277.343 199.704 277.343 200.68V208H275.543L275.423 205.864C275.263 206.2 275.055 206.52 274.799 206.824C274.559 207.112 274.271 207.368 273.935 207.592C273.615 207.8 273.239 207.968 272.807 208.096C272.375 208.224 271.887 208.288 271.343 208.288ZM271.655 206.584C272.231 206.584 272.743 206.472 273.191 206.248C273.655 206.008 274.047 205.688 274.367 205.288C274.687 204.888 274.927 204.44 275.087 203.944C275.247 203.448 275.327 202.936 275.327 202.408V202.384H272.279C271.495 202.384 270.863 202.48 270.383 202.672C269.903 202.848 269.559 203.096 269.351 203.416C269.143 203.736 269.039 204.104 269.039 204.52C269.039 204.936 269.135 205.304 269.327 205.624C269.535 205.928 269.831 206.168 270.215 206.344C270.615 206.504 271.095 206.584 271.655 206.584ZM280.39 208V196.096H282.214L282.334 198.232C282.718 197.48 283.27 196.888 283.99 196.456C284.71 196.024 285.526 195.808 286.438 195.808C287.382 195.808 288.198 196 288.886 196.384C289.574 196.752 290.11 197.328 290.494 198.112C290.878 198.88 291.07 199.856 291.07 201.04V208H289.054V201.256C289.054 200.024 288.79 199.096 288.262 198.472C287.734 197.848 286.974 197.536 285.982 197.536C285.294 197.536 284.678 197.704 284.134 198.04C283.606 198.376 283.182 198.864 282.862 199.504C282.558 200.128 282.406 200.904 282.406 201.832V208H280.39ZM299.525 208.288C298.341 208.288 297.301 208.016 296.405 207.472C295.525 206.928 294.837 206.184 294.341 205.24C293.861 204.296 293.621 203.224 293.621 202.024C293.621 200.824 293.861 199.76 294.341 198.832C294.837 197.888 295.533 197.152 296.429 196.624C297.325 196.08 298.365 195.808 299.549 195.808C300.525 195.808 301.389 196.008 302.141 196.408C302.909 196.808 303.493 197.368 303.893 198.088V190.72H305.909V208H304.085L303.893 206.032C303.637 206.416 303.309 206.784 302.909 207.136C302.509 207.472 302.029 207.752 301.469 207.976C300.909 208.184 300.261 208.288 299.525 208.288ZM299.741 206.536C300.541 206.536 301.245 206.352 301.853 205.984C302.477 205.6 302.957 205.072 303.293 204.4C303.645 203.728 303.821 202.944 303.821 202.048C303.821 201.152 303.645 200.368 303.293 199.696C302.957 199.024 302.477 198.504 301.853 198.136C301.245 197.752 300.541 197.56 299.741 197.56C298.957 197.56 298.253 197.752 297.629 198.136C297.021 198.504 296.541 199.024 296.189 199.696C295.853 200.368 295.685 201.152 295.685 202.048C295.685 202.944 295.853 203.728 296.189 204.4C296.541 205.072 297.021 205.6 297.629 205.984C298.253 206.352 298.957 206.536 299.741 206.536ZM38.656 240V228.096H40.48L40.648 230.4C40.904 229.856 41.24 229.392 41.656 229.008C42.072 228.624 42.568 228.328 43.144 228.12C43.72 227.912 44.376 227.808 45.112 227.808V229.92H44.56C44.032 229.92 43.528 229.992 43.048 230.136C42.584 230.264 42.168 230.48 41.8 230.784C41.448 231.088 41.168 231.504 40.96 232.032C40.768 232.56 40.672 233.216 40.672 234V240H38.656ZM52.2814 240.288C51.1454 240.288 50.1374 240.032 49.2574 239.52C48.3774 238.992 47.6814 238.264 47.1694 237.336C46.6734 236.392 46.4254 235.296 46.4254 234.048C46.4254 232.784 46.6734 231.688 47.1694 230.76C47.6654 229.832 48.3534 229.112 49.2334 228.6C50.1294 228.072 51.1614 227.808 52.3294 227.808C53.4974 227.808 54.4974 228.072 55.3294 228.6C56.1614 229.112 56.8014 229.792 57.2494 230.64C57.6974 231.472 57.9214 232.384 57.9214 233.376C57.9214 233.536 57.9214 233.712 57.9214 233.904C57.9214 234.08 57.9134 234.28 57.8974 234.504H47.9374V232.944H55.9294C55.8814 231.872 55.5134 231.032 54.8254 230.424C54.1534 229.816 53.3054 229.512 52.2814 229.512C51.5934 229.512 50.9534 229.664 50.3614 229.968C49.7694 230.272 49.2894 230.72 48.9214 231.312C48.5694 231.888 48.3934 232.616 48.3934 233.496V234.168C48.3934 235.144 48.5774 235.96 48.9454 236.616C49.3134 237.272 49.7934 237.768 50.3854 238.104C50.9774 238.424 51.6094 238.584 52.2814 238.584C53.1134 238.584 53.8094 238.392 54.3694 238.008C54.9294 237.624 55.3374 237.104 55.5934 236.448H57.5854C57.3774 237.184 57.0334 237.84 56.5534 238.416C56.0734 238.992 55.4734 239.448 54.7534 239.784C54.0494 240.12 53.2254 240.288 52.2814 240.288ZM66.0655 240.288C64.9295 240.288 63.9055 240.032 62.9935 239.52C62.0975 238.992 61.3855 238.264 60.8575 237.336C60.3455 236.392 60.0895 235.296 60.0895 234.048C60.0895 232.8 60.3455 231.712 60.8575 230.784C61.3855 229.84 62.0975 229.112 62.9935 228.6C63.9055 228.072 64.9295 227.808 66.0655 227.808C67.4895 227.808 68.6815 228.176 69.6415 228.912C70.6015 229.648 71.2095 230.632 71.4655 231.864H69.4015C69.2415 231.128 68.8495 230.56 68.2255 230.16C67.6015 229.744 66.8735 229.536 66.0415 229.536C65.3695 229.536 64.7375 229.704 64.1455 230.04C63.5535 230.376 63.0735 230.88 62.7055 231.552C62.3375 232.224 62.1535 233.056 62.1535 234.048C62.1535 234.784 62.2575 235.44 62.4655 236.016C62.6895 236.576 62.9775 237.048 63.3295 237.432C63.6975 237.816 64.1135 238.104 64.5775 238.296C65.0575 238.488 65.5455 238.584 66.0415 238.584C66.6015 238.584 67.1135 238.496 67.5775 238.32C68.0415 238.128 68.4335 237.856 68.7535 237.504C69.0735 237.152 69.2895 236.728 69.4015 236.232H71.4655C71.2095 237.432 70.6015 238.408 69.6415 239.16C68.6815 239.912 67.4895 240.288 66.0655 240.288ZM74.281 240V228.096H76.105L76.273 230.4C76.529 229.856 76.865 229.392 77.281 229.008C77.697 228.624 78.193 228.328 78.769 228.12C79.345 227.912 80.001 227.808 80.737 227.808V229.92H80.185C79.657 229.92 79.153 229.992 78.673 230.136C78.209 230.264 77.793 230.48 77.425 230.784C77.073 231.088 76.793 231.504 76.585 232.032C76.393 232.56 76.297 233.216 76.297 234V240H74.281ZM87.9064 240.288C86.7704 240.288 85.7624 240.032 84.8824 239.52C84.0024 238.992 83.3064 238.264 82.7944 237.336C82.2984 236.392 82.0504 235.296 82.0504 234.048C82.0504 232.784 82.2984 231.688 82.7944 230.76C83.2904 229.832 83.9784 229.112 84.8584 228.6C85.7544 228.072 86.7864 227.808 87.9544 227.808C89.1224 227.808 90.1224 228.072 90.9544 228.6C91.7864 229.112 92.4264 229.792 92.8744 230.64C93.3224 231.472 93.5464 232.384 93.5464 233.376C93.5464 233.536 93.5464 233.712 93.5464 233.904C93.5464 234.08 93.5384 234.28 93.5224 234.504H83.5624V232.944H91.5544C91.5064 231.872 91.1384 231.032 90.4504 230.424C89.7784 229.816 88.9304 229.512 87.9064 229.512C87.2184 229.512 86.5784 229.664 85.9864 229.968C85.3944 230.272 84.9144 230.72 84.5464 231.312C84.1944 231.888 84.0184 232.616 84.0184 233.496V234.168C84.0184 235.144 84.2024 235.96 84.5704 236.616C84.9384 237.272 85.4184 237.768 86.0104 238.104C86.6024 238.424 87.2344 238.584 87.9064 238.584C88.7384 238.584 89.4344 238.392 89.9944 238.008C90.5544 237.624 90.9624 237.104 91.2184 236.448H93.2104C93.0024 237.184 92.6584 237.84 92.1784 238.416C91.6984 238.992 91.0984 239.448 90.3784 239.784C89.6744 240.12 88.8504 240.288 87.9064 240.288ZM100.179 240.288C99.1865 240.288 98.3625 240.12 97.7065 239.784C97.0505 239.448 96.5625 239 96.2425 238.44C95.9225 237.88 95.7625 237.272 95.7625 236.616C95.7625 235.8 95.9705 235.112 96.3865 234.552C96.8185 233.992 97.4185 233.568 98.1865 233.28C98.9705 232.976 99.8905 232.824 100.947 232.824H104.163C104.163 232.088 104.043 231.48 103.803 231C103.563 230.504 103.219 230.136 102.771 229.896C102.323 229.64 101.787 229.512 101.163 229.512C100.379 229.512 99.6985 229.712 99.1225 230.112C98.5465 230.496 98.1945 231.064 98.0665 231.816H96.0025C96.0985 230.952 96.3945 230.224 96.8905 229.632C97.3865 229.04 98.0105 228.592 98.7625 228.288C99.5305 227.968 100.331 227.808 101.163 227.808C102.267 227.808 103.187 228.016 103.923 228.432C104.675 228.832 105.235 229.4 105.603 230.136C105.987 230.856 106.179 231.704 106.179 232.68V240H104.379L104.259 237.864C104.099 238.2 103.891 238.52 103.635 238.824C103.395 239.112 103.107 239.368 102.771 239.592C102.451 239.8 102.075 239.968 101.643 240.096C101.211 240.224 100.723 240.288 100.179 240.288ZM100.491 238.584C101.067 238.584 101.579 238.472 102.027 238.248C102.491 238.008 102.883 237.688 103.203 237.288C103.523 236.888 103.763 236.44 103.923 235.944C104.083 235.448 104.163 234.936 104.163 234.408V234.384H101.115C100.331 234.384 99.6985 234.48 99.2185 234.672C98.7385 234.848 98.3945 235.096 98.1865 235.416C97.9785 235.736 97.8745 236.104 97.8745 236.52C97.8745 236.936 97.9705 237.304 98.1625 237.624C98.3705 237.928 98.6665 238.168 99.0505 238.344C99.4505 238.504 99.9305 238.584 100.491 238.584ZM113.602 240C112.882 240 112.258 239.888 111.73 239.664C111.202 239.44 110.794 239.064 110.506 238.536C110.234 237.992 110.098 237.264 110.098 236.352V229.8H108.034V228.096H110.098L110.362 225.24H112.114V228.096H115.618V229.8H112.114V236.352C112.114 237.104 112.266 237.616 112.57 237.888C112.874 238.144 113.41 238.272 114.178 238.272H115.426V240H113.602ZM118.395 240V228.096H120.411V240H118.395ZM119.403 225.456C119.003 225.456 118.667 225.328 118.395 225.072C118.139 224.8 118.011 224.464 118.011 224.064C118.011 223.664 118.139 223.344 118.395 223.104C118.667 222.848 119.003 222.72 119.403 222.72C119.787 222.72 120.115 222.848 120.387 223.104C120.659 223.344 120.795 223.664 120.795 224.064C120.795 224.464 120.659 224.8 120.387 225.072C120.115 225.328 119.787 225.456 119.403 225.456ZM129.346 240.288C128.226 240.288 127.218 240.032 126.322 239.52C125.426 239.008 124.714 238.288 124.186 237.36C123.674 236.416 123.418 235.312 123.418 234.048C123.418 232.784 123.682 231.688 124.21 230.76C124.738 229.816 125.45 229.088 126.346 228.576C127.258 228.064 128.274 227.808 129.394 227.808C130.514 227.808 131.522 228.064 132.418 228.576C133.314 229.088 134.018 229.816 134.53 230.76C135.058 231.688 135.322 232.784 135.322 234.048C135.322 235.312 135.058 236.416 134.53 237.36C134.002 238.288 133.282 239.008 132.37 239.52C131.474 240.032 130.466 240.288 129.346 240.288ZM129.346 238.56C130.034 238.56 130.674 238.392 131.266 238.056C131.858 237.72 132.338 237.216 132.706 236.544C133.074 235.872 133.258 235.04 133.258 234.048C133.258 233.04 133.074 232.208 132.706 231.552C132.354 230.88 131.882 230.376 131.29 230.04C130.698 229.704 130.066 229.536 129.394 229.536C128.722 229.536 128.082 229.704 127.474 230.04C126.882 230.376 126.402 230.88 126.034 231.552C125.666 232.208 125.482 233.04 125.482 234.048C125.482 235.04 125.666 235.872 126.034 236.544C126.402 237.216 126.874 237.72 127.45 238.056C128.042 238.392 128.674 238.56 129.346 238.56ZM138.125 240V228.096H139.949L140.069 230.232C140.453 229.48 141.005 228.888 141.725 228.456C142.445 228.024 143.261 227.808 144.173 227.808C145.117 227.808 145.933 228 146.621 228.384C147.309 228.752 147.845 229.328 148.229 230.112C148.613 230.88 148.805 231.856 148.805 233.04V240H146.789V233.256C146.789 232.024 146.525 231.096 145.997 230.472C145.469 229.848 144.709 229.536 143.717 229.536C143.029 229.536 142.413 229.704 141.869 230.04C141.341 230.376 140.917 230.864 140.597 231.504C140.293 232.128 140.141 232.904 140.141 233.832V240H138.125ZM155.819 240.288C154.827 240.288 154.003 240.12 153.347 239.784C152.691 239.448 152.203 239 151.883 238.44C151.563 237.88 151.403 237.272 151.403 236.616C151.403 235.8 151.611 235.112 152.027 234.552C152.459 233.992 153.059 233.568 153.827 233.28C154.611 232.976 155.531 232.824 156.587 232.824H159.803C159.803 232.088 159.683 231.48 159.443 231C159.203 230.504 158.859 230.136 158.411 229.896C157.963 229.64 157.427 229.512 156.803 229.512C156.019 229.512 155.339 229.712 154.763 230.112C154.187 230.496 153.835 231.064 153.707 231.816H151.643C151.739 230.952 152.035 230.224 152.531 229.632C153.027 229.04 153.651 228.592 154.403 228.288C155.171 227.968 155.971 227.808 156.803 227.808C157.907 227.808 158.827 228.016 159.563 228.432C160.315 228.832 160.875 229.4 161.243 230.136C161.627 230.856 161.819 231.704 161.819 232.68V240H160.019L159.899 237.864C159.739 238.2 159.531 238.52 159.275 238.824C159.035 239.112 158.747 239.368 158.411 239.592C158.091 239.8 157.715 239.968 157.283 240.096C156.851 240.224 156.363 240.288 155.819 240.288ZM156.131 238.584C156.707 238.584 157.219 238.472 157.667 238.248C158.131 238.008 158.523 237.688 158.843 237.288C159.163 236.888 159.403 236.44 159.563 235.944C159.723 235.448 159.803 234.936 159.803 234.408V234.384H156.755C155.971 234.384 155.339 234.48 154.859 234.672C154.379 234.848 154.035 235.096 153.827 235.416C153.619 235.736 153.515 236.104 153.515 236.52C153.515 236.936 153.611 237.304 153.803 237.624C154.011 237.928 154.307 238.168 154.691 238.344C155.091 238.504 155.571 238.584 156.131 238.584ZM164.867 240V222.72H166.883V240H164.867ZM176.539 240V228.096H178.363L178.531 230.4C178.787 229.856 179.123 229.392 179.539 229.008C179.955 228.624 180.451 228.328 181.027 228.12C181.603 227.912 182.259 227.808 182.995 227.808V229.92H182.443C181.915 229.92 181.411 229.992 180.931 230.136C180.467 230.264 180.051 230.48 179.683 230.784C179.331 231.088 179.051 231.504 178.843 232.032C178.651 232.56 178.555 233.216 178.555 234V240H176.539ZM185.474 240V228.096H187.49V240H185.474ZM186.482 225.456C186.082 225.456 185.746 225.328 185.474 225.072C185.218 224.8 185.09 224.464 185.09 224.064C185.09 223.664 185.218 223.344 185.474 223.104C185.746 222.848 186.082 222.72 186.482 222.72C186.866 222.72 187.194 222.848 187.466 223.104C187.738 223.344 187.874 223.664 187.874 224.064C187.874 224.464 187.738 224.8 187.466 225.072C187.194 225.328 186.866 225.456 186.482 225.456ZM196.4 240.288C195.216 240.288 194.176 240.016 193.28 239.472C192.4 238.928 191.712 238.184 191.216 237.24C190.736 236.296 190.496 235.224 190.496 234.024C190.496 232.824 190.736 231.76 191.216 230.832C191.712 229.888 192.408 229.152 193.304 228.624C194.2 228.08 195.24 227.808 196.424 227.808C197.4 227.808 198.264 228.008 199.016 228.408C199.784 228.808 200.368 229.368 200.768 230.088V222.72H202.784V240H200.96L200.768 238.032C200.512 238.416 200.184 238.784 199.784 239.136C199.384 239.472 198.904 239.752 198.344 239.976C197.784 240.184 197.136 240.288 196.4 240.288ZM196.616 238.536C197.416 238.536 198.12 238.352 198.728 237.984C199.352 237.6 199.832 237.072 200.168 236.4C200.52 235.728 200.696 234.944 200.696 234.048C200.696 233.152 200.52 232.368 200.168 231.696C199.832 231.024 199.352 230.504 198.728 230.136C198.12 229.752 197.416 229.56 196.616 229.56C195.832 229.56 195.128 229.752 194.504 230.136C193.896 230.504 193.416 231.024 193.064 231.696C192.728 232.368 192.56 233.152 192.56 234.048C192.56 234.944 192.728 235.728 193.064 236.4C193.416 237.072 193.896 237.6 194.504 237.984C195.128 238.352 195.832 238.536 196.616 238.536ZM206.31 240V228.096H208.326V240H206.31ZM207.318 225.456C206.918 225.456 206.582 225.328 206.31 225.072C206.054 224.8 205.926 224.464 205.926 224.064C205.926 223.664 206.054 223.344 206.31 223.104C206.582 222.848 206.918 222.72 207.318 222.72C207.702 222.72 208.03 222.848 208.302 223.104C208.574 223.344 208.71 223.664 208.71 224.064C208.71 224.464 208.574 224.8 208.302 225.072C208.03 225.328 207.702 225.456 207.318 225.456ZM211.836 240V228.096H213.66L213.78 230.232C214.164 229.48 214.716 228.888 215.436 228.456C216.156 228.024 216.972 227.808 217.884 227.808C218.828 227.808 219.644 228 220.332 228.384C221.02 228.752 221.556 229.328 221.94 230.112C222.324 230.88 222.516 231.856 222.516 233.04V240H220.5V233.256C220.5 232.024 220.236 231.096 219.708 230.472C219.18 229.848 218.42 229.536 217.428 229.536C216.74 229.536 216.124 229.704 215.58 230.04C215.052 230.376 214.628 230.864 214.308 231.504C214.004 232.128 213.852 232.904 213.852 233.832V240H211.836ZM230.298 245.568C229.226 245.568 228.274 245.424 227.442 245.136C226.61 244.864 225.962 244.44 225.498 243.864C225.034 243.288 224.802 242.576 224.802 241.728C224.802 241.376 224.874 240.992 225.018 240.576C225.178 240.176 225.442 239.776 225.81 239.376C226.194 238.976 226.73 238.616 227.418 238.296L228.762 239.112C227.946 239.464 227.41 239.864 227.154 240.312C226.898 240.76 226.77 241.168 226.77 241.536C226.77 242.064 226.922 242.504 227.226 242.856C227.53 243.208 227.946 243.472 228.474 243.648C229.018 243.824 229.626 243.912 230.298 243.912C230.97 243.912 231.546 243.808 232.026 243.6C232.522 243.408 232.906 243.136 233.178 242.784C233.45 242.432 233.586 242.016 233.586 241.536C233.586 241.024 233.378 240.576 232.962 240.192C232.562 239.824 231.794 239.608 230.658 239.544C229.714 239.48 228.922 239.392 228.282 239.28C227.658 239.168 227.138 239.04 226.722 238.896C226.306 238.736 225.954 238.56 225.666 238.368C225.394 238.176 225.146 237.976 224.922 237.768V237.216L227.25 234.888L228.954 235.512L226.602 237.696L226.914 236.88C227.09 237.008 227.258 237.128 227.418 237.24C227.578 237.336 227.794 237.424 228.066 237.504C228.338 237.584 228.714 237.656 229.194 237.72C229.674 237.784 230.314 237.848 231.114 237.912C232.186 237.992 233.05 238.184 233.706 238.488C234.362 238.792 234.834 239.2 235.122 239.712C235.426 240.208 235.578 240.792 235.578 241.464C235.578 242.152 235.386 242.808 235.002 243.432C234.634 244.056 234.058 244.568 233.274 244.968C232.506 245.368 231.514 245.568 230.298 245.568ZM230.274 236.256C229.266 236.256 228.41 236.072 227.706 235.704C227.002 235.32 226.466 234.808 226.098 234.168C225.73 233.528 225.546 232.816 225.546 232.032C225.546 231.248 225.73 230.544 226.098 229.92C226.466 229.28 227.002 228.768 227.706 228.384C228.41 228 229.266 227.808 230.274 227.808C231.282 227.808 232.138 228 232.842 228.384C233.546 228.768 234.082 229.28 234.45 229.92C234.818 230.544 235.002 231.248 235.002 232.032C235.002 232.816 234.818 233.528 234.45 234.168C234.082 234.808 233.546 235.32 232.842 235.704C232.138 236.072 231.282 236.256 230.274 236.256ZM230.274 234.6C231.122 234.6 231.794 234.384 232.29 233.952C232.802 233.504 233.058 232.864 233.058 232.032C233.058 231.216 232.802 230.592 232.29 230.16C231.794 229.712 231.122 229.488 230.274 229.488C229.426 229.488 228.746 229.712 228.234 230.16C227.722 230.592 227.466 231.216 227.466 232.032C227.466 232.864 227.722 233.504 228.234 233.952C228.746 234.384 229.426 234.6 230.274 234.6ZM232.194 229.8L231.594 228.096H236.538V229.608L232.194 229.8ZM237.204 242.952L238.596 237.648H240.684L238.596 242.952H237.204ZM254.781 240.288C253.645 240.288 252.637 240.032 251.757 239.52C250.877 238.992 250.181 238.264 249.669 237.336C249.173 236.392 248.925 235.296 248.925 234.048C248.925 232.784 249.173 231.688 249.669 230.76C250.165 229.832 250.853 229.112 251.733 228.6C252.629 228.072 253.661 227.808 254.829 227.808C255.997 227.808 256.997 228.072 257.829 228.6C258.661 229.112 259.301 229.792 259.749 230.64C260.197 231.472 260.421 232.384 260.421 233.376C260.421 233.536 260.421 233.712 260.421 233.904C260.421 234.08 260.413 234.28 260.397 234.504H250.437V232.944H258.429C258.381 231.872 258.013 231.032 257.325 230.424C256.653 229.816 255.805 229.512 254.781 229.512C254.093 229.512 253.453 229.664 252.861 229.968C252.269 230.272 251.789 230.72 251.421 231.312C251.069 231.888 250.893 232.616 250.893 233.496V234.168C250.893 235.144 251.077 235.96 251.445 236.616C251.813 237.272 252.293 237.768 252.885 238.104C253.477 238.424 254.109 238.584 254.781 238.584C255.613 238.584 256.309 238.392 256.869 238.008C257.429 237.624 257.837 237.104 258.093 236.448H260.085C259.877 237.184 259.533 237.84 259.053 238.416C258.573 238.992 257.973 239.448 257.253 239.784C256.549 240.12 255.725 240.288 254.781 240.288ZM267.654 240.288C266.71 240.288 265.862 240.128 265.11 239.808C264.358 239.472 263.75 239.008 263.286 238.416C262.838 237.808 262.558 237.096 262.446 236.28H264.51C264.606 236.696 264.782 237.08 265.038 237.432C265.31 237.784 265.662 238.064 266.094 238.272C266.542 238.48 267.07 238.584 267.678 238.584C268.254 238.584 268.718 238.504 269.07 238.344C269.438 238.168 269.71 237.944 269.886 237.672C270.062 237.384 270.15 237.08 270.15 236.76C270.15 236.28 270.03 235.92 269.79 235.68C269.566 235.424 269.23 235.224 268.782 235.08C268.334 234.936 267.798 234.8 267.174 234.672C266.694 234.576 266.206 234.448 265.71 234.288C265.214 234.128 264.758 233.928 264.342 233.688C263.942 233.432 263.614 233.12 263.358 232.752C263.118 232.368 262.998 231.904 262.998 231.36C262.998 230.672 263.174 230.064 263.526 229.536C263.878 228.992 264.374 228.568 265.014 228.264C265.67 227.96 266.438 227.808 267.318 227.808C268.582 227.808 269.614 228.12 270.414 228.744C271.23 229.368 271.702 230.272 271.83 231.456H269.838C269.774 230.848 269.518 230.376 269.07 230.04C268.638 229.688 268.046 229.512 267.294 229.512C266.558 229.512 265.998 229.664 265.614 229.968C265.23 230.272 265.038 230.672 265.038 231.168C265.038 231.472 265.15 231.744 265.374 231.984C265.598 232.208 265.918 232.4 266.334 232.56C266.766 232.72 267.27 232.864 267.846 232.992C268.598 233.152 269.302 233.352 269.958 233.592C270.614 233.816 271.15 234.16 271.566 234.624C271.998 235.072 272.214 235.728 272.214 236.592C272.23 237.312 272.046 237.952 271.662 238.512C271.294 239.072 270.766 239.512 270.078 239.832C269.406 240.136 268.598 240.288 267.654 240.288ZM275.094 245.28V228.096H276.918L277.11 230.064C277.366 229.68 277.694 229.32 278.094 228.984C278.494 228.632 278.974 228.352 279.534 228.144C280.094 227.92 280.742 227.808 281.478 227.808C282.662 227.808 283.694 228.08 284.574 228.624C285.454 229.168 286.134 229.912 286.614 230.856C287.11 231.8 287.358 232.872 287.358 234.072C287.358 235.272 287.11 236.344 286.614 237.288C286.134 238.216 285.446 238.952 284.55 239.496C283.67 240.024 282.638 240.288 281.454 240.288C280.478 240.288 279.614 240.088 278.862 239.688C278.11 239.288 277.526 238.728 277.11 238.008V245.28H275.094ZM281.238 238.536C282.038 238.536 282.742 238.352 283.35 237.984C283.974 237.6 284.454 237.072 284.79 236.4C285.142 235.728 285.318 234.944 285.318 234.048C285.318 233.152 285.142 232.368 284.79 231.696C284.454 231.024 283.974 230.504 283.35 230.136C282.742 229.752 282.038 229.56 281.238 229.56C280.438 229.56 279.726 229.752 279.102 230.136C278.494 230.504 278.014 231.024 277.662 231.696C277.326 232.368 277.158 233.152 277.158 234.048C277.158 234.944 277.326 235.728 277.662 236.4C278.014 237.072 278.494 237.6 279.102 237.984C279.726 238.352 280.438 238.536 281.238 238.536ZM295.516 240.288C294.38 240.288 293.372 240.032 292.492 239.52C291.612 238.992 290.916 238.264 290.404 237.336C289.908 236.392 289.66 235.296 289.66 234.048C289.66 232.784 289.908 231.688 290.404 230.76C290.9 229.832 291.588 229.112 292.468 228.6C293.364 228.072 294.396 227.808 295.564 227.808C296.732 227.808 297.732 228.072 298.564 228.6C299.396 229.112 300.036 229.792 300.484 230.64C300.932 231.472 301.156 232.384 301.156 233.376C301.156 233.536 301.156 233.712 301.156 233.904C301.156 234.08 301.148 234.28 301.132 234.504H291.172V232.944H299.164C299.116 231.872 298.748 231.032 298.06 230.424C297.388 229.816 296.54 229.512 295.516 229.512C294.828 229.512 294.188 229.664 293.596 229.968C293.004 230.272 292.524 230.72 292.156 231.312C291.804 231.888 291.628 232.616 291.628 233.496V234.168C291.628 235.144 291.812 235.96 292.18 236.616C292.548 237.272 293.028 237.768 293.62 238.104C294.212 238.424 294.844 238.584 295.516 238.584C296.348 238.584 297.044 238.392 297.604 238.008C298.164 237.624 298.572 237.104 298.828 236.448H300.82C300.612 237.184 300.268 237.84 299.788 238.416C299.308 238.992 298.708 239.448 297.988 239.784C297.284 240.12 296.46 240.288 295.516 240.288ZM309.3 240.288C308.164 240.288 307.14 240.032 306.228 239.52C305.332 238.992 304.62 238.264 304.092 237.336C303.58 236.392 303.324 235.296 303.324 234.048C303.324 232.8 303.58 231.712 304.092 230.784C304.62 229.84 305.332 229.112 306.228 228.6C307.14 228.072 308.164 227.808 309.3 227.808C310.724 227.808 311.916 228.176 312.876 228.912C313.836 229.648 314.444 230.632 314.7 231.864H312.636C312.476 231.128 312.084 230.56 311.46 230.16C310.836 229.744 310.108 229.536 309.276 229.536C308.604 229.536 307.972 229.704 307.38 230.04C306.788 230.376 306.308 230.88 305.94 231.552C305.572 232.224 305.388 233.056 305.388 234.048C305.388 234.784 305.492 235.44 305.7 236.016C305.924 236.576 306.212 237.048 306.564 237.432C306.932 237.816 307.348 238.104 307.812 238.296C308.292 238.488 308.78 238.584 309.276 238.584C309.836 238.584 310.348 238.496 310.812 238.32C311.276 238.128 311.668 237.856 311.988 237.504C312.308 237.152 312.524 236.728 312.636 236.232H314.7C314.444 237.432 313.836 238.408 312.876 239.16C311.916 239.912 310.724 240.288 309.3 240.288ZM317.731 240V228.096H319.747V240H317.731ZM318.739 225.456C318.339 225.456 318.003 225.328 317.731 225.072C317.475 224.8 317.347 224.464 317.347 224.064C317.347 223.664 317.475 223.344 317.731 223.104C318.003 222.848 318.339 222.72 318.739 222.72C319.123 222.72 319.451 222.848 319.723 223.104C319.995 223.344 320.131 223.664 320.131 224.064C320.131 224.464 319.995 224.8 319.723 225.072C319.451 225.328 319.123 225.456 318.739 225.456ZM327.218 240.288C326.226 240.288 325.402 240.12 324.746 239.784C324.09 239.448 323.602 239 323.282 238.44C322.962 237.88 322.802 237.272 322.802 236.616C322.802 235.8 323.01 235.112 323.426 234.552C323.858 233.992 324.458 233.568 325.226 233.28C326.01 232.976 326.93 232.824 327.986 232.824H331.202C331.202 232.088 331.082 231.48 330.842 231C330.602 230.504 330.258 230.136 329.81 229.896C329.362 229.64 328.826 229.512 328.202 229.512C327.418 229.512 326.738 229.712 326.162 230.112C325.586 230.496 325.234 231.064 325.106 231.816H323.042C323.138 230.952 323.434 230.224 323.93 229.632C324.426 229.04 325.05 228.592 325.802 228.288C326.57 227.968 327.37 227.808 328.202 227.808C329.306 227.808 330.226 228.016 330.962 228.432C331.714 228.832 332.274 229.4 332.642 230.136C333.026 230.856 333.218 231.704 333.218 232.68V240H331.418L331.298 237.864C331.138 238.2 330.93 238.52 330.674 238.824C330.434 239.112 330.146 239.368 329.81 239.592C329.49 239.8 329.114 239.968 328.682 240.096C328.25 240.224 327.762 240.288 327.218 240.288ZM327.53 238.584C328.106 238.584 328.618 238.472 329.066 238.248C329.53 238.008 329.922 237.688 330.242 237.288C330.562 236.888 330.802 236.44 330.962 235.944C331.122 235.448 331.202 234.936 331.202 234.408V234.384H328.154C327.37 234.384 326.738 234.48 326.258 234.672C325.778 234.848 325.434 235.096 325.226 235.416C325.018 235.736 324.914 236.104 324.914 236.52C324.914 236.936 325.01 237.304 325.202 237.624C325.41 237.928 325.706 238.168 326.09 238.344C326.49 238.504 326.97 238.584 327.53 238.584ZM336.265 240V222.72H338.281V240H336.265ZM341.586 240V222.72H343.602V240H341.586ZM348.202 245.28L351.178 238.656H350.482L345.73 228.096H347.914L351.874 237.168L356.026 228.096H358.114L350.314 245.28H348.202ZM366.81 240V228.096H368.826V240H366.81ZM367.818 225.456C367.418 225.456 367.082 225.328 366.81 225.072C366.554 224.8 366.426 224.464 366.426 224.064C366.426 223.664 366.554 223.344 366.81 223.104C367.082 222.848 367.418 222.72 367.818 222.72C368.202 222.72 368.53 222.848 368.802 223.104C369.074 223.344 369.21 223.664 369.21 224.064C369.21 224.464 369.074 224.8 368.802 225.072C368.53 225.328 368.202 225.456 367.818 225.456ZM372.336 240V228.096H374.16L374.28 230.232C374.664 229.48 375.216 228.888 375.936 228.456C376.656 228.024 377.472 227.808 378.384 227.808C379.328 227.808 380.144 228 380.832 228.384C381.52 228.752 382.056 229.328 382.44 230.112C382.824 230.88 383.016 231.856 383.016 233.04V240H381V233.256C381 232.024 380.736 231.096 380.208 230.472C379.68 229.848 378.92 229.536 377.928 229.536C377.24 229.536 376.624 229.704 376.08 230.04C375.552 230.376 375.128 230.864 374.808 231.504C374.504 232.128 374.352 232.904 374.352 233.832V240H372.336ZM42.616 272.288C41.624 272.288 40.8 272.12 40.144 271.784C39.488 271.448 39 271 38.68 270.44C38.36 269.88 38.2 269.272 38.2 268.616C38.2 267.8 38.408 267.112 38.824 266.552C39.256 265.992 39.856 265.568 40.624 265.28C41.408 264.976 42.328 264.824 43.384 264.824H46.6C46.6 264.088 46.48 263.48 46.24 263C46 262.504 45.656 262.136 45.208 261.896C44.76 261.64 44.224 261.512 43.6 261.512C42.816 261.512 42.136 261.712 41.56 262.112C40.984 262.496 40.632 263.064 40.504 263.816H38.44C38.536 262.952 38.832 262.224 39.328 261.632C39.824 261.04 40.448 260.592 41.2 260.288C41.968 259.968 42.768 259.808 43.6 259.808C44.704 259.808 45.624 260.016 46.36 260.432C47.112 260.832 47.672 261.4 48.04 262.136C48.424 262.856 48.616 263.704 48.616 264.68V272H46.816L46.696 269.864C46.536 270.2 46.328 270.52 46.072 270.824C45.832 271.112 45.544 271.368 45.208 271.592C44.888 271.8 44.512 271.968 44.08 272.096C43.648 272.224 43.16 272.288 42.616 272.288ZM42.928 270.584C43.504 270.584 44.016 270.472 44.464 270.248C44.928 270.008 45.32 269.688 45.64 269.288C45.96 268.888 46.2 268.44 46.36 267.944C46.52 267.448 46.6 266.936 46.6 266.408V266.384H43.552C42.768 266.384 42.136 266.48 41.656 266.672C41.176 266.848 40.832 267.096 40.624 267.416C40.416 267.736 40.312 268.104 40.312 268.52C40.312 268.936 40.408 269.304 40.6 269.624C40.808 269.928 41.104 270.168 41.488 270.344C41.888 270.504 42.368 270.584 42.928 270.584ZM51.6638 272V260.096H53.4878L53.6558 262.4C53.9118 261.856 54.2478 261.392 54.6638 261.008C55.0798 260.624 55.5758 260.328 56.1518 260.12C56.7278 259.912 57.3838 259.808 58.1198 259.808V261.92H57.5678C57.0398 261.92 56.5358 261.992 56.0558 262.136C55.5918 262.264 55.1758 262.48 54.8078 262.784C54.4558 263.088 54.1758 263.504 53.9678 264.032C53.7758 264.56 53.6798 265.216 53.6798 266V272H51.6638ZM65.2893 272.288C64.1533 272.288 63.1453 272.032 62.2653 271.52C61.3853 270.992 60.6893 270.264 60.1773 269.336C59.6813 268.392 59.4333 267.296 59.4333 266.048C59.4333 264.784 59.6813 263.688 60.1773 262.76C60.6733 261.832 61.3613 261.112 62.2413 260.6C63.1373 260.072 64.1693 259.808 65.3372 259.808C66.5053 259.808 67.5053 260.072 68.3373 260.6C69.1693 261.112 69.8093 261.792 70.2573 262.64C70.7053 263.472 70.9293 264.384 70.9293 265.376C70.9293 265.536 70.9293 265.712 70.9293 265.904C70.9293 266.08 70.9213 266.28 70.9053 266.504H60.9453V264.944H68.9373C68.8893 263.872 68.5213 263.032 67.8333 262.424C67.1613 261.816 66.3133 261.512 65.2893 261.512C64.6013 261.512 63.9613 261.664 63.3693 261.968C62.7773 262.272 62.2973 262.72 61.9293 263.312C61.5773 263.888 61.4013 264.616 61.4013 265.496V266.168C61.4013 267.144 61.5853 267.96 61.9533 268.616C62.3213 269.272 62.8013 269.768 63.3933 270.104C63.9853 270.424 64.6173 270.584 65.2893 270.584C66.1213 270.584 66.8173 270.392 67.3773 270.008C67.9373 269.624 68.3453 269.104 68.6013 268.448H70.5933C70.3853 269.184 70.0413 269.84 69.5613 270.416C69.0813 270.992 68.4813 271.448 67.7613 271.784C67.0573 272.12 66.2333 272.288 65.2893 272.288ZM77.5613 272.288C76.5693 272.288 75.7453 272.12 75.0893 271.784C74.4333 271.448 73.9453 271 73.6253 270.44C73.3053 269.88 73.1453 269.272 73.1453 268.616C73.1453 267.8 73.3533 267.112 73.7693 266.552C74.2013 265.992 74.8013 265.568 75.5693 265.28C76.3533 264.976 77.2733 264.824 78.3293 264.824H81.5453C81.5453 264.088 81.4253 263.48 81.1853 263C80.9453 262.504 80.6013 262.136 80.1533 261.896C79.7053 261.64 79.1693 261.512 78.5453 261.512C77.7613 261.512 77.0813 261.712 76.5053 262.112C75.9293 262.496 75.5773 263.064 75.4493 263.816H73.3853C73.4813 262.952 73.7773 262.224 74.2733 261.632C74.7693 261.04 75.3933 260.592 76.1453 260.288C76.9133 259.968 77.7133 259.808 78.5453 259.808C79.6493 259.808 80.5693 260.016 81.3053 260.432C82.0573 260.832 82.6173 261.4 82.9853 262.136C83.3693 262.856 83.5613 263.704 83.5613 264.68V272H81.7613L81.6413 269.864C81.4813 270.2 81.2733 270.52 81.0173 270.824C80.7773 271.112 80.4893 271.368 80.1533 271.592C79.8333 271.8 79.4573 271.968 79.0253 272.096C78.5933 272.224 78.1053 272.288 77.5613 272.288ZM77.8733 270.584C78.4493 270.584 78.9613 270.472 79.4093 270.248C79.8733 270.008 80.2653 269.688 80.5853 269.288C80.9053 268.888 81.1453 268.44 81.3053 267.944C81.4653 267.448 81.5453 266.936 81.5453 266.408V266.384H78.4973C77.7133 266.384 77.0813 266.48 76.6013 266.672C76.1213 266.848 75.7773 267.096 75.5693 267.416C75.3613 267.736 75.2573 268.104 75.2573 268.52C75.2573 268.936 75.3533 269.304 75.5453 269.624C75.7533 269.928 76.0493 270.168 76.4333 270.344C76.8333 270.504 77.3133 270.584 77.8733 270.584ZM91.1691 272.288C90.2251 272.288 89.3771 272.128 88.6251 271.808C87.8731 271.472 87.2651 271.008 86.8011 270.416C86.3531 269.808 86.0731 269.096 85.9611 268.28H88.0251C88.1211 268.696 88.2971 269.08 88.5531 269.432C88.8251 269.784 89.1771 270.064 89.6091 270.272C90.0571 270.48 90.5851 270.584 91.1931 270.584C91.7691 270.584 92.2331 270.504 92.5851 270.344C92.9531 270.168 93.2251 269.944 93.4011 269.672C93.5771 269.384 93.6651 269.08 93.6651 268.76C93.6651 268.28 93.5451 267.92 93.3051 267.68C93.0811 267.424 92.7451 267.224 92.2971 267.08C91.8491 266.936 91.3131 266.8 90.6891 266.672C90.2091 266.576 89.7211 266.448 89.2251 266.288C88.7291 266.128 88.2731 265.928 87.8571 265.688C87.4571 265.432 87.1291 265.12 86.8731 264.752C86.6331 264.368 86.5131 263.904 86.5131 263.36C86.5131 262.672 86.6891 262.064 87.0411 261.536C87.3931 260.992 87.8891 260.568 88.5291 260.264C89.1851 259.96 89.9531 259.808 90.8331 259.808C92.0971 259.808 93.1291 260.12 93.9291 260.744C94.7451 261.368 95.2171 262.272 95.3451 263.456H93.3531C93.2891 262.848 93.0331 262.376 92.5851 262.04C92.1531 261.688 91.5611 261.512 90.8091 261.512C90.0731 261.512 89.5131 261.664 89.1291 261.968C88.7451 262.272 88.5531 262.672 88.5531 263.168C88.5531 263.472 88.6651 263.744 88.8891 263.984C89.1131 264.208 89.4331 264.4 89.8491 264.56C90.2811 264.72 90.7851 264.864 91.3611 264.992C92.1131 265.152 92.8171 265.352 93.4731 265.592C94.1291 265.816 94.6651 266.16 95.0811 266.624C95.5131 267.072 95.7291 267.728 95.7291 268.592C95.7451 269.312 95.5611 269.952 95.1771 270.512C94.8091 271.072 94.2811 271.512 93.5931 271.832C92.9211 272.136 92.1131 272.288 91.1691 272.288ZM107.361 272L103.881 260.096H105.897L108.657 270.344L108.153 270.32L111.201 260.096H113.481L116.553 270.32L116.025 270.344L118.785 260.096H120.825L117.345 272H115.281L112.089 261.296H112.617L109.425 272H107.361ZM123.27 272V260.096H125.286V272H123.27ZM124.278 257.456C123.878 257.456 123.542 257.328 123.27 257.072C123.014 256.8 122.886 256.464 122.886 256.064C122.886 255.664 123.014 255.344 123.27 255.104C123.542 254.848 123.878 254.72 124.278 254.72C124.662 254.72 124.99 254.848 125.262 255.104C125.534 255.344 125.67 255.664 125.67 256.064C125.67 256.464 125.534 256.8 125.262 257.072C124.99 257.328 124.662 257.456 124.278 257.456ZM133.501 272C132.781 272 132.157 271.888 131.629 271.664C131.101 271.44 130.693 271.064 130.405 270.536C130.133 269.992 129.997 269.264 129.997 268.352V261.8H127.933V260.096H129.997L130.261 257.24H132.013V260.096H135.517V261.8H132.013V268.352C132.013 269.104 132.165 269.616 132.469 269.888C132.773 270.144 133.309 270.272 134.077 270.272H135.325V272H133.501ZM138.078 272V254.72H140.094V262.136C140.494 261.4 141.054 260.832 141.774 260.432C142.51 260.016 143.318 259.808 144.198 259.808C145.11 259.808 145.91 260 146.598 260.384C147.286 260.752 147.814 261.328 148.182 262.112C148.566 262.88 148.758 263.856 148.758 265.04V272H146.766V265.256C146.766 264.024 146.51 263.096 145.998 262.472C145.502 261.848 144.758 261.536 143.766 261.536C143.078 261.536 142.454 261.704 141.894 262.04C141.334 262.376 140.894 262.864 140.574 263.504C140.254 264.128 140.094 264.904 140.094 265.832V272H138.078ZM162.724 272.288C161.78 272.288 160.932 272.128 160.18 271.808C159.428 271.472 158.82 271.008 158.356 270.416C157.908 269.808 157.628 269.096 157.516 268.28H159.58C159.676 268.696 159.852 269.08 160.108 269.432C160.38 269.784 160.732 270.064 161.164 270.272C161.612 270.48 162.14 270.584 162.748 270.584C163.324 270.584 163.788 270.504 164.14 270.344C164.508 270.168 164.78 269.944 164.956 269.672C165.132 269.384 165.22 269.08 165.22 268.76C165.22 268.28 165.1 267.92 164.86 267.68C164.636 267.424 164.3 267.224 163.852 267.08C163.404 266.936 162.868 266.8 162.244 266.672C161.764 266.576 161.276 266.448 160.78 266.288C160.284 266.128 159.828 265.928 159.412 265.688C159.012 265.432 158.684 265.12 158.428 264.752C158.188 264.368 158.068 263.904 158.068 263.36C158.068 262.672 158.244 262.064 158.596 261.536C158.948 260.992 159.444 260.568 160.084 260.264C160.74 259.96 161.508 259.808 162.388 259.808C163.652 259.808 164.684 260.12 165.484 260.744C166.3 261.368 166.772 262.272 166.9 263.456H164.908C164.844 262.848 164.588 262.376 164.14 262.04C163.708 261.688 163.116 261.512 162.364 261.512C161.628 261.512 161.068 261.664 160.684 261.968C160.3 262.272 160.108 262.672 160.108 263.168C160.108 263.472 160.22 263.744 160.444 263.984C160.668 264.208 160.988 264.4 161.404 264.56C161.836 264.72 162.34 264.864 162.916 264.992C163.668 265.152 164.372 265.352 165.028 265.592C165.684 265.816 166.22 266.16 166.636 266.624C167.068 267.072 167.284 267.728 167.284 268.592C167.3 269.312 167.116 269.952 166.732 270.512C166.364 271.072 165.836 271.512 165.148 271.832C164.476 272.136 163.668 272.288 162.724 272.288ZM170.164 277.28V260.096H171.988L172.18 262.064C172.436 261.68 172.764 261.32 173.164 260.984C173.564 260.632 174.044 260.352 174.604 260.144C175.164 259.92 175.812 259.808 176.548 259.808C177.732 259.808 178.764 260.08 179.644 260.624C180.524 261.168 181.204 261.912 181.684 262.856C182.18 263.8 182.428 264.872 182.428 266.072C182.428 267.272 182.18 268.344 181.684 269.288C181.204 270.216 180.516 270.952 179.62 271.496C178.74 272.024 177.708 272.288 176.524 272.288C175.548 272.288 174.684 272.088 173.932 271.688C173.18 271.288 172.596 270.728 172.18 270.008V277.28H170.164ZM176.308 270.536C177.108 270.536 177.812 270.352 178.42 269.984C179.044 269.6 179.524 269.072 179.86 268.4C180.212 267.728 180.388 266.944 180.388 266.048C180.388 265.152 180.212 264.368 179.86 263.696C179.524 263.024 179.044 262.504 178.42 262.136C177.812 261.752 177.108 261.56 176.308 261.56C175.508 261.56 174.796 261.752 174.172 262.136C173.564 262.504 173.084 263.024 172.732 263.696C172.396 264.368 172.228 265.152 172.228 266.048C172.228 266.944 172.396 267.728 172.732 268.4C173.084 269.072 173.564 269.6 174.172 269.984C174.796 270.352 175.508 270.536 176.308 270.536ZM190.586 272.288C189.45 272.288 188.442 272.032 187.562 271.52C186.682 270.992 185.986 270.264 185.474 269.336C184.978 268.392 184.73 267.296 184.73 266.048C184.73 264.784 184.978 263.688 185.474 262.76C185.97 261.832 186.658 261.112 187.538 260.6C188.434 260.072 189.466 259.808 190.634 259.808C191.802 259.808 192.802 260.072 193.634 260.6C194.466 261.112 195.106 261.792 195.554 262.64C196.002 263.472 196.226 264.384 196.226 265.376C196.226 265.536 196.226 265.712 196.226 265.904C196.226 266.08 196.218 266.28 196.202 266.504H186.242V264.944H194.234C194.186 263.872 193.818 263.032 193.13 262.424C192.458 261.816 191.61 261.512 190.586 261.512C189.898 261.512 189.258 261.664 188.666 261.968C188.074 262.272 187.594 262.72 187.226 263.312C186.874 263.888 186.698 264.616 186.698 265.496V266.168C186.698 267.144 186.882 267.96 187.25 268.616C187.618 269.272 188.098 269.768 188.69 270.104C189.282 270.424 189.914 270.584 190.586 270.584C191.418 270.584 192.114 270.392 192.674 270.008C193.234 269.624 193.642 269.104 193.898 268.448H195.89C195.682 269.184 195.338 269.84 194.858 270.416C194.378 270.992 193.778 271.448 193.058 271.784C192.354 272.12 191.53 272.288 190.586 272.288ZM204.25 272.288C203.114 272.288 202.106 272.032 201.226 271.52C200.346 270.992 199.65 270.264 199.138 269.336C198.642 268.392 198.394 267.296 198.394 266.048C198.394 264.784 198.642 263.688 199.138 262.76C199.634 261.832 200.322 261.112 201.202 260.6C202.098 260.072 203.13 259.808 204.298 259.808C205.466 259.808 206.466 260.072 207.298 260.6C208.13 261.112 208.77 261.792 209.218 262.64C209.666 263.472 209.89 264.384 209.89 265.376C209.89 265.536 209.89 265.712 209.89 265.904C209.89 266.08 209.882 266.28 209.866 266.504H199.906V264.944H207.898C207.85 263.872 207.482 263.032 206.794 262.424C206.122 261.816 205.274 261.512 204.25 261.512C203.562 261.512 202.922 261.664 202.33 261.968C201.738 262.272 201.258 262.72 200.89 263.312C200.538 263.888 200.362 264.616 200.362 265.496V266.168C200.362 267.144 200.546 267.96 200.914 268.616C201.282 269.272 201.762 269.768 202.354 270.104C202.946 270.424 203.578 270.584 204.25 270.584C205.082 270.584 205.778 270.392 206.338 270.008C206.898 269.624 207.306 269.104 207.562 268.448H209.554C209.346 269.184 209.002 269.84 208.522 270.416C208.042 270.992 207.442 271.448 206.722 271.784C206.018 272.12 205.194 272.288 204.25 272.288ZM217.962 272.288C216.778 272.288 215.738 272.016 214.842 271.472C213.962 270.928 213.274 270.184 212.778 269.24C212.298 268.296 212.058 267.224 212.058 266.024C212.058 264.824 212.298 263.76 212.778 262.832C213.274 261.888 213.97 261.152 214.866 260.624C215.762 260.08 216.802 259.808 217.986 259.808C218.962 259.808 219.826 260.008 220.578 260.408C221.346 260.808 221.93 261.368 222.33 262.088V254.72H224.346V272H222.522L222.33 270.032C222.074 270.416 221.746 270.784 221.346 271.136C220.946 271.472 220.466 271.752 219.906 271.976C219.346 272.184 218.698 272.288 217.962 272.288ZM218.178 270.536C218.978 270.536 219.682 270.352 220.29 269.984C220.914 269.6 221.394 269.072 221.73 268.4C222.082 267.728 222.258 266.944 222.258 266.048C222.258 265.152 222.082 264.368 221.73 263.696C221.394 263.024 220.914 262.504 220.29 262.136C219.682 261.752 218.978 261.56 218.178 261.56C217.394 261.56 216.69 261.752 216.066 262.136C215.458 262.504 214.978 263.024 214.626 263.696C214.29 264.368 214.122 265.152 214.122 266.048C214.122 266.944 214.29 267.728 214.626 268.4C214.978 269.072 215.458 269.6 216.066 269.984C216.69 270.352 217.394 270.536 218.178 270.536ZM234.008 272V254.72H236.024V272H234.008ZM239.544 272V260.096H241.56V272H239.544ZM240.552 257.456C240.152 257.456 239.816 257.328 239.544 257.072C239.288 256.8 239.16 256.464 239.16 256.064C239.16 255.664 239.288 255.344 239.544 255.104C239.816 254.848 240.152 254.72 240.552 254.72C240.936 254.72 241.264 254.848 241.536 255.104C241.808 255.344 241.944 255.664 241.944 256.064C241.944 256.464 241.808 256.8 241.536 257.072C241.264 257.328 240.936 257.456 240.552 257.456ZM245.07 272V260.096H246.894L247.038 261.824C247.422 261.184 247.934 260.688 248.574 260.336C249.214 259.984 249.934 259.808 250.734 259.808C251.358 259.808 251.926 259.896 252.438 260.072C252.95 260.232 253.398 260.488 253.782 260.84C254.182 261.176 254.502 261.608 254.742 262.136C255.158 261.4 255.734 260.832 256.47 260.432C257.206 260.016 257.99 259.808 258.822 259.808C259.766 259.808 260.59 260 261.294 260.384C261.998 260.752 262.542 261.328 262.926 262.112C263.31 262.88 263.502 263.856 263.502 265.04V272H261.51V265.256C261.51 264.024 261.262 263.096 260.766 262.472C260.27 261.848 259.558 261.536 258.63 261.536C257.99 261.536 257.414 261.704 256.902 262.04C256.406 262.376 256.014 262.864 255.726 263.504C255.438 264.128 255.294 264.904 255.294 265.832V272H253.278V265.256C253.278 264.024 253.03 263.096 252.534 262.472C252.038 261.848 251.326 261.536 250.398 261.536C249.774 261.536 249.206 261.704 248.694 262.04C248.198 262.376 247.806 262.864 247.518 263.504C247.23 264.128 247.086 264.904 247.086 265.832V272H245.07ZM266.755 272V260.096H268.771V272H266.755ZM267.763 257.456C267.363 257.456 267.027 257.328 266.755 257.072C266.499 256.8 266.371 256.464 266.371 256.064C266.371 255.664 266.499 255.344 266.755 255.104C267.027 254.848 267.363 254.72 267.763 254.72C268.147 254.72 268.475 254.848 268.747 255.104C269.019 255.344 269.155 255.664 269.155 256.064C269.155 256.464 269.019 256.8 268.747 257.072C268.475 257.328 268.147 257.456 267.763 257.456ZM276.985 272C276.265 272 275.641 271.888 275.113 271.664C274.585 271.44 274.177 271.064 273.889 270.536C273.617 269.992 273.481 269.264 273.481 268.352V261.8H271.417V260.096H273.481L273.745 257.24H275.497V260.096H279.001V261.8H275.497V268.352C275.497 269.104 275.649 269.616 275.953 269.888C276.257 270.144 276.793 270.272 277.561 270.272H278.809V272H276.985ZM286.122 272.288C285.178 272.288 284.33 272.128 283.578 271.808C282.826 271.472 282.218 271.008 281.754 270.416C281.306 269.808 281.026 269.096 280.914 268.28H282.978C283.074 268.696 283.25 269.08 283.506 269.432C283.778 269.784 284.13 270.064 284.562 270.272C285.01 270.48 285.538 270.584 286.146 270.584C286.722 270.584 287.186 270.504 287.538 270.344C287.906 270.168 288.178 269.944 288.354 269.672C288.53 269.384 288.618 269.08 288.618 268.76C288.618 268.28 288.498 267.92 288.258 267.68C288.034 267.424 287.698 267.224 287.25 267.08C286.802 266.936 286.266 266.8 285.642 266.672C285.162 266.576 284.674 266.448 284.178 266.288C283.682 266.128 283.226 265.928 282.81 265.688C282.41 265.432 282.082 265.12 281.826 264.752C281.586 264.368 281.466 263.904 281.466 263.36C281.466 262.672 281.642 262.064 281.994 261.536C282.346 260.992 282.842 260.568 283.482 260.264C284.138 259.96 284.906 259.808 285.786 259.808C287.05 259.808 288.082 260.12 288.882 260.744C289.698 261.368 290.17 262.272 290.298 263.456H288.306C288.242 262.848 287.986 262.376 287.538 262.04C287.106 261.688 286.514 261.512 285.762 261.512C285.026 261.512 284.466 261.664 284.082 261.968C283.698 262.272 283.506 262.672 283.506 263.168C283.506 263.472 283.618 263.744 283.842 263.984C284.066 264.208 284.386 264.4 284.802 264.56C285.234 264.72 285.738 264.864 286.314 264.992C287.066 265.152 287.77 265.352 288.426 265.592C289.082 265.816 289.618 266.16 290.034 266.624C290.466 267.072 290.682 267.728 290.682 268.592C290.698 269.312 290.514 269.952 290.13 270.512C289.762 271.072 289.234 271.512 288.546 271.832C287.874 272.136 287.066 272.288 286.122 272.288ZM294.258 272.12C293.858 272.12 293.522 271.992 293.25 271.736C292.994 271.464 292.866 271.136 292.866 270.752C292.866 270.368 292.994 270.048 293.25 269.792C293.522 269.52 293.858 269.384 294.258 269.384C294.658 269.384 294.986 269.52 295.242 269.792C295.498 270.048 295.626 270.368 295.626 270.752C295.626 271.136 295.498 271.464 295.242 271.736C294.986 271.992 294.658 272.12 294.258 272.12Z" fill="white"/>
<path d="M44.2308 164.288C42.9988 164.288 41.8788 164.04 40.8708 163.544C39.8628 163.048 39.0628 162.304 38.4708 161.312C37.8788 160.32 37.5828 159.056 37.5828 157.52V147.2H40.8228V157.544C40.8228 158.376 40.9588 159.08 41.2308 159.656C41.5028 160.216 41.9028 160.632 42.4308 160.904C42.9588 161.176 43.5748 161.312 44.2788 161.312C45.0148 161.312 45.6388 161.176 46.1508 160.904C46.6788 160.632 47.0788 160.216 47.3508 159.656C47.6388 159.08 47.7828 158.376 47.7828 157.544V147.2H51.0228V157.52C51.0228 159.056 50.7108 160.32 50.0868 161.312C49.4788 162.304 48.6628 163.048 47.6388 163.544C46.6148 164.04 45.4788 164.288 44.2308 164.288ZM54.5405 164V152.096H57.3965L57.6365 154.088C58.0045 153.4 58.5325 152.848 59.2205 152.432C59.9085 152.016 60.7325 151.808 61.6925 151.808C62.6845 151.808 63.5245 152.024 64.2125 152.456C64.9005 152.872 65.4285 153.488 65.7965 154.304C66.1645 155.12 66.3485 156.128 66.3485 157.328V164H63.1085V157.616C63.1085 156.624 62.9085 155.864 62.5085 155.336C62.1085 154.808 61.4765 154.544 60.6125 154.544C60.0685 154.544 59.5805 154.68 59.1485 154.952C58.7165 155.208 58.3805 155.584 58.1405 156.08C57.9005 156.56 57.7805 157.152 57.7805 157.856V164H54.5405ZM75.2347 164.288C74.1307 164.288 73.1307 164.016 72.2347 163.472C71.3547 162.928 70.6587 162.184 70.1467 161.24C69.6347 160.28 69.3787 159.208 69.3787 158.024C69.3787 156.824 69.6347 155.76 70.1467 154.832C70.6587 153.888 71.3547 153.152 72.2347 152.624C73.1307 152.08 74.1307 151.808 75.2347 151.808C76.1147 151.808 76.8827 151.976 77.5387 152.312C78.2107 152.632 78.7467 153.08 79.1467 153.656V146.72H82.3867V164H79.5067L79.1467 162.344C78.9067 162.696 78.6027 163.024 78.2347 163.328C77.8827 163.616 77.4587 163.848 76.9627 164.024C76.4667 164.2 75.8907 164.288 75.2347 164.288ZM75.9547 161.456C76.5947 161.456 77.1627 161.312 77.6587 161.024C78.1547 160.72 78.5387 160.312 78.8107 159.8C79.0987 159.288 79.2427 158.704 79.2427 158.048C79.2427 157.376 79.0987 156.784 78.8107 156.272C78.5387 155.76 78.1547 155.36 77.6587 155.072C77.1627 154.784 76.5947 154.64 75.9547 154.64C75.3307 154.64 74.7627 154.784 74.2507 155.072C73.7547 155.36 73.3707 155.76 73.0987 156.272C72.8267 156.784 72.6907 157.368 72.6907 158.024C72.6907 158.696 72.8267 159.288 73.0987 159.8C73.3707 160.312 73.7547 160.72 74.2507 161.024C74.7627 161.312 75.3307 161.456 75.9547 161.456ZM91.8247 164.288C90.6087 164.288 89.5287 164.032 88.5847 163.52C87.6567 163.008 86.9287 162.288 86.4007 161.36C85.8727 160.432 85.6087 159.368 85.6087 158.168C85.6087 156.92 85.8647 155.824 86.3767 154.88C86.9047 153.92 87.6327 153.168 88.5607 152.624C89.5047 152.08 90.6007 151.808 91.8487 151.808C93.0327 151.808 94.0727 152.064 94.9687 152.576C95.8807 153.088 96.5847 153.792 97.0807 154.688C97.5927 155.568 97.8487 156.568 97.8487 157.688C97.8487 157.848 97.8487 158.032 97.8487 158.24C97.8487 158.432 97.8327 158.632 97.8007 158.84H87.9367V156.848H94.5607C94.5127 156.128 94.2327 155.544 93.7207 155.096C93.2247 154.648 92.6007 154.424 91.8487 154.424C91.2887 154.424 90.7767 154.552 90.3127 154.808C89.8487 155.048 89.4807 155.416 89.2087 155.912C88.9367 156.408 88.8007 157.032 88.8007 157.784V158.48C88.8007 159.12 88.9287 159.68 89.1847 160.16C89.4407 160.64 89.7927 161.008 90.2407 161.264C90.7047 161.52 91.2247 161.648 91.8007 161.648C92.3927 161.648 92.8887 161.52 93.2887 161.264C93.6887 160.992 93.9927 160.648 94.2007 160.232H97.5127C97.2727 160.984 96.8887 161.672 96.3607 162.296C95.8327 162.904 95.1847 163.392 94.4167 163.76C93.6487 164.112 92.7847 164.288 91.8247 164.288ZM100.91 164V152.096H103.79L104.102 154.328C104.39 153.816 104.742 153.376 105.158 153.008C105.59 152.624 106.078 152.328 106.622 152.12C107.182 151.912 107.79 151.808 108.446 151.808V155.24H107.558C107.062 155.24 106.598 155.296 106.166 155.408C105.75 155.52 105.39 155.704 105.086 155.96C104.782 156.216 104.55 156.568 104.39 157.016C104.23 157.448 104.15 158 104.15 158.672V164H100.91ZM115.967 164.288C114.911 164.288 113.975 164.112 113.159 163.76C112.359 163.408 111.711 162.928 111.215 162.32C110.735 161.696 110.455 160.992 110.375 160.208H113.615C113.679 160.496 113.815 160.768 114.023 161.024C114.231 161.264 114.495 161.456 114.815 161.6C115.135 161.744 115.503 161.816 115.919 161.816C116.367 161.816 116.719 161.76 116.975 161.648C117.247 161.52 117.447 161.36 117.575 161.168C117.719 160.96 117.791 160.752 117.791 160.544C117.791 160.224 117.687 159.984 117.479 159.824C117.287 159.648 117.007 159.504 116.639 159.392C116.271 159.28 115.831 159.16 115.319 159.032C114.791 158.904 114.255 158.76 113.711 158.6C113.183 158.44 112.695 158.24 112.247 158C111.799 157.744 111.439 157.424 111.167 157.04C110.895 156.656 110.759 156.168 110.759 155.576C110.759 154.872 110.951 154.24 111.335 153.68C111.735 153.104 112.295 152.648 113.015 152.312C113.751 151.976 114.623 151.808 115.631 151.808C117.071 151.808 118.215 152.136 119.063 152.792C119.927 153.448 120.431 154.352 120.575 155.504H117.527C117.447 155.12 117.239 154.824 116.903 154.616C116.583 154.408 116.159 154.304 115.631 154.304C115.071 154.304 114.639 154.408 114.335 154.616C114.047 154.824 113.903 155.08 113.903 155.384C113.903 155.608 114.007 155.8 114.215 155.96C114.423 156.12 114.711 156.264 115.079 156.392C115.463 156.504 115.903 156.616 116.399 156.728C117.263 156.936 118.039 157.16 118.727 157.4C119.415 157.624 119.967 157.96 120.383 158.408C120.815 158.856 121.031 159.512 121.031 160.376C121.047 161.112 120.847 161.776 120.431 162.368C120.015 162.96 119.431 163.432 118.679 163.784C117.927 164.12 117.023 164.288 115.967 164.288ZM129.231 164C128.383 164 127.639 163.872 126.999 163.616C126.375 163.344 125.887 162.904 125.535 162.296C125.183 161.672 125.007 160.824 125.007 159.752V154.808H122.967V152.096H125.007L125.367 148.856H128.247V152.096H131.415V154.808H128.247V159.8C128.247 160.344 128.367 160.72 128.607 160.928C128.847 161.136 129.255 161.24 129.831 161.24H131.343V164H129.231ZM138.634 164.288C137.626 164.288 136.786 164.128 136.114 163.808C135.458 163.488 134.97 163.056 134.65 162.512C134.33 161.968 134.17 161.368 134.17 160.712C134.17 159.976 134.354 159.336 134.722 158.792C135.106 158.232 135.682 157.792 136.45 157.472C137.218 157.152 138.186 156.992 139.354 156.992H142.354C142.354 156.416 142.266 155.944 142.09 155.576C141.93 155.192 141.674 154.912 141.322 154.736C140.986 154.544 140.554 154.448 140.026 154.448C139.402 154.448 138.866 154.584 138.418 154.856C137.986 155.128 137.714 155.544 137.602 156.104H134.458C134.554 155.224 134.85 154.464 135.346 153.824C135.842 153.184 136.498 152.688 137.314 152.336C138.13 151.984 139.034 151.808 140.026 151.808C141.162 151.808 142.146 152 142.978 152.384C143.81 152.752 144.45 153.304 144.898 154.04C145.362 154.76 145.594 155.64 145.594 156.68V164H142.858L142.498 162.152C142.338 162.472 142.13 162.76 141.874 163.016C141.634 163.272 141.354 163.496 141.034 163.688C140.714 163.88 140.354 164.024 139.954 164.12C139.554 164.232 139.114 164.288 138.634 164.288ZM139.402 161.792C139.834 161.792 140.21 161.72 140.53 161.576C140.866 161.416 141.146 161.208 141.37 160.952C141.61 160.696 141.794 160.4 141.922 160.064C142.066 159.728 142.162 159.368 142.21 158.984H139.714C139.218 158.984 138.81 159.048 138.49 159.176C138.186 159.288 137.962 159.456 137.818 159.68C137.674 159.888 137.602 160.136 137.602 160.424C137.602 160.712 137.674 160.96 137.818 161.168C137.962 161.376 138.17 161.536 138.442 161.648C138.714 161.744 139.034 161.792 139.402 161.792ZM148.979 164V152.096H151.835L152.075 154.088C152.443 153.4 152.971 152.848 153.659 152.432C154.347 152.016 155.171 151.808 156.131 151.808C157.123 151.808 157.963 152.024 158.651 152.456C159.339 152.872 159.867 153.488 160.235 154.304C160.603 155.12 160.787 156.128 160.787 157.328V164H157.547V157.616C157.547 156.624 157.347 155.864 156.947 155.336C156.547 154.808 155.915 154.544 155.051 154.544C154.507 154.544 154.019 154.68 153.587 154.952C153.155 155.208 152.819 155.584 152.579 156.08C152.339 156.56 152.219 157.152 152.219 157.856V164H148.979ZM169.673 164.288C168.569 164.288 167.569 164.016 166.673 163.472C165.793 162.928 165.097 162.184 164.585 161.24C164.073 160.28 163.817 159.208 163.817 158.024C163.817 156.824 164.073 155.76 164.585 154.832C165.097 153.888 165.793 153.152 166.673 152.624C167.569 152.08 168.569 151.808 169.673 151.808C170.553 151.808 171.321 151.976 171.977 152.312C172.649 152.632 173.185 153.08 173.585 153.656V146.72H176.825V164H173.945L173.585 162.344C173.345 162.696 173.041 163.024 172.673 163.328C172.321 163.616 171.897 163.848 171.401 164.024C170.905 164.2 170.329 164.288 169.673 164.288ZM170.393 161.456C171.033 161.456 171.601 161.312 172.097 161.024C172.593 160.72 172.977 160.312 173.249 159.8C173.537 159.288 173.681 158.704 173.681 158.048C173.681 157.376 173.537 156.784 173.249 156.272C172.977 155.76 172.593 155.36 172.097 155.072C171.601 154.784 171.033 154.64 170.393 154.64C169.769 154.64 169.201 154.784 168.689 155.072C168.193 155.36 167.809 155.76 167.537 156.272C167.265 156.784 167.129 157.368 167.129 158.024C167.129 158.696 167.265 159.288 167.537 159.8C167.809 160.312 168.193 160.72 168.689 161.024C169.201 161.312 169.769 161.456 170.393 161.456ZM180.527 164V152.096H183.767V164H180.527ZM182.135 150.368C181.559 150.368 181.079 150.2 180.695 149.864C180.327 149.512 180.143 149.072 180.143 148.544C180.143 148.016 180.327 147.584 180.695 147.248C181.079 146.896 181.559 146.72 182.135 146.72C182.727 146.72 183.207 146.896 183.575 147.248C183.959 147.584 184.151 148.016 184.151 148.544C184.151 149.072 183.959 149.512 183.575 149.864C183.207 150.2 182.727 150.368 182.135 150.368ZM187.45 164V152.096H190.306L190.546 154.088C190.914 153.4 191.442 152.848 192.13 152.432C192.818 152.016 193.642 151.808 194.602 151.808C195.594 151.808 196.434 152.024 197.122 152.456C197.81 152.872 198.338 153.488 198.706 154.304C199.074 155.12 199.258 156.128 199.258 157.328V164H196.018V157.616C196.018 156.624 195.818 155.864 195.418 155.336C195.018 154.808 194.386 154.544 193.522 154.544C192.978 154.544 192.49 154.68 192.058 154.952C191.626 155.208 191.29 155.584 191.05 156.08C190.81 156.56 190.69 157.152 190.69 157.856V164H187.45ZM207.856 169.568C206.72 169.568 205.72 169.424 204.856 169.136C204.008 168.864 203.352 168.44 202.888 167.864C202.424 167.304 202.192 166.608 202.192 165.776C202.192 165.216 202.336 164.688 202.624 164.192C202.912 163.712 203.328 163.272 203.872 162.872C204.432 162.456 205.12 162.104 205.936 161.816L207.136 163.424C206.416 163.664 205.896 163.96 205.576 164.312C205.256 164.68 205.096 165.056 205.096 165.44C205.096 165.824 205.216 166.136 205.456 166.376C205.712 166.632 206.048 166.816 206.464 166.928C206.88 167.056 207.344 167.12 207.856 167.12C208.352 167.12 208.784 167.056 209.152 166.928C209.52 166.8 209.808 166.608 210.016 166.352C210.24 166.112 210.352 165.832 210.352 165.512C210.352 165.08 210.2 164.728 209.896 164.456C209.592 164.2 209 164.04 208.12 163.976C207.304 163.912 206.584 163.816 205.96 163.688C205.336 163.56 204.784 163.416 204.304 163.256C203.84 163.096 203.44 162.912 203.104 162.704C202.768 162.496 202.504 162.288 202.312 162.08V161.528L204.88 158.744L207.136 159.488L204.16 162.488L205.096 160.904C205.256 161.016 205.424 161.12 205.6 161.216C205.776 161.296 205.984 161.368 206.224 161.432C206.48 161.496 206.808 161.56 207.208 161.624C207.608 161.672 208.12 161.728 208.744 161.792C209.8 161.872 210.664 162.064 211.336 162.368C212.008 162.672 212.504 163.08 212.824 163.592C213.144 164.104 213.304 164.72 213.304 165.44C213.304 166.144 213.112 166.808 212.728 167.432C212.344 168.072 211.744 168.584 210.928 168.968C210.128 169.368 209.104 169.568 207.856 169.568ZM207.88 160.472C206.872 160.472 206 160.28 205.264 159.896C204.544 159.512 203.984 158.992 203.584 158.336C203.2 157.68 203.008 156.952 203.008 156.152C203.008 155.352 203.2 154.624 203.584 153.968C203.984 153.312 204.544 152.792 205.264 152.408C206 152.008 206.872 151.808 207.88 151.808C208.888 151.808 209.752 152.008 210.472 152.408C211.208 152.792 211.768 153.312 212.152 153.968C212.536 154.624 212.728 155.352 212.728 156.152C212.728 156.952 212.536 157.68 212.152 158.336C211.768 158.992 211.208 159.512 210.472 159.896C209.752 160.28 208.888 160.472 207.88 160.472ZM207.88 158C208.488 158 208.984 157.848 209.368 157.544C209.752 157.224 209.944 156.76 209.944 156.152C209.944 155.56 209.752 155.112 209.368 154.808C208.984 154.488 208.488 154.328 207.88 154.328C207.272 154.328 206.768 154.488 206.368 154.808C205.984 155.112 205.792 155.56 205.792 156.152C205.792 156.76 205.984 157.224 206.368 157.544C206.768 157.848 207.272 158 207.88 158ZM209.824 154.376L209.296 152.096H214.288V154.016L209.824 154.376ZM228.954 164C228.106 164 227.362 163.872 226.722 163.616C226.098 163.344 225.61 162.904 225.258 162.296C224.906 161.672 224.73 160.824 224.73 159.752V154.808H222.69V152.096H224.73L225.09 148.856H227.97V152.096H231.138V154.808H227.97V159.8C227.97 160.344 228.09 160.72 228.33 160.928C228.57 161.136 228.978 161.24 229.554 161.24H231.066V164H228.954ZM234.253 164V146.72H237.493V153.872C237.877 153.248 238.405 152.752 239.077 152.384C239.749 152 240.533 151.808 241.429 151.808C242.421 151.808 243.261 152.024 243.949 152.456C244.637 152.872 245.157 153.488 245.509 154.304C245.877 155.12 246.061 156.128 246.061 157.328V164H242.845V157.616C242.845 156.624 242.645 155.864 242.245 155.336C241.861 154.808 241.229 154.544 240.349 154.544C239.805 154.544 239.317 154.68 238.885 154.952C238.453 155.208 238.109 155.584 237.853 156.08C237.613 156.56 237.493 157.152 237.493 157.856V164H234.253ZM255.307 164.288C254.091 164.288 253.011 164.032 252.067 163.52C251.139 163.008 250.411 162.288 249.883 161.36C249.355 160.432 249.091 159.368 249.091 158.168C249.091 156.92 249.347 155.824 249.859 154.88C250.387 153.92 251.115 153.168 252.043 152.624C252.987 152.08 254.083 151.808 255.331 151.808C256.515 151.808 257.555 152.064 258.451 152.576C259.363 153.088 260.067 153.792 260.563 154.688C261.075 155.568 261.331 156.568 261.331 157.688C261.331 157.848 261.331 158.032 261.331 158.24C261.331 158.432 261.315 158.632 261.283 158.84H251.419V156.848H258.043C257.995 156.128 257.715 155.544 257.203 155.096C256.707 154.648 256.083 154.424 255.331 154.424C254.771 154.424 254.259 154.552 253.795 154.808C253.331 155.048 252.963 155.416 252.691 155.912C252.419 156.408 252.283 157.032 252.283 157.784V158.48C252.283 159.12 252.411 159.68 252.667 160.16C252.923 160.64 253.275 161.008 253.723 161.264C254.187 161.52 254.707 161.648 255.283 161.648C255.875 161.648 256.371 161.52 256.771 161.264C257.171 160.992 257.475 160.648 257.683 160.232H260.995C260.755 160.984 260.371 161.672 259.843 162.296C259.315 162.904 258.667 163.392 257.899 163.76C257.131 164.112 256.267 164.288 255.307 164.288ZM270.545 164V147.2H276.377C278.329 147.2 279.945 147.552 281.225 148.256C282.505 148.944 283.449 149.92 284.057 151.184C284.681 152.432 284.993 153.904 284.993 155.6C284.993 157.296 284.681 158.776 284.057 160.04C283.449 161.288 282.505 162.264 281.225 162.968C279.961 163.656 278.345 164 276.377 164H270.545ZM273.785 161.216H276.209C277.585 161.216 278.673 160.992 279.473 160.544C280.273 160.096 280.841 159.456 281.177 158.624C281.513 157.776 281.681 156.768 281.681 155.6C281.681 154.416 281.513 153.408 281.177 152.576C280.841 151.728 280.273 151.08 279.473 150.632C278.673 150.184 277.585 149.96 276.209 149.96H273.785V161.216ZM288.206 164V152.096H291.446V164H288.206ZM289.814 150.368C289.238 150.368 288.758 150.2 288.374 149.864C288.006 149.512 287.822 149.072 287.822 148.544C287.822 148.016 288.006 147.584 288.374 147.248C288.758 146.896 289.238 146.72 289.814 146.72C290.406 146.72 290.886 146.896 291.254 147.248C291.638 147.584 291.83 148.016 291.83 148.544C291.83 149.072 291.638 149.512 291.254 149.864C290.886 150.2 290.406 150.368 289.814 150.368ZM295.657 164V150.824C295.657 149.816 295.825 149.016 296.161 148.424C296.497 147.832 296.977 147.4 297.601 147.128C298.225 146.856 298.961 146.72 299.809 146.72H301.153V149.48H300.313C299.801 149.48 299.433 149.584 299.209 149.792C299.001 149.984 298.897 150.328 298.897 150.824V164H295.657ZM294.025 154.808V152.096H301.393V154.808H294.025ZM304.856 164V150.824C304.856 149.816 305.024 149.016 305.36 148.424C305.696 147.832 306.176 147.4 306.8 147.128C307.424 146.856 308.16 146.72 309.008 146.72H310.352V149.48H309.512C309 149.48 308.632 149.584 308.408 149.792C308.2 149.984 308.096 150.328 308.096 150.824V164H304.856ZM303.224 154.808V152.096H310.592V154.808H303.224ZM318.89 164.288C317.674 164.288 316.594 164.032 315.65 163.52C314.722 163.008 313.994 162.288 313.466 161.36C312.938 160.432 312.674 159.368 312.674 158.168C312.674 156.92 312.93 155.824 313.442 154.88C313.97 153.92 314.698 153.168 315.626 152.624C316.57 152.08 317.666 151.808 318.914 151.808C320.098 151.808 321.138 152.064 322.034 152.576C322.946 153.088 323.65 153.792 324.146 154.688C324.658 155.568 324.914 156.568 324.914 157.688C324.914 157.848 324.914 158.032 324.914 158.24C324.914 158.432 324.898 158.632 324.866 158.84H315.002V156.848H321.626C321.578 156.128 321.298 155.544 320.786 155.096C320.29 154.648 319.666 154.424 318.914 154.424C318.354 154.424 317.842 154.552 317.378 154.808C316.914 155.048 316.546 155.416 316.274 155.912C316.002 156.408 315.866 157.032 315.866 157.784V158.48C315.866 159.12 315.994 159.68 316.25 160.16C316.506 160.64 316.858 161.008 317.306 161.264C317.77 161.52 318.29 161.648 318.866 161.648C319.458 161.648 319.954 161.52 320.354 161.264C320.754 160.992 321.058 160.648 321.266 160.232H324.578C324.338 160.984 323.954 161.672 323.426 162.296C322.898 162.904 322.25 163.392 321.482 163.76C320.714 164.112 319.85 164.288 318.89 164.288ZM327.975 164V152.096H330.855L331.167 154.328C331.455 153.816 331.807 153.376 332.223 153.008C332.655 152.624 333.143 152.328 333.687 152.12C334.247 151.912 334.855 151.808 335.511 151.808V155.24H334.623C334.127 155.24 333.663 155.296 333.231 155.408C332.815 155.52 332.455 155.704 332.151 155.96C331.847 156.216 331.615 156.568 331.455 157.016C331.295 157.448 331.215 158 331.215 158.672V164H327.975ZM343.733 164.288C342.517 164.288 341.437 164.032 340.493 163.52C339.565 163.008 338.837 162.288 338.309 161.36C337.781 160.432 337.517 159.368 337.517 158.168C337.517 156.92 337.773 155.824 338.285 154.88C338.813 153.92 339.541 153.168 340.469 152.624C341.413 152.08 342.509 151.808 343.757 151.808C344.941 151.808 345.981 152.064 346.877 152.576C347.789 153.088 348.493 153.792 348.989 154.688C349.501 155.568 349.757 156.568 349.757 157.688C349.757 157.848 349.757 158.032 349.757 158.24C349.757 158.432 349.741 158.632 349.709 158.84H339.845V156.848H346.469C346.421 156.128 346.141 155.544 345.629 155.096C345.133 154.648 344.509 154.424 343.757 154.424C343.197 154.424 342.685 154.552 342.221 154.808C341.757 155.048 341.389 155.416 341.117 155.912C340.845 156.408 340.709 157.032 340.709 157.784V158.48C340.709 159.12 340.837 159.68 341.093 160.16C341.349 160.64 341.701 161.008 342.149 161.264C342.613 161.52 343.133 161.648 343.709 161.648C344.301 161.648 344.797 161.52 345.197 161.264C345.597 160.992 345.901 160.648 346.109 160.232H349.421C349.181 160.984 348.797 161.672 348.269 162.296C347.741 162.904 347.093 163.392 346.325 163.76C345.557 164.112 344.693 164.288 343.733 164.288ZM352.818 164V152.096H355.674L355.914 154.088C356.282 153.4 356.81 152.848 357.498 152.432C358.186 152.016 359.01 151.808 359.97 151.808C360.962 151.808 361.802 152.024 362.49 152.456C363.178 152.872 363.706 153.488 364.074 154.304C364.442 155.12 364.626 156.128 364.626 157.328V164H361.386V157.616C361.386 156.624 361.186 155.864 360.786 155.336C360.386 154.808 359.754 154.544 358.89 154.544C358.346 154.544 357.858 154.68 357.426 154.952C356.994 155.208 356.658 155.584 356.418 156.08C356.178 156.56 356.058 157.152 356.058 157.856V164H352.818ZM373.92 164.288C372.704 164.288 371.624 164.024 370.68 163.496C369.736 162.952 368.992 162.216 368.448 161.288C367.92 160.344 367.656 159.264 367.656 158.048C367.656 156.832 367.92 155.76 368.448 154.832C368.992 153.888 369.736 153.152 370.68 152.624C371.624 152.08 372.704 151.808 373.92 151.808C375.456 151.808 376.752 152.208 377.808 153.008C378.864 153.808 379.528 154.912 379.8 156.32H376.392C376.248 155.776 375.952 155.352 375.504 155.048C375.056 154.728 374.52 154.568 373.896 154.568C373.352 154.568 372.856 154.712 372.408 155C371.96 155.272 371.608 155.672 371.352 156.2C371.096 156.712 370.968 157.328 370.968 158.048C370.968 158.592 371.04 159.08 371.184 159.512C371.344 159.928 371.552 160.288 371.808 160.592C372.08 160.896 372.392 161.128 372.744 161.288C373.096 161.448 373.48 161.528 373.896 161.528C374.312 161.528 374.688 161.464 375.024 161.336C375.36 161.192 375.648 160.992 375.888 160.736C376.128 160.464 376.296 160.144 376.392 159.776H379.8C379.528 161.152 378.864 162.248 377.808 163.064C376.752 163.88 375.456 164.288 373.92 164.288ZM388.884 164.288C387.668 164.288 386.588 164.032 385.644 163.52C384.716 163.008 383.988 162.288 383.46 161.36C382.932 160.432 382.668 159.368 382.668 158.168C382.668 156.92 382.924 155.824 383.436 154.88C383.964 153.92 384.692 153.168 385.62 152.624C386.564 152.08 387.66 151.808 388.908 151.808C390.092 151.808 391.132 152.064 392.028 152.576C392.94 153.088 393.644 153.792 394.14 154.688C394.652 155.568 394.908 156.568 394.908 157.688C394.908 157.848 394.908 158.032 394.908 158.24C394.908 158.432 394.892 158.632 394.86 158.84H384.996V156.848H391.62C391.572 156.128 391.292 155.544 390.78 155.096C390.284 154.648 389.66 154.424 388.908 154.424C388.348 154.424 387.836 154.552 387.372 154.808C386.908 155.048 386.54 155.416 386.268 155.912C385.996 156.408 385.86 157.032 385.86 157.784V158.48C385.86 159.12 385.988 159.68 386.244 160.16C386.5 160.64 386.852 161.008 387.3 161.264C387.764 161.52 388.284 161.648 388.86 161.648C389.452 161.648 389.948 161.52 390.348 161.264C390.748 160.992 391.052 160.648 391.26 160.232H394.572C394.332 160.984 393.948 161.672 393.42 162.296C392.892 162.904 392.244 163.392 391.476 163.76C390.708 164.112 389.844 164.288 388.884 164.288Z" fill="white"/>
</svg>
