<svg width="30" height="50" viewBox="0 0 30 50" fill="none" xmlns="http://www.w3.org/2000/svg">
<path d="M16.0267 21.9972C9.595 20.3868 7.52667 18.7217 7.52667 16.1285C7.52667 13.1532 10.3883 11.0787 15.1767 11.0787C20.22 11.0787 22.09 13.3989 22.26 16.8109H28.5217C28.3233 12.116 25.3483 7.80313 19.4267 6.41101V0.433105H10.9267V6.32912C5.43 7.47557 1.01 10.9149 1.01 16.1831C1.01 22.4886 6.42167 25.6277 14.3267 27.4565C21.41 29.0943 22.8267 31.4964 22.8267 34.035C22.8267 35.9184 21.4383 38.921 15.1767 38.921C9.34 38.921 7.045 36.4097 6.73333 33.1888H0.5C0.84 39.1667 5.48667 42.5241 10.9267 43.6433V49.5666H19.4267V43.6979C24.9517 42.6879 29.3433 39.6034 29.3433 34.0077C29.3433 26.2555 22.4583 23.6077 16.0267 21.9972Z" fill="#1C3A29"/>
</svg>
