<svg width="96" height="96" viewBox="0 0 96 96" fill="none" xmlns="http://www.w3.org/2000/svg">
<g clip-path="url(#clip0_7545_28175)">
<path d="M20 68C14.3333 68 9.584 66.084 5.752 62.252C1.92 58.42 0.0026694 53.6693 2.73038e-06 48C-0.00266394 42.3307 1.948 37.5813 5.852 33.752C9.756 29.9227 14.472 28.0053 20 28C25.1333 28 29.4507 29.5333 32.952 32.6C36.4533 35.6667 38.6693 39.4667 39.6 44H42.2L35 24H32C30.8667 24 29.9173 23.616 29.152 22.848C28.3867 22.08 28.0027 21.1307 28 20C27.9973 18.8693 28.3813 17.92 29.152 17.152C29.9227 16.384 30.872 16 32 16H44C45.1333 16 46.084 16.384 46.852 17.152C47.62 17.92 48.0027 18.8693 48 20C47.9973 21.1307 47.6133 22.0813 46.848 22.852C46.0827 23.6227 45.1333 24.0053 44 24H43.6L45 28H64.2L58.4 12H52C50.8667 12 49.9173 11.616 49.152 10.848C48.3867 10.08 48.0027 9.13067 48 8C47.9973 6.86933 48.3813 5.92 49.152 5.152C49.9227 4.384 50.872 4 52 4H58.4C60.1333 4 61.684 4.46667 63.052 5.4C64.42 6.33333 65.4027 7.6 66 9.2L72.8 27.8H76C81.5333 27.8 86.2507 29.7507 90.152 33.652C94.0533 37.5533 96.0027 42.2693 96 47.8C96 53.4 94.0667 58.1667 90.2 62.1C86.3333 66.0333 81.6 68 76 68C71.2 68 66.984 66.5 63.352 63.5C59.72 60.5 57.4027 56.6667 56.4 52H39.6C38.6667 56.6 36.4 60.4173 32.8 63.452C29.2 66.4867 24.9333 68.0027 20 68ZM20 60C22.7333 60 25.084 59.2507 27.052 57.752C29.02 56.2533 30.4027 54.336 31.2 52H24C22.8667 52 21.9173 51.616 21.152 50.848C20.3867 50.08 20.0027 49.1307 20 48C19.9973 46.8693 20.3813 45.92 21.152 45.152C21.9227 44.384 22.872 44 24 44H31.2C30.4 41.6 29.0173 39.6667 27.052 38.2C25.0867 36.7333 22.736 36 20 36C16.6 36 13.7507 37.1507 11.452 39.452C9.15334 41.7533 8.00267 44.6027 8 48C8 51.3333 9.15067 54.1667 11.452 56.5C13.7533 58.8333 16.6027 60 20 60ZM50.8 44H56.4C56.7333 42.4667 57.184 41.0333 57.752 39.7C58.32 38.3667 59.0693 37.1333 60 36H47.8L50.8 44ZM76 60C79.4 60 82.2507 58.8333 84.552 56.5C86.8533 54.1667 88.0027 51.3333 88 48C88 44.6 86.8507 41.7507 84.552 39.452C82.2533 37.1533 79.4027 36.0027 76 36H75.6L78.2 42.9C78.6 43.9667 78.5667 44.984 78.1 45.952C77.6333 46.92 76.8667 47.6027 75.8 48C74.7333 48.3973 73.7 48.364 72.7 47.9C71.7 47.436 71 46.6693 70.6 45.6L68.2 38.8C66.8667 39.9333 65.8333 41.2667 65.1 42.8C64.3667 44.3333 64 46.0667 64 48C64 51.3333 65.1507 54.1667 67.452 56.5C69.7533 58.8333 72.6027 60 76 60ZM52 84V88.8C52 89.5333 51.6827 90.1 51.048 90.5C50.4133 90.9 49.764 90.9333 49.1 90.6L31.8 81.9C31.3333 81.6333 31.1493 81.2493 31.248 80.748C31.3467 80.2467 31.664 79.9973 32.2 80H44V75.2C44 74.4667 44.3173 73.9 44.952 73.5C45.5867 73.1 46.236 73.0667 46.9 73.4L64.2 82.1C64.6667 82.3667 64.8507 82.7507 64.752 83.252C64.6533 83.7533 64.336 84.0027 63.8 84H52Z" fill="#BBD567"/>
</g>
<defs>
<clipPath id="clip0_7545_28175">
<rect width="96" height="96" fill="white"/>
</clipPath>
</defs>
</svg>
