<svg width="81" height="80" viewBox="0 0 81 80" fill="none" xmlns="http://www.w3.org/2000/svg">
<path fill-rule="evenodd" clip-rule="evenodd" d="M45.3464 12.2515C46.9568 12.5615 49.3092 13.3683 50.4438 15.642C52.9292 20.6227 50.8763 25.3567 48.6736 28.3004C47.2363 30.2207 45.3863 32.0276 43.2335 33.1344C42.7843 33.3678 41.8693 33.8012 40.8146 33.8012C38.8482 33.8012 36.9217 32.9044 35.3412 31.7842C35.0417 32.8044 34.7523 33.9245 34.5027 35.1114C34.0092 37.3885 33.7418 39.709 33.7042 42.039C37.2078 40.9055 40.7913 41.0255 43.879 42.7724C46.1996 40.9466 48.8684 39.6157 51.7214 38.8619C56.0469 37.7251 61.2375 37.8817 65.9522 41.0289C69.3294 43.2858 71.8881 47.5364 72.4038 52.1871C72.9429 57.0344 71.2626 62.3352 66.1818 66.4091C62.595 69.2828 57.1283 70.3929 52.0974 70.7963C46.8902 71.2164 41.3902 70.9297 37.1213 70.453C29.209 69.5728 23.1334 67.3592 18.8878 65.0755C16.1028 63.5753 12.2931 61.5017 11.0853 58.3246C10.2701 56.171 10.4831 53.5573 10.6827 51.317C10.9489 48.3799 11.601 44.7127 12.8221 40.7388C15.2577 32.8077 20.0257 23.4231 28.7133 16.2287C31.3851 14.0151 35.8569 12.6416 39.6001 12.1815C41.53 11.9448 43.5596 11.9115 45.3464 12.2515Z" fill="#1C3A29"/>
</svg>
