<svg width="22" height="22" viewBox="0 0 22 22" fill="none" xmlns="http://www.w3.org/2000/svg">
<g clip-path="url(#clip0_8123_14491)">
<path d="M19.4055 14.6663C19.8959 13.5434 20.1663 12.3013 20.1663 10.9997C20.1663 5.93509 16.0643 1.83301 10.9997 1.83301C5.93509 1.83301 1.83301 5.93509 1.83301 10.9997H10.9997L11.0043 14.6663C11.0043 16.4401 12.4388 17.8747 14.2126 17.8747C15.9863 17.8747 17.4209 16.4401 17.4209 14.6663H19.4055Z" stroke="black" stroke-width="2" stroke-miterlimit="2" stroke-linecap="round" stroke-linejoin="round"/>
<path d="M14.2077 15.5833C14.7118 15.5833 15.1243 15.1708 15.1243 14.6667C15.1243 14.1625 14.7118 13.75 14.2077 13.75C13.7035 13.75 13.291 14.1625 13.291 14.6667C13.291 15.1708 13.7035 15.5833 14.2077 15.5833Z" fill="black"/>
<path d="M11 14.666L2.75 16.4993C3.77208 17.9523 4.78958 19.4189 6.41667 20.166L11.9167 16.9577" stroke="black" stroke-width="2" stroke-miterlimit="2" stroke-linecap="round" stroke-linejoin="round"/>
</g>
<defs>
<clipPath id="clip0_8123_14491">
<rect width="22" height="22" fill="white"/>
</clipPath>
</defs>
</svg>
