<svg width="80" height="80" viewBox="0 0 80 80" fill="none" xmlns="http://www.w3.org/2000/svg">
<path fill-rule="evenodd" clip-rule="evenodd" d="M11.6667 16.6665C10.3407 16.6665 9.0689 17.1933 8.13121 18.131C7.19353 19.0687 6.66675 20.3404 6.66675 21.6665V58.3332C6.66675 59.6593 7.19353 60.931 8.13121 61.8687C9.0689 62.8064 10.3407 63.3332 11.6667 63.3332H68.3334C69.6595 63.3332 70.9313 62.8064 71.8689 61.8687C72.8066 60.931 73.3334 59.6593 73.3334 58.3332V21.6665C73.3334 20.3404 72.8066 19.0687 71.8689 18.131C70.9313 17.1933 69.6595 16.6665 68.3334 16.6665H11.6667ZM61.6668 33.3332C61.6668 35.1013 60.9644 36.797 59.7141 38.0472C58.4639 39.2975 56.7682 39.9998 55.0001 39.9998C53.232 39.9998 51.5363 39.2975 50.286 38.0472C49.0358 36.797 48.3334 35.1013 48.3334 33.3332C48.3334 31.5651 49.0358 29.8694 50.286 28.6191C51.5363 27.3689 53.232 26.6665 55.0001 26.6665C56.7682 26.6665 58.4639 27.3689 59.7141 28.6191C60.9644 29.8694 61.6668 31.5651 61.6668 33.3332ZM40.0001 31.6665H16.6667V28.3332H40.0001V31.6665ZM40.0001 38.3332H16.6667V34.9998H40.0001V38.3332ZM16.6667 44.9998H40.0001V41.6665H16.6667V44.9998ZM40.0001 51.6665H16.6667V48.3332H40.0001V51.6665ZM50.6534 42.4632C50.1697 42.3665 49.6706 42.3784 49.1921 42.4979C48.7135 42.6175 48.2675 42.8418 47.8861 43.1546C47.5048 43.4674 47.1976 43.861 46.9867 44.3069C46.7758 44.7528 46.6666 45.2399 46.6667 45.7332V53.3332H63.3334V45.7332C63.3336 45.2399 63.2243 44.7528 63.0135 44.3069C62.8026 43.861 62.4954 43.4674 62.114 43.1546C61.7327 42.8418 61.2866 42.6175 60.8081 42.4979C60.3295 42.3784 59.8304 42.3665 59.3468 42.4632L55.6534 43.2032C55.2221 43.2894 54.778 43.2894 54.3468 43.2032L50.6534 42.4632Z" fill="#E9FBFF"/>
</svg>
