<svg width="80" height="80" viewBox="0 0 80 80" fill="none" xmlns="http://www.w3.org/2000/svg">
<path d="M40.0001 10C35.7668 10 32.0001 12.6667 30.6001 16.6667H10.0001V23.3333H16.5001L6.66677 46.6667C5.1001 53.3333 10.0001 56.6667 18.3334 56.6667C26.6668 56.6667 31.8668 53.3333 30.0001 46.6667L20.1668 23.3333H30.5668C31.6668 26.1667 33.8334 28.3333 36.6668 29.4333V66.6667H6.66677V73.3333H73.3334V66.6667H43.3334V29.4C46.1668 28.3333 48.3334 26.1667 49.4001 23.3333H59.8334L50.0001 46.6667C48.4334 53.3333 53.3334 56.6667 61.6668 56.6667C70.0001 56.6667 75.2001 53.3333 73.3334 46.6667L63.5001 23.3333H70.0001V16.6667H49.4334C48.0001 12.6667 44.2334 10 40.0001 10ZM40.0001 16.6667C40.8842 16.6667 41.732 17.0179 42.3571 17.643C42.9822 18.2681 43.3334 19.1159 43.3334 20C43.3334 20.8841 42.9822 21.7319 42.3571 22.357C41.732 22.9821 40.8842 23.3333 40.0001 23.3333C39.116 23.3333 38.2682 22.9821 37.6431 22.357C37.018 21.7319 36.6668 20.8841 36.6668 20C36.6668 19.1159 37.018 18.2681 37.6431 17.643C38.2682 17.0179 39.116 16.6667 40.0001 16.6667ZM18.3334 34.1667L23.3334 46.6667H13.3334L18.3334 34.1667ZM61.6668 34.1667L66.6668 46.6667H56.6668L61.6668 34.1667Z" fill="#FF8500"/>
</svg>
