<svg width="114" height="114" viewBox="0 0 114 114" fill="none" xmlns="http://www.w3.org/2000/svg">
<path d="M49.8782 24.9375C49.8782 23.9927 50.2535 23.0865 50.9216 22.4184C51.5897 21.7503 52.4959 21.375 53.4407 21.375H61.3637C63.4003 21.3755 65.3943 21.9578 67.111 23.0535C68.8277 24.1492 70.1956 25.7125 71.0537 27.5595L73.4406 32.7038C75.3928 30.1459 78.478 28.5 81.9407 28.5H89.0657C90.0105 28.5 90.9167 28.8753 91.5848 29.5434C92.2529 30.2115 92.6282 31.1177 92.6282 32.0625V46.3125C92.6282 47.2573 92.2529 48.1635 91.5848 48.8316C90.9167 49.4997 90.0105 49.875 89.0657 49.875H81.9407C81.7602 49.875 81.5821 49.8703 81.4063 49.8608L84.9474 57.4845C86.268 57.1615 87.6407 57 89.0657 57C93.301 56.9996 97.3979 58.5084 100.621 61.2556C103.845 64.0028 105.984 67.8087 106.655 71.9905C107.326 76.1723 106.485 80.4564 104.283 84.0741C102.08 87.6919 98.6613 90.4066 94.6385 91.7313C90.6157 93.056 86.2525 92.9039 82.3317 91.3024C78.4109 89.7009 75.189 86.7547 73.2441 82.9924C71.2991 79.2301 70.7584 74.8979 71.7189 70.7729C72.6794 66.648 75.0782 63.0003 78.4851 60.4841L76.0198 55.176C74.4595 57.8959 72.2088 60.1558 69.4953 61.7271C66.7817 63.2984 63.7014 64.1256 60.5657 64.125H39.1907C40.7511 66.1912 41.8626 68.6138 42.397 71.25H62.4467C60.7875 73.4622 58.6361 75.2578 56.1627 76.4945C53.6893 77.7312 50.962 78.375 48.1967 78.375H42.397C41.7229 81.6771 40.1259 84.7203 37.7914 87.151C35.4568 89.5818 32.4806 91.3003 29.2084 92.1071C25.9361 92.9139 22.5022 92.7758 19.3053 91.7088C16.1084 90.6419 13.2798 88.6899 11.148 86.0795C9.0162 83.4692 7.66871 80.3076 7.26201 76.962C6.85532 73.6164 7.40611 70.224 8.85042 67.179C10.2947 64.1339 12.5733 61.5611 15.4214 59.7593C18.2696 57.9575 21.5705 57.0007 24.9407 57H40.5516L42.7532 52.5968C44.2325 49.638 46.5065 47.1497 49.3204 45.4105C52.1342 43.6714 55.3768 42.7501 58.6847 42.75H70.2557L64.5985 30.5662C64.3128 29.949 63.8564 29.4264 63.2832 29.0602C62.7099 28.6941 62.0439 28.4997 61.3637 28.5H53.4407C52.4959 28.5 51.5897 28.1247 50.9216 27.4566C50.2535 26.7885 49.8782 25.8823 49.8782 24.9375ZM85.8381 76.3088L81.5916 67.1745C79.7893 68.9375 78.6684 71.2809 78.4268 73.7904C78.1852 76.3 78.8386 78.8141 80.2715 80.8885C81.7044 82.9629 83.8244 84.464 86.257 85.1264C88.6896 85.7888 91.278 85.57 93.5648 84.5085C95.8516 83.4471 97.6896 81.6113 98.7538 79.3258C99.818 77.0403 100.04 74.4521 99.3805 72.0187C98.721 69.5854 97.2225 67.4635 95.1498 66.0281C93.0772 64.5928 90.5638 63.9363 88.0539 64.1749L92.2933 73.3091C92.656 74.1596 92.6737 75.1178 92.3429 75.9811C92.0121 76.8444 91.3586 77.5454 90.5205 77.9357C89.6824 78.3261 88.7253 78.3754 87.8515 78.0731C86.9778 77.7708 86.2558 77.1407 85.8381 76.3159M24.9407 64.125C22.1062 64.125 19.3878 65.251 17.3835 67.2553C15.3792 69.2596 14.2532 71.978 14.2532 74.8125C14.2532 77.647 15.3792 80.3654 17.3835 82.3697C19.3878 84.374 22.1062 85.5 24.9407 85.5C27.7752 85.5 30.4936 84.374 32.4979 82.3697C34.5022 80.3654 35.6282 77.647 35.6282 74.8125C35.6282 71.978 34.5022 69.2596 32.4979 67.2553C30.4936 65.251 27.7752 64.125 24.9407 64.125ZM78.3782 39.1875C78.3782 40.1323 78.7535 41.0385 79.4216 41.7066C80.0897 42.3747 80.9959 42.75 81.9407 42.75H85.5032V35.625H81.9407C80.9959 35.625 80.0897 36.0003 79.4216 36.6684C78.7535 37.3365 78.3782 38.2427 78.3782 39.1875Z" fill="#BBD567"/>
</svg>
