<svg width="69" height="69" viewBox="0 0 69 69" fill="none" xmlns="http://www.w3.org/2000/svg">
<path d="M34.5 0.361816C32.9077 0.361816 32.3769 1.6068 31.3154 2.85179L0.530769 61.9887C1.18636e-07 62.6112 0 63.8562 0 64.4787C0 67.5911 2.12308 68.8361 3.71538 68.8361H65.2846C67.4077 68.8361 69 67.5911 69 64.4787C69 63.2337 69 63.2337 68.4692 61.9887L38.2154 2.85179C37.1538 1.6068 36.0923 0.361816 34.5 0.361816ZM34.5 9.69922L52.0154 43.9364H47.7692L39.8077 34.599L34.5 43.9364L29.1923 34.599L21.2308 43.9364H16.4538L34.5 9.69922Z" fill="#1C3A29"/>
</svg>
