<svg width="159" height="159" viewBox="0 0 159 159" fill="none" xmlns="http://www.w3.org/2000/svg">
<path fill-rule="evenodd" clip-rule="evenodd" d="M135.3 138.6C135.3 107.967 123.131 78.5896 101.471 56.9292C79.8103 35.2687 50.4324 23.1 19.7999 23.1C18.9247 23.1 18.0853 22.7523 17.4664 22.1335C16.8476 21.5146 16.4999 20.6752 16.4999 19.8C16.4999 18.9248 16.8476 18.0854 17.4664 17.4665C18.0853 16.8477 18.9247 16.5 19.7999 16.5C52.1828 16.5 83.2394 29.3641 106.138 52.2623C129.036 75.1605 141.9 106.217 141.9 138.6C141.9 139.475 141.552 140.315 140.933 140.933C140.314 141.552 139.475 141.9 138.6 141.9C137.725 141.9 136.885 141.552 136.266 140.933C135.648 140.315 135.3 139.475 135.3 138.6Z" fill="#F9F9F9"/>
<path fill-rule="evenodd" clip-rule="evenodd" d="M108.095 126.641C107.765 124.181 107.332 121.747 106.795 119.338L113.24 117.912C113.814 120.507 114.28 123.124 114.636 125.757L108.095 126.641ZM102.399 105.184C100.543 100.595 98.3081 96.169 95.7168 91.9513L101.34 88.4995C104.123 93.0286 106.524 97.7816 108.518 102.709L102.399 105.184ZM86.9322 80.0152C83.6786 76.286 80.1199 72.8344 76.293 69.6961L80.4774 64.591C84.588 67.9621 88.4105 71.6698 91.9053 75.6757L86.9322 80.0152ZM64.0863 61.2811C59.7913 58.8217 55.2987 56.7245 50.6553 55.0111L52.9422 48.8203C57.9301 50.6597 62.756 52.9115 67.3699 55.5523L64.0863 61.2811ZM36.3729 51.0511C33.9425 50.5908 31.494 50.2319 29.0338 49.9753L29.7202 43.4116C32.3712 43.6888 34.998 44.0738 37.6006 44.5666L36.3729 51.0511ZM77.7285 114.606C80.8792 122.213 82.5007 130.366 82.5003 138.6C82.5003 139.475 82.1527 140.315 81.5338 140.934C80.9149 141.552 80.0756 141.9 79.2003 141.9C78.3251 141.9 77.4858 141.552 76.8669 140.934C76.248 140.315 75.9003 139.475 75.9003 138.6C75.9003 123.721 69.9898 109.452 59.469 98.9314C48.9482 88.4106 34.679 82.5001 19.8004 82.5001C18.9251 82.5001 18.0858 82.1524 17.4669 81.5336C16.848 80.9147 16.5004 80.0753 16.5004 79.2001C16.5004 78.3249 16.848 77.4855 17.4669 76.8667C18.0858 76.2478 18.9251 75.9001 19.8004 75.9001C32.2014 75.8999 44.324 79.5771 54.6352 86.4667C64.9463 93.3563 72.9829 103.149 77.7285 114.606Z" fill="#F9F9F9"/>
</svg>
