<svg width="96" height="96" viewBox="0 0 96 96" fill="none" xmlns="http://www.w3.org/2000/svg">
<path d="M48 76V60L36 48L56 32L64 44H76M8 72C8 75.1826 9.26428 78.2348 11.5147 80.4853C13.7652 82.7357 16.8174 84 20 84C23.1826 84 26.2348 82.7357 28.4853 80.4853C30.7357 78.2348 32 75.1826 32 72C32 68.8174 30.7357 65.7652 28.4853 63.5147C26.2348 61.2643 23.1826 60 20 60C16.8174 60 13.7652 61.2643 11.5147 63.5147C9.26428 65.7652 8 68.8174 8 72ZM64 72C64 75.1826 65.2643 78.2348 67.5147 80.4853C69.7652 82.7357 72.8174 84 76 84C79.1826 84 82.2348 82.7357 84.4853 80.4853C86.7357 78.2348 88 75.1826 88 72C88 68.8174 86.7357 65.7652 84.4853 63.5147C82.2348 61.2643 79.1826 60 76 60C72.8174 60 69.7652 61.2643 67.5147 63.5147C65.2643 65.7652 64 68.8174 64 72ZM64 20C64 21.0609 64.4214 22.0783 65.1716 22.8284C65.9217 23.5786 66.9391 24 68 24C69.0609 24 70.0783 23.5786 70.8284 22.8284C71.5786 22.0783 72 21.0609 72 20C72 18.9391 71.5786 17.9217 70.8284 17.1716C70.0783 16.4214 69.0609 16 68 16C66.9391 16 65.9217 16.4214 65.1716 17.1716C64.4214 17.9217 64 18.9391 64 20Z" stroke="#BBD567" stroke-width="8" stroke-linecap="round" stroke-linejoin="round"/>
</svg>
