<svg width="24" height="24" viewBox="0 0 24 24" fill="none" xmlns="http://www.w3.org/2000/svg">
<path d="M18.6535 6.97109C18.7618 6.86622 18.8482 6.74075 18.9077 6.60201C18.9672 6.46327 18.9986 6.31403 19 6.16301C19.0013 6.01198 18.9727 5.86219 18.9158 5.72238C18.8588 5.58257 18.7747 5.45553 18.6683 5.34869C18.5619 5.24184 18.4353 5.15733 18.296 5.10007C18.1567 5.04281 18.0074 5.01396 17.8568 5.0152C17.7063 5.01644 17.5575 5.04775 17.4191 5.1073C17.2807 5.16684 17.1556 5.25343 17.0509 5.36202L12.5064 9.9193L7.96341 5.36202C7.8596 5.25027 7.73443 5.16063 7.59534 5.09847C7.45625 5.0363 7.30611 5.00287 7.15387 5.00018C7.00162 4.99748 6.8504 5.02558 6.70921 5.08278C6.56802 5.13999 6.43977 5.22514 6.3321 5.33314C6.22443 5.44115 6.13955 5.56981 6.08252 5.71144C6.0255 5.85307 5.99749 6.00477 6.00018 6.15749C6.00286 6.31021 6.03619 6.46083 6.09816 6.60035C6.16013 6.73987 6.24948 6.86545 6.36088 6.96958L10.9009 11.5284L6.35786 16.0857C6.15757 16.3013 6.04854 16.5865 6.05372 16.8811C6.0589 17.1758 6.1779 17.4569 6.38564 17.6653C6.59339 17.8737 6.87366 17.9931 7.1674 17.9983C7.46115 18.0035 7.74544 17.8941 7.96039 17.6932L12.5064 13.1359L17.0494 17.6947C17.2644 17.8956 17.5487 18.005 17.8424 17.9998C18.1362 17.9946 18.4164 17.8753 18.6242 17.6669C18.8319 17.4585 18.9509 17.1773 18.9561 16.8826C18.9613 16.588 18.8522 16.3028 18.652 16.0872L14.112 11.5284L18.6535 6.97109Z" fill="#FF525F"/>
</svg>
