<svg width="100" height="69" viewBox="0 0 100 69" fill="none" xmlns="http://www.w3.org/2000/svg">
<g clip-path="url(#clip0_3562_7251)">
<path d="M58.1357 39.8906V39.675L56.8426 22.425C56.8067 21.9578 56.6091 21.5535 56.2499 21.2121C55.8907 20.8707 55.4776 20.7 55.0107 20.7H44.9891C44.5222 20.7 44.1091 20.8707 43.7499 21.2121C43.3907 21.5535 43.1931 21.9578 43.1572 22.425L41.8641 39.675V39.8906C41.8282 40.3219 41.9719 40.6813 42.2952 40.9688C42.6184 41.2563 42.9956 41.4 43.4266 41.4H56.5732C57.0042 41.4 57.3814 41.2563 57.7046 40.9688C58.0279 40.6813 58.1716 40.3219 58.1357 39.8906ZM99.0301 65.0648C99.0301 67.6883 98.2039 69 96.5516 69H58.6206C59.0875 69 59.4827 68.8293 59.8059 68.4879C60.1292 68.1465 60.2729 67.7422 60.237 67.275L59.1594 53.475C59.1235 53.0078 58.9259 52.6035 58.5667 52.2621C58.2075 51.9207 57.7944 51.75 57.3275 51.75H42.6723C42.2054 51.75 41.7923 51.9207 41.4331 52.2621C41.0739 52.6035 40.8763 53.0078 40.8404 53.475L39.7628 67.275C39.7269 67.7422 39.8706 68.1465 40.1939 68.4879C40.5171 68.8293 40.9123 69 41.3792 69H3.44817C1.79588 69 0.969727 67.6883 0.969727 65.0648C0.969727 63.1242 1.43668 61.0398 2.37059 58.8117L24.8383 2.53359C25.1256 1.85078 25.5926 1.25781 26.2391 0.754687C26.8857 0.251563 27.5681 0 28.2865 0H46.5516C46.0847 0 45.6716 0.170703 45.3124 0.512109C44.9532 0.853516 44.7556 1.25781 44.7197 1.725L43.9115 12.075C43.8756 12.5781 44.0193 12.9914 44.3426 13.3148C44.6658 13.6383 45.061 13.8 45.5279 13.8H54.4719C54.9388 13.8 55.334 13.6383 55.6572 13.3148C55.9805 12.9914 56.1242 12.5781 56.0883 12.075L55.2801 1.725C55.2442 1.25781 55.0466 0.853516 54.6874 0.512109C54.3282 0.170703 53.9151 0 53.4482 0H71.7133C72.4317 0 73.1141 0.251563 73.7607 0.754687C74.4072 1.25781 74.8742 1.85078 75.1615 2.53359L97.6292 58.8117C98.5631 61.0398 99.0301 63.1242 99.0301 65.0648Z" fill="#1C3A29"/>
</g>
<defs>
<clipPath id="clip0_3562_7251">
<rect width="100" height="69" fill="white"/>
</clipPath>
</defs>
</svg>
