<svg width="16" height="10" viewBox="0 0 16 10" fill="none" xmlns="http://www.w3.org/2000/svg">
<path d="M15.6296 9.24289C15.4046 9.46786 15.0994 9.59424 14.7812 9.59424C14.463 9.59424 14.1578 9.46786 13.9328 9.24289L7.99281 3.30289L2.05281 9.24289C1.82649 9.46148 1.52337 9.58244 1.20873 9.5797C0.894095 9.57697 0.593121 9.45077 0.370631 9.22828C0.148141 9.00579 0.0219402 8.70481 0.019206 8.39018C0.0164719 8.07554 0.137424 7.77242 0.356014 7.54609L7.14441 0.757694C7.36945 0.532728 7.67462 0.40635 7.99281 0.40635C8.31101 0.40635 8.61618 0.532728 8.84121 0.757694L15.6296 7.54609C15.8546 7.77113 15.981 8.0763 15.981 8.39449C15.981 8.71269 15.8546 9.01786 15.6296 9.24289Z" fill="#1C3A29"/>
</svg>
