<svg width="487" height="77" viewBox="0 0 487 77" fill="none" xmlns="http://www.w3.org/2000/svg">
<path d="M8.86413 27.4775V2.72084H0.936007V1.29976H18.4377V2.72084H10.547V27.4775H8.86413ZM22.5555 27.4775V0.551822H24.2383V12.5562C24.8616 11.1601 25.7716 10.088 26.9683 9.34008C28.1899 8.56721 29.4863 8.18077 30.8576 8.18077C32.2288 8.18077 33.4379 8.45502 34.4851 9.00351C35.5322 9.55199 36.3424 10.3997 36.9158 11.5465C37.5142 12.6933 37.8134 14.1643 37.8134 15.9593V27.4775H36.1679V16.2211C36.1679 14.0022 35.6942 12.3692 34.7468 11.3221C33.7994 10.2501 32.4407 9.71405 30.6706 9.71405C29.4489 9.71405 28.352 10.0257 27.3797 10.649C26.4073 11.2473 25.6345 12.1199 25.0611 13.2667C24.5126 14.3886 24.2383 15.7723 24.2383 17.4178V27.4775H22.5555ZM42.9391 27.4775V8.62954H44.6219V27.4775H42.9391ZM43.7992 3.65576C43.4502 3.65576 43.1385 3.5311 42.8643 3.28179C42.615 3.00755 42.4903 2.68344 42.4903 2.30947C42.4903 1.9355 42.615 1.63633 42.8643 1.41195C43.1385 1.16264 43.4502 1.03798 43.7992 1.03798C44.1482 1.03798 44.4474 1.16264 44.6967 1.41195C44.971 1.63633 45.1081 1.9355 45.1081 2.30947C45.1081 2.68344 44.971 3.00755 44.6967 3.28179C44.4474 3.5311 44.1482 3.65576 43.7992 3.65576ZM56.7093 27.9263C55.3381 27.9263 54.104 27.7019 53.007 27.2532C51.91 26.7795 51.025 26.0814 50.3518 25.1589C49.7036 24.2365 49.2922 23.0896 49.1177 21.7184H50.9128C51.0125 22.7157 51.3241 23.5633 51.8477 24.2614C52.3962 24.9595 53.0943 25.4955 53.9419 25.8695C54.7896 26.2185 55.7245 26.393 56.7467 26.393C57.7689 26.393 58.629 26.231 59.3271 25.9069C60.0501 25.5828 60.5986 25.134 60.9725 24.5606C61.3714 23.9622 61.5709 23.3016 61.5709 22.5786C61.5709 21.6561 61.3714 20.9456 60.9725 20.4469C60.5986 19.9234 60.0251 19.5245 59.2523 19.2502C58.4794 18.976 57.5071 18.7267 56.3353 18.5023C55.3879 18.3278 54.5278 18.1034 53.7549 17.8292C53.007 17.5549 52.3588 17.2183 51.8103 16.8194C51.2618 16.4205 50.838 15.9344 50.5388 15.361C50.2646 14.7626 50.1274 14.0895 50.1274 13.3415C50.1274 12.3194 50.3768 11.4218 50.8754 10.649C51.3989 9.8761 52.1219 9.27775 53.0444 8.85392C53.9669 8.40516 55.0638 8.18077 56.3353 8.18077C58.1304 8.18077 59.6138 8.65447 60.7855 9.60185C61.9822 10.5492 62.6678 11.9454 62.8424 13.7903H61.1221C61.0473 12.5687 60.5861 11.5839 59.7384 10.8359C58.9157 10.088 57.7689 9.71405 56.2979 9.71405C54.8768 9.71405 53.7799 10.0382 53.007 10.6864C52.2591 11.3096 51.8851 12.1448 51.8851 13.1919C51.8851 13.7903 52.0347 14.3263 52.3339 14.8C52.658 15.2737 53.1691 15.6975 53.8671 16.0715C54.5652 16.4205 55.5001 16.7197 56.6719 16.969C57.8935 17.1934 59.003 17.4801 60.0002 17.8292C61.0224 18.1782 61.8327 18.7017 62.431 19.3998C63.0294 20.0979 63.3285 21.0951 63.3285 22.3916C63.3285 23.4636 63.0543 24.4235 62.5058 25.2711C61.9822 26.0939 61.2218 26.7421 60.2246 27.2158C59.2523 27.6895 58.0805 27.9263 56.7093 27.9263ZM88.6307 27.9263C86.1625 27.9263 84.006 27.3653 82.161 26.2434C80.3411 25.0966 78.9324 23.5135 77.9352 21.494C76.938 19.4497 76.4393 17.0812 76.4393 14.3886C76.4393 11.6961 76.938 9.34008 77.9352 7.32065C78.9324 5.27629 80.3411 3.69316 82.161 2.57125C84.006 1.42442 86.1625 0.850997 88.6307 0.850997C91.4978 0.850997 93.8039 1.51167 95.5491 2.83303C97.2943 4.12945 98.4411 5.97436 98.9896 8.36776H97.1198C96.671 6.57271 95.7486 5.1267 94.3524 4.02973C92.9812 2.93275 91.074 2.38427 88.6307 2.38427C86.5614 2.38427 84.7414 2.85796 83.1708 3.80535C81.625 4.75273 80.4034 6.12395 79.5059 7.919C78.6333 9.71405 78.197 11.8706 78.197 14.3886C78.197 16.9067 78.6333 19.0633 79.5059 20.8583C80.4034 22.6284 81.625 23.9996 83.1708 24.972C84.7414 25.9193 86.5614 26.393 88.6307 26.393C91.049 26.393 92.9563 25.8445 94.3524 24.7476C95.7735 23.6257 96.6959 22.1672 97.1198 20.3721H98.9896C98.4411 22.7655 97.2943 24.6229 95.5491 25.9443C93.8039 27.2656 91.4978 27.9263 88.6307 27.9263ZM111.189 27.9263C109.419 27.9263 107.886 27.5149 106.589 26.6922C105.318 25.8695 104.333 24.7102 103.635 23.2143C102.937 21.7184 102.588 19.9608 102.588 17.9413C102.588 15.897 102.949 14.1518 103.672 12.7058C104.42 11.2598 105.443 10.1503 106.739 9.37747C108.06 8.57967 109.569 8.18077 111.264 8.18077C113.084 8.18077 114.605 8.59214 115.826 9.41487C117.048 10.2127 117.97 11.2722 118.594 12.5936C119.217 13.915 119.529 15.361 119.529 16.9316C119.529 17.1809 119.529 17.4178 119.529 17.6422C119.529 17.8666 119.516 18.1283 119.491 18.4275H103.785V16.969H117.883C117.858 14.5507 117.223 12.7307 115.976 11.5091C114.729 10.2875 113.134 9.67665 111.189 9.67665C109.992 9.67665 108.871 9.95089 107.823 10.4994C106.776 11.0479 105.916 11.8955 105.243 13.0424C104.595 14.1892 104.271 15.6477 104.271 17.4178V18.0909C104.271 19.9857 104.595 21.5564 105.243 22.8029C105.891 24.0246 106.739 24.9346 107.786 25.5329C108.833 26.1313 109.968 26.4304 111.189 26.4304C112.76 26.4304 114.056 26.0689 115.078 25.3459C116.101 24.598 116.849 23.5509 117.322 22.2046H119.005C118.681 23.3016 118.17 24.2863 117.472 25.1589C116.799 26.0315 115.939 26.7171 114.891 27.2158C113.844 27.6895 112.61 27.9263 111.189 27.9263ZM123.753 27.4775V8.62954H125.249L125.436 12.444C125.86 11.4468 126.409 10.6365 127.082 10.0132C127.78 9.38994 128.602 8.92871 129.55 8.62954C130.497 8.33036 131.569 8.18077 132.766 8.18077V9.90103H132.093C131.345 9.90103 130.572 10.0008 129.774 10.2002C129.001 10.3997 128.278 10.7612 127.605 11.2847C126.957 11.7833 126.433 12.5063 126.035 13.4537C125.636 14.4011 125.436 15.6103 125.436 17.0812V27.4775H123.753ZM142.971 27.4775C141.974 27.4775 141.126 27.328 140.428 27.0288C139.755 26.7296 139.232 26.2185 138.858 25.4955C138.509 24.7476 138.334 23.7503 138.334 22.5038V10.088H135.043V8.62954H138.334L138.596 4.51589H140.017V8.62954H145.926V10.088H140.017V22.4664C140.017 23.7877 140.279 24.7102 140.802 25.2337C141.326 25.7573 142.211 26.0191 143.457 26.0191H145.552V27.4775H142.971ZM150.163 27.4775V8.62954H151.846V27.4775H150.163ZM151.023 3.65576C150.674 3.65576 150.362 3.5311 150.088 3.28179C149.839 3.00755 149.714 2.68344 149.714 2.30947C149.714 1.9355 149.839 1.63633 150.088 1.41195C150.362 1.16264 150.674 1.03798 151.023 1.03798C151.372 1.03798 151.671 1.16264 151.92 1.41195C152.195 1.63633 152.332 1.9355 152.332 2.30947C152.332 2.68344 152.195 3.00755 151.92 3.28179C151.671 3.5311 151.372 3.65576 151.023 3.65576ZM158.623 27.4775V10.088H155.556V8.62954H158.623V4.77766C158.623 3.85521 158.772 3.08234 159.071 2.45906C159.371 1.83578 159.832 1.36209 160.455 1.03798C161.103 0.713875 161.926 0.551822 162.923 0.551822H164.681V2.0103H163.073C162.101 2.0103 161.39 2.22221 160.941 2.64604C160.517 3.06988 160.306 3.80535 160.306 4.85246V8.62954H169.916V27.4775H168.234V10.088H160.306V27.4775H158.623ZM169.094 3.76795C168.77 3.76795 168.47 3.64329 168.196 3.39398C167.947 3.11974 167.822 2.79563 167.822 2.42166C167.822 2.04769 167.947 1.74852 168.196 1.52414C168.47 1.27483 168.782 1.15017 169.131 1.15017C169.48 1.15017 169.779 1.27483 170.029 1.52414C170.278 1.74852 170.403 2.04769 170.403 2.42166C170.403 2.79563 170.278 3.11974 170.029 3.39398C169.779 3.64329 169.468 3.76795 169.094 3.76795ZM183.506 27.9263C181.81 27.9263 180.289 27.5274 178.943 26.7296C177.597 25.9069 176.537 24.76 175.764 23.2891C175.016 21.7932 174.643 20.0605 174.643 18.0909C174.643 16.0715 175.029 14.3263 175.802 12.8554C176.6 11.3595 177.672 10.2127 179.018 9.41487C180.364 8.59214 181.86 8.18077 183.506 8.18077C185.625 8.18077 187.382 8.72926 188.779 9.82624C190.2 10.9232 191.097 12.3318 191.471 14.0521H189.713C189.414 12.7058 188.704 11.6462 187.582 10.8733C186.485 10.1005 185.126 9.71405 183.506 9.71405C182.309 9.71405 181.162 10.0257 180.065 10.649C178.968 11.2473 178.083 12.1698 177.41 13.4163C176.737 14.638 176.4 16.1962 176.4 18.0909C176.4 19.5369 176.6 20.7835 176.999 21.8306C177.397 22.8777 177.933 23.7503 178.607 24.4484C179.305 25.1215 180.078 25.6202 180.925 25.9443C181.773 26.2684 182.633 26.4304 183.506 26.4304C184.553 26.4304 185.5 26.2684 186.348 25.9443C187.22 25.5952 187.956 25.0966 188.554 24.4484C189.152 23.7753 189.539 22.9775 189.713 22.055H191.471C191.122 23.7503 190.249 25.1589 188.853 26.2808C187.482 27.3778 185.7 27.9263 183.506 27.9263ZM201.602 27.9263C200.181 27.9263 198.984 27.6521 198.012 27.1036C197.039 26.5551 196.304 25.8445 195.805 24.972C195.307 24.0744 195.057 23.1146 195.057 22.0924C195.057 20.7212 195.369 19.5993 195.992 18.7267C196.616 17.8541 197.488 17.2059 198.61 16.782C199.757 16.3333 201.078 16.1089 202.574 16.1089H208.258C208.258 14.7626 208.059 13.6158 207.66 12.6684C207.286 11.721 206.7 10.9855 205.902 10.462C205.105 9.93843 204.058 9.67665 202.761 9.67665C201.24 9.67665 199.981 10.0382 198.984 10.7612C198.012 11.4842 197.388 12.5811 197.114 14.0521H195.394C195.568 12.7307 196.005 11.6462 196.703 10.7986C197.426 9.92596 198.311 9.27775 199.358 8.85392C200.405 8.40516 201.54 8.18077 202.761 8.18077C204.481 8.18077 205.865 8.52981 206.912 9.22789C207.959 9.90103 208.72 10.8235 209.193 11.9953C209.692 13.1421 209.941 14.451 209.941 15.9219V27.4775H208.445L208.258 23.7005C208.059 24.0994 207.785 24.5481 207.436 25.0467C207.087 25.5454 206.65 26.0066 206.127 26.4304C205.603 26.8543 204.968 27.2033 204.22 27.4775C203.497 27.7767 202.624 27.9263 201.602 27.9263ZM201.789 26.393C202.861 26.393 203.796 26.1936 204.594 25.7947C205.391 25.3709 206.065 24.8224 206.613 24.1492C207.161 23.4511 207.573 22.7032 207.847 21.9054C208.121 21.1076 208.258 20.3223 208.258 19.5494V17.5674H202.686C201.215 17.5674 200.056 17.7668 199.208 18.1657C198.361 18.5397 197.75 19.0633 197.376 19.7364C197.027 20.4095 196.852 21.1824 196.852 22.055C196.852 22.8528 197.039 23.5883 197.413 24.2614C197.787 24.9096 198.348 25.4332 199.096 25.8321C199.844 26.206 200.742 26.393 201.789 26.393ZM220.686 27.4775C219.689 27.4775 218.842 27.328 218.143 27.0288C217.47 26.7296 216.947 26.2185 216.573 25.4955C216.224 24.7476 216.049 23.7503 216.049 22.5038V10.088H212.758V8.62954H216.049L216.311 4.51589H217.732V8.62954H223.641V10.088H217.732V22.4664C217.732 23.7877 217.994 24.7102 218.517 25.2337C219.041 25.7573 219.926 26.0191 221.173 26.0191H223.267V27.4775H220.686ZM234.884 27.9263C233.113 27.9263 231.58 27.5149 230.284 26.6922C229.012 25.8695 228.027 24.7102 227.329 23.2143C226.631 21.7184 226.282 19.9608 226.282 17.9413C226.282 15.897 226.644 14.1518 227.367 12.7058C228.115 11.2598 229.137 10.1503 230.433 9.37747C231.755 8.57967 233.263 8.18077 234.958 8.18077C236.778 8.18077 238.299 8.59214 239.521 9.41487C240.742 10.2127 241.665 11.2722 242.288 12.5936C242.911 13.915 243.223 15.361 243.223 16.9316C243.223 17.1809 243.223 17.4178 243.223 17.6422C243.223 17.8666 243.211 18.1283 243.186 18.4275H227.479V16.969H241.578C241.553 14.5507 240.917 12.7307 239.67 11.5091C238.424 10.2875 236.828 9.67665 234.884 9.67665C233.687 9.67665 232.565 9.95089 231.518 10.4994C230.471 11.0479 229.611 11.8955 228.937 13.0424C228.289 14.1892 227.965 15.6477 227.965 17.4178V18.0909C227.965 19.9857 228.289 21.5564 228.937 22.8029C229.586 24.0246 230.433 24.9346 231.48 25.5329C232.528 26.1313 233.662 26.4304 234.884 26.4304C236.454 26.4304 237.751 26.0689 238.773 25.3459C239.795 24.598 240.543 23.5509 241.017 22.2046H242.699C242.375 23.3016 241.864 24.2863 241.166 25.1589C240.493 26.0315 239.633 26.7171 238.586 27.2158C237.539 27.6895 236.305 27.9263 234.884 27.9263ZM264.986 27.9263C263.266 27.9263 261.72 27.5274 260.349 26.7296C259.002 25.9318 257.93 24.7974 257.133 23.3265C256.36 21.8306 255.973 20.0854 255.973 18.0909C255.973 16.0216 256.372 14.2515 257.17 12.7806C257.968 11.3096 259.052 10.1753 260.424 9.37747C261.795 8.57967 263.341 8.18077 265.061 8.18077C266.806 8.18077 268.352 8.57967 269.698 9.37747C271.069 10.1753 272.141 11.3096 272.914 12.7806C273.712 14.2515 274.111 16.0216 274.111 18.0909C274.111 20.0854 273.712 21.8306 272.914 23.3265C272.116 24.7974 271.032 25.9318 269.661 26.7296C268.289 27.5274 266.731 27.9263 264.986 27.9263ZM264.986 26.4304C266.282 26.4304 267.479 26.1188 268.576 25.4955C269.698 24.8722 270.608 23.9373 271.306 22.6907C272.004 21.4442 272.353 19.8984 272.353 18.0535C272.353 16.2086 272.004 14.6629 271.306 13.4163C270.633 12.1698 269.735 11.2473 268.613 10.649C267.516 10.0257 266.332 9.71405 265.061 9.71405C263.789 9.71405 262.593 10.0257 261.471 10.649C260.349 11.2722 259.439 12.2072 258.741 13.4537C258.068 14.6754 257.731 16.2086 257.731 18.0535C257.731 19.8984 258.068 21.4442 258.741 22.6907C259.439 23.9373 260.336 24.8722 261.433 25.4955C262.53 26.1188 263.714 26.4304 264.986 26.4304ZM279.797 27.4775V4.77766C279.797 3.85521 279.934 3.08234 280.209 2.45906C280.508 1.83578 280.969 1.36209 281.592 1.03798C282.24 0.713875 283.076 0.551822 284.098 0.551822H286.117V2.0103H284.285C283.263 2.0103 282.54 2.22221 282.116 2.64604C281.692 3.06988 281.48 3.80535 281.48 4.85246V27.4775H279.797ZM276.731 10.088V8.62954H286.678V10.088H276.731ZM311.186 27.9263C308.717 27.9263 306.561 27.3653 304.716 26.2434C302.896 25.0966 301.487 23.5135 300.49 21.494C299.493 19.4497 298.994 17.0812 298.994 14.3886C298.994 11.6961 299.493 9.34008 300.49 7.32065C301.487 5.27629 302.896 3.69316 304.716 2.57125C306.561 1.42442 308.717 0.850997 311.186 0.850997C314.053 0.850997 316.359 1.51167 318.104 2.83303C319.849 4.12945 320.996 5.97436 321.545 8.36776H319.675C319.226 6.57271 318.303 5.1267 316.907 4.02973C315.536 2.93275 313.629 2.38427 311.186 2.38427C309.116 2.38427 307.296 2.85796 305.726 3.80535C304.18 4.75273 302.958 6.12395 302.061 7.919C301.188 9.71405 300.752 11.8706 300.752 14.3886C300.752 16.9067 301.188 19.0633 302.061 20.8583C302.958 22.6284 304.18 23.9996 305.726 24.972C307.296 25.9193 309.116 26.393 311.186 26.393C313.604 26.393 315.511 25.8445 316.907 24.7476C318.328 23.6257 319.251 22.1672 319.675 20.3721H321.545C320.996 22.7655 319.849 24.6229 318.104 25.9443C316.359 27.2656 314.053 27.9263 311.186 27.9263ZM334.155 27.9263C332.435 27.9263 330.889 27.5274 329.518 26.7296C328.172 25.9318 327.1 24.7974 326.302 23.3265C325.529 21.8306 325.143 20.0854 325.143 18.0909C325.143 16.0216 325.542 14.2515 326.34 12.7806C327.137 11.3096 328.222 10.1753 329.593 9.37747C330.964 8.57967 332.51 8.18077 334.23 8.18077C335.975 8.18077 337.521 8.57967 338.867 9.37747C340.239 10.1753 341.311 11.3096 342.084 12.7806C342.881 14.2515 343.28 16.0216 343.28 18.0909C343.28 20.0854 342.881 21.8306 342.084 23.3265C341.286 24.7974 340.201 25.9318 338.83 26.7296C337.459 27.5274 335.901 27.9263 334.155 27.9263ZM334.155 26.4304C335.452 26.4304 336.649 26.1188 337.746 25.4955C338.867 24.8722 339.777 23.9373 340.476 22.6907C341.174 21.4442 341.523 19.8984 341.523 18.0535C341.523 16.2086 341.174 14.6629 340.476 13.4163C339.802 12.1698 338.905 11.2473 337.783 10.649C336.686 10.0257 335.502 9.71405 334.23 9.71405C332.959 9.71405 331.762 10.0257 330.64 10.649C329.518 11.2722 328.608 12.2072 327.91 13.4537C327.237 14.6754 326.9 16.2086 326.9 18.0535C326.9 19.8984 327.237 21.4442 327.91 22.6907C328.608 23.9373 329.506 24.8722 330.603 25.4955C331.7 26.1188 332.884 26.4304 334.155 26.4304ZM347.733 27.4775V8.62954H349.228L349.415 12.2196C350.014 10.8983 350.837 9.90103 351.884 9.22789C352.956 8.52981 354.19 8.18077 355.586 8.18077C356.434 8.18077 357.244 8.3179 358.017 8.59214C358.814 8.86638 359.513 9.32761 360.111 9.97582C360.734 10.624 361.208 11.5091 361.532 12.631C362.006 11.3346 362.779 10.275 363.851 9.45227C364.948 8.60461 366.269 8.18077 367.815 8.18077C369.211 8.18077 370.42 8.46748 371.442 9.0409C372.464 9.58939 373.262 10.4495 373.836 11.6213C374.409 12.7931 374.696 14.3139 374.696 16.1837V27.4775H373.013V16.2959C373.013 14.0271 372.564 12.3692 371.667 11.3221C370.769 10.2501 369.46 9.71405 367.74 9.71405C366.693 9.71405 365.733 9.97582 364.86 10.4994C363.988 11.0229 363.29 11.7958 362.766 12.818C362.267 13.8402 362.018 15.1241 362.018 16.6699V27.4775H360.335V16.1837C360.335 13.9648 359.899 12.3318 359.026 11.2847C358.179 10.2376 356.982 9.71405 355.436 9.71405C354.24 9.71405 353.193 10.0132 352.295 10.6116C351.397 11.2099 350.687 12.0825 350.163 13.2293C349.665 14.3762 349.415 15.8097 349.415 17.53V27.4775H347.733ZM379.578 35.7048V8.62954H381.074L381.261 13.3415C381.635 12.3942 382.171 11.534 382.869 10.7612C383.567 9.98829 384.415 9.36501 385.412 8.89132C386.434 8.41762 387.581 8.18077 388.853 8.18077C390.673 8.18077 392.243 8.61707 393.565 9.48966C394.911 10.3373 395.946 11.5091 396.669 13.005C397.392 14.4759 397.753 16.1712 397.753 18.0909C397.753 19.9857 397.392 21.681 396.669 23.1769C395.946 24.6478 394.911 25.8071 393.565 26.6548C392.243 27.5025 390.66 27.9263 388.815 27.9263C387.02 27.9263 385.462 27.4651 384.141 26.5426C382.819 25.6202 381.86 24.3362 381.261 22.6907V35.7048H379.578ZM388.741 26.393C390.162 26.393 391.408 26.0565 392.48 25.3833C393.577 24.7102 394.437 23.7503 395.061 22.5038C395.684 21.2572 395.996 19.7738 395.996 18.0535C395.996 16.3582 395.684 14.8873 395.061 13.6407C394.437 12.3942 393.577 11.4343 392.48 10.7612C391.408 10.0631 390.162 9.71405 388.741 9.71405C387.319 9.71405 386.06 10.0755 384.963 10.7986C383.867 11.4966 383.006 12.4814 382.383 13.7529C381.785 14.9995 381.486 16.433 381.486 18.0535C381.486 19.699 381.785 21.1575 382.383 22.429C383.006 23.6755 383.867 24.6478 384.963 25.3459C386.06 26.044 387.319 26.393 388.741 26.393ZM402.221 27.4775V0.551822H403.904V27.4775H402.221ZM416.901 27.9263C415.131 27.9263 413.598 27.5149 412.301 26.6922C411.03 25.8695 410.045 24.7102 409.347 23.2143C408.649 21.7184 408.3 19.9608 408.3 17.9413C408.3 15.897 408.661 14.1518 409.384 12.7058C410.132 11.2598 411.154 10.1503 412.451 9.37747C413.772 8.57967 415.28 8.18077 416.976 8.18077C418.796 8.18077 420.316 8.59214 421.538 9.41487C422.76 10.2127 423.682 11.2722 424.305 12.5936C424.929 13.915 425.24 15.361 425.24 16.9316C425.24 17.1809 425.24 17.4178 425.24 17.6422C425.24 17.8666 425.228 18.1283 425.203 18.4275H409.496V16.969H423.595C423.57 14.5507 422.934 12.7307 421.688 11.5091C420.441 10.2875 418.846 9.67665 416.901 9.67665C415.704 9.67665 414.582 9.95089 413.535 10.4994C412.488 11.0479 411.628 11.8955 410.955 13.0424C410.307 14.1892 409.982 15.6477 409.982 17.4178V18.0909C409.982 19.9857 410.307 21.5564 410.955 22.8029C411.603 24.0246 412.451 24.9346 413.498 25.5329C414.545 26.1313 415.679 26.4304 416.901 26.4304C418.472 26.4304 419.768 26.0689 420.79 25.3459C421.812 24.598 422.56 23.5509 423.034 22.2046H424.717C424.393 23.3016 423.882 24.2863 423.184 25.1589C422.51 26.0315 421.65 26.7171 420.603 27.2158C419.556 27.6895 418.322 27.9263 416.901 27.9263ZM435.134 27.4775C434.137 27.4775 433.289 27.328 432.591 27.0288C431.918 26.7296 431.394 26.2185 431.02 25.4955C430.671 24.7476 430.497 23.7503 430.497 22.5038V10.088H427.206V8.62954H430.497L430.758 4.51589H432.18V8.62954H438.088V10.088H432.18V22.4664C432.18 23.7877 432.441 24.7102 432.965 25.2337C433.488 25.7573 434.374 26.0191 435.62 26.0191H437.714V27.4775H435.134ZM442.325 27.4775V8.62954H444.008V27.4775H442.325ZM443.186 3.65576C442.837 3.65576 442.525 3.5311 442.251 3.28179C442.001 3.00755 441.877 2.68344 441.877 2.30947C441.877 1.9355 442.001 1.63633 442.251 1.41195C442.525 1.16264 442.837 1.03798 443.186 1.03798C443.535 1.03798 443.834 1.16264 444.083 1.41195C444.357 1.63633 444.494 1.9355 444.494 2.30947C444.494 2.68344 444.357 3.00755 444.083 3.28179C443.834 3.5311 443.535 3.65576 443.186 3.65576ZM457.704 27.9263C455.984 27.9263 454.438 27.5274 453.067 26.7296C451.72 25.9318 450.648 24.7974 449.85 23.3265C449.078 21.8306 448.691 20.0854 448.691 18.0909C448.691 16.0216 449.09 14.2515 449.888 12.7806C450.686 11.3096 451.77 10.1753 453.141 9.37747C454.513 8.57967 456.058 8.18077 457.779 8.18077C459.524 8.18077 461.07 8.57967 462.416 9.37747C463.787 10.1753 464.859 11.3096 465.632 12.7806C466.43 14.2515 466.829 16.0216 466.829 18.0909C466.829 20.0854 466.43 21.8306 465.632 23.3265C464.834 24.7974 463.75 25.9318 462.378 26.7296C461.007 27.5274 459.449 27.9263 457.704 27.9263ZM457.704 26.4304C459 26.4304 460.197 26.1188 461.294 25.4955C462.416 24.8722 463.326 23.9373 464.024 22.6907C464.722 21.4442 465.071 19.8984 465.071 18.0535C465.071 16.2086 464.722 14.6629 464.024 13.4163C463.351 12.1698 462.453 11.2473 461.331 10.649C460.234 10.0257 459.05 9.71405 457.779 9.71405C456.507 9.71405 455.31 10.0257 454.188 10.649C453.067 11.2722 452.157 12.2072 451.459 13.4537C450.785 14.6754 450.449 16.2086 450.449 18.0535C450.449 19.8984 450.785 21.4442 451.459 22.6907C452.157 23.9373 453.054 24.8722 454.151 25.4955C455.248 26.1188 456.432 26.4304 457.704 26.4304ZM471.281 27.4775V8.62954H472.777L472.926 12.444C473.575 11.0229 474.472 9.96336 475.619 9.26528C476.791 8.54228 478.087 8.18077 479.508 8.18077C480.879 8.18077 482.089 8.45502 483.136 9.00351C484.183 9.55199 485.006 10.3997 485.604 11.5465C486.202 12.6684 486.501 14.1269 486.501 15.9219V27.4775H484.819V16.1837C484.819 13.9648 484.345 12.3318 483.397 11.2847C482.45 10.2376 481.079 9.71405 479.284 9.71405C478.087 9.71405 477.003 10.0132 476.03 10.6116C475.083 11.185 474.335 12.0326 473.786 13.1546C473.238 14.2765 472.964 15.6601 472.964 17.3056V27.4775H471.281ZM137.454 76.4775V57.6295H139.137V76.4775H137.454ZM138.314 52.6558C137.965 52.6558 137.653 52.5311 137.379 52.2818C137.13 52.0075 137.005 51.6834 137.005 51.3095C137.005 50.9355 137.13 50.6363 137.379 50.4119C137.653 50.1626 137.965 50.038 138.314 50.038C138.663 50.038 138.962 50.1626 139.211 50.4119C139.486 50.6363 139.623 50.9355 139.623 51.3095C139.623 51.6834 139.486 52.0075 139.211 52.2818C138.962 52.5311 138.663 52.6558 138.314 52.6558ZM151.224 76.9263C149.853 76.9263 148.619 76.7019 147.522 76.2532C146.425 75.7795 145.54 75.0814 144.866 74.1589C144.218 73.2365 143.807 72.0896 143.632 70.7184H145.427C145.527 71.7157 145.839 72.5633 146.362 73.2614C146.911 73.9595 147.609 74.4955 148.457 74.8695C149.304 75.2185 150.239 75.393 151.261 75.393C152.284 75.393 153.144 75.231 153.842 74.9069C154.565 74.5828 155.113 74.134 155.487 73.5606C155.886 72.9622 156.086 72.3016 156.086 71.5786C156.086 70.6561 155.886 69.9456 155.487 69.4469C155.113 68.9234 154.54 68.5245 153.767 68.2502C152.994 67.976 152.022 67.7267 150.85 67.5023C149.903 67.3278 149.042 67.1034 148.27 66.8292C147.522 66.5549 146.873 66.2183 146.325 65.8194C145.776 65.4205 145.353 64.9344 145.053 64.361C144.779 63.7626 144.642 63.0895 144.642 62.3415C144.642 61.3194 144.891 60.4218 145.39 59.649C145.914 58.8761 146.637 58.2777 147.559 57.8539C148.481 57.4052 149.578 57.1808 150.85 57.1808C152.645 57.1808 154.128 57.6545 155.3 58.6019C156.497 59.5492 157.182 60.9454 157.357 62.7903H155.637C155.562 61.5687 155.101 60.5839 154.253 59.8359C153.43 59.088 152.284 58.714 150.813 58.714C149.391 58.714 148.295 59.0382 147.522 59.6864C146.774 60.3096 146.4 61.1448 146.4 62.1919C146.4 62.7903 146.549 63.3263 146.848 63.8C147.173 64.2737 147.684 64.6975 148.382 65.0715C149.08 65.4205 150.015 65.7197 151.187 65.969C152.408 66.1934 153.518 66.4801 154.515 66.8292C155.537 67.1782 156.347 67.7017 156.946 68.3998C157.544 69.0979 157.843 70.0951 157.843 71.3916C157.843 72.4636 157.569 73.4235 157.02 74.2711C156.497 75.0939 155.736 75.7421 154.739 76.2158C153.767 76.6895 152.595 76.9263 151.224 76.9263ZM177.498 76.9263C176.077 76.9263 174.881 76.6521 173.908 76.1036C172.936 75.5551 172.201 74.8445 171.702 73.972C171.203 73.0744 170.954 72.1146 170.954 71.0924C170.954 69.7212 171.266 68.5993 171.889 67.7267C172.512 66.8541 173.385 66.2059 174.507 65.782C175.654 65.3333 176.975 65.1089 178.471 65.1089H184.155C184.155 63.7626 183.956 62.6158 183.557 61.6684C183.183 60.721 182.597 59.9855 181.799 59.462C181.001 58.9384 179.954 58.6766 178.658 58.6766C177.137 58.6766 175.878 59.0382 174.881 59.7612C173.908 60.4842 173.285 61.5811 173.011 63.0521H171.291C171.465 61.7307 171.901 60.6462 172.599 59.7986C173.322 58.926 174.207 58.2777 175.255 57.8539C176.302 57.4052 177.436 57.1808 178.658 57.1808C180.378 57.1808 181.762 57.5298 182.809 58.2279C183.856 58.901 184.616 59.8235 185.09 60.9953C185.589 62.1421 185.838 63.451 185.838 64.9219V76.4775H184.342L184.155 72.7005C183.956 73.0994 183.681 73.5481 183.332 74.0467C182.983 74.5454 182.547 75.0066 182.023 75.4304C181.5 75.8543 180.864 76.2033 180.116 76.4775C179.393 76.7767 178.521 76.9263 177.498 76.9263ZM177.685 75.393C178.757 75.393 179.692 75.1936 180.49 74.7947C181.288 74.3709 181.961 73.8224 182.51 73.1492C183.058 72.4511 183.469 71.7032 183.744 70.9054C184.018 70.1076 184.155 69.3223 184.155 68.5494V66.5674H178.583C177.112 66.5674 175.953 66.7668 175.105 67.1657C174.257 67.5397 173.647 68.0633 173.273 68.7364C172.924 69.4095 172.749 70.1824 172.749 71.055C172.749 71.8528 172.936 72.5883 173.31 73.2614C173.684 73.9096 174.245 74.4332 174.993 74.8321C175.741 75.206 176.638 75.393 177.685 75.393ZM193.886 76.4775L188.538 57.6295H190.296L194.933 74.6077H194.671L199.87 57.6295H201.814L206.938 74.5703H206.676L211.388 57.6295H213.145L207.686 76.4775H205.89L200.73 59.1628H200.992L195.644 76.4775H193.886ZM222.053 76.9263C220.632 76.9263 219.435 76.6521 218.463 76.1036C217.491 75.5551 216.755 74.8445 216.257 73.972C215.758 73.0744 215.509 72.1146 215.509 71.0924C215.509 69.7212 215.82 68.5993 216.444 67.7267C217.067 66.8541 217.94 66.2059 219.061 65.782C220.208 65.3333 221.53 65.1089 223.026 65.1089H228.71C228.71 63.7626 228.51 62.6158 228.112 61.6684C227.738 60.721 227.152 59.9855 226.354 59.462C225.556 58.9384 224.509 58.6766 223.213 58.6766C221.692 58.6766 220.433 59.0382 219.435 59.7612C218.463 60.4842 217.84 61.5811 217.566 63.0521H215.845C216.02 61.7307 216.456 60.6462 217.154 59.7986C217.877 58.926 218.762 58.2777 219.809 57.8539C220.857 57.4052 221.991 57.1808 223.213 57.1808C224.933 57.1808 226.316 57.5298 227.364 58.2279C228.411 58.901 229.171 59.8235 229.645 60.9953C230.143 62.1421 230.393 63.451 230.393 64.9219V76.4775H228.897L228.71 72.7005C228.51 73.0994 228.236 73.5481 227.887 74.0467C227.538 74.5454 227.102 75.0066 226.578 75.4304C226.055 75.8543 225.419 76.2033 224.671 76.4775C223.948 76.7767 223.075 76.9263 222.053 76.9263ZM222.24 75.393C223.312 75.393 224.247 75.1936 225.045 74.7947C225.843 74.3709 226.516 73.8224 227.064 73.1492C227.613 72.4511 228.024 71.7032 228.298 70.9054C228.573 70.1076 228.71 69.3223 228.71 68.5494V66.5674H223.138C221.667 66.5674 220.507 66.7668 219.66 67.1657C218.812 67.5397 218.201 68.0633 217.827 68.7364C217.478 69.4095 217.304 70.1824 217.304 71.055C217.304 71.8528 217.491 72.5883 217.865 73.2614C218.239 73.9096 218.8 74.4332 219.548 74.8321C220.296 75.206 221.193 75.393 222.24 75.393ZM235.286 76.4775V57.6295H236.782L236.969 61.444C237.393 60.4468 237.942 59.6365 238.615 59.0132C239.313 58.3899 240.136 57.9287 241.083 57.6295C242.03 57.3304 243.102 57.1808 244.299 57.1808V58.901H243.626C242.878 58.901 242.105 59.0008 241.307 59.2002C240.534 59.3997 239.811 59.7612 239.138 60.2847C238.49 60.7833 237.967 61.5063 237.568 62.4537C237.169 63.4011 236.969 64.6103 236.969 66.0812V76.4775H235.286ZM254.94 76.9263C253.12 76.9263 251.537 76.5025 250.191 75.6548C248.869 74.7822 247.847 73.6104 247.124 72.1395C246.401 70.6436 246.04 68.9483 246.04 67.0535C246.04 65.1588 246.401 63.4759 247.124 62.005C247.847 60.5091 248.882 59.3373 250.228 58.4897C251.575 57.6171 253.158 57.1808 254.978 57.1808C256.798 57.1808 258.356 57.6545 259.652 58.6019C260.974 59.5243 261.933 60.7958 262.532 62.4163V49.5518H264.215V76.4775H262.719L262.494 71.8403C262.12 72.7877 261.572 73.6478 260.849 74.4207C260.151 75.1687 259.303 75.7795 258.306 76.2532C257.309 76.7019 256.187 76.9263 254.94 76.9263ZM255.052 75.393C256.473 75.393 257.733 75.044 258.829 74.3459C259.926 73.6229 260.774 72.6381 261.372 71.3916C261.996 70.1201 262.307 68.6741 262.307 67.0535C262.307 65.4081 261.996 63.9621 261.372 62.7155C260.774 61.444 259.926 60.4592 258.829 59.7612C257.757 59.0631 256.498 58.714 255.052 58.714C253.656 58.714 252.397 59.0506 251.275 59.7238C250.178 60.3969 249.318 61.3692 248.695 62.6407C248.072 63.8873 247.76 65.3582 247.76 67.0535C247.76 68.7489 248.072 70.2198 248.695 71.4664C249.343 72.7129 250.216 73.6852 251.313 74.3833C252.41 75.0565 253.656 75.393 255.052 75.393ZM277.284 76.9263C275.514 76.9263 273.98 76.5149 272.684 75.6922C271.412 74.8695 270.428 73.7102 269.729 72.2143C269.031 70.7184 268.682 68.9608 268.682 66.9413C268.682 64.897 269.044 63.1518 269.767 61.7058C270.515 60.2598 271.537 59.1503 272.833 58.3775C274.155 57.5797 275.663 57.1808 277.358 57.1808C279.178 57.1808 280.699 57.5921 281.921 58.4149C283.142 59.2127 284.065 60.2722 284.688 61.5936C285.312 62.915 285.623 64.361 285.623 65.9316C285.623 66.1809 285.623 66.4178 285.623 66.6422C285.623 66.8666 285.611 67.1283 285.586 67.4275H269.879V65.969H283.978C283.953 63.5507 283.317 61.7307 282.07 60.5091C280.824 59.2875 279.228 58.6766 277.284 58.6766C276.087 58.6766 274.965 58.9509 273.918 59.4994C272.871 60.0479 272.011 60.8955 271.338 62.0424C270.689 63.1892 270.365 64.6477 270.365 66.4178V67.0909C270.365 68.9857 270.689 70.5564 271.338 71.8029C271.986 73.0246 272.833 73.9346 273.881 74.5329C274.928 75.1313 276.062 75.4304 277.284 75.4304C278.854 75.4304 280.151 75.0689 281.173 74.3459C282.195 73.598 282.943 72.5509 283.417 71.2046H285.1C284.775 72.3016 284.264 73.2863 283.566 74.1589C282.893 75.0315 282.033 75.7171 280.986 76.2158C279.939 76.6895 278.705 76.9263 277.284 76.9263ZM297.888 76.9263C296.068 76.9263 294.485 76.5025 293.139 75.6548C291.817 74.7822 290.795 73.6104 290.072 72.1395C289.349 70.6436 288.988 68.9483 288.988 67.0535C288.988 65.1588 289.349 63.4759 290.072 62.005C290.795 60.5091 291.83 59.3373 293.176 58.4897C294.522 57.6171 296.106 57.1808 297.926 57.1808C299.746 57.1808 301.304 57.6545 302.6 58.6019C303.922 59.5243 304.881 60.7958 305.48 62.4163V49.5518H307.163V76.4775H305.667L305.442 71.8403C305.068 72.7877 304.52 73.6478 303.797 74.4207C303.099 75.1687 302.251 75.7795 301.254 76.2532C300.257 76.7019 299.135 76.9263 297.888 76.9263ZM298 75.393C299.421 75.393 300.68 75.044 301.777 74.3459C302.874 73.6229 303.722 72.6381 304.32 71.3916C304.944 70.1201 305.255 68.6741 305.255 67.0535C305.255 65.4081 304.944 63.9621 304.32 62.7155C303.722 61.444 302.874 60.4592 301.777 59.7612C300.705 59.0631 299.446 58.714 298 58.714C296.604 58.714 295.345 59.0506 294.223 59.7238C293.126 60.3969 292.266 61.3692 291.643 62.6407C291.02 63.8873 290.708 65.3582 290.708 67.0535C290.708 68.7489 291.02 70.2198 291.643 71.4664C292.291 72.7129 293.164 73.6852 294.261 74.3833C295.358 75.0565 296.604 75.393 298 75.393ZM328.458 76.4775C327.461 76.4775 326.613 76.328 325.915 76.0288C325.242 75.7296 324.718 75.2185 324.344 74.4955C323.995 73.7476 323.821 72.7503 323.821 71.5038V59.088H320.53V57.6295H323.821L324.083 53.5159H325.504V57.6295H331.412V59.088H325.504V71.4664C325.504 72.7877 325.765 73.7102 326.289 74.2337C326.813 74.7573 327.698 75.0191 328.944 75.0191H331.038V76.4775H328.458ZM343.066 76.9263C341.346 76.9263 339.8 76.5274 338.429 75.7296C337.083 74.9318 336.011 73.7974 335.213 72.3265C334.44 70.8306 334.054 69.0854 334.054 67.0909C334.054 65.0216 334.453 63.2515 335.251 61.7806C336.048 60.3096 337.133 59.1753 338.504 58.3775C339.875 57.5797 341.421 57.1808 343.141 57.1808C344.886 57.1808 346.432 57.5797 347.778 58.3775C349.15 59.1753 350.222 60.3096 350.995 61.7806C351.792 63.2515 352.191 65.0216 352.191 67.0909C352.191 69.0854 351.792 70.8306 350.995 72.3265C350.197 73.7974 349.112 74.9318 347.741 75.7296C346.37 76.5274 344.812 76.9263 343.066 76.9263ZM343.066 75.4304C344.363 75.4304 345.56 75.1188 346.657 74.4955C347.778 73.8722 348.688 72.9373 349.387 71.6907C350.085 70.4442 350.434 68.8984 350.434 67.0535C350.434 65.2086 350.085 63.6629 349.387 62.4163C348.713 61.1698 347.816 60.2473 346.694 59.649C345.597 59.0257 344.413 58.714 343.141 58.714C341.87 58.714 340.673 59.0257 339.551 59.649C338.429 60.2722 337.519 61.2072 336.821 62.4537C336.148 63.6754 335.811 65.2086 335.811 67.0535C335.811 68.8984 336.148 70.4442 336.821 71.6907C337.519 72.9373 338.417 73.8722 339.514 74.4955C340.611 75.1188 341.795 75.4304 343.066 75.4304Z" fill="black"/>
</svg>
