<svg width="307" height="16" viewBox="0 0 307 16" fill="none" xmlns="http://www.w3.org/2000/svg">
<path d="M3.59466 12V1.408H0.202656V0.799999H7.69066V1.408H4.31466V12H3.59466ZM9.45241 12V0.48H10.1724V5.616C10.4391 5.01867 10.8284 4.56 11.3404 4.24C11.8631 3.90933 12.4177 3.744 13.0044 3.744C13.5911 3.744 14.1084 3.86133 14.5564 4.096C15.0044 4.33067 15.3511 4.69333 15.5964 5.184C15.8524 5.67467 15.9804 6.304 15.9804 7.072V12H15.2764V7.184C15.2764 6.23467 15.0737 5.536 14.6684 5.088C14.2631 4.62933 13.6817 4.4 12.9244 4.4C12.4017 4.4 11.9324 4.53333 11.5164 4.8C11.1004 5.056 10.7697 5.42933 10.5244 5.92C10.2897 6.4 10.1724 6.992 10.1724 7.696V12H9.45241ZM18.1734 12V3.936H18.8934V12H18.1734ZM18.5414 1.808C18.3921 1.808 18.2587 1.75467 18.1414 1.648C18.0347 1.53067 17.9814 1.392 17.9814 1.232C17.9814 1.072 18.0347 0.944 18.1414 0.848C18.2587 0.741333 18.3921 0.688 18.5414 0.688C18.6907 0.688 18.8187 0.741333 18.9254 0.848C19.0427 0.944 19.1014 1.072 19.1014 1.232C19.1014 1.392 19.0427 1.53067 18.9254 1.648C18.8187 1.75467 18.6907 1.808 18.5414 1.808ZM24.0649 12.192C23.4782 12.192 22.9502 12.096 22.4809 11.904C22.0116 11.7013 21.6329 11.4027 21.3449 11.008C21.0676 10.6133 20.8916 10.1227 20.8169 9.536H21.5849C21.6276 9.96267 21.7609 10.3253 21.9849 10.624C22.2196 10.9227 22.5182 11.152 22.8809 11.312C23.2436 11.4613 23.6436 11.536 24.0809 11.536C24.5182 11.536 24.8862 11.4667 25.1849 11.328C25.4942 11.1893 25.7289 10.9973 25.8889 10.752C26.0596 10.496 26.1449 10.2133 26.1449 9.904C26.1449 9.50933 26.0596 9.20533 25.8889 8.992C25.7289 8.768 25.4836 8.59733 25.1529 8.48C24.8222 8.36267 24.4062 8.256 23.9049 8.16C23.4996 8.08533 23.1316 7.98933 22.8009 7.872C22.4809 7.75467 22.2036 7.61067 21.9689 7.44C21.7342 7.26933 21.5529 7.06133 21.4249 6.816C21.3076 6.56 21.2489 6.272 21.2489 5.952C21.2489 5.51467 21.3556 5.13067 21.5689 4.8C21.7929 4.46933 22.1022 4.21333 22.4969 4.032C22.8916 3.84 23.3609 3.744 23.9049 3.744C24.6729 3.744 25.3076 3.94667 25.8089 4.352C26.3209 4.75733 26.6142 5.35467 26.6889 6.144H25.9529C25.9209 5.62133 25.7236 5.2 25.3609 4.88C25.0089 4.56 24.5182 4.4 23.8889 4.4C23.2809 4.4 22.8116 4.53867 22.4809 4.816C22.1609 5.08267 22.0009 5.44 22.0009 5.888C22.0009 6.144 22.0649 6.37333 22.1929 6.576C22.3316 6.77867 22.5502 6.96 22.8489 7.12C23.1476 7.26933 23.5476 7.39733 24.0489 7.504C24.5716 7.6 25.0462 7.72267 25.4729 7.872C25.9102 8.02133 26.2569 8.24533 26.5129 8.544C26.7689 8.84267 26.8969 9.26933 26.8969 9.824C26.8969 10.2827 26.7796 10.6933 26.5449 11.056C26.3209 11.408 25.9956 11.6853 25.5689 11.888C25.1529 12.0907 24.6516 12.192 24.0649 12.192ZM37.7223 12.192C36.6663 12.192 35.7436 11.952 34.9543 11.472C34.1756 10.9813 33.5729 10.304 33.1463 9.44C32.7196 8.56533 32.5063 7.552 32.5063 6.4C32.5063 5.248 32.7196 4.24 33.1463 3.376C33.5729 2.50133 34.1756 1.824 34.9543 1.344C35.7436 0.853333 36.6663 0.608 37.7223 0.608C38.9489 0.608 39.9356 0.890666 40.6823 1.456C41.4289 2.01067 41.9196 2.8 42.1543 3.824H41.3543C41.1623 3.056 40.7676 2.43733 40.1703 1.968C39.5836 1.49867 38.7676 1.264 37.7223 1.264C36.8369 1.264 36.0583 1.46667 35.3863 1.872C34.7249 2.27733 34.2023 2.864 33.8183 3.632C33.4449 4.4 33.2583 5.32267 33.2583 6.4C33.2583 7.47733 33.4449 8.4 33.8183 9.168C34.2023 9.92533 34.7249 10.512 35.3863 10.928C36.0583 11.3333 36.8369 11.536 37.7223 11.536C38.7569 11.536 39.5729 11.3013 40.1703 10.832C40.7783 10.352 41.1729 9.728 41.3543 8.96H42.1543C41.9196 9.984 41.4289 10.7787 40.6823 11.344C39.9356 11.9093 38.9489 12.192 37.7223 12.192ZM47.3738 12.192C46.6164 12.192 45.9604 12.016 45.4058 11.664C44.8618 11.312 44.4404 10.816 44.1418 10.176C43.8431 9.536 43.6938 8.784 43.6938 7.92C43.6938 7.04533 43.8484 6.29867 44.1578 5.68C44.4778 5.06133 44.9151 4.58667 45.4698 4.256C46.0351 3.91467 46.6804 3.744 47.4058 3.744C48.1844 3.744 48.8351 3.92 49.3578 4.272C49.8804 4.61333 50.2751 5.06667 50.5418 5.632C50.8084 6.19733 50.9418 6.816 50.9418 7.488C50.9418 7.59467 50.9418 7.696 50.9418 7.792C50.9418 7.888 50.9364 8 50.9258 8.128H44.2058V7.504H50.2378C50.2271 6.46933 49.9551 5.69067 49.4218 5.168C48.8884 4.64533 48.2058 4.384 47.3738 4.384C46.8618 4.384 46.3818 4.50133 45.9338 4.736C45.4858 4.97067 45.1178 5.33333 44.8298 5.824C44.5524 6.31467 44.4138 6.93867 44.4138 7.696V7.984C44.4138 8.79467 44.5524 9.46667 44.8298 10C45.1071 10.5227 45.4698 10.912 45.9178 11.168C46.3658 11.424 46.8511 11.552 47.3738 11.552C48.0458 11.552 48.6004 11.3973 49.0378 11.088C49.4751 10.768 49.7951 10.32 49.9978 9.744H50.7178C50.5791 10.2133 50.3604 10.6347 50.0618 11.008C49.7738 11.3813 49.4058 11.6747 48.9578 11.888C48.5098 12.0907 47.9818 12.192 47.3738 12.192ZM52.7493 12V3.936H53.3893L53.4693 5.568C53.6506 5.14133 53.8853 4.79467 54.1733 4.528C54.4719 4.26133 54.8239 4.064 55.2293 3.936C55.6346 3.808 56.0933 3.744 56.6053 3.744V4.48H56.3173C55.9973 4.48 55.6666 4.52267 55.3253 4.608C54.9946 4.69333 54.6853 4.848 54.3973 5.072C54.1199 5.28533 53.8959 5.59467 53.7253 6C53.5546 6.40533 53.4693 6.92267 53.4693 7.552V12H52.7493ZM60.9715 12C60.5449 12 60.1822 11.936 59.8835 11.808C59.5955 11.68 59.3715 11.4613 59.2115 11.152C59.0622 10.832 58.9875 10.4053 58.9875 9.872V4.56H57.5795V3.936H58.9875L59.0995 2.176H59.7075V3.936H62.2355V4.56H59.7075V9.856C59.7075 10.4213 59.8195 10.816 60.0435 11.04C60.2675 11.264 60.6462 11.376 61.1795 11.376H62.0755V12H60.9715ZM64.0484 12V3.936H64.7684V12H64.0484ZM64.4164 1.808C64.2671 1.808 64.1337 1.75467 64.0164 1.648C63.9097 1.53067 63.8564 1.392 63.8564 1.232C63.8564 1.072 63.9097 0.944 64.0164 0.848C64.1337 0.741333 64.2671 0.688 64.4164 0.688C64.5657 0.688 64.6937 0.741333 64.8004 0.848C64.9177 0.944 64.9764 1.072 64.9764 1.232C64.9764 1.392 64.9177 1.53067 64.8004 1.648C64.6937 1.75467 64.5657 1.808 64.4164 1.808ZM67.6679 12V4.56H66.3559V3.936H67.6679V2.288C67.6679 1.89333 67.7319 1.56267 67.8599 1.296C67.9879 1.02933 68.1852 0.826667 68.4519 0.688C68.7292 0.549333 69.0812 0.48 69.5079 0.48H70.2599V1.104H69.5719C69.1559 1.104 68.8519 1.19467 68.6599 1.376C68.4786 1.55733 68.3879 1.872 68.3879 2.32V3.936H72.4999V12H71.7799V4.56H68.3879V12H67.6679ZM72.1479 1.856C72.0092 1.856 71.8812 1.80267 71.7639 1.696C71.6572 1.57867 71.6039 1.44 71.6039 1.28C71.6039 1.12 71.6572 0.991999 71.7639 0.896C71.8812 0.789333 72.0146 0.735999 72.1639 0.735999C72.3132 0.735999 72.4412 0.789333 72.5479 0.896C72.6546 0.991999 72.7079 1.12 72.7079 1.28C72.7079 1.44 72.6546 1.57867 72.5479 1.696C72.4412 1.80267 72.3079 1.856 72.1479 1.856ZM78.3139 12.192C77.5886 12.192 76.9379 12.0213 76.3619 11.68C75.7859 11.328 75.3326 10.8373 75.0019 10.208C74.6819 9.568 74.5219 8.82667 74.5219 7.984C74.5219 7.12 74.6872 6.37333 75.0179 5.744C75.3592 5.104 75.8179 4.61333 76.3939 4.272C76.9699 3.92 77.6099 3.744 78.3139 3.744C79.2206 3.744 79.9726 3.97867 80.5699 4.448C81.1779 4.91733 81.5619 5.52 81.7219 6.256H80.9699C80.8419 5.68 80.5379 5.22667 80.0579 4.896C79.5886 4.56533 79.0072 4.4 78.3139 4.4C77.8019 4.4 77.3112 4.53333 76.8419 4.8C76.3726 5.056 75.9939 5.45067 75.7059 5.984C75.4179 6.50667 75.2739 7.17333 75.2739 7.984C75.2739 8.60267 75.3592 9.136 75.5299 9.584C75.7006 10.032 75.9299 10.4053 76.2179 10.704C76.5166 10.992 76.8472 11.2053 77.2099 11.344C77.5726 11.4827 77.9406 11.552 78.3139 11.552C78.7619 11.552 79.1672 11.4827 79.5299 11.344C79.9032 11.1947 80.2179 10.9813 80.4739 10.704C80.7299 10.416 80.8952 10.0747 80.9699 9.68H81.7219C81.5726 10.4053 81.1992 11.008 80.6019 11.488C80.0152 11.9573 79.2526 12.192 78.3139 12.192ZM86.0563 12.192C85.4483 12.192 84.9363 12.0747 84.5203 11.84C84.1043 11.6053 83.7896 11.3013 83.5763 10.928C83.3629 10.544 83.2563 10.1333 83.2563 9.696C83.2563 9.10933 83.3896 8.62933 83.6563 8.256C83.9229 7.88267 84.2963 7.60533 84.7763 7.424C85.2669 7.232 85.8323 7.136 86.4723 7.136H88.9043C88.9043 6.56 88.8189 6.06933 88.6483 5.664C88.4883 5.25867 88.2376 4.944 87.8963 4.72C87.5549 4.496 87.1069 4.384 86.5523 4.384C85.9016 4.384 85.3629 4.53867 84.9363 4.848C84.5203 5.15733 84.2536 5.62667 84.1363 6.256H83.4003C83.4749 5.69067 83.6616 5.22667 83.9603 4.864C84.2696 4.49067 84.6483 4.21333 85.0963 4.032C85.5443 3.84 86.0296 3.744 86.5523 3.744C87.2883 3.744 87.8803 3.89333 88.3283 4.192C88.7763 4.48 89.1016 4.87467 89.3043 5.376C89.5176 5.86667 89.6243 6.42667 89.6243 7.056V12H88.9843L88.9043 10.384C88.8189 10.5547 88.7016 10.7467 88.5523 10.96C88.4029 11.1733 88.2163 11.3707 87.9923 11.552C87.7683 11.7333 87.4963 11.8827 87.1763 12C86.8669 12.128 86.4936 12.192 86.0563 12.192ZM86.1363 11.536C86.5949 11.536 86.9949 11.4507 87.3363 11.28C87.6776 11.0987 87.9656 10.864 88.2003 10.576C88.4349 10.2773 88.6109 9.95733 88.7283 9.616C88.8456 9.27467 88.9043 8.93867 88.9043 8.608V7.76H86.5203C85.8909 7.76 85.3949 7.84533 85.0323 8.016C84.6696 8.176 84.4083 8.4 84.2483 8.688C84.0989 8.976 84.0243 9.30667 84.0243 9.68C84.0243 10.0213 84.1043 10.336 84.2643 10.624C84.4243 10.9013 84.6643 11.1253 84.9843 11.296C85.3043 11.456 85.6883 11.536 86.1363 11.536ZM94.2215 12C93.7949 12 93.4322 11.936 93.1335 11.808C92.8455 11.68 92.6215 11.4613 92.4615 11.152C92.3122 10.832 92.2375 10.4053 92.2375 9.872V4.56H90.8295V3.936H92.2375L92.3495 2.176H92.9575V3.936H95.4855V4.56H92.9575V9.856C92.9575 10.4213 93.0695 10.816 93.2935 11.04C93.5175 11.264 93.8962 11.376 94.4295 11.376H95.3255V12H94.2215ZM100.296 12.192C99.5383 12.192 98.8823 12.016 98.3277 11.664C97.7837 11.312 97.3623 10.816 97.0637 10.176C96.765 9.536 96.6157 8.784 96.6157 7.92C96.6157 7.04533 96.7703 6.29867 97.0797 5.68C97.3997 5.06133 97.837 4.58667 98.3917 4.256C98.957 3.91467 99.6023 3.744 100.328 3.744C101.106 3.744 101.757 3.92 102.28 4.272C102.802 4.61333 103.197 5.06667 103.464 5.632C103.73 6.19733 103.864 6.816 103.864 7.488C103.864 7.59467 103.864 7.696 103.864 7.792C103.864 7.888 103.858 8 103.848 8.128H97.1277V7.504H103.16C103.149 6.46933 102.877 5.69067 102.344 5.168C101.81 4.64533 101.128 4.384 100.296 4.384C99.7837 4.384 99.3037 4.50133 98.8557 4.736C98.4077 4.97067 98.0397 5.33333 97.7517 5.824C97.4743 6.31467 97.3357 6.93867 97.3357 7.696V7.984C97.3357 8.79467 97.4743 9.46667 97.7517 10C98.029 10.5227 98.3917 10.912 98.8397 11.168C99.2877 11.424 99.773 11.552 100.296 11.552C100.968 11.552 101.522 11.3973 101.96 11.088C102.397 10.768 102.717 10.32 102.92 9.744H103.64C103.501 10.2133 103.282 10.6347 102.984 11.008C102.696 11.3813 102.328 11.6747 101.88 11.888C101.432 12.0907 100.904 12.192 100.296 12.192ZM113.175 12.192C112.439 12.192 111.777 12.0213 111.191 11.68C110.615 11.3387 110.156 10.8533 109.815 10.224C109.484 9.584 109.319 8.83733 109.319 7.984C109.319 7.09867 109.489 6.34133 109.831 5.712C110.172 5.08267 110.636 4.59733 111.223 4.256C111.809 3.91467 112.471 3.744 113.207 3.744C113.953 3.744 114.615 3.91467 115.191 4.256C115.777 4.59733 116.236 5.08267 116.567 5.712C116.908 6.34133 117.079 7.09867 117.079 7.984C117.079 8.83733 116.908 9.584 116.567 10.224C116.225 10.8533 115.761 11.3387 115.175 11.68C114.588 12.0213 113.921 12.192 113.175 12.192ZM113.175 11.552C113.729 11.552 114.241 11.4187 114.711 11.152C115.191 10.8853 115.58 10.4853 115.879 9.952C116.177 9.41867 116.327 8.75733 116.327 7.968C116.327 7.17867 116.177 6.51733 115.879 5.984C115.591 5.45067 115.207 5.056 114.727 4.8C114.257 4.53333 113.751 4.4 113.207 4.4C112.663 4.4 112.151 4.53333 111.671 4.8C111.191 5.06667 110.801 5.46667 110.503 6C110.215 6.52267 110.071 7.17867 110.071 7.968C110.071 8.75733 110.215 9.41867 110.503 9.952C110.801 10.4853 111.185 10.8853 111.655 11.152C112.124 11.4187 112.631 11.552 113.175 11.552ZM119.512 12V2.288C119.512 1.89333 119.57 1.56267 119.688 1.296C119.816 1.02933 120.013 0.826667 120.28 0.688C120.557 0.549333 120.914 0.48 121.352 0.48H122.216V1.104H121.432C120.994 1.104 120.685 1.19467 120.504 1.376C120.322 1.55733 120.232 1.872 120.232 2.32V12H119.512ZM118.2 4.56V3.936H122.456V4.56H118.2ZM132.941 12.192C131.885 12.192 130.962 11.952 130.173 11.472C129.394 10.9813 128.792 10.304 128.365 9.44C127.938 8.56533 127.725 7.552 127.725 6.4C127.725 5.248 127.938 4.24 128.365 3.376C128.792 2.50133 129.394 1.824 130.173 1.344C130.962 0.853333 131.885 0.608 132.941 0.608C134.168 0.608 135.154 0.890666 135.901 1.456C136.648 2.01067 137.138 2.8 137.373 3.824H136.573C136.381 3.056 135.986 2.43733 135.389 1.968C134.802 1.49867 133.986 1.264 132.941 1.264C132.056 1.264 131.277 1.46667 130.605 1.872C129.944 2.27733 129.421 2.864 129.037 3.632C128.664 4.4 128.477 5.32267 128.477 6.4C128.477 7.47733 128.664 8.4 129.037 9.168C129.421 9.92533 129.944 10.512 130.605 10.928C131.277 11.3333 132.056 11.536 132.941 11.536C133.976 11.536 134.792 11.3013 135.389 10.832C135.997 10.352 136.392 9.728 136.573 8.96H137.373C137.138 9.984 136.648 10.7787 135.901 11.344C135.154 11.9093 134.168 12.192 132.941 12.192ZM142.769 12.192C142.033 12.192 141.371 12.0213 140.785 11.68C140.209 11.3387 139.75 10.8533 139.409 10.224C139.078 9.584 138.913 8.83733 138.913 7.984C138.913 7.09867 139.083 6.34133 139.425 5.712C139.766 5.08267 140.23 4.59733 140.817 4.256C141.403 3.91467 142.065 3.744 142.801 3.744C143.547 3.744 144.209 3.91467 144.785 4.256C145.371 4.59733 145.83 5.08267 146.161 5.712C146.502 6.34133 146.673 7.09867 146.673 7.984C146.673 8.83733 146.502 9.584 146.161 10.224C145.819 10.8533 145.355 11.3387 144.769 11.68C144.182 12.0213 143.515 12.192 142.769 12.192ZM142.769 11.552C143.323 11.552 143.835 11.4187 144.305 11.152C144.785 10.8853 145.174 10.4853 145.473 9.952C145.771 9.41867 145.921 8.75733 145.921 7.968C145.921 7.17867 145.771 6.51733 145.473 5.984C145.185 5.45067 144.801 5.056 144.321 4.8C143.851 4.53333 143.345 4.4 142.801 4.4C142.257 4.4 141.745 4.53333 141.265 4.8C140.785 5.06667 140.395 5.46667 140.097 6C139.809 6.52267 139.665 7.17867 139.665 7.968C139.665 8.75733 139.809 9.41867 140.097 9.952C140.395 10.4853 140.779 10.8853 141.249 11.152C141.718 11.4187 142.225 11.552 142.769 11.552ZM148.577 12V3.936H149.217L149.297 5.472C149.553 4.90667 149.905 4.48 150.353 4.192C150.812 3.89333 151.34 3.744 151.937 3.744C152.3 3.744 152.647 3.80267 152.977 3.92C153.319 4.03733 153.617 4.23467 153.873 4.512C154.14 4.78933 154.343 5.168 154.481 5.648C154.684 5.09333 155.015 4.64 155.473 4.288C155.943 3.92533 156.508 3.744 157.169 3.744C157.767 3.744 158.284 3.86667 158.721 4.112C159.159 4.34667 159.5 4.71467 159.745 5.216C159.991 5.71733 160.113 6.368 160.113 7.168V12H159.393V7.216C159.393 6.24533 159.201 5.536 158.817 5.088C158.433 4.62933 157.873 4.4 157.137 4.4C156.689 4.4 156.279 4.512 155.905 4.736C155.532 4.96 155.233 5.29067 155.009 5.728C154.796 6.16533 154.689 6.71467 154.689 7.376V12H153.969V7.168C153.969 6.21867 153.783 5.52 153.409 5.072C153.047 4.624 152.535 4.4 151.873 4.4C151.361 4.4 150.913 4.528 150.529 4.784C150.145 5.04 149.841 5.41333 149.617 5.904C149.404 6.39467 149.297 7.008 149.297 7.744V12H148.577ZM162.202 15.52V3.936H162.842L162.922 5.952C163.082 5.54667 163.312 5.17867 163.61 4.848C163.909 4.51733 164.272 4.25067 164.698 4.048C165.136 3.84533 165.626 3.744 166.17 3.744C166.949 3.744 167.621 3.93067 168.186 4.304C168.762 4.66667 169.205 5.168 169.514 5.808C169.824 6.43733 169.978 7.16267 169.978 7.984C169.978 8.79467 169.824 9.52 169.514 10.16C169.205 10.7893 168.762 11.2853 168.186 11.648C167.621 12.0107 166.944 12.192 166.154 12.192C165.386 12.192 164.72 11.9947 164.154 11.6C163.589 11.2053 163.178 10.656 162.922 9.952V15.52H162.202ZM166.122 11.536C166.73 11.536 167.264 11.392 167.722 11.104C168.192 10.816 168.56 10.4053 168.826 9.872C169.093 9.33867 169.226 8.704 169.226 7.968C169.226 7.24267 169.093 6.61333 168.826 6.08C168.56 5.54667 168.192 5.136 167.722 4.848C167.264 4.54933 166.73 4.4 166.122 4.4C165.514 4.4 164.976 4.55467 164.506 4.864C164.037 5.16267 163.669 5.584 163.402 6.128C163.146 6.66133 163.018 7.27467 163.018 7.968C163.018 8.672 163.146 9.296 163.402 9.84C163.669 10.3733 164.037 10.7893 164.506 11.088C164.976 11.3867 165.514 11.536 166.122 11.536ZM171.89 12V0.48H172.61V12H171.89ZM178.171 12.192C177.413 12.192 176.757 12.016 176.203 11.664C175.659 11.312 175.237 10.816 174.939 10.176C174.64 9.536 174.491 8.784 174.491 7.92C174.491 7.04533 174.645 6.29867 174.955 5.68C175.275 5.06133 175.712 4.58667 176.267 4.256C176.832 3.91467 177.477 3.744 178.203 3.744C178.981 3.744 179.632 3.92 180.155 4.272C180.677 4.61333 181.072 5.06667 181.339 5.632C181.605 6.19733 181.739 6.816 181.739 7.488C181.739 7.59467 181.739 7.696 181.739 7.792C181.739 7.888 181.733 8 181.723 8.128H175.003V7.504H181.035C181.024 6.46933 180.752 5.69067 180.219 5.168C179.685 4.64533 179.003 4.384 178.171 4.384C177.659 4.384 177.179 4.50133 176.731 4.736C176.283 4.97067 175.915 5.33333 175.627 5.824C175.349 6.31467 175.211 6.93867 175.211 7.696V7.984C175.211 8.79467 175.349 9.46667 175.627 10C175.904 10.5227 176.267 10.912 176.715 11.168C177.163 11.424 177.648 11.552 178.171 11.552C178.843 11.552 179.397 11.3973 179.835 11.088C180.272 10.768 180.592 10.32 180.795 9.744H181.515C181.376 10.2133 181.157 10.6347 180.859 11.008C180.571 11.3813 180.203 11.6747 179.755 11.888C179.307 12.0907 178.779 12.192 178.171 12.192ZM185.972 12C185.545 12 185.182 11.936 184.884 11.808C184.596 11.68 184.372 11.4613 184.212 11.152C184.062 10.832 183.988 10.4053 183.988 9.872V4.56H182.58V3.936H183.988L184.1 2.176H184.708V3.936H187.236V4.56H184.708V9.856C184.708 10.4213 184.82 10.816 185.044 11.04C185.268 11.264 185.646 11.376 186.18 11.376H187.076V12H185.972ZM189.048 12V3.936H189.768V12H189.048ZM189.416 1.808C189.267 1.808 189.134 1.75467 189.016 1.648C188.91 1.53067 188.856 1.392 188.856 1.232C188.856 1.072 188.91 0.944 189.016 0.848C189.134 0.741333 189.267 0.688 189.416 0.688C189.566 0.688 189.694 0.741333 189.8 0.848C189.918 0.944 189.976 1.072 189.976 1.232C189.976 1.392 189.918 1.53067 189.8 1.648C189.694 1.75467 189.566 1.808 189.416 1.808ZM195.628 12.192C194.892 12.192 194.231 12.0213 193.644 11.68C193.068 11.3387 192.609 10.8533 192.268 10.224C191.937 9.584 191.772 8.83733 191.772 7.984C191.772 7.09867 191.943 6.34133 192.284 5.712C192.625 5.08267 193.089 4.59733 193.676 4.256C194.263 3.91467 194.924 3.744 195.66 3.744C196.407 3.744 197.068 3.91467 197.644 4.256C198.231 4.59733 198.689 5.08267 199.02 5.712C199.361 6.34133 199.532 7.09867 199.532 7.984C199.532 8.83733 199.361 9.584 199.02 10.224C198.679 10.8533 198.215 11.3387 197.628 11.68C197.041 12.0213 196.375 12.192 195.628 12.192ZM195.628 11.552C196.183 11.552 196.695 11.4187 197.164 11.152C197.644 10.8853 198.033 10.4853 198.332 9.952C198.631 9.41867 198.78 8.75733 198.78 7.968C198.78 7.17867 198.631 6.51733 198.332 5.984C198.044 5.45067 197.66 5.056 197.18 4.8C196.711 4.53333 196.204 4.4 195.66 4.4C195.116 4.4 194.604 4.53333 194.124 4.8C193.644 5.06667 193.255 5.46667 192.956 6C192.668 6.52267 192.524 7.17867 192.524 7.968C192.524 8.75733 192.668 9.41867 192.956 9.952C193.255 10.4853 193.639 10.8853 194.108 11.152C194.577 11.4187 195.084 11.552 195.628 11.552ZM201.437 12V3.936H202.077L202.141 5.568C202.418 4.96 202.802 4.50667 203.293 4.208C203.794 3.89867 204.349 3.744 204.957 3.744C205.543 3.744 206.061 3.86133 206.509 4.096C206.957 4.33067 207.309 4.69333 207.565 5.184C207.821 5.664 207.949 6.288 207.949 7.056V12H207.229V7.168C207.229 6.21867 207.026 5.52 206.621 5.072C206.215 4.624 205.629 4.4 204.861 4.4C204.349 4.4 203.885 4.528 203.469 4.784C203.063 5.02933 202.743 5.392 202.509 5.872C202.274 6.352 202.157 6.944 202.157 7.648V12H201.437ZM214.158 12V3.936H214.878V12H214.158ZM214.526 1.808C214.376 1.808 214.243 1.75467 214.126 1.648C214.019 1.53067 213.966 1.392 213.966 1.232C213.966 1.072 214.019 0.944 214.126 0.848C214.243 0.741333 214.376 0.688 214.526 0.688C214.675 0.688 214.803 0.741333 214.91 0.848C215.027 0.944 215.086 1.072 215.086 1.232C215.086 1.392 215.027 1.53067 214.91 1.648C214.803 1.75467 214.675 1.808 214.526 1.808ZM220.049 12.192C219.463 12.192 218.935 12.096 218.465 11.904C217.996 11.7013 217.617 11.4027 217.329 11.008C217.052 10.6133 216.876 10.1227 216.801 9.536H217.569C217.612 9.96267 217.745 10.3253 217.969 10.624C218.204 10.9227 218.503 11.152 218.865 11.312C219.228 11.4613 219.628 11.536 220.065 11.536C220.503 11.536 220.871 11.4667 221.169 11.328C221.479 11.1893 221.713 10.9973 221.873 10.752C222.044 10.496 222.129 10.2133 222.129 9.904C222.129 9.50933 222.044 9.20533 221.873 8.992C221.713 8.768 221.468 8.59733 221.137 8.48C220.807 8.36267 220.391 8.256 219.889 8.16C219.484 8.08533 219.116 7.98933 218.785 7.872C218.465 7.75467 218.188 7.61067 217.953 7.44C217.719 7.26933 217.537 7.06133 217.409 6.816C217.292 6.56 217.233 6.272 217.233 5.952C217.233 5.51467 217.34 5.13067 217.553 4.8C217.777 4.46933 218.087 4.21333 218.481 4.032C218.876 3.84 219.345 3.744 219.889 3.744C220.657 3.744 221.292 3.94667 221.793 4.352C222.305 4.75733 222.599 5.35467 222.673 6.144H221.937C221.905 5.62133 221.708 5.2 221.345 4.88C220.993 4.56 220.503 4.4 219.873 4.4C219.265 4.4 218.796 4.53867 218.465 4.816C218.145 5.08267 217.985 5.44 217.985 5.888C217.985 6.144 218.049 6.37333 218.177 6.576C218.316 6.77867 218.535 6.96 218.833 7.12C219.132 7.26933 219.532 7.39733 220.033 7.504C220.556 7.6 221.031 7.72267 221.457 7.872C221.895 8.02133 222.241 8.24533 222.497 8.544C222.753 8.84267 222.881 9.26933 222.881 9.824C222.881 10.2827 222.764 10.6933 222.529 11.056C222.305 11.408 221.98 11.6853 221.553 11.888C221.137 12.0907 220.636 12.192 220.049 12.192ZM231.291 12.192C230.683 12.192 230.171 12.0747 229.755 11.84C229.339 11.6053 229.024 11.3013 228.811 10.928C228.597 10.544 228.491 10.1333 228.491 9.696C228.491 9.10933 228.624 8.62933 228.891 8.256C229.157 7.88267 229.531 7.60533 230.011 7.424C230.501 7.232 231.067 7.136 231.707 7.136H234.139C234.139 6.56 234.053 6.06933 233.883 5.664C233.723 5.25867 233.472 4.944 233.131 4.72C232.789 4.496 232.341 4.384 231.787 4.384C231.136 4.384 230.597 4.53867 230.171 4.848C229.755 5.15733 229.488 5.62667 229.371 6.256H228.635C228.709 5.69067 228.896 5.22667 229.195 4.864C229.504 4.49067 229.883 4.21333 230.331 4.032C230.779 3.84 231.264 3.744 231.787 3.744C232.523 3.744 233.115 3.89333 233.563 4.192C234.011 4.48 234.336 4.87467 234.539 5.376C234.752 5.86667 234.859 6.42667 234.859 7.056V12H234.219L234.139 10.384C234.053 10.5547 233.936 10.7467 233.787 10.96C233.637 11.1733 233.451 11.3707 233.227 11.552C233.003 11.7333 232.731 11.8827 232.411 12C232.101 12.128 231.728 12.192 231.291 12.192ZM231.371 11.536C231.829 11.536 232.229 11.4507 232.571 11.28C232.912 11.0987 233.2 10.864 233.435 10.576C233.669 10.2773 233.845 9.95733 233.963 9.616C234.08 9.27467 234.139 8.93867 234.139 8.608V7.76H231.755C231.125 7.76 230.629 7.84533 230.267 8.016C229.904 8.176 229.643 8.4 229.483 8.688C229.333 8.976 229.259 9.30667 229.259 9.68C229.259 10.0213 229.339 10.336 229.499 10.624C229.659 10.9013 229.899 11.1253 230.219 11.296C230.539 11.456 230.923 11.536 231.371 11.536ZM238.302 12L236.014 3.936H236.766L238.75 11.2H238.638L240.862 3.936H241.694L243.886 11.184H243.774L245.79 3.936H246.542L244.206 12H243.438L241.23 4.592H241.342L239.054 12H238.302ZM250.353 12.192C249.745 12.192 249.233 12.0747 248.817 11.84C248.401 11.6053 248.086 11.3013 247.873 10.928C247.66 10.544 247.553 10.1333 247.553 9.696C247.553 9.10933 247.686 8.62933 247.953 8.256C248.22 7.88267 248.593 7.60533 249.073 7.424C249.564 7.232 250.129 7.136 250.769 7.136H253.201C253.201 6.56 253.116 6.06933 252.945 5.664C252.785 5.25867 252.534 4.944 252.193 4.72C251.852 4.496 251.404 4.384 250.849 4.384C250.198 4.384 249.66 4.53867 249.233 4.848C248.817 5.15733 248.55 5.62667 248.433 6.256H247.697C247.772 5.69067 247.958 5.22667 248.257 4.864C248.566 4.49067 248.945 4.21333 249.393 4.032C249.841 3.84 250.326 3.744 250.849 3.744C251.585 3.744 252.177 3.89333 252.625 4.192C253.073 4.48 253.398 4.87467 253.601 5.376C253.814 5.86667 253.921 6.42667 253.921 7.056V12H253.281L253.201 10.384C253.116 10.5547 252.998 10.7467 252.849 10.96C252.7 11.1733 252.513 11.3707 252.289 11.552C252.065 11.7333 251.793 11.8827 251.473 12C251.164 12.128 250.79 12.192 250.353 12.192ZM250.433 11.536C250.892 11.536 251.292 11.4507 251.633 11.28C251.974 11.0987 252.262 10.864 252.497 10.576C252.732 10.2773 252.908 9.95733 253.025 9.616C253.142 9.27467 253.201 8.93867 253.201 8.608V7.76H250.817C250.188 7.76 249.692 7.84533 249.329 8.016C248.966 8.176 248.705 8.4 248.545 8.688C248.396 8.976 248.321 9.30667 248.321 9.68C248.321 10.0213 248.401 10.336 248.561 10.624C248.721 10.9013 248.961 11.1253 249.281 11.296C249.601 11.456 249.985 11.536 250.433 11.536ZM256.015 12V3.936H256.655L256.735 5.568C256.916 5.14133 257.151 4.79467 257.439 4.528C257.738 4.26133 258.09 4.064 258.495 3.936C258.9 3.808 259.359 3.744 259.871 3.744V4.48H259.583C259.263 4.48 258.932 4.52267 258.591 4.608C258.26 4.69333 257.951 4.848 257.663 5.072C257.386 5.28533 257.162 5.59467 256.991 6C256.82 6.40533 256.735 6.92267 256.735 7.552V12H256.015ZM264.424 12.192C263.645 12.192 262.968 12.0107 262.392 11.648C261.826 11.2747 261.389 10.7733 261.08 10.144C260.77 9.504 260.616 8.77867 260.616 7.968C260.616 7.15733 260.77 6.43733 261.08 5.808C261.389 5.168 261.832 4.66667 262.408 4.304C262.984 3.93067 263.661 3.744 264.44 3.744C265.218 3.744 265.885 3.94667 266.44 4.352C267.005 4.74667 267.416 5.29067 267.672 5.984V0.48H268.392V12H267.752L267.656 10.016C267.496 10.4213 267.261 10.7893 266.952 11.12C266.653 11.44 266.29 11.7013 265.864 11.904C265.437 12.096 264.957 12.192 264.424 12.192ZM264.472 11.536C265.08 11.536 265.618 11.3867 266.088 11.088C266.557 10.7787 266.92 10.3573 267.176 9.824C267.442 9.28 267.576 8.66133 267.576 7.968C267.576 7.264 267.442 6.64533 267.176 6.112C266.92 5.568 266.557 5.14667 266.088 4.848C265.629 4.54933 265.09 4.4 264.472 4.4C263.874 4.4 263.336 4.544 262.856 4.832C262.386 5.12 262.018 5.536 261.752 6.08C261.485 6.61333 261.352 7.24267 261.352 7.968C261.352 8.69333 261.485 9.32267 261.752 9.856C262.029 10.3893 262.402 10.8053 262.872 11.104C263.341 11.392 263.874 11.536 264.472 11.536ZM273.983 12.192C273.226 12.192 272.57 12.016 272.015 11.664C271.471 11.312 271.05 10.816 270.751 10.176C270.452 9.536 270.303 8.784 270.303 7.92C270.303 7.04533 270.458 6.29867 270.767 5.68C271.087 5.06133 271.524 4.58667 272.079 4.256C272.644 3.91467 273.29 3.744 274.015 3.744C274.794 3.744 275.444 3.92 275.967 4.272C276.49 4.61333 276.884 5.06667 277.151 5.632C277.418 6.19733 277.551 6.816 277.551 7.488C277.551 7.59467 277.551 7.696 277.551 7.792C277.551 7.888 277.546 8 277.535 8.128H270.815V7.504H276.847C276.836 6.46933 276.564 5.69067 276.031 5.168C275.498 4.64533 274.815 4.384 273.983 4.384C273.471 4.384 272.991 4.50133 272.543 4.736C272.095 4.97067 271.727 5.33333 271.439 5.824C271.162 6.31467 271.023 6.93867 271.023 7.696V7.984C271.023 8.79467 271.162 9.46667 271.439 10C271.716 10.5227 272.079 10.912 272.527 11.168C272.975 11.424 273.46 11.552 273.983 11.552C274.655 11.552 275.21 11.3973 275.647 11.088C276.084 10.768 276.404 10.32 276.607 9.744H277.327C277.188 10.2133 276.97 10.6347 276.671 11.008C276.383 11.3813 276.015 11.6747 275.567 11.888C275.119 12.0907 274.591 12.192 273.983 12.192ZM282.799 12.192C282.02 12.192 281.343 12.0107 280.767 11.648C280.201 11.2747 279.764 10.7733 279.455 10.144C279.145 9.504 278.991 8.77867 278.991 7.968C278.991 7.15733 279.145 6.43733 279.455 5.808C279.764 5.168 280.207 4.66667 280.783 4.304C281.359 3.93067 282.036 3.744 282.815 3.744C283.593 3.744 284.26 3.94667 284.815 4.352C285.38 4.74667 285.791 5.29067 286.047 5.984V0.48H286.767V12H286.127L286.031 10.016C285.871 10.4213 285.636 10.7893 285.327 11.12C285.028 11.44 284.665 11.7013 284.239 11.904C283.812 12.096 283.332 12.192 282.799 12.192ZM282.847 11.536C283.455 11.536 283.993 11.3867 284.463 11.088C284.932 10.7787 285.295 10.3573 285.551 9.824C285.817 9.28 285.951 8.66133 285.951 7.968C285.951 7.264 285.817 6.64533 285.551 6.112C285.295 5.568 284.932 5.14667 284.463 4.848C284.004 4.54933 283.465 4.4 282.847 4.4C282.249 4.4 281.711 4.544 281.231 4.832C280.761 5.12 280.393 5.536 280.127 6.08C279.86 6.61333 279.727 7.24267 279.727 7.968C279.727 8.69333 279.86 9.32267 280.127 9.856C280.404 10.3893 280.777 10.8053 281.247 11.104C281.716 11.392 282.249 11.536 282.847 11.536ZM295.878 12C295.451 12 295.088 11.936 294.79 11.808C294.502 11.68 294.278 11.4613 294.118 11.152C293.968 10.832 293.894 10.4053 293.894 9.872V4.56H292.486V3.936H293.894L294.006 2.176H294.614V3.936H297.142V4.56H294.614V9.856C294.614 10.4213 294.726 10.816 294.95 11.04C295.174 11.264 295.552 11.376 296.086 11.376H296.982V12H295.878ZM302.128 12.192C301.392 12.192 300.731 12.0213 300.144 11.68C299.568 11.3387 299.109 10.8533 298.768 10.224C298.437 9.584 298.272 8.83733 298.272 7.984C298.272 7.09867 298.443 6.34133 298.784 5.712C299.125 5.08267 299.589 4.59733 300.176 4.256C300.763 3.91467 301.424 3.744 302.16 3.744C302.907 3.744 303.568 3.91467 304.144 4.256C304.731 4.59733 305.189 5.08267 305.52 5.712C305.861 6.34133 306.032 7.09867 306.032 7.984C306.032 8.83733 305.861 9.584 305.52 10.224C305.179 10.8533 304.715 11.3387 304.128 11.68C303.541 12.0213 302.875 12.192 302.128 12.192ZM302.128 11.552C302.683 11.552 303.195 11.4187 303.664 11.152C304.144 10.8853 304.533 10.4853 304.832 9.952C305.131 9.41867 305.28 8.75733 305.28 7.968C305.28 7.17867 305.131 6.51733 304.832 5.984C304.544 5.45067 304.16 5.056 303.68 4.8C303.211 4.53333 302.704 4.4 302.16 4.4C301.616 4.4 301.104 4.53333 300.624 4.8C300.144 5.06667 299.755 5.46667 299.456 6C299.168 6.52267 299.024 7.17867 299.024 7.968C299.024 8.75733 299.168 9.41867 299.456 9.952C299.755 10.4853 300.139 10.8853 300.608 11.152C301.077 11.4187 301.584 11.552 302.128 11.552Z" fill="black"/>
</svg>
