<svg width="307" height="16" viewBox="0 0 307 16" fill="none" xmlns="http://www.w3.org/2000/svg">
<path d="M3.872 12V1.408H0.48V0.799999H7.968V1.408H4.592V12H3.872ZM9.72975 12V0.48H10.4498V5.616C10.7164 5.01867 11.1058 4.56 11.6178 4.24C12.1404 3.90933 12.6951 3.744 13.2818 3.744C13.8684 3.744 14.3858 3.86133 14.8338 4.096C15.2818 4.33067 15.6284 4.69333 15.8738 5.184C16.1298 5.67467 16.2578 6.304 16.2578 7.072V12H15.5538V7.184C15.5538 6.23467 15.3511 5.536 14.9458 5.088C14.5404 4.62933 13.9591 4.4 13.2018 4.4C12.6791 4.4 12.2098 4.53333 11.7938 4.8C11.3778 5.056 11.0471 5.42933 10.8018 5.92C10.5671 6.4 10.4498 6.992 10.4498 7.696V12H9.72975ZM18.4508 12V3.936H19.1708V12H18.4508ZM18.8188 1.808C18.6694 1.808 18.5361 1.75467 18.4188 1.648C18.3121 1.53067 18.2588 1.392 18.2588 1.232C18.2588 1.072 18.3121 0.944 18.4188 0.848C18.5361 0.741333 18.6694 0.688 18.8188 0.688C18.9681 0.688 19.0961 0.741333 19.2028 0.848C19.3201 0.944 19.3788 1.072 19.3788 1.232C19.3788 1.392 19.3201 1.53067 19.2028 1.648C19.0961 1.75467 18.9681 1.808 18.8188 1.808ZM24.3423 12.192C23.7556 12.192 23.2276 12.096 22.7582 11.904C22.2889 11.7013 21.9103 11.4027 21.6223 11.008C21.3449 10.6133 21.1689 10.1227 21.0943 9.536H21.8623C21.9049 9.96267 22.0383 10.3253 22.2623 10.624C22.4969 10.9227 22.7956 11.152 23.1583 11.312C23.5209 11.4613 23.9209 11.536 24.3583 11.536C24.7956 11.536 25.1636 11.4667 25.4623 11.328C25.7716 11.1893 26.0063 10.9973 26.1663 10.752C26.3369 10.496 26.4223 10.2133 26.4223 9.904C26.4223 9.50933 26.3369 9.20533 26.1663 8.992C26.0063 8.768 25.7609 8.59733 25.4303 8.48C25.0996 8.36267 24.6836 8.256 24.1823 8.16C23.7769 8.08533 23.4089 7.98933 23.0783 7.872C22.7583 7.75467 22.4809 7.61067 22.2463 7.44C22.0116 7.26933 21.8303 7.06133 21.7023 6.816C21.5849 6.56 21.5263 6.272 21.5263 5.952C21.5263 5.51467 21.6329 5.13067 21.8463 4.8C22.0703 4.46933 22.3796 4.21333 22.7743 4.032C23.1689 3.84 23.6383 3.744 24.1823 3.744C24.9503 3.744 25.5849 3.94667 26.0863 4.352C26.5983 4.75733 26.8916 5.35467 26.9663 6.144H26.2303C26.1983 5.62133 26.0009 5.2 25.6383 4.88C25.2863 4.56 24.7956 4.4 24.1663 4.4C23.5583 4.4 23.0889 4.53867 22.7582 4.816C22.4383 5.08267 22.2783 5.44 22.2783 5.888C22.2783 6.144 22.3423 6.37333 22.4703 6.576C22.6089 6.77867 22.8276 6.96 23.1263 7.12C23.4249 7.26933 23.8249 7.39733 24.3263 7.504C24.8489 7.6 25.3236 7.72267 25.7503 7.872C26.1876 8.02133 26.5343 8.24533 26.7903 8.544C27.0463 8.84267 27.1743 9.26933 27.1743 9.824C27.1743 10.2827 27.0569 10.6933 26.8223 11.056C26.5983 11.408 26.2729 11.6853 25.8463 11.888C25.4303 12.0907 24.9289 12.192 24.3423 12.192ZM37.9996 12.192C36.9436 12.192 36.021 11.952 35.2316 11.472C34.453 10.9813 33.8503 10.304 33.4236 9.44C32.997 8.56533 32.7836 7.552 32.7836 6.4C32.7836 5.248 32.997 4.24 33.4236 3.376C33.8503 2.50133 34.453 1.824 35.2316 1.344C36.021 0.853333 36.9436 0.608 37.9996 0.608C39.2263 0.608 40.213 0.890666 40.9596 1.456C41.7063 2.01067 42.197 2.8 42.4316 3.824H41.6316C41.4396 3.056 41.045 2.43733 40.4476 1.968C39.861 1.49867 39.045 1.264 37.9996 1.264C37.1143 1.264 36.3356 1.46667 35.6636 1.872C35.0023 2.27733 34.4796 2.864 34.0956 3.632C33.7223 4.4 33.5356 5.32267 33.5356 6.4C33.5356 7.47733 33.7223 8.4 34.0956 9.168C34.4796 9.92533 35.0023 10.512 35.6636 10.928C36.3356 11.3333 37.1143 11.536 37.9996 11.536C39.0343 11.536 39.8503 11.3013 40.4476 10.832C41.0556 10.352 41.4503 9.728 41.6316 8.96H42.4316C42.197 9.984 41.7063 10.7787 40.9596 11.344C40.213 11.9093 39.2263 12.192 37.9996 12.192ZM47.6511 12.192C46.8938 12.192 46.2378 12.016 45.6831 11.664C45.1391 11.312 44.7178 10.816 44.4191 10.176C44.1205 9.536 43.9711 8.784 43.9711 7.92C43.9711 7.04533 44.1258 6.29867 44.4351 5.68C44.7551 5.06133 45.1925 4.58667 45.7471 4.256C46.3125 3.91467 46.9578 3.744 47.6831 3.744C48.4618 3.744 49.1125 3.92 49.6351 4.272C50.1578 4.61333 50.5525 5.06667 50.8191 5.632C51.0858 6.19733 51.2191 6.816 51.2191 7.488C51.2191 7.59467 51.2191 7.696 51.2191 7.792C51.2191 7.888 51.2138 8 51.2031 8.128H44.4831V7.504H50.5151C50.5045 6.46933 50.2325 5.69067 49.6991 5.168C49.1658 4.64533 48.4831 4.384 47.6511 4.384C47.1391 4.384 46.6591 4.50133 46.2111 4.736C45.7631 4.97067 45.3951 5.33333 45.1071 5.824C44.8298 6.31467 44.6911 6.93867 44.6911 7.696V7.984C44.6911 8.79467 44.8298 9.46667 45.1071 10C45.3845 10.5227 45.7471 10.912 46.1951 11.168C46.6431 11.424 47.1285 11.552 47.6511 11.552C48.3231 11.552 48.8778 11.3973 49.3151 11.088C49.7525 10.768 50.0725 10.32 50.2751 9.744H50.9951C50.8565 10.2133 50.6378 10.6347 50.3391 11.008C50.0511 11.3813 49.6831 11.6747 49.2351 11.888C48.7871 12.0907 48.2591 12.192 47.6511 12.192ZM53.0266 12V3.936H53.6666L53.7466 5.568C53.928 5.14133 54.1626 4.79467 54.4506 4.528C54.7493 4.26133 55.1013 4.064 55.5066 3.936C55.912 3.808 56.3706 3.744 56.8826 3.744V4.48H56.5946C56.2746 4.48 55.944 4.52267 55.6026 4.608C55.272 4.69333 54.9626 4.848 54.6746 5.072C54.3973 5.28533 54.1733 5.59467 54.0026 6C53.832 6.40533 53.7466 6.92267 53.7466 7.552V12H53.0266ZM61.2489 12C60.8222 12 60.4595 11.936 60.1609 11.808C59.8729 11.68 59.6489 11.4613 59.4889 11.152C59.3395 10.832 59.2649 10.4053 59.2649 9.872V4.56H57.8569V3.936H59.2649L59.3769 2.176H59.9849V3.936H62.5129V4.56H59.9849V9.856C59.9849 10.4213 60.0969 10.816 60.3209 11.04C60.5449 11.264 60.9235 11.376 61.4569 11.376H62.3529V12H61.2489ZM64.3258 12V3.936H65.0458V12H64.3258ZM64.6938 1.808C64.5444 1.808 64.4111 1.75467 64.2938 1.648C64.1871 1.53067 64.1338 1.392 64.1338 1.232C64.1338 1.072 64.1871 0.944 64.2938 0.848C64.4111 0.741333 64.5444 0.688 64.6938 0.688C64.8431 0.688 64.9711 0.741333 65.0778 0.848C65.1951 0.944 65.2538 1.072 65.2538 1.232C65.2538 1.392 65.1951 1.53067 65.0778 1.648C64.9711 1.75467 64.8431 1.808 64.6938 1.808ZM67.9453 12V4.56H66.6333V3.936H67.9453V2.288C67.9453 1.89333 68.0093 1.56267 68.1373 1.296C68.2653 1.02933 68.4626 0.826667 68.7293 0.688C69.0066 0.549333 69.3586 0.48 69.7853 0.48H70.5373V1.104H69.8493C69.4333 1.104 69.1293 1.19467 68.9373 1.376C68.7559 1.55733 68.6653 1.872 68.6653 2.32V3.936H72.7773V12H72.0573V4.56H68.6653V12H67.9453ZM72.4253 1.856C72.2866 1.856 72.1586 1.80267 72.0413 1.696C71.9346 1.57867 71.8813 1.44 71.8813 1.28C71.8813 1.12 71.9346 0.991999 72.0413 0.896C72.1586 0.789333 72.2919 0.735999 72.4413 0.735999C72.5906 0.735999 72.7186 0.789333 72.8253 0.896C72.9319 0.991999 72.9853 1.12 72.9853 1.28C72.9853 1.44 72.9319 1.57867 72.8253 1.696C72.7186 1.80267 72.5853 1.856 72.4253 1.856ZM78.5913 12.192C77.8659 12.192 77.2153 12.0213 76.6393 11.68C76.0633 11.328 75.6099 10.8373 75.2793 10.208C74.9593 9.568 74.7993 8.82667 74.7993 7.984C74.7993 7.12 74.9646 6.37333 75.2953 5.744C75.6366 5.104 76.0953 4.61333 76.6713 4.272C77.2473 3.92 77.8873 3.744 78.5913 3.744C79.4979 3.744 80.2499 3.97867 80.8473 4.448C81.4553 4.91733 81.8393 5.52 81.9993 6.256H81.2473C81.1193 5.68 80.8153 5.22667 80.3353 4.896C79.8659 4.56533 79.2846 4.4 78.5913 4.4C78.0793 4.4 77.5886 4.53333 77.1193 4.8C76.6499 5.056 76.2713 5.45067 75.9833 5.984C75.6953 6.50667 75.5513 7.17333 75.5513 7.984C75.5513 8.60267 75.6366 9.136 75.8073 9.584C75.9779 10.032 76.2073 10.4053 76.4953 10.704C76.7939 10.992 77.1246 11.2053 77.4873 11.344C77.8499 11.4827 78.2179 11.552 78.5913 11.552C79.0393 11.552 79.4446 11.4827 79.8073 11.344C80.1806 11.1947 80.4953 10.9813 80.7513 10.704C81.0073 10.416 81.1726 10.0747 81.2473 9.68H81.9993C81.8499 10.4053 81.4766 11.008 80.8793 11.488C80.2926 11.9573 79.5299 12.192 78.5913 12.192ZM86.3336 12.192C85.7256 12.192 85.2136 12.0747 84.7976 11.84C84.3816 11.6053 84.067 11.3013 83.8536 10.928C83.6403 10.544 83.5336 10.1333 83.5336 9.696C83.5336 9.10933 83.667 8.62933 83.9336 8.256C84.2003 7.88267 84.5736 7.60533 85.0536 7.424C85.5443 7.232 86.1096 7.136 86.7496 7.136H89.1816C89.1816 6.56 89.0963 6.06933 88.9256 5.664C88.7656 5.25867 88.515 4.944 88.1736 4.72C87.8323 4.496 87.3843 4.384 86.8296 4.384C86.179 4.384 85.6403 4.53867 85.2136 4.848C84.7976 5.15733 84.531 5.62667 84.4136 6.256H83.6776C83.7523 5.69067 83.939 5.22667 84.2376 4.864C84.547 4.49067 84.9256 4.21333 85.3736 4.032C85.8216 3.84 86.307 3.744 86.8296 3.744C87.5656 3.744 88.1576 3.89333 88.6056 4.192C89.0536 4.48 89.379 4.87467 89.5816 5.376C89.795 5.86667 89.9016 6.42667 89.9016 7.056V12H89.2616L89.1816 10.384C89.0963 10.5547 88.979 10.7467 88.8296 10.96C88.6803 11.1733 88.4936 11.3707 88.2696 11.552C88.0456 11.7333 87.7736 11.8827 87.4536 12C87.1443 12.128 86.771 12.192 86.3336 12.192ZM86.4136 11.536C86.8723 11.536 87.2723 11.4507 87.6136 11.28C87.955 11.0987 88.243 10.864 88.4776 10.576C88.7123 10.2773 88.8883 9.95733 89.0056 9.616C89.123 9.27467 89.1816 8.93867 89.1816 8.608V7.76H86.7976C86.1683 7.76 85.6723 7.84533 85.3096 8.016C84.947 8.176 84.6856 8.4 84.5256 8.688C84.3763 8.976 84.3016 9.30667 84.3016 9.68C84.3016 10.0213 84.3816 10.336 84.5416 10.624C84.7016 10.9013 84.9416 11.1253 85.2616 11.296C85.5816 11.456 85.9656 11.536 86.4136 11.536ZM94.4989 12C94.0722 12 93.7095 11.936 93.4109 11.808C93.1229 11.68 92.8989 11.4613 92.7389 11.152C92.5895 10.832 92.5149 10.4053 92.5149 9.872V4.56H91.1069V3.936H92.5149L92.6269 2.176H93.2349V3.936H95.7629V4.56H93.2349V9.856C93.2349 10.4213 93.3469 10.816 93.5709 11.04C93.7949 11.264 94.1735 11.376 94.7069 11.376H95.6029V12H94.4989ZM100.573 12.192C99.8157 12.192 99.1597 12.016 98.605 11.664C98.061 11.312 97.6397 10.816 97.341 10.176C97.0423 9.536 96.893 8.784 96.893 7.92C96.893 7.04533 97.0477 6.29867 97.357 5.68C97.677 5.06133 98.1143 4.58667 98.669 4.256C99.2343 3.91467 99.8797 3.744 100.605 3.744C101.384 3.744 102.034 3.92 102.557 4.272C103.08 4.61333 103.474 5.06667 103.741 5.632C104.008 6.19733 104.141 6.816 104.141 7.488C104.141 7.59467 104.141 7.696 104.141 7.792C104.141 7.888 104.136 8 104.125 8.128H97.405V7.504H103.437C103.426 6.46933 103.154 5.69067 102.621 5.168C102.088 4.64533 101.405 4.384 100.573 4.384C100.061 4.384 99.581 4.50133 99.133 4.736C98.685 4.97067 98.317 5.33333 98.029 5.824C97.7517 6.31467 97.613 6.93867 97.613 7.696V7.984C97.613 8.79467 97.7517 9.46667 98.029 10C98.3063 10.5227 98.669 10.912 99.117 11.168C99.565 11.424 100.05 11.552 100.573 11.552C101.245 11.552 101.8 11.3973 102.237 11.088C102.674 10.768 102.994 10.32 103.197 9.744H103.917C103.778 10.2133 103.56 10.6347 103.261 11.008C102.973 11.3813 102.605 11.6747 102.157 11.888C101.709 12.0907 101.181 12.192 100.573 12.192ZM113.452 12.192C112.716 12.192 112.055 12.0213 111.468 11.68C110.892 11.3387 110.433 10.8533 110.092 10.224C109.761 9.584 109.596 8.83733 109.596 7.984C109.596 7.09867 109.767 6.34133 110.108 5.712C110.449 5.08267 110.913 4.59733 111.5 4.256C112.087 3.91467 112.748 3.744 113.484 3.744C114.231 3.744 114.892 3.91467 115.468 4.256C116.055 4.59733 116.513 5.08267 116.844 5.712C117.185 6.34133 117.356 7.09867 117.356 7.984C117.356 8.83733 117.185 9.584 116.844 10.224C116.503 10.8533 116.039 11.3387 115.452 11.68C114.865 12.0213 114.199 12.192 113.452 12.192ZM113.452 11.552C114.007 11.552 114.519 11.4187 114.988 11.152C115.468 10.8853 115.857 10.4853 116.156 9.952C116.455 9.41867 116.604 8.75733 116.604 7.968C116.604 7.17867 116.455 6.51733 116.156 5.984C115.868 5.45067 115.484 5.056 115.004 4.8C114.535 4.53333 114.028 4.4 113.484 4.4C112.94 4.4 112.428 4.53333 111.948 4.8C111.468 5.06667 111.079 5.46667 110.78 6C110.492 6.52267 110.348 7.17867 110.348 7.968C110.348 8.75733 110.492 9.41867 110.78 9.952C111.079 10.4853 111.463 10.8853 111.932 11.152C112.401 11.4187 112.908 11.552 113.452 11.552ZM119.789 12V2.288C119.789 1.89333 119.848 1.56267 119.965 1.296C120.093 1.02933 120.29 0.826667 120.557 0.688C120.834 0.549333 121.192 0.48 121.629 0.48H122.493V1.104H121.709C121.272 1.104 120.962 1.19467 120.781 1.376C120.6 1.55733 120.509 1.872 120.509 2.32V12H119.789ZM118.477 4.56V3.936H122.733V4.56H118.477ZM133.218 12.192C132.162 12.192 131.24 11.952 130.45 11.472C129.672 10.9813 129.069 10.304 128.642 9.44C128.216 8.56533 128.002 7.552 128.002 6.4C128.002 5.248 128.216 4.24 128.642 3.376C129.069 2.50133 129.672 1.824 130.45 1.344C131.24 0.853333 132.162 0.608 133.218 0.608C134.445 0.608 135.432 0.890666 136.178 1.456C136.925 2.01067 137.416 2.8 137.65 3.824H136.85C136.658 3.056 136.264 2.43733 135.666 1.968C135.08 1.49867 134.264 1.264 133.218 1.264C132.333 1.264 131.554 1.46667 130.882 1.872C130.221 2.27733 129.698 2.864 129.314 3.632C128.941 4.4 128.754 5.32267 128.754 6.4C128.754 7.47733 128.941 8.4 129.314 9.168C129.698 9.92533 130.221 10.512 130.882 10.928C131.554 11.3333 132.333 11.536 133.218 11.536C134.253 11.536 135.069 11.3013 135.666 10.832C136.274 10.352 136.669 9.728 136.85 8.96H137.65C137.416 9.984 136.925 10.7787 136.178 11.344C135.432 11.9093 134.445 12.192 133.218 12.192ZM143.046 12.192C142.31 12.192 141.649 12.0213 141.062 11.68C140.486 11.3387 140.027 10.8533 139.686 10.224C139.355 9.584 139.19 8.83733 139.19 7.984C139.19 7.09867 139.361 6.34133 139.702 5.712C140.043 5.08267 140.507 4.59733 141.094 4.256C141.681 3.91467 142.342 3.744 143.078 3.744C143.825 3.744 144.486 3.91467 145.062 4.256C145.649 4.59733 146.107 5.08267 146.438 5.712C146.779 6.34133 146.95 7.09867 146.95 7.984C146.95 8.83733 146.779 9.584 146.438 10.224C146.097 10.8533 145.633 11.3387 145.046 11.68C144.459 12.0213 143.793 12.192 143.046 12.192ZM143.046 11.552C143.601 11.552 144.113 11.4187 144.582 11.152C145.062 10.8853 145.451 10.4853 145.75 9.952C146.049 9.41867 146.198 8.75733 146.198 7.968C146.198 7.17867 146.049 6.51733 145.75 5.984C145.462 5.45067 145.078 5.056 144.598 4.8C144.129 4.53333 143.622 4.4 143.078 4.4C142.534 4.4 142.022 4.53333 141.542 4.8C141.062 5.06667 140.673 5.46667 140.374 6C140.086 6.52267 139.942 7.17867 139.942 7.968C139.942 8.75733 140.086 9.41867 140.374 9.952C140.673 10.4853 141.057 10.8853 141.526 11.152C141.995 11.4187 142.502 11.552 143.046 11.552ZM148.855 12V3.936H149.495L149.575 5.472C149.831 4.90667 150.183 4.48 150.631 4.192C151.089 3.89333 151.617 3.744 152.215 3.744C152.577 3.744 152.924 3.80267 153.255 3.92C153.596 4.03733 153.895 4.23467 154.151 4.512C154.417 4.78933 154.62 5.168 154.759 5.648C154.961 5.09333 155.292 4.64 155.751 4.288C156.22 3.92533 156.785 3.744 157.447 3.744C158.044 3.744 158.561 3.86667 158.999 4.112C159.436 4.34667 159.777 4.71467 160.023 5.216C160.268 5.71733 160.391 6.368 160.391 7.168V12H159.671V7.216C159.671 6.24533 159.479 5.536 159.095 5.088C158.711 4.62933 158.151 4.4 157.415 4.4C156.967 4.4 156.556 4.512 156.183 4.736C155.809 4.96 155.511 5.29067 155.287 5.728C155.073 6.16533 154.967 6.71467 154.967 7.376V12H154.247V7.168C154.247 6.21867 154.06 5.52 153.687 5.072C153.324 4.624 152.812 4.4 152.151 4.4C151.639 4.4 151.191 4.528 150.807 4.784C150.423 5.04 150.119 5.41333 149.895 5.904C149.681 6.39467 149.575 7.008 149.575 7.744V12H148.855ZM162.48 15.52V3.936H163.12L163.2 5.952C163.36 5.54667 163.589 5.17867 163.888 4.848C164.186 4.51733 164.549 4.25067 164.976 4.048C165.413 3.84533 165.904 3.744 166.448 3.744C167.226 3.744 167.898 3.93067 168.464 4.304C169.04 4.66667 169.482 5.168 169.792 5.808C170.101 6.43733 170.256 7.16267 170.256 7.984C170.256 8.79467 170.101 9.52 169.792 10.16C169.482 10.7893 169.04 11.2853 168.464 11.648C167.898 12.0107 167.221 12.192 166.432 12.192C165.664 12.192 164.997 11.9947 164.432 11.6C163.866 11.2053 163.456 10.656 163.2 9.952V15.52H162.48ZM166.4 11.536C167.008 11.536 167.541 11.392 168 11.104C168.469 10.816 168.837 10.4053 169.104 9.872C169.37 9.33867 169.504 8.704 169.504 7.968C169.504 7.24267 169.37 6.61333 169.104 6.08C168.837 5.54667 168.469 5.136 168 4.848C167.541 4.54933 167.008 4.4 166.4 4.4C165.792 4.4 165.253 4.55467 164.784 4.864C164.314 5.16267 163.946 5.584 163.68 6.128C163.424 6.66133 163.296 7.27467 163.296 7.968C163.296 8.672 163.424 9.296 163.68 9.84C163.946 10.3733 164.314 10.7893 164.784 11.088C165.253 11.3867 165.792 11.536 166.4 11.536ZM172.167 12V0.48H172.887V12H172.167ZM178.448 12.192C177.691 12.192 177.035 12.016 176.48 11.664C175.936 11.312 175.515 10.816 175.216 10.176C174.917 9.536 174.768 8.784 174.768 7.92C174.768 7.04533 174.923 6.29867 175.232 5.68C175.552 5.06133 175.989 4.58667 176.544 4.256C177.109 3.91467 177.755 3.744 178.48 3.744C179.259 3.744 179.909 3.92 180.432 4.272C180.955 4.61333 181.349 5.06667 181.616 5.632C181.883 6.19733 182.016 6.816 182.016 7.488C182.016 7.59467 182.016 7.696 182.016 7.792C182.016 7.888 182.011 8 182 8.128H175.28V7.504H181.312C181.301 6.46933 181.029 5.69067 180.496 5.168C179.963 4.64533 179.28 4.384 178.448 4.384C177.936 4.384 177.456 4.50133 177.008 4.736C176.56 4.97067 176.192 5.33333 175.904 5.824C175.627 6.31467 175.488 6.93867 175.488 7.696V7.984C175.488 8.79467 175.627 9.46667 175.904 10C176.181 10.5227 176.544 10.912 176.992 11.168C177.44 11.424 177.925 11.552 178.448 11.552C179.12 11.552 179.675 11.3973 180.112 11.088C180.549 10.768 180.869 10.32 181.072 9.744H181.792C181.653 10.2133 181.435 10.6347 181.136 11.008C180.848 11.3813 180.48 11.6747 180.032 11.888C179.584 12.0907 179.056 12.192 178.448 12.192ZM186.249 12C185.822 12 185.46 11.936 185.161 11.808C184.873 11.68 184.649 11.4613 184.489 11.152C184.34 10.832 184.265 10.4053 184.265 9.872V4.56H182.857V3.936H184.265L184.377 2.176H184.985V3.936H187.513V4.56H184.985V9.856C184.985 10.4213 185.097 10.816 185.321 11.04C185.545 11.264 185.924 11.376 186.457 11.376H187.353V12H186.249ZM189.326 12V3.936H190.046V12H189.326ZM189.694 1.808C189.544 1.808 189.411 1.75467 189.294 1.648C189.187 1.53067 189.134 1.392 189.134 1.232C189.134 1.072 189.187 0.944 189.294 0.848C189.411 0.741333 189.544 0.688 189.694 0.688C189.843 0.688 189.971 0.741333 190.078 0.848C190.195 0.944 190.254 1.072 190.254 1.232C190.254 1.392 190.195 1.53067 190.078 1.648C189.971 1.75467 189.843 1.808 189.694 1.808ZM195.905 12.192C195.169 12.192 194.508 12.0213 193.921 11.68C193.345 11.3387 192.887 10.8533 192.545 10.224C192.215 9.584 192.049 8.83733 192.049 7.984C192.049 7.09867 192.22 6.34133 192.561 5.712C192.903 5.08267 193.367 4.59733 193.953 4.256C194.54 3.91467 195.201 3.744 195.937 3.744C196.684 3.744 197.345 3.91467 197.921 4.256C198.508 4.59733 198.967 5.08267 199.297 5.712C199.639 6.34133 199.809 7.09867 199.809 7.984C199.809 8.83733 199.639 9.584 199.297 10.224C198.956 10.8533 198.492 11.3387 197.905 11.68C197.319 12.0213 196.652 12.192 195.905 12.192ZM195.905 11.552C196.46 11.552 196.972 11.4187 197.441 11.152C197.921 10.8853 198.311 10.4853 198.609 9.952C198.908 9.41867 199.057 8.75733 199.057 7.968C199.057 7.17867 198.908 6.51733 198.609 5.984C198.321 5.45067 197.937 5.056 197.457 4.8C196.988 4.53333 196.481 4.4 195.937 4.4C195.393 4.4 194.881 4.53333 194.401 4.8C193.921 5.06667 193.532 5.46667 193.233 6C192.945 6.52267 192.801 7.17867 192.801 7.968C192.801 8.75733 192.945 9.41867 193.233 9.952C193.532 10.4853 193.916 10.8853 194.385 11.152C194.855 11.4187 195.361 11.552 195.905 11.552ZM201.714 12V3.936H202.354L202.418 5.568C202.695 4.96 203.079 4.50667 203.57 4.208C204.071 3.89867 204.626 3.744 205.234 3.744C205.821 3.744 206.338 3.86133 206.786 4.096C207.234 4.33067 207.586 4.69333 207.842 5.184C208.098 5.664 208.226 6.288 208.226 7.056V12H207.506V7.168C207.506 6.21867 207.303 5.52 206.898 5.072C206.493 4.624 205.906 4.4 205.138 4.4C204.626 4.4 204.162 4.528 203.746 4.784C203.341 5.02933 203.021 5.392 202.786 5.872C202.551 6.352 202.434 6.944 202.434 7.648V12H201.714ZM214.435 12V3.936H215.155V12H214.435ZM214.803 1.808C214.654 1.808 214.52 1.75467 214.403 1.648C214.296 1.53067 214.243 1.392 214.243 1.232C214.243 1.072 214.296 0.944 214.403 0.848C214.52 0.741333 214.654 0.688 214.803 0.688C214.952 0.688 215.08 0.741333 215.187 0.848C215.304 0.944 215.363 1.072 215.363 1.232C215.363 1.392 215.304 1.53067 215.187 1.648C215.08 1.75467 214.952 1.808 214.803 1.808ZM220.327 12.192C219.74 12.192 219.212 12.096 218.743 11.904C218.273 11.7013 217.895 11.4027 217.607 11.008C217.329 10.6133 217.153 10.1227 217.079 9.536H217.847C217.889 9.96267 218.023 10.3253 218.247 10.624C218.481 10.9227 218.78 11.152 219.143 11.312C219.505 11.4613 219.905 11.536 220.343 11.536C220.78 11.536 221.148 11.4667 221.447 11.328C221.756 11.1893 221.991 10.9973 222.151 10.752C222.321 10.496 222.407 10.2133 222.407 9.904C222.407 9.50933 222.321 9.20533 222.151 8.992C221.991 8.768 221.745 8.59733 221.415 8.48C221.084 8.36267 220.668 8.256 220.167 8.16C219.761 8.08533 219.393 7.98933 219.063 7.872C218.743 7.75467 218.465 7.61067 218.231 7.44C217.996 7.26933 217.815 7.06133 217.687 6.816C217.569 6.56 217.511 6.272 217.511 5.952C217.511 5.51467 217.617 5.13067 217.831 4.8C218.055 4.46933 218.364 4.21333 218.759 4.032C219.153 3.84 219.623 3.744 220.167 3.744C220.935 3.744 221.569 3.94667 222.071 4.352C222.583 4.75733 222.876 5.35467 222.951 6.144H222.215C222.183 5.62133 221.985 5.2 221.623 4.88C221.271 4.56 220.78 4.4 220.151 4.4C219.543 4.4 219.073 4.53867 218.743 4.816C218.423 5.08267 218.263 5.44 218.263 5.888C218.263 6.144 218.327 6.37333 218.455 6.576C218.593 6.77867 218.812 6.96 219.111 7.12C219.409 7.26933 219.809 7.39733 220.311 7.504C220.833 7.6 221.308 7.72267 221.735 7.872C222.172 8.02133 222.519 8.24533 222.775 8.544C223.031 8.84267 223.159 9.26933 223.159 9.824C223.159 10.2827 223.041 10.6933 222.807 11.056C222.583 11.408 222.257 11.6853 221.831 11.888C221.415 12.0907 220.913 12.192 220.327 12.192ZM231.568 12.192C230.96 12.192 230.448 12.0747 230.032 11.84C229.616 11.6053 229.301 11.3013 229.088 10.928C228.875 10.544 228.768 10.1333 228.768 9.696C228.768 9.10933 228.901 8.62933 229.168 8.256C229.435 7.88267 229.808 7.60533 230.288 7.424C230.779 7.232 231.344 7.136 231.984 7.136H234.416C234.416 6.56 234.331 6.06933 234.16 5.664C234 5.25867 233.749 4.944 233.408 4.72C233.067 4.496 232.619 4.384 232.064 4.384C231.413 4.384 230.875 4.53867 230.448 4.848C230.032 5.15733 229.765 5.62667 229.648 6.256H228.912C228.987 5.69067 229.173 5.22667 229.472 4.864C229.781 4.49067 230.16 4.21333 230.608 4.032C231.056 3.84 231.541 3.744 232.064 3.744C232.8 3.744 233.392 3.89333 233.84 4.192C234.288 4.48 234.613 4.87467 234.816 5.376C235.029 5.86667 235.136 6.42667 235.136 7.056V12H234.496L234.416 10.384C234.331 10.5547 234.213 10.7467 234.064 10.96C233.915 11.1733 233.728 11.3707 233.504 11.552C233.28 11.7333 233.008 11.8827 232.688 12C232.379 12.128 232.005 12.192 231.568 12.192ZM231.648 11.536C232.107 11.536 232.507 11.4507 232.848 11.28C233.189 11.0987 233.477 10.864 233.712 10.576C233.947 10.2773 234.123 9.95733 234.24 9.616C234.357 9.27467 234.416 8.93867 234.416 8.608V7.76H232.032C231.403 7.76 230.907 7.84533 230.544 8.016C230.181 8.176 229.92 8.4 229.76 8.688C229.611 8.976 229.536 9.30667 229.536 9.68C229.536 10.0213 229.616 10.336 229.776 10.624C229.936 10.9013 230.176 11.1253 230.496 11.296C230.816 11.456 231.2 11.536 231.648 11.536ZM238.579 12L236.291 3.936H237.043L239.027 11.2H238.915L241.139 3.936H241.971L244.163 11.184H244.051L246.067 3.936H246.819L244.483 12H243.715L241.507 4.592H241.619L239.331 12H238.579ZM250.631 12.192C250.023 12.192 249.511 12.0747 249.095 11.84C248.679 11.6053 248.364 11.3013 248.151 10.928C247.937 10.544 247.831 10.1333 247.831 9.696C247.831 9.10933 247.964 8.62933 248.231 8.256C248.497 7.88267 248.871 7.60533 249.351 7.424C249.841 7.232 250.407 7.136 251.047 7.136H253.479C253.479 6.56 253.393 6.06933 253.223 5.664C253.063 5.25867 252.812 4.944 252.471 4.72C252.129 4.496 251.681 4.384 251.127 4.384C250.476 4.384 249.937 4.53867 249.511 4.848C249.095 5.15733 248.828 5.62667 248.711 6.256H247.975C248.049 5.69067 248.236 5.22667 248.535 4.864C248.844 4.49067 249.223 4.21333 249.671 4.032C250.119 3.84 250.604 3.744 251.127 3.744C251.863 3.744 252.455 3.89333 252.903 4.192C253.351 4.48 253.676 4.87467 253.879 5.376C254.092 5.86667 254.199 6.42667 254.199 7.056V12H253.559L253.479 10.384C253.393 10.5547 253.276 10.7467 253.127 10.96C252.977 11.1733 252.791 11.3707 252.567 11.552C252.343 11.7333 252.071 11.8827 251.751 12C251.441 12.128 251.068 12.192 250.631 12.192ZM250.711 11.536C251.169 11.536 251.569 11.4507 251.911 11.28C252.252 11.0987 252.54 10.864 252.775 10.576C253.009 10.2773 253.185 9.95733 253.303 9.616C253.42 9.27467 253.479 8.93867 253.479 8.608V7.76H251.095C250.465 7.76 249.969 7.84533 249.607 8.016C249.244 8.176 248.983 8.4 248.823 8.688C248.673 8.976 248.599 9.30667 248.599 9.68C248.599 10.0213 248.679 10.336 248.839 10.624C248.999 10.9013 249.239 11.1253 249.559 11.296C249.879 11.456 250.263 11.536 250.711 11.536ZM256.292 12V3.936H256.932L257.012 5.568C257.194 5.14133 257.428 4.79467 257.716 4.528C258.015 4.26133 258.367 4.064 258.772 3.936C259.178 3.808 259.636 3.744 260.148 3.744V4.48H259.86C259.54 4.48 259.21 4.52267 258.868 4.608C258.538 4.69333 258.228 4.848 257.94 5.072C257.663 5.28533 257.439 5.59467 257.268 6C257.098 6.40533 257.012 6.92267 257.012 7.552V12H256.292ZM264.701 12.192C263.922 12.192 263.245 12.0107 262.669 11.648C262.104 11.2747 261.666 10.7733 261.357 10.144C261.048 9.504 260.893 8.77867 260.893 7.968C260.893 7.15733 261.048 6.43733 261.357 5.808C261.666 5.168 262.109 4.66667 262.685 4.304C263.261 3.93067 263.938 3.744 264.717 3.744C265.496 3.744 266.162 3.94667 266.717 4.352C267.282 4.74667 267.693 5.29067 267.949 5.984V0.48H268.669V12H268.029L267.933 10.016C267.773 10.4213 267.538 10.7893 267.229 11.12C266.93 11.44 266.568 11.7013 266.141 11.904C265.714 12.096 265.234 12.192 264.701 12.192ZM264.749 11.536C265.357 11.536 265.896 11.3867 266.365 11.088C266.834 10.7787 267.197 10.3573 267.453 9.824C267.72 9.28 267.853 8.66133 267.853 7.968C267.853 7.264 267.72 6.64533 267.453 6.112C267.197 5.568 266.834 5.14667 266.365 4.848C265.906 4.54933 265.368 4.4 264.749 4.4C264.152 4.4 263.613 4.544 263.133 4.832C262.664 5.12 262.296 5.536 262.029 6.08C261.762 6.61333 261.629 7.24267 261.629 7.968C261.629 8.69333 261.762 9.32267 262.029 9.856C262.306 10.3893 262.68 10.8053 263.149 11.104C263.618 11.392 264.152 11.536 264.749 11.536ZM274.261 12.192C273.503 12.192 272.847 12.016 272.293 11.664C271.749 11.312 271.327 10.816 271.029 10.176C270.73 9.536 270.581 8.784 270.581 7.92C270.581 7.04533 270.735 6.29867 271.045 5.68C271.365 5.06133 271.802 4.58667 272.357 4.256C272.922 3.91467 273.567 3.744 274.293 3.744C275.071 3.744 275.722 3.92 276.245 4.272C276.767 4.61333 277.162 5.06667 277.429 5.632C277.695 6.19733 277.829 6.816 277.829 7.488C277.829 7.59467 277.829 7.696 277.829 7.792C277.829 7.888 277.823 8 277.812 8.128H271.093V7.504H277.125C277.114 6.46933 276.842 5.69067 276.309 5.168C275.775 4.64533 275.093 4.384 274.261 4.384C273.749 4.384 273.269 4.50133 272.821 4.736C272.373 4.97067 272.005 5.33333 271.717 5.824C271.439 6.31467 271.301 6.93867 271.301 7.696V7.984C271.301 8.79467 271.439 9.46667 271.717 10C271.994 10.5227 272.357 10.912 272.805 11.168C273.253 11.424 273.738 11.552 274.261 11.552C274.933 11.552 275.487 11.3973 275.925 11.088C276.362 10.768 276.682 10.32 276.885 9.744H277.605C277.466 10.2133 277.247 10.6347 276.949 11.008C276.661 11.3813 276.293 11.6747 275.845 11.888C275.397 12.0907 274.869 12.192 274.261 12.192ZM283.076 12.192C282.297 12.192 281.62 12.0107 281.044 11.648C280.479 11.2747 280.041 10.7733 279.732 10.144C279.423 9.504 279.268 8.77867 279.268 7.968C279.268 7.15733 279.423 6.43733 279.732 5.808C280.041 5.168 280.484 4.66667 281.06 4.304C281.636 3.93067 282.313 3.744 283.092 3.744C283.871 3.744 284.537 3.94667 285.092 4.352C285.657 4.74667 286.068 5.29067 286.324 5.984V0.48H287.044V12H286.404L286.308 10.016C286.148 10.4213 285.913 10.7893 285.604 11.12C285.305 11.44 284.943 11.7013 284.516 11.904C284.089 12.096 283.609 12.192 283.076 12.192ZM283.124 11.536C283.732 11.536 284.271 11.3867 284.74 11.088C285.209 10.7787 285.572 10.3573 285.828 9.824C286.095 9.28 286.228 8.66133 286.228 7.968C286.228 7.264 286.095 6.64533 285.828 6.112C285.572 5.568 285.209 5.14667 284.74 4.848C284.281 4.54933 283.743 4.4 283.124 4.4C282.527 4.4 281.988 4.544 281.508 4.832C281.039 5.12 280.671 5.536 280.404 6.08C280.137 6.61333 280.004 7.24267 280.004 7.968C280.004 8.69333 280.137 9.32267 280.404 9.856C280.681 10.3893 281.055 10.8053 281.524 11.104C281.993 11.392 282.527 11.536 283.124 11.536ZM296.155 12C295.728 12 295.366 11.936 295.067 11.808C294.779 11.68 294.555 11.4613 294.395 11.152C294.246 10.832 294.171 10.4053 294.171 9.872V4.56H292.763V3.936H294.171L294.283 2.176H294.891V3.936H297.419V4.56H294.891V9.856C294.891 10.4213 295.003 10.816 295.227 11.04C295.451 11.264 295.83 11.376 296.363 11.376H297.259V12H296.155ZM302.405 12.192C301.669 12.192 301.008 12.0213 300.421 11.68C299.845 11.3387 299.387 10.8533 299.045 10.224C298.715 9.584 298.549 8.83733 298.549 7.984C298.549 7.09867 298.72 6.34133 299.061 5.712C299.403 5.08267 299.867 4.59733 300.453 4.256C301.04 3.91467 301.701 3.744 302.437 3.744C303.184 3.744 303.845 3.91467 304.421 4.256C305.008 4.59733 305.467 5.08267 305.797 5.712C306.139 6.34133 306.309 7.09867 306.309 7.984C306.309 8.83733 306.139 9.584 305.797 10.224C305.456 10.8533 304.992 11.3387 304.405 11.68C303.819 12.0213 303.152 12.192 302.405 12.192ZM302.405 11.552C302.96 11.552 303.472 11.4187 303.941 11.152C304.421 10.8853 304.811 10.4853 305.109 9.952C305.408 9.41867 305.557 8.75733 305.557 7.968C305.557 7.17867 305.408 6.51733 305.109 5.984C304.821 5.45067 304.437 5.056 303.957 4.8C303.488 4.53333 302.981 4.4 302.437 4.4C301.893 4.4 301.381 4.53333 300.901 4.8C300.421 5.06667 300.032 5.46667 299.733 6C299.445 6.52267 299.301 7.17867 299.301 7.968C299.301 8.75733 299.445 9.41867 299.733 9.952C300.032 10.4853 300.416 10.8853 300.885 11.152C301.355 11.4187 301.861 11.552 302.405 11.552Z" fill="black"/>
</svg>
