<svg width="1669" height="1178" viewBox="0 0 1669 1178" fill="none" xmlns="http://www.w3.org/2000/svg">
<mask id="mask0_1683_3584" style="mask-type:luminance" maskUnits="userSpaceOnUse" x="-40" y="-39" width="1749" height="1257">
<path d="M1708.99 -38.4287V1217.75H-39.748V-38.4287H1708.99Z" fill="white"/>
</mask>
<g mask="url(#mask0_1683_3584)">
<g opacity="0.5">
<path d="M2473.27 -38.4297L1428.3 1217.68" stroke="#BBD567" stroke-width="2.01368" stroke-miterlimit="10"/>
<path d="M2493.04 -38.4297L1448.07 1217.68" stroke="#BBD567" stroke-width="2.01368" stroke-miterlimit="10"/>
<path d="M2512.95 -38.4297L1467.98 1217.68" stroke="#BBD567" stroke-width="2.01368" stroke-miterlimit="10"/>
<path d="M2532.72 -38.4297L1487.75 1217.68" stroke="#BBD567" stroke-width="2.01368" stroke-miterlimit="10"/>
<path d="M2552.49 -38.4297L1507.66 1217.68" stroke="#BBD567" stroke-width="2.01368" stroke-miterlimit="10"/>
<path d="M2572.4 -38.4297L1527.43 1217.68" stroke="#BBD567" stroke-width="2.01368" stroke-miterlimit="10"/>
<path d="M2592.17 -38.4297L1547.34 1217.68" stroke="#BBD567" stroke-width="2.01368" stroke-miterlimit="10"/>
<path d="M2612.07 -38.4297L1567.11 1217.68" stroke="#BBD567" stroke-width="2.01368" stroke-miterlimit="10"/>
<path d="M2631.84 -38.4297L1586.88 1217.68" stroke="#BBD567" stroke-width="2.01368" stroke-miterlimit="10"/>
<path d="M2651.75 -38.4297L1606.78 1217.68" stroke="#BBD567" stroke-width="2.01368" stroke-miterlimit="10"/>
<path d="M2671.52 -38.4297L1626.55 1217.68" stroke="#BBD567" stroke-width="2.01368" stroke-miterlimit="10"/>
<path d="M2691.43 -38.4297L1646.46 1217.68" stroke="#BBD567" stroke-width="2.01368" stroke-miterlimit="10"/>
<path d="M2711.2 -38.4297L1666.23 1217.68" stroke="#BBD567" stroke-width="2.01368" stroke-miterlimit="10"/>
</g>
<g opacity="0.5">
<path d="M104.315 -38.4297L-940.654 1217.68" stroke="#BBD567" stroke-width="2.01368" stroke-miterlimit="10"/>
<path d="M124.085 -38.4297L-920.885 1217.68" stroke="#BBD567" stroke-width="2.01368" stroke-miterlimit="10"/>
<path d="M143.995 -38.4297L-900.975 1217.68" stroke="#BBD567" stroke-width="2.01368" stroke-miterlimit="10"/>
<path d="M163.762 -38.4297L-881.207 1217.68" stroke="#BBD567" stroke-width="2.01368" stroke-miterlimit="10"/>
<path d="M183.672 -38.4297L-861.297 1217.68" stroke="#BBD567" stroke-width="2.01368" stroke-miterlimit="10"/>
<path d="M25.5186 -38.4297L-1019.31 1217.68" stroke="#BBD567" stroke-width="2.01368" stroke-miterlimit="10"/>
<path d="M45.4283 -38.4297L-999.541 1217.68" stroke="#BBD567" stroke-width="2.01368" stroke-miterlimit="10"/>
<path d="M65.1978 -38.4297L-979.771 1217.68" stroke="#BBD567" stroke-width="2.01368" stroke-miterlimit="10"/>
<path d="M85.1079 -38.4297L-959.861 1217.68" stroke="#BBD567" stroke-width="2.01368" stroke-miterlimit="10"/>
<path d="M203.442 -38.4297L-841.527 1217.68" stroke="#BBD567" stroke-width="2.01368" stroke-miterlimit="10"/>
<path d="M223.352 -38.4297L-821.617 1217.68" stroke="#BBD567" stroke-width="2.01368" stroke-miterlimit="10"/>
<path d="M243.122 -38.4297L-801.848 1217.68" stroke="#BBD567" stroke-width="2.01368" stroke-miterlimit="10"/>
<path d="M262.89 -38.4297L-781.939 1217.68" stroke="#BBD567" stroke-width="2.01368" stroke-miterlimit="10"/>
<path d="M282.799 -38.4297L-762.17 1217.68" stroke="#BBD567" stroke-width="2.01368" stroke-miterlimit="10"/>
<path d="M302.569 -38.4297L-742.26 1217.68" stroke="#BBD567" stroke-width="2.01368" stroke-miterlimit="10"/>
<path d="M322.479 -38.4297L-722.49 1217.68" stroke="#BBD567" stroke-width="2.01368" stroke-miterlimit="10"/>
<path d="M342.249 -38.4297L-702.721 1217.68" stroke="#BBD567" stroke-width="2.01368" stroke-miterlimit="10"/>
<path d="M362.157 -38.4297L-682.812 1217.68" stroke="#BBD567" stroke-width="2.01368" stroke-miterlimit="10"/>
<path d="M381.928 -38.4297L-663.041 1217.68" stroke="#BBD567" stroke-width="2.01368" stroke-miterlimit="10"/>
<path d="M401.836 -38.4297L-643.133 1217.68" stroke="#BBD567" stroke-width="2.01368" stroke-miterlimit="10"/>
<path d="M421.606 -38.4297L-623.363 1217.68" stroke="#BBD567" stroke-width="2.01368" stroke-miterlimit="10"/>
<path d="M441.516 -38.4297L-603.453 1217.68" stroke="#BBD567" stroke-width="2.01368" stroke-miterlimit="10"/>
<path d="M461.286 -38.4297L-583.684 1217.68" stroke="#BBD567" stroke-width="2.01368" stroke-miterlimit="10"/>
<path d="M481.194 -38.4297L-563.775 1217.68" stroke="#BBD567" stroke-width="2.01368" stroke-miterlimit="10"/>
<path d="M500.963 -38.4297L-544.006 1217.68" stroke="#BBD567" stroke-width="2.01368" stroke-miterlimit="10"/>
<path d="M520.733 -38.4297L-524.096 1217.68" stroke="#BBD567" stroke-width="2.01368" stroke-miterlimit="10"/>
<path d="M540.643 -38.4297L-504.326 1217.68" stroke="#BBD567" stroke-width="2.01368" stroke-miterlimit="10"/>
<path d="M560.411 -38.4297L-484.418 1217.68" stroke="#BBD567" stroke-width="2.01368" stroke-miterlimit="10"/>
<path d="M580.321 -38.4297L-464.648 1217.68" stroke="#BBD567" stroke-width="2.01368" stroke-miterlimit="10"/>
<path d="M600.09 -38.4297L-444.879 1217.68" stroke="#BBD567" stroke-width="2.01368" stroke-miterlimit="10"/>
<path d="M620.001 -38.4297L-424.969 1217.68" stroke="#BBD567" stroke-width="2.01368" stroke-miterlimit="10"/>
<path d="M639.77 -38.4297L-405.199 1217.68" stroke="#BBD567" stroke-width="2.01368" stroke-miterlimit="10"/>
<path d="M659.678 -38.4297L-385.291 1217.68" stroke="#BBD567" stroke-width="2.01368" stroke-miterlimit="10"/>
<path d="M679.448 -38.4297L-365.521 1217.68" stroke="#BBD567" stroke-width="2.01368" stroke-miterlimit="10"/>
<path d="M699.358 -38.4297L-345.611 1217.68" stroke="#BBD567" stroke-width="2.01368" stroke-miterlimit="10"/>
<path d="M719.127 -38.4297L-325.842 1217.68" stroke="#BBD567" stroke-width="2.01368" stroke-miterlimit="10"/>
<path d="M738.896 -38.4297L-305.934 1217.68" stroke="#BBD567" stroke-width="2.01368" stroke-miterlimit="10"/>
<path d="M758.805 -38.4297L-286.164 1217.68" stroke="#BBD567" stroke-width="2.01368" stroke-miterlimit="10"/>
<path d="M778.575 -38.4297L-266.254 1217.68" stroke="#BBD567" stroke-width="2.01368" stroke-miterlimit="10"/>
<path d="M798.485 -38.4297L-246.484 1217.68" stroke="#BBD567" stroke-width="2.01368" stroke-miterlimit="10"/>
<path d="M818.254 -38.4297L-226.715 1217.68" stroke="#BBD567" stroke-width="2.01368" stroke-miterlimit="10"/>
<path d="M838.163 -38.4297L-206.807 1217.68" stroke="#BBD567" stroke-width="2.01368" stroke-miterlimit="10"/>
<path d="M857.932 -38.4297L-187.037 1217.68" stroke="#BBD567" stroke-width="2.01368" stroke-miterlimit="10"/>
<path d="M877.842 -38.4297L-167.127 1217.68" stroke="#BBD567" stroke-width="2.01368" stroke-miterlimit="10"/>
</g>
<path d="M1763.11 528.834L1643.1 408.65L1763.11 288.326V192.684L1547.62 408.65L1763.11 624.617V528.834Z" fill="#BBD567"/>
<path d="M979.494 -129.722L1099.37 -9.53822L979.354 110.786L979.494 206.569L1194.85 -9.53822L979.494 -225.505V-129.722Z" fill="#1C3A29"/>
<path d="M262.329 1286.12L413.192 1135.08L563.916 1286.12H683.934L413.192 1014.76L142.311 1286.12H262.329Z" fill="#BBD567"/>
<path d="M725.437 1258.35V1067.35H540.082L725.437 1258.35Z" fill="#FCD579"/>
<path d="M631.217 945.343H-39.6777V748.869H631.217V945.343Z" fill="#1C3A29"/>
<path d="M1709 62.6839H1361.42V-38.4277H1709V62.6839Z" fill="#FCD579"/>
<path d="M45.2871 -41.5137H703.563V620.55L269.199 1017.84H45.2871V-41.5137Z" fill="#BBD567"/>
<path d="M1483.96 101.949C1483.96 105.035 1481.44 107.559 1478.35 107.559C1475.27 107.559 1472.74 105.035 1472.74 101.949C1472.74 98.8641 1475.27 96.3398 1478.35 96.3398C1481.44 96.3398 1483.96 98.8641 1483.96 101.949Z" fill="#1C3A29"/>
<path d="M1534.29 101.949C1534.29 105.035 1531.77 107.559 1528.69 107.559C1525.6 107.559 1523.08 105.035 1523.08 101.949C1523.08 98.8641 1525.6 96.3398 1528.69 96.3398C1531.77 96.3398 1534.29 98.8641 1534.29 101.949Z" fill="#1C3A29"/>
<path d="M1584.63 101.949C1584.63 105.035 1582.11 107.559 1579.02 107.559C1575.94 107.559 1573.41 105.035 1573.41 101.949C1573.41 98.8641 1575.94 96.3398 1579.02 96.3398C1582.11 96.3398 1584.63 98.8641 1584.63 101.949Z" fill="#1C3A29"/>
<path d="M1634.96 101.949C1634.96 105.035 1632.44 107.559 1629.36 107.559C1626.27 107.559 1623.75 105.035 1623.75 101.949C1623.75 98.8641 1626.27 96.3398 1629.36 96.3398C1632.44 96.3398 1634.96 98.8641 1634.96 101.949Z" fill="#1C3A29"/>
<path d="M1534.29 146.826C1534.29 149.912 1531.77 152.436 1528.69 152.436C1525.6 152.436 1523.08 149.912 1523.08 146.826C1523.08 143.741 1525.6 141.217 1528.69 141.217C1531.77 141.217 1534.29 143.741 1534.29 146.826Z" fill="#1C3A29"/>
<path d="M1584.63 146.826C1584.63 149.912 1582.11 152.436 1579.02 152.436C1575.94 152.436 1573.41 149.912 1573.41 146.826C1573.41 143.741 1575.94 141.217 1579.02 141.217C1582.11 141.217 1584.63 143.741 1584.63 146.826Z" fill="#1C3A29"/>
<path d="M1634.96 146.826C1634.96 149.912 1632.44 152.436 1629.36 152.436C1626.27 152.436 1623.75 149.912 1623.75 146.826C1623.75 143.741 1626.27 141.217 1629.36 141.217C1632.44 141.217 1634.96 143.741 1634.96 146.826Z" fill="#1C3A29"/>
<path d="M56.5037 1090.77C56.5037 1093.85 53.98 1096.38 50.8954 1096.38C47.8109 1096.38 45.2871 1093.85 45.2871 1090.77C45.2871 1087.68 47.8109 1085.16 50.8954 1085.16C53.98 1085.16 56.5037 1087.68 56.5037 1090.77Z" fill="#1C3A29"/>
<path d="M56.5037 1135.65C56.5037 1138.73 53.98 1141.26 50.8954 1141.26C47.8109 1141.26 45.2871 1138.73 45.2871 1135.65C45.2871 1132.56 47.8109 1130.04 50.8954 1130.04C53.98 1130.04 56.5037 1132.56 56.5037 1135.65Z" fill="#1C3A29"/>
<path d="M106.84 1135.65C106.84 1138.73 104.316 1141.26 101.231 1141.26C98.1468 1141.26 95.623 1138.73 95.623 1135.65C95.623 1132.56 98.1468 1130.04 101.231 1130.04C104.316 1130.04 106.84 1132.56 106.84 1135.65Z" fill="#1C3A29"/>
<path d="M157.174 1135.65C157.174 1138.73 154.65 1141.26 151.565 1141.26C148.481 1141.26 145.957 1138.73 145.957 1135.65C145.957 1132.56 148.481 1130.04 151.565 1130.04C154.65 1130.04 157.174 1132.56 157.174 1135.65Z" fill="#1C3A29"/>
<path d="M207.508 1135.65C207.508 1138.73 204.984 1141.26 201.899 1141.26C198.815 1141.26 196.291 1138.73 196.291 1135.65C196.291 1132.56 198.815 1130.04 201.899 1130.04C204.984 1130.04 207.508 1132.56 207.508 1135.65Z" fill="#1C3A29"/>
<path d="M108.522 957.402C108.522 960.487 105.998 963.011 102.913 963.011C99.8288 963.011 97.4453 960.487 97.4453 957.402C97.4453 954.316 99.8288 951.792 102.913 951.792C105.998 951.792 108.522 954.316 108.522 957.402Z" fill="white"/>
<path d="M158.856 957.402C158.856 960.487 156.332 963.011 153.247 963.011C150.163 963.011 147.779 960.487 147.779 957.402C147.779 954.316 150.163 951.792 153.247 951.792C156.332 951.792 158.856 954.316 158.856 957.402Z" fill="white"/>
<path d="M209.192 957.402C209.192 960.487 206.668 963.011 203.583 963.011C200.499 963.011 198.115 960.487 198.115 957.402C198.115 954.316 200.499 951.792 203.583 951.792C206.668 951.792 209.192 954.316 209.192 957.402Z" fill="white"/>
</g>
</svg>
