<svg width="373" height="96" viewBox="0 0 373 96" fill="none" xmlns="http://www.w3.org/2000/svg">
<path d="M25.2295 30.1279C22.5947 31.1917 19.7435 31.7236 16.6758 31.7236C14.5729 31.7236 12.5319 31.402 10.5527 30.7588C8.58594 30.1156 6.81706 29.1755 5.24609 27.9385C3.6875 26.7015 2.44434 25.18 1.5166 23.374C0.601237 21.568 0.143555 19.5023 0.143555 17.1768C0.143555 14.7152 0.576497 12.4701 1.44238 10.4414C2.32064 8.40039 3.5638 6.64388 5.17188 5.17188C6.77995 3.6875 8.6849 2.54329 10.8867 1.73926C13.0885 0.935221 15.5254 0.533203 18.1973 0.533203C18.6921 0.533203 19.3167 0.557943 20.0713 0.607422C20.8382 0.656901 21.6299 0.749674 22.4463 0.885742C23.2627 1.00944 23.9987 1.19499 24.6543 1.44238V11.0166C23.8379 10.7074 23.0029 10.5527 22.1494 10.5527C20.8753 10.5527 19.7002 10.8682 18.624 11.499C17.5479 12.1175 16.6882 12.9525 16.0449 14.0039C15.4017 15.0553 15.0801 16.2243 15.0801 17.5107C15.0801 18.7848 15.3275 19.7806 15.8223 20.498C16.3171 21.2155 17.0469 21.5742 18.0117 21.5742C18.3952 21.5742 18.8529 21.5124 19.3848 21.3887C19.9167 21.265 20.6403 20.9557 21.5557 20.4609C22.4834 19.9661 23.708 19.1621 25.2295 18.0488V30.1279ZM29.6084 1.36816H50.9648V9.90332H41.1494V12.334H50.9277V19.6074H41.1494V22.4092H51.6143V31H29.6084V1.36816ZM56.0303 31V1.36816C56.0303 1.36816 56.4137 1.34342 57.1807 1.29395C57.96 1.2321 58.9743 1.15788 60.2236 1.07129C61.4854 0.984701 62.8584 0.904297 64.3428 0.830078C65.8395 0.74349 67.3177 0.675456 68.7773 0.625977C70.2493 0.564128 71.5605 0.533203 72.7109 0.533203C75.1107 0.533203 77.1455 0.848633 78.8154 1.47949C80.4854 2.09798 81.8337 2.92057 82.8604 3.94727C83.887 4.97396 84.6354 6.10579 85.1055 7.34277C85.5879 8.57975 85.8291 9.81673 85.8291 11.0537C85.8291 13.2184 85.2786 15.0801 84.1777 16.6387C83.0768 18.1849 81.6729 19.4652 79.9658 20.4795L88.0186 31H73.3604L68.1465 22.4092V31H56.0303ZM68.0723 17.0098C70.472 16.1191 72.1914 15.1543 73.2305 14.1152C74.2819 13.0638 74.8076 11.9382 74.8076 10.7383C74.8076 9.73633 74.6221 9.0498 74.251 8.67871C73.8799 8.30762 73.416 8.12207 72.8594 8.12207C72.5007 8.12207 72.1296 8.18392 71.7461 8.30762C71.3626 8.41895 70.9606 8.5612 70.54 8.73438L68.0723 9.75488V17.0098ZM90.3936 1.36816H118.448V10.9795H110.191V31H98.6504V10.9795H90.3936V1.36816ZM133.292 31H121.751V1.36816H133.292V31ZM137.819 1.36816H159.139V9.75488H149.36V12.501H159.139V20.5908H149.36V31H137.819V1.36816ZM173.927 31H162.386V1.36816H173.927V31ZM202.39 30.1279C199.755 31.1917 196.904 31.7236 193.836 31.7236C191.733 31.7236 189.692 31.402 187.713 30.7588C185.746 30.1156 183.977 29.1755 182.406 27.9385C180.848 26.7015 179.604 25.18 178.677 23.374C177.761 21.568 177.304 19.5023 177.304 17.1768C177.304 14.7152 177.737 12.4701 178.603 10.4414C179.481 8.40039 180.724 6.64388 182.332 5.17188C183.94 3.6875 185.845 2.54329 188.047 1.73926C190.249 0.935221 192.686 0.533203 195.357 0.533203C195.852 0.533203 196.477 0.557943 197.231 0.607422C197.998 0.656901 198.79 0.749674 199.606 0.885742C200.423 1.00944 201.159 1.19499 201.814 1.44238V11.0166C200.998 10.7074 200.163 10.5527 199.31 10.5527C198.035 10.5527 196.86 10.8682 195.784 11.499C194.708 12.1175 193.848 12.9525 193.205 14.0039C192.562 15.0553 192.24 16.2243 192.24 17.5107C192.24 18.7848 192.488 19.7806 192.982 20.498C193.477 21.2155 194.207 21.5742 195.172 21.5742C195.555 21.5742 196.013 21.5124 196.545 21.3887C197.077 21.265 197.8 20.9557 198.716 20.4609C199.644 19.9661 200.868 19.1621 202.39 18.0488V30.1279ZM205.099 31L219.831 2.87109C220.19 2.19076 220.746 1.66504 221.501 1.29395C222.256 0.910482 223.041 0.71875 223.857 0.71875C224.587 0.71875 225.299 0.885742 225.991 1.21973C226.696 1.55371 227.241 2.06706 227.624 2.75977L243.433 31H228.385L227.216 28.0684H219.2L218.198 31H205.099ZM220.109 22.1865H226.103L223.264 14.1709L220.109 22.1865ZM239.722 1.36816H267.776V10.9795H259.52V31H247.979V10.9795H239.722V1.36816ZM271.079 1.36816H292.436V9.90332H282.62V12.334H292.398V19.6074H282.62V22.4092H293.085V31H271.079V1.36816ZM16.8428 95.7236C14.7523 95.7236 12.7236 95.3587 10.7568 94.6289C8.80241 93.8867 7.03971 92.8291 5.46875 91.4561C3.91016 90.083 2.67318 88.4378 1.75781 86.5205C0.842448 84.5908 0.384766 82.4385 0.384766 80.0635C0.384766 77.738 0.811523 75.6227 1.66504 73.7178C2.53092 71.8128 3.72461 70.1738 5.24609 68.8008C6.76758 67.4277 8.5179 66.3763 10.4971 65.6465C12.4886 64.9043 14.6038 64.5332 16.8428 64.5332C19.193 64.5332 21.3825 64.8919 23.4111 65.6094C25.4521 66.3145 27.2334 67.3473 28.7549 68.708C30.2887 70.0563 31.4824 71.7015 32.3359 73.6436C33.2018 75.5732 33.6348 77.7627 33.6348 80.2119C33.6348 82.5869 33.1833 84.7331 32.2803 86.6504C31.3773 88.5553 30.1403 90.182 28.5693 91.5303C26.9984 92.8786 25.2048 93.9176 23.1885 94.6475C21.1846 95.3649 19.0693 95.7236 16.8428 95.7236ZM15.5439 86.0752C16.1995 86.0752 16.8984 85.7598 17.6406 85.1289C18.3828 84.4857 19.0817 83.6693 19.7373 82.6797C20.3929 81.6901 20.9248 80.6449 21.333 79.5439C21.7536 78.443 21.9639 77.4287 21.9639 76.501C21.9639 75.6351 21.735 74.9176 21.2773 74.3486C20.8197 73.7796 20.0465 73.4951 18.958 73.4951C18.29 73.4951 17.5726 73.8105 16.8057 74.4414C16.0511 75.0599 15.3398 75.8639 14.6719 76.8535C14.0163 77.8307 13.4782 78.8698 13.0576 79.9707C12.637 81.0592 12.4268 82.0674 12.4268 82.9951C12.4268 83.8857 12.6618 84.6217 13.1318 85.2031C13.6143 85.7845 14.4183 86.0752 15.5439 86.0752ZM37.3271 65.3682H58.6465V73.7549H48.8682V76.501H58.6465V84.5908H48.8682V95H37.3271V65.3682ZM95.3291 94.1279C92.6943 95.1917 89.8431 95.7236 86.7754 95.7236C84.6725 95.7236 82.6315 95.402 80.6523 94.7588C78.6855 94.1156 76.9167 93.1755 75.3457 91.9385C73.7871 90.7015 72.5439 89.18 71.6162 87.374C70.7008 85.568 70.2432 83.5023 70.2432 81.1768C70.2432 78.7152 70.6761 76.4701 71.542 74.4414C72.4202 72.4004 73.6634 70.6439 75.2715 69.1719C76.8796 67.6875 78.7845 66.5433 80.9863 65.7393C83.1882 64.9352 85.625 64.5332 88.2969 64.5332C88.7917 64.5332 89.4163 64.5579 90.1709 64.6074C90.9378 64.6569 91.7295 64.7497 92.5459 64.8857C93.3623 65.0094 94.0983 65.195 94.7539 65.4424V75.0166C93.9375 74.7074 93.1025 74.5527 92.249 74.5527C90.9749 74.5527 89.7998 74.8682 88.7236 75.499C87.6475 76.1175 86.7878 76.9525 86.1445 78.0039C85.5013 79.0553 85.1797 80.2243 85.1797 81.5107C85.1797 82.7848 85.4271 83.7806 85.9219 84.498C86.4167 85.2155 87.1465 85.5742 88.1113 85.5742C88.4948 85.5742 88.9525 85.5124 89.4844 85.3887C90.0163 85.265 90.7399 84.9557 91.6553 84.4609C92.583 83.9661 93.8076 83.1621 95.3291 82.0488V94.1279ZM115.034 95.7236C112.944 95.7236 110.915 95.3587 108.948 94.6289C106.994 93.8867 105.231 92.8291 103.66 91.4561C102.102 90.083 100.865 88.4378 99.9492 86.5205C99.0339 84.5908 98.5762 82.4385 98.5762 80.0635C98.5762 77.738 99.0029 75.6227 99.8564 73.7178C100.722 71.8128 101.916 70.1738 103.438 68.8008C104.959 67.4277 106.709 66.3763 108.688 65.6465C110.68 64.9043 112.795 64.5332 115.034 64.5332C117.384 64.5332 119.574 64.8919 121.603 65.6094C123.644 66.3145 125.425 67.3473 126.946 68.708C128.48 70.0563 129.674 71.7015 130.527 73.6436C131.393 75.5732 131.826 77.7627 131.826 80.2119C131.826 82.5869 131.375 84.7331 130.472 86.6504C129.569 88.5553 128.332 90.182 126.761 91.5303C125.19 92.8786 123.396 93.9176 121.38 94.6475C119.376 95.3649 117.261 95.7236 115.034 95.7236ZM113.735 86.0752C114.391 86.0752 115.09 85.7598 115.832 85.1289C116.574 84.4857 117.273 83.6693 117.929 82.6797C118.584 81.6901 119.116 80.6449 119.524 79.5439C119.945 78.443 120.155 77.4287 120.155 76.501C120.155 75.6351 119.926 74.9176 119.469 74.3486C119.011 73.7796 118.238 73.4951 117.149 73.4951C116.481 73.4951 115.764 73.8105 114.997 74.4414C114.243 75.0599 113.531 75.8639 112.863 76.8535C112.208 77.8307 111.67 78.8698 111.249 79.9707C110.828 81.0592 110.618 82.0674 110.618 82.9951C110.618 83.8857 110.853 84.6217 111.323 85.2031C111.806 85.7845 112.61 86.0752 113.735 86.0752ZM135.519 65.3682H139.768L154.092 78.8203L168.806 65.3682H172.906V95H160.716V85.3887L153.146 93.7012L145.779 85.6113V95H135.519V65.3682ZM192.24 64.5332C195.691 64.5332 198.487 64.9414 200.627 65.7578C202.779 66.5742 204.356 67.8669 205.358 69.6357C206.36 71.4046 206.861 73.7301 206.861 76.6123C206.861 78.542 206.496 80.3109 205.767 81.9189C205.049 83.5146 204.053 84.8939 202.779 86.0566C201.505 87.2194 200.021 88.1224 198.326 88.7656C196.644 89.3965 194.838 89.7119 192.908 89.7119C192.413 89.7119 191.9 89.6995 191.368 89.6748C190.849 89.6501 190.261 89.6377 189.605 89.6377V95H177.489V65.4424C180.371 65.1579 183.031 64.9352 185.468 64.7744C187.905 64.6136 190.162 64.5332 192.24 64.5332ZM194.207 72.2334C193.774 72.2334 193.285 72.3447 192.741 72.5674C192.209 72.79 191.696 73.0498 191.201 73.3467C190.719 73.6312 190.317 73.8848 189.995 74.1074C189.686 74.3301 189.531 74.4414 189.531 74.4414V81.4365L191.702 80.3789C192.951 79.7604 194.028 78.9997 194.931 78.0967C195.846 77.1813 196.304 76 196.304 74.5527C196.304 73.9342 196.118 73.3962 195.747 72.9385C195.388 72.4684 194.875 72.2334 194.207 72.2334ZM209.997 65.3682H221.538V86.0752H231.502V95H209.997V65.3682ZM234.378 65.3682H255.734V73.9033H245.919V76.334H255.697V83.6074H245.919V86.4092H256.384V95H234.378V65.3682ZM259.575 65.3682H287.63V74.9795H279.373V95H267.832V74.9795H259.575V65.3682ZM302.474 95H290.933V65.3682H302.474V95ZM322.55 95.7236C320.459 95.7236 318.431 95.3587 316.464 94.6289C314.509 93.8867 312.747 92.8291 311.176 91.4561C309.617 90.083 308.38 88.4378 307.465 86.5205C306.549 84.5908 306.092 82.4385 306.092 80.0635C306.092 77.738 306.519 75.6227 307.372 73.7178C308.238 71.8128 309.432 70.1738 310.953 68.8008C312.475 67.4277 314.225 66.3763 316.204 65.6465C318.196 64.9043 320.311 64.5332 322.55 64.5332C324.9 64.5332 327.09 64.8919 329.118 65.6094C331.159 66.3145 332.94 67.3473 334.462 68.708C335.996 70.0563 337.189 71.7015 338.043 73.6436C338.909 75.5732 339.342 77.7627 339.342 80.2119C339.342 82.5869 338.89 84.7331 337.987 86.6504C337.084 88.5553 335.847 90.182 334.276 91.5303C332.705 92.8786 330.912 93.9176 328.896 94.6475C326.892 95.3649 324.776 95.7236 322.55 95.7236ZM321.251 86.0752C321.907 86.0752 322.605 85.7598 323.348 85.1289C324.09 84.4857 324.789 83.6693 325.444 82.6797C326.1 81.6901 326.632 80.6449 327.04 79.5439C327.461 78.443 327.671 77.4287 327.671 76.501C327.671 75.6351 327.442 74.9176 326.984 74.3486C326.527 73.7796 325.754 73.4951 324.665 73.4951C323.997 73.4951 323.28 73.8105 322.513 74.4414C321.758 75.0599 321.047 75.8639 320.379 76.8535C319.723 77.8307 319.185 78.8698 318.765 79.9707C318.344 81.0592 318.134 82.0674 318.134 82.9951C318.134 83.8857 318.369 84.6217 318.839 85.2031C319.321 85.7845 320.125 86.0752 321.251 86.0752ZM343.034 65.3682H346.04L362.22 76.9092V65.3682H372.666V95H368.677L353.443 84.8135V95H343.034V65.3682Z" fill="#1C3A29"/>
</svg>
