<svg width="354" height="91" viewBox="0 0 354 91" fill="none" xmlns="http://www.w3.org/2000/svg">
<path d="M24.5605 28.1738C22.0645 29.1816 19.3633 29.6855 16.457 29.6855C14.4648 29.6855 12.5312 29.3809 10.6562 28.7715C8.79297 28.1621 7.11719 27.2715 5.62891 26.0996C4.15234 24.9277 2.97461 23.4863 2.0957 21.7754C1.22852 20.0645 0.794922 18.1074 0.794922 15.9043C0.794922 13.5723 1.20508 11.4453 2.02539 9.52344C2.85742 7.58984 4.03516 5.92578 5.55859 4.53125C7.08203 3.125 8.88672 2.04102 10.9727 1.2793C13.0586 0.517578 15.3672 0.136719 17.8984 0.136719C18.3672 0.136719 18.959 0.160156 19.6738 0.207031C20.4004 0.253906 21.1504 0.341797 21.9238 0.470703C22.6973 0.587891 23.3945 0.763672 24.0156 0.998047V10.0684C23.2422 9.77539 22.4512 9.62891 21.6426 9.62891C20.4355 9.62891 19.3223 9.92773 18.3027 10.5254C17.2832 11.1113 16.4688 11.9023 15.8594 12.8984C15.25 13.8945 14.9453 15.002 14.9453 16.2207C14.9453 17.4277 15.1797 18.3711 15.6484 19.0508C16.1172 19.7305 16.8086 20.0703 17.7227 20.0703C18.0859 20.0703 18.5195 20.0117 19.0234 19.8945C19.5273 19.7773 20.2129 19.4844 21.0801 19.0156C21.959 18.5469 23.1191 17.7852 24.5605 16.7305V28.1738ZM28.709 0.927734H48.9414V9.01367H39.6426V11.3164H48.9062V18.207H39.6426V20.8613H49.5566V29H28.709V0.927734ZM53.7402 29V0.927734C53.7402 0.927734 54.1035 0.904297 54.8301 0.857422C55.5684 0.798828 56.5293 0.728516 57.7129 0.646484C58.9082 0.564453 60.209 0.488281 61.6152 0.417969C63.0332 0.335937 64.4336 0.271484 65.8164 0.224609C67.2109 0.166016 68.4531 0.136719 69.543 0.136719C71.8164 0.136719 73.7441 0.435547 75.3262 1.0332C76.9082 1.61914 78.1855 2.39844 79.1582 3.37109C80.1309 4.34375 80.8398 5.41602 81.2852 6.58789C81.7422 7.75977 81.9707 8.93164 81.9707 10.1035C81.9707 12.1543 81.4492 13.918 80.4062 15.3945C79.3633 16.8594 78.0332 18.0723 76.416 19.0332L84.0449 29H70.1582L65.2188 20.8613V29H53.7402ZM65.1484 15.7461C67.4219 14.9023 69.0508 13.9883 70.0352 13.0039C71.0312 12.0078 71.5293 10.9414 71.5293 9.80469C71.5293 8.85547 71.3535 8.20508 71.002 7.85352C70.6504 7.50195 70.2109 7.32617 69.6836 7.32617C69.3438 7.32617 68.9922 7.38477 68.6289 7.50195C68.2656 7.60742 67.8848 7.74219 67.4863 7.90625L65.1484 8.87305V15.7461ZM86.2949 0.927734H112.873V10.0332H105.051V29H94.1172V10.0332H86.2949V0.927734ZM126.936 29H116.002V0.927734H126.936V29ZM131.225 0.927734H151.422V8.87305H142.158V11.4746H151.422V19.1387H142.158V29H131.225V0.927734ZM165.432 29H154.498V0.927734H165.432V29ZM192.396 28.1738C189.9 29.1816 187.199 29.6855 184.293 29.6855C182.301 29.6855 180.367 29.3809 178.492 28.7715C176.629 28.1621 174.953 27.2715 173.465 26.0996C171.988 24.9277 170.811 23.4863 169.932 21.7754C169.064 20.0645 168.631 18.1074 168.631 15.9043C168.631 13.5723 169.041 11.4453 169.861 9.52344C170.693 7.58984 171.871 5.92578 173.395 4.53125C174.918 3.125 176.723 2.04102 178.809 1.2793C180.895 0.517578 183.203 0.136719 185.734 0.136719C186.203 0.136719 186.795 0.160156 187.51 0.207031C188.236 0.253906 188.986 0.341797 189.76 0.470703C190.533 0.587891 191.23 0.763672 191.852 0.998047V10.0684C191.078 9.77539 190.287 9.62891 189.479 9.62891C188.271 9.62891 187.158 9.92773 186.139 10.5254C185.119 11.1113 184.305 11.9023 183.695 12.8984C183.086 13.8945 182.781 15.002 182.781 16.2207C182.781 17.4277 183.016 18.3711 183.484 19.0508C183.953 19.7305 184.645 20.0703 185.559 20.0703C185.922 20.0703 186.355 20.0117 186.859 19.8945C187.363 19.7773 188.049 19.4844 188.916 19.0156C189.795 18.5469 190.955 17.7852 192.396 16.7305V28.1738ZM194.963 29L208.92 2.35156C209.26 1.70703 209.787 1.20898 210.502 0.857422C211.217 0.494141 211.961 0.3125 212.734 0.3125C213.426 0.3125 214.1 0.470703 214.756 0.787109C215.424 1.10352 215.939 1.58984 216.303 2.24609L231.279 29H217.023L215.916 26.2227H208.322L207.373 29H194.963ZM209.184 20.6504H214.861L212.172 13.0566L209.184 20.6504ZM227.764 0.927734H254.342V10.0332H246.52V29H235.586V10.0332H227.764V0.927734ZM257.471 0.927734H277.703V9.01367H268.404V11.3164H277.668V18.207H268.404V20.8613H278.318V29H257.471V0.927734ZM16.6152 90.6855C14.6348 90.6855 12.7129 90.3398 10.8496 89.6484C8.99805 88.9453 7.32812 87.9434 5.83984 86.6426C4.36328 85.3418 3.19141 83.7832 2.32422 81.9668C1.45703 80.1387 1.02344 78.0996 1.02344 75.8496C1.02344 73.6465 1.42773 71.6426 2.23633 69.8379C3.05664 68.0332 4.1875 66.4805 5.62891 65.1797C7.07031 63.8789 8.72852 62.8828 10.6035 62.1914C12.4902 61.4883 14.4941 61.1367 16.6152 61.1367C18.8418 61.1367 20.916 61.4766 22.8379 62.1562C24.7715 62.8242 26.459 63.8027 27.9004 65.0918C29.3535 66.3691 30.4844 67.9277 31.293 69.7676C32.1133 71.5957 32.5234 73.6699 32.5234 75.9902C32.5234 78.2402 32.0957 80.2734 31.2402 82.0898C30.3848 83.8945 29.2129 85.4355 27.7246 86.7129C26.2363 87.9902 24.5371 88.9746 22.627 89.666C20.7285 90.3457 18.7246 90.6855 16.6152 90.6855ZM15.3848 81.5449C16.0059 81.5449 16.668 81.2461 17.3711 80.6484C18.0742 80.0391 18.7363 79.2656 19.3574 78.3281C19.9785 77.3906 20.4824 76.4004 20.8691 75.3574C21.2676 74.3145 21.4668 73.3535 21.4668 72.4746C21.4668 71.6543 21.25 70.9746 20.8164 70.4355C20.3828 69.8965 19.6504 69.627 18.6191 69.627C17.9863 69.627 17.3066 69.9258 16.5801 70.5234C15.8652 71.1094 15.1914 71.8711 14.5586 72.8086C13.9375 73.7344 13.4277 74.7188 13.0293 75.7617C12.6309 76.793 12.4316 77.748 12.4316 78.627C12.4316 79.4707 12.6543 80.168 13.0996 80.7188C13.5566 81.2695 14.3184 81.5449 15.3848 81.5449ZM36.0215 61.9277H56.2188V69.873H46.9551V72.4746H56.2188V80.1387H46.9551V90H36.0215V61.9277ZM90.9707 89.1738C88.4746 90.1816 85.7734 90.6855 82.8672 90.6855C80.875 90.6855 78.9414 90.3809 77.0664 89.7715C75.2031 89.1621 73.5273 88.2715 72.0391 87.0996C70.5625 85.9277 69.3848 84.4863 68.5059 82.7754C67.6387 81.0645 67.2051 79.1074 67.2051 76.9043C67.2051 74.5723 67.6152 72.4453 68.4355 70.5234C69.2676 68.5898 70.4453 66.9258 71.9688 65.5312C73.4922 64.125 75.2969 63.041 77.3828 62.2793C79.4688 61.5176 81.7773 61.1367 84.3086 61.1367C84.7773 61.1367 85.3691 61.1602 86.084 61.207C86.8105 61.2539 87.5605 61.3418 88.334 61.4707C89.1074 61.5879 89.8047 61.7637 90.4258 61.998V71.0684C89.6523 70.7754 88.8613 70.6289 88.0527 70.6289C86.8457 70.6289 85.7324 70.9277 84.7129 71.5254C83.6934 72.1113 82.8789 72.9023 82.2695 73.8984C81.6602 74.8945 81.3555 76.002 81.3555 77.2207C81.3555 78.4277 81.5898 79.3711 82.0586 80.0508C82.5273 80.7305 83.2188 81.0703 84.1328 81.0703C84.4961 81.0703 84.9297 81.0117 85.4336 80.8945C85.9375 80.7773 86.623 80.4844 87.4902 80.0156C88.3691 79.5469 89.5293 78.7852 90.9707 77.7305V89.1738ZM109.639 90.6855C107.658 90.6855 105.736 90.3398 103.873 89.6484C102.021 88.9453 100.352 87.9434 98.8633 86.6426C97.3867 85.3418 96.2148 83.7832 95.3477 81.9668C94.4805 80.1387 94.0469 78.0996 94.0469 75.8496C94.0469 73.6465 94.4512 71.6426 95.2598 69.8379C96.0801 68.0332 97.2109 66.4805 98.6523 65.1797C100.094 63.8789 101.752 62.8828 103.627 62.1914C105.514 61.4883 107.518 61.1367 109.639 61.1367C111.865 61.1367 113.939 61.4766 115.861 62.1562C117.795 62.8242 119.482 63.8027 120.924 65.0918C122.377 66.3691 123.508 67.9277 124.316 69.7676C125.137 71.5957 125.547 73.6699 125.547 75.9902C125.547 78.2402 125.119 80.2734 124.264 82.0898C123.408 83.8945 122.236 85.4355 120.748 86.7129C119.26 87.9902 117.561 88.9746 115.65 89.666C113.752 90.3457 111.748 90.6855 109.639 90.6855ZM108.408 81.5449C109.029 81.5449 109.691 81.2461 110.395 80.6484C111.098 80.0391 111.76 79.2656 112.381 78.3281C113.002 77.3906 113.506 76.4004 113.893 75.3574C114.291 74.3145 114.49 73.3535 114.49 72.4746C114.49 71.6543 114.273 70.9746 113.84 70.4355C113.406 69.8965 112.674 69.627 111.643 69.627C111.01 69.627 110.33 69.9258 109.604 70.5234C108.889 71.1094 108.215 71.8711 107.582 72.8086C106.961 73.7344 106.451 74.7188 106.053 75.7617C105.654 76.793 105.455 77.748 105.455 78.627C105.455 79.4707 105.678 80.168 106.123 80.7188C106.58 81.2695 107.342 81.5449 108.408 81.5449ZM129.045 61.9277H133.07L146.641 74.6719L160.58 61.9277H164.465V90H152.916V80.8945L145.744 88.7695L138.766 81.1055V90H129.045V61.9277ZM182.781 61.1367C186.051 61.1367 188.699 61.5234 190.727 62.2969C192.766 63.0703 194.26 64.2949 195.209 65.9707C196.158 67.6465 196.633 69.8496 196.633 72.5801C196.633 74.4082 196.287 76.084 195.596 77.6074C194.916 79.1191 193.973 80.4258 192.766 81.5273C191.559 82.6289 190.152 83.4844 188.547 84.0938C186.953 84.6914 185.242 84.9902 183.414 84.9902C182.945 84.9902 182.459 84.9785 181.955 84.9551C181.463 84.9316 180.906 84.9199 180.285 84.9199V90H168.807V61.998C171.537 61.7285 174.057 61.5176 176.365 61.3652C178.674 61.2129 180.812 61.1367 182.781 61.1367ZM184.645 68.4316C184.234 68.4316 183.771 68.5371 183.256 68.748C182.752 68.959 182.266 69.2051 181.797 69.4863C181.34 69.7559 180.959 69.9961 180.654 70.207C180.361 70.418 180.215 70.5234 180.215 70.5234V77.1504L182.271 76.1484C183.455 75.5625 184.475 74.8418 185.33 73.9863C186.197 73.1191 186.631 72 186.631 70.6289C186.631 70.043 186.455 69.5332 186.104 69.0996C185.764 68.6543 185.277 68.4316 184.645 68.4316ZM199.604 61.9277H210.537V81.5449H219.977V90H199.604V61.9277ZM222.701 61.9277H242.934V70.0137H233.635V72.3164H242.898V79.207H233.635V81.8613H243.549V90H222.701V61.9277ZM246.572 61.9277H273.15V71.0332H265.328V90H254.395V71.0332H246.572V61.9277ZM287.213 90H276.279V61.9277H287.213V90ZM306.232 90.6855C304.252 90.6855 302.33 90.3398 300.467 89.6484C298.615 88.9453 296.945 87.9434 295.457 86.6426C293.98 85.3418 292.809 83.7832 291.941 81.9668C291.074 80.1387 290.641 78.0996 290.641 75.8496C290.641 73.6465 291.045 71.6426 291.854 69.8379C292.674 68.0332 293.805 66.4805 295.246 65.1797C296.688 63.8789 298.346 62.8828 300.221 62.1914C302.107 61.4883 304.111 61.1367 306.232 61.1367C308.459 61.1367 310.533 61.4766 312.455 62.1562C314.389 62.8242 316.076 63.8027 317.518 65.0918C318.971 66.3691 320.102 67.9277 320.91 69.7676C321.73 71.5957 322.141 73.6699 322.141 75.9902C322.141 78.2402 321.713 80.2734 320.857 82.0898C320.002 83.8945 318.83 85.4355 317.342 86.7129C315.854 87.9902 314.154 88.9746 312.244 89.666C310.346 90.3457 308.342 90.6855 306.232 90.6855ZM305.002 81.5449C305.623 81.5449 306.285 81.2461 306.988 80.6484C307.691 80.0391 308.354 79.2656 308.975 78.3281C309.596 77.3906 310.1 76.4004 310.486 75.3574C310.885 74.3145 311.084 73.3535 311.084 72.4746C311.084 71.6543 310.867 70.9746 310.434 70.4355C310 69.8965 309.268 69.627 308.236 69.627C307.604 69.627 306.924 69.9258 306.197 70.5234C305.482 71.1094 304.809 71.8711 304.176 72.8086C303.555 73.7344 303.045 74.7188 302.646 75.7617C302.248 76.793 302.049 77.748 302.049 78.627C302.049 79.4707 302.271 80.168 302.717 80.7188C303.174 81.2695 303.936 81.5449 305.002 81.5449ZM325.639 61.9277H328.486L343.814 72.8613V61.9277H353.711V90H349.932L335.5 80.3496V90H325.639V61.9277Z" fill="#1C3A29"/>
</svg>
