<svg width="533" height="203" viewBox="0 0 533 203" fill="none" xmlns="http://www.w3.org/2000/svg">
<path d="M56.358 94.2013C50.7732 96.4562 44.7295 97.5837 38.2271 97.5837C33.7697 97.5837 29.4434 96.9019 25.2483 95.5385C21.0793 94.1751 17.3299 92.1824 14 89.5604C10.6963 86.9384 8.06125 83.7134 6.09477 79.8853C4.15451 76.0573 3.18438 71.6786 3.18438 66.7493C3.18438 61.5315 4.10207 56.7726 5.93746 52.4726C7.79906 48.1464 10.4341 44.4232 13.8427 41.303C17.2513 38.1566 21.2891 35.7313 25.9562 34.027C30.6233 32.3227 35.7886 31.4706 41.4521 31.4706C42.5009 31.4706 43.825 31.523 45.4244 31.6279C47.05 31.7328 48.7281 31.9295 50.4586 32.2179C52.1891 32.4801 53.7491 32.8734 55.1388 33.3978V53.6918C53.4083 53.0363 51.6384 52.7086 49.8293 52.7086C47.1287 52.7086 44.6378 53.3772 42.3567 54.7144C40.0755 56.0254 38.2533 57.7952 36.8898 60.0239C35.5264 62.2526 34.8447 64.7303 34.8447 67.4572C34.8447 70.1578 35.3691 72.2685 36.4179 73.7893C37.4667 75.31 39.0136 76.0704 41.0588 76.0704C41.8716 76.0704 42.8417 75.9393 43.9692 75.6771C45.0966 75.4149 46.6305 74.7594 48.5707 73.7106C50.5372 72.6618 53.133 70.9575 56.358 68.5977V94.2013ZM89.1589 97.505C85.9863 97.505 82.8924 97.0068 79.8771 96.0105C76.8618 95.0141 74.135 93.5327 71.6965 91.5662C69.2581 89.5735 67.3178 87.122 65.8758 84.2116C64.4337 81.3012 63.7126 77.9189 63.7126 74.0646C63.7126 69.2663 64.5648 65.0712 66.2691 61.4791C67.9996 57.8608 70.3331 54.8586 73.2697 52.4726C76.2063 50.0604 79.5362 48.2512 83.2594 47.0451C86.9826 45.839 90.8501 45.236 94.8617 45.236C99.9483 45.236 104.078 46.0094 107.25 47.5564C110.449 49.1034 112.796 51.0961 114.29 53.5345C115.785 55.9729 116.532 58.5425 116.532 61.2431C116.532 64.1535 115.601 66.9721 113.74 69.699C111.878 72.4258 109.138 74.6676 105.52 76.4243C101.928 78.1811 97.4968 79.0594 92.2266 79.0594C91.7284 79.0594 91.0598 79.0594 90.2208 79.0594C89.408 79.0332 88.7 79.007 88.097 78.9808C88.097 80.6326 88.4903 81.8256 89.2769 82.5598C90.0635 83.2939 91.0467 83.7528 92.2266 83.9363C93.4327 84.1198 94.6388 84.2116 95.8449 84.2116C96.9199 84.2116 98.4276 84.0412 100.368 83.7003C102.334 83.3332 104.458 82.6777 106.739 81.7338C109.02 80.7899 111.183 79.4396 113.229 77.6829L115.667 89.9144C112.573 92.5888 108.653 94.5291 103.907 95.7352C99.1879 96.9151 94.2717 97.505 89.1589 97.505ZM88.097 70.0136L96.7102 68.0865L97.4574 62.069C97.4574 61.9117 97.4705 61.7675 97.4968 61.6364C97.523 61.4791 97.5361 61.3218 97.5361 61.1645C97.5361 58.8571 96.4611 57.7034 94.3111 57.7034C92.4495 57.8608 91.1516 58.5032 90.4174 59.6306C89.6833 60.7318 89.2113 62.187 89.0016 63.9962C88.7918 65.7791 88.4903 67.7849 88.097 70.0136ZM159.755 65.6087C158.13 65.6087 156.439 66.0282 154.682 66.8672C152.925 67.7063 151.444 68.7157 150.238 69.8956C149.058 71.0755 148.468 72.1898 148.468 73.2386V96.0498H124.791V47.1631H148.468V52.394C149.805 50.375 151.457 48.7625 153.423 47.5564C155.416 46.3503 157.527 45.6293 159.755 45.3933V65.6087ZM164.554 47.1631H169.037V33.9484L192.556 31.5493V47.1631H203.687V59.6306H192.556V71.9801C192.556 75.546 193.356 78.1942 194.955 79.9247C196.555 81.6552 199.465 82.5204 203.687 82.5204V92.5101C201.432 94.0309 198.862 95.2501 195.978 96.1678C193.094 97.1117 190.157 97.5837 187.168 97.5837C183.865 97.5837 180.836 96.8888 178.083 95.4992C175.356 94.1095 173.167 92.1037 171.515 89.4818C169.863 86.8598 169.037 83.7265 169.037 80.082V59.6306H164.554V47.1631ZM223.469 24.5093C227.193 24.5093 229.933 25.3483 231.689 27.0264C233.472 28.7044 234.364 30.6316 234.364 32.8078C234.364 34.4334 233.852 36.046 232.83 37.6454C231.834 39.2185 230.365 40.5295 228.425 41.5783C226.485 42.6009 224.112 43.1122 221.306 43.1122C217.268 43.1122 214.424 42.2994 212.772 40.6737C211.146 39.0219 210.333 37.1603 210.333 35.0889C210.333 33.4109 210.818 31.7721 211.789 30.1727C212.759 28.5471 214.214 27.1968 216.154 26.1218C218.121 25.0468 220.559 24.5093 223.469 24.5093ZM233.695 96.0498H210.923V47.1631H233.695V96.0498ZM298.196 22.0315C300.477 22.0315 302.365 22.4772 303.859 23.3687C305.38 24.2602 306.52 25.427 307.281 26.869C308.041 28.2849 308.421 29.7794 308.421 31.3526C308.421 33.1356 307.963 34.8661 307.045 36.5441C306.127 38.2222 304.751 39.6118 302.915 40.7131C301.08 41.7881 298.773 42.3256 295.993 42.3256C292.454 42.3256 289.858 41.3817 288.206 39.4938C286.58 37.606 285.768 35.456 285.768 33.0438C285.768 31.3133 286.266 29.609 287.262 27.9309C288.258 26.2267 289.687 24.8239 291.549 23.7227C293.411 22.5952 295.626 22.0315 298.196 22.0315ZM241.168 47.1631H245.651V37.2521C245.651 34.2368 246.477 31.6804 248.129 29.5828C249.781 27.4852 251.97 25.8858 254.697 24.7846C257.45 23.6571 260.479 23.0934 263.782 23.0934C266.929 23.0934 270.009 23.4343 273.025 24.116C276.04 24.7977 278.701 25.794 281.009 27.105V38.8646C279.907 38.4975 278.754 38.314 277.548 38.314C275.319 38.314 273.418 39.1005 271.845 40.6737C270.272 42.2207 269.38 44.3838 269.17 47.1631H308.421V96.0498H285.689V59.6306H269.17V96.0498H245.651V59.6306H241.168V47.1631ZM356.954 94.7519C354.752 95.591 352.444 96.2596 350.032 96.7577C347.646 97.2559 345.181 97.505 342.638 97.505C339.177 97.505 335.821 96.9806 332.57 95.9318C329.319 94.883 326.408 93.3361 323.839 91.2909C321.269 89.2196 319.224 86.6631 317.703 83.6217C316.182 80.5802 315.422 77.0667 315.422 73.0813C315.422 67.5227 316.707 62.659 319.276 58.49C321.872 54.2949 325.464 51.0436 330.053 48.7363C334.667 46.4027 339.99 45.236 346.02 45.236C347.095 45.236 348.642 45.354 350.661 45.5899C352.68 45.8259 354.516 46.2716 356.168 46.9271V62.069C355.774 61.7282 355.315 61.4922 354.791 61.3611C354.293 61.23 353.782 61.1645 353.257 61.1645C351.92 61.1645 350.517 61.5709 349.049 62.3837C347.607 63.1703 346.27 64.2584 345.037 65.648C343.805 67.0377 342.795 68.6109 342.009 70.3676C341.248 72.1243 340.868 73.9466 340.868 75.8344C340.868 77.3814 341.104 78.535 341.576 79.2954C342.048 80.0558 342.638 80.5539 343.346 80.7899C344.08 81.0259 344.788 81.1439 345.47 81.1439C346.02 81.1439 346.728 81.0521 347.594 80.8686C348.485 80.6588 349.665 80.1606 351.133 79.3741C352.628 78.5612 354.568 77.2765 356.954 75.5198V94.7519ZM364.741 73.8286C364.741 69.5285 365.462 65.6349 366.904 62.1477C368.373 58.6605 370.366 55.6583 372.883 53.1412C375.4 50.6241 378.258 48.697 381.456 47.3598C384.655 45.9963 387.998 45.3146 391.485 45.3146C394.291 45.3146 397.031 46.0094 399.705 47.3991C402.406 48.7625 404.556 50.6897 406.155 53.1805L411.78 47.1631H424.68V96.0498H411.78L406.155 87.9086C404.137 90.8976 401.423 93.2443 398.014 94.9486C394.606 96.6529 391.092 97.505 387.474 97.505C383.488 97.505 379.765 96.6529 376.304 94.9486C372.843 93.2181 370.051 90.6092 367.927 87.122C365.803 83.6085 364.741 79.1774 364.741 73.8286ZM388.182 75.7557C388.182 77.0405 388.483 78.2597 389.086 79.4134C389.689 80.5671 390.673 81.1439 392.036 81.1439C393.347 81.1439 395.025 80.7506 397.07 79.964C399.115 79.1512 401.252 77.8009 403.481 75.9131V61.9904C402.563 61.4398 401.528 61.1645 400.374 61.1645C398.879 61.1645 397.411 61.6233 395.969 62.541C394.527 63.4325 393.216 64.6123 392.036 66.0807C390.882 67.5227 389.952 69.0959 389.244 70.8002C388.536 72.5045 388.182 74.1563 388.182 75.7557ZM431.916 47.1631H436.4V33.9484L459.919 31.5493V47.1631H471.049V59.6306H459.919V71.9801C459.919 75.546 460.719 78.1942 462.318 79.9247C463.917 81.6552 466.828 82.5204 471.049 82.5204V92.5101C468.794 94.0309 466.225 95.2501 463.341 96.1678C460.456 97.1117 457.52 97.5837 454.531 97.5837C451.227 97.5837 448.199 96.8888 445.446 95.4992C442.719 94.1095 440.529 92.1037 438.878 89.4818C437.226 86.8598 436.4 83.7265 436.4 80.082V59.6306H431.916V47.1631ZM501.648 97.505C498.475 97.505 495.381 97.0068 492.366 96.0105C489.351 95.0141 486.624 93.5327 484.185 91.5662C481.747 89.5735 479.807 87.122 478.365 84.2116C476.922 81.3012 476.201 77.9189 476.201 74.0646C476.201 69.2663 477.054 65.0712 478.758 61.4791C480.488 57.8608 482.822 54.8586 485.759 52.4726C488.695 50.0604 492.025 48.2512 495.748 47.0451C499.471 45.839 503.339 45.236 507.35 45.236C512.437 45.236 516.567 46.0094 519.739 47.5564C522.938 49.1034 525.285 51.0961 526.779 53.5345C528.274 55.9729 529.021 58.5425 529.021 61.2431C529.021 64.1535 528.09 66.9721 526.229 69.699C524.367 72.4258 521.627 74.6676 518.009 76.4243C514.417 78.1811 509.986 79.0594 504.715 79.0594C504.217 79.0594 503.549 79.0594 502.71 79.0594C501.897 79.0332 501.189 79.007 500.586 78.9808C500.586 80.6326 500.979 81.8256 501.766 82.5598C502.552 83.2939 503.536 83.7528 504.715 83.9363C505.922 84.1198 507.128 84.2116 508.334 84.2116C509.409 84.2116 510.916 84.0412 512.857 83.7003C514.823 83.3332 516.947 82.6777 519.228 81.7338C521.509 80.7899 523.672 79.4396 525.717 77.6829L528.156 89.9144C525.062 92.5888 521.142 94.5291 516.396 95.7352C511.677 96.9151 506.761 97.505 501.648 97.505ZM500.586 70.0136L509.199 68.0865L509.946 62.069C509.946 61.9117 509.959 61.7675 509.986 61.6364C510.012 61.4791 510.025 61.3218 510.025 61.1645C510.025 58.8571 508.95 57.7034 506.8 57.7034C504.938 57.8608 503.64 58.5032 502.906 59.6306C502.172 60.7318 501.7 62.187 501.49 63.9962C501.281 65.7791 500.979 67.7849 500.586 70.0136Z" fill="black"/>
<path d="M25.6022 173.183C22.9672 173.183 20.4009 172.731 17.9035 171.826C15.406 170.902 13.1544 169.585 11.1486 167.874C9.16247 166.143 7.57946 164.078 6.39957 161.679C5.23934 159.261 4.65923 156.566 4.65923 153.597C4.65923 150.667 5.20985 148.002 6.31108 145.603C7.4123 143.204 8.92649 141.149 10.8536 139.438C12.7808 137.708 15.0029 136.381 17.52 135.456C20.0568 134.512 22.7508 134.04 25.6022 134.04C29.6139 134.04 33.242 134.837 36.4867 136.43C39.7314 138.003 42.2977 140.264 44.1855 143.214C46.093 146.144 47.0467 149.644 47.0467 153.715C47.0467 156.704 46.4666 159.398 45.3064 161.797C44.1461 164.196 42.5631 166.242 40.5573 167.933C38.5515 169.624 36.2606 170.922 33.6845 171.826C31.1281 172.731 28.434 173.183 25.6022 173.183ZM23.7439 161.266C24.6092 161.266 25.5727 160.863 26.6346 160.057C27.6965 159.231 28.7191 158.189 29.7024 156.93C30.6856 155.652 31.4918 154.315 32.1211 152.919C32.7701 151.522 33.0945 150.244 33.0945 149.084C33.0945 148.199 32.8586 147.393 32.3866 146.665C31.9343 145.938 31.1477 145.574 30.0268 145.574C29.0043 145.574 27.9227 145.967 26.7821 146.754C25.6416 147.521 24.5698 148.533 23.5669 149.792C22.5837 151.031 21.7774 152.358 21.1482 153.774C20.5386 155.17 20.2338 156.507 20.2338 157.786C20.2338 158.651 20.4894 159.447 21.0007 160.175C21.512 160.903 22.4264 161.266 23.7439 161.266ZM51.3238 135.427H54.6865V129.203C54.6865 126.941 55.3059 125.024 56.5448 123.451C57.7837 121.858 59.4257 120.649 61.4708 119.823C63.5356 118.977 65.8069 118.554 68.2847 118.554C70.5265 118.554 72.7191 118.82 74.8626 119.351C77.0257 119.862 78.943 120.609 80.6145 121.593V130.412C79.5919 130.137 78.648 129.999 77.7828 129.999C75.9146 129.999 74.5676 130.53 73.7417 131.592C72.9157 132.634 72.4438 133.913 72.3258 135.427H80.6735V144.777H72.3258V172.092H54.6865V144.777H51.3238V135.427ZM139.196 170.705C135.007 172.397 130.475 173.242 125.598 173.242C122.255 173.242 119.01 172.731 115.864 171.708C112.737 170.686 109.925 169.191 107.427 167.225C104.95 165.258 102.973 162.84 101.499 159.968C100.043 157.097 99.3157 153.813 99.3157 150.116C99.3157 146.203 100.004 142.634 101.381 139.409C102.777 136.164 104.753 133.372 107.309 131.032C109.866 128.672 112.894 126.853 116.395 125.575C119.895 124.297 123.769 123.657 128.017 123.657C128.803 123.657 129.796 123.697 130.996 123.775C132.215 123.854 133.473 124.002 134.771 124.218C136.069 124.414 137.239 124.709 138.282 125.103V140.323C136.984 139.832 135.656 139.586 134.299 139.586C132.274 139.586 130.406 140.087 128.695 141.09C126.984 142.073 125.617 143.401 124.595 145.072C123.572 146.744 123.061 148.602 123.061 150.647C123.061 152.673 123.454 154.256 124.241 155.396C125.027 156.537 126.188 157.107 127.722 157.107C128.331 157.107 129.059 157.009 129.904 156.812C130.75 156.616 131.9 156.124 133.356 155.337C134.83 154.551 136.777 153.273 139.196 151.503V170.705ZM165.655 173.183C163.02 173.183 160.454 172.731 157.956 171.826C155.459 170.902 153.207 169.585 151.201 167.874C149.215 166.143 147.632 164.078 146.452 161.679C145.292 159.261 144.712 156.566 144.712 153.597C144.712 150.667 145.263 148.002 146.364 145.603C147.465 143.204 148.979 141.149 150.906 139.438C152.833 137.708 155.056 136.381 157.573 135.456C160.109 134.512 162.804 134.04 165.655 134.04C169.667 134.04 173.295 134.837 176.539 136.43C179.784 138.003 182.35 140.264 184.238 143.214C186.146 146.144 187.099 149.644 187.099 153.715C187.099 156.704 186.519 159.398 185.359 161.797C184.199 164.196 182.616 166.242 180.61 167.933C178.604 169.624 176.313 170.922 173.737 171.826C171.181 172.731 168.487 173.183 165.655 173.183ZM163.797 161.266C164.662 161.266 165.625 160.863 166.687 160.057C167.749 159.231 168.772 158.189 169.755 156.93C170.738 155.652 171.545 154.315 172.174 152.919C172.823 151.522 173.147 150.244 173.147 149.084C173.147 148.199 172.911 147.393 172.439 146.665C171.987 145.938 171.2 145.574 170.08 145.574C169.057 145.574 167.975 145.967 166.835 146.754C165.694 147.521 164.623 148.533 163.62 149.792C162.636 151.031 161.83 152.358 161.201 153.774C160.591 155.17 160.286 156.507 160.286 157.786C160.286 158.651 160.542 159.447 161.053 160.175C161.565 160.903 162.479 161.266 163.797 161.266ZM216.803 153.184C216.803 150.549 216.351 148.592 215.446 147.314C214.542 146.036 213.667 145.397 212.821 145.397C211.936 145.397 211.317 145.77 210.963 146.518C210.628 147.265 210.461 148.16 210.461 149.202V172.092H192.94V135.427H202.615L206.833 141.149C207.836 139.655 209.104 138.386 210.638 137.344C212.192 136.282 213.873 135.466 215.682 134.896C217.511 134.326 219.33 134.04 221.139 134.04C223.479 134.04 225.613 134.601 227.54 135.722C229.467 136.823 230.962 138.396 232.024 140.441C233.616 138.416 235.494 136.843 237.658 135.722C239.821 134.601 242.053 134.04 244.353 134.04C246.615 134.04 248.68 134.562 250.548 135.604C252.416 136.626 253.911 138.111 255.031 140.058C256.172 142.005 256.742 144.345 256.742 147.078V172.092H239.634V153.184C239.634 150.549 239.221 148.592 238.395 147.314C237.569 146.036 236.733 145.397 235.888 145.397C235.082 145.397 234.482 145.731 234.088 146.4C233.715 147.049 233.528 147.835 233.528 148.76V172.092H216.803V153.184ZM291.401 134.04C294.705 134.04 297.458 134.709 299.661 136.046C301.883 137.383 303.544 139.173 304.646 141.415C305.767 143.637 306.327 146.115 306.327 148.848C306.327 150.736 306.052 152.732 305.501 154.836C304.951 156.94 304.066 159.005 302.846 161.03C301.647 163.036 300.064 164.865 298.097 166.517C296.131 168.149 293.751 169.467 290.959 170.469C288.167 171.472 284.892 172.013 281.136 172.092V181.649H263.615V135.427H273.29L277.39 141.09C279.75 138.553 282.159 136.744 284.617 135.663C287.095 134.581 289.356 134.04 291.401 134.04ZM288.452 146.223C287.587 146.223 286.682 146.567 285.738 147.255C284.794 147.924 283.919 148.799 283.113 149.88C282.307 150.942 281.648 152.063 281.136 153.243V161.709C281.648 161.355 282.474 160.814 283.614 160.086C284.755 159.359 285.954 158.464 287.213 157.402C288.471 156.321 289.543 155.092 290.428 153.715C291.313 152.339 291.755 150.834 291.755 149.202C291.755 148.396 291.49 147.698 290.959 147.108C290.448 146.518 289.612 146.223 288.452 146.223ZM328.951 172.092H312.227V122.448H328.951V172.092ZM353.818 173.183C351.438 173.183 349.118 172.81 346.856 172.062C344.595 171.315 342.55 170.204 340.721 168.729C338.892 167.235 337.437 165.396 336.355 163.213C335.274 161.03 334.733 158.494 334.733 155.603C334.733 152.004 335.372 148.858 336.65 146.164C337.948 143.45 339.698 141.198 341.901 139.409C344.103 137.6 346.601 136.243 349.393 135.338C352.185 134.434 355.086 133.981 358.095 133.981C361.91 133.981 365.007 134.562 367.386 135.722C369.785 136.882 371.545 138.377 372.666 140.205C373.787 142.034 374.348 143.961 374.348 145.987C374.348 148.17 373.65 150.284 372.253 152.329C370.857 154.374 368.802 156.055 366.088 157.373C363.394 158.69 360.071 159.349 356.118 159.349C355.745 159.349 355.243 159.349 354.614 159.349C354.004 159.329 353.473 159.31 353.021 159.29C353.021 160.529 353.316 161.424 353.906 161.974C354.496 162.525 355.233 162.869 356.118 163.007C357.023 163.144 357.928 163.213 358.832 163.213C359.638 163.213 360.769 163.085 362.224 162.83C363.699 162.554 365.292 162.063 367.003 161.355C368.714 160.647 370.336 159.634 371.87 158.317L373.699 167.49C371.378 169.496 368.438 170.951 364.879 171.856C361.339 172.741 357.652 173.183 353.818 173.183ZM353.021 152.565L359.481 151.119L360.041 146.606C360.041 146.488 360.051 146.38 360.071 146.282C360.091 146.164 360.1 146.046 360.1 145.928C360.1 144.197 359.294 143.332 357.682 143.332C356.285 143.45 355.312 143.932 354.761 144.777C354.211 145.603 353.857 146.695 353.7 148.052C353.542 149.389 353.316 150.893 353.021 152.565ZM378.92 135.427H382.282V125.516L399.922 123.716V135.427H408.269V144.777H399.922V154.04C399.922 156.714 400.521 158.7 401.721 159.998C402.921 161.296 405.103 161.945 408.269 161.945V169.437C406.578 170.578 404.651 171.492 402.488 172.18C400.325 172.888 398.122 173.242 395.881 173.242C393.403 173.242 391.132 172.721 389.067 171.679C387.022 170.637 385.38 169.132 384.141 167.166C382.902 165.199 382.282 162.849 382.282 160.116V144.777H378.92V135.427ZM423.106 118.436C425.899 118.436 427.954 119.066 429.271 120.324C430.609 121.583 431.277 123.028 431.277 124.66C431.277 125.88 430.894 127.089 430.127 128.288C429.38 129.468 428.278 130.452 426.823 131.238C425.368 132.005 423.588 132.389 421.484 132.389C418.456 132.389 416.322 131.779 415.083 130.56C413.864 129.321 413.254 127.925 413.254 126.371C413.254 125.113 413.618 123.884 414.346 122.684C415.073 121.465 416.165 120.452 417.62 119.646C419.095 118.84 420.924 118.436 423.106 118.436ZM430.776 172.092H413.697V135.427H430.776V172.092ZM457.5 173.183C454.865 173.183 452.299 172.731 449.801 171.826C447.304 170.902 445.052 169.585 443.047 167.874C441.06 166.143 439.477 164.078 438.298 161.679C437.137 159.261 436.557 156.566 436.557 153.597C436.557 150.667 437.108 148.002 438.209 145.603C439.31 143.204 440.824 141.149 442.752 139.438C444.679 137.708 446.901 136.381 449.418 135.456C451.955 134.512 454.649 134.04 457.5 134.04C461.512 134.04 465.14 134.837 468.385 136.43C471.629 138.003 474.196 140.264 476.083 143.214C477.991 146.144 478.945 149.644 478.945 153.715C478.945 156.704 478.365 159.398 477.204 161.797C476.044 164.196 474.461 166.242 472.455 167.933C470.449 169.624 468.159 170.922 465.582 171.826C463.026 172.731 460.332 173.183 457.5 173.183ZM455.642 161.266C456.507 161.266 457.471 160.863 458.533 160.057C459.594 159.231 460.617 158.189 461.6 156.93C462.584 155.652 463.39 154.315 464.019 152.919C464.668 151.522 464.992 150.244 464.992 149.084C464.992 148.199 464.757 147.393 464.285 146.665C463.832 145.938 463.046 145.574 461.925 145.574C460.902 145.574 459.821 145.967 458.68 146.754C457.54 147.521 456.468 148.533 455.465 149.792C454.482 151.031 453.675 152.358 453.046 153.774C452.437 155.17 452.132 156.507 452.132 157.786C452.132 158.651 452.387 159.447 452.899 160.175C453.41 160.903 454.324 161.266 455.642 161.266ZM509.858 154.393C509.858 151.188 509.386 148.887 508.442 147.491C507.518 146.095 506.259 145.397 504.666 145.397C503.781 145.397 503.162 145.77 502.808 146.518C502.474 147.265 502.306 148.16 502.306 149.202V172.092H484.785V135.427H494.46L498.678 141.149C500.31 138.927 502.513 137.187 505.286 135.928C508.058 134.67 510.929 134.04 513.899 134.04C516.377 134.04 518.648 134.562 520.713 135.604C522.777 136.626 524.42 138.111 525.639 140.058C526.878 142.005 527.497 144.345 527.497 147.078V172.092H509.858V154.393Z" fill="black"/>
</svg>
