<svg width="69" height="20" viewBox="0 0 69 20" fill="none" xmlns="http://www.w3.org/2000/svg">
<path d="M0.275391 19.2481H7.98682C13.8756 19.2481 17.8014 15.4617 17.8014 10.1326C17.8014 4.66335 13.8756 0.876953 7.98682 0.876953H0.275391V19.2481ZM2.7992 17.0043V3.26093H7.70648C12.3333 3.26093 15.1375 6.06573 15.1375 10.1326C15.1375 14.1995 12.3333 17.0043 7.70648 17.0043H2.7992ZM35.1872 19.2481H37.9913L29.719 1.01716H27.0551L18.7828 19.2481H21.4468L23.55 14.7605H33.2242L35.1872 19.2481ZM24.3912 12.5167L28.317 3.54143L32.2429 12.5167H24.3912ZM43.4595 19.2481H45.9832V3.12073H52.2926V0.876953H37.1501V3.12073H43.4595V19.2481ZM57.7606 17.0043V11.1143H66.8741V8.87046H57.7606V3.26093H67.9959V0.876953H55.0967V19.2481H68.4165V17.0043H57.7606Z" fill="#262425"/>
</svg>
