<svg width="102" height="27" viewBox="0 0 102 27" fill="none" xmlns="http://www.w3.org/2000/svg">
<path d="M0.722656 1H100.723" stroke="black" stroke-linecap="round" stroke-linejoin="round"/>
<path d="M1.81466 23V13.2H4.58666C5.74399 13.2 6.69132 13.396 7.42866 13.788C8.17532 14.18 8.72599 14.7447 9.08066 15.482C9.44466 16.2193 9.62666 17.1013 9.62666 18.128C9.62666 19.136 9.44466 20.004 9.08066 20.732C8.72599 21.46 8.17532 22.02 7.42866 22.412C6.69132 22.804 5.74399 23 4.58666 23H1.81466ZM2.79466 22.188H4.58666C5.57599 22.188 6.36466 22.0247 6.95266 21.698C7.54066 21.3713 7.96532 20.9047 8.22666 20.298C8.48799 19.6913 8.61866 18.968 8.61866 18.128C8.61866 17.2787 8.48799 16.546 8.22666 15.93C7.96532 15.314 7.54066 14.8427 6.95266 14.516C6.36466 14.18 5.57599 14.012 4.58666 14.012H2.79466V22.188ZM10.044 23L13.656 13.2H14.664L18.276 23H17.24L14.16 14.488L11.066 23H10.044ZM11.696 20.354L11.99 19.542H16.316L16.61 20.354H11.696ZM20.9951 23V14.012H18.0551V13.2H24.9151V14.012H21.9751V23H20.9951ZM26.4377 23V13.2H32.3877V14.012H27.4177V17.666H31.9677V18.478H27.4177V22.188H32.3877V23H26.4377Z" fill="black"/>
</svg>
