<svg width="267" height="613" viewBox="0 0 267 613" fill="none" xmlns="http://www.w3.org/2000/svg">
<g clip-path="url(#clip0_10755_28838)">
<rect width="267" height="613" fill="#BBD567"/>
<path d="M8.21714 81.6706C15.5174 81.6706 22.5187 78.7706 27.6808 73.6085C32.8429 68.4465 35.7429 61.4452 35.7429 54.1449C35.7429 46.8446 32.8429 39.8434 27.6808 34.6813C22.5187 29.5192 15.5174 26.6192 8.21714 26.6192C0.916861 26.6192 -6.08442 29.5192 -11.2465 34.6813C-16.4086 39.8434 -19.3086 46.8446 -19.3086 54.1449C-19.3086 61.4452 -16.4086 68.4465 -11.2465 73.6085C-6.08442 78.7706 0.916861 81.6706 8.21714 81.6706ZM94.0327 81.6706C97.86 81.6706 101.65 80.9168 105.186 79.4521C108.722 77.9874 111.935 75.8407 114.641 73.1343C117.348 70.4279 119.494 67.215 120.959 63.679C122.424 60.143 123.178 56.3531 123.178 52.5258C123.178 48.6984 122.424 44.9085 120.959 41.3725C119.494 37.8365 117.348 34.6236 114.641 31.9172C111.935 29.2109 108.722 27.064 105.186 25.5994C101.65 24.1347 97.86 23.3809 94.0327 23.3809C86.303 23.3809 78.8898 26.4515 73.4241 31.9172C67.9584 37.3829 64.8878 44.796 64.8878 52.5258C64.8878 60.2555 67.9584 67.6686 73.4241 73.1343C78.8898 78.6 86.303 81.6706 94.0327 81.6706Z" stroke="#C2DE68" stroke-width="8.25427" stroke-linecap="round" stroke-linejoin="round"/>
<path d="M35.7305 -34.9082L64.8754 -34.9082L94.03 52.5265" stroke="#C2DE68" stroke-width="8.25427" stroke-linecap="round" stroke-linejoin="round"/>
<path d="M10.0156 52.5269L76.806 -0.0537105" stroke="#C2DE68" stroke-width="2.06357"/>
<path d="M10.0167 52.5268L76.8071 -0.0538208M76.8071 -5.76298L104.242 -5.76298L110.22 -21.9546M0.117187 -2.60886L22.7854 -2.60886M22.7854 -2.52466L33.3845 31.2219" stroke="#C2DE68" stroke-width="8.25427" stroke-linecap="round" stroke-linejoin="round"/>
<path d="M8.21714 237.213C15.5174 237.213 22.5187 234.313 27.6808 229.151C32.8429 223.988 35.7429 216.987 35.7429 209.687C35.7429 202.387 32.8429 195.385 27.6808 190.223C22.5187 185.061 15.5174 182.161 8.21714 182.161C0.916861 182.161 -6.08442 185.061 -11.2465 190.223C-16.4086 195.385 -19.3086 202.387 -19.3086 209.687C-19.3086 216.987 -16.4086 223.988 -11.2465 229.151C-6.08442 234.313 0.916861 237.213 8.21714 237.213ZM94.0327 237.213C97.86 237.213 101.65 236.459 105.186 234.994C108.722 233.529 111.935 231.383 114.641 228.676C117.348 225.97 119.494 222.757 120.959 219.221C122.424 215.685 123.178 211.895 123.178 208.068C123.178 204.24 122.424 200.45 120.959 196.914C119.494 193.378 117.348 190.166 114.641 187.459C111.935 184.753 108.722 182.606 105.186 181.141C101.65 179.677 97.86 178.923 94.0327 178.923C86.303 178.923 78.8898 181.993 73.4241 187.459C67.9584 192.925 64.8878 200.338 64.8878 208.068C64.8878 215.797 67.9584 223.211 73.4241 228.676C78.8898 234.142 86.303 237.213 94.0327 237.213Z" stroke="#C2DE68" stroke-width="8.25427" stroke-linecap="round" stroke-linejoin="round"/>
<path d="M35.7305 120.633L64.8754 120.633L94.03 208.068" stroke="#C2DE68" stroke-width="8.25427" stroke-linecap="round" stroke-linejoin="round"/>
<path d="M10.0156 208.069L76.806 155.488" stroke="#C2DE68" stroke-width="2.06357"/>
<path d="M10.0167 208.068L76.8071 155.488M76.8071 149.779L104.242 149.779L110.22 133.587M0.117187 152.933L22.7854 152.933M22.7854 153.017L33.3845 186.763" stroke="#C2DE68" stroke-width="8.25427" stroke-linecap="round" stroke-linejoin="round"/>
<path d="M8.21714 392.755C15.5174 392.755 22.5187 389.855 27.6808 384.693C32.8429 379.53 35.7429 372.529 35.7429 365.229C35.7429 357.929 32.8429 350.927 27.6808 345.765C22.5187 340.603 15.5174 337.703 8.21714 337.703C0.916861 337.703 -6.08442 340.603 -11.2465 345.765C-16.4086 350.927 -19.3086 357.929 -19.3086 365.229C-19.3086 372.529 -16.4086 379.53 -11.2465 384.693C-6.08442 389.855 0.916861 392.755 8.21714 392.755ZM94.0327 392.755C97.86 392.755 101.65 392.001 105.186 390.536C108.722 389.071 111.935 386.925 114.641 384.218C117.348 381.512 119.494 378.299 120.959 374.763C122.424 371.227 123.178 367.437 123.178 363.61C123.178 359.782 122.424 355.992 120.959 352.456C119.494 348.92 117.348 345.708 114.641 343.001C111.935 340.295 108.722 338.148 105.186 336.683C101.65 335.219 97.86 334.465 94.0327 334.465C86.303 334.465 78.8898 337.535 73.4241 343.001C67.9584 348.467 64.8878 355.88 64.8878 363.61C64.8878 371.339 67.9584 378.753 73.4241 384.218C78.8898 389.684 86.303 392.755 94.0327 392.755Z" stroke="#C2DE68" stroke-width="8.25427" stroke-linecap="round" stroke-linejoin="round"/>
<path d="M35.7305 276.176L64.8754 276.176L94.03 363.61" stroke="#C2DE68" stroke-width="8.25427" stroke-linecap="round" stroke-linejoin="round"/>
<path d="M10.0156 363.612L76.806 311.031" stroke="#C2DE68" stroke-width="2.06357"/>
<path d="M10.0167 363.611L76.8071 311.031M76.8071 305.321L104.242 305.321L110.22 289.13M0.117187 308.476L22.7854 308.476M22.7854 308.56L33.3845 342.306" stroke="#C2DE68" stroke-width="8.25427" stroke-linecap="round" stroke-linejoin="round"/>
<path d="M8.21714 548.295C15.5174 548.295 22.5187 545.395 27.6808 540.233C32.8429 535.07 35.7429 528.069 35.7429 520.769C35.7429 513.469 32.8429 506.467 27.6808 501.305C22.5187 496.143 15.5174 493.243 8.21714 493.243C0.916861 493.243 -6.08442 496.143 -11.2465 501.305C-16.4086 506.467 -19.3086 513.469 -19.3086 520.769C-19.3086 528.069 -16.4086 535.07 -11.2465 540.233C-6.08442 545.395 0.916861 548.295 8.21714 548.295ZM94.0327 548.295C97.86 548.295 101.65 547.541 105.186 546.076C108.722 544.611 111.935 542.465 114.641 539.758C117.348 537.052 119.494 533.839 120.959 530.303C122.424 526.767 123.178 522.977 123.178 519.15C123.178 515.322 122.424 511.533 120.959 507.997C119.494 504.46 117.348 501.248 114.641 498.541C111.935 495.835 108.722 493.688 105.186 492.223C101.65 490.759 97.86 490.005 94.0327 490.005C86.303 490.005 78.8898 493.075 73.4241 498.541C67.9584 504.007 64.8878 511.42 64.8878 519.15C64.8878 526.879 67.9584 534.293 73.4241 539.758C78.8898 545.224 86.303 548.295 94.0327 548.295Z" stroke="#C2DE68" stroke-width="8.25427" stroke-linecap="round" stroke-linejoin="round"/>
<path d="M35.7305 431.717L64.8754 431.717L94.03 519.151" stroke="#C2DE68" stroke-width="8.25427" stroke-linecap="round" stroke-linejoin="round"/>
<path d="M10.0156 519.151L76.806 466.57" stroke="#C2DE68" stroke-width="2.06357"/>
<path d="M10.0167 519.151L76.8071 466.571M76.8071 460.862L104.242 460.862L110.22 444.67M0.117187 464.016L22.7854 464.016M22.7854 464.1L33.3845 497.846" stroke="#C2DE68" stroke-width="8.25427" stroke-linecap="round" stroke-linejoin="round"/>
<path d="M35.7305 587.258L64.8754 587.258L94.03 674.692" stroke="#C2DE68" stroke-width="8.25427" stroke-linecap="round" stroke-linejoin="round"/>
<path d="M10.0167 674.693L76.8071 622.113M76.8071 616.404L104.242 616.404L110.22 600.212M0.117187 619.558L22.7854 619.558M22.7854 619.642L33.3845 653.388" stroke="#C2DE68" stroke-width="8.25427" stroke-linecap="round" stroke-linejoin="round"/>
<path d="M173.807 148.342C181.107 148.342 188.109 145.442 193.271 140.279C198.433 135.117 201.333 128.116 201.333 120.816C201.333 113.516 198.433 106.514 193.271 101.352C188.109 96.1901 181.107 93.2901 173.807 93.2901C166.507 93.2901 159.505 96.1901 154.343 101.352C149.181 106.514 146.281 113.516 146.281 120.816C146.281 128.116 149.181 135.117 154.343 140.279C159.505 145.442 166.507 148.342 173.807 148.342ZM259.623 148.342C263.45 148.342 267.24 147.588 270.776 146.123C274.312 144.658 277.525 142.512 280.231 139.805C282.937 137.099 285.084 133.886 286.549 130.35C288.014 126.814 288.767 123.024 288.767 119.197C288.767 115.369 288.014 111.579 286.549 108.043C285.084 104.507 282.937 101.294 280.231 98.5881C277.525 95.8817 274.312 93.7349 270.776 92.2703C267.24 90.8056 263.45 90.0518 259.623 90.0518C251.893 90.0518 244.48 93.1224 239.014 98.5881C233.548 104.054 230.478 111.467 230.478 119.197C230.478 126.926 233.548 134.339 239.014 139.805C244.48 145.271 251.893 148.342 259.623 148.342Z" stroke="#C2DE68" stroke-width="8.25427" stroke-linecap="round" stroke-linejoin="round"/>
<path d="M201.328 31.7632L230.473 31.7632L259.628 119.198" stroke="#C2DE68" stroke-width="8.25427" stroke-linecap="round" stroke-linejoin="round"/>
<path d="M175.609 119.198L242.4 66.6177" stroke="#C2DE68" stroke-width="2.06357"/>
<path d="M175.603 119.198L242.393 66.6176M242.393 60.9084L269.828 60.9084L275.806 44.7168M165.703 64.0625L188.371 64.0625M188.371 64.1467L198.97 97.8933" stroke="#C2DE68" stroke-width="8.25427" stroke-linecap="round" stroke-linejoin="round"/>
<path d="M173.807 303.883C181.107 303.883 188.109 300.983 193.271 295.82C198.433 290.658 201.333 283.657 201.333 276.357C201.333 269.057 198.433 262.055 193.271 256.893C188.109 251.731 181.107 248.831 173.807 248.831C166.507 248.831 159.505 251.731 154.343 256.893C149.181 262.055 146.281 269.057 146.281 276.357C146.281 283.657 149.181 290.658 154.343 295.82C159.505 300.983 166.507 303.883 173.807 303.883ZM259.623 303.883C263.45 303.883 267.24 303.129 270.776 301.664C274.312 300.199 277.525 298.053 280.231 295.346C282.937 292.64 285.084 289.427 286.549 285.891C288.014 282.355 288.767 278.565 288.767 274.738C288.767 270.91 288.014 267.12 286.549 263.584C285.084 260.048 282.937 256.835 280.231 254.129C277.525 251.423 274.312 249.276 270.776 247.811C267.24 246.347 263.45 245.593 259.623 245.593C251.893 245.593 244.48 248.663 239.014 254.129C233.548 259.595 230.478 267.008 230.478 274.738C230.478 282.467 233.548 289.88 239.014 295.346C244.48 300.812 251.893 303.883 259.623 303.883Z" stroke="#C2DE68" stroke-width="8.25427" stroke-linecap="round" stroke-linejoin="round"/>
<path d="M201.328 187.304L230.473 187.304L259.628 274.738" stroke="#C2DE68" stroke-width="8.25427" stroke-linecap="round" stroke-linejoin="round"/>
<path d="M175.609 274.739L242.4 222.158" stroke="#C2DE68" stroke-width="2.06357"/>
<path d="M175.603 274.738L242.393 222.158M242.393 216.448L269.828 216.448L275.806 200.257M165.703 219.603L188.371 219.603M188.371 219.687L198.97 253.433" stroke="#C2DE68" stroke-width="8.25427" stroke-linecap="round" stroke-linejoin="round"/>
<path d="M173.807 459.426C181.107 459.426 188.109 456.525 193.271 451.363C198.433 446.201 201.333 439.2 201.333 431.9C201.333 424.6 198.433 417.598 193.271 412.436C188.109 407.274 181.107 404.374 173.807 404.374C166.507 404.374 159.505 407.274 154.343 412.436C149.181 417.598 146.281 424.6 146.281 431.9C146.281 439.2 149.181 446.201 154.343 451.363C159.505 456.525 166.507 459.426 173.807 459.426ZM259.623 459.426C263.45 459.426 267.24 458.672 270.776 457.207C274.312 455.742 277.525 453.596 280.231 450.889C282.937 448.183 285.084 444.97 286.549 441.434C288.014 437.898 288.767 434.108 288.767 430.281C288.767 426.453 288.014 422.663 286.549 419.127C285.084 415.591 282.937 412.378 280.231 409.672C277.525 406.966 274.312 404.819 270.776 403.354C267.24 401.89 263.45 401.136 259.623 401.136C251.893 401.136 244.48 404.206 239.014 409.672C233.548 415.138 230.478 422.551 230.478 430.281C230.478 438.01 233.548 445.423 239.014 450.889C244.48 456.355 251.893 459.426 259.623 459.426Z" stroke="#C2DE68" stroke-width="8.25427" stroke-linecap="round" stroke-linejoin="round"/>
<path d="M201.328 342.846L230.473 342.846L259.628 430.28" stroke="#C2DE68" stroke-width="8.25427" stroke-linecap="round" stroke-linejoin="round"/>
<path d="M175.609 430.282L242.4 377.701" stroke="#C2DE68" stroke-width="2.06357"/>
<path d="M175.603 430.281L242.393 377.701M242.393 371.991L269.828 371.991L275.806 355.8M165.703 375.146L188.371 375.146M188.371 375.23L198.97 408.976" stroke="#C2DE68" stroke-width="8.25427" stroke-linecap="round" stroke-linejoin="round"/>
<path d="M173.807 614.967C181.107 614.967 188.109 612.067 193.271 606.904C198.433 601.742 201.333 594.741 201.333 587.441C201.333 580.141 198.433 573.139 193.271 567.977C188.109 562.815 181.107 559.915 173.807 559.915C166.507 559.915 159.505 562.815 154.343 567.977C149.181 573.139 146.281 580.141 146.281 587.441C146.281 594.741 149.181 601.742 154.343 606.904C159.505 612.067 166.507 614.967 173.807 614.967ZM259.623 614.967C263.45 614.967 267.24 614.213 270.776 612.748C274.312 611.283 277.525 609.137 280.231 606.43C282.937 603.724 285.084 600.511 286.549 596.975C288.014 593.439 288.767 589.649 288.767 585.822C288.767 581.994 288.014 578.204 286.549 574.668C285.084 571.132 282.937 567.919 280.231 565.213C277.525 562.507 274.312 560.36 270.776 558.895C267.24 557.431 263.45 556.677 259.623 556.677C251.893 556.677 244.48 559.747 239.014 565.213C233.548 570.679 230.478 578.092 230.478 585.822C230.478 593.551 233.548 600.964 239.014 606.43C244.48 611.896 251.893 614.967 259.623 614.967Z" stroke="#C2DE68" stroke-width="8.25427" stroke-linecap="round" stroke-linejoin="round"/>
<path d="M201.328 498.388L230.473 498.388L259.628 585.822" stroke="#C2DE68" stroke-width="8.25427" stroke-linecap="round" stroke-linejoin="round"/>
<path d="M175.609 585.824L242.4 533.243" stroke="#C2DE68" stroke-width="2.06357"/>
<path d="M175.603 585.823L242.393 533.243M242.393 527.533L269.828 527.533L275.806 511.342M165.703 530.688L188.371 530.688M188.371 530.772L198.97 564.518" stroke="#C2DE68" stroke-width="8.25427" stroke-linecap="round" stroke-linejoin="round"/>
<path d="M330.827 539.01C324.781 565.512 312.281 590.499 293.639 610.424C259.046 647.437 204.349 664.45 154.693 654.455C105.049 644.435 61.9937 608.073 43.3836 561.413C24.9683 515.21 30.3578 459.589 58.322 418.121C60.9568 414.214 66.5704 413.775 69.6893 417.297C72.3757 420.32 75.3243 423.094 78.5046 425.588C82.3491 428.604 88.1095 426.787 89.6598 422.137C100.31 390.14 123.624 362.561 152.631 344.766C178.487 328.918 208.557 320.573 238.904 318.982C245.566 318.633 248.92 326.607 244.146 331.234C237.792 337.399 232.48 344.483 229.356 352.683C223.906 366.981 226.799 385.199 239.338 393.969C247.35 399.57 258.485 400.476 267.367 396.259C272.665 393.732 277.024 389.446 279.83 384.353C282.307 379.855 288.597 379.309 291.777 383.314C315.947 414.007 331.898 451.312 334.635 490.184C335.785 506.491 334.497 523.054 330.845 539.064L330.827 539.01Z" fill="#FF7900"/>
<path d="M256.431 601.798C205.7 636.225 140.474 620.916 103.626 592.777C79.6815 574.493 69.319 551.317 66.208 543.885C54.7625 516.523 55.9386 490.854 58.872 474.039C59.6053 469.866 64.9938 468.455 67.6374 471.775C70.482 475.389 74.4424 478.024 78.9947 479.15C86.4479 480.972 94.5003 478.464 99.9579 472.721C100.799 471.834 101.33 470.689 101.367 469.468C101.663 461.938 102.863 451.707 106.714 440.222C116.327 411.674 135.734 395.358 143.24 389.228C162.909 373.145 183.641 366.573 197.648 363.793C201.787 362.965 204.887 367.278 202.899 370.988C194.773 386.227 193.778 403.055 201.013 415.664C207.943 427.73 220.837 433.139 224.085 434.503C228.235 436.248 238.618 440.608 251.175 438.176C265.7 435.363 274.951 425.041 279.733 417.955C281.745 414.982 286.158 415.028 288.052 418.056C297.035 432.472 310.041 458.847 309.83 493.252C309.777 503.198 308.297 566.566 256.395 601.81L256.431 601.798Z" fill="#FFCD40"/>
<path d="M290.813 635.986L251.866 601.824C246.486 597.105 238.238 597.629 233.443 602.993L233.43 603.008C228.635 608.372 229.109 616.546 234.489 621.264L273.436 655.427C278.816 660.145 287.064 659.622 291.859 654.257L291.872 654.243C296.667 648.879 296.193 640.705 290.813 635.986Z" fill="#171759"/>
<path d="M205.31 678.324L215.686 627.566C217.119 620.555 212.556 613.758 205.494 612.383L205.475 612.379C198.412 611.004 191.525 615.573 190.092 622.584L179.716 673.341C178.282 680.352 182.846 687.15 189.908 688.525L189.927 688.528C196.989 689.903 203.877 685.334 205.31 678.324Z" fill="#171759"/>
<path d="M300.184 576.64C330.355 516.692 305.953 444.166 245.682 414.648C185.41 385.13 112.093 409.798 81.9218 469.746C51.7511 529.693 76.1527 602.219 136.424 631.737C196.696 661.255 270.014 636.587 300.184 576.64Z" fill="#62657A"/>
<path d="M210.774 581.82C245.528 570.127 264.325 532.779 252.758 498.401C241.191 464.022 203.641 445.632 168.888 457.325C134.134 469.018 115.338 506.366 126.904 540.744C138.471 575.123 176.021 593.513 210.774 581.82Z" stroke="#D3D3DD" stroke-width="9.76429" stroke-miterlimit="10"/>
<path d="M205.816 567.096C232.348 558.169 246.698 529.656 237.868 503.41C229.037 477.164 200.37 463.125 173.838 472.051C147.306 480.978 132.955 509.491 141.786 535.737C150.616 561.983 179.283 576.023 205.816 567.096Z" fill="#D3D3DD"/>
<path opacity="0.2" d="M306.843 484.213C328.127 547.474 293.537 616.202 229.586 637.718C196.907 648.714 162.905 645.252 134.607 630.788C156.254 635.95 179.61 635.302 202.323 627.66C266.274 606.143 300.845 537.421 279.561 474.161C269.154 443.227 247.327 419.317 220.223 405.499C259.506 414.857 293.118 443.421 306.843 484.213Z" fill="#3D3D60"/>
<path d="M296.975 491.334C312.742 544.005 286.411 600.007 236.459 622.593" stroke="#4E4E68" stroke-width="9.76429" stroke-miterlimit="10" stroke-linecap="round"/>
<path d="M283.379 503.501C291.236 540.831 275.158 578.904 244.058 600.04" stroke="#4E4E68" stroke-width="9.76429" stroke-miterlimit="10" stroke-linecap="round"/>
<path d="M85.1115 555.026C69.3444 502.355 95.6759 446.353 145.628 423.767" stroke="#4E4E68" stroke-width="9.76429" stroke-miterlimit="10" stroke-linecap="round"/>
<path d="M98.7028 542.858C90.8457 505.529 106.923 467.456 138.023 446.319" stroke="#4E4E68" stroke-width="9.76429" stroke-miterlimit="10" stroke-linecap="round"/>
<path d="M168.157 524.723L166.386 519.459C164.689 514.413 159.178 511.714 154.077 513.43L154.059 513.437C148.959 515.153 146.2 520.634 147.898 525.679L149.669 530.943C151.366 535.989 156.877 538.688 161.977 536.972L161.996 536.965C167.096 535.249 169.855 529.768 168.157 524.723Z" fill="#171759"/>
<path d="M228.673 504.362L226.902 499.098C225.204 494.053 219.693 491.354 214.593 493.07L214.575 493.076C209.474 494.792 206.716 500.273 208.413 505.319L210.184 510.583C211.882 515.628 217.393 518.327 222.493 516.611L222.511 516.605C227.612 514.889 230.37 509.408 228.673 504.362Z" fill="#171759"/>
<path d="M206.001 520.634C208.612 528.394 204.372 536.849 196.527 539.489C188.681 542.128 180.193 537.956 177.582 530.195L206.019 520.628L206.001 520.634Z" fill="white" stroke="#171759" stroke-width="7.22557" stroke-linecap="round" stroke-linejoin="round"/>
<path d="M161.498 522.094L164.557 521.81C165.801 521.693 166.348 523.321 165.288 523.98L162.678 525.603C161.636 526.256 161.032 527.426 161.153 528.634L161.42 531.665C161.529 532.897 159.883 533.451 159.225 532.404L157.605 529.827C156.954 528.798 155.778 528.207 154.559 528.335L151.499 528.62C150.256 528.736 149.708 527.108 150.769 526.449L153.378 524.826C154.42 524.173 155.024 523.003 154.903 521.796L154.636 518.764C154.527 517.532 156.173 516.978 156.831 518.026L158.451 520.602C159.102 521.631 160.278 522.222 161.498 522.094Z" fill="white"/>
<path d="M222.017 501.735L225.077 501.45C226.32 501.334 226.868 502.962 225.807 503.621L223.198 505.244C222.155 505.897 221.551 507.067 221.673 508.274L221.939 511.306C222.049 512.538 220.403 513.092 219.745 512.044L218.125 509.468C217.473 508.439 216.297 507.848 215.078 507.976L212.018 508.26C210.775 508.377 210.227 506.749 211.288 506.09L213.897 504.467C214.94 503.814 215.544 502.644 215.423 501.436L215.156 498.405C215.047 497.173 216.693 496.619 217.35 497.666L218.97 500.243C219.622 501.272 220.798 501.863 222.017 501.735Z" fill="white"/>
<path d="M68.4814 629.942C79.3085 626.299 85.1644 614.664 81.5609 603.954C77.9575 593.244 66.2593 587.514 55.4322 591.157C44.6052 594.8 38.7493 606.435 42.3527 617.145C45.9562 627.855 57.6544 633.585 68.4814 629.942Z" fill="#171759"/>
<path d="M38.8689 430.9L42.0079 430.609C45.3602 430.286 46.8331 434.664 43.9677 436.434L41.2913 438.099C40.4012 438.661 39.8826 439.661 39.9736 440.718L40.2464 443.828C40.5496 447.149 36.124 448.638 34.3578 445.809L32.6952 443.166C32.1349 442.288 31.1294 441.78 30.0628 441.877L26.9238 442.168C23.5715 442.49 22.0986 438.113 24.964 436.343L27.6404 434.677C28.5305 434.116 29.0491 433.116 28.9581 432.059L28.6853 428.949C28.3821 425.628 32.8077 424.139 34.5739 426.968L36.2365 429.61C36.7968 430.489 37.8022 430.997 38.8689 430.9Z" fill="white"/>
<path d="M240.869 333.9L244.008 333.609C247.36 333.286 248.833 337.664 245.968 339.434L243.291 341.099C242.401 341.661 241.883 342.661 241.974 343.718L242.246 346.828C242.55 350.149 238.124 351.638 236.358 348.809L234.695 346.166C234.135 345.288 233.129 344.78 232.063 344.877L228.924 345.168C225.572 345.49 224.099 341.113 226.964 339.343L229.64 337.677C230.531 337.116 231.049 336.116 230.958 335.059L230.685 331.949C230.382 328.628 234.808 327.139 236.574 329.968L238.237 332.61C238.797 333.489 239.802 333.997 240.869 333.9Z" fill="white"/>
<path d="M269.869 358.899L273.008 358.608C276.36 358.285 277.833 362.663 274.968 364.433L272.291 366.098C271.401 366.66 270.883 367.66 270.974 368.717L271.246 371.827C271.55 375.148 267.124 376.637 265.358 373.808L263.695 371.165C263.135 370.287 262.129 369.779 261.063 369.876L257.924 370.167C254.572 370.489 253.099 366.112 255.964 364.342L258.64 362.676C259.531 362.115 260.049 361.115 259.958 360.058L259.685 356.948C259.382 353.627 263.808 352.138 265.574 354.967L267.237 357.609C267.797 358.488 268.802 358.996 269.869 358.899Z" fill="white"/>
</g>
<defs>
<clipPath id="clip0_10755_28838">
<rect width="267" height="613" fill="white"/>
</clipPath>
</defs>
</svg>
