<svg width="287" height="564" viewBox="0 0 287 564" fill="none" xmlns="http://www.w3.org/2000/svg">
<g clip-path="url(#clip0_7025_61538)">
<rect width="437" height="886" transform="translate(-150 -267)" fill="#BBD567"/>
<path d="M9.25855 10.9177C16.7532 10.9177 23.9409 7.94045 29.2404 2.64094C34.5399 -2.65856 37.5171 -9.84623 37.5171 -17.3409C37.5171 -24.8355 34.5399 -32.0232 29.2404 -37.3227C23.9409 -42.6222 16.7532 -45.5994 9.25855 -45.5994C1.76392 -45.5994 -5.42376 -42.6222 -10.7233 -37.3227C-16.0228 -32.0232 -19 -24.8355 -19 -17.3409C-19 -9.84623 -16.0228 -2.65856 -10.7233 2.64094C-5.42376 7.94045 1.76392 10.9177 9.25855 10.9177ZM97.3587 10.9177C101.288 10.9177 105.179 10.1438 108.809 8.64009C112.439 7.13643 115.738 4.93248 118.516 2.15408C121.294 -0.624328 123.498 -3.92277 125.002 -7.55293C126.506 -11.1831 127.28 -15.0739 127.28 -19.0031C127.28 -22.9324 126.506 -26.8232 125.002 -30.4533C123.498 -34.0835 121.294 -37.3819 118.516 -40.1603C115.738 -42.9387 112.439 -45.1427 108.809 -46.6464C105.179 -48.15 101.288 -48.9239 97.3587 -48.9239C89.4232 -48.9239 81.8128 -45.7716 76.2015 -40.1603C70.5903 -34.5491 67.4379 -26.9386 67.4379 -19.0031C67.4379 -11.0676 70.5903 -3.45717 76.2015 2.15408C81.8128 7.76532 89.4232 10.9177 97.3587 10.9177Z" stroke="#C2DE68" stroke-width="8.47402" stroke-linecap="round" stroke-linejoin="round"/>
<path d="M9.25855 170.6C16.7532 170.6 23.9409 167.623 29.2404 162.323C34.5399 157.024 37.5171 149.836 37.5171 142.342C37.5171 134.847 34.5399 127.659 29.2404 122.36C23.9409 117.06 16.7532 114.083 9.25855 114.083C1.76392 114.083 -5.42376 117.06 -10.7233 122.36C-16.0228 127.659 -19 134.847 -19 142.342C-19 149.836 -16.0228 157.024 -10.7233 162.323C-5.42376 167.623 1.76392 170.6 9.25855 170.6ZM97.3587 170.6C101.288 170.6 105.179 169.826 108.809 168.322C112.439 166.819 115.738 164.615 118.516 161.836C121.294 159.058 123.498 155.76 125.002 152.129C126.506 148.499 127.28 144.608 127.28 140.679C127.28 136.75 126.506 132.859 125.002 129.229C123.498 125.599 121.294 122.3 118.516 119.522C115.738 116.744 112.439 114.54 108.809 113.036C105.179 111.532 101.288 110.758 97.3587 110.758C89.4232 110.758 81.8128 113.911 76.2015 119.522C70.5903 125.133 67.4379 132.744 67.4379 140.679C67.4379 148.615 70.5903 156.225 76.2015 161.836C81.8128 167.448 89.4232 170.6 97.3587 170.6Z" stroke="#C2DE68" stroke-width="8.47402" stroke-linecap="round" stroke-linejoin="round"/>
<path d="M37.5078 50.9175L67.4286 50.9175L97.3594 140.68" stroke="#C2DE68" stroke-width="8.47402" stroke-linecap="round" stroke-linejoin="round"/>
<path d="M11.1094 140.681L79.6779 86.7001" stroke="#C2DE68" stroke-width="2.11851"/>
<path d="M11.1045 140.68L79.673 86.6997M79.673 80.8385L107.838 80.8385L113.976 64.2158M0.941406 84.0766L24.2132 84.0766M24.2132 84.163L35.0944 118.808" stroke="#C2DE68" stroke-width="8.47402" stroke-linecap="round" stroke-linejoin="round"/>
<path d="M9.25855 330.282C16.7532 330.282 23.9409 327.305 29.2404 322.006C34.5399 316.706 37.5171 309.519 37.5171 302.024C37.5171 294.529 34.5399 287.342 29.2404 282.042C23.9409 276.743 16.7532 273.765 9.25855 273.765C1.76392 273.765 -5.42376 276.743 -10.7233 282.042C-16.0228 287.342 -19 294.529 -19 302.024C-19 309.519 -16.0228 316.706 -10.7233 322.006C-5.42376 327.305 1.76392 330.282 9.25855 330.282ZM97.3587 330.282C101.288 330.282 105.179 329.509 108.809 328.005C112.439 326.501 115.738 324.297 118.516 321.519C121.294 318.74 123.498 315.442 125.002 311.812C126.506 308.182 127.28 304.291 127.28 300.362C127.28 296.432 126.506 292.542 125.002 288.911C123.498 285.281 121.294 281.983 118.516 279.204C115.738 276.426 112.439 274.222 108.809 272.718C105.179 271.215 101.288 270.441 97.3587 270.441C89.4232 270.441 81.8128 273.593 76.2015 279.204C70.5903 284.816 67.4379 292.426 67.4379 300.362C67.4379 308.297 70.5903 315.908 76.2015 321.519C81.8128 327.13 89.4232 330.282 97.3587 330.282Z" stroke="#C2DE68" stroke-width="8.47402" stroke-linecap="round" stroke-linejoin="round"/>
<path d="M37.5078 210.6L67.4286 210.6L97.3594 300.362" stroke="#C2DE68" stroke-width="8.47402" stroke-linecap="round" stroke-linejoin="round"/>
<path d="M11.1094 300.363L79.6779 246.382" stroke="#C2DE68" stroke-width="2.11851"/>
<path d="M11.1045 300.363L79.673 246.382M79.673 240.521L107.838 240.521L113.976 223.898M0.941406 243.759L24.2132 243.759M24.2132 243.845L35.0944 278.49" stroke="#C2DE68" stroke-width="8.47402" stroke-linecap="round" stroke-linejoin="round"/>
<path d="M9.25855 489.965C16.7532 489.965 23.9409 486.988 29.2404 481.688C34.5399 476.389 37.5171 469.201 37.5171 461.706C37.5171 454.212 34.5399 447.024 29.2404 441.724C23.9409 436.425 16.7532 433.448 9.25855 433.448C1.76392 433.448 -5.42376 436.425 -10.7233 441.724C-16.0228 447.024 -19 454.212 -19 461.706C-19 469.201 -16.0228 476.389 -10.7233 481.688C-5.42376 486.988 1.76392 489.965 9.25855 489.965ZM97.3587 489.965C101.288 489.965 105.179 489.191 108.809 487.687C112.439 486.184 115.738 483.98 118.516 481.201C121.294 478.423 123.498 475.124 125.002 471.494C126.506 467.864 127.28 463.973 127.28 460.044C127.28 456.115 126.506 452.224 125.002 448.594C123.498 444.964 121.294 441.665 118.516 438.887C115.738 436.108 112.439 433.904 108.809 432.401C105.179 430.897 101.288 430.123 97.3587 430.123C89.4232 430.123 81.8128 433.276 76.2015 438.887C70.5903 444.498 67.4379 452.108 67.4379 460.044C67.4379 467.979 70.5903 475.59 76.2015 481.201C81.8128 486.812 89.4232 489.965 97.3587 489.965Z" stroke="#C2DE68" stroke-width="8.47402" stroke-linecap="round" stroke-linejoin="round"/>
<path d="M37.5078 370.282L67.4286 370.282L97.3594 460.045" stroke="#C2DE68" stroke-width="8.47402" stroke-linecap="round" stroke-linejoin="round"/>
<path d="M11.1094 460.045L79.6779 406.065" stroke="#C2DE68" stroke-width="2.11851"/>
<path d="M11.1045 460.045L79.673 406.064M79.673 400.203L107.838 400.203L113.976 383.58M0.941406 403.441L24.2132 403.441M24.2132 403.528L35.0944 438.173" stroke="#C2DE68" stroke-width="8.47402" stroke-linecap="round" stroke-linejoin="round"/>
<path d="M37.5078 529.965L67.4286 529.965L97.3594 619.727" stroke="#C2DE68" stroke-width="8.47402" stroke-linecap="round" stroke-linejoin="round"/>
<path d="M11.1045 619.727L79.673 565.747M79.673 559.885L107.838 559.885L113.976 543.263M0.941406 563.124L24.2132 563.124M24.2132 563.21L35.0944 597.855" stroke="#C2DE68" stroke-width="8.47402" stroke-linecap="round" stroke-linejoin="round"/>
<path d="M179.259 79.3649C186.753 79.3649 193.941 76.3877 199.24 71.0881C204.54 65.7886 207.517 58.601 207.517 51.1063C207.517 43.6117 204.54 36.424 199.24 31.1245C193.941 25.825 186.753 22.8478 179.259 22.8478C171.764 22.8478 164.576 25.825 159.277 31.1245C153.977 36.424 151 43.6117 151 51.1063C151 58.601 153.977 65.7886 159.277 71.0881C164.576 76.3877 171.764 79.3649 179.259 79.3649ZM267.359 79.3649C271.288 79.3649 275.179 78.591 278.809 77.0873C282.439 75.5836 285.738 73.3797 288.516 70.6013C291.294 67.8229 293.498 64.5244 295.002 60.8943C296.506 57.2641 297.28 53.3733 297.28 49.4441C297.28 45.5148 296.506 41.624 295.002 37.9939C293.498 34.3637 291.294 31.0653 288.516 28.2869C285.738 25.5085 282.439 23.3045 278.809 21.8008C275.179 20.2972 271.288 19.5233 267.359 19.5233C259.423 19.5233 251.813 22.6756 246.202 28.2869C240.59 33.8981 237.438 41.5086 237.438 49.4441C237.438 57.3796 240.59 64.99 246.202 70.6013C251.813 76.2125 259.423 79.3649 267.359 79.3649Z" stroke="#C2DE68" stroke-width="8.47402" stroke-linecap="round" stroke-linejoin="round"/>
<path d="M207.508 -40.3176L237.429 -40.3176L267.359 49.4448" stroke="#C2DE68" stroke-width="8.47402" stroke-linecap="round" stroke-linejoin="round"/>
<path d="M181.109 49.4454L249.678 -4.53503" stroke="#C2DE68" stroke-width="2.11851"/>
<path d="M181.105 49.445L249.673 -4.53551M249.673 -10.3967L277.838 -10.3967L283.976 -27.0193M170.941 -7.15858L194.213 -7.15858M194.213 -7.07214L205.094 27.5728" stroke="#C2DE68" stroke-width="8.47402" stroke-linecap="round" stroke-linejoin="round"/>
<path d="M179.259 239.047C186.753 239.047 193.941 236.07 199.24 230.771C204.54 225.471 207.517 218.283 207.517 210.789C207.517 203.294 204.54 196.106 199.24 190.807C193.941 185.507 186.753 182.53 179.259 182.53C171.764 182.53 164.576 185.507 159.277 190.807C153.977 196.106 151 203.294 151 210.789C151 218.283 153.977 225.471 159.277 230.771C164.576 236.07 171.764 239.047 179.259 239.047ZM267.359 239.047C271.288 239.047 275.179 238.273 278.809 236.77C282.439 235.266 285.738 233.062 288.516 230.284C291.294 227.505 293.498 224.207 295.002 220.577C296.506 216.947 297.28 213.056 297.28 209.127C297.28 205.197 296.506 201.306 295.002 197.676C293.498 194.046 291.294 190.748 288.516 187.969C285.738 185.191 282.439 182.987 278.809 181.483C275.179 179.98 271.288 179.206 267.359 179.206C259.423 179.206 251.813 182.358 246.202 187.969C240.59 193.581 237.438 201.191 237.438 209.127C237.438 217.062 240.59 224.672 246.202 230.284C251.813 235.895 259.423 239.047 267.359 239.047Z" stroke="#C2DE68" stroke-width="8.47402" stroke-linecap="round" stroke-linejoin="round"/>
<path d="M207.508 119.365L237.429 119.365L267.359 209.127" stroke="#C2DE68" stroke-width="8.47402" stroke-linecap="round" stroke-linejoin="round"/>
<path d="M181.109 209.128L249.678 155.147" stroke="#C2DE68" stroke-width="2.11851"/>
<path d="M181.105 209.127L249.673 155.147M249.673 149.286L277.838 149.286L283.976 132.663M170.941 152.524L194.213 152.524M194.213 152.61L205.094 187.255" stroke="#C2DE68" stroke-width="8.47402" stroke-linecap="round" stroke-linejoin="round"/>
<path d="M179.259 398.73C186.753 398.73 193.941 395.752 199.24 390.453C204.54 385.153 207.517 377.966 207.517 370.471C207.517 362.977 204.54 355.789 199.24 350.489C193.941 345.19 186.753 342.213 179.259 342.213C171.764 342.213 164.576 345.19 159.277 350.489C153.977 355.789 151 362.977 151 370.471C151 377.966 153.977 385.153 159.277 390.453C164.576 395.752 171.764 398.73 179.259 398.73ZM267.359 398.73C271.288 398.73 275.179 397.956 278.809 396.452C282.439 394.948 285.738 392.744 288.516 389.966C291.294 387.188 293.498 383.889 295.002 380.259C296.506 376.629 297.28 372.738 297.28 368.809C297.28 364.88 296.506 360.989 295.002 357.359C293.498 353.729 291.294 350.43 288.516 347.652C285.738 344.873 282.439 342.669 278.809 341.166C275.179 339.662 271.288 338.888 267.359 338.888C259.423 338.888 251.813 342.04 246.202 347.652C240.59 353.263 237.438 360.873 237.438 368.809C237.438 376.744 240.59 384.355 246.202 389.966C251.813 395.577 259.423 398.73 267.359 398.73Z" stroke="#C2DE68" stroke-width="8.47402" stroke-linecap="round" stroke-linejoin="round"/>
<path d="M207.508 279.047L237.429 279.047L267.359 368.81" stroke="#C2DE68" stroke-width="8.47402" stroke-linecap="round" stroke-linejoin="round"/>
<path d="M181.109 368.81L249.678 314.83" stroke="#C2DE68" stroke-width="2.11851"/>
<path d="M181.105 368.81L249.673 314.829M249.673 308.968L277.838 308.968L283.976 292.345M170.941 312.206L194.213 312.206M194.213 312.293L205.094 346.938" stroke="#C2DE68" stroke-width="8.47402" stroke-linecap="round" stroke-linejoin="round"/>
<path d="M179.259 558.412C186.753 558.412 193.941 555.435 199.24 550.135C204.54 544.836 207.517 537.648 207.517 530.154C207.517 522.659 204.54 515.471 199.24 510.172C193.941 504.872 186.753 501.895 179.259 501.895C171.764 501.895 164.576 504.872 159.277 510.172C153.977 515.471 151 522.659 151 530.154C151 537.648 153.977 544.836 159.277 550.135C164.576 555.435 171.764 558.412 179.259 558.412ZM267.359 558.412C271.288 558.412 275.179 557.638 278.809 556.134C282.439 554.631 285.738 552.427 288.516 549.648C291.294 546.87 293.498 543.572 295.002 539.941C296.506 536.311 297.28 532.421 297.28 528.491C297.28 524.562 296.506 520.671 295.002 517.041C293.498 513.411 291.294 510.112 288.516 507.334C285.738 504.556 282.439 502.352 278.809 500.848C275.179 499.344 271.288 498.57 267.359 498.57C259.423 498.57 251.813 501.723 246.202 507.334C240.59 512.945 237.438 520.556 237.438 528.491C237.438 536.427 240.59 544.037 246.202 549.648C251.813 555.26 259.423 558.412 267.359 558.412Z" stroke="#C2DE68" stroke-width="8.47402" stroke-linecap="round" stroke-linejoin="round"/>
<path d="M207.508 438.729L237.429 438.729L267.359 528.492" stroke="#C2DE68" stroke-width="8.47402" stroke-linecap="round" stroke-linejoin="round"/>
<path d="M181.109 528.493L249.678 474.512" stroke="#C2DE68" stroke-width="2.11851"/>
<path d="M181.105 528.492L249.673 474.512M249.673 468.65L277.838 468.65L283.976 452.028M170.941 471.888L194.213 471.888M194.213 471.975L205.094 506.62" stroke="#C2DE68" stroke-width="8.47402" stroke-linecap="round" stroke-linejoin="round"/>
<path d="M351.573 491.749C345.7 517.494 333.557 541.768 315.448 561.124C281.843 597.079 228.708 613.606 180.471 603.896C132.245 594.162 90.4195 558.839 72.341 513.512C54.4517 468.629 59.6872 414.597 86.8527 374.314C89.4122 370.518 94.8654 370.092 97.8952 373.513C100.505 376.45 103.369 379.144 106.459 381.567C110.193 384.497 115.789 382.732 117.295 378.215C127.642 347.131 150.289 320.34 178.468 303.054C203.585 287.659 232.796 279.552 262.276 278.006C268.748 277.668 272.006 285.413 267.368 289.908C261.196 295.897 256.036 302.778 253.001 310.744C247.707 324.635 250.517 342.332 262.698 350.852C270.481 356.293 281.298 357.172 289.926 353.076C295.073 350.621 299.308 346.457 302.034 341.51C304.44 337.14 310.55 336.61 313.639 340.501C337.118 370.317 352.614 406.557 355.272 444.318C356.39 460.159 355.139 476.249 351.591 491.802L351.573 491.749Z" fill="#FF7900"/>
<path d="M279.307 552.744C230.025 586.188 166.662 571.316 130.866 543.98C107.606 526.218 97.5391 503.705 94.517 496.486C83.3985 469.905 84.541 444.969 87.3906 428.635C88.103 424.58 93.3375 423.21 95.9056 426.435C98.669 429.946 102.516 432.505 106.939 433.6C114.179 435.369 122.001 432.933 127.303 427.354C128.12 426.492 128.636 425.38 128.672 424.194C128.96 416.879 130.125 406.94 133.866 395.783C143.204 368.051 162.057 352.201 169.349 346.246C188.456 330.623 208.596 324.238 222.203 321.538C226.223 320.733 229.235 324.923 227.303 328.527C219.41 343.331 218.443 359.678 225.471 371.926C232.203 383.649 244.729 388.902 247.884 390.227C251.916 391.923 262.003 396.158 274.2 393.796C288.311 391.063 297.297 381.036 301.942 374.152C303.898 371.264 308.184 371.309 310.024 374.25C318.751 388.255 331.385 413.876 331.18 447.299C331.128 456.961 329.691 518.519 279.271 552.756L279.307 552.744Z" fill="#FFCD40"/>
<path d="M312.696 585.955L274.861 552.769C269.635 548.185 261.622 548.694 256.964 553.905L256.952 553.919C252.294 559.13 252.754 567.07 257.98 571.654L295.816 604.84C301.041 609.424 309.054 608.915 313.712 603.704L313.724 603.69C318.382 598.479 317.922 590.539 312.696 585.955Z" fill="#171759"/>
<path d="M307.093 573.316L294.797 587.072C290.139 592.283 290.6 600.223 295.826 604.807L295.84 604.819C301.065 609.403 309.078 608.895 313.736 603.684L326.032 589.928C330.69 584.717 330.23 576.776 325.004 572.192L324.99 572.18C319.764 567.596 311.751 568.105 307.093 573.316Z" fill="#171759"/>
<path d="M229.649 627.083L239.729 577.775C241.121 570.965 236.688 564.361 229.828 563.026L229.809 563.022C222.949 561.686 216.258 566.125 214.866 572.935L204.786 622.243C203.394 629.053 207.827 635.657 214.687 636.993L214.706 636.996C221.566 638.332 228.257 633.894 229.649 627.083Z" fill="#171759"/>
<path d="M321.807 528.304C351.116 470.069 327.411 399.615 268.862 370.94C210.312 342.265 139.088 366.228 109.779 424.463C80.4705 482.699 104.175 553.153 162.725 581.828C221.275 610.502 292.498 586.539 321.807 528.304Z" fill="#62657A"/>
<path d="M234.944 533.336C268.705 521.977 286.965 485.696 275.729 452.299C264.493 418.903 228.015 401.038 194.254 412.397C160.494 423.756 142.234 460.037 153.47 493.434C164.706 526.83 201.184 544.695 234.944 533.336Z" stroke="#D3D3DD" stroke-width="9.48537" stroke-miterlimit="10"/>
<path d="M230.132 519.033C255.906 510.361 269.846 482.662 261.268 457.166C252.69 431.67 224.842 418.031 199.067 426.703C173.293 435.375 159.352 463.074 167.931 488.57C176.509 514.066 204.357 527.705 230.132 519.033Z" fill="#D3D3DD"/>
<path opacity="0.2" d="M328.266 438.519C348.942 499.972 315.34 566.737 253.216 587.639C221.47 598.32 188.44 594.957 160.95 580.907C181.978 585.921 204.667 585.291 226.731 577.867C288.855 556.966 322.439 490.207 301.763 428.753C291.653 398.703 270.45 375.476 244.121 362.053C282.281 371.143 314.933 398.891 328.266 438.519Z" fill="#3D3D60"/>
<path d="M318.688 445.436C334.004 496.603 308.425 551.005 259.9 572.946" stroke="#4E4E68" stroke-width="9.48537" stroke-miterlimit="10" stroke-linecap="round"/>
<path d="M305.481 457.256C313.114 493.519 297.496 530.504 267.284 551.037" stroke="#4E4E68" stroke-width="9.48537" stroke-miterlimit="10" stroke-linecap="round"/>
<path d="M112.873 507.308C97.5561 456.141 123.135 401.74 171.66 379.799" stroke="#4E4E68" stroke-width="9.48537" stroke-miterlimit="10" stroke-linecap="round"/>
<path d="M126.081 495.489C118.449 459.225 134.067 422.24 164.278 401.707" stroke="#4E4E68" stroke-width="9.48537" stroke-miterlimit="10" stroke-linecap="round"/>
<path d="M193.562 477.872L191.841 472.758C190.192 467.857 184.839 465.235 179.884 466.902L179.866 466.908C174.912 468.575 172.232 473.899 173.881 478.801L175.601 483.914C177.25 488.816 182.604 491.437 187.559 489.77L187.576 489.764C192.531 488.097 195.211 482.773 193.562 477.872Z" fill="#171759"/>
<path d="M252.347 458.093L250.626 452.98C248.977 448.078 243.624 445.457 238.669 447.124L238.652 447.13C233.697 448.797 231.017 454.121 232.666 459.023L234.387 464.136C236.036 469.038 241.389 471.659 246.344 469.992L246.361 469.986C251.316 468.319 253.996 462.995 252.347 458.093Z" fill="#171759"/>
<path d="M230.314 473.899C232.85 481.438 228.732 489.651 221.11 492.215C213.489 494.779 205.244 490.726 202.707 483.188L230.332 473.893L230.314 473.899Z" fill="white" stroke="#171759" stroke-width="7.01918" stroke-linecap="round" stroke-linejoin="round"/>
<path d="M187.083 475.317L190.056 475.041C191.264 474.928 191.796 476.509 190.765 477.149L188.231 478.726C187.218 479.36 186.631 480.497 186.749 481.67L187.008 484.615C187.114 485.812 185.515 486.35 184.876 485.332L183.303 482.829C182.669 481.829 181.527 481.255 180.343 481.38L177.371 481.656C176.163 481.769 175.63 480.187 176.661 479.547L179.196 477.971C180.209 477.336 180.795 476.2 180.677 475.027L180.418 472.082C180.312 470.885 181.911 470.347 182.55 471.365L184.124 473.867C184.757 474.867 185.899 475.441 187.083 475.317Z" fill="white"/>
<path d="M245.869 455.539L248.841 455.263C250.049 455.15 250.581 456.731 249.55 457.372L247.016 458.948C246.003 459.582 245.416 460.719 245.534 461.892L245.793 464.837C245.899 466.034 244.3 466.572 243.661 465.554L242.088 463.052C241.455 462.052 240.312 461.477 239.128 461.602L236.156 461.878C234.948 461.991 234.416 460.41 235.446 459.769L237.981 458.193C238.994 457.559 239.58 456.422 239.463 455.249L239.203 452.304C239.097 451.107 240.696 450.569 241.335 451.587L242.909 454.09C243.542 455.089 244.684 455.664 245.869 455.539Z" fill="white"/>
<path d="M96.7206 580.084C107.238 576.546 112.927 565.243 109.426 554.839C105.926 544.434 94.5619 538.869 84.0441 542.408C73.5263 545.946 67.8377 557.249 71.3382 567.653C74.8387 578.058 86.2028 583.623 96.7206 580.084Z" fill="#171759"/>
<path d="M307.752 297.313L317.22 296.416C321.898 295.977 323.949 302.075 319.958 304.552L311.873 309.561C310.861 310.195 310.274 311.332 310.392 312.505L311.234 321.885C311.646 326.52 305.482 328.594 303.009 324.653L298.01 316.671C297.377 315.671 296.234 315.097 295.05 315.221L285.582 316.118C280.905 316.557 278.853 310.459 282.845 307.982L290.929 302.973C291.942 302.339 292.528 301.202 292.41 300.029L291.568 290.649C291.156 286.014 297.32 283.94 299.793 287.881L304.793 295.863C305.426 296.863 306.568 297.437 307.752 297.313Z" fill="white"/>
<path d="M55.6033 398.579L58.6527 398.297C61.9092 397.983 63.34 402.236 60.5565 403.955L57.9565 405.573C57.0918 406.119 56.5881 407.09 56.6765 408.117L56.9415 411.138C57.236 414.365 52.9369 415.811 51.2211 413.063L49.606 410.496C49.0617 409.642 48.085 409.149 47.0488 409.243L43.9995 409.526C40.7429 409.839 39.3121 405.586 42.0956 403.867L44.6956 402.249C45.5603 401.704 46.064 400.732 45.9757 399.706L45.7107 396.684C45.4161 393.458 49.7153 392.011 51.431 394.76L53.0462 397.327C53.5905 398.18 54.5672 398.674 55.6033 398.579Z" fill="white"/>
<path d="M261.322 291.805L264.371 291.523C267.628 291.209 269.059 295.462 266.275 297.181L263.675 298.799C262.811 299.344 262.307 300.316 262.395 301.343L262.66 304.364C262.955 307.59 258.656 309.037 256.94 306.289L255.325 303.722C254.78 302.868 253.804 302.375 252.768 302.469L249.718 302.752C246.462 303.065 245.031 298.812 247.814 297.093L250.414 295.475C251.279 294.93 251.783 293.958 251.694 292.932L251.429 289.91C251.135 286.684 255.434 285.237 257.15 287.986L258.765 290.553C259.309 291.406 260.286 291.899 261.322 291.805Z" fill="white"/>
</g>
<defs>
<clipPath id="clip0_7025_61538">
<rect width="437" height="886" fill="white" transform="translate(-150 -267)"/>
</clipPath>
</defs>
</svg>
