<svg width="24" height="24" viewBox="0 0 24 24" fill="none" xmlns="http://www.w3.org/2000/svg">
<path fill-rule="evenodd" clip-rule="evenodd" d="M20 9C19.447 9 19 8.552 19 8C19 7.448 19.447 7 20 7C20.552 7 21 7.448 21 8C21 8.552 20.552 9 20 9ZM7 20H17V14H7V20ZM21 6H3C2.447 6 2 6.347 2 6.773V15.226C2 15.652 2.447 15.999 3 15.999H4.999V14H5V22.002H19.001V15.999H21C21.552 15.999 22 15.652 22 15.226V6.773C22 6.347 21.552 6 21 6Z" fill="#1C3A29"/>
<path fill-rule="evenodd" clip-rule="evenodd" d="M19.012 3.09576C19.012 2.49176 18.516 1.99976 17.906 1.99976H6.106C5.494 1.99976 5 2.49176 5 3.09576V4.99976H19.012V3.09576Z" fill="#1C3A29"/>
</svg>
