<svg width="73" height="28" viewBox="0 0 73 28" fill="none" xmlns="http://www.w3.org/2000/svg">
<path fill-rule="evenodd" clip-rule="evenodd" d="M20 11.3281C19.447 11.3281 19 10.8801 19 10.3281C19 9.77612 19.447 9.32812 20 9.32812C20.552 9.32812 21 9.77612 21 10.3281C21 10.8801 20.552 11.3281 20 11.3281ZM7 22.3281H17V16.3281H7V22.3281ZM21 8.32812H3C2.447 8.32812 2 8.67513 2 9.10113V17.5541C2 17.9801 2.447 18.3271 3 18.3271H4.999V16.3281H5V24.3301H19.001V18.3271H21C21.552 18.3271 22 17.9801 22 17.5541V9.10113C22 8.67513 21.552 8.32812 21 8.32812Z" fill="#1C3A29"/>
<path fill-rule="evenodd" clip-rule="evenodd" d="M19.012 5.42412C19.012 4.82012 18.516 4.32812 17.906 4.32812H6.106C5.494 4.32812 5 4.82012 5 5.42412V7.32812H19.012V5.42412Z" fill="#1C3A29"/>
<path d="M30.224 20.8281V8.22812H34.958C35.978 8.22812 36.818 8.40212 37.478 8.75012C38.15 9.08612 38.648 9.55412 38.972 10.1541C39.308 10.7421 39.476 11.4081 39.476 12.1521C39.476 12.8481 39.314 13.4901 38.99 14.0781C38.678 14.6661 38.186 15.1461 37.514 15.5181C36.854 15.8781 36.002 16.0581 34.958 16.0581H32.654V20.8281H30.224ZM32.654 14.0961H34.796C35.576 14.0961 36.134 13.9221 36.47 13.5741C36.818 13.2141 36.992 12.7401 36.992 12.1521C36.992 11.5401 36.818 11.0661 36.47 10.7301C36.134 10.3821 35.576 10.2081 34.796 10.2081H32.654V14.0961ZM41.5871 20.8281V11.8101H43.7471L43.9631 13.4841C44.1911 13.1001 44.4611 12.7701 44.7731 12.4941C45.0971 12.2061 45.4691 11.9841 45.8891 11.8281C46.3211 11.6721 46.7891 11.5941 47.2931 11.5941V14.1681H46.5371C46.1651 14.1681 45.8231 14.2101 45.5111 14.2941C45.2111 14.3781 44.9471 14.5161 44.7191 14.7081C44.4911 14.9001 44.3171 15.1581 44.1971 15.4821C44.0771 15.8061 44.0171 16.2141 44.0171 16.7061V20.8281H41.5871ZM49.3136 20.8281V11.8101H51.7436V20.8281H49.3136ZM50.5376 10.5501C50.0936 10.5501 49.7336 10.4241 49.4576 10.1721C49.1816 9.90812 49.0436 9.57812 49.0436 9.18212C49.0436 8.78612 49.1816 8.46212 49.4576 8.21012C49.7336 7.94612 50.0936 7.81412 50.5376 7.81412C50.9816 7.81412 51.3416 7.94612 51.6176 8.21012C51.9056 8.46212 52.0496 8.78612 52.0496 9.18212C52.0496 9.57812 51.9056 9.90812 51.6176 10.1721C51.3416 10.4241 50.9816 10.5501 50.5376 10.5501ZM54.5414 20.8281V11.8101H56.6654L56.8454 13.3041C57.1334 12.7881 57.5294 12.3741 58.0334 12.0621C58.5494 11.7501 59.1674 11.5941 59.8874 11.5941C60.6314 11.5941 61.2614 11.7561 61.7774 12.0801C62.2934 12.3921 62.6834 12.8541 62.9474 13.4661C63.2234 14.0661 63.3614 14.8041 63.3614 15.6801V20.8281H60.9494V15.9141C60.9494 15.1821 60.7934 14.6241 60.4814 14.2401C60.1814 13.8441 59.7134 13.6461 59.0774 13.6461C58.6694 13.6461 58.3034 13.7421 57.9794 13.9341C57.6674 14.1261 57.4214 14.4021 57.2414 14.7621C57.0614 15.1221 56.9714 15.5601 56.9714 16.0761V20.8281H54.5414ZM70.0437 20.8281C69.4077 20.8281 68.8497 20.7321 68.3697 20.5401C67.9017 20.3361 67.5357 20.0061 67.2717 19.5501C67.0077 19.0821 66.8757 18.4461 66.8757 17.6421V13.8441H65.3277V11.8101H66.8757L67.1457 9.36212H69.3057V11.8101H71.6817V13.8441H69.3057V17.6781C69.3057 18.0861 69.3957 18.3681 69.5757 18.5241C69.7557 18.6801 70.0617 18.7581 70.4937 18.7581H71.6457V20.8281H70.0437Z" fill="#1C3A29"/>
</svg>
