<svg width="101" height="52" viewBox="0 0 101 52" fill="none" xmlns="http://www.w3.org/2000/svg">
<path d="M26.5906 44.0355C16.5736 44.0355 8.42188 35.9024 8.42188 25.9067C8.42188 15.911 16.5736 7.77527 26.5906 7.77527C36.6077 7.77527 44.7593 15.9083 44.7593 25.904C44.7593 35.8998 36.6103 44.0328 26.5906 44.0328V44.0355Z" fill="white"/>
<path d="M35.7128 25.872C34.5616 26.1785 33.7355 26.9673 33.9113 27.6175C34.0526 28.1451 34.7188 28.4462 35.5902 28.3743C35.7474 28.3663 36.0112 28.8726 36.1898 29.5361C36.3736 30.2183 36.4642 30.65 36.2377 30.8472C35.7074 31.3136 34.2791 30.9219 33.6955 30.8046C33.3278 30.7327 33.405 31.1324 33.866 31.5321C34.4523 32.0384 35.6595 32.5474 37.3623 32.089C40.4108 31.2709 40.5414 28.5821 39.9019 29.1418C39.4542 29.5335 38.4149 30.5888 37.7194 30.4502C37.4262 30.3916 37.2903 29.9732 37.1065 29.2883C36.9279 28.6274 36.9013 28.0545 37.0452 27.9826C37.8366 27.6095 38.263 27.0179 38.1191 26.4903C37.9939 26.0213 37.3943 25.7468 36.6375 25.7468C36.347 25.7468 36.0325 25.7868 35.7128 25.872ZM30.6203 23.6096C29.9301 23.7935 29.629 24.5849 29.8422 25.3897C30.0607 26.1998 30.7136 26.7328 31.4064 26.5462C32.0993 26.3597 32.435 25.5656 32.2192 24.7528C32.0327 24.0573 31.4917 23.5723 30.9028 23.5723C30.8095 23.5723 30.7162 23.5829 30.6203 23.6096ZM38.8652 21.3978C38.1751 21.5843 37.8739 22.3731 38.0898 23.1779C38.3056 23.9907 38.9612 24.521 39.654 24.3344C40.3469 24.1479 40.6827 23.3538 40.4668 22.541C40.2803 21.8455 39.7393 21.3605 39.1477 21.3605C39.0544 21.3605 38.9612 21.3738 38.8679 21.3978M26.7003 8.8385C26.6497 8.8385 26.5991 8.8385 26.5511 8.8385C17.1283 8.95309 9.48828 16.4785 9.48828 25.9013C9.48828 35.3241 17.1283 42.9668 26.5538 42.9668C31.489 42.9668 36.2084 40.8217 39.3236 37.4746C39.5528 37.2242 39.3502 36.7925 38.9265 36.9257C32.9227 38.8364 26.2074 35.54 24.4486 29.0805C24.2567 28.3796 24.1501 27.6015 24.0835 27.0099C24.0648 26.834 23.849 26.7301 23.6998 26.7674C19.6706 27.788 18.1783 24.8967 18.4634 22.008C18.8151 18.4052 21.9277 14.8024 26.3113 18.7756C26.5858 19.0261 26.8043 18.7223 26.8549 18.6717C29.08 16.4226 30.4684 15.7217 32.7708 15.1062C34.7801 14.5679 37.357 14.7544 38.9425 15.2048C39.2383 15.2874 39.5927 14.9569 39.2943 14.6185C35.8353 10.7172 30.6416 8.8385 26.7003 8.8385Z" fill="url(#paint0_linear_7417_60661)"/>
<path d="M67.5941 32.5527H66.3789V40.1261H67.5941V32.5527Z" fill="#4D4D4F"/>
<path d="M51.8308 32.9525V35.9105H48.5238V32.9525H47.3086V40.1262H48.5238V37.123H51.8308V40.1262H53.0433V32.9525H51.8308Z" fill="#4D4D4F"/>
<path d="M75.6264 34.4714C75.1894 34.4714 74.3686 34.6393 74.0488 35.2682L73.9769 35.4094V32.5527H72.7617V40.1261H73.9769V37.0883C73.9769 36.3155 74.6058 35.6866 75.3786 35.6866C76.1514 35.6866 76.7803 36.3155 76.7803 37.0883V40.1261H77.9954V37.0883C77.9954 35.572 76.9988 34.4714 75.6264 34.4714Z" fill="#4D4D4F"/>
<path d="M56.9275 34.3728C55.3713 34.3728 54.1055 35.6812 54.1055 37.2881C54.1055 38.895 55.3713 40.2034 56.9275 40.2034C58.0761 40.2034 59.094 39.4999 59.5337 38.4047H58.14C57.8336 38.7777 57.3912 38.9909 56.9275 38.9909C56.4638 38.9909 56.0108 38.7724 55.7017 38.3913C55.5498 38.2021 55.4405 37.9836 55.3766 37.7465L55.3633 37.6985H59.7202C59.7389 37.5653 59.7469 37.4267 59.7469 37.2908C59.7469 35.6839 58.4811 34.3755 56.9248 34.3755L56.9275 34.3728ZM55.3899 36.7845L55.4059 36.7338C55.6297 36.049 56.24 35.588 56.9248 35.588C57.6097 35.588 58.2199 36.049 58.4438 36.7338L58.4598 36.7845H55.3872H55.3899Z" fill="#4D4D4F"/>
<path d="M70.5142 33.051H69.2857V33.4401C69.2857 33.9277 68.8886 34.3221 68.4037 34.3221H68.2891V35.5373H69.2884V38.378C69.2884 39.3426 70.0718 40.1261 71.0365 40.1261H71.8359V38.8976H71.0365C70.7514 38.8976 70.5169 38.6658 70.5169 38.378V35.5373H71.8359V34.3221H70.5169V33.0483L70.5142 33.051Z" fill="#4D4D4F"/>
<path d="M62.81 34.3782C61.2723 34.3782 60.6781 35.2202 60.4543 35.7452L61.5415 36.2702C61.6294 35.9984 61.9092 35.5906 62.8073 35.5906C63.7053 35.5906 63.9825 36.0463 64.0731 36.4301L64.0837 36.47L62.3223 36.7525C61.0325 36.963 60.3477 37.5919 60.3477 38.5699C60.3477 39.5479 61.0965 40.1955 62.3036 40.1955C63.0151 40.1955 63.6014 39.9663 64.0491 39.5159L64.113 39.4493V40.1208H65.3282V36.8031C65.3282 36.2009 65.1417 35.6386 64.8006 35.2202C64.4888 34.8338 63.8892 34.3755 62.8073 34.3755L62.81 34.3782ZM64.0837 37.7412C64.0837 38.6632 63.6574 39.0736 62.5675 39.2068C62.5248 39.2121 62.4795 39.2148 62.4369 39.2148C62.197 39.2148 61.9679 39.1349 61.8026 38.9883C61.6614 38.863 61.5841 38.7005 61.5841 38.5299C61.5841 38.0956 61.9466 37.7971 62.5781 37.7118L64.0837 37.4587V37.7385V37.7412Z" fill="#4D4D4F"/>
<path d="M51.0287 16.6198C51.9187 16.308 52.5156 15.4659 52.5156 14.5252C52.5156 13.3021 51.519 12.3054 50.2959 12.3054H47.3086V19.4738H48.5238V16.745H49.6376L51.2605 19.4738H52.6729L50.986 16.6358L51.0287 16.6198ZM50.3332 15.5272C50.3332 15.5272 50.3092 15.5272 50.2959 15.5272H48.5211V13.5152H50.2959C50.8501 13.5152 51.3005 13.9656 51.3005 14.5199C51.3005 15.0742 50.8821 15.4952 50.3492 15.5219H50.3332V15.5272Z" fill="#4D4D4F"/>
<path d="M65.4258 13.8349L67.7095 19.3831L67.5869 19.6816C67.3658 20.2119 66.8141 20.521 66.2465 20.4304L65.8975 20.3744V21.6029L66.0573 21.6295C66.1853 21.6509 66.3158 21.6588 66.4437 21.6588C67.4351 21.6588 68.3251 21.0646 68.7088 20.1452L71.299 13.8323H69.988L68.3677 17.7842L66.7395 13.8323H65.4258V13.8349Z" fill="#4D4D4F"/>
<path d="M55.6642 13.7364C54.1266 13.7364 53.5323 14.5785 53.3085 15.1035L54.3957 15.6285C54.4837 15.3566 54.7635 14.9489 55.6615 14.9489C56.5596 14.9489 56.8367 15.4046 56.9273 15.7883L56.9353 15.8283L55.1739 16.1108C53.8841 16.3213 53.1992 16.9502 53.1992 17.9282C53.1992 18.9062 53.948 19.5537 55.1552 19.5537C55.8667 19.5537 56.453 19.3246 56.9007 18.8742L56.9646 18.8076V19.4791H58.1798V16.1614C58.1798 15.5592 57.9932 14.9969 57.6521 14.5785C57.3403 14.1921 56.7408 13.7338 55.6588 13.7338L55.6642 13.7364ZM56.938 17.0994C56.938 18.0215 56.5116 18.4318 55.4217 18.5651C55.379 18.5704 55.3337 18.5731 55.2911 18.5731C55.0513 18.5731 54.8221 18.4931 54.6569 18.3466C54.5156 18.2213 54.4384 18.0588 54.4384 17.8882C54.4384 17.4539 54.8008 17.1554 55.4323 17.0701L56.938 16.817V17.0968V17.0994Z" fill="#4D4D4F"/>
<path d="M59.082 16.6464C59.082 18.2533 60.3478 19.5617 61.9041 19.5617C62.4237 19.5617 63.1352 19.2766 63.4657 18.6477L63.5376 18.5117V19.4764H64.7474V11.9083H63.5376V14.2747L63.479 14.232C63.0126 13.9069 62.469 13.7364 61.9067 13.7364C60.3505 13.7364 59.0847 15.0448 59.0847 16.6517L59.082 16.6464ZM63.511 16.6464C63.511 17.5844 62.7888 18.3465 61.9014 18.3465C61.014 18.3465 60.2945 17.5844 60.2945 16.6464C60.2945 15.7084 61.0167 14.9462 61.9014 14.9462C62.7861 14.9462 63.511 15.7084 63.511 16.6464Z" fill="#4D4D4F"/>
<path d="M61.3213 22.501C60.8869 22.501 60.5352 22.8527 60.5352 23.2871C60.5352 23.7215 60.8869 24.0732 61.3213 24.0732C61.7556 24.0732 62.1074 23.7215 62.1074 23.2871C62.1074 22.8527 61.7556 22.501 61.3213 22.501Z" fill="#4D4D4F"/>
<path d="M64.2269 22.89H63.0117V30.4714H64.2269V22.89Z" fill="#4D4D4F"/>
<path d="M47.9886 26.8819C47.9886 25.5361 49.0252 24.4436 50.2963 24.4436C51.0425 24.4436 51.746 24.8273 52.1804 25.4749H53.5474C52.9958 24.1078 51.7273 23.2311 50.2963 23.2311C48.3537 23.2311 46.7734 24.8699 46.7734 26.8845C46.7734 28.8991 48.3537 30.538 50.2963 30.538C51.7327 30.538 53.0065 29.6506 53.5527 28.2729H52.191C51.7593 28.9311 51.0505 29.3229 50.2937 29.3229C49.0199 29.3229 47.9859 28.2276 47.9859 26.8845L47.9886 26.8819Z" fill="#4D4D4F"/>
<path d="M55.7168 25.6028L55.6448 25.744V22.8873H54.4297V30.4607H55.6448V27.4229C55.6448 26.6501 56.2737 26.0212 57.0465 26.0212C57.8193 26.0212 58.4482 26.6501 58.4482 27.4229V30.4607H59.6634V27.4229C59.6634 25.9066 58.6667 24.806 57.2944 24.806C56.8573 24.806 56.0366 24.9739 55.7168 25.6028Z" fill="#4D4D4F"/>
<path d="M83.0801 25.5042L83.0081 25.6454V24.8247H81.793V30.4634H83.0081V27.3242C83.0081 26.5515 83.637 25.9226 84.4098 25.9226C85.1826 25.9226 85.8115 26.5515 85.8115 27.3242V30.4634H87.0267V27.3242C87.0267 25.808 86.03 24.7074 84.6576 24.7074C84.2206 24.7074 83.3999 24.8753 83.0801 25.5042Z" fill="#4D4D4F"/>
<path d="M61.9339 24.822H60.7188V30.4554H61.9339V24.822Z" fill="#4D4D4F"/>
<path d="M73.2766 25.4881L73.2073 25.5814V24.8379H71.9922V30.4607H73.2073V27.6066C73.2073 26.7486 73.9055 26.053 74.7609 26.053H75.0114V24.8379H74.7609C74.2759 24.8379 73.6311 25.0084 73.2766 25.4881Z" fill="#4D4D4F"/>
<path d="M78.1463 24.7074C76.59 24.7074 75.3242 26.0158 75.3242 27.6227C75.3242 29.2296 76.59 30.538 78.1463 30.538C79.2948 30.538 80.3128 29.8345 80.7525 28.7393H79.3588C79.0523 29.1123 78.6099 29.3255 78.1463 29.3255C77.6826 29.3255 77.2296 29.107 76.9204 28.7259C76.7685 28.5367 76.6593 28.3182 76.5953 28.0811L76.582 28.0331H80.939C80.9576 27.8998 80.9656 27.7613 80.9656 27.6254C80.9656 26.0185 79.6998 24.7101 78.1436 24.7101L78.1463 24.7074ZM76.6087 27.1191L76.6247 27.0684C76.8485 26.3836 77.4587 25.9226 78.1436 25.9226C78.8285 25.9226 79.4387 26.3836 79.6625 27.0684L79.6785 27.1191H76.606H76.6087Z" fill="#4D4D4F"/>
<path d="M91.9161 27.4575C91.6496 27.3483 91.3085 27.2417 90.8981 27.1378C90.4904 27.0338 90.184 26.9299 89.9894 26.8286C89.7842 26.722 89.6803 26.5622 89.6803 26.3543C89.6803 26.1704 89.7576 26.0239 89.9095 25.9199C90.0561 25.8187 90.2666 25.768 90.5357 25.768C90.8262 25.768 91.0607 25.84 91.2366 25.9786C91.4151 26.1198 91.5057 26.4023 91.5324 26.6154H92.8435C92.7928 26.0212 92.5557 25.5069 92.1879 25.2004C91.7909 24.8673 91.2499 24.6968 90.5784 24.6968C90.1253 24.6968 89.7256 24.7714 89.3898 24.9206C89.0567 25.0699 88.7983 25.2724 88.6197 25.5282C88.4438 25.7814 88.3532 26.0665 88.3532 26.3756C88.3532 26.7514 88.4492 27.0525 88.6384 27.271C88.8302 27.4922 89.0621 27.6601 89.3259 27.7666C89.595 27.8759 89.9468 27.9825 90.3705 28.0864C90.7862 28.1983 91.0927 28.2996 91.2819 28.3929C91.4844 28.4915 91.5883 28.646 91.5883 28.8459C91.5883 29.0298 91.5057 29.1843 91.3405 29.3016C91.1806 29.4162 90.9541 29.4748 90.6716 29.4748C90.3892 29.4748 90.136 29.4002 89.9415 29.251C89.7416 29.0991 89.6377 28.8219 89.6057 28.6167H88.2227C88.252 28.9845 88.3826 29.3629 88.5691 29.6107C88.7823 29.8932 89.0727 30.1197 89.4378 30.2876C89.8029 30.4528 90.2213 30.5381 90.6823 30.5381C91.1433 30.5381 91.527 30.4634 91.8601 30.3195C92.1932 30.1756 92.4517 29.9731 92.6303 29.7173C92.8088 29.4641 92.8968 29.171 92.8968 28.8512C92.8888 28.4835 92.7902 28.185 92.601 27.9612C92.4091 27.7373 92.1799 27.5668 91.9188 27.4602L91.9161 27.4575Z" fill="#4D4D4F"/>
<path d="M65.0586 27.6307C65.0586 29.2376 66.3244 30.5461 67.8806 30.5461C68.4003 30.5461 69.1118 30.2609 69.4422 29.632L69.5142 29.4961V30.4608H70.724V22.8927H69.5142V25.2591L69.4555 25.2164C68.9892 24.8913 68.4456 24.7208 67.8833 24.7208C66.327 24.7208 65.0613 26.0292 65.0613 27.6361L65.0586 27.6307ZM69.4902 27.6307C69.4902 28.5688 68.768 29.3309 67.8806 29.3309C66.9933 29.3309 66.2738 28.5688 66.2738 27.6307C66.2738 26.6927 66.9959 25.9306 67.8806 25.9306C68.7654 25.9306 69.4902 26.6927 69.4902 27.6307Z" fill="#4D4D4F"/>
<path d="M89.4747 20.0734L85.8213 18.7436C85.7333 18.7117 85.664 18.8209 85.728 18.8875C86.8632 20.0414 87.7479 21.4484 88.2862 22.9754C88.3342 23.1139 88.5287 23.1166 88.5793 22.9754L89.5653 20.2679C89.5946 20.188 89.552 20.0974 89.4721 20.0681L89.4747 20.0734ZM83.7347 22.9807L87.6466 24.4037C87.7479 24.441 87.8518 24.3558 87.8332 24.2465C87.5241 22.2692 86.6207 20.4065 85.283 18.9169C85.211 18.8369 85.0804 18.8609 85.0431 18.9622L83.6468 22.7995C83.6201 22.8714 83.6574 22.9541 83.732 22.9807H83.7347ZM85.1284 33.8372C84.4489 34.4901 83.6867 35.0603 82.858 35.5293C82.778 35.5746 82.81 35.6972 82.9033 35.6972C83.3909 35.6946 84.1637 35.7612 84.9605 36.1156C85.0245 36.1449 85.0938 36.0916 85.0858 36.0223C84.9765 35.1536 85.1337 34.3941 85.2776 33.9278C85.3043 33.8398 85.1977 33.7732 85.1311 33.8372H85.1284ZM87.4468 31.0365C87.4468 30.9432 87.3215 30.9139 87.2789 30.9965C86.8312 31.8359 86.2769 32.6167 85.6374 33.3149C85.5761 33.3842 85.6427 33.4881 85.7306 33.4588C86.1917 33.3042 86.9511 33.1257 87.8252 33.2136C87.8945 33.2216 87.9451 33.1497 87.9158 33.0884C87.5401 32.2969 87.4548 31.5241 87.4468 31.0365Z" fill="url(#paint1_linear_7417_60661)"/>
<defs>
<linearGradient id="paint0_linear_7417_60661" x1="25.0082" y1="42.9695" x2="25.0082" y2="8.8385" gradientUnits="userSpaceOnUse">
<stop stop-color="#265698"/>
<stop offset="1" stop-color="#00A2B1"/>
</linearGradient>
<linearGradient id="paint1_linear_7417_60661" x1="86.1943" y1="36.1263" x2="86.1943" y2="18.7383" gradientUnits="userSpaceOnUse">
<stop stop-color="#265698"/>
<stop offset="1" stop-color="#00A2B1"/>
</linearGradient>
</defs>
</svg>
