<svg width="72" height="30" viewBox="0 0 72 30" fill="none" xmlns="http://www.w3.org/2000/svg">
<path d="M22.7557 15.0166C21.7771 15.2771 21.075 15.9475 21.2244 16.5002C21.3445 16.9487 21.9108 17.2047 22.6515 17.1435C22.7851 17.1367 23.0093 17.5671 23.1611 18.1311C23.3174 18.711 23.3944 19.0779 23.2019 19.2455C22.7511 19.6419 21.537 19.3089 21.041 19.2093C20.7284 19.1481 20.7941 19.4879 21.1859 19.8276C21.6843 20.258 22.7104 20.6906 24.1577 20.301C26.749 19.6057 26.86 17.3202 26.3164 17.7959C25.9359 18.1288 25.0525 19.0258 24.4613 18.908C24.2121 18.8582 24.0966 18.5026 23.9403 17.9204C23.7885 17.3587 23.7659 16.8717 23.8882 16.8105C24.5609 16.4934 24.9234 15.9906 24.801 15.5421C24.6946 15.1434 24.1849 14.9101 23.5416 14.9101C23.2947 14.9101 23.0275 14.9441 22.7557 15.0166ZM18.4271 13.0935C17.8404 13.2498 17.5844 13.9225 17.7656 14.6066C17.9514 15.2952 18.5063 15.7482 19.0953 15.5896C19.6842 15.4311 19.9696 14.7561 19.7861 14.0652C19.6276 13.474 19.1677 13.0618 18.6672 13.0618C18.5879 13.0618 18.5086 13.0709 18.4271 13.0935ZM25.4353 11.2135C24.8486 11.372 24.5926 12.0425 24.7761 12.7266C24.9596 13.4174 25.5168 13.8682 26.1057 13.7096C26.6947 13.5511 26.9801 12.8761 26.7966 12.1852C26.638 11.594 26.1782 11.1818 25.6754 11.1818C25.5961 11.1818 25.5168 11.1931 25.4375 11.2135M15.0951 0.538086C15.0521 0.538086 15.009 0.538086 14.9683 0.538086C6.95887 0.635485 0.464844 7.03212 0.464844 15.0415C0.464844 23.0509 6.95888 29.5472 14.9705 29.5472C19.1655 29.5472 23.177 27.7238 25.8249 24.8788C26.0197 24.6659 25.8475 24.2989 25.4874 24.4122C20.3841 26.0363 14.6761 23.2343 13.1811 17.7438C13.018 17.148 12.9274 16.4866 12.8708 15.9838C12.8549 15.8343 12.6714 15.7459 12.5446 15.7777C9.11978 16.6452 7.85132 14.1876 8.09369 11.7322C8.39268 8.66978 11.0383 5.60737 14.7644 8.98463C14.9977 9.19755 15.1834 8.93933 15.2265 8.89629C17.1178 6.98455 18.2979 6.38883 20.255 5.86559C21.9629 5.40804 24.1532 5.5666 25.501 5.9494C25.7524 6.01962 26.0536 5.73875 25.7999 5.45108C22.8598 2.13498 18.4452 0.538086 15.0951 0.538086Z" fill="url(#paint0_linear_10674_54162)"/>
<path d="M49.8532 20.6953H48.8203V27.1327H49.8532V20.6953Z" fill="#4D4D4F"/>
<path d="M36.4571 21.0352V23.5494H33.6462V21.0352H32.6133V27.1328H33.6462V24.58H36.4571V27.1328H37.4878V21.0352H36.4571Z" fill="#4D4D4F"/>
<path d="M56.6811 22.3262C56.3096 22.3262 55.612 22.4689 55.3401 23.0034L55.279 23.1235V20.6953H54.2461V27.1327H55.279V24.5505C55.279 23.8936 55.8135 23.3591 56.4704 23.3591C57.1273 23.3591 57.6619 23.8936 57.6619 24.5505V27.1327H58.6947V24.5505C58.6947 23.2617 57.8476 22.3262 56.6811 22.3262Z" fill="#4D4D4F"/>
<path d="M40.7894 22.2422C39.4665 22.2422 38.3906 23.3544 38.3906 24.7202C38.3906 26.0861 39.4665 27.1982 40.7894 27.1982C41.7656 27.1982 42.6309 26.6002 43.0046 25.6693H41.82C41.5595 25.9864 41.1835 26.1676 40.7894 26.1676C40.3952 26.1676 40.0102 25.9819 39.7474 25.658C39.6183 25.4971 39.5254 25.3114 39.4711 25.1098L39.4598 25.069H43.1632C43.179 24.9558 43.1858 24.838 43.1858 24.7225C43.1858 23.3566 42.1099 22.2445 40.7871 22.2445L40.7894 22.2422ZM39.4824 24.2921L39.496 24.2491C39.6863 23.6669 40.205 23.2751 40.7871 23.2751C41.3692 23.2751 41.8879 23.6669 42.0782 24.2491L42.0918 24.2921H39.4801H39.4824Z" fill="#4D4D4F"/>
<path d="M52.3367 21.119H51.2925V21.4497C51.2925 21.8642 50.955 22.1994 50.5427 22.1994H50.4453V23.2323H51.2947V25.6469C51.2947 26.4669 51.9607 27.1328 52.7806 27.1328H53.4602V26.0886H52.7806C52.5383 26.0886 52.3389 25.8915 52.3389 25.6469V23.2323H53.4602V22.1994H52.3389V21.1167L52.3367 21.119Z" fill="#4D4D4F"/>
<path d="M45.7883 22.2469C44.4813 22.2469 43.9762 22.9627 43.7859 23.4089L44.7101 23.8551C44.7848 23.6241 45.0227 23.2775 45.786 23.2775C46.5493 23.2775 46.7849 23.6648 46.8619 23.991L46.871 24.025L45.3737 24.2651C44.2774 24.444 43.6953 24.9786 43.6953 25.8099C43.6953 26.6412 44.3318 27.1916 45.3579 27.1916C45.9627 27.1916 46.461 26.9968 46.8415 26.614L46.8959 26.5574V27.1282H47.9288V24.3081C47.9288 23.7962 47.7702 23.3183 47.4803 22.9627C47.2153 22.6342 46.7056 22.2446 45.786 22.2446L45.7883 22.2469ZM46.871 25.1054C46.871 25.8892 46.5086 26.238 45.5821 26.3512C45.5459 26.3558 45.5074 26.358 45.4712 26.358C45.2673 26.358 45.0725 26.2901 44.9321 26.1655C44.812 26.0591 44.7463 25.9209 44.7463 25.7759C44.7463 25.4067 45.0544 25.153 45.5912 25.0805L46.871 24.8653V25.1032V25.1054Z" fill="#4D4D4F"/>
<path d="M35.7754 7.15205C36.5319 6.88704 37.0393 6.17127 37.0393 5.37169C37.0393 4.33201 36.1921 3.48486 35.1525 3.48486H32.6133V9.57797H33.6462V7.25851H34.593L35.9724 9.57797H37.1729L35.7391 7.16564L35.7754 7.15205ZM35.1842 6.22336C35.1842 6.22336 35.1638 6.22336 35.1525 6.22336H33.6439V4.51322H35.1525C35.6236 4.51322 36.0064 4.89602 36.0064 5.36716C36.0064 5.8383 35.6508 6.19618 35.1978 6.21883H35.1842V6.22336Z" fill="#4D4D4F"/>
<path d="M48.0117 4.78498L49.9529 9.50091L49.8487 9.7546C49.6607 10.2054 49.1918 10.4681 48.7094 10.3911L48.4126 10.3435V11.3877L48.5485 11.4104C48.6573 11.4285 48.7683 11.4353 48.877 11.4353C49.7196 11.4353 50.4761 10.9302 50.8023 10.1487L53.004 4.78271H51.8896L50.5124 8.14185L49.1284 4.78271H48.0117V4.78498Z" fill="#4D4D4F"/>
<path d="M39.7163 4.701C38.4093 4.701 37.9042 5.41677 37.714 5.86299L38.6381 6.30921C38.7129 6.07817 38.9507 5.73161 39.714 5.73161C40.4774 5.73161 40.713 6.11895 40.79 6.44512L40.7968 6.4791L39.2995 6.7192C38.2032 6.89814 37.6211 7.4327 37.6211 8.26399C37.6211 9.09528 38.2576 9.6457 39.2837 9.6457C39.8885 9.6457 40.3868 9.4509 40.7673 9.0681L40.8217 9.01147V9.58228H41.8546V6.76223C41.8546 6.25032 41.696 5.77239 41.4061 5.41677C41.1411 5.08833 40.6314 4.69873 39.7118 4.69873L39.7163 4.701ZM40.799 7.55955C40.799 8.34327 40.4366 8.69209 39.5102 8.80535C39.4739 8.80988 39.4354 8.81214 39.3992 8.81214C39.1953 8.81214 39.0005 8.74419 38.8601 8.61961C38.7401 8.51315 38.6744 8.37498 38.6744 8.23001C38.6744 7.8608 38.9824 7.60711 39.5192 7.53463L40.799 7.31945V7.55728V7.55955Z" fill="#4D4D4F"/>
<path d="M42.6211 7.1748C42.6211 8.54066 43.697 9.65282 45.0198 9.65282C45.4615 9.65282 46.0663 9.41045 46.3472 8.87589L46.4083 8.76037V9.58034H47.4367V3.14746H46.4083V5.15887L46.3585 5.12263C45.9621 4.84628 45.5 4.70132 45.0221 4.70132C43.6993 4.70132 42.6234 5.81348 42.6234 7.17933L42.6211 7.1748ZM46.3857 7.1748C46.3857 7.97212 45.7718 8.61993 45.0176 8.61993C44.2633 8.61993 43.6517 7.97212 43.6517 7.1748C43.6517 6.37749 44.2656 5.72967 45.0176 5.72967C45.7696 5.72967 46.3857 6.37749 46.3857 7.1748Z" fill="#4D4D4F"/>
<path d="M44.5237 12.1514C44.1545 12.1514 43.8555 12.4504 43.8555 12.8196C43.8555 13.1888 44.1545 13.4878 44.5237 13.4878C44.8929 13.4878 45.1919 13.1888 45.1919 12.8196C45.1919 12.4504 44.8929 12.1514 44.5237 12.1514Z" fill="#4D4D4F"/>
<path d="M46.9938 12.4814H45.9609V18.9256H46.9938V12.4814Z" fill="#4D4D4F"/>
<path d="M33.1891 15.8752C33.1891 14.7313 34.0703 13.8026 35.1507 13.8026C35.7849 13.8026 36.3829 14.1288 36.7521 14.6792H37.9141C37.4452 13.5172 36.3671 12.772 35.1507 12.772C33.4995 12.772 32.1562 14.165 32.1562 15.8774C32.1562 17.5898 33.4995 18.9829 35.1507 18.9829C36.3716 18.9829 37.4543 18.2286 37.9187 17.0575H36.7612C36.3942 17.617 35.7917 17.95 35.1484 17.95C34.0657 17.95 33.1869 17.019 33.1869 15.8774L33.1891 15.8752Z" fill="#4D4D4F"/>
<path d="M39.7581 14.7876L39.6969 14.9077V12.4795H38.6641V18.9169H39.6969V16.3347C39.6969 15.6778 40.2315 15.1432 40.8884 15.1432C41.5453 15.1432 42.0798 15.6778 42.0798 16.3347V18.9169H43.1127V16.3347C43.1127 15.0458 42.2656 14.1104 41.099 14.1104C40.7276 14.1104 40.0299 14.2531 39.7581 14.7876Z" fill="#4D4D4F"/>
<path d="M63.0198 14.7036L62.9587 14.8237V14.126H61.9258V18.919H62.9587V16.2507C62.9587 15.5938 63.4932 15.0593 64.1501 15.0593C64.807 15.0593 65.3416 15.5938 65.3416 16.2507V18.919H66.3744V16.2507C66.3744 14.9619 65.5273 14.0264 64.3608 14.0264C63.9893 14.0264 63.2916 14.1691 63.0198 14.7036Z" fill="#4D4D4F"/>
<path d="M45.0446 14.124H44.0117V18.9124H45.0446V14.124Z" fill="#4D4D4F"/>
<path d="M54.6855 14.6904L54.6266 14.7697V14.1377H53.5938V18.917H54.6266V16.4911C54.6266 15.7618 55.2201 15.1706 55.9472 15.1706H56.1601V14.1377H55.9472C55.5349 14.1377 54.9868 14.2827 54.6855 14.6904Z" fill="#4D4D4F"/>
<path d="M58.8245 14.0264C57.5017 14.0264 56.4258 15.1385 56.4258 16.5044C56.4258 17.8702 57.5017 18.9824 58.8245 18.9824C59.8008 18.9824 60.666 18.3844 61.0398 17.4535H59.8551C59.5947 17.7706 59.2186 17.9518 58.8245 17.9518C58.4304 17.9518 58.0453 17.766 57.7826 17.4421C57.6535 17.2813 57.5606 17.0956 57.5062 16.894L57.4949 16.8532H61.1983C61.2142 16.74 61.221 16.6222 61.221 16.5066C61.221 15.1408 60.1451 14.0286 58.8223 14.0286L58.8245 14.0264ZM57.5176 16.0763L57.5311 16.0332C57.7214 15.4511 58.2401 15.0593 58.8223 15.0593C59.4044 15.0593 59.9231 15.4511 60.1134 16.0332L60.1269 16.0763H57.5153H57.5176Z" fill="#4D4D4F"/>
<path d="M70.5301 16.3642C70.3035 16.2713 70.0136 16.1807 69.6648 16.0924C69.3182 16.0041 69.0577 15.9157 68.8924 15.8297C68.718 15.7391 68.6296 15.6031 68.6296 15.4265C68.6296 15.2702 68.6953 15.1456 68.8244 15.0573C68.949 14.9712 69.128 14.9281 69.3567 14.9281C69.6036 14.9281 69.803 14.9893 69.9524 15.1071C70.1042 15.2271 70.1812 15.4672 70.2039 15.6484H71.3183C71.2753 15.1433 71.0737 14.7062 70.7611 14.4457C70.4236 14.1625 69.9638 14.0176 69.393 14.0176C69.0079 14.0176 68.6681 14.081 68.3827 14.2078C68.0996 14.3347 67.8799 14.5068 67.7281 14.7243C67.5786 14.9395 67.5016 15.1818 67.5016 15.4446C67.5016 15.764 67.5832 16.0199 67.744 16.2057C67.9071 16.3937 68.1041 16.5364 68.3284 16.627C68.5572 16.7198 68.8561 16.8104 69.2163 16.8988C69.5696 16.9939 69.8301 17.08 69.991 17.1593C70.1631 17.2431 70.2514 17.3745 70.2514 17.5443C70.2514 17.7006 70.1812 17.832 70.0408 17.9317C69.9049 18.0291 69.7123 18.0789 69.4722 18.0789C69.2321 18.0789 69.017 18.0155 68.8516 17.8886C68.6817 17.7595 68.5934 17.5239 68.5662 17.3495H67.3906C67.4155 17.6621 67.5265 17.9838 67.6851 18.1944C67.8663 18.4345 68.1132 18.627 68.4235 18.7698C68.7338 18.9102 69.0894 18.9827 69.4813 18.9827C69.8732 18.9827 70.1993 18.9192 70.4825 18.7969C70.7656 18.6746 70.9853 18.5025 71.1371 18.285C71.2889 18.0698 71.3636 17.8207 71.3636 17.5489C71.3568 17.2363 71.273 16.9826 71.1122 16.7923C70.9491 16.6021 70.7543 16.4571 70.5323 16.3665L70.5301 16.3642Z" fill="#4D4D4F"/>
<path d="M47.6992 16.5117C47.6992 17.8776 48.7751 18.9897 50.098 18.9897C50.5396 18.9897 51.1444 18.7474 51.4253 18.2128L51.4865 18.0973V18.9172H52.5148V12.4844H51.4865V14.4958L51.4366 14.4595C51.0402 14.1832 50.5782 14.0382 50.1002 14.0382C48.7774 14.0382 47.7015 15.1504 47.7015 16.5162L47.6992 16.5117ZM51.4661 16.5117C51.4661 17.309 50.8522 17.9568 50.098 17.9568C49.3437 17.9568 48.7321 17.309 48.7321 16.5117C48.7321 15.7144 49.3459 15.0666 50.098 15.0666C50.85 15.0666 51.4661 15.7144 51.4661 16.5117Z" fill="#4D4D4F"/>
<path d="M68.4519 10.0878L65.3465 8.95751C65.2718 8.93033 65.2129 9.0232 65.2672 9.07982C66.2322 10.0606 66.9842 11.2566 67.4417 12.5545C67.4825 12.6723 67.6478 12.6745 67.6909 12.5545L68.529 10.2531C68.5539 10.1852 68.5176 10.1082 68.4497 10.0833L68.4519 10.0878ZM63.5729 12.559L66.8981 13.7686C66.9842 13.8003 67.0725 13.7278 67.0566 13.6349C66.7939 11.9542 66.026 10.3709 64.8889 9.10474C64.8278 9.03679 64.7168 9.05717 64.6851 9.14325L63.4982 12.405C63.4755 12.4661 63.5072 12.5364 63.5707 12.559H63.5729ZM64.7576 21.787C64.18 22.342 63.5322 22.8267 62.8277 23.2253C62.7598 23.2639 62.7869 23.368 62.8662 23.368C63.2807 23.3658 63.9376 23.4224 64.6149 23.7237C64.6692 23.7486 64.7281 23.7033 64.7213 23.6444C64.6285 22.906 64.7621 22.2604 64.8844 21.864C64.9071 21.7893 64.8165 21.7327 64.7598 21.787H64.7576ZM66.7282 19.4064C66.7282 19.3271 66.6217 19.3022 66.5855 19.3724C66.205 20.0859 65.7338 20.7496 65.1902 21.3431C65.1381 21.4019 65.1947 21.4903 65.2695 21.4654C65.6613 21.334 66.3069 21.1822 67.0499 21.257C67.1087 21.2638 67.1518 21.2026 67.1269 21.1505C66.8075 20.4778 66.735 19.8209 66.7282 19.4064Z" fill="url(#paint1_linear_10674_54162)"/>
<defs>
<linearGradient id="paint0_linear_10674_54162" x1="13.6568" y1="29.5494" x2="13.6568" y2="0.538086" gradientUnits="userSpaceOnUse">
<stop stop-color="#265698"/>
<stop offset="1" stop-color="#00A2B1"/>
</linearGradient>
<linearGradient id="paint1_linear_10674_54162" x1="65.6636" y1="23.7327" x2="65.6636" y2="8.95298" gradientUnits="userSpaceOnUse">
<stop stop-color="#265698"/>
<stop offset="1" stop-color="#00A2B1"/>
</linearGradient>
</defs>
</svg>
