<svg width="339" height="13" viewBox="0 0 339 13" fill="none" xmlns="http://www.w3.org/2000/svg">
<path d="M0.947719 9.36182V0.961816H1.78772V9.36182H0.947719ZM3.57075 9.36182V3.31382H4.33875L4.38675 4.39382C4.57875 4.00982 4.85475 3.70982 5.21475 3.49382C5.58275 3.27782 5.99075 3.16982 6.43875 3.16982C6.90275 3.16982 7.30675 3.26182 7.65075 3.44582C7.99475 3.62982 8.26275 3.90982 8.45475 4.28582C8.64675 4.65382 8.74275 5.12582 8.74275 5.70182V9.36182H7.90275V5.79782C7.90275 5.15782 7.76275 4.68182 7.48275 4.36982C7.20275 4.05782 6.80275 3.90182 6.28275 3.90182C5.93075 3.90182 5.61075 3.98982 5.32275 4.16582C5.04275 4.33382 4.81875 4.58182 4.65075 4.90982C4.49075 5.23782 4.41075 5.64182 4.41075 6.12182V9.36182H3.57075ZM13.6372 9.36182V3.31382H14.4052L14.4652 4.47782C14.5932 4.19782 14.7652 3.96182 14.9812 3.76982C15.1972 3.57782 15.4572 3.42982 15.7612 3.32582C16.0652 3.22182 16.4092 3.16982 16.7932 3.16982V4.04582H16.4692C16.2132 4.04582 15.9652 4.08182 15.7252 4.15382C15.4852 4.21782 15.2732 4.32982 15.0892 4.48982C14.9052 4.64982 14.7572 4.86582 14.6452 5.13782C14.5332 5.40982 14.4772 5.74982 14.4772 6.15782V9.36182H13.6372ZM20.3073 9.50582C19.7473 9.50582 19.2513 9.37382 18.8193 9.10982C18.3953 8.84582 18.0593 8.47782 17.8113 8.00582C17.5713 7.52582 17.4513 6.96582 17.4513 6.32582C17.4513 5.68582 17.5713 5.12982 17.8113 4.65782C18.0513 4.18582 18.3873 3.82182 18.8193 3.56582C19.2593 3.30182 19.7633 3.16982 20.3313 3.16982C20.9153 3.16982 21.4073 3.30182 21.8073 3.56582C22.2153 3.82982 22.5233 4.17382 22.7313 4.59782C22.9473 5.02182 23.0553 5.48582 23.0553 5.98982C23.0553 6.06982 23.0553 6.15382 23.0553 6.24182C23.0553 6.32182 23.0513 6.41782 23.0433 6.52982H18.0873V5.82182H22.2393C22.2233 5.20582 22.0313 4.72982 21.6633 4.39382C21.3033 4.05782 20.8473 3.88982 20.2953 3.88982C19.9353 3.88982 19.5993 3.97382 19.2873 4.14182C18.9833 4.30182 18.7353 4.54182 18.5433 4.86182C18.3593 5.17382 18.2673 5.56982 18.2673 6.04982V6.36182C18.2673 6.90582 18.3633 7.35782 18.5553 7.71782C18.7473 8.07782 18.9993 8.34582 19.3113 8.52182C19.6313 8.69782 19.9633 8.78582 20.3073 8.78582C20.7633 8.78582 21.1393 8.68582 21.4353 8.48582C21.7313 8.27782 21.9433 7.99382 22.0713 7.63382H22.8993C22.7953 7.98582 22.6273 8.30582 22.3953 8.59382C22.1713 8.88182 21.8833 9.10582 21.5313 9.26582C21.1793 9.42582 20.7713 9.50582 20.3073 9.50582ZM27.0941 9.50582C26.5341 9.50582 26.0341 9.37382 25.5941 9.10982C25.1541 8.84582 24.8061 8.47782 24.5501 8.00582C24.2941 7.52582 24.1661 6.97382 24.1661 6.34982C24.1661 5.70182 24.2941 5.14582 24.5501 4.68182C24.8061 4.20982 25.1541 3.84182 25.5941 3.57782C26.0421 3.30582 26.5421 3.16982 27.0941 3.16982C27.7981 3.16982 28.3821 3.35382 28.8461 3.72182C29.3181 4.08182 29.6181 4.56182 29.7461 5.16182H28.9061C28.8181 4.76182 28.6061 4.45382 28.2701 4.23782C27.9421 4.01382 27.5461 3.90182 27.0821 3.90182C26.7221 3.90182 26.3861 3.99382 26.0741 4.17782C25.7621 4.35382 25.5101 4.62182 25.3181 4.98182C25.1261 5.34182 25.0301 5.79782 25.0301 6.34982C25.0301 6.75782 25.0861 7.11382 25.1981 7.41782C25.3101 7.72182 25.4621 7.97782 25.6541 8.18582C25.8461 8.38582 26.0661 8.53782 26.3141 8.64182C26.5621 8.74582 26.8181 8.79782 27.0821 8.79782C27.3861 8.79782 27.6621 8.74982 27.9101 8.65382C28.1661 8.54982 28.3821 8.40182 28.5581 8.20982C28.7341 8.01782 28.8501 7.78582 28.9061 7.51382H29.7461C29.6261 8.09782 29.3301 8.57782 28.8581 8.95382C28.3861 9.32182 27.7981 9.50582 27.0941 9.50582ZM33.8558 9.50582C33.3038 9.50582 32.8038 9.37782 32.3558 9.12182C31.9158 8.85782 31.5678 8.48982 31.3118 8.01782C31.0558 7.53782 30.9278 6.98182 30.9278 6.34982C30.9278 5.69382 31.0558 5.12982 31.3118 4.65782C31.5758 4.18582 31.9318 3.82182 32.3798 3.56582C32.8278 3.30182 33.3278 3.16982 33.8798 3.16982C34.4558 3.16982 34.9638 3.30182 35.4038 3.56582C35.8438 3.82182 36.1918 4.18582 36.4478 4.65782C36.7038 5.12982 36.8318 5.69382 36.8318 6.34982C36.8318 6.98182 36.6998 7.53782 36.4358 8.01782C36.1798 8.48982 35.8278 8.85782 35.3798 9.12182C34.9398 9.37782 34.4318 9.50582 33.8558 9.50582ZM33.8678 8.78582C34.2438 8.78582 34.5878 8.69382 34.8998 8.50982C35.2198 8.32582 35.4758 8.05382 35.6678 7.69382C35.8678 7.32582 35.9678 6.87382 35.9678 6.33782C35.9678 5.79382 35.8718 5.34182 35.6798 4.98182C35.4878 4.62182 35.2318 4.35382 34.9118 4.17782C34.5998 3.99382 34.2558 3.90182 33.8798 3.90182C33.5198 3.90182 33.1798 3.99382 32.8598 4.17782C32.5398 4.36182 32.2798 4.63382 32.0798 4.99382C31.8878 5.34582 31.7918 5.79382 31.7918 6.33782C31.7918 6.87382 31.8878 7.32582 32.0798 7.69382C32.2718 8.05382 32.5238 8.32582 32.8358 8.50982C33.1558 8.69382 33.4998 8.78582 33.8678 8.78582ZM40.3873 12.1458C39.8513 12.1458 39.3753 12.0738 38.9593 11.9298C38.5513 11.7858 38.2273 11.5698 37.9873 11.2818C37.7553 10.9938 37.6393 10.6378 37.6393 10.2138C37.6393 10.0458 37.6673 9.86182 37.7233 9.66182C37.7873 9.46982 37.9073 9.27382 38.0833 9.07382C38.2593 8.87382 38.5073 8.69382 38.8273 8.53382L39.5113 8.83382C39.0873 9.03382 38.8113 9.24982 38.6833 9.48182C38.5553 9.72182 38.4913 9.93782 38.4913 10.1298C38.4913 10.4178 38.5713 10.6578 38.7313 10.8498C38.8993 11.0418 39.1233 11.1858 39.4033 11.2818C39.6913 11.3858 40.0193 11.4378 40.3873 11.4378C40.7553 11.4378 41.0713 11.3818 41.3353 11.2698C41.6073 11.1658 41.8153 11.0138 41.9593 10.8138C42.1033 10.6218 42.1753 10.3978 42.1753 10.1418C42.1753 9.84582 42.0593 9.59382 41.8273 9.38582C41.6033 9.18582 41.1833 9.06982 40.5673 9.03782C40.0793 9.00582 39.6753 8.96582 39.3553 8.91782C39.0433 8.86182 38.7833 8.79782 38.5753 8.72582C38.3753 8.64582 38.2073 8.56182 38.0713 8.47382C37.9433 8.38582 37.8193 8.28982 37.6993 8.18582V7.90982L38.8513 6.81782L39.6193 7.09382L38.4913 8.10182L38.5633 7.77782C38.6513 7.84182 38.7353 7.90182 38.8153 7.95782C38.9033 8.01382 39.0153 8.06182 39.1513 8.10182C39.2953 8.13382 39.4913 8.16982 39.7393 8.20982C39.9953 8.24182 40.3393 8.27382 40.7713 8.30582C41.3233 8.34582 41.7633 8.44182 42.0913 8.59382C42.4193 8.74582 42.6593 8.94982 42.8113 9.20582C42.9633 9.46182 43.0393 9.76182 43.0393 10.1058C43.0393 10.4498 42.9433 10.7778 42.7513 11.0898C42.5673 11.4018 42.2793 11.6538 41.8873 11.8458C41.5033 12.0458 41.0033 12.1458 40.3873 12.1458ZM40.3753 7.44182C39.8633 7.44182 39.4313 7.34582 39.0793 7.15382C38.7353 6.96182 38.4713 6.70582 38.2873 6.38582C38.1033 6.05782 38.0113 5.69782 38.0113 5.30582C38.0113 4.90582 38.1033 4.54582 38.2873 4.22582C38.4713 3.90582 38.7393 3.64982 39.0913 3.45782C39.4433 3.26582 39.8713 3.16982 40.3753 3.16982C40.8873 3.16982 41.3153 3.26582 41.6593 3.45782C42.0113 3.64982 42.2753 3.90582 42.4513 4.22582C42.6353 4.54582 42.7273 4.90582 42.7273 5.30582C42.7273 5.69782 42.6353 6.05782 42.4513 6.38582C42.2753 6.70582 42.0113 6.96182 41.6593 7.15382C41.3153 7.34582 40.8873 7.44182 40.3753 7.44182ZM40.3753 6.72182C40.8393 6.72182 41.2033 6.60182 41.4673 6.36182C41.7393 6.11382 41.8753 5.76182 41.8753 5.30582C41.8753 4.84182 41.7393 4.48982 41.4673 4.24982C41.2033 4.00982 40.8393 3.88982 40.3753 3.88982C39.9113 3.88982 39.5393 4.00982 39.2593 4.24982C38.9873 4.48982 38.8513 4.84182 38.8513 5.30582C38.8513 5.76182 38.9873 6.11382 39.2593 6.36182C39.5313 6.60182 39.9033 6.72182 40.3753 6.72182ZM41.3593 4.06982L41.0593 3.31382H43.5073V3.99782L41.3593 4.06982ZM44.6684 9.36182V3.31382H45.4364L45.4844 4.39382C45.6764 4.00982 45.9524 3.70982 46.3124 3.49382C46.6804 3.27782 47.0884 3.16982 47.5364 3.16982C48.0004 3.16982 48.4044 3.26182 48.7484 3.44582C49.0924 3.62982 49.3604 3.90982 49.5524 4.28582C49.7444 4.65382 49.8404 5.12582 49.8404 5.70182V9.36182H49.0004V5.79782C49.0004 5.15782 48.8604 4.68182 48.5804 4.36982C48.3004 4.05782 47.9004 3.90182 47.3804 3.90182C47.0284 3.90182 46.7084 3.98982 46.4204 4.16582C46.1404 4.33382 45.9164 4.58182 45.7484 4.90982C45.5884 5.23782 45.5084 5.64182 45.5084 6.12182V9.36182H44.6684ZM51.5501 9.36182V3.31382H52.3781V9.36182H51.5501ZM51.9701 1.88582C51.8021 1.88582 51.6581 1.82982 51.5381 1.71782C51.4181 1.59782 51.3581 1.44982 51.3581 1.27382C51.3581 1.08982 51.4141 0.945816 51.5261 0.841816C51.6461 0.729816 51.7901 0.673816 51.9581 0.673816C52.1261 0.673816 52.2701 0.729816 52.3901 0.841816C52.5101 0.945816 52.5701 1.08982 52.5701 1.27382C52.5701 1.44982 52.5101 1.59782 52.3901 1.71782C52.2781 1.82982 52.1381 1.88582 51.9701 1.88582ZM56.4995 9.36182C56.1555 9.36182 55.8595 9.30982 55.6115 9.20582C55.3635 9.09382 55.1715 8.91382 55.0355 8.66582C54.9075 8.40982 54.8435 8.06182 54.8435 7.62182V4.03382H53.7875V3.31382H54.8435L54.9635 1.90982H55.6835V3.32582H57.4955V4.03382H55.6835V7.62182C55.6835 8.02182 55.7635 8.29382 55.9235 8.43782C56.0835 8.57382 56.3675 8.64182 56.7755 8.64182H57.3995V9.36182H56.4995ZM58.9212 9.36182V3.31382H59.7492V9.36182H58.9212ZM59.3412 1.88582C59.1732 1.88582 59.0292 1.82982 58.9092 1.71782C58.7892 1.59782 58.7292 1.44982 58.7292 1.27382C58.7292 1.08982 58.7852 0.945816 58.8972 0.841816C59.0172 0.729816 59.1612 0.673816 59.3292 0.673816C59.4972 0.673816 59.6412 0.729816 59.7612 0.841816C59.8812 0.945816 59.9412 1.08982 59.9412 1.27382C59.9412 1.44982 59.8812 1.59782 59.7612 1.71782C59.6492 1.82982 59.5092 1.88582 59.3412 1.88582ZM64.2426 9.50582C63.6906 9.50582 63.1906 9.37782 62.7426 9.12182C62.3026 8.85782 61.9546 8.48982 61.6986 8.01782C61.4426 7.53782 61.3146 6.98182 61.3146 6.34982C61.3146 5.69382 61.4426 5.12982 61.6986 4.65782C61.9626 4.18582 62.3186 3.82182 62.7666 3.56582C63.2146 3.30182 63.7146 3.16982 64.2666 3.16982C64.8426 3.16982 65.3506 3.30182 65.7906 3.56582C66.2306 3.82182 66.5786 4.18582 66.8346 4.65782C67.0906 5.12982 67.2186 5.69382 67.2186 6.34982C67.2186 6.98182 67.0866 7.53782 66.8226 8.01782C66.5666 8.48982 66.2146 8.85782 65.7666 9.12182C65.3266 9.37782 64.8186 9.50582 64.2426 9.50582ZM64.2546 8.78582C64.6306 8.78582 64.9746 8.69382 65.2866 8.50982C65.6066 8.32582 65.8626 8.05382 66.0546 7.69382C66.2546 7.32582 66.3546 6.87382 66.3546 6.33782C66.3546 5.79382 66.2586 5.34182 66.0666 4.98182C65.8746 4.62182 65.6186 4.35382 65.2986 4.17782C64.9866 3.99382 64.6426 3.90182 64.2666 3.90182C63.9066 3.90182 63.5666 3.99382 63.2466 4.17782C62.9266 4.36182 62.6666 4.63382 62.4666 4.99382C62.2746 5.34582 62.1786 5.79382 62.1786 6.33782C62.1786 6.87382 62.2746 7.32582 62.4666 7.69382C62.6586 8.05382 62.9106 8.32582 63.2226 8.50982C63.5426 8.69382 63.8866 8.78582 64.2546 8.78582ZM68.6567 9.36182V3.31382H69.4247L69.4727 4.39382C69.6647 4.00982 69.9407 3.70982 70.3007 3.49382C70.6687 3.27782 71.0767 3.16982 71.5247 3.16982C71.9887 3.16982 72.3927 3.26182 72.7367 3.44582C73.0807 3.62982 73.3487 3.90982 73.5407 4.28582C73.7327 4.65382 73.8287 5.12582 73.8287 5.70182V9.36182H72.9887V5.79782C72.9887 5.15782 72.8487 4.68182 72.5687 4.36982C72.2887 4.05782 71.8887 3.90182 71.3687 3.90182C71.0167 3.90182 70.6967 3.98982 70.4087 4.16582C70.1287 4.33382 69.9047 4.58182 69.7367 4.90982C69.5767 5.23782 69.4967 5.64182 69.4967 6.12182V9.36182H68.6567ZM81.3871 9.50582C80.8351 9.50582 80.3351 9.37782 79.8871 9.12182C79.4471 8.85782 79.0991 8.48982 78.8431 8.01782C78.5871 7.53782 78.4591 6.98182 78.4591 6.34982C78.4591 5.69382 78.5871 5.12982 78.8431 4.65782C79.1071 4.18582 79.4631 3.82182 79.9111 3.56582C80.3591 3.30182 80.8591 3.16982 81.4111 3.16982C81.9871 3.16982 82.4951 3.30182 82.9351 3.56582C83.3751 3.82182 83.7231 4.18582 83.9791 4.65782C84.2351 5.12982 84.3631 5.69382 84.3631 6.34982C84.3631 6.98182 84.2311 7.53782 83.9671 8.01782C83.7111 8.48982 83.3591 8.85782 82.9111 9.12182C82.4711 9.37782 81.9631 9.50582 81.3871 9.50582ZM81.3991 8.78582C81.7751 8.78582 82.1191 8.69382 82.4311 8.50982C82.7511 8.32582 83.0071 8.05382 83.1991 7.69382C83.3991 7.32582 83.4991 6.87382 83.4991 6.33782C83.4991 5.79382 83.4031 5.34182 83.2111 4.98182C83.0191 4.62182 82.7631 4.35382 82.4431 4.17782C82.1311 3.99382 81.7871 3.90182 81.4111 3.90182C81.0511 3.90182 80.7111 3.99382 80.3911 4.17782C80.0711 4.36182 79.8111 4.63382 79.6111 4.99382C79.4191 5.34582 79.3231 5.79382 79.3231 6.33782C79.3231 6.87382 79.4191 7.32582 79.6111 7.69382C79.8031 8.05382 80.0551 8.32582 80.3671 8.50982C80.6871 8.69382 81.0311 8.78582 81.3991 8.78582ZM86.1612 9.36182V2.26982C86.1612 1.91782 86.2172 1.62982 86.3292 1.40582C86.4492 1.17382 86.6252 1.00182 86.8572 0.889816C87.0892 0.777816 87.3812 0.721816 87.7332 0.721816H88.4172V1.44182H87.8772C87.5572 1.44182 87.3292 1.50582 87.1932 1.63382C87.0652 1.76182 87.0012 1.98582 87.0012 2.30582V9.36182H86.1612ZM85.2252 4.03382V3.31382H88.5732V4.03382H85.2252ZM95.394 9.36182C95.05 9.36182 94.754 9.30982 94.506 9.20582C94.258 9.09382 94.066 8.91382 93.93 8.66582C93.802 8.40982 93.738 8.06182 93.738 7.62182V4.03382H92.682V3.31382H93.738L93.858 1.90982H94.578V3.32582H96.39V4.03382H94.578V7.62182C94.578 8.02182 94.658 8.29382 94.818 8.43782C94.978 8.57382 95.262 8.64182 95.67 8.64182H96.294V9.36182H95.394ZM97.6958 9.36182V0.721816H98.5358V4.39382C98.7438 4.00982 99.0318 3.70982 99.3998 3.49382C99.7678 3.27782 100.172 3.16982 100.612 3.16982C101.068 3.16982 101.464 3.26182 101.8 3.44582C102.144 3.62982 102.408 3.90982 102.592 4.28582C102.784 4.66182 102.88 5.14182 102.88 5.72582V9.36182H102.052V5.82182C102.052 5.17382 101.916 4.69382 101.644 4.38182C101.38 4.06182 100.988 3.90182 100.468 3.90182C100.108 3.90182 99.7798 3.98982 99.4838 4.16582C99.1958 4.34182 98.9638 4.59782 98.7878 4.93382C98.6198 5.26182 98.5358 5.66982 98.5358 6.15782V9.36182H97.6958ZM107.061 9.50582C106.501 9.50582 106.005 9.37382 105.573 9.10982C105.149 8.84582 104.813 8.47782 104.565 8.00582C104.325 7.52582 104.205 6.96582 104.205 6.32582C104.205 5.68582 104.325 5.12982 104.565 4.65782C104.805 4.18582 105.141 3.82182 105.573 3.56582C106.013 3.30182 106.517 3.16982 107.085 3.16982C107.669 3.16982 108.161 3.30182 108.561 3.56582C108.969 3.82982 109.277 4.17382 109.485 4.59782C109.701 5.02182 109.809 5.48582 109.809 5.98982C109.809 6.06982 109.809 6.15382 109.809 6.24182C109.809 6.32182 109.805 6.41782 109.797 6.52982H104.841V5.82182H108.993C108.977 5.20582 108.785 4.72982 108.417 4.39382C108.057 4.05782 107.601 3.88982 107.049 3.88982C106.689 3.88982 106.353 3.97382 106.041 4.14182C105.737 4.30182 105.489 4.54182 105.297 4.86182C105.113 5.17382 105.021 5.56982 105.021 6.04982V6.36182C105.021 6.90582 105.117 7.35782 105.309 7.71782C105.501 8.07782 105.753 8.34582 106.065 8.52182C106.385 8.69782 106.717 8.78582 107.061 8.78582C107.517 8.78582 107.893 8.68582 108.189 8.48582C108.485 8.27782 108.697 7.99382 108.825 7.63382H109.653C109.549 7.98582 109.381 8.30582 109.149 8.59382C108.925 8.88182 108.637 9.10582 108.285 9.26582C107.933 9.42582 107.525 9.50582 107.061 9.50582ZM111.304 9.36182V3.31382H112.132V9.36182H111.304ZM111.724 1.88582C111.556 1.88582 111.412 1.82982 111.292 1.71782C111.172 1.59782 111.112 1.44982 111.112 1.27382C111.112 1.08982 111.168 0.945816 111.28 0.841816C111.4 0.729816 111.544 0.673816 111.712 0.673816C111.88 0.673816 112.024 0.729816 112.144 0.841816C112.264 0.945816 112.324 1.08982 112.324 1.27382C112.324 1.44982 112.264 1.59782 112.144 1.71782C112.032 1.82982 111.892 1.88582 111.724 1.88582ZM113.961 9.36182V3.31382H114.729L114.789 4.47782C114.917 4.19782 115.089 3.96182 115.305 3.76982C115.521 3.57782 115.781 3.42982 116.085 3.32582C116.389 3.22182 116.733 3.16982 117.117 3.16982V4.04582H116.793C116.537 4.04582 116.289 4.08182 116.049 4.15382C115.809 4.21782 115.597 4.32982 115.413 4.48982C115.229 4.64982 115.081 4.86582 114.969 5.13782C114.857 5.40982 114.801 5.74982 114.801 6.15782V9.36182H113.961ZM124.266 9.50582C123.706 9.50582 123.206 9.37382 122.766 9.10982C122.326 8.84582 121.978 8.47782 121.722 8.00582C121.466 7.52582 121.338 6.97382 121.338 6.34982C121.338 5.70182 121.466 5.14582 121.722 4.68182C121.978 4.20982 122.326 3.84182 122.766 3.57782C123.214 3.30582 123.714 3.16982 124.266 3.16982C124.97 3.16982 125.554 3.35382 126.018 3.72182C126.49 4.08182 126.79 4.56182 126.918 5.16182H126.078C125.99 4.76182 125.778 4.45382 125.442 4.23782C125.114 4.01382 124.718 3.90182 124.254 3.90182C123.894 3.90182 123.558 3.99382 123.246 4.17782C122.934 4.35382 122.682 4.62182 122.49 4.98182C122.298 5.34182 122.202 5.79782 122.202 6.34982C122.202 6.75782 122.258 7.11382 122.37 7.41782C122.482 7.72182 122.634 7.97782 122.826 8.18582C123.018 8.38582 123.238 8.53782 123.486 8.64182C123.734 8.74582 123.99 8.79782 124.254 8.79782C124.558 8.79782 124.834 8.74982 125.082 8.65382C125.338 8.54982 125.554 8.40182 125.73 8.20982C125.906 8.01782 126.022 7.78582 126.078 7.51382H126.918C126.798 8.09782 126.502 8.57782 126.03 8.95382C125.558 9.32182 124.97 9.50582 124.266 9.50582ZM131.028 9.50582C130.476 9.50582 129.976 9.37782 129.528 9.12182C129.088 8.85782 128.74 8.48982 128.484 8.01782C128.228 7.53782 128.1 6.98182 128.1 6.34982C128.1 5.69382 128.228 5.12982 128.484 4.65782C128.748 4.18582 129.104 3.82182 129.552 3.56582C130 3.30182 130.5 3.16982 131.052 3.16982C131.628 3.16982 132.136 3.30182 132.576 3.56582C133.016 3.82182 133.364 4.18582 133.62 4.65782C133.876 5.12982 134.004 5.69382 134.004 6.34982C134.004 6.98182 133.872 7.53782 133.608 8.01782C133.352 8.48982 133 8.85782 132.552 9.12182C132.112 9.37782 131.604 9.50582 131.028 9.50582ZM131.04 8.78582C131.416 8.78582 131.76 8.69382 132.072 8.50982C132.392 8.32582 132.648 8.05382 132.84 7.69382C133.04 7.32582 133.14 6.87382 133.14 6.33782C133.14 5.79382 133.044 5.34182 132.852 4.98182C132.66 4.62182 132.404 4.35382 132.084 4.17782C131.772 3.99382 131.428 3.90182 131.052 3.90182C130.692 3.90182 130.352 3.99382 130.032 4.17782C129.712 4.36182 129.452 4.63382 129.252 4.99382C129.06 5.34582 128.964 5.79382 128.964 6.33782C128.964 6.87382 129.06 7.32582 129.252 7.69382C129.444 8.05382 129.696 8.32582 130.008 8.50982C130.328 8.69382 130.672 8.78582 131.04 8.78582ZM135.442 9.36182V3.31382H136.21L136.27 4.22582C136.454 3.88982 136.71 3.62982 137.038 3.44582C137.366 3.26182 137.73 3.16982 138.13 3.16982C138.426 3.16982 138.702 3.21382 138.958 3.30182C139.214 3.38982 139.438 3.52182 139.63 3.69782C139.83 3.87382 139.986 4.10182 140.098 4.38182C140.298 4.00582 140.578 3.70982 140.938 3.49382C141.306 3.27782 141.698 3.16982 142.114 3.16982C142.578 3.16982 142.978 3.26182 143.314 3.44582C143.658 3.62982 143.926 3.90982 144.118 4.28582C144.31 4.66182 144.406 5.13782 144.406 5.71382V9.36182H143.566V5.80982C143.566 5.16982 143.434 4.69382 143.17 4.38182C142.906 4.06182 142.538 3.90182 142.066 3.90182C141.746 3.90182 141.454 3.98982 141.19 4.16582C140.926 4.33382 140.718 4.58182 140.566 4.90982C140.414 5.22982 140.338 5.62982 140.338 6.10982V9.36182H139.498V5.80982C139.498 5.16982 139.366 4.69382 139.102 4.38182C138.846 4.06182 138.482 3.90182 138.01 3.90182C137.682 3.90182 137.386 3.98982 137.122 4.16582C136.866 4.33382 136.662 4.58582 136.51 4.92182C136.358 5.24982 136.282 5.65782 136.282 6.14582V9.36182H135.442ZM145.989 12.0018V3.31382H146.757L146.829 4.40582C146.957 4.18982 147.125 3.98982 147.333 3.80582C147.541 3.61382 147.789 3.46182 148.077 3.34982C148.373 3.22982 148.709 3.16982 149.085 3.16982C149.669 3.16982 150.177 3.30982 150.609 3.58982C151.049 3.86982 151.389 4.24982 151.629 4.72982C151.869 5.20182 151.989 5.74182 151.989 6.34982C151.989 6.95782 151.865 7.50182 151.617 7.98182C151.377 8.45382 151.041 8.82582 150.609 9.09782C150.177 9.36982 149.665 9.50582 149.073 9.50582C148.561 9.50582 148.109 9.39782 147.717 9.18182C147.333 8.95782 147.037 8.64582 146.829 8.24582V12.0018H145.989ZM149.013 8.77382C149.429 8.77382 149.793 8.67382 150.105 8.47382C150.425 8.27382 150.677 7.99382 150.861 7.63382C151.045 7.26582 151.137 6.83382 151.137 6.33782C151.137 5.84982 151.045 5.42182 150.861 5.05382C150.677 4.68582 150.425 4.40182 150.105 4.20182C149.793 4.00182 149.429 3.90182 149.013 3.90182C148.597 3.90182 148.225 4.00182 147.897 4.20182C147.577 4.40182 147.325 4.68582 147.141 5.05382C146.965 5.41382 146.877 5.84182 146.877 6.33782C146.877 6.82582 146.965 7.25382 147.141 7.62182C147.325 7.98982 147.577 8.27382 147.897 8.47382C148.225 8.67382 148.597 8.77382 149.013 8.77382ZM153.43 9.36182V0.721816H154.27V9.36182H153.43ZM158.565 9.50582C158.005 9.50582 157.509 9.37382 157.077 9.10982C156.653 8.84582 156.317 8.47782 156.069 8.00582C155.829 7.52582 155.709 6.96582 155.709 6.32582C155.709 5.68582 155.829 5.12982 156.069 4.65782C156.309 4.18582 156.645 3.82182 157.077 3.56582C157.517 3.30182 158.021 3.16982 158.589 3.16982C159.173 3.16982 159.665 3.30182 160.065 3.56582C160.473 3.82982 160.781 4.17382 160.989 4.59782C161.205 5.02182 161.313 5.48582 161.313 5.98982C161.313 6.06982 161.313 6.15382 161.313 6.24182C161.313 6.32182 161.309 6.41782 161.301 6.52982H156.345V5.82182H160.497C160.481 5.20582 160.289 4.72982 159.921 4.39382C159.561 4.05782 159.105 3.88982 158.553 3.88982C158.193 3.88982 157.857 3.97382 157.545 4.14182C157.241 4.30182 156.993 4.54182 156.801 4.86182C156.617 5.17382 156.525 5.56982 156.525 6.04982V6.36182C156.525 6.90582 156.621 7.35782 156.813 7.71782C157.005 8.07782 157.257 8.34582 157.569 8.52182C157.889 8.69782 158.221 8.78582 158.565 8.78582C159.021 8.78582 159.397 8.68582 159.693 8.48582C159.989 8.27782 160.201 7.99382 160.329 7.63382H161.157C161.053 7.98582 160.885 8.30582 160.653 8.59382C160.429 8.88182 160.141 9.10582 159.789 9.26582C159.437 9.42582 159.029 9.50582 158.565 9.50582ZM164.746 9.36182C164.402 9.36182 164.106 9.30982 163.858 9.20582C163.61 9.09382 163.418 8.91382 163.282 8.66582C163.154 8.40982 163.09 8.06182 163.09 7.62182V4.03382H162.034V3.31382H163.09L163.21 1.90982H163.93V3.32582H165.742V4.03382H163.93V7.62182C163.93 8.02182 164.01 8.29382 164.17 8.43782C164.33 8.57382 164.614 8.64182 165.022 8.64182H165.646V9.36182H164.746ZM167.167 9.36182V3.31382H167.995V9.36182H167.167ZM167.587 1.88582C167.419 1.88582 167.275 1.82982 167.155 1.71782C167.035 1.59782 166.975 1.44982 166.975 1.27382C166.975 1.08982 167.031 0.945816 167.143 0.841816C167.263 0.729816 167.407 0.673816 167.575 0.673816C167.743 0.673816 167.887 0.729816 168.007 0.841816C168.127 0.945816 168.187 1.08982 168.187 1.27382C168.187 1.44982 168.127 1.59782 168.007 1.71782C167.895 1.82982 167.755 1.88582 167.587 1.88582ZM172.489 9.50582C171.937 9.50582 171.437 9.37782 170.989 9.12182C170.549 8.85782 170.201 8.48982 169.945 8.01782C169.689 7.53782 169.561 6.98182 169.561 6.34982C169.561 5.69382 169.689 5.12982 169.945 4.65782C170.209 4.18582 170.565 3.82182 171.013 3.56582C171.461 3.30182 171.961 3.16982 172.513 3.16982C173.089 3.16982 173.597 3.30182 174.037 3.56582C174.477 3.82182 174.825 4.18582 175.081 4.65782C175.337 5.12982 175.465 5.69382 175.465 6.34982C175.465 6.98182 175.333 7.53782 175.069 8.01782C174.813 8.48982 174.461 8.85782 174.013 9.12182C173.573 9.37782 173.065 9.50582 172.489 9.50582ZM172.501 8.78582C172.877 8.78582 173.221 8.69382 173.533 8.50982C173.853 8.32582 174.109 8.05382 174.301 7.69382C174.501 7.32582 174.601 6.87382 174.601 6.33782C174.601 5.79382 174.505 5.34182 174.313 4.98182C174.121 4.62182 173.865 4.35382 173.545 4.17782C173.233 3.99382 172.889 3.90182 172.513 3.90182C172.153 3.90182 171.813 3.99382 171.493 4.17782C171.173 4.36182 170.913 4.63382 170.713 4.99382C170.521 5.34582 170.425 5.79382 170.425 6.33782C170.425 6.87382 170.521 7.32582 170.713 7.69382C170.905 8.05382 171.157 8.32582 171.469 8.50982C171.789 8.69382 172.133 8.78582 172.501 8.78582ZM176.903 9.36182V3.31382H177.671L177.719 4.39382C177.911 4.00982 178.187 3.70982 178.547 3.49382C178.915 3.27782 179.323 3.16982 179.771 3.16982C180.235 3.16982 180.639 3.26182 180.983 3.44582C181.327 3.62982 181.595 3.90982 181.787 4.28582C181.979 4.65382 182.075 5.12582 182.075 5.70182V9.36182H181.235V5.79782C181.235 5.15782 181.095 4.68182 180.815 4.36982C180.535 4.05782 180.135 3.90182 179.615 3.90182C179.263 3.90182 178.943 3.98982 178.655 4.16582C178.375 4.33382 178.151 4.58182 177.983 4.90982C177.823 5.23782 177.743 5.64182 177.743 6.12182V9.36182H176.903ZM189.633 9.50582C189.081 9.50582 188.581 9.37782 188.133 9.12182C187.693 8.85782 187.345 8.48982 187.089 8.01782C186.833 7.53782 186.705 6.98182 186.705 6.34982C186.705 5.69382 186.833 5.12982 187.089 4.65782C187.353 4.18582 187.709 3.82182 188.157 3.56582C188.605 3.30182 189.105 3.16982 189.657 3.16982C190.233 3.16982 190.741 3.30182 191.181 3.56582C191.621 3.82182 191.969 4.18582 192.225 4.65782C192.481 5.12982 192.609 5.69382 192.609 6.34982C192.609 6.98182 192.477 7.53782 192.213 8.01782C191.957 8.48982 191.605 8.85782 191.157 9.12182C190.717 9.37782 190.209 9.50582 189.633 9.50582ZM189.645 8.78582C190.021 8.78582 190.365 8.69382 190.677 8.50982C190.997 8.32582 191.253 8.05382 191.445 7.69382C191.645 7.32582 191.745 6.87382 191.745 6.33782C191.745 5.79382 191.649 5.34182 191.457 4.98182C191.265 4.62182 191.009 4.35382 190.689 4.17782C190.377 3.99382 190.033 3.90182 189.657 3.90182C189.297 3.90182 188.957 3.99382 188.637 4.17782C188.317 4.36182 188.057 4.63382 187.857 4.99382C187.665 5.34582 187.569 5.79382 187.569 6.33782C187.569 6.87382 187.665 7.32582 187.857 7.69382C188.049 8.05382 188.301 8.32582 188.613 8.50982C188.933 8.69382 189.277 8.78582 189.645 8.78582ZM194.407 9.36182V2.26982C194.407 1.91782 194.463 1.62982 194.575 1.40582C194.695 1.17382 194.871 1.00182 195.103 0.889816C195.335 0.777816 195.627 0.721816 195.979 0.721816H196.663V1.44182H196.123C195.803 1.44182 195.575 1.50582 195.439 1.63382C195.311 1.76182 195.247 1.98582 195.247 2.30582V9.36182H194.407ZM193.471 4.03382V3.31382H196.819V4.03382H193.471ZM203.64 9.36182C203.296 9.36182 203 9.30982 202.752 9.20582C202.504 9.09382 202.312 8.91382 202.176 8.66582C202.048 8.40982 201.984 8.06182 201.984 7.62182V4.03382H200.928V3.31382H201.984L202.104 1.90982H202.824V3.32582H204.636V4.03382H202.824V7.62182C202.824 8.02182 202.904 8.29382 203.064 8.43782C203.224 8.57382 203.508 8.64182 203.916 8.64182H204.54V9.36182H203.64ZM205.942 9.36182V0.721816H206.782V4.39382C206.99 4.00982 207.278 3.70982 207.646 3.49382C208.014 3.27782 208.418 3.16982 208.858 3.16982C209.314 3.16982 209.71 3.26182 210.046 3.44582C210.39 3.62982 210.654 3.90982 210.838 4.28582C211.03 4.66182 211.126 5.14182 211.126 5.72582V9.36182H210.298V5.82182C210.298 5.17382 210.162 4.69382 209.89 4.38182C209.626 4.06182 209.234 3.90182 208.714 3.90182C208.354 3.90182 208.026 3.98982 207.73 4.16582C207.442 4.34182 207.21 4.59782 207.034 4.93382C206.866 5.26182 206.782 5.66982 206.782 6.15782V9.36182H205.942ZM215.307 9.50582C214.747 9.50582 214.251 9.37382 213.819 9.10982C213.395 8.84582 213.059 8.47782 212.811 8.00582C212.571 7.52582 212.451 6.96582 212.451 6.32582C212.451 5.68582 212.571 5.12982 212.811 4.65782C213.051 4.18582 213.387 3.82182 213.819 3.56582C214.259 3.30182 214.763 3.16982 215.331 3.16982C215.915 3.16982 216.407 3.30182 216.807 3.56582C217.215 3.82982 217.523 4.17382 217.731 4.59782C217.947 5.02182 218.055 5.48582 218.055 5.98982C218.055 6.06982 218.055 6.15382 218.055 6.24182C218.055 6.32182 218.051 6.41782 218.043 6.52982H213.087V5.82182H217.239C217.223 5.20582 217.031 4.72982 216.663 4.39382C216.303 4.05782 215.847 3.88982 215.295 3.88982C214.935 3.88982 214.599 3.97382 214.287 4.14182C213.983 4.30182 213.735 4.54182 213.543 4.86182C213.359 5.17382 213.267 5.56982 213.267 6.04982V6.36182C213.267 6.90582 213.363 7.35782 213.555 7.71782C213.747 8.07782 213.999 8.34582 214.311 8.52182C214.631 8.69782 214.963 8.78582 215.307 8.78582C215.763 8.78582 216.139 8.68582 216.435 8.48582C216.731 8.27782 216.943 7.99382 217.071 7.63382H217.899C217.795 7.98582 217.627 8.30582 217.395 8.59382C217.171 8.88182 216.883 9.10582 216.531 9.26582C216.179 9.42582 215.771 9.50582 215.307 9.50582ZM222.819 9.36182V0.961816H227.919V1.65782H223.659V4.78982H227.559V5.48582H223.659V8.66582H227.919V9.36182H222.819ZM229.221 6.19382V5.47382H233.889V6.19382H229.221ZM235.428 9.36182V0.961816H238.248C238.84 0.961816 239.328 1.05782 239.712 1.24982C240.096 1.44182 240.38 1.69782 240.564 2.01782C240.756 2.33782 240.852 2.69382 240.852 3.08582C240.852 3.51782 240.756 3.87782 240.564 4.16582C240.38 4.45382 240.136 4.67382 239.832 4.82582C239.536 4.97782 239.224 5.07382 238.896 5.11382L239.052 4.99382C239.404 5.00182 239.732 5.09782 240.036 5.28182C240.34 5.46582 240.584 5.71382 240.768 6.02582C240.952 6.32982 241.044 6.67782 241.044 7.06982C241.044 7.48582 240.94 7.86982 240.732 8.22182C240.532 8.56582 240.232 8.84182 239.832 9.04982C239.432 9.25782 238.932 9.36182 238.332 9.36182H235.428ZM236.268 8.65382H238.272C238.88 8.65382 239.348 8.50982 239.676 8.22182C240.012 7.93382 240.18 7.53782 240.18 7.03382C240.18 6.52982 240.004 6.12982 239.652 5.83382C239.308 5.52982 238.836 5.37782 238.236 5.37782H236.268V8.65382ZM236.268 4.68182H238.224C238.792 4.68182 239.228 4.54582 239.532 4.27382C239.836 4.00182 239.988 3.63382 239.988 3.16982C239.988 2.72182 239.84 2.36182 239.544 2.08982C239.248 1.80982 238.796 1.66982 238.188 1.66982H236.268V4.68182ZM242.613 9.36182V3.31382H243.441V9.36182H242.613ZM243.033 1.88582C242.865 1.88582 242.721 1.82982 242.601 1.71782C242.481 1.59782 242.421 1.44982 242.421 1.27382C242.421 1.08982 242.477 0.945816 242.589 0.841816C242.709 0.729816 242.853 0.673816 243.021 0.673816C243.189 0.673816 243.333 0.729816 243.453 0.841816C243.573 0.945816 243.633 1.08982 243.633 1.27382C243.633 1.44982 243.573 1.59782 243.453 1.71782C243.341 1.82982 243.201 1.88582 243.033 1.88582ZM248.93 9.36182L245.966 6.04982L248.678 3.31382H249.722L246.71 6.32582L246.722 5.76182L250.01 9.36182H248.93ZM245.27 9.36182V0.721816H246.11V9.36182H245.27ZM253.276 9.50582C252.716 9.50582 252.22 9.37382 251.788 9.10982C251.364 8.84582 251.028 8.47782 250.78 8.00582C250.54 7.52582 250.42 6.96582 250.42 6.32582C250.42 5.68582 250.54 5.12982 250.78 4.65782C251.02 4.18582 251.356 3.82182 251.788 3.56582C252.228 3.30182 252.732 3.16982 253.3 3.16982C253.884 3.16982 254.376 3.30182 254.776 3.56582C255.184 3.82982 255.492 4.17382 255.7 4.59782C255.916 5.02182 256.024 5.48582 256.024 5.98982C256.024 6.06982 256.024 6.15382 256.024 6.24182C256.024 6.32182 256.02 6.41782 256.012 6.52982H251.056V5.82182H255.208C255.192 5.20582 255 4.72982 254.632 4.39382C254.272 4.05782 253.816 3.88982 253.264 3.88982C252.904 3.88982 252.568 3.97382 252.256 4.14182C251.952 4.30182 251.704 4.54182 251.512 4.86182C251.328 5.17382 251.236 5.56982 251.236 6.04982V6.36182C251.236 6.90582 251.332 7.35782 251.524 7.71782C251.716 8.07782 251.968 8.34582 252.28 8.52182C252.6 8.69782 252.932 8.78582 253.276 8.78582C253.732 8.78582 254.108 8.68582 254.404 8.48582C254.7 8.27782 254.912 7.99382 255.04 7.63382H255.868C255.764 7.98582 255.596 8.30582 255.364 8.59382C255.14 8.88182 254.852 9.10582 254.5 9.26582C254.148 9.42582 253.74 9.50582 253.276 9.50582ZM263.404 9.50582C262.788 9.50582 262.252 9.39382 261.796 9.16982C261.348 8.94582 261.004 8.63382 260.764 8.23382C260.524 7.82582 260.404 7.36182 260.404 6.84182H261.28C261.28 7.19382 261.36 7.51782 261.52 7.81382C261.68 8.10982 261.916 8.34982 262.228 8.53382C262.54 8.70982 262.932 8.79782 263.404 8.79782C263.82 8.79782 264.168 8.72982 264.448 8.59382C264.736 8.44982 264.956 8.26182 265.108 8.02982C265.26 7.79782 265.336 7.53382 265.336 7.23782C265.336 6.88582 265.26 6.60182 265.108 6.38582C264.964 6.16982 264.764 5.99382 264.508 5.85782C264.252 5.72182 263.96 5.60582 263.632 5.50982C263.312 5.40582 262.972 5.29382 262.612 5.17382C261.964 4.94982 261.488 4.67382 261.184 4.34582C260.88 4.01782 260.724 3.59782 260.716 3.08582C260.716 2.64582 260.816 2.25782 261.016 1.92182C261.224 1.57782 261.524 1.30982 261.916 1.11782C262.308 0.917816 262.772 0.817816 263.308 0.817816C263.828 0.817816 264.28 0.917816 264.664 1.11782C265.056 1.30982 265.36 1.58182 265.576 1.93382C265.792 2.27782 265.9 2.67382 265.9 3.12182H265.036C265.036 2.86582 264.968 2.61782 264.832 2.37782C264.704 2.12982 264.508 1.92982 264.244 1.77782C263.988 1.61782 263.66 1.53782 263.26 1.53782C262.932 1.53782 262.64 1.59782 262.384 1.71782C262.136 1.82982 261.94 1.99782 261.796 2.22182C261.652 2.43782 261.58 2.69382 261.58 2.98982C261.58 3.27782 261.644 3.51382 261.772 3.69782C261.9 3.88182 262.08 4.03382 262.312 4.15382C262.544 4.27382 262.816 4.38582 263.128 4.48982C263.44 4.58582 263.788 4.69782 264.172 4.82582C264.564 4.96182 264.912 5.12582 265.216 5.31782C265.52 5.50982 265.76 5.75782 265.936 6.06182C266.112 6.35782 266.2 6.73382 266.2 7.18982C266.2 7.58182 266.096 7.95782 265.888 8.31782C265.688 8.66982 265.38 8.95782 264.964 9.18182C264.548 9.39782 264.028 9.50582 263.404 9.50582ZM269.55 9.50582C269.062 9.50582 268.654 9.41782 268.326 9.24182C268.006 9.06582 267.766 8.83782 267.606 8.55782C267.454 8.27782 267.378 7.96982 267.378 7.63382C267.378 7.21782 267.482 6.86582 267.69 6.57782C267.906 6.28982 268.206 6.07382 268.59 5.92982C268.974 5.78582 269.422 5.71382 269.934 5.71382H271.566C271.566 5.32182 271.506 4.98982 271.386 4.71782C271.266 4.44582 271.09 4.24182 270.858 4.10582C270.626 3.96182 270.334 3.88982 269.982 3.88982C269.574 3.88982 269.222 3.99382 268.926 4.20182C268.63 4.40982 268.446 4.71382 268.374 5.11382H267.498C267.546 4.68982 267.69 4.33382 267.93 4.04582C268.178 3.75782 268.482 3.54182 268.842 3.39782C269.202 3.24582 269.582 3.16982 269.982 3.16982C270.542 3.16982 270.998 3.27782 271.35 3.49382C271.702 3.70182 271.966 3.98982 272.142 4.35782C272.318 4.72582 272.406 5.14982 272.406 5.62982V9.36182H271.638L271.59 8.25782C271.518 8.42582 271.418 8.58582 271.29 8.73782C271.17 8.88982 271.026 9.02182 270.858 9.13382C270.698 9.24582 270.51 9.33382 270.294 9.39782C270.078 9.46982 269.83 9.50582 269.55 9.50582ZM269.646 8.77382C269.942 8.77382 270.206 8.71382 270.438 8.59382C270.678 8.46582 270.882 8.30182 271.05 8.10182C271.218 7.90182 271.346 7.67782 271.434 7.42982C271.522 7.17382 271.566 6.90982 271.566 6.63782V6.42182H269.994C269.57 6.42182 269.23 6.47382 268.974 6.57782C268.718 6.68182 268.534 6.82182 268.422 6.99782C268.31 7.17382 268.254 7.37782 268.254 7.60982C268.254 7.84182 268.306 8.04582 268.41 8.22182C268.514 8.38982 268.67 8.52582 268.878 8.62982C269.094 8.72582 269.35 8.77382 269.646 8.77382ZM274.353 9.36182V2.26982C274.353 1.91782 274.409 1.62982 274.521 1.40582C274.641 1.17382 274.817 1.00182 275.049 0.889816C275.281 0.777816 275.573 0.721816 275.925 0.721816H276.609V1.44182H276.069C275.749 1.44182 275.521 1.50582 275.385 1.63382C275.257 1.76182 275.193 1.98582 275.193 2.30582V9.36182H274.353ZM273.417 4.03382V3.31382H276.765V4.03382H273.417ZM280.346 9.50582C279.786 9.50582 279.29 9.37382 278.858 9.10982C278.434 8.84582 278.098 8.47782 277.85 8.00582C277.61 7.52582 277.49 6.96582 277.49 6.32582C277.49 5.68582 277.61 5.12982 277.85 4.65782C278.09 4.18582 278.426 3.82182 278.858 3.56582C279.298 3.30182 279.802 3.16982 280.37 3.16982C280.954 3.16982 281.446 3.30182 281.846 3.56582C282.254 3.82982 282.562 4.17382 282.77 4.59782C282.986 5.02182 283.094 5.48582 283.094 5.98982C283.094 6.06982 283.094 6.15382 283.094 6.24182C283.094 6.32182 283.09 6.41782 283.082 6.52982H278.126V5.82182H282.278C282.262 5.20582 282.07 4.72982 281.702 4.39382C281.342 4.05782 280.886 3.88982 280.334 3.88982C279.974 3.88982 279.638 3.97382 279.326 4.14182C279.022 4.30182 278.774 4.54182 278.582 4.86182C278.398 5.17382 278.306 5.56982 278.306 6.04982V6.36182C278.306 6.90582 278.402 7.35782 278.594 7.71782C278.786 8.07782 279.038 8.34582 279.35 8.52182C279.67 8.69782 280.002 8.78582 280.346 8.78582C280.802 8.78582 281.178 8.68582 281.474 8.48582C281.77 8.27782 281.982 7.99382 282.11 7.63382H282.938C282.834 7.98582 282.666 8.30582 282.434 8.59382C282.21 8.88182 281.922 9.10582 281.57 9.26582C281.218 9.42582 280.81 9.50582 280.346 9.50582ZM286.527 9.36182C286.183 9.36182 285.887 9.30982 285.639 9.20582C285.391 9.09382 285.199 8.91382 285.063 8.66582C284.935 8.40982 284.871 8.06182 284.871 7.62182V4.03382H283.815V3.31382H284.871L284.991 1.90982H285.711V3.32582H287.523V4.03382H285.711V7.62182C285.711 8.02182 285.791 8.29382 285.951 8.43782C286.111 8.57382 286.395 8.64182 286.803 8.64182H287.427V9.36182H286.527ZM289.453 12.0018L290.941 8.68982H290.617L288.229 3.31382H289.141L291.205 8.11382L293.377 3.31382H294.241L290.329 12.0018H289.453ZM302.333 9.50582C301.525 9.50582 300.825 9.32582 300.233 8.96582C299.641 8.59782 299.185 8.08982 298.865 7.44182C298.545 6.78582 298.385 6.02582 298.385 5.16182C298.385 4.29782 298.545 3.54182 298.865 2.89382C299.185 2.23782 299.641 1.72982 300.233 1.36982C300.833 1.00182 301.533 0.817816 302.333 0.817816C303.277 0.817816 304.041 1.04182 304.625 1.48982C305.217 1.92982 305.597 2.55382 305.765 3.36182H304.841C304.713 2.81782 304.441 2.38182 304.025 2.05382C303.609 1.71782 303.045 1.54982 302.333 1.54982C301.717 1.54982 301.177 1.69382 300.713 1.98182C300.249 2.26982 299.889 2.68582 299.633 3.22982C299.377 3.76582 299.249 4.40982 299.249 5.16182C299.249 5.91382 299.377 6.56182 299.633 7.10582C299.889 7.64182 300.249 8.05382 300.713 8.34182C301.177 8.62982 301.717 8.77382 302.333 8.77382C303.045 8.77382 303.605 8.60982 304.013 8.28182C304.429 7.95382 304.705 7.52182 304.841 6.98582H305.765C305.589 7.77782 305.209 8.39782 304.625 8.84582C304.049 9.28582 303.285 9.50582 302.333 9.50582ZM309.868 9.50582C309.316 9.50582 308.816 9.37782 308.368 9.12182C307.928 8.85782 307.58 8.48982 307.324 8.01782C307.068 7.53782 306.94 6.98182 306.94 6.34982C306.94 5.69382 307.068 5.12982 307.324 4.65782C307.588 4.18582 307.944 3.82182 308.392 3.56582C308.84 3.30182 309.34 3.16982 309.892 3.16982C310.468 3.16982 310.976 3.30182 311.416 3.56582C311.856 3.82182 312.204 4.18582 312.46 4.65782C312.716 5.12982 312.844 5.69382 312.844 6.34982C312.844 6.98182 312.712 7.53782 312.448 8.01782C312.192 8.48982 311.84 8.85782 311.392 9.12182C310.952 9.37782 310.444 9.50582 309.868 9.50582ZM309.88 8.78582C310.256 8.78582 310.6 8.69382 310.912 8.50982C311.232 8.32582 311.488 8.05382 311.68 7.69382C311.88 7.32582 311.98 6.87382 311.98 6.33782C311.98 5.79382 311.884 5.34182 311.692 4.98182C311.5 4.62182 311.244 4.35382 310.924 4.17782C310.612 3.99382 310.268 3.90182 309.892 3.90182C309.532 3.90182 309.192 3.99382 308.872 4.17782C308.552 4.36182 308.292 4.63382 308.092 4.99382C307.9 5.34582 307.804 5.79382 307.804 6.33782C307.804 6.87382 307.9 7.32582 308.092 7.69382C308.284 8.05382 308.536 8.32582 308.848 8.50982C309.168 8.69382 309.512 8.78582 309.88 8.78582ZM316.466 9.50582C316.01 9.50582 315.606 9.41782 315.254 9.24182C314.91 9.05782 314.642 8.78182 314.45 8.41382C314.258 8.03782 314.162 7.55782 314.162 6.97382V3.31382H315.002V6.87782C315.002 7.51782 315.142 7.99382 315.422 8.30582C315.71 8.61782 316.106 8.77382 316.61 8.77382C316.97 8.77382 317.29 8.68982 317.57 8.52182C317.858 8.35382 318.082 8.10582 318.242 7.77782C318.41 7.44182 318.494 7.03382 318.494 6.55382V3.31382H319.334V9.36182H318.566L318.518 8.28182C318.326 8.67382 318.046 8.97782 317.678 9.19382C317.318 9.40182 316.914 9.50582 316.466 9.50582ZM321.043 9.36182V3.31382H321.811L321.871 4.47782C321.999 4.19782 322.171 3.96182 322.387 3.76982C322.603 3.57782 322.863 3.42982 323.167 3.32582C323.471 3.22182 323.815 3.16982 324.199 3.16982V4.04582H323.875C323.619 4.04582 323.371 4.08182 323.131 4.15382C322.891 4.21782 322.679 4.32982 322.495 4.48982C322.311 4.64982 322.163 4.86582 322.051 5.13782C321.939 5.40982 321.883 5.74982 321.883 6.15782V9.36182H321.043ZM327.599 9.50582C327.119 9.50582 326.695 9.42582 326.327 9.26582C325.967 9.10582 325.675 8.87782 325.451 8.58182C325.235 8.27782 325.103 7.91782 325.055 7.50182H325.919C325.967 7.73382 326.059 7.94582 326.195 8.13782C326.339 8.32982 326.531 8.48582 326.771 8.60582C327.011 8.71782 327.295 8.77382 327.623 8.77382C327.927 8.77382 328.175 8.72982 328.367 8.64182C328.567 8.54582 328.715 8.42182 328.811 8.26982C328.915 8.10982 328.967 7.93382 328.967 7.74182C328.967 7.47782 328.903 7.27382 328.775 7.12982C328.655 6.97782 328.479 6.86582 328.247 6.79382C328.015 6.72182 327.735 6.65382 327.407 6.58982C327.135 6.54182 326.875 6.47782 326.627 6.39782C326.379 6.31782 326.155 6.21382 325.955 6.08582C325.763 5.95782 325.611 5.79782 325.499 5.60582C325.387 5.40582 325.331 5.17382 325.331 4.90982C325.331 4.56582 325.415 4.26582 325.583 4.00982C325.759 3.74582 326.007 3.54182 326.327 3.39782C326.647 3.24582 327.023 3.16982 327.455 3.16982C328.071 3.16982 328.575 3.32582 328.967 3.63782C329.359 3.94182 329.587 4.38982 329.651 4.98182H328.811C328.779 4.65382 328.643 4.39382 328.403 4.20182C328.163 4.00982 327.839 3.91382 327.431 3.91382C327.031 3.91382 326.723 3.99782 326.507 4.16582C326.299 4.32582 326.195 4.54582 326.195 4.82582C326.195 5.00182 326.251 5.15382 326.363 5.28182C326.475 5.40982 326.639 5.52182 326.855 5.61782C327.079 5.70582 327.351 5.78182 327.671 5.84582C328.055 5.91782 328.407 6.01382 328.727 6.13382C329.055 6.24582 329.319 6.42182 329.519 6.66182C329.727 6.89382 329.831 7.22582 329.831 7.65782C329.839 8.01782 329.751 8.33782 329.567 8.61782C329.383 8.89782 329.123 9.11782 328.787 9.27782C328.451 9.42982 328.055 9.50582 327.599 9.50582ZM333.913 9.50582C333.353 9.50582 332.857 9.37382 332.425 9.10982C332.001 8.84582 331.665 8.47782 331.417 8.00582C331.177 7.52582 331.057 6.96582 331.057 6.32582C331.057 5.68582 331.177 5.12982 331.417 4.65782C331.657 4.18582 331.993 3.82182 332.425 3.56582C332.865 3.30182 333.369 3.16982 333.937 3.16982C334.521 3.16982 335.013 3.30182 335.413 3.56582C335.821 3.82982 336.129 4.17382 336.337 4.59782C336.553 5.02182 336.661 5.48582 336.661 5.98982C336.661 6.06982 336.661 6.15382 336.661 6.24182C336.661 6.32182 336.657 6.41782 336.649 6.52982H331.693V5.82182H335.845C335.829 5.20582 335.637 4.72982 335.269 4.39382C334.909 4.05782 334.453 3.88982 333.901 3.88982C333.541 3.88982 333.205 3.97382 332.893 4.14182C332.589 4.30182 332.341 4.54182 332.149 4.86182C331.965 5.17382 331.873 5.56982 331.873 6.04982V6.36182C331.873 6.90582 331.969 7.35782 332.161 7.71782C332.353 8.07782 332.605 8.34582 332.917 8.52182C333.237 8.69782 333.569 8.78582 333.913 8.78582C334.369 8.78582 334.745 8.68582 335.041 8.48582C335.337 8.27782 335.549 7.99382 335.677 7.63382H336.505C336.401 7.98582 336.233 8.30582 336.001 8.59382C335.777 8.88182 335.489 9.10582 335.137 9.26582C334.785 9.42582 334.377 9.50582 333.913 9.50582ZM338.312 9.42182C338.136 9.42182 337.988 9.36182 337.868 9.24182C337.756 9.12182 337.7 8.97382 337.7 8.79782C337.7 8.62182 337.756 8.47782 337.868 8.36582C337.988 8.24582 338.136 8.18582 338.312 8.18582C338.488 8.18582 338.632 8.24582 338.744 8.36582C338.864 8.47782 338.924 8.62582 338.924 8.80982C338.924 8.97782 338.864 9.12182 338.744 9.24182C338.632 9.36182 338.488 9.42182 338.312 9.42182Z" fill="black"/>
</svg>
