<svg width="311" height="11" viewBox="0 0 311 11" fill="none" xmlns="http://www.w3.org/2000/svg">
<path d="M0.580656 8V0.299999H1.35066V8H0.580656ZM2.9851 8V2.456H3.6891L3.7331 3.446C3.9091 3.094 4.1621 2.819 4.4921 2.621C4.82943 2.423 5.20343 2.324 5.6141 2.324C6.03944 2.324 6.40977 2.40833 6.7251 2.577C7.04044 2.74567 7.2861 3.00233 7.4621 3.347C7.6381 3.68433 7.7261 4.117 7.7261 4.645V8H6.9561V4.733C6.9561 4.14633 6.82777 3.71 6.5711 3.424C6.31444 3.138 5.94777 2.995 5.4711 2.995C5.14844 2.995 4.8551 3.07567 4.5911 3.237C4.33444 3.391 4.1291 3.61833 3.9751 3.919C3.82843 4.21967 3.7551 4.59 3.7551 5.03V8H2.9851ZM12.2126 8V2.456H12.9166L12.9716 3.523C13.089 3.26633 13.2466 3.05 13.4446 2.874C13.6426 2.698 13.881 2.56233 14.1596 2.467C14.4383 2.37167 14.7536 2.324 15.1056 2.324V3.127H14.8086C14.574 3.127 14.3466 3.16 14.1266 3.226C13.9066 3.28467 13.7123 3.38733 13.5436 3.534C13.375 3.68067 13.2393 3.87867 13.1366 4.128C13.034 4.37733 12.9826 4.689 12.9826 5.063V8H12.2126ZM18.3269 8.132C17.8136 8.132 17.3589 8.011 16.9629 7.769C16.5743 7.527 16.2663 7.18967 16.0389 6.757C15.8189 6.317 15.7089 5.80367 15.7089 5.217C15.7089 4.63033 15.8189 4.12067 16.0389 3.688C16.2589 3.25533 16.5669 2.92167 16.9629 2.687C17.3663 2.445 17.8283 2.324 18.3489 2.324C18.8843 2.324 19.3353 2.445 19.7019 2.687C20.0759 2.929 20.3583 3.24433 20.5489 3.633C20.7469 4.02167 20.8459 4.447 20.8459 4.909C20.8459 4.98233 20.8459 5.05933 20.8459 5.14C20.8459 5.21333 20.8423 5.30133 20.8349 5.404H16.2919V4.755H20.0979C20.0833 4.19033 19.9073 3.754 19.5699 3.446C19.2399 3.138 18.8219 2.984 18.3159 2.984C17.9859 2.984 17.6779 3.061 17.3919 3.215C17.1133 3.36167 16.8859 3.58167 16.7099 3.875C16.5413 4.161 16.4569 4.524 16.4569 4.964V5.25C16.4569 5.74867 16.5449 6.163 16.7209 6.493C16.8969 6.823 17.1279 7.06867 17.4139 7.23C17.7073 7.39133 18.0116 7.472 18.3269 7.472C18.7449 7.472 19.0896 7.38033 19.3609 7.197C19.6323 7.00633 19.8266 6.746 19.9439 6.416H20.7029C20.6076 6.73867 20.4536 7.032 20.2409 7.296C20.0356 7.56 19.7716 7.76533 19.4489 7.912C19.1263 8.05867 18.7523 8.132 18.3269 8.132ZM24.5482 8.132C24.0349 8.132 23.5765 8.011 23.1732 7.769C22.7699 7.527 22.4509 7.18967 22.2162 6.757C21.9815 6.317 21.8642 5.811 21.8642 5.239C21.8642 4.645 21.9815 4.13533 22.2162 3.71C22.4509 3.27733 22.7699 2.94 23.1732 2.698C23.5839 2.44867 24.0422 2.324 24.5482 2.324C25.1935 2.324 25.7289 2.49267 26.1542 2.83C26.5869 3.16 26.8619 3.6 26.9792 4.15H26.2092C26.1285 3.78333 25.9342 3.501 25.6262 3.303C25.3255 3.09767 24.9625 2.995 24.5372 2.995C24.2072 2.995 23.8992 3.07933 23.6132 3.248C23.3272 3.40933 23.0962 3.655 22.9202 3.985C22.7442 4.315 22.6562 4.733 22.6562 5.239C22.6562 5.613 22.7075 5.93933 22.8102 6.218C22.9129 6.49667 23.0522 6.73133 23.2282 6.922C23.4042 7.10533 23.6059 7.24467 23.8332 7.34C24.0605 7.43533 24.2952 7.483 24.5372 7.483C24.8159 7.483 25.0689 7.439 25.2962 7.351C25.5309 7.25567 25.7289 7.12 25.8902 6.944C26.0515 6.768 26.1579 6.55533 26.2092 6.306H26.9792C26.8692 6.84133 26.5979 7.28133 26.1652 7.626C25.7325 7.96333 25.1935 8.132 24.5482 8.132ZM30.7464 8.132C30.2404 8.132 29.7821 8.01467 29.3714 7.78C28.9681 7.538 28.6491 7.20067 28.4144 6.768C28.1798 6.328 28.0624 5.81833 28.0624 5.239C28.0624 4.63767 28.1798 4.12067 28.4144 3.688C28.6564 3.25533 28.9828 2.92167 29.3934 2.687C29.8041 2.445 30.2624 2.324 30.7684 2.324C31.2964 2.324 31.7621 2.445 32.1654 2.687C32.5688 2.92167 32.8878 3.25533 33.1224 3.688C33.3571 4.12067 33.4744 4.63767 33.4744 5.239C33.4744 5.81833 33.3534 6.328 33.1114 6.768C32.8768 7.20067 32.5541 7.538 32.1434 7.78C31.7401 8.01467 31.2744 8.132 30.7464 8.132ZM30.7574 7.472C31.1021 7.472 31.4174 7.38767 31.7034 7.219C31.9968 7.05033 32.2314 6.801 32.4074 6.471C32.5908 6.13367 32.6824 5.71933 32.6824 5.228C32.6824 4.72933 32.5944 4.315 32.4184 3.985C32.2424 3.655 32.0078 3.40933 31.7144 3.248C31.4284 3.07933 31.1131 2.995 30.7684 2.995C30.4384 2.995 30.1268 3.07933 29.8334 3.248C29.5401 3.41667 29.3018 3.666 29.1184 3.996C28.9424 4.31867 28.8544 4.72933 28.8544 5.228C28.8544 5.71933 28.9424 6.13367 29.1184 6.471C29.2944 6.801 29.5254 7.05033 29.8114 7.219C30.1048 7.38767 30.4201 7.472 30.7574 7.472ZM36.7336 10.552C36.2423 10.552 35.806 10.486 35.4246 10.354C35.0506 10.222 34.7536 10.024 34.5336 9.76C34.321 9.496 34.2146 9.16967 34.2146 8.781C34.2146 8.627 34.2403 8.45833 34.2916 8.275C34.3503 8.099 34.4603 7.91933 34.6216 7.736C34.783 7.55267 35.0103 7.38767 35.3036 7.241L35.9306 7.516C35.542 7.69933 35.289 7.89733 35.1716 8.11C35.0543 8.33 34.9956 8.528 34.9956 8.704C34.9956 8.968 35.069 9.188 35.2156 9.364C35.3696 9.54 35.575 9.672 35.8316 9.76C36.0956 9.85533 36.3963 9.903 36.7336 9.903C37.071 9.903 37.3606 9.85167 37.6026 9.749C37.852 9.65367 38.0426 9.51433 38.1746 9.331C38.3066 9.155 38.3726 8.94967 38.3726 8.715C38.3726 8.44367 38.2663 8.21267 38.0536 8.022C37.8483 7.83867 37.4633 7.73233 36.8986 7.703C36.4513 7.67367 36.081 7.637 35.7876 7.593C35.5016 7.54167 35.2633 7.483 35.0726 7.417C34.8893 7.34367 34.7353 7.26667 34.6106 7.186C34.4933 7.10533 34.3796 7.01733 34.2696 6.922V6.669L35.3256 5.668L36.0296 5.921L34.9956 6.845L35.0616 6.548C35.1423 6.60667 35.2193 6.66167 35.2926 6.713C35.3733 6.76433 35.476 6.80833 35.6006 6.845C35.7326 6.87433 35.9123 6.90733 36.1396 6.944C36.3743 6.97333 36.6896 7.00267 37.0856 7.032C37.5916 7.06867 37.995 7.15667 38.2956 7.296C38.5963 7.43533 38.8163 7.62233 38.9556 7.857C39.095 8.09167 39.1646 8.36667 39.1646 8.682C39.1646 8.99733 39.0766 9.298 38.9006 9.584C38.732 9.87 38.468 10.101 38.1086 10.277C37.7566 10.4603 37.2983 10.552 36.7336 10.552ZM36.7226 6.24C36.2533 6.24 35.8573 6.152 35.5346 5.976C35.2193 5.8 34.9773 5.56533 34.8086 5.272C34.64 4.97133 34.5556 4.64133 34.5556 4.282C34.5556 3.91533 34.64 3.58533 34.8086 3.292C34.9773 2.99867 35.223 2.764 35.5456 2.588C35.8683 2.412 36.2606 2.324 36.7226 2.324C37.192 2.324 37.5843 2.412 37.8996 2.588C38.2223 2.764 38.4643 2.99867 38.6256 3.292C38.7943 3.58533 38.8786 3.91533 38.8786 4.282C38.8786 4.64133 38.7943 4.97133 38.6256 5.272C38.4643 5.56533 38.2223 5.8 37.8996 5.976C37.5843 6.152 37.192 6.24 36.7226 6.24ZM36.7226 5.58C37.148 5.58 37.4816 5.47 37.7236 5.25C37.973 5.02267 38.0976 4.7 38.0976 4.282C38.0976 3.85667 37.973 3.534 37.7236 3.314C37.4816 3.094 37.148 2.984 36.7226 2.984C36.2973 2.984 35.9563 3.094 35.6996 3.314C35.4503 3.534 35.3256 3.85667 35.3256 4.282C35.3256 4.7 35.4503 5.02267 35.6996 5.25C35.949 5.47 36.29 5.58 36.7226 5.58ZM37.6246 3.149L37.3496 2.456H39.5936V3.083L37.6246 3.149ZM40.658 8V2.456H41.362L41.406 3.446C41.582 3.094 41.835 2.819 42.165 2.621C42.5023 2.423 42.8763 2.324 43.287 2.324C43.7123 2.324 44.0826 2.40833 44.398 2.577C44.7133 2.74567 44.959 3.00233 45.135 3.347C45.311 3.68433 45.399 4.117 45.399 4.645V8H44.629V4.733C44.629 4.14633 44.5006 3.71 44.244 3.424C43.9873 3.138 43.6206 2.995 43.144 2.995C42.8213 2.995 42.528 3.07567 42.264 3.237C42.0073 3.391 41.802 3.61833 41.648 3.919C41.5013 4.21967 41.428 4.59 41.428 5.03V8H40.658ZM46.9662 8V2.456H47.7252V8H46.9662ZM47.3512 1.147C47.1972 1.147 47.0652 1.09567 46.9552 0.993C46.8452 0.883 46.7902 0.747333 46.7902 0.586C46.7902 0.417333 46.8415 0.285333 46.9442 0.19C47.0542 0.0873329 47.1862 0.0359996 47.3402 0.0359996C47.4942 0.0359996 47.6262 0.0873329 47.7362 0.19C47.8462 0.285333 47.9012 0.417333 47.9012 0.586C47.9012 0.747333 47.8462 0.883 47.7362 0.993C47.6335 1.09567 47.5052 1.147 47.3512 1.147ZM51.5031 8C51.1878 8 50.9164 7.95233 50.6891 7.857C50.4618 7.75433 50.2858 7.58933 50.1611 7.362C50.0438 7.12733 49.9851 6.80833 49.9851 6.405V3.116H49.0171V2.456H49.9851L50.0951 1.169H50.7551V2.467H52.4161V3.116H50.7551V6.405C50.7551 6.77167 50.8284 7.021 50.9751 7.153C51.1218 7.27767 51.3821 7.34 51.7561 7.34H52.3281V8H51.5031ZM53.723 8V2.456H54.482V8H53.723ZM54.108 1.147C53.954 1.147 53.822 1.09567 53.712 0.993C53.602 0.883 53.547 0.747333 53.547 0.586C53.547 0.417333 53.5984 0.285333 53.701 0.19C53.811 0.0873329 53.943 0.0359996 54.097 0.0359996C54.251 0.0359996 54.383 0.0873329 54.493 0.19C54.603 0.285333 54.658 0.417333 54.658 0.586C54.658 0.747333 54.603 0.883 54.493 0.993C54.3904 1.09567 54.262 1.147 54.108 1.147ZM58.6009 8.132C58.0949 8.132 57.6366 8.01467 57.2259 7.78C56.8226 7.538 56.5036 7.20067 56.2689 6.768C56.0343 6.328 55.9169 5.81833 55.9169 5.239C55.9169 4.63767 56.0343 4.12067 56.2689 3.688C56.5109 3.25533 56.8373 2.92167 57.2479 2.687C57.6586 2.445 58.1169 2.324 58.6229 2.324C59.1509 2.324 59.6166 2.445 60.0199 2.687C60.4233 2.92167 60.7423 3.25533 60.9769 3.688C61.2116 4.12067 61.3289 4.63767 61.3289 5.239C61.3289 5.81833 61.2079 6.328 60.9659 6.768C60.7313 7.20067 60.4086 7.538 59.9979 7.78C59.5946 8.01467 59.1289 8.132 58.6009 8.132ZM58.6119 7.472C58.9566 7.472 59.2719 7.38767 59.5579 7.219C59.8513 7.05033 60.0859 6.801 60.2619 6.471C60.4453 6.13367 60.5369 5.71933 60.5369 5.228C60.5369 4.72933 60.4489 4.315 60.2729 3.985C60.0969 3.655 59.8623 3.40933 59.5689 3.248C59.2829 3.07933 58.9676 2.995 58.6229 2.995C58.2929 2.995 57.9813 3.07933 57.6879 3.248C57.3946 3.41667 57.1563 3.666 56.9729 3.996C56.7969 4.31867 56.7089 4.72933 56.7089 5.228C56.7089 5.71933 56.7969 6.13367 56.9729 6.471C57.1489 6.801 57.3799 7.05033 57.6659 7.219C57.9593 7.38767 58.2746 7.472 58.6119 7.472ZM62.6472 8V2.456H63.3512L63.3952 3.446C63.5712 3.094 63.8242 2.819 64.1542 2.621C64.4915 2.423 64.8655 2.324 65.2762 2.324C65.7015 2.324 66.0719 2.40833 66.3872 2.577C66.7025 2.74567 66.9482 3.00233 67.1242 3.347C67.3002 3.68433 67.3882 4.117 67.3882 4.645V8H66.6182V4.733C66.6182 4.14633 66.4899 3.71 66.2332 3.424C65.9765 3.138 65.6099 2.995 65.1332 2.995C64.8105 2.995 64.5172 3.07567 64.2532 3.237C63.9965 3.391 63.7912 3.61833 63.6372 3.919C63.4905 4.21967 63.4172 4.59 63.4172 5.03V8H62.6472ZM74.3168 8.132C73.8108 8.132 73.3524 8.01467 72.9418 7.78C72.5384 7.538 72.2194 7.20067 71.9848 6.768C71.7501 6.328 71.6328 5.81833 71.6328 5.239C71.6328 4.63767 71.7501 4.12067 71.9848 3.688C72.2268 3.25533 72.5531 2.92167 72.9638 2.687C73.3744 2.445 73.8328 2.324 74.3388 2.324C74.8668 2.324 75.3324 2.445 75.7358 2.687C76.1391 2.92167 76.4581 3.25533 76.6928 3.688C76.9274 4.12067 77.0448 4.63767 77.0448 5.239C77.0448 5.81833 76.9238 6.328 76.6818 6.768C76.4471 7.20067 76.1244 7.538 75.7138 7.78C75.3104 8.01467 74.8448 8.132 74.3168 8.132ZM74.3277 7.472C74.6724 7.472 74.9878 7.38767 75.2738 7.219C75.5671 7.05033 75.8018 6.801 75.9778 6.471C76.1611 6.13367 76.2528 5.71933 76.2528 5.228C76.2528 4.72933 76.1648 4.315 75.9888 3.985C75.8128 3.655 75.5781 3.40933 75.2848 3.248C74.9988 3.07933 74.6834 2.995 74.3388 2.995C74.0088 2.995 73.6971 3.07933 73.4038 3.248C73.1104 3.41667 72.8721 3.666 72.6888 3.996C72.5128 4.31867 72.4248 4.72933 72.4248 5.228C72.4248 5.71933 72.5128 6.13367 72.6888 6.471C72.8648 6.801 73.0958 7.05033 73.3818 7.219C73.6751 7.38767 73.9904 7.472 74.3277 7.472ZM78.693 8V1.499C78.693 1.17633 78.7444 0.912333 78.847 0.706999C78.957 0.494333 79.1184 0.336666 79.331 0.234C79.5437 0.131333 79.8114 0.0799997 80.134 0.0799997H80.761V0.74H80.266C79.9727 0.74 79.7637 0.798666 79.639 0.915999C79.5217 1.03333 79.463 1.23867 79.463 1.532V8H78.693ZM77.835 3.116V2.456H80.904V3.116H77.835ZM87.1564 8C86.8411 8 86.5697 7.95233 86.3424 7.857C86.1151 7.75433 85.9391 7.58933 85.8144 7.362C85.6971 7.12733 85.6384 6.80833 85.6384 6.405V3.116H84.6704V2.456H85.6384L85.7484 1.169H86.4084V2.467H88.0694V3.116H86.4084V6.405C86.4084 6.77167 86.4817 7.021 86.6284 7.153C86.7751 7.27767 87.0354 7.34 87.4094 7.34H87.9814V8H87.1564ZM89.2664 8V0.0799997H90.0364V3.446C90.227 3.094 90.491 2.819 90.8284 2.621C91.1657 2.423 91.536 2.324 91.9394 2.324C92.3574 2.324 92.7204 2.40833 93.0284 2.577C93.3437 2.74567 93.5857 3.00233 93.7544 3.347C93.9304 3.69167 94.0184 4.13167 94.0184 4.667V8H93.2594V4.755C93.2594 4.161 93.1347 3.721 92.8854 3.435C92.6434 3.14167 92.284 2.995 91.8074 2.995C91.4774 2.995 91.1767 3.07567 90.9054 3.237C90.6414 3.39833 90.4287 3.633 90.2674 3.941C90.1134 4.24167 90.0364 4.61567 90.0364 5.063V8H89.2664ZM97.8513 8.132C97.338 8.132 96.8833 8.011 96.4873 7.769C96.0987 7.527 95.7907 7.18967 95.5633 6.757C95.3433 6.317 95.2333 5.80367 95.2333 5.217C95.2333 4.63033 95.3433 4.12067 95.5633 3.688C95.7833 3.25533 96.0913 2.92167 96.4873 2.687C96.8907 2.445 97.3527 2.324 97.8733 2.324C98.4087 2.324 98.8597 2.445 99.2263 2.687C99.6003 2.929 99.8827 3.24433 100.073 3.633C100.271 4.02167 100.37 4.447 100.37 4.909C100.37 4.98233 100.37 5.05933 100.37 5.14C100.37 5.21333 100.367 5.30133 100.359 5.404H95.8163V4.755H99.6223C99.6077 4.19033 99.4317 3.754 99.0943 3.446C98.7643 3.138 98.3463 2.984 97.8403 2.984C97.5103 2.984 97.2023 3.061 96.9163 3.215C96.6377 3.36167 96.4103 3.58167 96.2343 3.875C96.0657 4.161 95.9813 4.524 95.9813 4.964V5.25C95.9813 5.74867 96.0693 6.163 96.2453 6.493C96.4213 6.823 96.6523 7.06867 96.9383 7.23C97.2317 7.39133 97.536 7.472 97.8513 7.472C98.2693 7.472 98.614 7.38033 98.8853 7.197C99.1567 7.00633 99.351 6.746 99.4683 6.416H100.227C100.132 6.73867 99.978 7.032 99.7653 7.296C99.56 7.56 99.296 7.76533 98.9733 7.912C98.6507 8.05867 98.2767 8.132 97.8513 8.132ZM101.741 8V2.456H102.5V8H101.741ZM102.126 1.147C101.972 1.147 101.84 1.09567 101.73 0.993C101.62 0.883 101.565 0.747333 101.565 0.586C101.565 0.417333 101.616 0.285333 101.719 0.19C101.829 0.0873329 101.961 0.0359996 102.115 0.0359996C102.269 0.0359996 102.401 0.0873329 102.511 0.19C102.621 0.285333 102.676 0.417333 102.676 0.586C102.676 0.747333 102.621 0.883 102.511 0.993C102.408 1.09567 102.28 1.147 102.126 1.147ZM104.177 8V2.456H104.881L104.936 3.523C105.053 3.26633 105.211 3.05 105.409 2.874C105.607 2.698 105.845 2.56233 106.124 2.467C106.402 2.37167 106.718 2.324 107.07 2.324V3.127H106.773C106.538 3.127 106.311 3.16 106.091 3.226C105.871 3.28467 105.676 3.38733 105.508 3.534C105.339 3.68067 105.203 3.87867 105.101 4.128C104.998 4.37733 104.947 4.689 104.947 5.063V8H104.177ZM113.622 8.132C113.109 8.132 112.651 8.011 112.247 7.769C111.844 7.527 111.525 7.18967 111.29 6.757C111.056 6.317 110.938 5.811 110.938 5.239C110.938 4.645 111.056 4.13533 111.29 3.71C111.525 3.27733 111.844 2.94 112.247 2.698C112.658 2.44867 113.116 2.324 113.622 2.324C114.268 2.324 114.803 2.49267 115.228 2.83C115.661 3.16 115.936 3.6 116.053 4.15H115.283C115.203 3.78333 115.008 3.501 114.7 3.303C114.4 3.09767 114.037 2.995 113.611 2.995C113.281 2.995 112.973 3.07933 112.687 3.248C112.401 3.40933 112.17 3.655 111.994 3.985C111.818 4.315 111.73 4.733 111.73 5.239C111.73 5.613 111.782 5.93933 111.884 6.218C111.987 6.49667 112.126 6.73133 112.302 6.922C112.478 7.10533 112.68 7.24467 112.907 7.34C113.135 7.43533 113.369 7.483 113.611 7.483C113.89 7.483 114.143 7.439 114.37 7.351C114.605 7.25567 114.803 7.12 114.964 6.944C115.126 6.768 115.232 6.55533 115.283 6.306H116.053C115.943 6.84133 115.672 7.28133 115.239 7.626C114.807 7.96333 114.268 8.132 113.622 8.132ZM119.821 8.132C119.315 8.132 118.856 8.01467 118.446 7.78C118.042 7.538 117.723 7.20067 117.489 6.768C117.254 6.328 117.137 5.81833 117.137 5.239C117.137 4.63767 117.254 4.12067 117.489 3.688C117.731 3.25533 118.057 2.92167 118.468 2.687C118.878 2.445 119.337 2.324 119.843 2.324C120.371 2.324 120.836 2.445 121.24 2.687C121.643 2.92167 121.962 3.25533 122.197 3.688C122.431 4.12067 122.549 4.63767 122.549 5.239C122.549 5.81833 122.428 6.328 122.186 6.768C121.951 7.20067 121.628 7.538 121.218 7.78C120.814 8.01467 120.349 8.132 119.821 8.132ZM119.832 7.472C120.176 7.472 120.492 7.38767 120.778 7.219C121.071 7.05033 121.306 6.801 121.482 6.471C121.665 6.13367 121.757 5.71933 121.757 5.228C121.757 4.72933 121.669 4.315 121.493 3.985C121.317 3.655 121.082 3.40933 120.789 3.248C120.503 3.07933 120.187 2.995 119.843 2.995C119.513 2.995 119.201 3.07933 118.908 3.248C118.614 3.41667 118.376 3.666 118.193 3.996C118.017 4.31867 117.929 4.72933 117.929 5.228C117.929 5.71933 118.017 6.13367 118.193 6.471C118.369 6.801 118.6 7.05033 118.886 7.219C119.179 7.38767 119.494 7.472 119.832 7.472ZM123.867 8V2.456H124.571L124.626 3.292C124.795 2.984 125.029 2.74567 125.33 2.577C125.631 2.40833 125.964 2.324 126.331 2.324C126.602 2.324 126.855 2.36433 127.09 2.445C127.325 2.52567 127.53 2.64667 127.706 2.808C127.889 2.96933 128.032 3.17833 128.135 3.435C128.318 3.09033 128.575 2.819 128.905 2.621C129.242 2.423 129.602 2.324 129.983 2.324C130.408 2.324 130.775 2.40833 131.083 2.577C131.398 2.74567 131.644 3.00233 131.82 3.347C131.996 3.69167 132.084 4.128 132.084 4.656V8H131.314V4.744C131.314 4.15733 131.193 3.721 130.951 3.435C130.709 3.14167 130.372 2.995 129.939 2.995C129.646 2.995 129.378 3.07567 129.136 3.237C128.894 3.391 128.703 3.61833 128.564 3.919C128.425 4.21233 128.355 4.579 128.355 5.019V8H127.585V4.744C127.585 4.15733 127.464 3.721 127.222 3.435C126.987 3.14167 126.654 2.995 126.221 2.995C125.92 2.995 125.649 3.07567 125.407 3.237C125.172 3.391 124.985 3.622 124.846 3.93C124.707 4.23067 124.637 4.60467 124.637 5.052V8H123.867ZM133.535 10.42V2.456H134.239L134.305 3.457C134.422 3.259 134.576 3.07567 134.767 2.907C134.958 2.731 135.185 2.59167 135.449 2.489C135.72 2.379 136.028 2.324 136.373 2.324C136.908 2.324 137.374 2.45233 137.77 2.709C138.173 2.96567 138.485 3.314 138.705 3.754C138.925 4.18667 139.035 4.68167 139.035 5.239C139.035 5.79633 138.921 6.295 138.694 6.735C138.474 7.16767 138.166 7.50867 137.77 7.758C137.374 8.00733 136.905 8.132 136.362 8.132C135.893 8.132 135.478 8.033 135.119 7.835C134.767 7.62967 134.496 7.34367 134.305 6.977V10.42H133.535ZM136.307 7.461C136.688 7.461 137.022 7.36933 137.308 7.186C137.601 7.00267 137.832 6.746 138.001 6.416C138.17 6.07867 138.254 5.68267 138.254 5.228C138.254 4.78067 138.17 4.38833 138.001 4.051C137.832 3.71367 137.601 3.45333 137.308 3.27C137.022 3.08667 136.688 2.995 136.307 2.995C135.926 2.995 135.585 3.08667 135.284 3.27C134.991 3.45333 134.76 3.71367 134.591 4.051C134.43 4.381 134.349 4.77333 134.349 5.228C134.349 5.67533 134.43 6.06767 134.591 6.405C134.76 6.74233 134.991 7.00267 135.284 7.186C135.585 7.36933 135.926 7.461 136.307 7.461ZM140.356 8V0.0799997H141.126V8H140.356ZM145.063 8.132C144.55 8.132 144.095 8.011 143.699 7.769C143.311 7.527 143.003 7.18967 142.775 6.757C142.555 6.317 142.445 5.80367 142.445 5.217C142.445 4.63033 142.555 4.12067 142.775 3.688C142.995 3.25533 143.303 2.92167 143.699 2.687C144.103 2.445 144.565 2.324 145.085 2.324C145.621 2.324 146.072 2.445 146.438 2.687C146.812 2.929 147.095 3.24433 147.285 3.633C147.483 4.02167 147.582 4.447 147.582 4.909C147.582 4.98233 147.582 5.05933 147.582 5.14C147.582 5.21333 147.579 5.30133 147.571 5.404H143.028V4.755H146.834C146.82 4.19033 146.644 3.754 146.306 3.446C145.976 3.138 145.558 2.984 145.052 2.984C144.722 2.984 144.414 3.061 144.128 3.215C143.85 3.36167 143.622 3.58167 143.446 3.875C143.278 4.161 143.193 4.524 143.193 4.964V5.25C143.193 5.74867 143.281 6.163 143.457 6.493C143.633 6.823 143.864 7.06867 144.15 7.23C144.444 7.39133 144.748 7.472 145.063 7.472C145.481 7.472 145.826 7.38033 146.097 7.197C146.369 7.00633 146.563 6.746 146.68 6.416H147.439C147.344 6.73867 147.19 7.032 146.977 7.296C146.772 7.56 146.508 7.76533 146.185 7.912C145.863 8.05867 145.489 8.132 145.063 8.132ZM150.729 8C150.413 8 150.142 7.95233 149.915 7.857C149.687 7.75433 149.511 7.58933 149.387 7.362C149.269 7.12733 149.211 6.80833 149.211 6.405V3.116H148.243V2.456H149.211L149.321 1.169H149.981V2.467H151.642V3.116H149.981V6.405C149.981 6.77167 150.054 7.021 150.201 7.153C150.347 7.27767 150.608 7.34 150.982 7.34H151.554V8H150.729ZM152.949 8V2.456H153.708V8H152.949ZM153.334 1.147C153.18 1.147 153.048 1.09567 152.938 0.993C152.828 0.883 152.773 0.747333 152.773 0.586C152.773 0.417333 152.824 0.285333 152.927 0.19C153.037 0.0873329 153.169 0.0359996 153.323 0.0359996C153.477 0.0359996 153.609 0.0873329 153.719 0.19C153.829 0.285333 153.884 0.417333 153.884 0.586C153.884 0.747333 153.829 0.883 153.719 0.993C153.616 1.09567 153.488 1.147 153.334 1.147ZM157.827 8.132C157.321 8.132 156.862 8.01467 156.452 7.78C156.048 7.538 155.729 7.20067 155.495 6.768C155.26 6.328 155.143 5.81833 155.143 5.239C155.143 4.63767 155.26 4.12067 155.495 3.688C155.737 3.25533 156.063 2.92167 156.474 2.687C156.884 2.445 157.343 2.324 157.849 2.324C158.377 2.324 158.842 2.445 159.246 2.687C159.649 2.92167 159.968 3.25533 160.203 3.688C160.437 4.12067 160.555 4.63767 160.555 5.239C160.555 5.81833 160.434 6.328 160.192 6.768C159.957 7.20067 159.634 7.538 159.224 7.78C158.82 8.01467 158.355 8.132 157.827 8.132ZM157.838 7.472C158.182 7.472 158.498 7.38767 158.784 7.219C159.077 7.05033 159.312 6.801 159.488 6.471C159.671 6.13367 159.763 5.71933 159.763 5.228C159.763 4.72933 159.675 4.315 159.499 3.985C159.323 3.655 159.088 3.40933 158.795 3.248C158.509 3.07933 158.193 2.995 157.849 2.995C157.519 2.995 157.207 3.07933 156.914 3.248C156.62 3.41667 156.382 3.666 156.199 3.996C156.023 4.31867 155.935 4.72933 155.935 5.228C155.935 5.71933 156.023 6.13367 156.199 6.471C156.375 6.801 156.606 7.05033 156.892 7.219C157.185 7.38767 157.5 7.472 157.838 7.472ZM161.873 8V2.456H162.577L162.621 3.446C162.797 3.094 163.05 2.819 163.38 2.621C163.717 2.423 164.091 2.324 164.502 2.324C164.927 2.324 165.297 2.40833 165.613 2.577C165.928 2.74567 166.174 3.00233 166.35 3.347C166.526 3.68433 166.614 4.117 166.614 4.645V8H165.844V4.733C165.844 4.14633 165.715 3.71 165.459 3.424C165.202 3.138 164.835 2.995 164.359 2.995C164.036 2.995 163.743 3.07567 163.479 3.237C163.222 3.391 163.017 3.61833 162.863 3.919C162.716 4.21967 162.643 4.59 162.643 5.03V8H161.873ZM173.542 8.132C173.036 8.132 172.578 8.01467 172.167 7.78C171.764 7.538 171.445 7.20067 171.21 6.768C170.976 6.328 170.858 5.81833 170.858 5.239C170.858 4.63767 170.976 4.12067 171.21 3.688C171.452 3.25533 171.779 2.92167 172.189 2.687C172.6 2.445 173.058 2.324 173.564 2.324C174.092 2.324 174.558 2.445 174.961 2.687C175.365 2.92167 175.684 3.25533 175.918 3.688C176.153 4.12067 176.27 4.63767 176.27 5.239C176.27 5.81833 176.149 6.328 175.907 6.768C175.673 7.20067 175.35 7.538 174.939 7.78C174.536 8.01467 174.07 8.132 173.542 8.132ZM173.553 7.472C173.898 7.472 174.213 7.38767 174.499 7.219C174.793 7.05033 175.027 6.801 175.203 6.471C175.387 6.13367 175.478 5.71933 175.478 5.228C175.478 4.72933 175.39 4.315 175.214 3.985C175.038 3.655 174.804 3.40933 174.51 3.248C174.224 3.07933 173.909 2.995 173.564 2.995C173.234 2.995 172.923 3.07933 172.629 3.248C172.336 3.41667 172.098 3.666 171.914 3.996C171.738 4.31867 171.65 4.72933 171.65 5.228C171.65 5.71933 171.738 6.13367 171.914 6.471C172.09 6.801 172.321 7.05033 172.607 7.219C172.901 7.38767 173.216 7.472 173.553 7.472ZM177.919 8V1.499C177.919 1.17633 177.97 0.912333 178.073 0.706999C178.183 0.494333 178.344 0.336666 178.557 0.234C178.769 0.131333 179.037 0.0799997 179.36 0.0799997H179.987V0.74H179.492C179.198 0.74 178.989 0.798666 178.865 0.915999C178.747 1.03333 178.689 1.23867 178.689 1.532V8H177.919ZM177.061 3.116V2.456H180.13V3.116H177.061ZM186.382 8C186.067 8 185.795 7.95233 185.568 7.857C185.341 7.75433 185.165 7.58933 185.04 7.362C184.923 7.12733 184.864 6.80833 184.864 6.405V3.116H183.896V2.456H184.864L184.974 1.169H185.634V2.467H187.295V3.116H185.634V6.405C185.634 6.77167 185.707 7.021 185.854 7.153C186.001 7.27767 186.261 7.34 186.635 7.34H187.207V8H186.382ZM188.492 8V0.0799997H189.262V3.446C189.453 3.094 189.717 2.819 190.054 2.621C190.391 2.423 190.762 2.324 191.165 2.324C191.583 2.324 191.946 2.40833 192.254 2.577C192.569 2.74567 192.811 3.00233 192.98 3.347C193.156 3.69167 193.244 4.13167 193.244 4.667V8H192.485V4.755C192.485 4.161 192.36 3.721 192.111 3.435C191.869 3.14167 191.51 2.995 191.033 2.995C190.703 2.995 190.402 3.07567 190.131 3.237C189.867 3.39833 189.654 3.633 189.493 3.941C189.339 4.24167 189.262 4.61567 189.262 5.063V8H188.492ZM197.077 8.132C196.564 8.132 196.109 8.011 195.713 7.769C195.324 7.527 195.016 7.18967 194.789 6.757C194.569 6.317 194.459 5.80367 194.459 5.217C194.459 4.63033 194.569 4.12067 194.789 3.688C195.009 3.25533 195.317 2.92167 195.713 2.687C196.116 2.445 196.578 2.324 197.099 2.324C197.634 2.324 198.085 2.445 198.452 2.687C198.826 2.929 199.108 3.24433 199.299 3.633C199.497 4.02167 199.596 4.447 199.596 4.909C199.596 4.98233 199.596 5.05933 199.596 5.14C199.596 5.21333 199.592 5.30133 199.585 5.404H195.042V4.755H198.848C198.833 4.19033 198.657 3.754 198.32 3.446C197.99 3.138 197.572 2.984 197.066 2.984C196.736 2.984 196.428 3.061 196.142 3.215C195.863 3.36167 195.636 3.58167 195.46 3.875C195.291 4.161 195.207 4.524 195.207 4.964V5.25C195.207 5.74867 195.295 6.163 195.471 6.493C195.647 6.823 195.878 7.06867 196.164 7.23C196.457 7.39133 196.762 7.472 197.077 7.472C197.495 7.472 197.84 7.38033 198.111 7.197C198.382 7.00633 198.577 6.746 198.694 6.416H199.453C199.358 6.73867 199.204 7.032 198.991 7.296C198.786 7.56 198.522 7.76533 198.199 7.912C197.876 8.05867 197.502 8.132 197.077 8.132ZM203.962 8V0.299999H208.637V0.938H204.732V3.809H208.307V4.447H204.732V7.362H208.637V8H203.962ZM209.831 5.096V4.436H214.11V5.096H209.831ZM215.521 8V0.299999H218.106C218.649 0.299999 219.096 0.387999 219.448 0.563999C219.8 0.74 220.06 0.974666 220.229 1.268C220.405 1.56133 220.493 1.88767 220.493 2.247C220.493 2.643 220.405 2.973 220.229 3.237C220.06 3.501 219.837 3.70267 219.558 3.842C219.287 3.98133 219.001 4.06933 218.7 4.106L218.843 3.996C219.166 4.00333 219.466 4.09133 219.745 4.26C220.024 4.42867 220.247 4.656 220.416 4.942C220.585 5.22067 220.669 5.53967 220.669 5.899C220.669 6.28033 220.574 6.63233 220.383 6.955C220.2 7.27033 219.925 7.52333 219.558 7.714C219.191 7.90467 218.733 8 218.183 8H215.521ZM216.291 7.351H218.128C218.685 7.351 219.114 7.219 219.415 6.955C219.723 6.691 219.877 6.328 219.877 5.866C219.877 5.404 219.716 5.03733 219.393 4.766C219.078 4.48733 218.645 4.348 218.095 4.348H216.291V7.351ZM216.291 3.71H218.084C218.605 3.71 219.004 3.58533 219.283 3.336C219.562 3.08667 219.701 2.74933 219.701 2.324C219.701 1.91333 219.565 1.58333 219.294 1.334C219.023 1.07733 218.608 0.949 218.051 0.949H216.291V3.71ZM222.107 8V2.456H222.866V8H222.107ZM222.492 1.147C222.338 1.147 222.206 1.09567 222.096 0.993C221.986 0.883 221.931 0.747333 221.931 0.586C221.931 0.417333 221.982 0.285333 222.085 0.19C222.195 0.0873329 222.327 0.0359996 222.481 0.0359996C222.635 0.0359996 222.767 0.0873329 222.877 0.19C222.987 0.285333 223.042 0.417333 223.042 0.586C223.042 0.747333 222.987 0.883 222.877 0.993C222.774 1.09567 222.646 1.147 222.492 1.147ZM227.898 8L225.181 4.964L227.667 2.456H228.624L225.863 5.217L225.874 4.7L228.888 8H227.898ZM224.543 8V0.0799997H225.313V8H224.543ZM231.882 8.132C231.368 8.132 230.914 8.011 230.518 7.769C230.129 7.527 229.821 7.18967 229.594 6.757C229.374 6.317 229.264 5.80367 229.264 5.217C229.264 4.63033 229.374 4.12067 229.594 3.688C229.814 3.25533 230.122 2.92167 230.518 2.687C230.921 2.445 231.383 2.324 231.904 2.324C232.439 2.324 232.89 2.445 233.257 2.687C233.631 2.929 233.913 3.24433 234.104 3.633C234.302 4.02167 234.401 4.447 234.401 4.909C234.401 4.98233 234.401 5.05933 234.401 5.14C234.401 5.21333 234.397 5.30133 234.39 5.404H229.847V4.755H233.653C233.638 4.19033 233.462 3.754 233.125 3.446C232.795 3.138 232.377 2.984 231.871 2.984C231.541 2.984 231.233 3.061 230.947 3.215C230.668 3.36167 230.441 3.58167 230.265 3.875C230.096 4.161 230.012 4.524 230.012 4.964V5.25C230.012 5.74867 230.1 6.163 230.276 6.493C230.452 6.823 230.683 7.06867 230.969 7.23C231.262 7.39133 231.566 7.472 231.882 7.472C232.3 7.472 232.644 7.38033 232.916 7.197C233.187 7.00633 233.381 6.746 233.499 6.416H234.258C234.162 6.73867 234.008 7.032 233.796 7.296C233.59 7.56 233.326 7.76533 233.004 7.912C232.681 8.05867 232.307 8.132 231.882 8.132ZM241.165 8.132C240.601 8.132 240.109 8.02933 239.691 7.824C239.281 7.61867 238.965 7.33267 238.745 6.966C238.525 6.592 238.415 6.16667 238.415 5.69H239.218C239.218 6.01267 239.292 6.30967 239.438 6.581C239.585 6.85233 239.801 7.07233 240.087 7.241C240.373 7.40233 240.733 7.483 241.165 7.483C241.547 7.483 241.866 7.42067 242.122 7.296C242.386 7.164 242.588 6.99167 242.727 6.779C242.867 6.56633 242.936 6.32433 242.936 6.053C242.936 5.73033 242.867 5.47 242.727 5.272C242.595 5.074 242.412 4.91267 242.177 4.788C241.943 4.66333 241.675 4.557 241.374 4.469C241.081 4.37367 240.769 4.271 240.439 4.161C239.845 3.95567 239.409 3.70267 239.13 3.402C238.852 3.10133 238.709 2.71633 238.701 2.247C238.701 1.84367 238.793 1.488 238.976 1.18C239.167 0.864666 239.442 0.619 239.801 0.443C240.161 0.259666 240.586 0.168 241.077 0.168C241.554 0.168 241.968 0.259666 242.32 0.443C242.68 0.619 242.958 0.868333 243.156 1.191C243.354 1.50633 243.453 1.86933 243.453 2.28H242.661C242.661 2.04533 242.599 1.818 242.474 1.598C242.357 1.37067 242.177 1.18733 241.935 1.048C241.701 0.901333 241.4 0.828 241.033 0.828C240.733 0.828 240.465 0.883 240.23 0.993C240.003 1.09567 239.823 1.24967 239.691 1.455C239.559 1.653 239.493 1.88767 239.493 2.159C239.493 2.423 239.552 2.63933 239.669 2.808C239.787 2.97667 239.952 3.116 240.164 3.226C240.377 3.336 240.626 3.43867 240.912 3.534C241.198 3.622 241.517 3.72467 241.869 3.842C242.229 3.96667 242.548 4.117 242.826 4.293C243.105 4.469 243.325 4.69633 243.486 4.975C243.648 5.24633 243.728 5.591 243.728 6.009C243.728 6.36833 243.633 6.713 243.442 7.043C243.259 7.36567 242.977 7.62967 242.595 7.835C242.214 8.033 241.737 8.132 241.165 8.132ZM246.799 8.132C246.352 8.132 245.978 8.05133 245.677 7.89C245.384 7.72867 245.164 7.51967 245.017 7.263C244.878 7.00633 244.808 6.724 244.808 6.416C244.808 6.03467 244.903 5.712 245.094 5.448C245.292 5.184 245.567 4.986 245.919 4.854C246.271 4.722 246.682 4.656 247.151 4.656H248.647C248.647 4.29667 248.592 3.99233 248.482 3.743C248.372 3.49367 248.211 3.30667 247.998 3.182C247.785 3.05 247.518 2.984 247.195 2.984C246.821 2.984 246.498 3.07933 246.227 3.27C245.956 3.46067 245.787 3.73933 245.721 4.106H244.918C244.962 3.71733 245.094 3.391 245.314 3.127C245.541 2.863 245.82 2.665 246.15 2.533C246.48 2.39367 246.828 2.324 247.195 2.324C247.708 2.324 248.126 2.423 248.449 2.621C248.772 2.81167 249.014 3.07567 249.175 3.413C249.336 3.75033 249.417 4.139 249.417 4.579V8H248.713L248.669 6.988C248.603 7.142 248.511 7.28867 248.394 7.428C248.284 7.56733 248.152 7.68833 247.998 7.791C247.851 7.89367 247.679 7.97433 247.481 8.033C247.283 8.099 247.056 8.132 246.799 8.132ZM246.887 7.461C247.158 7.461 247.4 7.406 247.613 7.296C247.833 7.17867 248.02 7.02833 248.174 6.845C248.328 6.66167 248.445 6.45633 248.526 6.229C248.607 5.99433 248.647 5.75233 248.647 5.503V5.305H247.206C246.817 5.305 246.506 5.35267 246.271 5.448C246.036 5.54333 245.868 5.67167 245.765 5.833C245.662 5.99433 245.611 6.18133 245.611 6.394C245.611 6.60667 245.659 6.79367 245.754 6.955C245.849 7.109 245.992 7.23367 246.183 7.329C246.381 7.417 246.616 7.461 246.887 7.461ZM251.202 8V1.499C251.202 1.17633 251.253 0.912333 251.356 0.706999C251.466 0.494333 251.627 0.336666 251.84 0.234C252.052 0.131333 252.32 0.0799997 252.643 0.0799997H253.27V0.74H252.775C252.481 0.74 252.272 0.798666 252.148 0.915999C252.03 1.03333 251.972 1.23867 251.972 1.532V8H251.202ZM250.344 3.116V2.456H253.413V3.116H250.344ZM256.696 8.132C256.183 8.132 255.728 8.011 255.332 7.769C254.943 7.527 254.635 7.18967 254.408 6.757C254.188 6.317 254.078 5.80367 254.078 5.217C254.078 4.63033 254.188 4.12067 254.408 3.688C254.628 3.25533 254.936 2.92167 255.332 2.687C255.735 2.445 256.197 2.324 256.718 2.324C257.253 2.324 257.704 2.445 258.071 2.687C258.445 2.929 258.727 3.24433 258.918 3.633C259.116 4.02167 259.215 4.447 259.215 4.909C259.215 4.98233 259.215 5.05933 259.215 5.14C259.215 5.21333 259.211 5.30133 259.204 5.404H254.661V4.755H258.467C258.452 4.19033 258.276 3.754 257.939 3.446C257.609 3.138 257.191 2.984 256.685 2.984C256.355 2.984 256.047 3.061 255.761 3.215C255.482 3.36167 255.255 3.58167 255.079 3.875C254.91 4.161 254.826 4.524 254.826 4.964V5.25C254.826 5.74867 254.914 6.163 255.09 6.493C255.266 6.823 255.497 7.06867 255.783 7.23C256.076 7.39133 256.381 7.472 256.696 7.472C257.114 7.472 257.459 7.38033 257.73 7.197C258.001 7.00633 258.196 6.746 258.313 6.416H259.072C258.977 6.73867 258.823 7.032 258.61 7.296C258.405 7.56 258.141 7.76533 257.818 7.912C257.495 8.05867 257.121 8.132 256.696 8.132ZM262.361 8C262.046 8 261.775 7.95233 261.547 7.857C261.32 7.75433 261.144 7.58933 261.019 7.362C260.902 7.12733 260.843 6.80833 260.843 6.405V3.116H259.875V2.456H260.843L260.953 1.169H261.613V2.467H263.274V3.116H261.613V6.405C261.613 6.77167 261.687 7.021 261.833 7.153C261.98 7.27767 262.24 7.34 262.614 7.34H263.186V8H262.361ZM265.043 10.42L266.407 7.384H266.11L263.921 2.456H264.757L266.649 6.856L268.64 2.456H269.432L265.846 10.42H265.043ZM276.85 8.132C276.11 8.132 275.468 7.967 274.925 7.637C274.383 7.29967 273.965 6.834 273.671 6.24C273.378 5.63867 273.231 4.942 273.231 4.15C273.231 3.358 273.378 2.665 273.671 2.071C273.965 1.46967 274.383 1.004 274.925 0.674C275.475 0.336667 276.117 0.168 276.85 0.168C277.716 0.168 278.416 0.373333 278.951 0.784C279.494 1.18733 279.842 1.75933 279.996 2.5H279.149C279.032 2.00133 278.783 1.60167 278.401 1.301C278.02 0.993 277.503 0.839 276.85 0.839C276.286 0.839 275.791 0.971 275.365 1.235C274.94 1.499 274.61 1.88033 274.375 2.379C274.141 2.87033 274.023 3.46067 274.023 4.15C274.023 4.83933 274.141 5.43333 274.375 5.932C274.61 6.42333 274.94 6.801 275.365 7.065C275.791 7.329 276.286 7.461 276.85 7.461C277.503 7.461 278.016 7.31067 278.39 7.01C278.772 6.70933 279.025 6.31333 279.149 5.822H279.996C279.835 6.548 279.487 7.11633 278.951 7.527C278.423 7.93033 277.723 8.132 276.85 8.132ZM283.757 8.132C283.251 8.132 282.793 8.01467 282.382 7.78C281.979 7.538 281.66 7.20067 281.425 6.768C281.191 6.328 281.073 5.81833 281.073 5.239C281.073 4.63767 281.191 4.12067 281.425 3.688C281.667 3.25533 281.994 2.92167 282.404 2.687C282.815 2.445 283.273 2.324 283.779 2.324C284.307 2.324 284.773 2.445 285.176 2.687C285.58 2.92167 285.899 3.25533 286.133 3.688C286.368 4.12067 286.485 4.63767 286.485 5.239C286.485 5.81833 286.364 6.328 286.122 6.768C285.888 7.20067 285.565 7.538 285.154 7.78C284.751 8.01467 284.285 8.132 283.757 8.132ZM283.768 7.472C284.113 7.472 284.428 7.38767 284.714 7.219C285.008 7.05033 285.242 6.801 285.418 6.471C285.602 6.13367 285.693 5.71933 285.693 5.228C285.693 4.72933 285.605 4.315 285.429 3.985C285.253 3.655 285.019 3.40933 284.725 3.248C284.439 3.07933 284.124 2.995 283.779 2.995C283.449 2.995 283.138 3.07933 282.844 3.248C282.551 3.41667 282.313 3.666 282.129 3.996C281.953 4.31867 281.865 4.72933 281.865 5.228C281.865 5.71933 281.953 6.13367 282.129 6.471C282.305 6.801 282.536 7.05033 282.822 7.219C283.116 7.38767 283.431 7.472 283.768 7.472ZM289.805 8.132C289.387 8.132 289.017 8.05133 288.694 7.89C288.379 7.72133 288.133 7.46833 287.957 7.131C287.781 6.78633 287.693 6.34633 287.693 5.811V2.456H288.463V5.723C288.463 6.30967 288.592 6.746 288.848 7.032C289.112 7.318 289.475 7.461 289.937 7.461C290.267 7.461 290.561 7.384 290.817 7.23C291.081 7.076 291.287 6.84867 291.433 6.548C291.587 6.24 291.664 5.866 291.664 5.426V2.456H292.434V8H291.73L291.686 7.01C291.51 7.36933 291.254 7.648 290.916 7.846C290.586 8.03667 290.216 8.132 289.805 8.132ZM294.002 8V2.456H294.706L294.761 3.523C294.878 3.26633 295.036 3.05 295.234 2.874C295.432 2.698 295.67 2.56233 295.949 2.467C296.227 2.37167 296.543 2.324 296.895 2.324V3.127H296.598C296.363 3.127 296.136 3.16 295.916 3.226C295.696 3.28467 295.501 3.38733 295.333 3.534C295.164 3.68067 295.028 3.87867 294.926 4.128C294.823 4.37733 294.772 4.689 294.772 5.063V8H294.002ZM300.011 8.132C299.571 8.132 299.183 8.05867 298.845 7.912C298.515 7.76533 298.248 7.55633 298.042 7.285C297.844 7.00633 297.723 6.67633 297.679 6.295H298.471C298.515 6.50767 298.6 6.702 298.724 6.878C298.856 7.054 299.032 7.197 299.252 7.307C299.472 7.40967 299.733 7.461 300.033 7.461C300.312 7.461 300.539 7.42067 300.715 7.34C300.899 7.252 301.034 7.13833 301.122 6.999C301.218 6.85233 301.265 6.691 301.265 6.515C301.265 6.273 301.207 6.086 301.089 5.954C300.979 5.81467 300.818 5.712 300.605 5.646C300.393 5.58 300.136 5.51767 299.835 5.459C299.586 5.415 299.348 5.35633 299.12 5.283C298.893 5.20967 298.688 5.11433 298.504 4.997C298.328 4.87967 298.189 4.733 298.086 4.557C297.984 4.37367 297.932 4.161 297.932 3.919C297.932 3.60367 298.009 3.32867 298.163 3.094C298.325 2.852 298.552 2.665 298.845 2.533C299.139 2.39367 299.483 2.324 299.879 2.324C300.444 2.324 300.906 2.467 301.265 2.753C301.625 3.03167 301.834 3.44233 301.892 3.985H301.122C301.093 3.68433 300.968 3.446 300.748 3.27C300.528 3.094 300.231 3.006 299.857 3.006C299.491 3.006 299.208 3.083 299.01 3.237C298.82 3.38367 298.724 3.58533 298.724 3.842C298.724 4.00333 298.776 4.14267 298.878 4.26C298.981 4.37733 299.131 4.48 299.329 4.568C299.535 4.64867 299.784 4.71833 300.077 4.777C300.429 4.843 300.752 4.931 301.045 5.041C301.346 5.14367 301.588 5.305 301.771 5.525C301.962 5.73767 302.057 6.042 302.057 6.438C302.065 6.768 301.984 7.06133 301.815 7.318C301.647 7.57467 301.408 7.77633 301.1 7.923C300.792 8.06233 300.429 8.132 300.011 8.132ZM305.799 8.132C305.285 8.132 304.831 8.011 304.435 7.769C304.046 7.527 303.738 7.18967 303.511 6.757C303.291 6.317 303.181 5.80367 303.181 5.217C303.181 4.63033 303.291 4.12067 303.511 3.688C303.731 3.25533 304.039 2.92167 304.435 2.687C304.838 2.445 305.3 2.324 305.821 2.324C306.356 2.324 306.807 2.445 307.174 2.687C307.548 2.929 307.83 3.24433 308.021 3.633C308.219 4.02167 308.318 4.447 308.318 4.909C308.318 4.98233 308.318 5.05933 308.318 5.14C308.318 5.21333 308.314 5.30133 308.307 5.404H303.764V4.755H307.57C307.555 4.19033 307.379 3.754 307.042 3.446C306.712 3.138 306.294 2.984 305.788 2.984C305.458 2.984 305.15 3.061 304.864 3.215C304.585 3.36167 304.358 3.58167 304.182 3.875C304.013 4.161 303.929 4.524 303.929 4.964V5.25C303.929 5.74867 304.017 6.163 304.193 6.493C304.369 6.823 304.6 7.06867 304.886 7.23C305.179 7.39133 305.483 7.472 305.799 7.472C306.217 7.472 306.561 7.38033 306.833 7.197C307.104 7.00633 307.298 6.746 307.416 6.416H308.175C308.079 6.73867 307.925 7.032 307.713 7.296C307.507 7.56 307.243 7.76533 306.921 7.912C306.598 8.05867 306.224 8.132 305.799 8.132ZM309.831 8.055C309.67 8.055 309.534 8 309.424 7.89C309.321 7.78 309.27 7.64433 309.27 7.483C309.27 7.32167 309.321 7.18967 309.424 7.087C309.534 6.977 309.67 6.922 309.831 6.922C309.992 6.922 310.124 6.977 310.227 7.087C310.337 7.18967 310.392 7.32533 310.392 7.494C310.392 7.648 310.337 7.78 310.227 7.89C310.124 8 309.992 8.055 309.831 8.055Z" fill="black"/>
</svg>
