<svg width="72" height="28" viewBox="0 0 72 28" fill="none" xmlns="http://www.w3.org/2000/svg">
<path d="M5 18.3281C5.55229 18.3281 6 18.7758 6 19.3281V20.3281H18V19.3281C18 18.7758 18.4477 18.3281 19 18.3281C19.5523 18.3281 20 18.7758 20 19.3281V21.3281C20 21.8804 19.5523 22.3281 19 22.3281H5C4.44772 22.3281 4 21.8804 4 21.3281L4 19.3281C4 18.7758 4.44772 18.3281 5 18.3281Z" fill="#1C3A29"/>
<path d="M12.7071 18.0352C12.3166 18.4258 11.6834 18.4258 11.2929 18.0352L6.2929 13.0352C5.90237 12.6447 5.90237 12.0116 6.2929 11.621C6.68342 11.2305 7.31659 11.2305 7.70711 11.621L11 14.9139L11 6.32813C11 5.77584 11.4477 5.32813 12 5.32812C12.5523 5.32812 13 5.77584 13 6.32812L13 14.9139L16.2929 11.621C16.6834 11.2305 17.3166 11.2305 17.7071 11.621C18.0976 12.0116 18.0976 12.6447 17.7071 13.0352L12.7071 18.0352Z" fill="#1C3A29"/>
<path d="M34.562 21.0441C33.65 21.0441 32.834 20.8881 32.114 20.5761C31.406 20.2641 30.848 19.8081 30.44 19.2081C30.032 18.6081 29.816 17.8821 29.792 17.0301H32.366C32.378 17.4021 32.474 17.7381 32.654 18.0381C32.834 18.3381 33.086 18.5781 33.41 18.7581C33.734 18.9261 34.118 19.0101 34.562 19.0101C34.934 19.0101 35.258 18.9501 35.534 18.8301C35.822 18.6981 36.044 18.5181 36.2 18.2901C36.368 18.0621 36.452 17.7921 36.452 17.4801C36.452 17.1201 36.362 16.8201 36.182 16.5801C36.002 16.3281 35.756 16.1181 35.444 15.9501C35.132 15.7821 34.778 15.6321 34.382 15.5001C33.986 15.3561 33.566 15.2121 33.122 15.0681C32.126 14.7441 31.37 14.3121 30.854 13.7721C30.338 13.2321 30.08 12.5181 30.08 11.6301C30.08 10.8741 30.26 10.2261 30.62 9.68612C30.98 9.14612 31.484 8.73212 32.132 8.44412C32.78 8.15612 33.518 8.01212 34.346 8.01212C35.198 8.01212 35.948 8.16212 36.596 8.46212C37.244 8.75012 37.754 9.17012 38.126 9.72212C38.498 10.2741 38.696 10.9221 38.72 11.6661H36.11C36.098 11.3901 36.02 11.1321 35.876 10.8921C35.732 10.6401 35.528 10.4421 35.264 10.2981C35 10.1421 34.682 10.0641 34.31 10.0641C33.998 10.0521 33.716 10.1001 33.464 10.2081C33.212 10.3161 33.008 10.4781 32.852 10.6941C32.708 10.8981 32.636 11.1561 32.636 11.4681C32.636 11.7681 32.708 12.0201 32.852 12.2241C32.996 12.4281 33.2 12.6081 33.464 12.7641C33.74 12.9081 34.052 13.0461 34.4 13.1781C34.76 13.2981 35.15 13.4241 35.57 13.5561C36.206 13.7721 36.782 14.0301 37.298 14.3301C37.826 14.6181 38.246 14.9961 38.558 15.4641C38.87 15.9321 39.026 16.5501 39.026 17.3181C39.026 17.9781 38.852 18.5901 38.504 19.1541C38.168 19.7181 37.67 20.1741 37.01 20.5221C36.35 20.8701 35.534 21.0441 34.562 21.0441ZM44.4361 21.0441C43.6801 21.0441 43.0561 20.9241 42.5641 20.6841C42.0721 20.4321 41.7061 20.1021 41.4661 19.6941C41.2261 19.2741 41.1061 18.8181 41.1061 18.3261C41.1061 17.7741 41.2441 17.2881 41.5201 16.8681C41.8081 16.4481 42.2401 16.1241 42.8161 15.8961C43.3921 15.6561 44.1121 15.5361 44.9761 15.5361H47.2261C47.2261 15.0921 47.1661 14.7261 47.0461 14.4381C46.9261 14.1501 46.7341 13.9341 46.4701 13.7901C46.2181 13.6461 45.8881 13.5741 45.4801 13.5741C45.0241 13.5741 44.6341 13.6761 44.3101 13.8801C43.9861 14.0841 43.7881 14.3901 43.7161 14.7981H41.3401C41.4121 14.1381 41.6281 13.5741 41.9881 13.1061C42.3601 12.6261 42.8461 12.2541 43.4461 11.9901C44.0581 11.7261 44.7421 11.5941 45.4981 11.5941C46.3501 11.5941 47.0881 11.7381 47.7121 12.0261C48.3361 12.3141 48.8161 12.7281 49.1521 13.2681C49.4881 13.8081 49.6561 14.4741 49.6561 15.2661V20.8281H47.6041L47.3341 19.4421C47.2021 19.6821 47.0461 19.8981 46.8661 20.0901C46.6861 20.2821 46.4761 20.4501 46.2361 20.5941C45.9961 20.7381 45.7261 20.8461 45.4261 20.9181C45.1261 21.0021 44.7961 21.0441 44.4361 21.0441ZM45.0121 19.1721C45.3241 19.1721 45.6001 19.1181 45.8401 19.0101C46.0921 18.8901 46.3081 18.7341 46.4881 18.5421C46.6681 18.3381 46.8061 18.1101 46.9021 17.8581C47.0101 17.5941 47.0821 17.3181 47.1181 17.0301V17.0121H45.2641C44.8921 17.0121 44.5861 17.0601 44.3461 17.1561C44.1181 17.2521 43.9441 17.3841 43.8241 17.5521C43.7161 17.7081 43.6621 17.8941 43.6621 18.1101C43.6621 18.3381 43.7161 18.5301 43.8241 18.6861C43.9441 18.8421 44.1061 18.9621 44.3101 19.0461C44.5141 19.1301 44.7481 19.1721 45.0121 19.1721ZM54.3957 20.8281L51.1017 11.8101H53.6577L55.8897 18.5421L58.1217 11.8101H60.6417L57.3477 20.8281H54.3957ZM66.4385 21.0441C65.5265 21.0441 64.7165 20.8521 64.0085 20.4681C63.3125 20.0721 62.7665 19.5261 62.3705 18.8301C61.9865 18.1341 61.7945 17.3241 61.7945 16.4001C61.7945 15.4641 61.9865 14.6361 62.3705 13.9161C62.7545 13.1961 63.2945 12.6321 63.9905 12.2241C64.6985 11.8041 65.5145 11.5941 66.4385 11.5941C67.3385 11.5941 68.1245 11.7921 68.7965 12.1881C69.4685 12.5721 69.9905 13.1001 70.3625 13.7721C70.7465 14.4441 70.9385 15.2061 70.9385 16.0581C70.9385 16.1781 70.9385 16.3101 70.9385 16.4541C70.9385 16.5981 70.9265 16.7541 70.9025 16.9221H63.5225V15.4281H68.4725C68.4485 14.8641 68.2445 14.4141 67.8605 14.0781C67.4885 13.7421 67.0205 13.5741 66.4565 13.5741C66.0365 13.5741 65.6525 13.6701 65.3045 13.8621C64.9565 14.0421 64.6805 14.3241 64.4765 14.7081C64.2845 15.0801 64.1885 15.5541 64.1885 16.1301V16.6521C64.1885 17.1441 64.2785 17.5701 64.4585 17.9301C64.6505 18.2901 64.9145 18.5721 65.2505 18.7761C65.5985 18.9681 65.9885 19.0641 66.4205 19.0641C66.8645 19.0641 67.2305 18.9681 67.5185 18.7761C67.8185 18.5841 68.0465 18.3321 68.2025 18.0201H70.6865C70.5185 18.5841 70.2305 19.0941 69.8225 19.5501C69.4265 20.0061 68.9405 20.3721 68.3645 20.6481C67.8005 20.9121 67.1585 21.0441 66.4385 21.0441Z" fill="#1C3A29"/>
</svg>
