<svg width="102" height="27" viewBox="0 0 102 27" fill="none" xmlns="http://www.w3.org/2000/svg">
<path d="M0.722656 1H100.723" stroke="black" stroke-linecap="round" stroke-linejoin="round"/>
<path d="M4.86666 23.168C4.14799 23.168 3.52266 23.0373 2.99066 22.776C2.46799 22.5147 2.06666 22.1507 1.78666 21.684C1.50666 21.208 1.36666 20.6667 1.36666 20.06H2.38866C2.38866 20.4707 2.48199 20.8487 2.66866 21.194C2.85532 21.5393 3.13066 21.8193 3.49466 22.034C3.85866 22.2393 4.31599 22.342 4.86666 22.342C5.35199 22.342 5.75799 22.2627 6.08466 22.104C6.42066 21.936 6.67732 21.7167 6.85466 21.446C7.03199 21.1753 7.12066 20.8673 7.12066 20.522C7.12066 20.1113 7.03199 19.78 6.85466 19.528C6.68666 19.276 6.45332 19.0707 6.15466 18.912C5.85599 18.7533 5.51532 18.618 5.13266 18.506C4.75932 18.3847 4.36266 18.254 3.94266 18.114C3.18666 17.8527 2.63132 17.5307 2.27666 17.148C1.92199 16.7653 1.73999 16.2753 1.73066 15.678C1.73066 15.1647 1.84732 14.712 2.08066 14.32C2.32332 13.9187 2.67332 13.606 3.13066 13.382C3.58799 13.1487 4.12932 13.032 4.75466 13.032C5.36132 13.032 5.88866 13.1487 6.33666 13.382C6.79399 13.606 7.14866 13.9233 7.40066 14.334C7.65266 14.7353 7.77866 15.1973 7.77866 15.72H6.77066C6.77066 15.4213 6.69132 15.132 6.53266 14.852C6.38332 14.5627 6.15466 14.3293 5.84666 14.152C5.54799 13.9653 5.16532 13.872 4.69866 13.872C4.31599 13.872 3.97532 13.942 3.67666 14.082C3.38732 14.2127 3.15866 14.4087 2.99066 14.67C2.82266 14.922 2.73866 15.2207 2.73866 15.566C2.73866 15.902 2.81332 16.1773 2.96266 16.392C3.11199 16.6067 3.32199 16.784 3.59266 16.924C3.86332 17.064 4.18066 17.1947 4.54466 17.316C4.90866 17.428 5.31466 17.5587 5.76266 17.708C6.21999 17.8667 6.62599 18.058 6.98066 18.282C7.33532 18.506 7.61532 18.7953 7.82066 19.15C8.02599 19.4953 8.12866 19.934 8.12866 20.466C8.12866 20.9233 8.00732 21.362 7.76466 21.782C7.53132 22.1927 7.17199 22.5287 6.68666 22.79C6.20132 23.042 5.59466 23.168 4.86666 23.168ZM9.88106 23V13.2H10.8611V23H9.88106ZM17.2113 23.168C16.2966 23.168 15.4939 22.958 14.8033 22.538C14.1126 22.1087 13.5759 21.516 13.1933 20.76C12.8199 19.9947 12.6333 19.108 12.6333 18.1C12.6333 17.1013 12.8246 16.224 13.2073 15.468C13.5993 14.7027 14.1453 14.1053 14.8453 13.676C15.5546 13.2467 16.3899 13.032 17.3513 13.032C18.4339 13.032 19.3393 13.2933 20.0673 13.816C20.7953 14.3387 21.2619 15.0667 21.4673 16H20.3193C20.1886 15.3653 19.8619 14.8613 19.3393 14.488C18.8259 14.1147 18.1633 13.928 17.3513 13.928C16.6046 13.928 15.9513 14.096 15.3913 14.432C14.8406 14.768 14.4113 15.2487 14.1033 15.874C13.7953 16.49 13.6413 17.232 13.6413 18.1C13.6413 18.968 13.7906 19.7147 14.0893 20.34C14.3973 20.9653 14.8173 21.446 15.3493 21.782C15.8906 22.118 16.5113 22.286 17.2113 22.286C18.3126 22.286 19.1386 21.9593 19.6893 21.306C20.2493 20.6527 20.5666 19.752 20.6413 18.604H17.6873V17.806H21.6493V23H20.7533L20.6693 21.264C20.4266 21.6653 20.1466 22.0107 19.8293 22.3C19.5213 22.5893 19.1526 22.8087 18.7233 22.958C18.3033 23.098 17.7993 23.168 17.2113 23.168ZM23.6076 23V13.2H24.5876L30.0056 21.362V13.2H30.9856V23H30.0056L24.5876 14.824V23H23.6076ZM32.5343 23L36.1463 13.2H37.1543L40.7663 23H39.7303L36.6503 14.488L33.5563 23H32.5343ZM34.1863 20.354L34.4803 19.542H38.8063L39.1003 20.354H34.1863ZM43.4853 23V14.012H40.5453V13.2H47.4053V14.012H44.4653V23H43.4853ZM52.3719 23.168C51.7093 23.168 51.1073 23.0373 50.5659 22.776C50.0339 22.5147 49.6093 22.1087 49.2919 21.558C48.9746 20.998 48.8159 20.2887 48.8159 19.43V13.2H49.7959V19.444C49.7959 20.1067 49.9033 20.6527 50.1179 21.082C50.3419 21.502 50.6499 21.81 51.0419 22.006C51.4339 22.202 51.8819 22.3 52.3859 22.3C52.8993 22.3 53.3473 22.202 53.7299 22.006C54.1126 21.81 54.4113 21.502 54.6259 21.082C54.8406 20.6527 54.9479 20.1067 54.9479 19.444V13.2H55.9279V19.43C55.9279 20.2887 55.7693 20.998 55.4519 21.558C55.1346 22.1087 54.7053 22.5147 54.1639 22.776C53.6319 23.0373 53.0346 23.168 52.3719 23.168ZM58.0061 23V13.2H61.0301C61.7861 13.2 62.4021 13.326 62.8781 13.578C63.3634 13.83 63.7181 14.1707 63.9421 14.6C64.1661 15.02 64.2781 15.5007 64.2781 16.042C64.2781 16.5647 64.1614 17.0453 63.9281 17.484C63.6947 17.9133 63.3354 18.2587 62.8501 18.52C62.3647 18.772 61.7347 18.898 60.9601 18.898H58.9861V23H58.0061ZM63.2141 23L61.0161 18.59H62.1361L64.3901 23H63.2141ZM58.9861 18.1H60.9601C61.7534 18.1 62.3367 17.9087 62.7101 17.526C63.0834 17.1433 63.2701 16.6487 63.2701 16.042C63.2701 15.4167 63.0881 14.9267 62.7241 14.572C62.3601 14.208 61.7674 14.026 60.9461 14.026H58.9861V18.1ZM66.2229 23V13.2H72.1729V14.012H67.2029V17.666H71.7529V18.478H67.2029V22.188H72.1729V23H66.2229Z" fill="black"/>
</svg>
