<svg width="260" height="171" viewBox="0 0 260 171" fill="none" xmlns="http://www.w3.org/2000/svg">
<path fill-rule="evenodd" clip-rule="evenodd" d="M257.537 132.503C250.247 130.54 242.535 131.662 235.384 134.046C233.422 134.607 230.477 135.869 228.374 134.747C220.242 130.82 232.16 113.431 230.057 107.4C228.234 102.212 189.957 131.101 187.013 133.485C178.74 139.795 170.609 146.387 162.056 152.136C159.532 153.679 156.307 157.606 153.223 158.026C147.194 158.868 149.717 152.277 151.12 149.332C157.008 136.149 165.701 123.668 170.889 110.345C173.833 103.053 177.338 95.0594 178.32 87.2061C178.881 81.7368 174.675 83.1392 171.31 85.8037C161.775 92.9558 153.503 101.931 145.091 110.345C132.612 122.827 120.134 136.009 105.692 146.387C103.589 147.789 83.6795 162.935 81.8568 152.978C81.0156 147.929 84.661 142.179 86.6239 137.692C90.69 128.156 95.3168 119.04 100.084 109.784C104.991 100.108 110.319 90.5718 114.385 80.6149C115.507 77.8101 118.311 70.2373 113.684 73.1823C98.6818 82.7185 86.0631 97.3032 73.3042 109.644C61.8071 120.863 50.3101 132.223 38.5326 143.301C36.4763 148.63 34.4198 153.959 32.3635 159.288C31.8026 160.831 28.2975 160.13 28.9985 158.307C30.1202 155.128 31.2886 151.996 32.5037 148.911C28.0171 153.024 23.4369 157.045 18.7633 160.971C15.6787 163.636 6.84564 173.172 1.79815 170.367C-2.54829 167.843 4.60235 156.484 5.86422 154.1C21.5675 123.528 43.0193 95.9008 63.7701 68.6946C64.5178 67.6662 65.3124 66.6846 66.1536 65.7497C70.6403 55.7928 75.2671 46.1163 80.3146 36.5802C85.9229 26.0623 92.9333 17.3675 102.047 9.65442C103.729 8.25204 117.049 -3.24753 119.573 2.50223C122.097 8.11175 106.393 21.0137 102.888 25.2208C93.6343 36.1594 84.661 47.2382 75.8279 58.5975C74.2389 60.6543 72.6031 62.7579 70.9206 64.9082C66.2938 75.1456 61.9473 85.6634 57.6009 96.0411C52.086 109.41 46.6647 122.78 41.3368 136.149C45.2626 132.363 49.0482 128.576 52.8339 124.79C56.6195 121.144 113.544 62.1034 118.732 70.5177C120.134 73.042 117.61 76.5479 116.628 78.932C113.544 87.0658 109.478 94.779 105.552 102.492C100.084 113.15 94.4755 123.808 89.5683 134.747C88.8672 136.57 81.7166 155.362 88.1662 153.118C105.131 146.947 119.713 130.82 132.332 118.479C143.689 107.4 154.344 95.0594 166.823 85.2427C169.066 83.4196 179.442 75.8468 180.423 83.4196C180.984 89.0292 178.741 95.0594 176.918 100.108C173.272 110.766 168.926 121.003 164.019 131.101C160.513 138.112 156.307 145.124 153.643 152.557C152.522 155.502 152.241 155.923 155.326 153.959C158.691 151.996 162.056 149.612 165.281 147.228C177.058 138.673 188.415 129.558 200.052 120.723C207.063 115.394 214.213 109.364 222.205 105.437C225.43 103.894 229.356 102.212 232.44 104.736C236.226 107.821 231.879 117.778 231.178 120.863C230.758 122.546 227.673 133.344 231.599 132.222C234.123 131.381 236.506 130.68 238.89 129.979C245.199 128.436 252.35 128.296 258.659 129.979C261.042 130.54 259.5 133.064 257.537 132.503ZM75.8279 53.8294C84.2404 44.0128 93.0735 34.3363 101.065 24.9403C105.973 19.1906 111.721 13.7213 116.208 7.55085C120.274 2.08157 114.385 4.6058 111.3 6.70937C107.234 9.51413 103.309 12.5994 99.6632 16.1053C89.5683 26.0622 83.5394 37.5618 77.5104 50.3235C76.9496 51.4454 76.3887 52.614 75.8279 53.8294ZM35.0274 142.46C43.2997 120.583 51.7121 98.7056 61.1061 77.1089C42.4584 100.248 22.9696 124.089 9.36941 149.752C6.84567 154.52 4.18172 159.288 2.35902 164.337C0.816732 168.544 3.48068 168.544 7.2663 166.02C17.0808 159.148 26.1943 151.014 35.0274 142.46Z" fill="black"/>
</svg>
