<svg width="242" height="133" viewBox="0 0 242 133" fill="none" xmlns="http://www.w3.org/2000/svg">
<path fill-rule="evenodd" clip-rule="evenodd" d="M239.112 105.074C226.634 101.008 213.735 112.788 201.256 109.282C197.891 108.44 200.415 104.093 201.677 102.69C202.798 101.428 207.846 95.1175 204.481 95.1175C202.331 95.024 200.134 95.1643 197.891 95.5383C192.283 96.52 186.815 97.7821 181.206 99.1845C177.982 100.026 165.643 108.019 162.559 103.953C160.175 100.867 164.802 96.0992 166.344 93.8554C166.905 93.1542 172.654 84.8802 172.794 81.6547C167.186 87.5447 157.792 95.959 155.688 87.5447C154.146 81.234 167.466 74.5026 172.934 76.7464C173.635 76.0452 174.336 75.2038 175.037 74.5026C182.889 65.3871 192.423 55.8509 199.433 46.0342C205.042 38.1809 214.436 24.9985 208.407 14.4806C202.939 4.80419 192.563 12.5173 188.357 19.2487C181.206 30.608 177.14 43.6502 170.551 55.29C165.503 64.2652 160.035 70.2954 153.866 78.4292C145.874 88.8069 136.34 103.812 124.562 110.263C117.692 113.909 116.01 108.16 120.777 103.251C122.599 101.428 124.282 99.3247 126.105 97.5016C130.451 93.4347 133.676 84.0387 129.329 87.4044C127.647 88.6666 126.105 91.3311 124.703 93.5749C125.404 96.5199 124.142 100.026 120.216 100.587C119.655 100.727 119.094 100.447 118.954 100.026C118.253 98.6235 118.814 96.6602 119.935 94.6968C117.973 93.8554 114.888 93.8554 113.346 94.9773C109.7 97.6418 107.036 101.989 103.251 104.233C102.83 104.513 102.129 104.373 101.849 103.953C99.325 101.288 104.653 100.447 106.896 91.1909C107.036 90.7702 110.401 75.3439 107.878 78.9901C100.867 89.3678 90.6321 99.1844 81.2381 107.318C64.273 122.043 26.5571 146.164 6.50735 122.744C-1.90513 112.928 -0.503031 97.5016 2.58154 86.002C8.33007 64.5456 19.4065 42.2478 35.25 26.4009C49.6914 12.2368 70.5824 -0.384623 91.6135 0.456806C93.4362 0.597044 93.0156 4.38349 91.1929 4.24325C89.5104 4.24325 87.8279 4.24327 86.1454 4.52374C46.6068 8.73089 18.9858 43.7904 7.34856 79.6913C2.7217 94.1358 -1.90518 118.257 16.1816 125.83C31.6045 132.14 49.8316 125.128 63.0111 116.854C78.434 107.038 92.0341 93.8554 102.69 78.9901C104.092 77.167 107.177 71.4173 109.56 74.9233C112.364 78.85 108.579 88.6666 107.597 92.453C107.13 94.0424 106.616 95.6317 106.055 97.2211C108.579 94.5566 111.102 92.1725 114.608 90.4897C118.393 88.5263 121.197 89.0873 122.88 90.63C124.983 88.2459 127.507 86.2826 129.049 85.7216C131.012 84.8802 132.835 86.0021 132.694 88.2459C132.694 93.7152 130.03 98.2028 126.385 101.989C124.142 104.514 117.412 110.824 124.282 106.337C128.909 103.532 132.975 99.7454 136.76 95.959C149.94 82.6364 161.016 67.0699 169.85 50.5218C176.019 39.0223 179.944 25.8399 187.516 15.1818C190.6 10.6942 195.227 6.76752 200.695 6.06633C211.351 4.80419 213.875 18.828 211.772 26.4009C209.108 36.498 201.957 44.772 195.788 53.0461C189.619 61.3201 183.45 69.5943 176.579 77.3074C176.439 77.7281 176.019 78.1487 175.318 78.8499C176.439 80.8133 176.019 83.4778 174.897 85.7216C173.214 89.3678 170.971 92.7335 168.588 96.0992C166.625 98.7637 162.559 102.27 168.728 101.008C171.953 100.447 209.809 88.3861 208.827 97.3614C208.687 99.6052 207.145 101.428 205.603 102.971C205.182 103.532 203.64 105.916 202.798 105.916C206.444 106.056 209.949 105.635 213.454 104.794C222.007 102.831 231.541 98.7638 240.374 101.569C242.057 102.129 241.075 105.776 239.112 105.074ZM166.204 83.6181C167.326 82.5897 168.401 81.5144 169.429 80.3925C167.045 80.673 164.522 81.5144 162.559 82.7766C160.736 83.8985 158.072 88.8068 161.717 86.7032C163.4 85.8618 164.802 84.74 166.204 83.6181Z" fill="black"/>
</svg>
