<svg width="154" height="20" viewBox="0 0 154 20" fill="none" xmlns="http://www.w3.org/2000/svg">
<path d="M6.90538 19.388C11.8127 19.388 14.0559 17.004 14.0559 14.1992C14.0559 7.46781 2.97949 10.2726 2.97949 5.78495C2.97949 4.24233 4.24138 2.98019 7.46616 2.98019C9.00844 2.98019 10.8311 3.4009 12.3734 4.38257L13.3549 2.279C11.8126 1.29733 9.56928 0.736328 7.46616 0.736328C2.55888 0.736328 0.455763 3.12039 0.455763 5.92515C0.455763 12.7968 11.5322 9.99206 11.5322 14.3394C11.5322 16.0223 10.1302 17.2844 6.90538 17.2844C4.66205 17.2844 2.27845 16.3028 0.876369 15.0406L0.0351562 17.1442C1.43724 18.5466 4.24143 19.388 6.90538 19.388ZM17.8416 19.2478H20.5055V0.876618H17.8416V19.2478ZM38.5923 16.0223C37.3305 16.8637 35.9284 17.1442 34.3861 17.1442C30.1799 17.1442 27.0953 14.1992 27.0953 10.1323C27.0953 6.06539 30.1799 3.12039 34.3861 3.12039C36.4892 3.12039 38.1717 3.68135 39.714 5.22396L41.2563 3.54109C39.5738 1.71799 37.1903 0.736328 34.2459 0.736328C28.6376 0.736328 24.4314 4.66301 24.4314 10.1323C24.4314 15.6016 28.6376 19.5283 34.2459 19.5283C36.7697 19.5283 39.2933 18.6868 41.1161 17.1442V9.99209H38.5923V16.0223ZM59.2029 1.01682V14.6199L48.2667 1.01682H46.1636V19.388H48.6873V5.64466L59.7637 19.388H61.8668V1.01682H59.2029ZM80.9351 19.388H83.7393L75.3268 1.01682H72.8031L64.5308 19.388H67.1948L69.1576 14.7601H78.9722L80.9351 19.388ZM70.1391 12.6566L74.0649 3.68138L77.9907 12.6566H70.1391ZM89.0672 19.388H91.7311V3.40089H98.0405V1.01682H82.898V3.40089H89.0672V19.388ZM107.995 19.5283C112.903 19.5283 115.847 16.7235 115.847 11.3945V1.01682H113.323V11.2542C113.323 15.3211 111.36 17.1442 108.135 17.1442C104.77 17.1442 102.948 15.3211 102.948 11.2542V1.01682H100.284V11.3945C100.284 16.7235 103.228 19.5283 107.995 19.5283ZM136.177 19.388L131.831 13.2176C134.495 12.2359 135.897 10.2725 135.897 7.32754C135.897 3.40087 133.092 1.01682 128.325 1.01682H121.175V19.388H123.699V13.7785H128.325C128.606 13.7785 129.026 13.7785 129.447 13.6383L133.373 19.388H136.177ZM128.185 11.5347H123.699V3.2606H128.185C131.55 3.2606 133.233 4.80325 133.233 7.32754C133.233 9.99206 131.55 11.5347 128.185 11.5347ZM142.767 17.004V11.114H151.88V8.87012H142.767V3.2606H153.002V1.01682H140.103V19.388H153.423V17.004H142.767Z" fill="#262425"/>
</svg>
