<svg width="32" height="32" viewBox="0 0 32 32" fill="none" xmlns="http://www.w3.org/2000/svg">
<path d="M22.585 11.1534L29.455 12.7805C32.8483 13.5871 32.8483 18.4129 29.455 19.2195L22.585 20.8466C21.7227 21.0552 21.0413 21.7227 20.8466 22.585L19.2195 29.455C18.4129 32.8483 13.5871 32.8483 12.7805 29.455L11.1534 22.585C10.9448 21.7227 10.2773 21.0413 9.41504 20.8466L2.54498 19.2195C-0.848327 18.4129 -0.848327 13.5871 2.54498 12.7805L9.41504 11.1534C10.2773 10.9448 10.9587 10.2773 11.1534 9.41504L12.7805 2.54498C13.5871 -0.848327 18.4129 -0.848327 19.2195 2.54498L20.8466 9.41504C21.0552 10.2773 21.7227 10.9587 22.585 11.1534Z" fill="#BBD567"/>
</svg>
