<svg width="50" height="50" viewBox="0 0 50 50" fill="none" xmlns="http://www.w3.org/2000/svg">
<path d="M35.289 17.4272L46.0235 19.9696C51.3255 21.2299 51.3255 28.7701 46.0235 30.0304L35.289 32.5728C33.9418 32.8987 32.877 33.9418 32.5728 35.289L30.0304 46.0235C28.7701 51.3255 21.2299 51.3255 19.9696 46.0235L17.4272 35.289C17.1013 33.9418 16.0582 32.877 14.711 32.5728L3.97653 30.0304C-1.32551 28.7701 -1.32551 21.2299 3.97653 19.9696L14.711 17.4272C16.0582 17.1013 17.123 16.0582 17.4272 14.711L19.9696 3.97653C21.2299 -1.32551 28.7701 -1.32551 30.0304 3.97653L32.5728 14.711C32.8987 16.0582 33.9418 17.123 35.289 17.4272Z" fill="#BBD567"/>
</svg>
