<svg width="35" height="35" viewBox="0 0 35 35" fill="none" xmlns="http://www.w3.org/2000/svg">
<path d="M24.7023 12.199L32.2164 13.9787C35.9279 14.8609 35.9279 20.1391 32.2164 21.0213L24.7023 22.801C23.7592 23.0291 23.0139 23.7592 22.801 24.7023L21.0213 32.2164C20.1391 35.9279 14.8609 35.9279 13.9787 32.2164L12.199 24.7023C11.9709 23.7592 11.2408 23.0139 10.2977 22.801L2.78357 21.0213C-0.927857 20.1391 -0.927857 14.8609 2.78357 13.9787L10.2977 12.199C11.2408 11.9709 11.9861 11.2408 12.199 10.2977L13.9787 2.78357C14.8609 -0.927857 20.1391 -0.927857 21.0213 2.78357L22.801 10.2977C23.0291 11.2408 23.7592 11.9861 24.7023 12.199Z" fill="#BBD567"/>
</svg>
