<svg width="415" height="28" viewBox="0 0 415 28" fill="none" xmlns="http://www.w3.org/2000/svg">
<path d="M2.87972 9.08496V1.51296H0.371719V0.68496H6.39572V1.51296H3.88772V9.08496H2.87972ZM7.57828 9.08496V0.444961H8.58628V4.05696C8.78628 3.69696 9.06628 3.41296 9.42628 3.20496C9.79428 2.99696 10.1943 2.89296 10.6263 2.89296C11.0903 2.89296 11.4943 2.98896 11.8383 3.18096C12.1823 3.36496 12.4463 3.64896 12.6303 4.03296C12.8143 4.41696 12.9063 4.90096 12.9063 5.48496V9.08496H11.9103V5.59296C11.9103 4.98496 11.7823 4.52896 11.5263 4.22496C11.2703 3.91296 10.8983 3.75696 10.4103 3.75696C10.0663 3.75696 9.75428 3.84096 9.47428 4.00896C9.20228 4.17696 8.98628 4.41696 8.82628 4.72896C8.66628 5.04096 8.58628 5.42496 8.58628 5.88096V9.08496H7.57828ZM17.1326 9.22896C16.5646 9.22896 16.0606 9.09696 15.6206 8.83296C15.1886 8.56896 14.8486 8.20096 14.6006 7.72896C14.3526 7.24896 14.2286 6.69296 14.2286 6.06096C14.2286 5.42096 14.3486 4.86496 14.5886 4.39296C14.8366 3.92096 15.1806 3.55296 15.6206 3.28896C16.0686 3.02496 16.5806 2.89296 17.1566 2.89296C17.7486 2.89296 18.2486 3.02496 18.6566 3.28896C19.0726 3.55296 19.3886 3.90096 19.6046 4.33296C19.8286 4.75696 19.9406 5.22496 19.9406 5.73696C19.9406 5.81696 19.9406 5.90096 19.9406 5.98896C19.9406 6.07696 19.9366 6.17696 19.9286 6.28896H14.9846V5.50896H18.9566C18.9326 4.95696 18.7486 4.52496 18.4046 4.21296C18.0686 3.90096 17.6446 3.74496 17.1326 3.74496C16.7886 3.74496 16.4686 3.82496 16.1726 3.98496C15.8846 4.13696 15.6526 4.36496 15.4766 4.66896C15.3006 4.96496 15.2126 5.33696 15.2126 5.78496V6.12096C15.2126 6.61696 15.3006 7.03296 15.4766 7.36896C15.6606 7.70496 15.8966 7.95696 16.1846 8.12496C16.4806 8.29296 16.7966 8.37696 17.1326 8.37696C17.5566 8.37696 17.9046 8.28496 18.1766 8.10096C18.4566 7.90896 18.6566 7.65296 18.7766 7.33296H19.7726C19.6766 7.69296 19.5086 8.01696 19.2686 8.30496C19.0286 8.59296 18.7286 8.82096 18.3686 8.98896C18.0166 9.14896 17.6046 9.22896 17.1326 9.22896ZM26.7684 9.22896C26.2644 9.22896 25.8244 9.14496 25.4484 8.97696C25.0804 8.80896 24.7844 8.57696 24.5604 8.28096C24.3444 7.97696 24.2124 7.62096 24.1644 7.21296H25.1964C25.2364 7.42096 25.3204 7.61296 25.4484 7.78896C25.5764 7.96496 25.7484 8.10896 25.9644 8.22096C26.1884 8.32496 26.4604 8.37696 26.7804 8.37696C27.0604 8.37696 27.2924 8.33696 27.4764 8.25696C27.6604 8.16896 27.7964 8.05296 27.8844 7.90896C27.9804 7.76496 28.0284 7.60896 28.0284 7.44096C28.0284 7.19296 27.9684 7.00496 27.8484 6.87696C27.7364 6.74896 27.5684 6.64896 27.3444 6.57696C27.1204 6.49696 26.8484 6.42896 26.5284 6.37296C26.2644 6.32496 26.0044 6.26096 25.7484 6.18096C25.4924 6.10096 25.2644 5.99696 25.0644 5.86896C24.8644 5.73296 24.7044 5.56896 24.5844 5.37696C24.4724 5.18496 24.4164 4.94896 24.4164 4.66896C24.4164 4.32496 24.5044 4.02096 24.6804 3.75696C24.8564 3.48496 25.1084 3.27296 25.4364 3.12096C25.7724 2.96896 26.1604 2.89296 26.6004 2.89296C27.2484 2.89296 27.7724 3.04896 28.1724 3.36096C28.5724 3.67296 28.8084 4.12496 28.8804 4.71696H27.8844C27.8444 4.41296 27.7124 4.17696 27.4884 4.00896C27.2724 3.83296 26.9724 3.74496 26.5884 3.74496C26.2124 3.74496 25.9244 3.82096 25.7244 3.97296C25.5324 4.12496 25.4364 4.32496 25.4364 4.57296C25.4364 4.73296 25.4884 4.87696 25.5924 5.00496C25.7044 5.12496 25.8644 5.22896 26.0724 5.31696C26.2884 5.40496 26.5524 5.47696 26.8644 5.53296C27.2644 5.60496 27.6284 5.70096 27.9564 5.82096C28.2844 5.94096 28.5484 6.12096 28.7484 6.36096C28.9564 6.59296 29.0604 6.92496 29.0604 7.35696C29.0604 7.73296 28.9644 8.06096 28.7724 8.34096C28.5884 8.62096 28.3244 8.84096 27.9804 9.00096C27.6364 9.15296 27.2324 9.22896 26.7684 9.22896ZM32.7079 9.22896C32.2439 9.22896 31.8359 9.13696 31.4839 8.95296C31.1399 8.76896 30.8719 8.48496 30.6799 8.10096C30.4959 7.71696 30.4039 7.23696 30.4039 6.66096V3.03696H31.4119V6.55296C31.4119 7.15296 31.5439 7.60496 31.8079 7.90896C32.0719 8.21296 32.4439 8.36496 32.9239 8.36496C33.2599 8.36496 33.5639 8.28496 33.8359 8.12496C34.1079 7.95696 34.3199 7.72096 34.4719 7.41696C34.6319 7.10496 34.7119 6.72496 34.7119 6.27696V3.03696H35.7199V9.08496H34.8079L34.7479 8.02896C34.5639 8.40496 34.2919 8.70096 33.9319 8.91696C33.5719 9.12496 33.1639 9.22896 32.7079 9.22896ZM40.1148 9.22896C39.5468 9.22896 39.0348 9.09696 38.5788 8.83296C38.1308 8.56896 37.7788 8.20096 37.5228 7.72896C37.2668 7.24896 37.1388 6.69696 37.1388 6.07296C37.1388 5.43296 37.2668 4.87696 37.5228 4.40496C37.7788 3.93296 38.1308 3.56496 38.5788 3.30096C39.0348 3.02896 39.5468 2.89296 40.1148 2.89296C40.8348 2.89296 41.4348 3.08096 41.9148 3.45696C42.3948 3.82496 42.6988 4.32096 42.8268 4.94496H41.7948C41.7148 4.56896 41.5188 4.27696 41.2068 4.06896C40.8948 3.86096 40.5268 3.75696 40.1028 3.75696C39.7588 3.75696 39.4388 3.84496 39.1428 4.02096C38.8468 4.18896 38.6108 4.44496 38.4348 4.78896C38.2588 5.13296 38.1708 5.55696 38.1708 6.06096C38.1708 6.43696 38.2228 6.77296 38.3268 7.06896C38.4308 7.35696 38.5708 7.59696 38.7468 7.78896C38.9228 7.98096 39.1268 8.12896 39.3588 8.23296C39.5988 8.32896 39.8468 8.37696 40.1028 8.37696C40.3908 8.37696 40.6508 8.33296 40.8828 8.24496C41.1148 8.14896 41.3108 8.00896 41.4708 7.82496C41.6308 7.64096 41.7388 7.42496 41.7948 7.17696H42.8268C42.6988 7.78496 42.3908 8.28096 41.9028 8.66496C41.4228 9.04096 40.8268 9.22896 40.1148 9.22896ZM46.982 9.22896C46.414 9.22896 45.902 9.09696 45.446 8.83296C44.998 8.56896 44.646 8.20096 44.39 7.72896C44.134 7.24896 44.006 6.69696 44.006 6.07296C44.006 5.43296 44.134 4.87696 44.39 4.40496C44.646 3.93296 44.998 3.56496 45.446 3.30096C45.902 3.02896 46.414 2.89296 46.982 2.89296C47.702 2.89296 48.302 3.08096 48.782 3.45696C49.262 3.82496 49.566 4.32096 49.694 4.94496H48.662C48.582 4.56896 48.386 4.27696 48.074 4.06896C47.762 3.86096 47.394 3.75696 46.97 3.75696C46.626 3.75696 46.306 3.84496 46.01 4.02096C45.714 4.18896 45.478 4.44496 45.302 4.78896C45.126 5.13296 45.038 5.55696 45.038 6.06096C45.038 6.43696 45.09 6.77296 45.194 7.06896C45.298 7.35696 45.438 7.59696 45.614 7.78896C45.79 7.98096 45.994 8.12896 46.226 8.23296C46.466 8.32896 46.714 8.37696 46.97 8.37696C47.258 8.37696 47.518 8.33296 47.75 8.24496C47.982 8.14896 48.178 8.00896 48.338 7.82496C48.498 7.64096 48.606 7.42496 48.662 7.17696H49.694C49.566 7.78496 49.258 8.28096 48.77 8.66496C48.29 9.04096 47.694 9.22896 46.982 9.22896ZM53.7772 9.22896C53.2092 9.22896 52.7052 9.09696 52.2652 8.83296C51.8332 8.56896 51.4932 8.20096 51.2452 7.72896C50.9972 7.24896 50.8732 6.69296 50.8732 6.06096C50.8732 5.42096 50.9932 4.86496 51.2332 4.39296C51.4812 3.92096 51.8252 3.55296 52.2652 3.28896C52.7132 3.02496 53.2252 2.89296 53.8012 2.89296C54.3932 2.89296 54.8932 3.02496 55.3012 3.28896C55.7172 3.55296 56.0332 3.90096 56.2492 4.33296C56.4732 4.75696 56.5852 5.22496 56.5852 5.73696C56.5852 5.81696 56.5852 5.90096 56.5852 5.98896C56.5852 6.07696 56.5812 6.17696 56.5732 6.28896H51.6292V5.50896H55.6012C55.5772 4.95696 55.3932 4.52496 55.0492 4.21296C54.7132 3.90096 54.2892 3.74496 53.7772 3.74496C53.4332 3.74496 53.1132 3.82496 52.8172 3.98496C52.5292 4.13696 52.2972 4.36496 52.1212 4.66896C51.9452 4.96496 51.8572 5.33696 51.8572 5.78496V6.12096C51.8572 6.61696 51.9452 7.03296 52.1212 7.36896C52.3052 7.70496 52.5412 7.95696 52.8292 8.12496C53.1252 8.29296 53.4412 8.37696 53.7772 8.37696C54.2012 8.37696 54.5492 8.28496 54.8212 8.10096C55.1012 7.90896 55.3012 7.65296 55.4212 7.33296H56.4172C56.3212 7.69296 56.1532 8.01696 55.9132 8.30496C55.6732 8.59296 55.3732 8.82096 55.0132 8.98896C54.6612 9.14896 54.2492 9.22896 53.7772 9.22896ZM60.2255 9.22896C59.7215 9.22896 59.2815 9.14496 58.9055 8.97696C58.5375 8.80896 58.2415 8.57696 58.0175 8.28096C57.8015 7.97696 57.6695 7.62096 57.6215 7.21296H58.6535C58.6935 7.42096 58.7775 7.61296 58.9055 7.78896C59.0335 7.96496 59.2055 8.10896 59.4215 8.22096C59.6455 8.32496 59.9175 8.37696 60.2375 8.37696C60.5175 8.37696 60.7495 8.33696 60.9335 8.25696C61.1175 8.16896 61.2535 8.05296 61.3415 7.90896C61.4375 7.76496 61.4855 7.60896 61.4855 7.44096C61.4855 7.19296 61.4255 7.00496 61.3055 6.87696C61.1935 6.74896 61.0255 6.64896 60.8015 6.57696C60.5775 6.49696 60.3055 6.42896 59.9855 6.37296C59.7215 6.32496 59.4615 6.26096 59.2055 6.18096C58.9495 6.10096 58.7215 5.99696 58.5215 5.86896C58.3215 5.73296 58.1615 5.56896 58.0415 5.37696C57.9295 5.18496 57.8735 4.94896 57.8735 4.66896C57.8735 4.32496 57.9615 4.02096 58.1375 3.75696C58.3135 3.48496 58.5655 3.27296 58.8935 3.12096C59.2295 2.96896 59.6175 2.89296 60.0575 2.89296C60.7055 2.89296 61.2295 3.04896 61.6295 3.36096C62.0295 3.67296 62.2655 4.12496 62.3375 4.71696H61.3415C61.3015 4.41296 61.1695 4.17696 60.9455 4.00896C60.7295 3.83296 60.4295 3.74496 60.0455 3.74496C59.6695 3.74496 59.3815 3.82096 59.1815 3.97296C58.9895 4.12496 58.8935 4.32496 58.8935 4.57296C58.8935 4.73296 58.9455 4.87696 59.0495 5.00496C59.1615 5.12496 59.3215 5.22896 59.5295 5.31696C59.7455 5.40496 60.0095 5.47696 60.3215 5.53296C60.7215 5.60496 61.0855 5.70096 61.4135 5.82096C61.7415 5.94096 62.0055 6.12096 62.2055 6.36096C62.4135 6.59296 62.5175 6.92496 62.5175 7.35696C62.5175 7.73296 62.4215 8.06096 62.2295 8.34096C62.0455 8.62096 61.7815 8.84096 61.4375 9.00096C61.0935 9.15296 60.6895 9.22896 60.2255 9.22896ZM66.2489 9.22896C65.7449 9.22896 65.3049 9.14496 64.9289 8.97696C64.5609 8.80896 64.2649 8.57696 64.0409 8.28096C63.8249 7.97696 63.6929 7.62096 63.6449 7.21296H64.6769C64.7169 7.42096 64.8009 7.61296 64.9289 7.78896C65.0569 7.96496 65.2289 8.10896 65.4449 8.22096C65.6689 8.32496 65.9409 8.37696 66.2609 8.37696C66.5409 8.37696 66.7729 8.33696 66.9569 8.25696C67.1409 8.16896 67.2769 8.05296 67.3649 7.90896C67.4609 7.76496 67.5089 7.60896 67.5089 7.44096C67.5089 7.19296 67.4489 7.00496 67.3289 6.87696C67.2169 6.74896 67.0489 6.64896 66.8249 6.57696C66.6009 6.49696 66.3289 6.42896 66.0089 6.37296C65.7449 6.32496 65.4849 6.26096 65.2289 6.18096C64.9729 6.10096 64.7449 5.99696 64.5449 5.86896C64.3449 5.73296 64.1849 5.56896 64.0649 5.37696C63.9529 5.18496 63.8969 4.94896 63.8969 4.66896C63.8969 4.32496 63.9849 4.02096 64.1609 3.75696C64.3369 3.48496 64.5889 3.27296 64.9169 3.12096C65.2529 2.96896 65.6409 2.89296 66.0809 2.89296C66.7289 2.89296 67.2529 3.04896 67.6529 3.36096C68.0529 3.67296 68.2889 4.12496 68.3609 4.71696H67.3649C67.3249 4.41296 67.1929 4.17696 66.9689 4.00896C66.7529 3.83296 66.4529 3.74496 66.0689 3.74496C65.6929 3.74496 65.4049 3.82096 65.2049 3.97296C65.0129 4.12496 64.9169 4.32496 64.9169 4.57296C64.9169 4.73296 64.9689 4.87696 65.0729 5.00496C65.1849 5.12496 65.3449 5.22896 65.5529 5.31696C65.7689 5.40496 66.0329 5.47696 66.3449 5.53296C66.7449 5.60496 67.1089 5.70096 67.4369 5.82096C67.7649 5.94096 68.0289 6.12096 68.2289 6.36096C68.4369 6.59296 68.5409 6.92496 68.5409 7.35696C68.5409 7.73296 68.4449 8.06096 68.2529 8.34096C68.0689 8.62096 67.8049 8.84096 67.4609 9.00096C67.1169 9.15296 66.7129 9.22896 66.2489 9.22896ZM70.3283 9.08496V2.10096C70.3283 1.71696 70.3923 1.40496 70.5203 1.16496C70.6483 0.91696 70.8363 0.73696 71.0843 0.62496C71.3403 0.504961 71.6523 0.444961 72.0203 0.444961H72.7043V1.30896H72.1763C71.8803 1.30896 71.6643 1.36896 71.5283 1.48896C71.4003 1.60896 71.3363 1.82096 71.3363 2.12496V9.08496H70.3283ZM69.4043 3.88896V3.03696H72.8603V3.88896H69.4043ZM76.2665 9.22896C75.8025 9.22896 75.3945 9.13696 75.0425 8.95296C74.6985 8.76896 74.4305 8.48496 74.2385 8.10096C74.0545 7.71696 73.9625 7.23696 73.9625 6.66096V3.03696H74.9705V6.55296C74.9705 7.15296 75.1025 7.60496 75.3665 7.90896C75.6305 8.21296 76.0025 8.36496 76.4825 8.36496C76.8185 8.36496 77.1225 8.28496 77.3945 8.12496C77.6665 7.95696 77.8785 7.72096 78.0305 7.41696C78.1905 7.10496 78.2705 6.72496 78.2705 6.27696V3.03696H79.2785V9.08496H78.3665L78.3065 8.02896C78.1225 8.40496 77.8505 8.70096 77.4905 8.91696C77.1305 9.12496 76.7225 9.22896 76.2665 9.22896ZM80.9494 9.08496V0.444961H81.9574V9.08496H80.9494ZM89.5328 9.22896C88.9648 9.22896 88.4528 9.09696 87.9968 8.83296C87.5488 8.56896 87.1968 8.20096 86.9408 7.72896C86.6848 7.24896 86.5568 6.69696 86.5568 6.07296C86.5568 5.43296 86.6848 4.87696 86.9408 4.40496C87.1968 3.93296 87.5488 3.56496 87.9968 3.30096C88.4528 3.02896 88.9648 2.89296 89.5328 2.89296C90.2528 2.89296 90.8528 3.08096 91.3328 3.45696C91.8128 3.82496 92.1168 4.32096 92.2448 4.94496H91.2128C91.1328 4.56896 90.9368 4.27696 90.6248 4.06896C90.3128 3.86096 89.9448 3.75696 89.5208 3.75696C89.1768 3.75696 88.8568 3.84496 88.5608 4.02096C88.2648 4.18896 88.0288 4.44496 87.8528 4.78896C87.6768 5.13296 87.5888 5.55696 87.5888 6.06096C87.5888 6.43696 87.6408 6.77296 87.7448 7.06896C87.8488 7.35696 87.9888 7.59696 88.1648 7.78896C88.3408 7.98096 88.5448 8.12896 88.7768 8.23296C89.0168 8.32896 89.2648 8.37696 89.5208 8.37696C89.8088 8.37696 90.0688 8.33296 90.3008 8.24496C90.5328 8.14896 90.7288 8.00896 90.8888 7.82496C91.0488 7.64096 91.1568 7.42496 91.2128 7.17696H92.2448C92.1168 7.78496 91.8088 8.28096 91.3208 8.66496C90.8408 9.04096 90.2448 9.22896 89.5328 9.22896ZM96.3759 9.22896C95.8159 9.22896 95.3119 9.10096 94.8639 8.84496C94.4159 8.58096 94.0639 8.21296 93.8079 7.74096C93.5519 7.26096 93.4239 6.70496 93.4239 6.07296C93.4239 5.42496 93.5519 4.86496 93.8079 4.39296C94.0719 3.91296 94.4279 3.54496 94.8759 3.28896C95.3319 3.02496 95.8399 2.89296 96.3999 2.89296C96.9759 2.89296 97.4839 3.02496 97.9239 3.28896C98.3719 3.54496 98.7239 3.91296 98.9799 4.39296C99.2439 4.86496 99.3759 5.42096 99.3759 6.06096C99.3759 6.70096 99.2439 7.26096 98.9799 7.74096C98.7159 8.21296 98.3599 8.58096 97.9119 8.84496C97.4639 9.10096 96.9519 9.22896 96.3759 9.22896ZM96.3879 8.36496C96.7319 8.36496 97.0519 8.28096 97.3479 8.11296C97.6439 7.93696 97.8839 7.67696 98.0679 7.33296C98.2519 6.98896 98.3439 6.56496 98.3439 6.06096C98.3439 5.54896 98.2519 5.12496 98.0679 4.78896C97.8919 4.44496 97.6559 4.18896 97.3599 4.02096C97.0719 3.84496 96.7519 3.75696 96.3999 3.75696C96.0639 3.75696 95.7439 3.84496 95.4399 4.02096C95.1439 4.18896 94.9039 4.44496 94.7199 4.78896C94.5439 5.12496 94.4559 5.54896 94.4559 6.06096C94.4559 6.56496 94.5439 6.98896 94.7199 7.33296C94.9039 7.67696 95.1399 7.93696 95.4279 8.11296C95.7239 8.28096 96.0439 8.36496 96.3879 8.36496ZM100.789 9.08496V3.03696H101.701L101.761 3.90096C101.953 3.58896 102.209 3.34496 102.529 3.16896C102.857 2.98496 103.213 2.89296 103.597 2.89296C103.909 2.89296 104.189 2.93696 104.437 3.02496C104.693 3.10496 104.917 3.23296 105.109 3.40896C105.301 3.57696 105.457 3.79296 105.577 4.05696C105.785 3.68896 106.069 3.40496 106.429 3.20496C106.797 2.99696 107.189 2.89296 107.605 2.89296C108.069 2.89296 108.473 2.98896 108.817 3.18096C109.169 3.36496 109.437 3.64896 109.621 4.03296C109.813 4.40896 109.909 4.88896 109.909 5.47296V9.08496H108.913V5.58096C108.913 4.97296 108.789 4.51696 108.541 4.21296C108.293 3.90896 107.945 3.75696 107.497 3.75696C107.185 3.75696 106.905 3.84096 106.657 4.00896C106.409 4.16896 106.213 4.40496 106.069 4.71696C105.925 5.02896 105.853 5.41296 105.853 5.86896V9.08496H104.845V5.58096C104.845 4.97296 104.721 4.51696 104.473 4.21296C104.225 3.90896 103.873 3.75696 103.417 3.75696C103.113 3.75696 102.837 3.84096 102.589 4.00896C102.349 4.16896 102.157 4.40496 102.013 4.71696C101.869 5.02896 101.797 5.41296 101.797 5.86896V9.08496H100.789ZM111.477 11.725V3.03696H112.389L112.473 4.02096C112.601 3.82896 112.765 3.64896 112.965 3.48096C113.165 3.30496 113.405 3.16496 113.685 3.06096C113.965 2.94896 114.285 2.89296 114.645 2.89296C115.237 2.89296 115.749 3.03296 116.181 3.31296C116.621 3.59296 116.961 3.97296 117.201 4.45296C117.449 4.92496 117.573 5.46496 117.573 6.07296C117.573 6.68096 117.449 7.22496 117.201 7.70496C116.961 8.17696 116.621 8.54896 116.181 8.82096C115.741 9.09296 115.225 9.22896 114.633 9.22896C114.145 9.22896 113.713 9.12896 113.337 8.92896C112.969 8.72896 112.685 8.44896 112.485 8.08896V11.725H111.477ZM114.525 8.35296C114.917 8.35296 115.265 8.25696 115.569 8.06496C115.873 7.87296 116.109 7.60896 116.277 7.27296C116.453 6.92896 116.541 6.52496 116.541 6.06096C116.541 5.60496 116.453 5.20496 116.277 4.86096C116.109 4.51696 115.873 4.24896 115.569 4.05696C115.265 3.86496 114.917 3.76896 114.525 3.76896C114.125 3.76896 113.773 3.86496 113.469 4.05696C113.165 4.24896 112.929 4.51696 112.761 4.86096C112.593 5.20496 112.509 5.60496 112.509 6.06096C112.509 6.52496 112.593 6.92896 112.761 7.27296C112.929 7.60896 113.165 7.87296 113.469 8.06496C113.773 8.25696 114.125 8.35296 114.525 8.35296ZM118.988 9.08496V0.444961H119.996V9.08496H118.988ZM124.312 9.22896C123.744 9.22896 123.24 9.09696 122.8 8.83296C122.368 8.56896 122.028 8.20096 121.78 7.72896C121.532 7.24896 121.408 6.69296 121.408 6.06096C121.408 5.42096 121.528 4.86496 121.768 4.39296C122.016 3.92096 122.36 3.55296 122.8 3.28896C123.248 3.02496 123.76 2.89296 124.336 2.89296C124.928 2.89296 125.428 3.02496 125.836 3.28896C126.252 3.55296 126.568 3.90096 126.784 4.33296C127.008 4.75696 127.12 5.22496 127.12 5.73696C127.12 5.81696 127.12 5.90096 127.12 5.98896C127.12 6.07696 127.116 6.17696 127.108 6.28896H122.164V5.50896H126.136C126.112 4.95696 125.928 4.52496 125.584 4.21296C125.248 3.90096 124.824 3.74496 124.312 3.74496C123.968 3.74496 123.648 3.82496 123.352 3.98496C123.064 4.13696 122.832 4.36496 122.656 4.66896C122.48 4.96496 122.392 5.33696 122.392 5.78496V6.12096C122.392 6.61696 122.48 7.03296 122.656 7.36896C122.84 7.70496 123.076 7.95696 123.364 8.12496C123.66 8.29296 123.976 8.37696 124.312 8.37696C124.736 8.37696 125.084 8.28496 125.356 8.10096C125.636 7.90896 125.836 7.65296 125.956 7.33296H126.952C126.856 7.69296 126.688 8.01696 126.448 8.30496C126.208 8.59296 125.908 8.82096 125.548 8.98896C125.196 9.14896 124.784 9.22896 124.312 9.22896ZM130.657 9.08496C130.297 9.08496 129.985 9.02896 129.721 8.91696C129.457 8.80496 129.253 8.61696 129.109 8.35296C128.973 8.08096 128.905 7.71696 128.905 7.26096V3.88896H127.849V3.03696H128.905L129.037 1.57296H129.913V3.03696H131.665V3.88896H129.913V7.26096C129.913 7.63696 129.989 7.89296 130.141 8.02896C130.293 8.15696 130.561 8.22096 130.945 8.22096H131.593V9.08496H130.657ZM133.077 9.08496V3.03696H134.085V9.08496H133.077ZM133.581 1.75296C133.381 1.75296 133.213 1.68896 133.077 1.56096C132.949 1.42496 132.885 1.25696 132.885 1.05696C132.885 0.856961 132.949 0.696961 133.077 0.57696C133.213 0.448961 133.381 0.384961 133.581 0.384961C133.773 0.384961 133.937 0.448961 134.073 0.57696C134.209 0.696961 134.277 0.856961 134.277 1.05696C134.277 1.25696 134.209 1.42496 134.073 1.56096C133.937 1.68896 133.773 1.75296 133.581 1.75296ZM138.563 9.22896C138.003 9.22896 137.499 9.10096 137.051 8.84496C136.603 8.58096 136.251 8.21296 135.995 7.74096C135.739 7.26096 135.611 6.70496 135.611 6.07296C135.611 5.42496 135.739 4.86496 135.995 4.39296C136.259 3.91296 136.615 3.54496 137.063 3.28896C137.519 3.02496 138.027 2.89296 138.587 2.89296C139.163 2.89296 139.671 3.02496 140.111 3.28896C140.559 3.54496 140.911 3.91296 141.167 4.39296C141.431 4.86496 141.563 5.42096 141.563 6.06096C141.563 6.70096 141.431 7.26096 141.167 7.74096C140.903 8.21296 140.547 8.58096 140.099 8.84496C139.651 9.10096 139.139 9.22896 138.563 9.22896ZM138.575 8.36496C138.919 8.36496 139.239 8.28096 139.535 8.11296C139.831 7.93696 140.071 7.67696 140.255 7.33296C140.439 6.98896 140.531 6.56496 140.531 6.06096C140.531 5.54896 140.439 5.12496 140.255 4.78896C140.079 4.44496 139.843 4.18896 139.547 4.02096C139.259 3.84496 138.939 3.75696 138.587 3.75696C138.251 3.75696 137.931 3.84496 137.627 4.02096C137.331 4.18896 137.091 4.44496 136.907 4.78896C136.731 5.12496 136.643 5.54896 136.643 6.06096C136.643 6.56496 136.731 6.98896 136.907 7.33296C137.091 7.67696 137.327 7.93696 137.615 8.11296C137.911 8.28096 138.231 8.36496 138.575 8.36496ZM142.977 9.08496V3.03696H143.889L143.937 4.09296C144.129 3.71696 144.401 3.42496 144.753 3.21696C145.113 3.00096 145.521 2.89296 145.977 2.89296C146.449 2.89296 146.857 2.98896 147.201 3.18096C147.545 3.36496 147.813 3.64896 148.005 4.03296C148.197 4.40896 148.293 4.88896 148.293 5.47296V9.08496H147.285V5.58096C147.285 4.97296 147.149 4.51696 146.877 4.21296C146.613 3.90896 146.237 3.75696 145.749 3.75696C145.413 3.75696 145.113 3.84096 144.849 4.00896C144.585 4.16896 144.373 4.40496 144.213 4.71696C144.061 5.02096 143.985 5.40096 143.985 5.85696V9.08496H142.977ZM155.755 9.22896C155.195 9.22896 154.691 9.10096 154.243 8.84496C153.795 8.58096 153.443 8.21296 153.187 7.74096C152.931 7.26096 152.803 6.70496 152.803 6.07296C152.803 5.42496 152.931 4.86496 153.187 4.39296C153.451 3.91296 153.807 3.54496 154.255 3.28896C154.711 3.02496 155.219 2.89296 155.779 2.89296C156.355 2.89296 156.863 3.02496 157.303 3.28896C157.751 3.54496 158.103 3.91296 158.359 4.39296C158.623 4.86496 158.755 5.42096 158.755 6.06096C158.755 6.70096 158.623 7.26096 158.359 7.74096C158.095 8.21296 157.739 8.58096 157.291 8.84496C156.843 9.10096 156.331 9.22896 155.755 9.22896ZM155.767 8.36496C156.111 8.36496 156.431 8.28096 156.727 8.11296C157.023 7.93696 157.263 7.67696 157.447 7.33296C157.631 6.98896 157.723 6.56496 157.723 6.06096C157.723 5.54896 157.631 5.12496 157.447 4.78896C157.271 4.44496 157.035 4.18896 156.739 4.02096C156.451 3.84496 156.131 3.75696 155.779 3.75696C155.443 3.75696 155.123 3.84496 154.819 4.02096C154.523 4.18896 154.283 4.44496 154.099 4.78896C153.923 5.12496 153.835 5.54896 153.835 6.06096C153.835 6.56496 153.923 6.98896 154.099 7.33296C154.283 7.67696 154.519 7.93696 154.807 8.11296C155.103 8.28096 155.423 8.36496 155.767 8.36496ZM160.504 9.08496V2.10096C160.504 1.71696 160.568 1.40496 160.696 1.16496C160.824 0.91696 161.012 0.73696 161.26 0.62496C161.516 0.504961 161.828 0.444961 162.196 0.444961H162.88V1.30896H162.352C162.056 1.30896 161.84 1.36896 161.704 1.48896C161.576 1.60896 161.512 1.82096 161.512 2.12496V9.08496H160.504ZM159.58 3.88896V3.03696H163.036V3.88896H159.58ZM169.81 9.08496C169.45 9.08496 169.138 9.02896 168.874 8.91696C168.61 8.80496 168.406 8.61696 168.262 8.35296C168.126 8.08096 168.058 7.71696 168.058 7.26096V3.88896H167.002V3.03696H168.058L168.19 1.57296H169.066V3.03696H170.818V3.88896H169.066V7.26096C169.066 7.63696 169.142 7.89296 169.294 8.02896C169.446 8.15696 169.714 8.22096 170.098 8.22096H170.746V9.08496H169.81ZM172.133 9.08496V0.444961H173.141V4.05696C173.341 3.69696 173.621 3.41296 173.981 3.20496C174.349 2.99696 174.749 2.89296 175.181 2.89296C175.645 2.89296 176.049 2.98896 176.393 3.18096C176.737 3.36496 177.001 3.64896 177.185 4.03296C177.369 4.41696 177.461 4.90096 177.461 5.48496V9.08496H176.465V5.59296C176.465 4.98496 176.337 4.52896 176.081 4.22496C175.825 3.91296 175.453 3.75696 174.965 3.75696C174.621 3.75696 174.309 3.84096 174.029 4.00896C173.757 4.17696 173.541 4.41696 173.381 4.72896C173.221 5.04096 173.141 5.42496 173.141 5.88096V9.08496H172.133ZM179.131 9.08496V3.03696H180.139V9.08496H179.131ZM179.635 1.75296C179.435 1.75296 179.267 1.68896 179.131 1.56096C179.003 1.42496 178.939 1.25696 178.939 1.05696C178.939 0.856961 179.003 0.696961 179.131 0.57696C179.267 0.448961 179.435 0.384961 179.635 0.384961C179.827 0.384961 179.991 0.448961 180.127 0.57696C180.263 0.696961 180.331 0.856961 180.331 1.05696C180.331 1.25696 180.263 1.42496 180.127 1.56096C179.991 1.68896 179.827 1.75296 179.635 1.75296ZM184.198 9.22896C183.694 9.22896 183.254 9.14496 182.878 8.97696C182.51 8.80896 182.214 8.57696 181.99 8.28096C181.774 7.97696 181.642 7.62096 181.594 7.21296H182.626C182.666 7.42096 182.75 7.61296 182.878 7.78896C183.006 7.96496 183.178 8.10896 183.394 8.22096C183.618 8.32496 183.89 8.37696 184.21 8.37696C184.49 8.37696 184.722 8.33696 184.906 8.25696C185.09 8.16896 185.226 8.05296 185.314 7.90896C185.41 7.76496 185.458 7.60896 185.458 7.44096C185.458 7.19296 185.398 7.00496 185.278 6.87696C185.166 6.74896 184.998 6.64896 184.774 6.57696C184.55 6.49696 184.278 6.42896 183.958 6.37296C183.694 6.32496 183.434 6.26096 183.178 6.18096C182.922 6.10096 182.694 5.99696 182.494 5.86896C182.294 5.73296 182.134 5.56896 182.014 5.37696C181.902 5.18496 181.846 4.94896 181.846 4.66896C181.846 4.32496 181.934 4.02096 182.11 3.75696C182.286 3.48496 182.538 3.27296 182.866 3.12096C183.202 2.96896 183.59 2.89296 184.03 2.89296C184.678 2.89296 185.202 3.04896 185.602 3.36096C186.002 3.67296 186.238 4.12496 186.31 4.71696H185.314C185.274 4.41296 185.142 4.17696 184.918 4.00896C184.702 3.83296 184.402 3.74496 184.018 3.74496C183.642 3.74496 183.354 3.82096 183.154 3.97296C182.962 4.12496 182.866 4.32496 182.866 4.57296C182.866 4.73296 182.918 4.87696 183.022 5.00496C183.134 5.12496 183.294 5.22896 183.502 5.31696C183.718 5.40496 183.982 5.47696 184.294 5.53296C184.694 5.60496 185.058 5.70096 185.386 5.82096C185.714 5.94096 185.978 6.12096 186.178 6.36096C186.386 6.59296 186.49 6.92496 186.49 7.35696C186.49 7.73296 186.394 8.06096 186.202 8.34096C186.018 8.62096 185.754 8.84096 185.41 9.00096C185.066 9.15296 184.662 9.22896 184.198 9.22896ZM193.853 9.22896C193.285 9.22896 192.773 9.09696 192.317 8.83296C191.869 8.56896 191.517 8.20096 191.261 7.72896C191.005 7.24896 190.877 6.69696 190.877 6.07296C190.877 5.43296 191.005 4.87696 191.261 4.40496C191.517 3.93296 191.869 3.56496 192.317 3.30096C192.773 3.02896 193.285 2.89296 193.853 2.89296C194.573 2.89296 195.173 3.08096 195.653 3.45696C196.133 3.82496 196.437 4.32096 196.565 4.94496H195.533C195.453 4.56896 195.257 4.27696 194.945 4.06896C194.633 3.86096 194.265 3.75696 193.841 3.75696C193.497 3.75696 193.177 3.84496 192.881 4.02096C192.585 4.18896 192.349 4.44496 192.173 4.78896C191.997 5.13296 191.909 5.55696 191.909 6.06096C191.909 6.43696 191.961 6.77296 192.065 7.06896C192.169 7.35696 192.309 7.59696 192.485 7.78896C192.661 7.98096 192.865 8.12896 193.097 8.23296C193.337 8.32896 193.585 8.37696 193.841 8.37696C194.129 8.37696 194.389 8.33296 194.621 8.24496C194.853 8.14896 195.049 8.00896 195.209 7.82496C195.369 7.64096 195.477 7.42496 195.533 7.17696H196.565C196.437 7.78496 196.129 8.28096 195.641 8.66496C195.161 9.04096 194.565 9.22896 193.853 9.22896ZM200.696 9.22896C200.136 9.22896 199.632 9.10096 199.184 8.84496C198.736 8.58096 198.384 8.21296 198.128 7.74096C197.872 7.26096 197.744 6.70496 197.744 6.07296C197.744 5.42496 197.872 4.86496 198.128 4.39296C198.392 3.91296 198.748 3.54496 199.196 3.28896C199.652 3.02496 200.16 2.89296 200.72 2.89296C201.296 2.89296 201.804 3.02496 202.244 3.28896C202.692 3.54496 203.044 3.91296 203.3 4.39296C203.564 4.86496 203.696 5.42096 203.696 6.06096C203.696 6.70096 203.564 7.26096 203.3 7.74096C203.036 8.21296 202.68 8.58096 202.232 8.84496C201.784 9.10096 201.272 9.22896 200.696 9.22896ZM200.708 8.36496C201.052 8.36496 201.372 8.28096 201.668 8.11296C201.964 7.93696 202.204 7.67696 202.388 7.33296C202.572 6.98896 202.664 6.56496 202.664 6.06096C202.664 5.54896 202.572 5.12496 202.388 4.78896C202.212 4.44496 201.976 4.18896 201.68 4.02096C201.392 3.84496 201.072 3.75696 200.72 3.75696C200.384 3.75696 200.064 3.84496 199.76 4.02096C199.464 4.18896 199.224 4.44496 199.04 4.78896C198.864 5.12496 198.776 5.54896 198.776 6.06096C198.776 6.56496 198.864 6.98896 199.04 7.33296C199.224 7.67696 199.46 7.93696 199.748 8.11296C200.044 8.28096 200.364 8.36496 200.708 8.36496ZM207.306 9.22896C206.842 9.22896 206.434 9.13696 206.082 8.95296C205.738 8.76896 205.47 8.48496 205.278 8.10096C205.094 7.71696 205.002 7.23696 205.002 6.66096V3.03696H206.01V6.55296C206.01 7.15296 206.142 7.60496 206.406 7.90896C206.67 8.21296 207.042 8.36496 207.522 8.36496C207.858 8.36496 208.162 8.28496 208.434 8.12496C208.706 7.95696 208.918 7.72096 209.07 7.41696C209.23 7.10496 209.31 6.72496 209.31 6.27696V3.03696H210.318V9.08496H209.406L209.346 8.02896C209.162 8.40496 208.89 8.70096 208.53 8.91696C208.17 9.12496 207.762 9.22896 207.306 9.22896ZM211.988 9.08496V3.03696H212.9L212.972 4.18896C213.108 3.91696 213.28 3.68496 213.488 3.49296C213.704 3.30096 213.96 3.15296 214.256 3.04896C214.56 2.94496 214.904 2.89296 215.288 2.89296V3.94896H214.916C214.66 3.94896 214.416 3.98496 214.184 4.05696C213.952 4.12096 213.744 4.22896 213.56 4.38096C213.384 4.53296 213.244 4.74096 213.14 5.00496C213.044 5.26096 212.996 5.58096 212.996 5.96496V9.08496H211.988ZM218.71 9.22896C218.206 9.22896 217.766 9.14496 217.39 8.97696C217.022 8.80896 216.726 8.57696 216.502 8.28096C216.286 7.97696 216.154 7.62096 216.106 7.21296H217.138C217.178 7.42096 217.262 7.61296 217.39 7.78896C217.518 7.96496 217.69 8.10896 217.906 8.22096C218.13 8.32496 218.402 8.37696 218.722 8.37696C219.002 8.37696 219.234 8.33696 219.418 8.25696C219.602 8.16896 219.738 8.05296 219.826 7.90896C219.922 7.76496 219.97 7.60896 219.97 7.44096C219.97 7.19296 219.91 7.00496 219.79 6.87696C219.678 6.74896 219.51 6.64896 219.286 6.57696C219.062 6.49696 218.79 6.42896 218.47 6.37296C218.206 6.32496 217.946 6.26096 217.69 6.18096C217.434 6.10096 217.206 5.99696 217.006 5.86896C216.806 5.73296 216.646 5.56896 216.526 5.37696C216.414 5.18496 216.358 4.94896 216.358 4.66896C216.358 4.32496 216.446 4.02096 216.622 3.75696C216.798 3.48496 217.05 3.27296 217.378 3.12096C217.714 2.96896 218.102 2.89296 218.542 2.89296C219.19 2.89296 219.714 3.04896 220.114 3.36096C220.514 3.67296 220.75 4.12496 220.822 4.71696H219.826C219.786 4.41296 219.654 4.17696 219.43 4.00896C219.214 3.83296 218.914 3.74496 218.53 3.74496C218.154 3.74496 217.866 3.82096 217.666 3.97296C217.474 4.12496 217.378 4.32496 217.378 4.57296C217.378 4.73296 217.43 4.87696 217.534 5.00496C217.646 5.12496 217.806 5.22896 218.014 5.31696C218.23 5.40496 218.494 5.47696 218.806 5.53296C219.206 5.60496 219.57 5.70096 219.898 5.82096C220.226 5.94096 220.49 6.12096 220.69 6.36096C220.898 6.59296 221.002 6.92496 221.002 7.35696C221.002 7.73296 220.906 8.06096 220.714 8.34096C220.53 8.62096 220.266 8.84096 219.922 9.00096C219.578 9.15296 219.174 9.22896 218.71 9.22896ZM225.105 9.22896C224.537 9.22896 224.033 9.09696 223.593 8.83296C223.161 8.56896 222.821 8.20096 222.573 7.72896C222.325 7.24896 222.201 6.69296 222.201 6.06096C222.201 5.42096 222.321 4.86496 222.561 4.39296C222.809 3.92096 223.153 3.55296 223.593 3.28896C224.041 3.02496 224.553 2.89296 225.129 2.89296C225.721 2.89296 226.221 3.02496 226.629 3.28896C227.045 3.55296 227.361 3.90096 227.577 4.33296C227.801 4.75696 227.913 5.22496 227.913 5.73696C227.913 5.81696 227.913 5.90096 227.913 5.98896C227.913 6.07696 227.909 6.17696 227.901 6.28896H222.957V5.50896H226.929C226.905 4.95696 226.721 4.52496 226.377 4.21296C226.041 3.90096 225.617 3.74496 225.105 3.74496C224.761 3.74496 224.441 3.82496 224.145 3.98496C223.857 4.13696 223.625 4.36496 223.449 4.66896C223.273 4.96496 223.185 5.33696 223.185 5.78496V6.12096C223.185 6.61696 223.273 7.03296 223.449 7.36896C223.633 7.70496 223.869 7.95696 224.157 8.12496C224.453 8.29296 224.769 8.37696 225.105 8.37696C225.529 8.37696 225.877 8.28496 226.149 8.10096C226.429 7.90896 226.629 7.65296 226.749 7.33296H227.745C227.649 7.69296 227.481 8.01696 227.241 8.30496C227.001 8.59296 226.701 8.82096 226.341 8.98896C225.989 9.14896 225.577 9.22896 225.105 9.22896ZM232.461 9.08496V0.444961H233.469V4.05696C233.669 3.69696 233.949 3.41296 234.309 3.20496C234.677 2.99696 235.077 2.89296 235.509 2.89296C235.973 2.89296 236.377 2.98896 236.721 3.18096C237.065 3.36496 237.329 3.64896 237.513 4.03296C237.697 4.41696 237.789 4.90096 237.789 5.48496V9.08496H236.793V5.59296C236.793 4.98496 236.665 4.52896 236.409 4.22496C236.153 3.91296 235.781 3.75696 235.293 3.75696C234.949 3.75696 234.637 3.84096 234.357 4.00896C234.085 4.17696 233.869 4.41696 233.709 4.72896C233.549 5.04096 233.469 5.42496 233.469 5.88096V9.08496H232.461ZM242.015 9.22896C241.447 9.22896 240.943 9.09696 240.503 8.83296C240.071 8.56896 239.731 8.20096 239.483 7.72896C239.235 7.24896 239.111 6.69296 239.111 6.06096C239.111 5.42096 239.231 4.86496 239.471 4.39296C239.719 3.92096 240.063 3.55296 240.503 3.28896C240.951 3.02496 241.463 2.89296 242.039 2.89296C242.631 2.89296 243.131 3.02496 243.539 3.28896C243.955 3.55296 244.271 3.90096 244.487 4.33296C244.711 4.75696 244.823 5.22496 244.823 5.73696C244.823 5.81696 244.823 5.90096 244.823 5.98896C244.823 6.07696 244.819 6.17696 244.811 6.28896H239.867V5.50896H243.839C243.815 4.95696 243.631 4.52496 243.287 4.21296C242.951 3.90096 242.527 3.74496 242.015 3.74496C241.671 3.74496 241.351 3.82496 241.055 3.98496C240.767 4.13696 240.535 4.36496 240.359 4.66896C240.183 4.96496 240.095 5.33696 240.095 5.78496V6.12096C240.095 6.61696 240.183 7.03296 240.359 7.36896C240.543 7.70496 240.779 7.95696 241.067 8.12496C241.363 8.29296 241.679 8.37696 242.015 8.37696C242.439 8.37696 242.787 8.28496 243.059 8.10096C243.339 7.90896 243.539 7.65296 243.659 7.33296H244.655C244.559 7.69296 244.391 8.01696 244.151 8.30496C243.911 8.59296 243.611 8.82096 243.251 8.98896C242.899 9.14896 242.487 9.22896 242.015 9.22896ZM246.184 9.08496V3.03696H247.096L247.168 4.18896C247.304 3.91696 247.476 3.68496 247.684 3.49296C247.9 3.30096 248.156 3.15296 248.452 3.04896C248.756 2.94496 249.1 2.89296 249.484 2.89296V3.94896H249.112C248.856 3.94896 248.612 3.98496 248.38 4.05696C248.148 4.12096 247.94 4.22896 247.756 4.38096C247.58 4.53296 247.44 4.74096 247.336 5.00496C247.24 5.26096 247.192 5.58096 247.192 5.96496V9.08496H246.184ZM253.055 9.22896C252.487 9.22896 251.983 9.09696 251.543 8.83296C251.111 8.56896 250.771 8.20096 250.523 7.72896C250.275 7.24896 250.151 6.69296 250.151 6.06096C250.151 5.42096 250.271 4.86496 250.511 4.39296C250.759 3.92096 251.103 3.55296 251.543 3.28896C251.991 3.02496 252.503 2.89296 253.079 2.89296C253.671 2.89296 254.171 3.02496 254.579 3.28896C254.995 3.55296 255.311 3.90096 255.527 4.33296C255.751 4.75696 255.863 5.22496 255.863 5.73696C255.863 5.81696 255.863 5.90096 255.863 5.98896C255.863 6.07696 255.859 6.17696 255.851 6.28896H250.907V5.50896H254.879C254.855 4.95696 254.671 4.52496 254.327 4.21296C253.991 3.90096 253.567 3.74496 253.055 3.74496C252.711 3.74496 252.391 3.82496 252.095 3.98496C251.807 4.13696 251.575 4.36496 251.399 4.66896C251.223 4.96496 251.135 5.33696 251.135 5.78496V6.12096C251.135 6.61696 251.223 7.03296 251.399 7.36896C251.583 7.70496 251.819 7.95696 252.107 8.12496C252.403 8.29296 252.719 8.37696 253.055 8.37696C253.479 8.37696 253.827 8.28496 254.099 8.10096C254.379 7.90896 254.579 7.65296 254.699 7.33296H255.695C255.599 7.69296 255.431 8.01696 255.191 8.30496C254.951 8.59296 254.651 8.82096 254.291 8.98896C253.939 9.14896 253.527 9.22896 253.055 9.22896ZM260.391 9.22896C260.047 9.22896 259.735 9.18096 259.455 9.08496C259.183 8.98096 258.943 8.84496 258.735 8.67696C258.527 8.50896 258.355 8.31296 258.219 8.08896L258.135 9.08496H257.223V0.444961H258.231V4.03296C258.423 3.72096 258.699 3.45296 259.059 3.22896C259.419 3.00496 259.863 2.89296 260.391 2.89296C260.975 2.89296 261.487 3.03296 261.927 3.31296C262.367 3.58496 262.707 3.96096 262.947 4.44096C263.195 4.91296 263.319 5.45296 263.319 6.06096C263.319 6.66896 263.195 7.21296 262.947 7.69296C262.707 8.17296 262.367 8.54896 261.927 8.82096C261.487 9.09296 260.975 9.22896 260.391 9.22896ZM260.271 8.35296C260.663 8.35296 261.011 8.25696 261.315 8.06496C261.619 7.87296 261.855 7.60896 262.023 7.27296C262.199 6.92896 262.287 6.52496 262.287 6.06096C262.287 5.60496 262.199 5.20496 262.023 4.86096C261.855 4.51696 261.619 4.24896 261.315 4.05696C261.011 3.86496 260.663 3.76896 260.271 3.76896C259.871 3.76896 259.519 3.86496 259.215 4.05696C258.911 4.24896 258.675 4.51696 258.507 4.86096C258.339 5.20496 258.255 5.60496 258.255 6.06096C258.255 6.52496 258.339 6.92896 258.507 7.27296C258.675 7.60896 258.911 7.87296 259.215 8.06496C259.519 8.25696 259.871 8.35296 260.271 8.35296ZM264.914 11.725L266.39 8.41296H266.042L263.666 3.03696H264.758L266.726 7.65696L268.79 3.03696H269.834L265.97 11.725H264.914ZM276.078 9.22896C275.59 9.22896 275.182 9.14496 274.854 8.97696C274.526 8.80096 274.282 8.57296 274.122 8.29296C273.962 8.00496 273.882 7.69296 273.882 7.35696C273.882 6.94896 273.986 6.60496 274.194 6.32496C274.41 6.03696 274.71 5.82096 275.094 5.67696C275.486 5.52496 275.946 5.44896 276.474 5.44896H278.07C278.07 5.07296 278.01 4.76096 277.89 4.51296C277.778 4.25696 277.61 4.06496 277.386 3.93696C277.17 3.80896 276.898 3.74496 276.57 3.74496C276.186 3.74496 275.854 3.84096 275.574 4.03296C275.294 4.22496 275.122 4.50896 275.058 4.88496H274.026C274.074 4.45296 274.218 4.09296 274.458 3.80496C274.706 3.50896 275.018 3.28496 275.394 3.13296C275.77 2.97296 276.162 2.89296 276.57 2.89296C277.13 2.89296 277.594 2.99696 277.962 3.20496C278.338 3.40496 278.618 3.68896 278.802 4.05696C278.986 4.41696 279.078 4.84496 279.078 5.34096V9.08496H278.178L278.118 8.01696C278.038 8.18496 277.934 8.34496 277.806 8.49696C277.686 8.64096 277.542 8.76896 277.374 8.88096C277.206 8.98496 277.014 9.06896 276.798 9.13296C276.59 9.19696 276.35 9.22896 276.078 9.22896ZM276.234 8.37696C276.514 8.37696 276.766 8.32096 276.99 8.20896C277.222 8.08896 277.418 7.92896 277.578 7.72896C277.738 7.52096 277.858 7.29296 277.938 7.04496C278.026 6.79696 278.07 6.53696 278.07 6.26496V6.22896H276.558C276.166 6.22896 275.85 6.27696 275.61 6.37296C275.37 6.46096 275.198 6.58896 275.094 6.75696C274.99 6.91696 274.938 7.10096 274.938 7.30896C274.938 7.52496 274.986 7.71296 275.082 7.87296C275.186 8.03296 275.334 8.15696 275.526 8.24496C275.726 8.33296 275.962 8.37696 276.234 8.37696ZM280.637 9.08496V0.444961H281.645V9.08496H280.637ZM283.309 9.08496V0.444961H284.317V9.08496H283.309ZM288.681 9.22896C288.121 9.22896 287.617 9.10096 287.169 8.84496C286.721 8.58096 286.369 8.21296 286.113 7.74096C285.857 7.26096 285.729 6.70496 285.729 6.07296C285.729 5.42496 285.857 4.86496 286.113 4.39296C286.377 3.91296 286.733 3.54496 287.181 3.28896C287.637 3.02496 288.145 2.89296 288.705 2.89296C289.281 2.89296 289.789 3.02496 290.229 3.28896C290.677 3.54496 291.029 3.91296 291.285 4.39296C291.549 4.86496 291.681 5.42096 291.681 6.06096C291.681 6.70096 291.549 7.26096 291.285 7.74096C291.021 8.21296 290.665 8.58096 290.217 8.84496C289.769 9.10096 289.257 9.22896 288.681 9.22896ZM288.693 8.36496C289.037 8.36496 289.357 8.28096 289.653 8.11296C289.949 7.93696 290.189 7.67696 290.373 7.33296C290.557 6.98896 290.649 6.56496 290.649 6.06096C290.649 5.54896 290.557 5.12496 290.373 4.78896C290.197 4.44496 289.961 4.18896 289.665 4.02096C289.377 3.84496 289.057 3.75696 288.705 3.75696C288.369 3.75696 288.049 3.84496 287.745 4.02096C287.449 4.18896 287.209 4.44496 287.025 4.78896C286.849 5.12496 286.761 5.54896 286.761 6.06096C286.761 6.56496 286.849 6.98896 287.025 7.33296C287.209 7.67696 287.445 7.93696 287.733 8.11296C288.029 8.28096 288.349 8.36496 288.693 8.36496ZM294.095 9.08496L292.319 3.03696H293.327L294.707 8.13696H294.527L296.027 3.03696H297.167L298.691 8.12496L298.499 8.13696L299.867 3.03696H300.887L299.123 9.08496H298.091L296.507 3.75696H296.711L295.127 9.08496H294.095ZM304.304 9.22896C303.8 9.22896 303.36 9.14496 302.984 8.97696C302.616 8.80896 302.32 8.57696 302.096 8.28096C301.88 7.97696 301.748 7.62096 301.7 7.21296H302.732C302.772 7.42096 302.856 7.61296 302.984 7.78896C303.112 7.96496 303.284 8.10896 303.5 8.22096C303.724 8.32496 303.996 8.37696 304.316 8.37696C304.596 8.37696 304.828 8.33696 305.012 8.25696C305.196 8.16896 305.332 8.05296 305.42 7.90896C305.516 7.76496 305.564 7.60896 305.564 7.44096C305.564 7.19296 305.504 7.00496 305.384 6.87696C305.272 6.74896 305.104 6.64896 304.88 6.57696C304.656 6.49696 304.384 6.42896 304.064 6.37296C303.8 6.32496 303.54 6.26096 303.284 6.18096C303.028 6.10096 302.8 5.99696 302.6 5.86896C302.4 5.73296 302.24 5.56896 302.12 5.37696C302.008 5.18496 301.952 4.94896 301.952 4.66896C301.952 4.32496 302.04 4.02096 302.216 3.75696C302.392 3.48496 302.644 3.27296 302.972 3.12096C303.308 2.96896 303.696 2.89296 304.136 2.89296C304.784 2.89296 305.308 3.04896 305.708 3.36096C306.108 3.67296 306.344 4.12496 306.416 4.71696H305.42C305.38 4.41296 305.248 4.17696 305.024 4.00896C304.808 3.83296 304.508 3.74496 304.124 3.74496C303.748 3.74496 303.46 3.82096 303.26 3.97296C303.068 4.12496 302.972 4.32496 302.972 4.57296C302.972 4.73296 303.024 4.87696 303.128 5.00496C303.24 5.12496 303.4 5.22896 303.608 5.31696C303.824 5.40496 304.088 5.47696 304.4 5.53296C304.8 5.60496 305.164 5.70096 305.492 5.82096C305.82 5.94096 306.084 6.12096 306.284 6.36096C306.492 6.59296 306.596 6.92496 306.596 7.35696C306.596 7.73296 306.5 8.06096 306.308 8.34096C306.124 8.62096 305.86 8.84096 305.516 9.00096C305.172 9.15296 304.768 9.22896 304.304 9.22896ZM313.611 9.08496C313.251 9.08496 312.939 9.02896 312.675 8.91696C312.411 8.80496 312.207 8.61696 312.063 8.35296C311.927 8.08096 311.859 7.71696 311.859 7.26096V3.88896H310.803V3.03696H311.859L311.991 1.57296H312.867V3.03696H314.619V3.88896H312.867V7.26096C312.867 7.63696 312.943 7.89296 313.095 8.02896C313.247 8.15696 313.515 8.22096 313.899 8.22096H314.547V9.08496H313.611ZM315.934 9.08496V0.444961H316.942V4.05696C317.142 3.69696 317.422 3.41296 317.782 3.20496C318.15 2.99696 318.55 2.89296 318.982 2.89296C319.446 2.89296 319.85 2.98896 320.194 3.18096C320.538 3.36496 320.802 3.64896 320.986 4.03296C321.17 4.41696 321.262 4.90096 321.262 5.48496V9.08496H320.266V5.59296C320.266 4.98496 320.138 4.52896 319.882 4.22496C319.626 3.91296 319.254 3.75696 318.766 3.75696C318.422 3.75696 318.11 3.84096 317.83 4.00896C317.558 4.17696 317.342 4.41696 317.182 4.72896C317.022 5.04096 316.942 5.42496 316.942 5.88096V9.08496H315.934ZM325.488 9.22896C324.92 9.22896 324.416 9.09696 323.976 8.83296C323.544 8.56896 323.204 8.20096 322.956 7.72896C322.708 7.24896 322.584 6.69296 322.584 6.06096C322.584 5.42096 322.704 4.86496 322.944 4.39296C323.192 3.92096 323.536 3.55296 323.976 3.28896C324.424 3.02496 324.936 2.89296 325.512 2.89296C326.104 2.89296 326.604 3.02496 327.012 3.28896C327.428 3.55296 327.744 3.90096 327.96 4.33296C328.184 4.75696 328.296 5.22496 328.296 5.73696C328.296 5.81696 328.296 5.90096 328.296 5.98896C328.296 6.07696 328.292 6.17696 328.284 6.28896H323.34V5.50896H327.312C327.288 4.95696 327.104 4.52496 326.76 4.21296C326.424 3.90096 326 3.74496 325.488 3.74496C325.144 3.74496 324.824 3.82496 324.528 3.98496C324.24 4.13696 324.008 4.36496 323.832 4.66896C323.656 4.96496 323.568 5.33696 323.568 5.78496V6.12096C323.568 6.61696 323.656 7.03296 323.832 7.36896C324.016 7.70496 324.252 7.95696 324.54 8.12496C324.836 8.29296 325.152 8.37696 325.488 8.37696C325.912 8.37696 326.26 8.28496 326.532 8.10096C326.812 7.90896 327.012 7.65296 327.132 7.33296H328.128C328.032 7.69296 327.864 8.01696 327.624 8.30496C327.384 8.59296 327.084 8.82096 326.724 8.98896C326.372 9.14896 325.96 9.22896 325.488 9.22896ZM332.844 9.08496V3.03696H333.756L333.804 4.09296C333.996 3.71696 334.268 3.42496 334.62 3.21696C334.98 3.00096 335.388 2.89296 335.844 2.89296C336.316 2.89296 336.724 2.98896 337.068 3.18096C337.412 3.36496 337.68 3.64896 337.872 4.03296C338.064 4.40896 338.16 4.88896 338.16 5.47296V9.08496H337.152V5.58096C337.152 4.97296 337.016 4.51696 336.744 4.21296C336.48 3.90896 336.104 3.75696 335.616 3.75696C335.28 3.75696 334.98 3.84096 334.716 4.00896C334.452 4.16896 334.24 4.40496 334.08 4.71696C333.928 5.02096 333.852 5.40096 333.852 5.85696V9.08496H332.844ZM341.703 9.22896C341.215 9.22896 340.807 9.14496 340.479 8.97696C340.151 8.80096 339.907 8.57296 339.747 8.29296C339.587 8.00496 339.507 7.69296 339.507 7.35696C339.507 6.94896 339.611 6.60496 339.819 6.32496C340.035 6.03696 340.335 5.82096 340.719 5.67696C341.111 5.52496 341.571 5.44896 342.099 5.44896H343.695C343.695 5.07296 343.635 4.76096 343.515 4.51296C343.403 4.25696 343.235 4.06496 343.011 3.93696C342.795 3.80896 342.523 3.74496 342.195 3.74496C341.811 3.74496 341.479 3.84096 341.199 4.03296C340.919 4.22496 340.747 4.50896 340.683 4.88496H339.651C339.699 4.45296 339.843 4.09296 340.083 3.80496C340.331 3.50896 340.643 3.28496 341.019 3.13296C341.395 2.97296 341.787 2.89296 342.195 2.89296C342.755 2.89296 343.219 2.99696 343.587 3.20496C343.963 3.40496 344.243 3.68896 344.427 4.05696C344.611 4.41696 344.703 4.84496 344.703 5.34096V9.08496H343.803L343.743 8.01696C343.663 8.18496 343.559 8.34496 343.431 8.49696C343.311 8.64096 343.167 8.76896 342.999 8.88096C342.831 8.98496 342.639 9.06896 342.423 9.13296C342.215 9.19696 341.975 9.22896 341.703 9.22896ZM341.859 8.37696C342.139 8.37696 342.391 8.32096 342.615 8.20896C342.847 8.08896 343.043 7.92896 343.203 7.72896C343.363 7.52096 343.483 7.29296 343.563 7.04496C343.651 6.79696 343.695 6.53696 343.695 6.26496V6.22896H342.183C341.791 6.22896 341.475 6.27696 341.235 6.37296C340.995 6.46096 340.823 6.58896 340.719 6.75696C340.615 6.91696 340.563 7.10096 340.563 7.30896C340.563 7.52496 340.611 7.71296 340.707 7.87296C340.811 8.03296 340.959 8.15696 341.151 8.24496C341.351 8.33296 341.587 8.37696 341.859 8.37696ZM346.262 9.08496V3.03696H347.174L347.234 3.90096C347.426 3.58896 347.682 3.34496 348.002 3.16896C348.33 2.98496 348.686 2.89296 349.07 2.89296C349.382 2.89296 349.662 2.93696 349.91 3.02496C350.166 3.10496 350.39 3.23296 350.582 3.40896C350.774 3.57696 350.93 3.79296 351.05 4.05696C351.258 3.68896 351.542 3.40496 351.902 3.20496C352.27 2.99696 352.662 2.89296 353.078 2.89296C353.542 2.89296 353.946 2.98896 354.29 3.18096C354.642 3.36496 354.91 3.64896 355.094 4.03296C355.286 4.40896 355.382 4.88896 355.382 5.47296V9.08496H354.386V5.58096C354.386 4.97296 354.262 4.51696 354.014 4.21296C353.766 3.90896 353.418 3.75696 352.97 3.75696C352.658 3.75696 352.378 3.84096 352.13 4.00896C351.882 4.16896 351.686 4.40496 351.542 4.71696C351.398 5.02896 351.326 5.41296 351.326 5.86896V9.08496H350.318V5.58096C350.318 4.97296 350.194 4.51696 349.946 4.21296C349.698 3.90896 349.346 3.75696 348.89 3.75696C348.586 3.75696 348.31 3.84096 348.062 4.00896C347.822 4.16896 347.63 4.40496 347.486 4.71696C347.342 5.02896 347.27 5.41296 347.27 5.86896V9.08496H346.262ZM359.601 9.22896C359.033 9.22896 358.529 9.09696 358.089 8.83296C357.657 8.56896 357.317 8.20096 357.069 7.72896C356.821 7.24896 356.697 6.69296 356.697 6.06096C356.697 5.42096 356.817 4.86496 357.057 4.39296C357.305 3.92096 357.649 3.55296 358.089 3.28896C358.537 3.02496 359.049 2.89296 359.625 2.89296C360.217 2.89296 360.717 3.02496 361.125 3.28896C361.541 3.55296 361.857 3.90096 362.073 4.33296C362.297 4.75696 362.409 5.22496 362.409 5.73696C362.409 5.81696 362.409 5.90096 362.409 5.98896C362.409 6.07696 362.405 6.17696 362.397 6.28896H357.453V5.50896H361.425C361.401 4.95696 361.217 4.52496 360.873 4.21296C360.537 3.90096 360.113 3.74496 359.601 3.74496C359.257 3.74496 358.937 3.82496 358.641 3.98496C358.353 4.13696 358.121 4.36496 357.945 4.66896C357.769 4.96496 357.681 5.33696 357.681 5.78496V6.12096C357.681 6.61696 357.769 7.03296 357.945 7.36896C358.129 7.70496 358.365 7.95696 358.653 8.12496C358.949 8.29296 359.265 8.37696 359.601 8.37696C360.025 8.37696 360.373 8.28496 360.645 8.10096C360.925 7.90896 361.125 7.65296 361.245 7.33296H362.241C362.145 7.69296 361.977 8.01696 361.737 8.30496C361.497 8.59296 361.197 8.82096 360.837 8.98896C360.485 9.14896 360.073 9.22896 359.601 9.22896ZM368.925 9.22896C368.437 9.22896 368.029 9.14496 367.701 8.97696C367.373 8.80096 367.129 8.57296 366.969 8.29296C366.809 8.00496 366.729 7.69296 366.729 7.35696C366.729 6.94896 366.833 6.60496 367.041 6.32496C367.257 6.03696 367.557 5.82096 367.941 5.67696C368.333 5.52496 368.793 5.44896 369.321 5.44896H370.917C370.917 5.07296 370.857 4.76096 370.737 4.51296C370.625 4.25696 370.457 4.06496 370.233 3.93696C370.017 3.80896 369.745 3.74496 369.417 3.74496C369.033 3.74496 368.701 3.84096 368.421 4.03296C368.141 4.22496 367.969 4.50896 367.905 4.88496H366.873C366.921 4.45296 367.065 4.09296 367.305 3.80496C367.553 3.50896 367.865 3.28496 368.241 3.13296C368.617 2.97296 369.009 2.89296 369.417 2.89296C369.977 2.89296 370.441 2.99696 370.809 3.20496C371.185 3.40496 371.465 3.68896 371.649 4.05696C371.833 4.41696 371.925 4.84496 371.925 5.34096V9.08496H371.025L370.965 8.01696C370.885 8.18496 370.781 8.34496 370.653 8.49696C370.533 8.64096 370.389 8.76896 370.221 8.88096C370.053 8.98496 369.861 9.06896 369.645 9.13296C369.437 9.19696 369.197 9.22896 368.925 9.22896ZM369.081 8.37696C369.361 8.37696 369.613 8.32096 369.837 8.20896C370.069 8.08896 370.265 7.92896 370.425 7.72896C370.585 7.52096 370.705 7.29296 370.785 7.04496C370.873 6.79696 370.917 6.53696 370.917 6.26496V6.22896H369.405C369.013 6.22896 368.697 6.27696 368.457 6.37296C368.217 6.46096 368.045 6.58896 367.941 6.75696C367.837 6.91696 367.785 7.10096 367.785 7.30896C367.785 7.52496 367.833 7.71296 367.929 7.87296C368.033 8.03296 368.181 8.15696 368.373 8.24496C368.573 8.33296 368.809 8.37696 369.081 8.37696ZM376.653 9.22896C376.309 9.22896 375.997 9.18096 375.717 9.08496C375.445 8.98096 375.205 8.84496 374.997 8.67696C374.789 8.50896 374.617 8.31296 374.481 8.08896L374.397 9.08496H373.485V0.444961H374.493V4.03296C374.685 3.72096 374.961 3.45296 375.321 3.22896C375.681 3.00496 376.125 2.89296 376.653 2.89296C377.237 2.89296 377.749 3.03296 378.189 3.31296C378.629 3.58496 378.969 3.96096 379.209 4.44096C379.457 4.91296 379.581 5.45296 379.581 6.06096C379.581 6.66896 379.457 7.21296 379.209 7.69296C378.969 8.17296 378.629 8.54896 378.189 8.82096C377.749 9.09296 377.237 9.22896 376.653 9.22896ZM376.533 8.35296C376.925 8.35296 377.273 8.25696 377.577 8.06496C377.881 7.87296 378.117 7.60896 378.285 7.27296C378.461 6.92896 378.549 6.52496 378.549 6.06096C378.549 5.60496 378.461 5.20496 378.285 4.86096C378.117 4.51696 377.881 4.24896 377.577 4.05696C377.273 3.86496 376.925 3.76896 376.533 3.76896C376.133 3.76896 375.781 3.86496 375.477 4.05696C375.173 4.24896 374.937 4.51696 374.769 4.86096C374.601 5.20496 374.517 5.60496 374.517 6.06096C374.517 6.52496 374.601 6.92896 374.769 7.27296C374.937 7.60896 375.173 7.87296 375.477 8.06496C375.781 8.25696 376.133 8.35296 376.533 8.35296ZM383.696 9.22896C383.136 9.22896 382.632 9.10096 382.184 8.84496C381.736 8.58096 381.384 8.21296 381.128 7.74096C380.872 7.26096 380.744 6.70496 380.744 6.07296C380.744 5.42496 380.872 4.86496 381.128 4.39296C381.392 3.91296 381.748 3.54496 382.196 3.28896C382.652 3.02496 383.16 2.89296 383.72 2.89296C384.296 2.89296 384.804 3.02496 385.244 3.28896C385.692 3.54496 386.044 3.91296 386.3 4.39296C386.564 4.86496 386.696 5.42096 386.696 6.06096C386.696 6.70096 386.564 7.26096 386.3 7.74096C386.036 8.21296 385.68 8.58096 385.232 8.84496C384.784 9.10096 384.272 9.22896 383.696 9.22896ZM383.708 8.36496C384.052 8.36496 384.372 8.28096 384.668 8.11296C384.964 7.93696 385.204 7.67696 385.388 7.33296C385.572 6.98896 385.664 6.56496 385.664 6.06096C385.664 5.54896 385.572 5.12496 385.388 4.78896C385.212 4.44496 384.976 4.18896 384.68 4.02096C384.392 3.84496 384.072 3.75696 383.72 3.75696C383.384 3.75696 383.064 3.84496 382.76 4.02096C382.464 4.18896 382.224 4.44496 382.04 4.78896C381.864 5.12496 381.776 5.54896 381.776 6.06096C381.776 6.56496 381.864 6.98896 382.04 7.33296C382.224 7.67696 382.46 7.93696 382.748 8.11296C383.044 8.28096 383.364 8.36496 383.708 8.36496ZM389.545 9.08496L387.253 3.03696H388.309L390.133 8.11296L391.969 3.03696H393.001L390.709 9.08496H389.545ZM396.48 9.22896C395.912 9.22896 395.408 9.09696 394.968 8.83296C394.536 8.56896 394.196 8.20096 393.948 7.72896C393.7 7.24896 393.576 6.69296 393.576 6.06096C393.576 5.42096 393.696 4.86496 393.936 4.39296C394.184 3.92096 394.528 3.55296 394.968 3.28896C395.416 3.02496 395.928 2.89296 396.504 2.89296C397.096 2.89296 397.596 3.02496 398.004 3.28896C398.42 3.55296 398.736 3.90096 398.952 4.33296C399.176 4.75696 399.288 5.22496 399.288 5.73696C399.288 5.81696 399.288 5.90096 399.288 5.98896C399.288 6.07696 399.284 6.17696 399.276 6.28896H394.332V5.50896H398.304C398.28 4.95696 398.096 4.52496 397.752 4.21296C397.416 3.90096 396.992 3.74496 396.48 3.74496C396.136 3.74496 395.816 3.82496 395.52 3.98496C395.232 4.13696 395 4.36496 394.824 4.66896C394.648 4.96496 394.56 5.33696 394.56 5.78496V6.12096C394.56 6.61696 394.648 7.03296 394.824 7.36896C395.008 7.70496 395.244 7.95696 395.532 8.12496C395.828 8.29296 396.144 8.37696 396.48 8.37696C396.904 8.37696 397.252 8.28496 397.524 8.10096C397.804 7.90896 398.004 7.65296 398.124 7.33296H399.12C399.024 7.69296 398.856 8.01696 398.616 8.30496C398.376 8.59296 398.076 8.82096 397.716 8.98896C397.364 9.14896 396.952 9.22896 396.48 9.22896ZM406.212 9.08496C405.852 9.08496 405.54 9.02896 405.276 8.91696C405.012 8.80496 404.808 8.61696 404.664 8.35296C404.528 8.08096 404.46 7.71696 404.46 7.26096V3.88896H403.404V3.03696H404.46L404.592 1.57296H405.468V3.03696H407.22V3.88896H405.468V7.26096C405.468 7.63696 405.544 7.89296 405.696 8.02896C405.848 8.15696 406.116 8.22096 406.5 8.22096H407.148V9.08496H406.212ZM411.071 9.22896C410.511 9.22896 410.007 9.10096 409.559 8.84496C409.111 8.58096 408.759 8.21296 408.503 7.74096C408.247 7.26096 408.119 6.70496 408.119 6.07296C408.119 5.42496 408.247 4.86496 408.503 4.39296C408.767 3.91296 409.123 3.54496 409.571 3.28896C410.027 3.02496 410.535 2.89296 411.095 2.89296C411.671 2.89296 412.179 3.02496 412.619 3.28896C413.067 3.54496 413.419 3.91296 413.675 4.39296C413.939 4.86496 414.071 5.42096 414.071 6.06096C414.071 6.70096 413.939 7.26096 413.675 7.74096C413.411 8.21296 413.055 8.58096 412.607 8.84496C412.159 9.10096 411.647 9.22896 411.071 9.22896ZM411.083 8.36496C411.427 8.36496 411.747 8.28096 412.043 8.11296C412.339 7.93696 412.579 7.67696 412.763 7.33296C412.947 6.98896 413.039 6.56496 413.039 6.06096C413.039 5.54896 412.947 5.12496 412.763 4.78896C412.587 4.44496 412.351 4.18896 412.055 4.02096C411.767 3.84496 411.447 3.75696 411.095 3.75696C410.759 3.75696 410.439 3.84496 410.135 4.02096C409.839 4.18896 409.599 4.44496 409.415 4.78896C409.239 5.12496 409.151 5.54896 409.151 6.06096C409.151 6.56496 409.239 6.98896 409.415 7.33296C409.599 7.67696 409.835 7.93696 410.123 8.11296C410.419 8.28096 410.739 8.36496 411.083 8.36496ZM3.04772 25.229C2.58372 25.229 2.17572 25.137 1.82372 24.953C1.47972 24.769 1.21172 24.485 1.01972 24.101C0.835719 23.717 0.743719 23.237 0.743719 22.661V19.037H1.75172V22.553C1.75172 23.153 1.88372 23.605 2.14772 23.909C2.41172 24.213 2.78372 24.365 3.26372 24.365C3.59972 24.365 3.90372 24.285 4.17572 24.125C4.44772 23.957 4.65972 23.721 4.81172 23.417C4.97172 23.105 5.05172 22.725 5.05172 22.277V19.037H6.05972V25.085H5.14772L5.08772 24.029C4.90372 24.405 4.63172 24.701 4.27172 24.917C3.91172 25.125 3.50372 25.229 3.04772 25.229ZM10.0106 25.229C9.50663 25.229 9.06663 25.145 8.69063 24.977C8.32263 24.809 8.02663 24.577 7.80263 24.281C7.58663 23.977 7.45463 23.621 7.40663 23.213H8.43863C8.47863 23.421 8.56263 23.613 8.69063 23.789C8.81863 23.965 8.99063 24.109 9.20663 24.221C9.43063 24.325 9.70263 24.377 10.0226 24.377C10.3026 24.377 10.5346 24.337 10.7186 24.257C10.9026 24.169 11.0386 24.053 11.1266 23.909C11.2226 23.765 11.2706 23.609 11.2706 23.441C11.2706 23.193 11.2106 23.005 11.0906 22.877C10.9786 22.749 10.8106 22.649 10.5866 22.577C10.3626 22.497 10.0906 22.429 9.77063 22.373C9.50663 22.325 9.24663 22.261 8.99063 22.181C8.73463 22.101 8.50663 21.997 8.30663 21.869C8.10663 21.733 7.94663 21.569 7.82663 21.377C7.71463 21.185 7.65863 20.949 7.65863 20.669C7.65863 20.325 7.74663 20.021 7.92263 19.757C8.09863 19.485 8.35063 19.273 8.67863 19.121C9.01463 18.969 9.40263 18.893 9.84263 18.893C10.4906 18.893 11.0146 19.049 11.4146 19.361C11.8146 19.673 12.0506 20.125 12.1226 20.717H11.1266C11.0866 20.413 10.9546 20.177 10.7306 20.009C10.5146 19.833 10.2146 19.745 9.83063 19.745C9.45463 19.745 9.16663 19.821 8.96663 19.973C8.77463 20.125 8.67863 20.325 8.67863 20.573C8.67863 20.733 8.73063 20.877 8.83463 21.005C8.94663 21.125 9.10663 21.229 9.31463 21.317C9.53063 21.405 9.79463 21.477 10.1066 21.533C10.5066 21.605 10.8706 21.701 11.1986 21.821C11.5266 21.941 11.7906 22.121 11.9906 22.361C12.1986 22.593 12.3026 22.925 12.3026 23.357C12.3026 23.733 12.2066 24.061 12.0146 24.341C11.8306 24.621 11.5666 24.841 11.2226 25.001C10.8786 25.153 10.4746 25.229 10.0106 25.229ZM16.4061 25.229C15.8381 25.229 15.3341 25.097 14.8941 24.833C14.4621 24.569 14.1221 24.201 13.8741 23.729C13.6261 23.249 13.5021 22.693 13.5021 22.061C13.5021 21.421 13.6221 20.865 13.8621 20.393C14.1101 19.921 14.4541 19.553 14.8941 19.289C15.3421 19.025 15.8541 18.893 16.4301 18.893C17.0221 18.893 17.5221 19.025 17.9301 19.289C18.3461 19.553 18.6621 19.901 18.8781 20.333C19.1021 20.757 19.2141 21.225 19.2141 21.737C19.2141 21.817 19.2141 21.901 19.2141 21.989C19.2141 22.077 19.2101 22.177 19.2021 22.289H14.2581V21.509H18.2301C18.2061 20.957 18.0221 20.525 17.6781 20.213C17.3421 19.901 16.9181 19.745 16.4061 19.745C16.0621 19.745 15.7421 19.825 15.4461 19.985C15.1581 20.137 14.9261 20.365 14.7501 20.669C14.5741 20.965 14.4861 21.337 14.4861 21.785V22.121C14.4861 22.617 14.5741 23.033 14.7501 23.369C14.9341 23.705 15.1701 23.957 15.4581 24.125C15.7541 24.293 16.0701 24.377 16.4061 24.377C16.8301 24.377 17.1781 24.285 17.4501 24.101C17.7301 23.909 17.9301 23.653 18.0501 23.333H19.0461C18.9501 23.693 18.7821 24.017 18.5421 24.305C18.3021 24.593 18.0021 24.821 17.6421 24.989C17.2901 25.149 16.8781 25.229 16.4061 25.229ZM26.1379 25.085C25.7779 25.085 25.4659 25.029 25.2019 24.917C24.9379 24.805 24.7339 24.617 24.5899 24.353C24.4539 24.081 24.3859 23.717 24.3859 23.261V19.889H23.3299V19.037H24.3859L24.5179 17.573H25.3939V19.037H27.1459V19.889H25.3939V23.261C25.3939 23.637 25.4699 23.893 25.6219 24.029C25.7739 24.157 26.0419 24.221 26.4259 24.221H27.0739V25.085H26.1379ZM28.4611 25.085V16.445H29.4691V20.057C29.6691 19.697 29.9491 19.413 30.3091 19.205C30.6771 18.997 31.0771 18.893 31.5091 18.893C31.9731 18.893 32.3771 18.989 32.7211 19.181C33.0651 19.365 33.3291 19.649 33.5131 20.033C33.6971 20.417 33.7891 20.901 33.7891 21.485V25.085H32.7931V21.593C32.7931 20.985 32.6651 20.529 32.4091 20.225C32.1531 19.913 31.7811 19.757 31.2931 19.757C30.9491 19.757 30.6371 19.841 30.3571 20.009C30.0851 20.177 29.8691 20.417 29.7091 20.729C29.5491 21.041 29.4691 21.425 29.4691 21.881V25.085H28.4611ZM38.0154 25.229C37.4474 25.229 36.9434 25.097 36.5034 24.833C36.0714 24.569 35.7314 24.201 35.4834 23.729C35.2354 23.249 35.1114 22.693 35.1114 22.061C35.1114 21.421 35.2314 20.865 35.4714 20.393C35.7194 19.921 36.0634 19.553 36.5034 19.289C36.9514 19.025 37.4634 18.893 38.0394 18.893C38.6314 18.893 39.1314 19.025 39.5394 19.289C39.9554 19.553 40.2714 19.901 40.4874 20.333C40.7114 20.757 40.8234 21.225 40.8234 21.737C40.8234 21.817 40.8234 21.901 40.8234 21.989C40.8234 22.077 40.8194 22.177 40.8114 22.289H35.8674V21.509H39.8394C39.8154 20.957 39.6314 20.525 39.2874 20.213C38.9514 19.901 38.5274 19.745 38.0154 19.745C37.6714 19.745 37.3514 19.825 37.0554 19.985C36.7674 20.137 36.5354 20.365 36.3594 20.669C36.1834 20.965 36.0954 21.337 36.0954 21.785V22.121C36.0954 22.617 36.1834 23.033 36.3594 23.369C36.5434 23.705 36.7794 23.957 37.0674 24.125C37.3634 24.293 37.6794 24.377 38.0154 24.377C38.4394 24.377 38.7874 24.285 39.0594 24.101C39.3394 23.909 39.5394 23.653 39.6594 23.333H40.6554C40.5594 23.693 40.3914 24.017 40.1514 24.305C39.9114 24.593 39.6114 24.821 39.2514 24.989C38.8994 25.149 38.4874 25.229 38.0154 25.229ZM47.7593 27.869C47.2153 27.869 46.7313 27.797 46.3073 27.653C45.8913 27.517 45.5673 27.305 45.3353 27.017C45.1033 26.729 44.9873 26.373 44.9873 25.949C44.9873 25.765 45.0233 25.569 45.0953 25.361C45.1753 25.153 45.3073 24.949 45.4913 24.749C45.6833 24.549 45.9513 24.369 46.2952 24.209L46.9913 24.617C46.5673 24.793 46.2913 24.993 46.1633 25.217C46.0353 25.449 45.9713 25.661 45.9713 25.853C45.9713 26.117 46.0473 26.337 46.1993 26.513C46.3513 26.689 46.5633 26.821 46.8353 26.909C47.1073 26.997 47.4153 27.041 47.7593 27.041C48.1033 27.041 48.3993 26.993 48.6473 26.897C48.8953 26.801 49.0873 26.665 49.2233 26.489C49.3593 26.313 49.4273 26.105 49.4273 25.865C49.4273 25.585 49.3233 25.349 49.1153 25.157C48.9073 24.973 48.5113 24.865 47.9273 24.833C47.4553 24.801 47.0593 24.757 46.7393 24.701C46.4193 24.645 46.1553 24.581 45.9473 24.509C45.7393 24.429 45.5633 24.341 45.4193 24.245C45.2833 24.149 45.1593 24.049 45.0473 23.945V23.669L46.2113 22.517L47.0873 22.829L45.8873 23.909L46.0433 23.489C46.1313 23.553 46.2153 23.613 46.2952 23.669C46.3753 23.725 46.4833 23.773 46.6193 23.813C46.7553 23.853 46.9433 23.889 47.1833 23.921C47.4313 23.953 47.7553 23.985 48.1553 24.017C48.7073 24.057 49.1473 24.153 49.4753 24.305C49.8113 24.457 50.0513 24.661 50.1953 24.917C50.3473 25.173 50.4233 25.477 50.4233 25.829C50.4233 26.173 50.3273 26.497 50.1353 26.801C49.9513 27.113 49.6633 27.369 49.2713 27.569C48.8793 27.769 48.3753 27.869 47.7593 27.869ZM47.7473 23.189C47.2433 23.189 46.8113 23.093 46.4513 22.901C46.0993 22.709 45.8313 22.453 45.6473 22.133C45.4633 21.805 45.3713 21.441 45.3713 21.041C45.3713 20.641 45.4633 20.281 45.6473 19.961C45.8393 19.641 46.1113 19.385 46.4633 19.193C46.8153 18.993 47.2433 18.893 47.7473 18.893C48.2513 18.893 48.6793 18.993 49.0313 19.193C49.3833 19.385 49.6513 19.641 49.8353 19.961C50.0193 20.281 50.1113 20.641 50.1113 21.041C50.1113 21.441 50.0193 21.805 49.8353 22.133C49.6513 22.453 49.3833 22.709 49.0313 22.901C48.6793 23.093 48.2513 23.189 47.7473 23.189ZM47.7473 22.361C48.1793 22.361 48.5193 22.249 48.7673 22.025C49.0153 21.801 49.1393 21.473 49.1393 21.041C49.1393 20.617 49.0153 20.293 48.7673 20.069C48.5193 19.845 48.1793 19.733 47.7473 19.733C47.3233 19.733 46.9793 19.845 46.7153 20.069C46.4593 20.293 46.3313 20.617 46.3313 21.041C46.3313 21.473 46.4593 21.801 46.7153 22.025C46.9713 22.249 47.3153 22.361 47.7473 22.361ZM48.7313 19.889L48.4313 19.037H50.9033V19.793L48.7313 19.889ZM52.1587 25.085V19.037H53.1667V25.085H52.1587ZM52.6627 17.753C52.4627 17.753 52.2947 17.689 52.1587 17.561C52.0307 17.425 51.9667 17.257 51.9667 17.057C51.9667 16.857 52.0307 16.697 52.1587 16.577C52.2947 16.449 52.4627 16.385 52.6627 16.385C52.8547 16.385 53.0187 16.449 53.1547 16.577C53.2907 16.697 53.3587 16.857 53.3587 17.057C53.3587 17.257 53.2907 17.425 53.1547 17.561C53.0187 17.689 52.8547 17.753 52.6627 17.753ZM56.6855 25.085L54.3935 19.037H55.4495L57.2735 24.113L59.1095 19.037H60.1415L57.8495 25.085H56.6855ZM63.6209 25.229C63.0529 25.229 62.5489 25.097 62.1089 24.833C61.6769 24.569 61.3369 24.201 61.0889 23.729C60.8409 23.249 60.7169 22.693 60.7169 22.061C60.7169 21.421 60.8369 20.865 61.0769 20.393C61.3249 19.921 61.6689 19.553 62.1089 19.289C62.5569 19.025 63.0689 18.893 63.6449 18.893C64.2369 18.893 64.7369 19.025 65.1449 19.289C65.5609 19.553 65.8769 19.901 66.0929 20.333C66.3169 20.757 66.4289 21.225 66.4289 21.737C66.4289 21.817 66.4289 21.901 66.4289 21.989C66.4289 22.077 66.4249 22.177 66.4169 22.289H61.4729V21.509H65.4449C65.4209 20.957 65.2369 20.525 64.8929 20.213C64.5569 19.901 64.1329 19.745 63.6209 19.745C63.2769 19.745 62.9569 19.825 62.6609 19.985C62.3729 20.137 62.1409 20.365 61.9649 20.669C61.7889 20.965 61.7009 21.337 61.7009 21.785V22.121C61.7009 22.617 61.7889 23.033 61.9649 23.369C62.1489 23.705 62.3849 23.957 62.6729 24.125C62.9689 24.293 63.2849 24.377 63.6209 24.377C64.0449 24.377 64.3929 24.285 64.6649 24.101C64.9449 23.909 65.1449 23.653 65.2649 23.333H66.2609C66.1649 23.693 65.9969 24.017 65.7569 24.305C65.5169 24.593 65.2169 24.821 64.8569 24.989C64.5049 25.149 64.0929 25.229 63.6209 25.229ZM67.7892 25.085V19.037H68.7012L68.7492 20.093C68.9412 19.717 69.2132 19.425 69.5652 19.217C69.9252 19.001 70.3332 18.893 70.7892 18.893C71.2612 18.893 71.6692 18.989 72.0132 19.181C72.3572 19.365 72.6252 19.649 72.8172 20.033C73.0092 20.409 73.1052 20.889 73.1052 21.473V25.085H72.0972V21.581C72.0972 20.973 71.9612 20.517 71.6892 20.213C71.4252 19.909 71.0492 19.757 70.5612 19.757C70.2252 19.757 69.9252 19.841 69.6612 20.009C69.3972 20.169 69.1852 20.405 69.0252 20.717C68.8732 21.021 68.7972 21.401 68.7972 21.857V25.085H67.7892ZM80.5913 25.229C80.0233 25.229 79.5113 25.097 79.0553 24.833C78.6073 24.569 78.2553 24.201 77.9993 23.729C77.7433 23.249 77.6153 22.697 77.6153 22.073C77.6153 21.433 77.7433 20.877 77.9993 20.405C78.2553 19.933 78.6073 19.565 79.0553 19.301C79.5113 19.029 80.0233 18.893 80.5913 18.893C81.3113 18.893 81.9113 19.081 82.3913 19.457C82.8713 19.825 83.1753 20.321 83.3033 20.945H82.2713C82.1913 20.569 81.9953 20.277 81.6833 20.069C81.3713 19.861 81.0033 19.757 80.5793 19.757C80.2353 19.757 79.9153 19.845 79.6193 20.021C79.3233 20.189 79.0873 20.445 78.9113 20.789C78.7353 21.133 78.6473 21.557 78.6473 22.061C78.6473 22.437 78.6993 22.773 78.8033 23.069C78.9073 23.357 79.0473 23.597 79.2233 23.789C79.3993 23.981 79.6033 24.129 79.8353 24.233C80.0753 24.329 80.3233 24.377 80.5793 24.377C80.8673 24.377 81.1273 24.333 81.3593 24.245C81.5913 24.149 81.7873 24.009 81.9473 23.825C82.1073 23.641 82.2153 23.425 82.2713 23.177H83.3033C83.1753 23.785 82.8673 24.281 82.3793 24.665C81.8993 25.041 81.3033 25.229 80.5913 25.229ZM87.3865 25.229C86.8185 25.229 86.3145 25.097 85.8745 24.833C85.4425 24.569 85.1025 24.201 84.8545 23.729C84.6065 23.249 84.4825 22.693 84.4825 22.061C84.4825 21.421 84.6025 20.865 84.8425 20.393C85.0905 19.921 85.4345 19.553 85.8745 19.289C86.3225 19.025 86.8345 18.893 87.4105 18.893C88.0025 18.893 88.5025 19.025 88.9105 19.289C89.3265 19.553 89.6425 19.901 89.8585 20.333C90.0825 20.757 90.1945 21.225 90.1945 21.737C90.1945 21.817 90.1945 21.901 90.1945 21.989C90.1945 22.077 90.1905 22.177 90.1825 22.289H85.2385V21.509H89.2105C89.1865 20.957 89.0025 20.525 88.6585 20.213C88.3225 19.901 87.8985 19.745 87.3865 19.745C87.0425 19.745 86.7225 19.825 86.4265 19.985C86.1385 20.137 85.9065 20.365 85.7305 20.669C85.5545 20.965 85.4665 21.337 85.4665 21.785V22.121C85.4665 22.617 85.5545 23.033 85.7305 23.369C85.9145 23.705 86.1505 23.957 86.4385 24.125C86.7345 24.293 87.0505 24.377 87.3865 24.377C87.8105 24.377 88.1585 24.285 88.4305 24.101C88.7105 23.909 88.9105 23.653 89.0305 23.333H90.0265C89.9305 23.693 89.7625 24.017 89.5225 24.305C89.2825 24.593 88.9825 24.821 88.6225 24.989C88.2705 25.149 87.8585 25.229 87.3865 25.229ZM91.5548 25.085V19.037H92.4668L92.5388 20.189C92.6748 19.917 92.8468 19.685 93.0548 19.493C93.2708 19.301 93.5268 19.153 93.8228 19.049C94.1268 18.945 94.4708 18.893 94.8548 18.893V19.949H94.4828C94.2268 19.949 93.9828 19.985 93.7508 20.057C93.5188 20.121 93.3108 20.229 93.1268 20.381C92.9508 20.533 92.8108 20.741 92.7068 21.005C92.6108 21.261 92.5628 21.581 92.5628 21.965V25.085H91.5548ZM98.3723 25.085C98.0123 25.085 97.7003 25.029 97.4363 24.917C97.1723 24.805 96.9683 24.617 96.8243 24.353C96.6883 24.081 96.6203 23.717 96.6203 23.261V19.889H95.5643V19.037H96.6203L96.7523 17.573H97.6283V19.037H99.3803V19.889H97.6283V23.261C97.6283 23.637 97.7043 23.893 97.8563 24.029C98.0083 24.157 98.2763 24.221 98.6603 24.221H99.3083V25.085H98.3723ZM100.791 25.085V19.037H101.799V25.085H100.791ZM101.295 17.753C101.095 17.753 100.927 17.689 100.791 17.561C100.663 17.425 100.599 17.257 100.599 17.057C100.599 16.857 100.663 16.697 100.791 16.577C100.927 16.449 101.095 16.385 101.295 16.385C101.487 16.385 101.651 16.449 101.787 16.577C101.923 16.697 101.991 16.857 101.991 17.057C101.991 17.257 101.923 17.425 101.787 17.561C101.651 17.689 101.487 17.753 101.295 17.753ZM103.914 25.085V19.889H102.99V19.037H103.914V18.101C103.914 17.717 103.978 17.405 104.106 17.165C104.234 16.917 104.422 16.737 104.67 16.625C104.926 16.505 105.238 16.445 105.606 16.445H106.206V17.309H105.762C105.466 17.309 105.25 17.369 105.114 17.489C104.986 17.609 104.922 17.821 104.922 18.125V19.037H108.546V25.085H107.538V19.889H104.922V25.085H103.914ZM108.054 17.885C107.862 17.885 107.698 17.821 107.562 17.693C107.426 17.557 107.358 17.389 107.358 17.189C107.358 16.989 107.426 16.829 107.562 16.709C107.698 16.581 107.862 16.517 108.054 16.517C108.254 16.517 108.418 16.581 108.546 16.709C108.682 16.829 108.75 16.989 108.75 17.189C108.75 17.389 108.682 17.557 108.546 17.693C108.418 17.821 108.254 17.885 108.054 17.885ZM113.064 25.229C112.496 25.229 111.984 25.097 111.528 24.833C111.08 24.569 110.728 24.201 110.472 23.729C110.216 23.249 110.088 22.697 110.088 22.073C110.088 21.433 110.216 20.877 110.472 20.405C110.728 19.933 111.08 19.565 111.528 19.301C111.984 19.029 112.496 18.893 113.064 18.893C113.784 18.893 114.384 19.081 114.864 19.457C115.344 19.825 115.648 20.321 115.776 20.945H114.744C114.664 20.569 114.468 20.277 114.156 20.069C113.844 19.861 113.476 19.757 113.052 19.757C112.708 19.757 112.388 19.845 112.092 20.021C111.796 20.189 111.56 20.445 111.384 20.789C111.208 21.133 111.12 21.557 111.12 22.061C111.12 22.437 111.172 22.773 111.276 23.069C111.38 23.357 111.52 23.597 111.696 23.789C111.872 23.981 112.076 24.129 112.308 24.233C112.548 24.329 112.796 24.377 113.052 24.377C113.34 24.377 113.6 24.333 113.832 24.245C114.064 24.149 114.26 24.009 114.42 23.825C114.58 23.641 114.688 23.425 114.744 23.177H115.776C115.648 23.785 115.34 24.281 114.852 24.665C114.372 25.041 113.776 25.229 113.064 25.229ZM119.175 25.229C118.687 25.229 118.279 25.145 117.951 24.977C117.623 24.801 117.379 24.573 117.219 24.293C117.059 24.005 116.979 23.693 116.979 23.357C116.979 22.949 117.083 22.605 117.291 22.325C117.507 22.037 117.807 21.821 118.191 21.677C118.583 21.525 119.043 21.449 119.571 21.449H121.167C121.167 21.073 121.107 20.761 120.987 20.513C120.875 20.257 120.707 20.065 120.483 19.937C120.267 19.809 119.995 19.745 119.667 19.745C119.283 19.745 118.951 19.841 118.671 20.033C118.391 20.225 118.219 20.509 118.155 20.885H117.123C117.171 20.453 117.315 20.093 117.555 19.805C117.803 19.509 118.115 19.285 118.491 19.133C118.867 18.973 119.259 18.893 119.667 18.893C120.227 18.893 120.691 18.997 121.059 19.205C121.435 19.405 121.715 19.689 121.899 20.057C122.083 20.417 122.175 20.845 122.175 21.341V25.085H121.275L121.215 24.017C121.135 24.185 121.031 24.345 120.903 24.497C120.783 24.641 120.639 24.769 120.471 24.881C120.303 24.985 120.111 25.069 119.895 25.133C119.687 25.197 119.447 25.229 119.175 25.229ZM119.331 24.377C119.611 24.377 119.863 24.321 120.087 24.209C120.319 24.089 120.515 23.929 120.675 23.729C120.835 23.521 120.955 23.293 121.035 23.045C121.123 22.797 121.167 22.537 121.167 22.265V22.229H119.655C119.263 22.229 118.947 22.277 118.707 22.373C118.467 22.461 118.295 22.589 118.191 22.757C118.087 22.917 118.035 23.101 118.035 23.309C118.035 23.525 118.083 23.713 118.179 23.873C118.283 24.033 118.431 24.157 118.623 24.245C118.823 24.333 119.059 24.377 119.331 24.377ZM125.946 25.085C125.586 25.085 125.274 25.029 125.01 24.917C124.746 24.805 124.542 24.617 124.398 24.353C124.262 24.081 124.194 23.717 124.194 23.261V19.889H123.138V19.037H124.194L124.326 17.573H125.202V19.037H126.954V19.889H125.202V23.261C125.202 23.637 125.278 23.893 125.43 24.029C125.582 24.157 125.85 24.221 126.234 24.221H126.882V25.085H125.946ZM130.758 25.229C130.19 25.229 129.686 25.097 129.246 24.833C128.814 24.569 128.474 24.201 128.226 23.729C127.978 23.249 127.854 22.693 127.854 22.061C127.854 21.421 127.974 20.865 128.214 20.393C128.462 19.921 128.806 19.553 129.246 19.289C129.694 19.025 130.206 18.893 130.782 18.893C131.374 18.893 131.874 19.025 132.282 19.289C132.698 19.553 133.014 19.901 133.23 20.333C133.454 20.757 133.566 21.225 133.566 21.737C133.566 21.817 133.566 21.901 133.566 21.989C133.566 22.077 133.562 22.177 133.554 22.289H128.61V21.509H132.582C132.558 20.957 132.374 20.525 132.03 20.213C131.694 19.901 131.27 19.745 130.758 19.745C130.414 19.745 130.094 19.825 129.798 19.985C129.51 20.137 129.278 20.365 129.102 20.669C128.926 20.965 128.838 21.337 128.838 21.785V22.121C128.838 22.617 128.926 23.033 129.102 23.369C129.286 23.705 129.522 23.957 129.81 24.125C130.106 24.293 130.422 24.377 130.758 24.377C131.182 24.377 131.53 24.285 131.802 24.101C132.082 23.909 132.282 23.653 132.402 23.333H133.398C133.302 23.693 133.134 24.017 132.894 24.305C132.654 24.593 132.354 24.821 131.994 24.989C131.642 25.149 131.23 25.229 130.758 25.229ZM138.449 25.085V18.101C138.449 17.717 138.513 17.405 138.641 17.165C138.769 16.917 138.957 16.737 139.205 16.625C139.461 16.505 139.773 16.445 140.141 16.445H140.825V17.309H140.297C140.001 17.309 139.785 17.369 139.649 17.489C139.521 17.609 139.457 17.821 139.457 18.125V25.085H138.449ZM137.525 19.889V19.037H140.981V19.889H137.525ZM144.657 25.229C144.097 25.229 143.593 25.101 143.145 24.845C142.697 24.581 142.345 24.213 142.089 23.741C141.833 23.261 141.705 22.705 141.705 22.073C141.705 21.425 141.833 20.865 142.089 20.393C142.353 19.913 142.709 19.545 143.157 19.289C143.613 19.025 144.121 18.893 144.681 18.893C145.257 18.893 145.765 19.025 146.205 19.289C146.653 19.545 147.005 19.913 147.261 20.393C147.525 20.865 147.657 21.421 147.657 22.061C147.657 22.701 147.525 23.261 147.261 23.741C146.997 24.213 146.641 24.581 146.193 24.845C145.745 25.101 145.233 25.229 144.657 25.229ZM144.669 24.365C145.013 24.365 145.333 24.281 145.629 24.113C145.925 23.937 146.165 23.677 146.349 23.333C146.533 22.989 146.625 22.565 146.625 22.061C146.625 21.549 146.533 21.125 146.349 20.789C146.173 20.445 145.937 20.189 145.641 20.021C145.353 19.845 145.033 19.757 144.681 19.757C144.345 19.757 144.025 19.845 143.721 20.021C143.425 20.189 143.185 20.445 143.001 20.789C142.825 21.125 142.737 21.549 142.737 22.061C142.737 22.565 142.825 22.989 143.001 23.333C143.185 23.677 143.421 23.937 143.709 24.113C144.005 24.281 144.325 24.365 144.669 24.365ZM149.07 25.085V19.037H149.982L150.054 20.189C150.19 19.917 150.362 19.685 150.57 19.493C150.786 19.301 151.042 19.153 151.338 19.049C151.642 18.945 151.986 18.893 152.37 18.893V19.949H151.998C151.742 19.949 151.498 19.985 151.266 20.057C151.034 20.121 150.826 20.229 150.642 20.381C150.466 20.533 150.326 20.741 150.222 21.005C150.126 21.261 150.078 21.581 150.078 21.965V25.085H149.07ZM156.759 25.085V16.685H161.955V17.513H157.767V20.441H161.595V21.257H157.767V24.257H161.955V25.085H156.759ZM163.509 21.965V21.113H168.261V21.965H163.509ZM173.145 25.229C172.801 25.229 172.489 25.181 172.209 25.085C171.937 24.981 171.697 24.845 171.489 24.677C171.281 24.509 171.109 24.313 170.973 24.089L170.889 25.085H169.977V16.445H170.985V20.033C171.177 19.721 171.453 19.453 171.813 19.229C172.173 19.005 172.617 18.893 173.145 18.893C173.729 18.893 174.241 19.033 174.681 19.313C175.121 19.585 175.461 19.961 175.701 20.441C175.949 20.913 176.073 21.453 176.073 22.061C176.073 22.669 175.949 23.213 175.701 23.693C175.461 24.173 175.121 24.549 174.681 24.821C174.241 25.093 173.729 25.229 173.145 25.229ZM173.025 24.353C173.417 24.353 173.765 24.257 174.069 24.065C174.373 23.873 174.609 23.609 174.777 23.273C174.953 22.929 175.041 22.525 175.041 22.061C175.041 21.605 174.953 21.205 174.777 20.861C174.609 20.517 174.373 20.249 174.069 20.057C173.765 19.865 173.417 19.769 173.025 19.769C172.625 19.769 172.273 19.865 171.969 20.057C171.665 20.249 171.429 20.517 171.261 20.861C171.093 21.205 171.009 21.605 171.009 22.061C171.009 22.525 171.093 22.929 171.261 23.273C171.429 23.609 171.665 23.873 171.969 24.065C172.273 24.257 172.625 24.353 173.025 24.353ZM177.584 25.085V19.037H178.592V25.085H177.584ZM178.088 17.753C177.888 17.753 177.72 17.689 177.584 17.561C177.456 17.425 177.392 17.257 177.392 17.057C177.392 16.857 177.456 16.697 177.584 16.577C177.72 16.449 177.888 16.385 178.088 16.385C178.28 16.385 178.444 16.449 178.58 16.577C178.716 16.697 178.784 16.857 178.784 17.057C178.784 17.257 178.716 17.425 178.58 17.561C178.444 17.689 178.28 17.753 178.088 17.753ZM184.091 25.085L181.211 21.773L183.839 19.037H185.075L182.063 22.133L182.075 21.413L185.375 25.085H184.091ZM180.371 25.085V16.445H181.379V25.085H180.371ZM188.637 25.229C188.069 25.229 187.565 25.097 187.125 24.833C186.693 24.569 186.353 24.201 186.105 23.729C185.857 23.249 185.733 22.693 185.733 22.061C185.733 21.421 185.853 20.865 186.093 20.393C186.341 19.921 186.685 19.553 187.125 19.289C187.573 19.025 188.085 18.893 188.661 18.893C189.253 18.893 189.753 19.025 190.161 19.289C190.577 19.553 190.893 19.901 191.109 20.333C191.333 20.757 191.445 21.225 191.445 21.737C191.445 21.817 191.445 21.901 191.445 21.989C191.445 22.077 191.441 22.177 191.433 22.289H186.489V21.509H190.461C190.437 20.957 190.253 20.525 189.909 20.213C189.573 19.901 189.149 19.745 188.637 19.745C188.293 19.745 187.973 19.825 187.677 19.985C187.389 20.137 187.157 20.365 186.981 20.669C186.805 20.965 186.717 21.337 186.717 21.785V22.121C186.717 22.617 186.805 23.033 186.981 23.369C187.165 23.705 187.401 23.957 187.689 24.125C187.985 24.293 188.301 24.377 188.637 24.377C189.061 24.377 189.409 24.285 189.681 24.101C189.961 23.909 190.161 23.653 190.281 23.333H191.277C191.181 23.693 191.013 24.017 190.773 24.305C190.533 24.593 190.233 24.821 189.873 24.989C189.521 25.149 189.109 25.229 188.637 25.229ZM198.188 25.229C197.724 25.229 197.316 25.137 196.964 24.953C196.62 24.769 196.352 24.485 196.16 24.101C195.976 23.717 195.884 23.237 195.884 22.661V19.037H196.892V22.553C196.892 23.153 197.024 23.605 197.288 23.909C197.552 24.213 197.924 24.365 198.404 24.365C198.74 24.365 199.044 24.285 199.316 24.125C199.588 23.957 199.8 23.721 199.952 23.417C200.112 23.105 200.192 22.725 200.192 22.277V19.037H201.2V25.085H200.288L200.228 24.029C200.044 24.405 199.772 24.701 199.412 24.917C199.052 25.125 198.644 25.229 198.188 25.229ZM205.151 25.229C204.647 25.229 204.207 25.145 203.831 24.977C203.463 24.809 203.167 24.577 202.943 24.281C202.727 23.977 202.595 23.621 202.547 23.213H203.579C203.619 23.421 203.703 23.613 203.831 23.789C203.959 23.965 204.131 24.109 204.347 24.221C204.571 24.325 204.843 24.377 205.163 24.377C205.443 24.377 205.675 24.337 205.859 24.257C206.043 24.169 206.179 24.053 206.267 23.909C206.363 23.765 206.411 23.609 206.411 23.441C206.411 23.193 206.351 23.005 206.231 22.877C206.119 22.749 205.951 22.649 205.727 22.577C205.503 22.497 205.231 22.429 204.911 22.373C204.647 22.325 204.387 22.261 204.131 22.181C203.875 22.101 203.647 21.997 203.447 21.869C203.247 21.733 203.087 21.569 202.967 21.377C202.855 21.185 202.799 20.949 202.799 20.669C202.799 20.325 202.887 20.021 203.063 19.757C203.239 19.485 203.491 19.273 203.819 19.121C204.155 18.969 204.543 18.893 204.983 18.893C205.631 18.893 206.155 19.049 206.555 19.361C206.955 19.673 207.191 20.125 207.263 20.717H206.267C206.227 20.413 206.095 20.177 205.871 20.009C205.655 19.833 205.355 19.745 204.971 19.745C204.595 19.745 204.307 19.821 204.107 19.973C203.915 20.125 203.819 20.325 203.819 20.573C203.819 20.733 203.871 20.877 203.975 21.005C204.087 21.125 204.247 21.229 204.455 21.317C204.671 21.405 204.935 21.477 205.247 21.533C205.647 21.605 206.011 21.701 206.339 21.821C206.667 21.941 206.931 22.121 207.131 22.361C207.339 22.593 207.443 22.925 207.443 23.357C207.443 23.733 207.347 24.061 207.155 24.341C206.971 24.621 206.707 24.841 206.363 25.001C206.019 25.153 205.615 25.229 205.151 25.229ZM210.863 25.229C210.375 25.229 209.967 25.145 209.639 24.977C209.311 24.801 209.067 24.573 208.907 24.293C208.747 24.005 208.667 23.693 208.667 23.357C208.667 22.949 208.771 22.605 208.979 22.325C209.195 22.037 209.495 21.821 209.879 21.677C210.271 21.525 210.731 21.449 211.259 21.449H212.855C212.855 21.073 212.795 20.761 212.675 20.513C212.563 20.257 212.395 20.065 212.171 19.937C211.955 19.809 211.683 19.745 211.355 19.745C210.971 19.745 210.639 19.841 210.359 20.033C210.079 20.225 209.907 20.509 209.843 20.885H208.811C208.859 20.453 209.003 20.093 209.243 19.805C209.491 19.509 209.803 19.285 210.179 19.133C210.555 18.973 210.947 18.893 211.355 18.893C211.915 18.893 212.379 18.997 212.747 19.205C213.123 19.405 213.403 19.689 213.587 20.057C213.771 20.417 213.863 20.845 213.863 21.341V25.085H212.963L212.903 24.017C212.823 24.185 212.719 24.345 212.591 24.497C212.471 24.641 212.327 24.769 212.159 24.881C211.991 24.985 211.799 25.069 211.583 25.133C211.375 25.197 211.135 25.229 210.863 25.229ZM211.019 24.377C211.299 24.377 211.551 24.321 211.775 24.209C212.007 24.089 212.203 23.929 212.363 23.729C212.523 23.521 212.643 23.293 212.723 23.045C212.811 22.797 212.855 22.537 212.855 22.265V22.229H211.343C210.951 22.229 210.635 22.277 210.395 22.373C210.155 22.461 209.983 22.589 209.879 22.757C209.775 22.917 209.723 23.101 209.723 23.309C209.723 23.525 209.771 23.713 209.867 23.873C209.971 24.033 210.119 24.157 210.311 24.245C210.511 24.333 210.747 24.377 211.019 24.377ZM217.81 27.869C217.266 27.869 216.782 27.797 216.358 27.653C215.942 27.517 215.618 27.305 215.386 27.017C215.154 26.729 215.038 26.373 215.038 25.949C215.038 25.765 215.074 25.569 215.146 25.361C215.226 25.153 215.358 24.949 215.542 24.749C215.734 24.549 216.002 24.369 216.346 24.209L217.042 24.617C216.618 24.793 216.342 24.993 216.214 25.217C216.086 25.449 216.022 25.661 216.022 25.853C216.022 26.117 216.098 26.337 216.25 26.513C216.402 26.689 216.614 26.821 216.886 26.909C217.158 26.997 217.466 27.041 217.81 27.041C218.154 27.041 218.45 26.993 218.698 26.897C218.946 26.801 219.138 26.665 219.274 26.489C219.41 26.313 219.478 26.105 219.478 25.865C219.478 25.585 219.374 25.349 219.166 25.157C218.958 24.973 218.562 24.865 217.978 24.833C217.506 24.801 217.11 24.757 216.79 24.701C216.47 24.645 216.206 24.581 215.998 24.509C215.79 24.429 215.614 24.341 215.47 24.245C215.334 24.149 215.21 24.049 215.098 23.945V23.669L216.262 22.517L217.138 22.829L215.938 23.909L216.094 23.489C216.182 23.553 216.266 23.613 216.346 23.669C216.426 23.725 216.534 23.773 216.67 23.813C216.806 23.853 216.994 23.889 217.234 23.921C217.482 23.953 217.806 23.985 218.206 24.017C218.758 24.057 219.198 24.153 219.526 24.305C219.862 24.457 220.102 24.661 220.246 24.917C220.398 25.173 220.474 25.477 220.474 25.829C220.474 26.173 220.378 26.497 220.186 26.801C220.002 27.113 219.714 27.369 219.322 27.569C218.93 27.769 218.426 27.869 217.81 27.869ZM217.798 23.189C217.294 23.189 216.862 23.093 216.502 22.901C216.15 22.709 215.882 22.453 215.698 22.133C215.514 21.805 215.422 21.441 215.422 21.041C215.422 20.641 215.514 20.281 215.698 19.961C215.89 19.641 216.162 19.385 216.514 19.193C216.866 18.993 217.294 18.893 217.798 18.893C218.302 18.893 218.73 18.993 219.082 19.193C219.434 19.385 219.702 19.641 219.886 19.961C220.07 20.281 220.162 20.641 220.162 21.041C220.162 21.441 220.07 21.805 219.886 22.133C219.702 22.453 219.434 22.709 219.082 22.901C218.73 23.093 218.302 23.189 217.798 23.189ZM217.798 22.361C218.23 22.361 218.57 22.249 218.818 22.025C219.066 21.801 219.19 21.473 219.19 21.041C219.19 20.617 219.066 20.293 218.818 20.069C218.57 19.845 218.23 19.733 217.798 19.733C217.374 19.733 217.03 19.845 216.766 20.069C216.51 20.293 216.382 20.617 216.382 21.041C216.382 21.473 216.51 21.801 216.766 22.025C217.022 22.249 217.366 22.361 217.798 22.361ZM218.782 19.889L218.482 19.037H220.954V19.793L218.782 19.889ZM224.531 25.229C223.963 25.229 223.459 25.097 223.019 24.833C222.587 24.569 222.247 24.201 221.999 23.729C221.751 23.249 221.627 22.693 221.627 22.061C221.627 21.421 221.747 20.865 221.987 20.393C222.235 19.921 222.579 19.553 223.019 19.289C223.467 19.025 223.979 18.893 224.555 18.893C225.147 18.893 225.647 19.025 226.055 19.289C226.471 19.553 226.787 19.901 227.003 20.333C227.227 20.757 227.339 21.225 227.339 21.737C227.339 21.817 227.339 21.901 227.339 21.989C227.339 22.077 227.335 22.177 227.327 22.289H222.383V21.509H226.355C226.331 20.957 226.147 20.525 225.803 20.213C225.467 19.901 225.043 19.745 224.531 19.745C224.187 19.745 223.867 19.825 223.571 19.985C223.283 20.137 223.051 20.365 222.875 20.669C222.699 20.965 222.611 21.337 222.611 21.785V22.121C222.611 22.617 222.699 23.033 222.875 23.369C223.059 23.705 223.295 23.957 223.583 24.125C223.879 24.293 224.195 24.377 224.531 24.377C224.955 24.377 225.303 24.285 225.575 24.101C225.855 23.909 226.055 23.653 226.175 23.333H227.171C227.075 23.693 226.907 24.017 226.667 24.305C226.427 24.593 226.127 24.821 225.767 24.989C225.415 25.149 225.003 25.229 224.531 25.229ZM230.979 25.229C230.475 25.229 230.035 25.145 229.659 24.977C229.291 24.809 228.995 24.577 228.771 24.281C228.555 23.977 228.423 23.621 228.375 23.213H229.407C229.447 23.421 229.531 23.613 229.659 23.789C229.787 23.965 229.959 24.109 230.175 24.221C230.399 24.325 230.671 24.377 230.991 24.377C231.271 24.377 231.503 24.337 231.687 24.257C231.871 24.169 232.007 24.053 232.095 23.909C232.191 23.765 232.239 23.609 232.239 23.441C232.239 23.193 232.179 23.005 232.059 22.877C231.947 22.749 231.779 22.649 231.555 22.577C231.331 22.497 231.059 22.429 230.739 22.373C230.475 22.325 230.215 22.261 229.959 22.181C229.703 22.101 229.475 21.997 229.275 21.869C229.075 21.733 228.915 21.569 228.795 21.377C228.683 21.185 228.627 20.949 228.627 20.669C228.627 20.325 228.715 20.021 228.891 19.757C229.067 19.485 229.319 19.273 229.647 19.121C229.983 18.969 230.371 18.893 230.811 18.893C231.459 18.893 231.983 19.049 232.383 19.361C232.783 19.673 233.019 20.125 233.091 20.717H232.095C232.055 20.413 231.923 20.177 231.699 20.009C231.483 19.833 231.183 19.745 230.799 19.745C230.423 19.745 230.135 19.821 229.935 19.973C229.743 20.125 229.647 20.325 229.647 20.573C229.647 20.733 229.699 20.877 229.803 21.005C229.915 21.125 230.075 21.229 230.283 21.317C230.499 21.405 230.763 21.477 231.075 21.533C231.475 21.605 231.839 21.701 232.167 21.821C232.495 21.941 232.759 22.121 232.959 22.361C233.167 22.593 233.271 22.925 233.271 23.357C233.271 23.733 233.175 24.061 232.983 24.341C232.799 24.621 232.535 24.841 232.191 25.001C231.847 25.153 231.443 25.229 230.979 25.229ZM238.006 25.085V19.037H239.014V25.085H238.006ZM238.51 17.753C238.31 17.753 238.142 17.689 238.006 17.561C237.878 17.425 237.814 17.257 237.814 17.057C237.814 16.857 237.878 16.697 238.006 16.577C238.142 16.449 238.31 16.385 238.51 16.385C238.702 16.385 238.866 16.449 239.002 16.577C239.138 16.697 239.206 16.857 239.206 17.057C239.206 17.257 239.138 17.425 239.002 17.561C238.866 17.689 238.702 17.753 238.51 17.753ZM240.793 25.085V19.037H241.705L241.753 20.093C241.945 19.717 242.217 19.425 242.569 19.217C242.929 19.001 243.337 18.893 243.793 18.893C244.265 18.893 244.673 18.989 245.017 19.181C245.361 19.365 245.629 19.649 245.821 20.033C246.013 20.409 246.109 20.889 246.109 21.473V25.085H245.101V21.581C245.101 20.973 244.965 20.517 244.693 20.213C244.429 19.909 244.053 19.757 243.565 19.757C243.229 19.757 242.929 19.841 242.665 20.009C242.401 20.169 242.189 20.405 242.029 20.717C241.877 21.021 241.801 21.401 241.801 21.857V25.085H240.793ZM253.247 25.085C252.887 25.085 252.575 25.029 252.311 24.917C252.047 24.805 251.843 24.617 251.699 24.353C251.563 24.081 251.495 23.717 251.495 23.261V19.889H250.439V19.037H251.495L251.627 17.573H252.503V19.037H254.255V19.889H252.503V23.261C252.503 23.637 252.579 23.893 252.731 24.029C252.883 24.157 253.151 24.221 253.535 24.221H254.183V25.085H253.247ZM255.57 25.085V16.445H256.578V20.057C256.778 19.697 257.058 19.413 257.418 19.205C257.786 18.997 258.186 18.893 258.618 18.893C259.082 18.893 259.486 18.989 259.83 19.181C260.174 19.365 260.438 19.649 260.622 20.033C260.806 20.417 260.898 20.901 260.898 21.485V25.085H259.902V21.593C259.902 20.985 259.774 20.529 259.518 20.225C259.262 19.913 258.89 19.757 258.402 19.757C258.058 19.757 257.746 19.841 257.466 20.009C257.194 20.177 256.978 20.417 256.818 20.729C256.658 21.041 256.578 21.425 256.578 21.881V25.085H255.57ZM265.125 25.229C264.557 25.229 264.053 25.097 263.613 24.833C263.181 24.569 262.841 24.201 262.593 23.729C262.345 23.249 262.221 22.693 262.221 22.061C262.221 21.421 262.341 20.865 262.581 20.393C262.829 19.921 263.173 19.553 263.613 19.289C264.061 19.025 264.573 18.893 265.149 18.893C265.741 18.893 266.241 19.025 266.649 19.289C267.065 19.553 267.381 19.901 267.597 20.333C267.821 20.757 267.933 21.225 267.933 21.737C267.933 21.817 267.933 21.901 267.933 21.989C267.933 22.077 267.929 22.177 267.921 22.289H262.977V21.509H266.949C266.925 20.957 266.741 20.525 266.397 20.213C266.061 19.901 265.637 19.745 265.125 19.745C264.781 19.745 264.461 19.825 264.165 19.985C263.877 20.137 263.645 20.365 263.469 20.669C263.293 20.965 263.205 21.337 263.205 21.785V22.121C263.205 22.617 263.293 23.033 263.469 23.369C263.653 23.705 263.889 23.957 264.177 24.125C264.473 24.293 264.789 24.377 265.125 24.377C265.549 24.377 265.897 24.285 266.169 24.101C266.449 23.909 266.649 23.653 266.769 23.333H267.765C267.669 23.693 267.501 24.017 267.261 24.305C267.021 24.593 266.721 24.821 266.361 24.989C266.009 25.149 265.597 25.229 265.125 25.229ZM275.205 25.229C274.637 25.229 274.125 25.097 273.669 24.833C273.221 24.569 272.869 24.201 272.613 23.729C272.357 23.249 272.229 22.697 272.229 22.073C272.229 21.433 272.357 20.877 272.613 20.405C272.869 19.933 273.221 19.565 273.669 19.301C274.125 19.029 274.637 18.893 275.205 18.893C275.925 18.893 276.525 19.081 277.005 19.457C277.485 19.825 277.789 20.321 277.917 20.945H276.885C276.805 20.569 276.609 20.277 276.297 20.069C275.985 19.861 275.617 19.757 275.193 19.757C274.849 19.757 274.529 19.845 274.233 20.021C273.937 20.189 273.701 20.445 273.525 20.789C273.349 21.133 273.261 21.557 273.261 22.061C273.261 22.437 273.313 22.773 273.417 23.069C273.521 23.357 273.661 23.597 273.837 23.789C274.013 23.981 274.217 24.129 274.449 24.233C274.689 24.329 274.937 24.377 275.193 24.377C275.481 24.377 275.741 24.333 275.973 24.245C276.205 24.149 276.401 24.009 276.561 23.825C276.721 23.641 276.829 23.425 276.885 23.177H277.917C277.789 23.785 277.481 24.281 276.993 24.665C276.513 25.041 275.917 25.229 275.205 25.229ZM282.048 25.229C281.488 25.229 280.984 25.101 280.536 24.845C280.088 24.581 279.736 24.213 279.48 23.741C279.224 23.261 279.096 22.705 279.096 22.073C279.096 21.425 279.224 20.865 279.48 20.393C279.744 19.913 280.1 19.545 280.548 19.289C281.004 19.025 281.512 18.893 282.072 18.893C282.648 18.893 283.156 19.025 283.596 19.289C284.044 19.545 284.396 19.913 284.652 20.393C284.916 20.865 285.048 21.421 285.048 22.061C285.048 22.701 284.916 23.261 284.652 23.741C284.388 24.213 284.032 24.581 283.584 24.845C283.136 25.101 282.624 25.229 282.048 25.229ZM282.06 24.365C282.404 24.365 282.724 24.281 283.02 24.113C283.316 23.937 283.556 23.677 283.74 23.333C283.924 22.989 284.016 22.565 284.016 22.061C284.016 21.549 283.924 21.125 283.74 20.789C283.564 20.445 283.328 20.189 283.032 20.021C282.744 19.845 282.424 19.757 282.072 19.757C281.736 19.757 281.416 19.845 281.112 20.021C280.816 20.189 280.576 20.445 280.392 20.789C280.216 21.125 280.128 21.549 280.128 22.061C280.128 22.565 280.216 22.989 280.392 23.333C280.576 23.677 280.812 23.937 281.1 24.113C281.396 24.281 281.716 24.365 282.06 24.365ZM288.657 25.229C288.193 25.229 287.785 25.137 287.433 24.953C287.089 24.769 286.821 24.485 286.629 24.101C286.445 23.717 286.353 23.237 286.353 22.661V19.037H287.361V22.553C287.361 23.153 287.493 23.605 287.757 23.909C288.021 24.213 288.393 24.365 288.873 24.365C289.209 24.365 289.513 24.285 289.785 24.125C290.057 23.957 290.269 23.721 290.421 23.417C290.581 23.105 290.661 22.725 290.661 22.277V19.037H291.669V25.085H290.757L290.697 24.029C290.513 24.405 290.241 24.701 289.881 24.917C289.521 25.125 289.113 25.229 288.657 25.229ZM293.34 25.085V19.037H294.252L294.3 20.093C294.492 19.717 294.764 19.425 295.116 19.217C295.476 19.001 295.884 18.893 296.34 18.893C296.812 18.893 297.22 18.989 297.564 19.181C297.908 19.365 298.176 19.649 298.368 20.033C298.56 20.409 298.656 20.889 298.656 21.473V25.085H297.648V21.581C297.648 20.973 297.512 20.517 297.24 20.213C296.976 19.909 296.6 19.757 296.112 19.757C295.776 19.757 295.476 19.841 295.212 20.009C294.948 20.169 294.736 20.405 294.576 20.717C294.424 21.021 294.348 21.401 294.348 21.857V25.085H293.34ZM302.607 25.085C302.247 25.085 301.935 25.029 301.671 24.917C301.407 24.805 301.203 24.617 301.059 24.353C300.923 24.081 300.855 23.717 300.855 23.261V19.889H299.799V19.037H300.855L300.987 17.573H301.863V19.037H303.615V19.889H301.863V23.261C301.863 23.637 301.939 23.893 302.091 24.029C302.243 24.157 302.511 24.221 302.895 24.221H303.543V25.085H302.607ZM305.59 27.725L307.066 24.413H306.718L304.342 19.037H305.434L307.402 23.657L309.466 19.037H310.51L306.646 27.725H305.59ZM317.485 25.229C316.925 25.229 316.421 25.101 315.973 24.845C315.525 24.581 315.173 24.213 314.917 23.741C314.661 23.261 314.533 22.705 314.533 22.073C314.533 21.425 314.661 20.865 314.917 20.393C315.181 19.913 315.537 19.545 315.985 19.289C316.441 19.025 316.949 18.893 317.509 18.893C318.085 18.893 318.593 19.025 319.033 19.289C319.481 19.545 319.833 19.913 320.089 20.393C320.353 20.865 320.485 21.421 320.485 22.061C320.485 22.701 320.353 23.261 320.089 23.741C319.825 24.213 319.469 24.581 319.021 24.845C318.573 25.101 318.061 25.229 317.485 25.229ZM317.497 24.365C317.841 24.365 318.161 24.281 318.457 24.113C318.753 23.937 318.993 23.677 319.177 23.333C319.361 22.989 319.453 22.565 319.453 22.061C319.453 21.549 319.361 21.125 319.177 20.789C319.001 20.445 318.765 20.189 318.469 20.021C318.181 19.845 317.861 19.757 317.509 19.757C317.173 19.757 316.853 19.845 316.549 20.021C316.253 20.189 316.013 20.445 315.829 20.789C315.653 21.125 315.565 21.549 315.565 22.061C315.565 22.565 315.653 22.989 315.829 23.333C316.013 23.677 316.249 23.937 316.537 24.113C316.833 24.281 317.153 24.365 317.497 24.365ZM322.235 25.085V18.101C322.235 17.717 322.299 17.405 322.427 17.165C322.555 16.917 322.743 16.737 322.991 16.625C323.247 16.505 323.559 16.445 323.927 16.445H324.611V17.309H324.083C323.787 17.309 323.571 17.369 323.435 17.489C323.307 17.609 323.243 17.821 323.243 18.125V25.085H322.235ZM321.311 19.889V19.037H324.767V19.889H321.311ZM329.224 25.085V16.685H334.42V17.513H330.232V20.441H334.06V21.257H330.232V24.257H334.42V25.085H329.224ZM335.949 25.085V19.037H336.861L336.909 20.093C337.101 19.717 337.373 19.425 337.725 19.217C338.085 19.001 338.493 18.893 338.949 18.893C339.421 18.893 339.829 18.989 340.173 19.181C340.517 19.365 340.785 19.649 340.977 20.033C341.169 20.409 341.265 20.889 341.265 21.473V25.085H340.257V21.581C340.257 20.973 340.121 20.517 339.849 20.213C339.585 19.909 339.209 19.757 338.721 19.757C338.385 19.757 338.085 19.841 337.821 20.009C337.557 20.169 337.345 20.405 337.185 20.717C337.033 21.021 336.957 21.401 336.957 21.857V25.085H335.949ZM345.564 25.229C344.996 25.229 344.484 25.097 344.028 24.833C343.58 24.569 343.228 24.201 342.972 23.729C342.716 23.249 342.588 22.697 342.588 22.073C342.588 21.433 342.716 20.877 342.972 20.405C343.228 19.933 343.58 19.565 344.028 19.301C344.484 19.029 344.996 18.893 345.564 18.893C346.284 18.893 346.884 19.081 347.364 19.457C347.844 19.825 348.148 20.321 348.276 20.945H347.244C347.164 20.569 346.968 20.277 346.656 20.069C346.344 19.861 345.976 19.757 345.552 19.757C345.208 19.757 344.888 19.845 344.592 20.021C344.296 20.189 344.06 20.445 343.884 20.789C343.708 21.133 343.62 21.557 343.62 22.061C343.62 22.437 343.672 22.773 343.776 23.069C343.88 23.357 344.02 23.597 344.196 23.789C344.372 23.981 344.576 24.129 344.808 24.233C345.048 24.329 345.296 24.377 345.552 24.377C345.84 24.377 346.1 24.333 346.332 24.245C346.564 24.149 346.76 24.009 346.92 23.825C347.08 23.641 347.188 23.425 347.244 23.177H348.276C348.148 23.785 347.84 24.281 347.352 24.665C346.872 25.041 346.276 25.229 345.564 25.229ZM349.803 25.085V19.037H350.811V25.085H349.803ZM350.307 17.753C350.107 17.753 349.939 17.689 349.803 17.561C349.675 17.425 349.611 17.257 349.611 17.057C349.611 16.857 349.675 16.697 349.803 16.577C349.939 16.449 350.107 16.385 350.307 16.385C350.499 16.385 350.663 16.449 350.799 16.577C350.935 16.697 351.003 16.857 351.003 17.057C351.003 17.257 350.935 17.425 350.799 17.561C350.663 17.689 350.499 17.753 350.307 17.753ZM352.59 25.085V19.037H353.502L353.55 20.093C353.742 19.717 354.014 19.425 354.366 19.217C354.726 19.001 355.134 18.893 355.59 18.893C356.062 18.893 356.47 18.989 356.814 19.181C357.158 19.365 357.426 19.649 357.618 20.033C357.81 20.409 357.906 20.889 357.906 21.473V25.085H356.898V21.581C356.898 20.973 356.762 20.517 356.49 20.213C356.226 19.909 355.85 19.757 355.362 19.757C355.026 19.757 354.726 19.841 354.462 20.009C354.198 20.169 353.986 20.405 353.826 20.717C353.674 21.021 353.598 21.401 353.598 21.857V25.085H352.59ZM359.577 25.085V19.037H360.585V25.085H359.577ZM360.081 17.753C359.881 17.753 359.713 17.689 359.577 17.561C359.449 17.425 359.385 17.257 359.385 17.057C359.385 16.857 359.449 16.697 359.577 16.577C359.713 16.449 359.881 16.385 360.081 16.385C360.273 16.385 360.437 16.449 360.573 16.577C360.709 16.697 360.777 16.857 360.777 17.057C360.777 17.257 360.709 17.425 360.573 17.561C360.437 17.689 360.273 17.753 360.081 17.753ZM364.739 25.085C364.379 25.085 364.067 25.029 363.803 24.917C363.539 24.805 363.335 24.617 363.191 24.353C363.055 24.081 362.987 23.717 362.987 23.261V19.889H361.931V19.037H362.987L363.119 17.573H363.995V19.037H365.747V19.889H363.995V23.261C363.995 23.637 364.071 23.893 364.223 24.029C364.375 24.157 364.643 24.221 365.027 24.221H365.675V25.085H364.739ZM369.031 25.229C368.543 25.229 368.135 25.145 367.807 24.977C367.479 24.801 367.235 24.573 367.075 24.293C366.915 24.005 366.835 23.693 366.835 23.357C366.835 22.949 366.939 22.605 367.147 22.325C367.363 22.037 367.663 21.821 368.047 21.677C368.439 21.525 368.899 21.449 369.427 21.449H371.023C371.023 21.073 370.963 20.761 370.843 20.513C370.731 20.257 370.563 20.065 370.339 19.937C370.123 19.809 369.851 19.745 369.523 19.745C369.139 19.745 368.807 19.841 368.527 20.033C368.247 20.225 368.075 20.509 368.011 20.885H366.979C367.027 20.453 367.171 20.093 367.411 19.805C367.659 19.509 367.971 19.285 368.347 19.133C368.723 18.973 369.115 18.893 369.523 18.893C370.083 18.893 370.547 18.997 370.915 19.205C371.291 19.405 371.571 19.689 371.755 20.057C371.939 20.417 372.031 20.845 372.031 21.341V25.085H371.131L371.071 24.017C370.991 24.185 370.887 24.345 370.759 24.497C370.639 24.641 370.495 24.769 370.327 24.881C370.159 24.985 369.967 25.069 369.751 25.133C369.543 25.197 369.303 25.229 369.031 25.229ZM369.187 24.377C369.467 24.377 369.719 24.321 369.943 24.209C370.175 24.089 370.371 23.929 370.531 23.729C370.691 23.521 370.811 23.293 370.891 23.045C370.979 22.797 371.023 22.537 371.023 22.265V22.229H369.511C369.119 22.229 368.803 22.277 368.563 22.373C368.323 22.461 368.151 22.589 368.047 22.757C367.943 22.917 367.891 23.101 367.891 23.309C367.891 23.525 367.939 23.713 368.035 23.873C368.139 24.033 368.287 24.157 368.479 24.245C368.679 24.333 368.915 24.377 369.187 24.377ZM375.87 25.229C375.366 25.229 374.926 25.145 374.55 24.977C374.182 24.809 373.886 24.577 373.662 24.281C373.446 23.977 373.314 23.621 373.266 23.213H374.298C374.338 23.421 374.422 23.613 374.55 23.789C374.678 23.965 374.85 24.109 375.066 24.221C375.29 24.325 375.562 24.377 375.882 24.377C376.162 24.377 376.394 24.337 376.578 24.257C376.762 24.169 376.898 24.053 376.986 23.909C377.082 23.765 377.13 23.609 377.13 23.441C377.13 23.193 377.07 23.005 376.95 22.877C376.838 22.749 376.67 22.649 376.446 22.577C376.222 22.497 375.95 22.429 375.63 22.373C375.366 22.325 375.106 22.261 374.85 22.181C374.594 22.101 374.366 21.997 374.166 21.869C373.966 21.733 373.806 21.569 373.686 21.377C373.574 21.185 373.518 20.949 373.518 20.669C373.518 20.325 373.606 20.021 373.782 19.757C373.958 19.485 374.21 19.273 374.538 19.121C374.874 18.969 375.262 18.893 375.702 18.893C376.35 18.893 376.874 19.049 377.274 19.361C377.674 19.673 377.91 20.125 377.982 20.717H376.986C376.946 20.413 376.814 20.177 376.59 20.009C376.374 19.833 376.074 19.745 375.69 19.745C375.314 19.745 375.026 19.821 374.826 19.973C374.634 20.125 374.538 20.325 374.538 20.573C374.538 20.733 374.59 20.877 374.694 21.005C374.806 21.125 374.966 21.229 375.174 21.317C375.39 21.405 375.654 21.477 375.966 21.533C376.366 21.605 376.73 21.701 377.058 21.821C377.386 21.941 377.65 22.121 377.85 22.361C378.058 22.593 378.162 22.925 378.162 23.357C378.162 23.733 378.066 24.061 377.874 24.341C377.69 24.621 377.426 24.841 377.082 25.001C376.738 25.153 376.334 25.229 375.87 25.229ZM379.973 25.145C379.773 25.145 379.605 25.081 379.469 24.953C379.341 24.817 379.277 24.653 379.277 24.461C379.277 24.269 379.341 24.109 379.469 23.981C379.605 23.845 379.773 23.777 379.973 23.777C380.173 23.777 380.337 23.845 380.465 23.981C380.593 24.109 380.657 24.269 380.657 24.461C380.657 24.653 380.593 24.817 380.465 24.953C380.337 25.081 380.173 25.145 379.973 25.145Z" fill="black"/>
</svg>
