<svg width="380" height="25" viewBox="0 0 380 25" fill="none" xmlns="http://www.w3.org/2000/svg">
<path d="M2.35166 8V1.059H0.0526563V0.299999H5.57466V1.059H3.27566V8H2.35166ZM6.65867 8V0.0799997H7.58267V3.391C7.76601 3.061 8.02267 2.80067 8.35267 2.61C8.69001 2.41933 9.05667 2.324 9.45267 2.324C9.87801 2.324 10.2483 2.412 10.5637 2.588C10.879 2.75667 11.121 3.017 11.2897 3.369C11.4583 3.721 11.5427 4.16467 11.5427 4.7V8H10.6297V4.799C10.6297 4.24167 10.5123 3.82367 10.2777 3.545C10.043 3.259 9.70201 3.116 9.25467 3.116C8.93934 3.116 8.65334 3.193 8.39667 3.347C8.14734 3.501 7.94934 3.721 7.80267 4.007C7.65601 4.293 7.58267 4.645 7.58267 5.063V8H6.65867ZM15.4168 8.132C14.8962 8.132 14.4342 8.011 14.0308 7.769C13.6348 7.527 13.3232 7.18967 13.0958 6.757C12.8685 6.317 12.7548 5.80733 12.7548 5.228C12.7548 4.64133 12.8648 4.13167 13.0848 3.699C13.3122 3.26633 13.6275 2.929 14.0308 2.687C14.4415 2.445 14.9108 2.324 15.4388 2.324C15.9815 2.324 16.4398 2.445 16.8138 2.687C17.1952 2.929 17.4848 3.248 17.6828 3.644C17.8882 4.03267 17.9908 4.46167 17.9908 4.931C17.9908 5.00433 17.9908 5.08133 17.9908 5.162C17.9908 5.24267 17.9872 5.33433 17.9798 5.437H13.4478V4.722H17.0888C17.0668 4.216 16.8982 3.82 16.5828 3.534C16.2748 3.248 15.8862 3.105 15.4168 3.105C15.1015 3.105 14.8082 3.17833 14.5368 3.325C14.2728 3.46433 14.0602 3.67333 13.8988 3.952C13.7375 4.22333 13.6568 4.56433 13.6568 4.975V5.283C13.6568 5.73767 13.7375 6.119 13.8988 6.427C14.0675 6.735 14.2838 6.966 14.5478 7.12C14.8192 7.274 15.1088 7.351 15.4168 7.351C15.8055 7.351 16.1245 7.26667 16.3738 7.098C16.6305 6.922 16.8138 6.68733 16.9238 6.394H17.8368C17.7488 6.724 17.5948 7.021 17.3748 7.285C17.1548 7.549 16.8798 7.758 16.5498 7.912C16.2272 8.05867 15.8495 8.132 15.4168 8.132ZM24.2496 8.132C23.7876 8.132 23.3843 8.055 23.0396 7.901C22.7023 7.747 22.431 7.53433 22.2256 7.263C22.0276 6.98433 21.9066 6.658 21.8626 6.284H22.8086C22.8453 6.47467 22.9223 6.65067 23.0396 6.812C23.157 6.97333 23.3146 7.10533 23.5126 7.208C23.718 7.30333 23.9673 7.351 24.2606 7.351C24.5173 7.351 24.73 7.31433 24.8986 7.241C25.0673 7.16033 25.192 7.054 25.2726 6.922C25.3606 6.79 25.4046 6.647 25.4046 6.493C25.4046 6.26567 25.3496 6.09333 25.2396 5.976C25.137 5.85867 24.983 5.767 24.7776 5.701C24.5723 5.62767 24.323 5.56533 24.0296 5.514C23.7876 5.47 23.5493 5.41133 23.3146 5.338C23.08 5.26467 22.871 5.16933 22.6876 5.052C22.5043 4.92733 22.3576 4.777 22.2476 4.601C22.145 4.425 22.0936 4.20867 22.0936 3.952C22.0936 3.63667 22.1743 3.358 22.3356 3.116C22.497 2.86667 22.728 2.67233 23.0286 2.533C23.3366 2.39367 23.6923 2.324 24.0956 2.324C24.6896 2.324 25.17 2.467 25.5366 2.753C25.9033 3.039 26.1196 3.45333 26.1856 3.996H25.2726C25.236 3.71733 25.115 3.501 24.9096 3.347C24.7116 3.18567 24.4366 3.105 24.0846 3.105C23.74 3.105 23.476 3.17467 23.2926 3.314C23.1166 3.45333 23.0286 3.63667 23.0286 3.864C23.0286 4.01067 23.0763 4.14267 23.1716 4.26C23.2743 4.37 23.421 4.46533 23.6116 4.546C23.8096 4.62667 24.0516 4.69267 24.3376 4.744C24.7043 4.81 25.038 4.898 25.3386 5.008C25.6393 5.118 25.8813 5.283 26.0646 5.503C26.2553 5.71567 26.3506 6.02 26.3506 6.416C26.3506 6.76067 26.2626 7.06133 26.0866 7.318C25.918 7.57467 25.676 7.77633 25.3606 7.923C25.0453 8.06233 24.675 8.132 24.2496 8.132ZM29.6941 8.132C29.2688 8.132 28.8948 8.04767 28.5721 7.879C28.2568 7.71033 28.0111 7.45 27.8351 7.098C27.6665 6.746 27.5821 6.306 27.5821 5.778V2.456H28.5061V5.679C28.5061 6.229 28.6271 6.64333 28.8691 6.922C29.1111 7.20067 29.4521 7.34 29.8921 7.34C30.2001 7.34 30.4788 7.26667 30.7281 7.12C30.9775 6.966 31.1718 6.74967 31.3111 6.471C31.4578 6.185 31.5311 5.83667 31.5311 5.426V2.456H32.4551V8H31.6191L31.5641 7.032C31.3955 7.37667 31.1461 7.648 30.8161 7.846C30.4861 8.03667 30.1121 8.132 29.6941 8.132ZM36.4838 8.132C35.9631 8.132 35.4938 8.011 35.0758 7.769C34.6651 7.527 34.3425 7.18967 34.1078 6.757C33.8731 6.317 33.7558 5.811 33.7558 5.239C33.7558 4.65233 33.8731 4.14267 34.1078 3.71C34.3425 3.27733 34.6651 2.94 35.0758 2.698C35.4938 2.44867 35.9631 2.324 36.4838 2.324C37.1438 2.324 37.6938 2.49633 38.1338 2.841C38.5738 3.17833 38.8525 3.633 38.9698 4.205H38.0238C37.9505 3.86033 37.7708 3.59267 37.4848 3.402C37.1988 3.21133 36.8615 3.116 36.4728 3.116C36.1575 3.116 35.8641 3.19667 35.5928 3.358C35.3215 3.512 35.1051 3.74667 34.9438 4.062C34.7825 4.37733 34.7018 4.766 34.7018 5.228C34.7018 5.57267 34.7495 5.88067 34.8448 6.152C34.9401 6.416 35.0685 6.636 35.2298 6.812C35.3911 6.988 35.5781 7.12367 35.7908 7.219C36.0108 7.307 36.2381 7.351 36.4728 7.351C36.7368 7.351 36.9751 7.31067 37.1878 7.23C37.4005 7.142 37.5801 7.01367 37.7268 6.845C37.8735 6.67633 37.9725 6.47833 38.0238 6.251H38.9698C38.8525 6.80833 38.5701 7.263 38.1228 7.615C37.6828 7.95967 37.1365 8.132 36.4838 8.132ZM42.7787 8.132C42.2581 8.132 41.7887 8.011 41.3707 7.769C40.9601 7.527 40.6374 7.18967 40.4027 6.757C40.1681 6.317 40.0507 5.811 40.0507 5.239C40.0507 4.65233 40.1681 4.14267 40.4027 3.71C40.6374 3.27733 40.9601 2.94 41.3707 2.698C41.7887 2.44867 42.2581 2.324 42.7787 2.324C43.4387 2.324 43.9887 2.49633 44.4287 2.841C44.8687 3.17833 45.1474 3.633 45.2647 4.205H44.3187C44.2454 3.86033 44.0657 3.59267 43.7797 3.402C43.4937 3.21133 43.1564 3.116 42.7677 3.116C42.4524 3.116 42.1591 3.19667 41.8877 3.358C41.6164 3.512 41.4001 3.74667 41.2387 4.062C41.0774 4.37733 40.9967 4.766 40.9967 5.228C40.9967 5.57267 41.0444 5.88067 41.1397 6.152C41.2351 6.416 41.3634 6.636 41.5247 6.812C41.6861 6.988 41.8731 7.12367 42.0857 7.219C42.3057 7.307 42.5331 7.351 42.7677 7.351C43.0317 7.351 43.2701 7.31067 43.4827 7.23C43.6954 7.142 43.8751 7.01367 44.0217 6.845C44.1684 6.67633 44.2674 6.47833 44.3187 6.251H45.2647C45.1474 6.80833 44.8651 7.263 44.4177 7.615C43.9777 7.95967 43.4314 8.132 42.7787 8.132ZM49.0076 8.132C48.487 8.132 48.025 8.011 47.6216 7.769C47.2256 7.527 46.914 7.18967 46.6866 6.757C46.4593 6.317 46.3456 5.80733 46.3456 5.228C46.3456 4.64133 46.4556 4.13167 46.6756 3.699C46.903 3.26633 47.2183 2.929 47.6216 2.687C48.0323 2.445 48.5016 2.324 49.0296 2.324C49.5723 2.324 50.0306 2.445 50.4046 2.687C50.786 2.929 51.0756 3.248 51.2736 3.644C51.479 4.03267 51.5816 4.46167 51.5816 4.931C51.5816 5.00433 51.5816 5.08133 51.5816 5.162C51.5816 5.24267 51.578 5.33433 51.5706 5.437H47.0386V4.722H50.6796C50.6576 4.216 50.489 3.82 50.1736 3.534C49.8656 3.248 49.477 3.105 49.0076 3.105C48.6923 3.105 48.399 3.17833 48.1276 3.325C47.8636 3.46433 47.651 3.67333 47.4896 3.952C47.3283 4.22333 47.2476 4.56433 47.2476 4.975V5.283C47.2476 5.73767 47.3283 6.119 47.4896 6.427C47.6583 6.735 47.8746 6.966 48.1386 7.12C48.41 7.274 48.6996 7.351 49.0076 7.351C49.3963 7.351 49.7153 7.26667 49.9646 7.098C50.2213 6.922 50.4046 6.68733 50.5146 6.394H51.4276C51.3396 6.724 51.1856 7.021 50.9656 7.285C50.7456 7.549 50.4706 7.758 50.1406 7.912C49.818 8.05867 49.4403 8.132 49.0076 8.132ZM54.9186 8.132C54.4566 8.132 54.0533 8.055 53.7086 7.901C53.3713 7.747 53.0999 7.53433 52.8946 7.263C52.6966 6.98433 52.5756 6.658 52.5316 6.284H53.4776C53.5143 6.47467 53.5913 6.65067 53.7086 6.812C53.8259 6.97333 53.9836 7.10533 54.1816 7.208C54.3869 7.30333 54.6363 7.351 54.9296 7.351C55.1863 7.351 55.3989 7.31433 55.5676 7.241C55.7363 7.16033 55.8609 7.054 55.9416 6.922C56.0296 6.79 56.0736 6.647 56.0736 6.493C56.0736 6.26567 56.0186 6.09333 55.9086 5.976C55.8059 5.85867 55.6519 5.767 55.4466 5.701C55.2413 5.62767 54.9919 5.56533 54.6986 5.514C54.4566 5.47 54.2183 5.41133 53.9836 5.338C53.7489 5.26467 53.5399 5.16933 53.3566 5.052C53.1733 4.92733 53.0266 4.777 52.9166 4.601C52.8139 4.425 52.7626 4.20867 52.7626 3.952C52.7626 3.63667 52.8433 3.358 53.0046 3.116C53.1659 2.86667 53.3969 2.67233 53.6976 2.533C54.0056 2.39367 54.3613 2.324 54.7646 2.324C55.3586 2.324 55.8389 2.467 56.2056 2.753C56.5723 3.039 56.7886 3.45333 56.8546 3.996H55.9416C55.9049 3.71733 55.7839 3.501 55.5786 3.347C55.3806 3.18567 55.1056 3.105 54.7536 3.105C54.4089 3.105 54.1449 3.17467 53.9616 3.314C53.7856 3.45333 53.6976 3.63667 53.6976 3.864C53.6976 4.01067 53.7453 4.14267 53.8406 4.26C53.9433 4.37 54.0899 4.46533 54.2806 4.546C54.4786 4.62667 54.7206 4.69267 55.0066 4.744C55.3733 4.81 55.7069 4.898 56.0076 5.008C56.3083 5.118 56.5503 5.283 56.7336 5.503C56.9243 5.71567 57.0196 6.02 57.0196 6.416C57.0196 6.76067 56.9316 7.06133 56.7556 7.318C56.5869 7.57467 56.3449 7.77633 56.0296 7.923C55.7143 8.06233 55.3439 8.132 54.9186 8.132ZM60.4401 8.132C59.9781 8.132 59.5747 8.055 59.2301 7.901C58.8927 7.747 58.6214 7.53433 58.4161 7.263C58.2181 6.98433 58.0971 6.658 58.0531 6.284H58.9991C59.0357 6.47467 59.1127 6.65067 59.2301 6.812C59.3474 6.97333 59.5051 7.10533 59.7031 7.208C59.9084 7.30333 60.1577 7.351 60.4511 7.351C60.7077 7.351 60.9204 7.31433 61.0891 7.241C61.2577 7.16033 61.3824 7.054 61.4631 6.922C61.5511 6.79 61.5951 6.647 61.5951 6.493C61.5951 6.26567 61.5401 6.09333 61.4301 5.976C61.3274 5.85867 61.1734 5.767 60.9681 5.701C60.7627 5.62767 60.5134 5.56533 60.2201 5.514C59.9781 5.47 59.7397 5.41133 59.5051 5.338C59.2704 5.26467 59.0614 5.16933 58.8781 5.052C58.6947 4.92733 58.5481 4.777 58.4381 4.601C58.3354 4.425 58.2841 4.20867 58.2841 3.952C58.2841 3.63667 58.3647 3.358 58.5261 3.116C58.6874 2.86667 58.9184 2.67233 59.2191 2.533C59.5271 2.39367 59.8827 2.324 60.2861 2.324C60.8801 2.324 61.3604 2.467 61.7271 2.753C62.0937 3.039 62.3101 3.45333 62.3761 3.996H61.4631C61.4264 3.71733 61.3054 3.501 61.1001 3.347C60.9021 3.18567 60.6271 3.105 60.2751 3.105C59.9304 3.105 59.6664 3.17467 59.4831 3.314C59.3071 3.45333 59.2191 3.63667 59.2191 3.864C59.2191 4.01067 59.2667 4.14267 59.3621 4.26C59.4647 4.37 59.6114 4.46533 59.8021 4.546C60.0001 4.62667 60.2421 4.69267 60.5281 4.744C60.8947 4.81 61.2284 4.898 61.5291 5.008C61.8297 5.118 62.0717 5.283 62.2551 5.503C62.4457 5.71567 62.5411 6.02 62.5411 6.416C62.5411 6.76067 62.4531 7.06133 62.2771 7.318C62.1084 7.57467 61.8664 7.77633 61.5511 7.923C61.2357 8.06233 60.8654 8.132 60.4401 8.132ZM64.1796 8V1.598C64.1796 1.246 64.2382 0.96 64.3556 0.74C64.4729 0.512666 64.6452 0.347666 64.8726 0.245C65.1072 0.135 65.3932 0.0799997 65.7306 0.0799997H66.3576V0.872H65.8736C65.6022 0.872 65.4042 0.927 65.2796 1.037C65.1622 1.147 65.1036 1.34133 65.1036 1.62V8H64.1796ZM63.3326 3.237V2.456H66.5006V3.237H63.3326ZM69.6228 8.132C69.1975 8.132 68.8235 8.04767 68.5008 7.879C68.1855 7.71033 67.9398 7.45 67.7638 7.098C67.5952 6.746 67.5108 6.306 67.5108 5.778V2.456H68.4348V5.679C68.4348 6.229 68.5558 6.64333 68.7978 6.922C69.0398 7.20067 69.3808 7.34 69.8208 7.34C70.1288 7.34 70.4075 7.26667 70.6568 7.12C70.9062 6.966 71.1005 6.74967 71.2398 6.471C71.3865 6.185 71.4598 5.83667 71.4598 5.426V2.456H72.3838V8H71.5478L71.4928 7.032C71.3242 7.37667 71.0748 7.648 70.7448 7.846C70.4148 8.03667 70.0408 8.132 69.6228 8.132ZM73.9155 8V0.0799997H74.8395V8H73.9155ZM81.7836 8.132C81.2629 8.132 80.7936 8.011 80.3756 7.769C79.9649 7.527 79.6423 7.18967 79.4076 6.757C79.1729 6.317 79.0556 5.811 79.0556 5.239C79.0556 4.65233 79.1729 4.14267 79.4076 3.71C79.6423 3.27733 79.9649 2.94 80.3756 2.698C80.7936 2.44867 81.2629 2.324 81.7836 2.324C82.4436 2.324 82.9936 2.49633 83.4336 2.841C83.8736 3.17833 84.1523 3.633 84.2696 4.205H83.3236C83.2503 3.86033 83.0706 3.59267 82.7846 3.402C82.4986 3.21133 82.1613 3.116 81.7726 3.116C81.4573 3.116 81.1639 3.19667 80.8926 3.358C80.6213 3.512 80.4049 3.74667 80.2436 4.062C80.0823 4.37733 80.0016 4.766 80.0016 5.228C80.0016 5.57267 80.0493 5.88067 80.1446 6.152C80.2399 6.416 80.3683 6.636 80.5296 6.812C80.6909 6.988 80.8779 7.12367 81.0906 7.219C81.3106 7.307 81.5379 7.351 81.7726 7.351C82.0366 7.351 82.2749 7.31067 82.4876 7.23C82.7003 7.142 82.8799 7.01367 83.0266 6.845C83.1733 6.67633 83.2723 6.47833 83.3236 6.251H84.2696C84.1523 6.80833 83.8699 7.263 83.4226 7.615C82.9826 7.95967 82.4363 8.132 81.7836 8.132ZM88.0565 8.132C87.5432 8.132 87.0812 8.01467 86.6705 7.78C86.2599 7.538 85.9372 7.20067 85.7025 6.768C85.4679 6.328 85.3505 5.81833 85.3505 5.239C85.3505 4.645 85.4679 4.13167 85.7025 3.699C85.9445 3.259 86.2709 2.92167 86.6815 2.687C87.0995 2.445 87.5652 2.324 88.0785 2.324C88.6065 2.324 89.0722 2.445 89.4755 2.687C89.8862 2.92167 90.2089 3.259 90.4435 3.699C90.6855 4.13167 90.8065 4.64133 90.8065 5.228C90.8065 5.81467 90.6855 6.328 90.4435 6.768C90.2015 7.20067 89.8752 7.538 89.4645 7.78C89.0539 8.01467 88.5845 8.132 88.0565 8.132ZM88.0675 7.34C88.3829 7.34 88.6762 7.263 88.9475 7.109C89.2189 6.94767 89.4389 6.70933 89.6075 6.394C89.7762 6.07867 89.8605 5.69 89.8605 5.228C89.8605 4.75867 89.7762 4.37 89.6075 4.062C89.4462 3.74667 89.2299 3.512 88.9585 3.358C88.6945 3.19667 88.4012 3.116 88.0785 3.116C87.7705 3.116 87.4772 3.19667 87.1985 3.358C86.9272 3.512 86.7072 3.74667 86.5385 4.062C86.3772 4.37 86.2965 4.75867 86.2965 5.228C86.2965 5.69 86.3772 6.07867 86.5385 6.394C86.7072 6.70933 86.9235 6.94767 87.1875 7.109C87.4589 7.263 87.7522 7.34 88.0675 7.34ZM92.102 8V2.456H92.938L92.993 3.248C93.169 2.962 93.4037 2.73833 93.697 2.577C93.9977 2.40833 94.324 2.324 94.676 2.324C94.962 2.324 95.2187 2.36433 95.446 2.445C95.6807 2.51833 95.886 2.63567 96.062 2.797C96.238 2.951 96.381 3.149 96.491 3.391C96.6817 3.05367 96.942 2.79333 97.272 2.61C97.6094 2.41933 97.9687 2.324 98.35 2.324C98.7754 2.324 99.1457 2.412 99.461 2.588C99.7837 2.75667 100.029 3.017 100.198 3.369C100.374 3.71367 100.462 4.15367 100.462 4.689V8H99.549V4.788C99.549 4.23067 99.4354 3.81267 99.208 3.534C98.9807 3.25533 98.6617 3.116 98.251 3.116C97.965 3.116 97.7084 3.193 97.481 3.347C97.2537 3.49367 97.074 3.71 96.942 3.996C96.81 4.282 96.744 4.634 96.744 5.052V8H95.82V4.788C95.82 4.23067 95.7064 3.81267 95.479 3.534C95.2517 3.25533 94.929 3.116 94.511 3.116C94.2324 3.116 93.9794 3.193 93.752 3.347C93.532 3.49367 93.356 3.71 93.224 3.996C93.092 4.282 93.026 4.634 93.026 5.052V8H92.102ZM101.899 10.42V2.456H102.735L102.812 3.358C102.929 3.182 103.08 3.017 103.263 2.863C103.446 2.70167 103.666 2.57333 103.923 2.478C104.18 2.37533 104.473 2.324 104.803 2.324C105.346 2.324 105.815 2.45233 106.211 2.709C106.614 2.96567 106.926 3.314 107.146 3.754C107.373 4.18667 107.487 4.68167 107.487 5.239C107.487 5.79633 107.373 6.295 107.146 6.735C106.926 7.16767 106.614 7.50867 106.211 7.758C105.808 8.00733 105.335 8.132 104.792 8.132C104.345 8.132 103.949 8.04033 103.604 7.857C103.267 7.67367 103.006 7.417 102.823 7.087V10.42H101.899ZM104.693 7.329C105.052 7.329 105.371 7.241 105.65 7.065C105.929 6.889 106.145 6.647 106.299 6.339C106.46 6.02367 106.541 5.65333 106.541 5.228C106.541 4.81 106.46 4.44333 106.299 4.128C106.145 3.81267 105.929 3.567 105.65 3.391C105.371 3.215 105.052 3.127 104.693 3.127C104.326 3.127 104.004 3.215 103.725 3.391C103.446 3.567 103.23 3.81267 103.076 4.128C102.922 4.44333 102.845 4.81 102.845 5.228C102.845 5.65333 102.922 6.02367 103.076 6.339C103.23 6.647 103.446 6.889 103.725 7.065C104.004 7.241 104.326 7.329 104.693 7.329ZM108.785 8V0.0799997H109.709V8H108.785ZM113.665 8.132C113.144 8.132 112.682 8.011 112.279 7.769C111.883 7.527 111.571 7.18967 111.344 6.757C111.117 6.317 111.003 5.80733 111.003 5.228C111.003 4.64133 111.113 4.13167 111.333 3.699C111.56 3.26633 111.876 2.929 112.279 2.687C112.69 2.445 113.159 2.324 113.687 2.324C114.23 2.324 114.688 2.445 115.062 2.687C115.443 2.929 115.733 3.248 115.931 3.644C116.136 4.03267 116.239 4.46167 116.239 4.931C116.239 5.00433 116.239 5.08133 116.239 5.162C116.239 5.24267 116.235 5.33433 116.228 5.437H111.696V4.722H115.337C115.315 4.216 115.146 3.82 114.831 3.534C114.523 3.248 114.134 3.105 113.665 3.105C113.35 3.105 113.056 3.17833 112.785 3.325C112.521 3.46433 112.308 3.67333 112.147 3.952C111.986 4.22333 111.905 4.56433 111.905 4.975V5.283C111.905 5.73767 111.986 6.119 112.147 6.427C112.316 6.735 112.532 6.966 112.796 7.12C113.067 7.274 113.357 7.351 113.665 7.351C114.054 7.351 114.373 7.26667 114.622 7.098C114.879 6.922 115.062 6.68733 115.172 6.394H116.085C115.997 6.724 115.843 7.021 115.623 7.285C115.403 7.549 115.128 7.758 114.798 7.912C114.475 8.05867 114.098 8.132 113.665 8.132ZM119.481 8C119.151 8 118.865 7.94867 118.623 7.846C118.381 7.74333 118.194 7.571 118.062 7.329C117.938 7.07967 117.875 6.746 117.875 6.328V3.237H116.907V2.456H117.875L117.996 1.114H118.799V2.456H120.405V3.237H118.799V6.328C118.799 6.67267 118.869 6.90733 119.008 7.032C119.148 7.14933 119.393 7.208 119.745 7.208H120.339V8H119.481ZM121.699 8V2.456H122.623V8H121.699ZM122.161 1.279C121.977 1.279 121.823 1.22033 121.699 1.103C121.581 0.978333 121.523 0.824333 121.523 0.641C121.523 0.457667 121.581 0.311 121.699 0.200999C121.823 0.0836663 121.977 0.0249997 122.161 0.0249997C122.337 0.0249997 122.487 0.0836663 122.612 0.200999C122.736 0.311 122.799 0.457667 122.799 0.641C122.799 0.824333 122.736 0.978333 122.612 1.103C122.487 1.22033 122.337 1.279 122.161 1.279ZM126.728 8.132C126.215 8.132 125.753 8.01467 125.342 7.78C124.932 7.538 124.609 7.20067 124.374 6.768C124.14 6.328 124.022 5.81833 124.022 5.239C124.022 4.645 124.14 4.13167 124.374 3.699C124.616 3.259 124.943 2.92167 125.353 2.687C125.771 2.445 126.237 2.324 126.75 2.324C127.278 2.324 127.744 2.445 128.147 2.687C128.558 2.92167 128.881 3.259 129.115 3.699C129.357 4.13167 129.478 4.64133 129.478 5.228C129.478 5.81467 129.357 6.328 129.115 6.768C128.873 7.20067 128.547 7.538 128.136 7.78C127.726 8.01467 127.256 8.132 126.728 8.132ZM126.739 7.34C127.055 7.34 127.348 7.263 127.619 7.109C127.891 6.94767 128.111 6.70933 128.279 6.394C128.448 6.07867 128.532 5.69 128.532 5.228C128.532 4.75867 128.448 4.37 128.279 4.062C128.118 3.74667 127.902 3.512 127.63 3.358C127.366 3.19667 127.073 3.116 126.75 3.116C126.442 3.116 126.149 3.19667 125.87 3.358C125.599 3.512 125.379 3.74667 125.21 4.062C125.049 4.37 124.968 4.75867 124.968 5.228C124.968 5.69 125.049 6.07867 125.21 6.394C125.379 6.70933 125.595 6.94767 125.859 7.109C126.131 7.263 126.424 7.34 126.739 7.34ZM130.774 8V2.456H131.61L131.654 3.424C131.83 3.07933 132.079 2.81167 132.402 2.621C132.732 2.423 133.106 2.324 133.524 2.324C133.957 2.324 134.331 2.412 134.646 2.588C134.961 2.75667 135.207 3.017 135.383 3.369C135.559 3.71367 135.647 4.15367 135.647 4.689V8H134.723V4.788C134.723 4.23067 134.598 3.81267 134.349 3.534C134.107 3.25533 133.762 3.116 133.315 3.116C133.007 3.116 132.732 3.193 132.49 3.347C132.248 3.49367 132.054 3.71 131.907 3.996C131.768 4.27467 131.698 4.623 131.698 5.041V8H130.774ZM142.487 8.132C141.974 8.132 141.512 8.01467 141.101 7.78C140.691 7.538 140.368 7.20067 140.133 6.768C139.899 6.328 139.781 5.81833 139.781 5.239C139.781 4.645 139.899 4.13167 140.133 3.699C140.375 3.259 140.702 2.92167 141.112 2.687C141.53 2.445 141.996 2.324 142.509 2.324C143.037 2.324 143.503 2.445 143.906 2.687C144.317 2.92167 144.64 3.259 144.874 3.699C145.116 4.13167 145.237 4.64133 145.237 5.228C145.237 5.81467 145.116 6.328 144.874 6.768C144.632 7.20067 144.306 7.538 143.895 7.78C143.485 8.01467 143.015 8.132 142.487 8.132ZM142.498 7.34C142.814 7.34 143.107 7.263 143.378 7.109C143.65 6.94767 143.87 6.70933 144.038 6.394C144.207 6.07867 144.291 5.69 144.291 5.228C144.291 4.75867 144.207 4.37 144.038 4.062C143.877 3.74667 143.661 3.512 143.389 3.358C143.125 3.19667 142.832 3.116 142.509 3.116C142.201 3.116 141.908 3.19667 141.629 3.358C141.358 3.512 141.138 3.74667 140.969 4.062C140.808 4.37 140.727 4.75867 140.727 5.228C140.727 5.69 140.808 6.07867 140.969 6.394C141.138 6.70933 141.354 6.94767 141.618 7.109C141.89 7.263 142.183 7.34 142.498 7.34ZM146.841 8V1.598C146.841 1.246 146.899 0.96 147.017 0.74C147.134 0.512666 147.306 0.347666 147.534 0.245C147.768 0.135 148.054 0.0799997 148.392 0.0799997H149.019V0.872H148.535C148.263 0.872 148.065 0.927 147.941 1.037C147.823 1.147 147.765 1.34133 147.765 1.62V8H146.841ZM145.994 3.237V2.456H149.162V3.237H145.994ZM155.371 8C155.041 8 154.755 7.94867 154.513 7.846C154.271 7.74333 154.084 7.571 153.952 7.329C153.827 7.07967 153.765 6.746 153.765 6.328V3.237H152.797V2.456H153.765L153.886 1.114H154.689V2.456H156.295V3.237H154.689V6.328C154.689 6.67267 154.759 6.90733 154.898 7.032C155.037 7.14933 155.283 7.208 155.635 7.208H156.229V8H155.371ZM157.5 8V0.0799997H158.424V3.391C158.608 3.061 158.864 2.80067 159.194 2.61C159.532 2.41933 159.898 2.324 160.294 2.324C160.72 2.324 161.09 2.412 161.405 2.588C161.721 2.75667 161.963 3.017 162.131 3.369C162.3 3.721 162.384 4.16467 162.384 4.7V8H161.471V4.799C161.471 4.24167 161.354 3.82367 161.119 3.545C160.885 3.259 160.544 3.116 160.096 3.116C159.781 3.116 159.495 3.193 159.238 3.347C158.989 3.501 158.791 3.721 158.644 4.007C158.498 4.293 158.424 4.645 158.424 5.063V8H157.5ZM163.916 8V2.456H164.84V8H163.916ZM164.378 1.279C164.194 1.279 164.04 1.22033 163.916 1.103C163.798 0.978333 163.74 0.824333 163.74 0.641C163.74 0.457667 163.798 0.311 163.916 0.200999C164.04 0.0836663 164.194 0.0249997 164.378 0.0249997C164.554 0.0249997 164.704 0.0836663 164.829 0.200999C164.953 0.311 165.016 0.457667 165.016 0.641C165.016 0.824333 164.953 0.978333 164.829 1.103C164.704 1.22033 164.554 1.279 164.378 1.279ZM168.56 8.132C168.098 8.132 167.695 8.055 167.35 7.901C167.013 7.747 166.742 7.53433 166.536 7.263C166.338 6.98433 166.217 6.658 166.173 6.284H167.119C167.156 6.47467 167.233 6.65067 167.35 6.812C167.468 6.97333 167.625 7.10533 167.823 7.208C168.029 7.30333 168.278 7.351 168.571 7.351C168.828 7.351 169.041 7.31433 169.209 7.241C169.378 7.16033 169.503 7.054 169.583 6.922C169.671 6.79 169.715 6.647 169.715 6.493C169.715 6.26567 169.66 6.09333 169.55 5.976C169.448 5.85867 169.294 5.767 169.088 5.701C168.883 5.62767 168.634 5.56533 168.34 5.514C168.098 5.47 167.86 5.41133 167.625 5.338C167.391 5.26467 167.182 5.16933 166.998 5.052C166.815 4.92733 166.668 4.777 166.558 4.601C166.456 4.425 166.404 4.20867 166.404 3.952C166.404 3.63667 166.485 3.358 166.646 3.116C166.808 2.86667 167.039 2.67233 167.339 2.533C167.647 2.39367 168.003 2.324 168.406 2.324C169 2.324 169.481 2.467 169.847 2.753C170.214 3.039 170.43 3.45333 170.496 3.996H169.583C169.547 3.71733 169.426 3.501 169.22 3.347C169.022 3.18567 168.747 3.105 168.395 3.105C168.051 3.105 167.787 3.17467 167.603 3.314C167.427 3.45333 167.339 3.63667 167.339 3.864C167.339 4.01067 167.387 4.14267 167.482 4.26C167.585 4.37 167.732 4.46533 167.922 4.546C168.12 4.62667 168.362 4.69267 168.648 4.744C169.015 4.81 169.349 4.898 169.649 5.008C169.95 5.118 170.192 5.283 170.375 5.503C170.566 5.71567 170.661 6.02 170.661 6.416C170.661 6.76067 170.573 7.06133 170.397 7.318C170.229 7.57467 169.987 7.77633 169.671 7.923C169.356 8.06233 168.986 8.132 168.56 8.132ZM177.411 8.132C176.89 8.132 176.421 8.011 176.003 7.769C175.592 7.527 175.269 7.18967 175.035 6.757C174.8 6.317 174.683 5.811 174.683 5.239C174.683 4.65233 174.8 4.14267 175.035 3.71C175.269 3.27733 175.592 2.94 176.003 2.698C176.421 2.44867 176.89 2.324 177.411 2.324C178.071 2.324 178.621 2.49633 179.061 2.841C179.501 3.17833 179.779 3.633 179.897 4.205H178.951C178.877 3.86033 178.698 3.59267 178.412 3.402C178.126 3.21133 177.788 3.116 177.4 3.116C177.084 3.116 176.791 3.19667 176.52 3.358C176.248 3.512 176.032 3.74667 175.871 4.062C175.709 4.37733 175.629 4.766 175.629 5.228C175.629 5.57267 175.676 5.88067 175.772 6.152C175.867 6.416 175.995 6.636 176.157 6.812C176.318 6.988 176.505 7.12367 176.718 7.219C176.938 7.307 177.165 7.351 177.4 7.351C177.664 7.351 177.902 7.31067 178.115 7.23C178.327 7.142 178.507 7.01367 178.654 6.845C178.8 6.67633 178.899 6.47833 178.951 6.251H179.897C179.779 6.80833 179.497 7.263 179.05 7.615C178.61 7.95967 178.063 8.132 177.411 8.132ZM183.683 8.132C183.17 8.132 182.708 8.01467 182.297 7.78C181.887 7.538 181.564 7.20067 181.329 6.768C181.095 6.328 180.977 5.81833 180.977 5.239C180.977 4.645 181.095 4.13167 181.329 3.699C181.571 3.259 181.898 2.92167 182.308 2.687C182.726 2.445 183.192 2.324 183.705 2.324C184.233 2.324 184.699 2.445 185.102 2.687C185.513 2.92167 185.836 3.259 186.07 3.699C186.312 4.13167 186.433 4.64133 186.433 5.228C186.433 5.81467 186.312 6.328 186.07 6.768C185.828 7.20067 185.502 7.538 185.091 7.78C184.681 8.01467 184.211 8.132 183.683 8.132ZM183.694 7.34C184.01 7.34 184.303 7.263 184.574 7.109C184.846 6.94767 185.066 6.70933 185.234 6.394C185.403 6.07867 185.487 5.69 185.487 5.228C185.487 4.75867 185.403 4.37 185.234 4.062C185.073 3.74667 184.857 3.512 184.585 3.358C184.321 3.19667 184.028 3.116 183.705 3.116C183.397 3.116 183.104 3.19667 182.825 3.358C182.554 3.512 182.334 3.74667 182.165 4.062C182.004 4.37 181.923 4.75867 181.923 5.228C181.923 5.69 182.004 6.07867 182.165 6.394C182.334 6.70933 182.55 6.94767 182.814 7.109C183.086 7.263 183.379 7.34 183.694 7.34ZM189.742 8.132C189.317 8.132 188.943 8.04767 188.62 7.879C188.305 7.71033 188.059 7.45 187.883 7.098C187.714 6.746 187.63 6.306 187.63 5.778V2.456H188.554V5.679C188.554 6.229 188.675 6.64333 188.917 6.922C189.159 7.20067 189.5 7.34 189.94 7.34C190.248 7.34 190.527 7.26667 190.776 7.12C191.025 6.966 191.22 6.74967 191.359 6.471C191.506 6.185 191.579 5.83667 191.579 5.426V2.456H192.503V8H191.667L191.612 7.032C191.443 7.37667 191.194 7.648 190.864 7.846C190.534 8.03667 190.16 8.132 189.742 8.132ZM194.035 8V2.456H194.871L194.937 3.512C195.061 3.26267 195.219 3.05 195.41 2.874C195.608 2.698 195.842 2.56233 196.114 2.467C196.392 2.37167 196.708 2.324 197.06 2.324V3.292H196.719C196.484 3.292 196.26 3.325 196.048 3.391C195.835 3.44967 195.644 3.54867 195.476 3.688C195.314 3.82733 195.186 4.018 195.091 4.26C195.003 4.49467 194.959 4.788 194.959 5.14V8H194.035ZM200.196 8.132C199.734 8.132 199.331 8.055 198.986 7.901C198.649 7.747 198.377 7.53433 198.172 7.263C197.974 6.98433 197.853 6.658 197.809 6.284H198.755C198.792 6.47467 198.869 6.65067 198.986 6.812C199.103 6.97333 199.261 7.10533 199.459 7.208C199.664 7.30333 199.914 7.351 200.207 7.351C200.464 7.351 200.676 7.31433 200.845 7.241C201.014 7.16033 201.138 7.054 201.219 6.922C201.307 6.79 201.351 6.647 201.351 6.493C201.351 6.26567 201.296 6.09333 201.186 5.976C201.083 5.85867 200.929 5.767 200.724 5.701C200.519 5.62767 200.269 5.56533 199.976 5.514C199.734 5.47 199.496 5.41133 199.261 5.338C199.026 5.26467 198.817 5.16933 198.634 5.052C198.451 4.92733 198.304 4.777 198.194 4.601C198.091 4.425 198.04 4.20867 198.04 3.952C198.04 3.63667 198.121 3.358 198.282 3.116C198.443 2.86667 198.674 2.67233 198.975 2.533C199.283 2.39367 199.639 2.324 200.042 2.324C200.636 2.324 201.116 2.467 201.483 2.753C201.85 3.039 202.066 3.45333 202.132 3.996H201.219C201.182 3.71733 201.061 3.501 200.856 3.347C200.658 3.18567 200.383 3.105 200.031 3.105C199.686 3.105 199.422 3.17467 199.239 3.314C199.063 3.45333 198.975 3.63667 198.975 3.864C198.975 4.01067 199.023 4.14267 199.118 4.26C199.221 4.37 199.367 4.46533 199.558 4.546C199.756 4.62667 199.998 4.69267 200.284 4.744C200.651 4.81 200.984 4.898 201.285 5.008C201.586 5.118 201.828 5.283 202.011 5.503C202.202 5.71567 202.297 6.02 202.297 6.416C202.297 6.76067 202.209 7.06133 202.033 7.318C201.864 7.57467 201.622 7.77633 201.307 7.923C200.992 8.06233 200.621 8.132 200.196 8.132ZM206.058 8.132C205.538 8.132 205.076 8.011 204.672 7.769C204.276 7.527 203.965 7.18967 203.737 6.757C203.51 6.317 203.396 5.80733 203.396 5.228C203.396 4.64133 203.506 4.13167 203.726 3.699C203.954 3.26633 204.269 2.929 204.672 2.687C205.083 2.445 205.552 2.324 206.08 2.324C206.623 2.324 207.081 2.445 207.455 2.687C207.837 2.929 208.126 3.248 208.324 3.644C208.53 4.03267 208.632 4.46167 208.632 4.931C208.632 5.00433 208.632 5.08133 208.632 5.162C208.632 5.24267 208.629 5.33433 208.621 5.437H204.089V4.722H207.73C207.708 4.216 207.54 3.82 207.224 3.534C206.916 3.248 206.528 3.105 206.058 3.105C205.743 3.105 205.45 3.17833 205.178 3.325C204.914 3.46433 204.702 3.67333 204.54 3.952C204.379 4.22333 204.298 4.56433 204.298 4.975V5.283C204.298 5.73767 204.379 6.119 204.54 6.427C204.709 6.735 204.925 6.966 205.189 7.12C205.461 7.274 205.75 7.351 206.058 7.351C206.447 7.351 206.766 7.26667 207.015 7.098C207.272 6.922 207.455 6.68733 207.565 6.394H208.478C208.39 6.724 208.236 7.021 208.016 7.285C207.796 7.549 207.521 7.758 207.191 7.912C206.869 8.05867 206.491 8.132 206.058 8.132ZM212.801 8V0.0799997H213.725V3.391C213.909 3.061 214.165 2.80067 214.495 2.61C214.833 2.41933 215.199 2.324 215.595 2.324C216.021 2.324 216.391 2.412 216.706 2.588C217.022 2.75667 217.264 3.017 217.432 3.369C217.601 3.721 217.685 4.16467 217.685 4.7V8H216.772V4.799C216.772 4.24167 216.655 3.82367 216.42 3.545C216.186 3.259 215.845 3.116 215.397 3.116C215.082 3.116 214.796 3.193 214.539 3.347C214.29 3.501 214.092 3.721 213.945 4.007C213.799 4.293 213.725 4.645 213.725 5.063V8H212.801ZM221.559 8.132C221.039 8.132 220.577 8.011 220.173 7.769C219.777 7.527 219.466 7.18967 219.238 6.757C219.011 6.317 218.897 5.80733 218.897 5.228C218.897 4.64133 219.007 4.13167 219.227 3.699C219.455 3.26633 219.77 2.929 220.173 2.687C220.584 2.445 221.053 2.324 221.581 2.324C222.124 2.324 222.582 2.445 222.956 2.687C223.338 2.929 223.627 3.248 223.825 3.644C224.031 4.03267 224.133 4.46167 224.133 4.931C224.133 5.00433 224.133 5.08133 224.133 5.162C224.133 5.24267 224.13 5.33433 224.122 5.437H219.59V4.722H223.231C223.209 4.216 223.041 3.82 222.725 3.534C222.417 3.248 222.029 3.105 221.559 3.105C221.244 3.105 220.951 3.17833 220.679 3.325C220.415 3.46433 220.203 3.67333 220.041 3.952C219.88 4.22333 219.799 4.56433 219.799 4.975V5.283C219.799 5.73767 219.88 6.119 220.041 6.427C220.21 6.735 220.426 6.966 220.69 7.12C220.962 7.274 221.251 7.351 221.559 7.351C221.948 7.351 222.267 7.26667 222.516 7.098C222.773 6.922 222.956 6.68733 223.066 6.394H223.979C223.891 6.724 223.737 7.021 223.517 7.285C223.297 7.549 223.022 7.758 222.692 7.912C222.37 8.05867 221.992 8.132 221.559 8.132ZM225.38 8V2.456H226.216L226.282 3.512C226.407 3.26267 226.565 3.05 226.755 2.874C226.953 2.698 227.188 2.56233 227.459 2.467C227.738 2.37167 228.053 2.324 228.405 2.324V3.292H228.064C227.83 3.292 227.606 3.325 227.393 3.391C227.181 3.44967 226.99 3.54867 226.821 3.688C226.66 3.82733 226.532 4.018 226.436 4.26C226.348 4.49467 226.304 4.788 226.304 5.14V8H225.38ZM231.679 8.132C231.158 8.132 230.696 8.011 230.293 7.769C229.897 7.527 229.585 7.18967 229.358 6.757C229.13 6.317 229.017 5.80733 229.017 5.228C229.017 4.64133 229.127 4.13167 229.347 3.699C229.574 3.26633 229.889 2.929 230.293 2.687C230.703 2.445 231.173 2.324 231.701 2.324C232.243 2.324 232.702 2.445 233.076 2.687C233.457 2.929 233.747 3.248 233.945 3.644C234.15 4.03267 234.253 4.46167 234.253 4.931C234.253 5.00433 234.253 5.08133 234.253 5.162C234.253 5.24267 234.249 5.33433 234.242 5.437H229.71V4.722H233.351C233.329 4.216 233.16 3.82 232.845 3.534C232.537 3.248 232.148 3.105 231.679 3.105C231.363 3.105 231.07 3.17833 230.799 3.325C230.535 3.46433 230.322 3.67333 230.161 3.952C229.999 4.22333 229.919 4.56433 229.919 4.975V5.283C229.919 5.73767 229.999 6.119 230.161 6.427C230.329 6.735 230.546 6.966 230.81 7.12C231.081 7.274 231.371 7.351 231.679 7.351C232.067 7.351 232.386 7.26667 232.636 7.098C232.892 6.922 233.076 6.68733 233.186 6.394H234.099C234.011 6.724 233.857 7.021 233.637 7.285C233.417 7.549 233.142 7.758 232.812 7.912C232.489 8.05867 232.111 8.132 231.679 8.132ZM238.403 8.132C238.088 8.132 237.802 8.088 237.545 8C237.296 7.90467 237.076 7.78 236.885 7.626C236.695 7.472 236.537 7.29233 236.412 7.087L236.335 8H235.499V0.0799997H236.423V3.369C236.599 3.083 236.852 2.83733 237.182 2.632C237.512 2.42667 237.919 2.324 238.403 2.324C238.939 2.324 239.408 2.45233 239.811 2.709C240.215 2.95833 240.526 3.303 240.746 3.743C240.974 4.17567 241.087 4.67067 241.087 5.228C241.087 5.78533 240.974 6.284 240.746 6.724C240.526 7.164 240.215 7.50867 239.811 7.758C239.408 8.00733 238.939 8.132 238.403 8.132ZM238.293 7.329C238.653 7.329 238.972 7.241 239.25 7.065C239.529 6.889 239.745 6.647 239.899 6.339C240.061 6.02367 240.141 5.65333 240.141 5.228C240.141 4.81 240.061 4.44333 239.899 4.128C239.745 3.81267 239.529 3.567 239.25 3.391C238.972 3.215 238.653 3.127 238.293 3.127C237.927 3.127 237.604 3.215 237.325 3.391C237.047 3.567 236.83 3.81267 236.676 4.128C236.522 4.44333 236.445 4.81 236.445 5.228C236.445 5.65333 236.522 6.02367 236.676 6.339C236.83 6.647 237.047 6.889 237.325 7.065C237.604 7.241 237.927 7.329 238.293 7.329ZM242.55 10.42L243.903 7.384H243.584L241.406 2.456H242.407L244.211 6.691L246.103 2.456H247.06L243.518 10.42H242.55ZM252.783 8.132C252.336 8.132 251.962 8.055 251.661 7.901C251.36 7.73967 251.137 7.53067 250.99 7.274C250.843 7.01 250.77 6.724 250.77 6.416C250.77 6.042 250.865 5.72667 251.056 5.47C251.254 5.206 251.529 5.008 251.881 4.876C252.24 4.73667 252.662 4.667 253.146 4.667H254.609C254.609 4.32233 254.554 4.03633 254.444 3.809C254.341 3.57433 254.187 3.39833 253.982 3.281C253.784 3.16367 253.535 3.105 253.234 3.105C252.882 3.105 252.578 3.193 252.321 3.369C252.064 3.545 251.907 3.80533 251.848 4.15H250.902C250.946 3.754 251.078 3.424 251.298 3.16C251.525 2.88867 251.811 2.68333 252.156 2.544C252.501 2.39733 252.86 2.324 253.234 2.324C253.747 2.324 254.173 2.41933 254.51 2.61C254.855 2.79333 255.111 3.05367 255.28 3.391C255.449 3.721 255.533 4.11333 255.533 4.568V8H254.708L254.653 7.021C254.58 7.175 254.484 7.32167 254.367 7.461C254.257 7.593 254.125 7.71033 253.971 7.813C253.817 7.90833 253.641 7.98533 253.443 8.044C253.252 8.10267 253.032 8.132 252.783 8.132ZM252.926 7.351C253.183 7.351 253.414 7.29967 253.619 7.197C253.832 7.087 254.011 6.94033 254.158 6.757C254.305 6.56633 254.415 6.35733 254.488 6.13C254.569 5.90267 254.609 5.66433 254.609 5.415V5.382H253.223C252.864 5.382 252.574 5.426 252.354 5.514C252.134 5.59467 251.976 5.712 251.881 5.866C251.786 6.01267 251.738 6.18133 251.738 6.372C251.738 6.57 251.782 6.74233 251.87 6.889C251.965 7.03567 252.101 7.14933 252.277 7.23C252.46 7.31067 252.677 7.351 252.926 7.351ZM256.962 8V0.0799997H257.886V8H256.962ZM259.412 8V0.0799997H260.336V8H259.412ZM264.336 8.132C263.822 8.132 263.36 8.01467 262.95 7.78C262.539 7.538 262.216 7.20067 261.982 6.768C261.747 6.328 261.63 5.81833 261.63 5.239C261.63 4.645 261.747 4.13167 261.982 3.699C262.224 3.259 262.55 2.92167 262.961 2.687C263.379 2.445 263.844 2.324 264.358 2.324C264.886 2.324 265.351 2.445 265.755 2.687C266.165 2.92167 266.488 3.259 266.723 3.699C266.965 4.13167 267.086 4.64133 267.086 5.228C267.086 5.81467 266.965 6.328 266.723 6.768C266.481 7.20067 266.154 7.538 265.744 7.78C265.333 8.01467 264.864 8.132 264.336 8.132ZM264.347 7.34C264.662 7.34 264.955 7.263 265.227 7.109C265.498 6.94767 265.718 6.70933 265.887 6.394C266.055 6.07867 266.14 5.69 266.14 5.228C266.14 4.75867 266.055 4.37 265.887 4.062C265.725 3.74667 265.509 3.512 265.238 3.358C264.974 3.19667 264.68 3.116 264.358 3.116C264.05 3.116 263.756 3.19667 263.478 3.358C263.206 3.512 262.986 3.74667 262.818 4.062C262.656 4.37 262.576 4.75867 262.576 5.228C262.576 5.69 262.656 6.07867 262.818 6.394C262.986 6.70933 263.203 6.94767 263.467 7.109C263.738 7.263 264.031 7.34 264.347 7.34ZM269.299 8L267.671 2.456H268.595L269.86 7.131H269.695L271.07 2.456H272.115L273.512 7.12L273.336 7.131L274.59 2.456H275.525L273.908 8H272.962L271.51 3.116H271.697L270.245 8H269.299ZM278.657 8.132C278.195 8.132 277.792 8.055 277.447 7.901C277.11 7.747 276.838 7.53433 276.633 7.263C276.435 6.98433 276.314 6.658 276.27 6.284H277.216C277.253 6.47467 277.33 6.65067 277.447 6.812C277.564 6.97333 277.722 7.10533 277.92 7.208C278.125 7.30333 278.375 7.351 278.668 7.351C278.925 7.351 279.137 7.31433 279.306 7.241C279.475 7.16033 279.599 7.054 279.68 6.922C279.768 6.79 279.812 6.647 279.812 6.493C279.812 6.26567 279.757 6.09333 279.647 5.976C279.544 5.85867 279.39 5.767 279.185 5.701C278.98 5.62767 278.73 5.56533 278.437 5.514C278.195 5.47 277.957 5.41133 277.722 5.338C277.487 5.26467 277.278 5.16933 277.095 5.052C276.912 4.92733 276.765 4.777 276.655 4.601C276.552 4.425 276.501 4.20867 276.501 3.952C276.501 3.63667 276.582 3.358 276.743 3.116C276.904 2.86667 277.135 2.67233 277.436 2.533C277.744 2.39367 278.1 2.324 278.503 2.324C279.097 2.324 279.577 2.467 279.944 2.753C280.311 3.039 280.527 3.45333 280.593 3.996H279.68C279.643 3.71733 279.522 3.501 279.317 3.347C279.119 3.18567 278.844 3.105 278.492 3.105C278.147 3.105 277.883 3.17467 277.7 3.314C277.524 3.45333 277.436 3.63667 277.436 3.864C277.436 4.01067 277.484 4.14267 277.579 4.26C277.682 4.37 277.828 4.46533 278.019 4.546C278.217 4.62667 278.459 4.69267 278.745 4.744C279.112 4.81 279.445 4.898 279.746 5.008C280.047 5.118 280.289 5.283 280.472 5.503C280.663 5.71567 280.758 6.02 280.758 6.416C280.758 6.76067 280.67 7.06133 280.494 7.318C280.325 7.57467 280.083 7.77633 279.768 7.923C279.453 8.06233 279.082 8.132 278.657 8.132ZM287.188 8C286.858 8 286.572 7.94867 286.33 7.846C286.088 7.74333 285.901 7.571 285.769 7.329C285.645 7.07967 285.582 6.746 285.582 6.328V3.237H284.614V2.456H285.582L285.703 1.114H286.506V2.456H288.112V3.237H286.506V6.328C286.506 6.67267 286.576 6.90733 286.715 7.032C286.855 7.14933 287.1 7.208 287.452 7.208H288.046V8H287.188ZM289.318 8V0.0799997H290.242V3.391C290.425 3.061 290.682 2.80067 291.012 2.61C291.349 2.41933 291.716 2.324 292.112 2.324C292.537 2.324 292.908 2.412 293.223 2.588C293.538 2.75667 293.78 3.017 293.949 3.369C294.118 3.721 294.202 4.16467 294.202 4.7V8H293.289V4.799C293.289 4.24167 293.172 3.82367 292.937 3.545C292.702 3.259 292.361 3.116 291.914 3.116C291.599 3.116 291.313 3.193 291.056 3.347C290.807 3.501 290.609 3.721 290.462 4.007C290.315 4.293 290.242 4.645 290.242 5.063V8H289.318ZM298.076 8.132C297.555 8.132 297.093 8.011 296.69 7.769C296.294 7.527 295.982 7.18967 295.755 6.757C295.528 6.317 295.414 5.80733 295.414 5.228C295.414 4.64133 295.524 4.13167 295.744 3.699C295.971 3.26633 296.287 2.929 296.69 2.687C297.101 2.445 297.57 2.324 298.098 2.324C298.641 2.324 299.099 2.445 299.473 2.687C299.854 2.929 300.144 3.248 300.342 3.644C300.547 4.03267 300.65 4.46167 300.65 4.931C300.65 5.00433 300.65 5.08133 300.65 5.162C300.65 5.24267 300.646 5.33433 300.639 5.437H296.107V4.722H299.748C299.726 4.216 299.557 3.82 299.242 3.534C298.934 3.248 298.545 3.105 298.076 3.105C297.761 3.105 297.467 3.17833 297.196 3.325C296.932 3.46433 296.719 3.67333 296.558 3.952C296.397 4.22333 296.316 4.56433 296.316 4.975V5.283C296.316 5.73767 296.397 6.119 296.558 6.427C296.727 6.735 296.943 6.966 297.207 7.12C297.478 7.274 297.768 7.351 298.076 7.351C298.465 7.351 298.784 7.26667 299.033 7.098C299.29 6.922 299.473 6.68733 299.583 6.394H300.496C300.408 6.724 300.254 7.021 300.034 7.285C299.814 7.549 299.539 7.758 299.209 7.912C298.886 8.05867 298.509 8.132 298.076 8.132ZM304.819 8V2.456H305.655L305.699 3.424C305.875 3.07933 306.124 2.81167 306.447 2.621C306.777 2.423 307.151 2.324 307.569 2.324C308.001 2.324 308.375 2.412 308.691 2.588C309.006 2.75667 309.252 3.017 309.428 3.369C309.604 3.71367 309.692 4.15367 309.692 4.689V8H308.768V4.788C308.768 4.23067 308.643 3.81267 308.394 3.534C308.152 3.25533 307.807 3.116 307.36 3.116C307.052 3.116 306.777 3.193 306.535 3.347C306.293 3.49367 306.098 3.71 305.952 3.996C305.812 4.27467 305.743 4.623 305.743 5.041V8H304.819ZM312.939 8.132C312.492 8.132 312.118 8.055 311.817 7.901C311.517 7.73967 311.293 7.53067 311.146 7.274C311 7.01 310.926 6.724 310.926 6.416C310.926 6.042 311.022 5.72667 311.212 5.47C311.41 5.206 311.685 5.008 312.037 4.876C312.397 4.73667 312.818 4.667 313.302 4.667H314.765C314.765 4.32233 314.71 4.03633 314.6 3.809C314.498 3.57433 314.344 3.39833 314.138 3.281C313.94 3.16367 313.691 3.105 313.39 3.105C313.038 3.105 312.734 3.193 312.477 3.369C312.221 3.545 312.063 3.80533 312.004 4.15H311.058C311.102 3.754 311.234 3.424 311.454 3.16C311.682 2.88867 311.968 2.68333 312.312 2.544C312.657 2.39733 313.016 2.324 313.39 2.324C313.904 2.324 314.329 2.41933 314.666 2.61C315.011 2.79333 315.268 3.05367 315.436 3.391C315.605 3.721 315.689 4.11333 315.689 4.568V8H314.864L314.809 7.021C314.736 7.175 314.641 7.32167 314.523 7.461C314.413 7.593 314.281 7.71033 314.127 7.813C313.973 7.90833 313.797 7.98533 313.599 8.044C313.409 8.10267 313.189 8.132 312.939 8.132ZM313.082 7.351C313.339 7.351 313.57 7.29967 313.775 7.197C313.988 7.087 314.168 6.94033 314.314 6.757C314.461 6.56633 314.571 6.35733 314.644 6.13C314.725 5.90267 314.765 5.66433 314.765 5.415V5.382H313.379C313.02 5.382 312.73 5.426 312.51 5.514C312.29 5.59467 312.133 5.712 312.037 5.866C311.942 6.01267 311.894 6.18133 311.894 6.372C311.894 6.57 311.938 6.74233 312.026 6.889C312.122 7.03567 312.257 7.14933 312.433 7.23C312.617 7.31067 312.833 7.351 313.082 7.351ZM317.119 8V2.456H317.955L318.01 3.248C318.186 2.962 318.42 2.73833 318.714 2.577C319.014 2.40833 319.341 2.324 319.693 2.324C319.979 2.324 320.235 2.36433 320.463 2.445C320.697 2.51833 320.903 2.63567 321.079 2.797C321.255 2.951 321.398 3.149 321.508 3.391C321.698 3.05367 321.959 2.79333 322.289 2.61C322.626 2.41933 322.985 2.324 323.367 2.324C323.792 2.324 324.162 2.412 324.478 2.588C324.8 2.75667 325.046 3.017 325.215 3.369C325.391 3.71367 325.479 4.15367 325.479 4.689V8H324.566V4.788C324.566 4.23067 324.452 3.81267 324.225 3.534C323.997 3.25533 323.678 3.116 323.268 3.116C322.982 3.116 322.725 3.193 322.498 3.347C322.27 3.49367 322.091 3.71 321.959 3.996C321.827 4.282 321.761 4.634 321.761 5.052V8H320.837V4.788C320.837 4.23067 320.723 3.81267 320.496 3.534C320.268 3.25533 319.946 3.116 319.528 3.116C319.249 3.116 318.996 3.193 318.769 3.347C318.549 3.49367 318.373 3.71 318.241 3.996C318.109 4.282 318.043 4.634 318.043 5.052V8H317.119ZM329.347 8.132C328.826 8.132 328.364 8.011 327.961 7.769C327.565 7.527 327.253 7.18967 327.026 6.757C326.798 6.317 326.685 5.80733 326.685 5.228C326.685 4.64133 326.795 4.13167 327.015 3.699C327.242 3.26633 327.557 2.929 327.961 2.687C328.371 2.445 328.841 2.324 329.369 2.324C329.911 2.324 330.37 2.445 330.744 2.687C331.125 2.929 331.415 3.248 331.613 3.644C331.818 4.03267 331.921 4.46167 331.921 4.931C331.921 5.00433 331.921 5.08133 331.921 5.162C331.921 5.24267 331.917 5.33433 331.91 5.437H327.378V4.722H331.019C330.997 4.216 330.828 3.82 330.513 3.534C330.205 3.248 329.816 3.105 329.347 3.105C329.031 3.105 328.738 3.17833 328.467 3.325C328.203 3.46433 327.99 3.67333 327.829 3.952C327.667 4.22333 327.587 4.56433 327.587 4.975V5.283C327.587 5.73767 327.667 6.119 327.829 6.427C327.997 6.735 328.214 6.966 328.478 7.12C328.749 7.274 329.039 7.351 329.347 7.351C329.735 7.351 330.054 7.26667 330.304 7.098C330.56 6.922 330.744 6.68733 330.854 6.394H331.767C331.679 6.724 331.525 7.021 331.305 7.285C331.085 7.549 330.81 7.758 330.48 7.912C330.157 8.05867 329.779 8.132 329.347 8.132ZM337.893 8.132C337.446 8.132 337.072 8.055 336.771 7.901C336.471 7.73967 336.247 7.53067 336.1 7.274C335.954 7.01 335.88 6.724 335.88 6.416C335.88 6.042 335.976 5.72667 336.166 5.47C336.364 5.206 336.639 5.008 336.991 4.876C337.351 4.73667 337.772 4.667 338.256 4.667H339.719C339.719 4.32233 339.664 4.03633 339.554 3.809C339.452 3.57433 339.298 3.39833 339.092 3.281C338.894 3.16367 338.645 3.105 338.344 3.105C337.992 3.105 337.688 3.193 337.431 3.369C337.175 3.545 337.017 3.80533 336.958 4.15H336.012C336.056 3.754 336.188 3.424 336.408 3.16C336.636 2.88867 336.922 2.68333 337.266 2.544C337.611 2.39733 337.97 2.324 338.344 2.324C338.858 2.324 339.283 2.41933 339.62 2.61C339.965 2.79333 340.222 3.05367 340.39 3.391C340.559 3.721 340.643 4.11333 340.643 4.568V8H339.818L339.763 7.021C339.69 7.175 339.595 7.32167 339.477 7.461C339.367 7.593 339.235 7.71033 339.081 7.813C338.927 7.90833 338.751 7.98533 338.553 8.044C338.363 8.10267 338.143 8.132 337.893 8.132ZM338.036 7.351C338.293 7.351 338.524 7.29967 338.729 7.197C338.942 7.087 339.122 6.94033 339.268 6.757C339.415 6.56633 339.525 6.35733 339.598 6.13C339.679 5.90267 339.719 5.66433 339.719 5.415V5.382H338.333C337.974 5.382 337.684 5.426 337.464 5.514C337.244 5.59467 337.087 5.712 336.991 5.866C336.896 6.01267 336.848 6.18133 336.848 6.372C336.848 6.57 336.892 6.74233 336.98 6.889C337.076 7.03567 337.211 7.14933 337.387 7.23C337.571 7.31067 337.787 7.351 338.036 7.351ZM344.977 8.132C344.661 8.132 344.375 8.088 344.119 8C343.869 7.90467 343.649 7.78 343.459 7.626C343.268 7.472 343.11 7.29233 342.986 7.087L342.909 8H342.073V0.0799997H342.997V3.369C343.173 3.083 343.426 2.83733 343.756 2.632C344.086 2.42667 344.493 2.324 344.977 2.324C345.512 2.324 345.981 2.45233 346.385 2.709C346.788 2.95833 347.1 3.303 347.32 3.743C347.547 4.17567 347.661 4.67067 347.661 5.228C347.661 5.78533 347.547 6.284 347.32 6.724C347.1 7.164 346.788 7.50867 346.385 7.758C345.981 8.00733 345.512 8.132 344.977 8.132ZM344.867 7.329C345.226 7.329 345.545 7.241 345.824 7.065C346.102 6.889 346.319 6.647 346.473 6.339C346.634 6.02367 346.715 5.65333 346.715 5.228C346.715 4.81 346.634 4.44333 346.473 4.128C346.319 3.81267 346.102 3.567 345.824 3.391C345.545 3.215 345.226 3.127 344.867 3.127C344.5 3.127 344.177 3.215 343.899 3.391C343.62 3.567 343.404 3.81267 343.25 4.128C343.096 4.44333 343.019 4.81 343.019 5.228C343.019 5.65333 343.096 6.02367 343.25 6.339C343.404 6.647 343.62 6.889 343.899 7.065C344.177 7.241 344.5 7.329 344.867 7.329ZM351.433 8.132C350.92 8.132 350.458 8.01467 350.047 7.78C349.637 7.538 349.314 7.20067 349.079 6.768C348.845 6.328 348.727 5.81833 348.727 5.239C348.727 4.645 348.845 4.13167 349.079 3.699C349.321 3.259 349.648 2.92167 350.058 2.687C350.476 2.445 350.942 2.324 351.455 2.324C351.983 2.324 352.449 2.445 352.852 2.687C353.263 2.92167 353.586 3.259 353.82 3.699C354.062 4.13167 354.183 4.64133 354.183 5.228C354.183 5.81467 354.062 6.328 353.82 6.768C353.578 7.20067 353.252 7.538 352.841 7.78C352.431 8.01467 351.961 8.132 351.433 8.132ZM351.444 7.34C351.76 7.34 352.053 7.263 352.324 7.109C352.596 6.94767 352.816 6.70933 352.984 6.394C353.153 6.07867 353.237 5.69 353.237 5.228C353.237 4.75867 353.153 4.37 352.984 4.062C352.823 3.74667 352.607 3.512 352.335 3.358C352.071 3.19667 351.778 3.116 351.455 3.116C351.147 3.116 350.854 3.19667 350.575 3.358C350.304 3.512 350.084 3.74667 349.915 4.062C349.754 4.37 349.673 4.75867 349.673 5.228C349.673 5.69 349.754 6.07867 349.915 6.394C350.084 6.70933 350.3 6.94767 350.564 7.109C350.836 7.263 351.129 7.34 351.444 7.34ZM356.795 8L354.694 2.456H355.662L357.334 7.109L359.017 2.456H359.963L357.862 8H356.795ZM363.152 8.132C362.632 8.132 362.17 8.011 361.766 7.769C361.37 7.527 361.059 7.18967 360.831 6.757C360.604 6.317 360.49 5.80733 360.49 5.228C360.49 4.64133 360.6 4.13167 360.82 3.699C361.048 3.26633 361.363 2.929 361.766 2.687C362.177 2.445 362.646 2.324 363.174 2.324C363.717 2.324 364.175 2.445 364.549 2.687C364.931 2.929 365.22 3.248 365.418 3.644C365.624 4.03267 365.726 4.46167 365.726 4.931C365.726 5.00433 365.726 5.08133 365.726 5.162C365.726 5.24267 365.723 5.33433 365.715 5.437H361.183V4.722H364.824C364.802 4.216 364.634 3.82 364.318 3.534C364.01 3.248 363.622 3.105 363.152 3.105C362.837 3.105 362.544 3.17833 362.272 3.325C362.008 3.46433 361.796 3.67333 361.634 3.952C361.473 4.22333 361.392 4.56433 361.392 4.975V5.283C361.392 5.73767 361.473 6.119 361.634 6.427C361.803 6.735 362.019 6.966 362.283 7.12C362.555 7.274 362.844 7.351 363.152 7.351C363.541 7.351 363.86 7.26667 364.109 7.098C364.366 6.922 364.549 6.68733 364.659 6.394H365.572C365.484 6.724 365.33 7.021 365.11 7.285C364.89 7.549 364.615 7.758 364.285 7.912C363.963 8.05867 363.585 8.132 363.152 8.132ZM372.073 8C371.743 8 371.457 7.94867 371.215 7.846C370.973 7.74333 370.786 7.571 370.654 7.329C370.529 7.07967 370.467 6.746 370.467 6.328V3.237H369.499V2.456H370.467L370.588 1.114H371.391V2.456H372.997V3.237H371.391V6.328C371.391 6.67267 371.461 6.90733 371.6 7.032C371.739 7.14933 371.985 7.208 372.337 7.208H372.931V8H372.073ZM376.527 8.132C376.014 8.132 375.552 8.01467 375.141 7.78C374.731 7.538 374.408 7.20067 374.173 6.768C373.939 6.328 373.821 5.81833 373.821 5.239C373.821 4.645 373.939 4.13167 374.173 3.699C374.415 3.259 374.742 2.92167 375.152 2.687C375.57 2.445 376.036 2.324 376.549 2.324C377.077 2.324 377.543 2.445 377.946 2.687C378.357 2.92167 378.68 3.259 378.914 3.699C379.156 4.13167 379.277 4.64133 379.277 5.228C379.277 5.81467 379.156 6.328 378.914 6.768C378.672 7.20067 378.346 7.538 377.935 7.78C377.525 8.01467 377.055 8.132 376.527 8.132ZM376.538 7.34C376.854 7.34 377.147 7.263 377.418 7.109C377.69 6.94767 377.91 6.70933 378.078 6.394C378.247 6.07867 378.331 5.69 378.331 5.228C378.331 4.75867 378.247 4.37 378.078 4.062C377.917 3.74667 377.701 3.512 377.429 3.358C377.165 3.19667 376.872 3.116 376.549 3.116C376.241 3.116 375.948 3.19667 375.669 3.358C375.398 3.512 375.178 3.74667 375.009 4.062C374.848 4.37 374.767 4.75867 374.767 5.228C374.767 5.69 374.848 6.07867 375.009 6.394C375.178 6.70933 375.394 6.94767 375.658 7.109C375.93 7.263 376.223 7.34 376.538 7.34ZM2.50566 22.132C2.08032 22.132 1.70632 22.0477 1.38366 21.879C1.06832 21.7103 0.822656 21.45 0.646656 21.098C0.47799 20.746 0.393656 20.306 0.393656 19.778V16.456H1.31766V19.679C1.31766 20.229 1.43866 20.6433 1.68066 20.922C1.92266 21.2007 2.26366 21.34 2.70366 21.34C3.01166 21.34 3.29032 21.2667 3.53966 21.12C3.78899 20.966 3.98332 20.7497 4.12266 20.471C4.26932 20.185 4.34266 19.8367 4.34266 19.426V16.456H5.26666V22H4.43066L4.37566 21.032C4.20699 21.3767 3.95766 21.648 3.62766 21.846C3.29766 22.0367 2.92366 22.132 2.50566 22.132ZM8.88832 22.132C8.42632 22.132 8.02299 22.055 7.67832 21.901C7.34099 21.747 7.06965 21.5343 6.86432 21.263C6.66632 20.9843 6.54532 20.658 6.50132 20.284H7.44732C7.48399 20.4747 7.56099 20.6507 7.67832 20.812C7.79565 20.9733 7.95332 21.1053 8.15132 21.208C8.35665 21.3033 8.60599 21.351 8.89932 21.351C9.15599 21.351 9.36865 21.3143 9.53732 21.241C9.70599 21.1603 9.83065 21.054 9.91132 20.922C9.99932 20.79 10.0433 20.647 10.0433 20.493C10.0433 20.2657 9.98832 20.0933 9.87832 19.976C9.77565 19.8587 9.62165 19.767 9.41632 19.701C9.21099 19.6277 8.96165 19.5653 8.66832 19.514C8.42632 19.47 8.18799 19.4113 7.95332 19.338C7.71865 19.2647 7.50965 19.1693 7.32632 19.052C7.14299 18.9273 6.99632 18.777 6.88632 18.601C6.78365 18.425 6.73232 18.2087 6.73232 17.952C6.73232 17.6367 6.81299 17.358 6.97432 17.116C7.13565 16.8667 7.36665 16.6723 7.66732 16.533C7.97532 16.3937 8.33099 16.324 8.73432 16.324C9.32832 16.324 9.80865 16.467 10.1753 16.753C10.542 17.039 10.7583 17.4533 10.8243 17.996H9.91132C9.87465 17.7173 9.75365 17.501 9.54832 17.347C9.35032 17.1857 9.07532 17.105 8.72332 17.105C8.37865 17.105 8.11465 17.1747 7.93132 17.314C7.75532 17.4533 7.66732 17.6367 7.66732 17.864C7.66732 18.0107 7.71499 18.1427 7.81032 18.26C7.91299 18.37 8.05965 18.4653 8.25032 18.546C8.44832 18.6267 8.69032 18.6927 8.97632 18.744C9.34299 18.81 9.67665 18.898 9.97732 19.008C10.278 19.118 10.52 19.283 10.7033 19.503C10.894 19.7157 10.9893 20.02 10.9893 20.416C10.9893 20.7607 10.9013 21.0613 10.7253 21.318C10.5567 21.5747 10.3147 21.7763 9.99932 21.923C9.68399 22.0623 9.31365 22.132 8.88832 22.132ZM14.7508 22.132C14.2301 22.132 13.7681 22.011 13.3648 21.769C12.9688 21.527 12.6571 21.1897 12.4298 20.757C12.2025 20.317 12.0888 19.8073 12.0888 19.228C12.0888 18.6413 12.1988 18.1317 12.4188 17.699C12.6461 17.2663 12.9615 16.929 13.3648 16.687C13.7755 16.445 14.2448 16.324 14.7728 16.324C15.3155 16.324 15.7738 16.445 16.1478 16.687C16.5291 16.929 16.8188 17.248 17.0168 17.644C17.2221 18.0327 17.3248 18.4617 17.3248 18.931C17.3248 19.0043 17.3248 19.0813 17.3248 19.162C17.3248 19.2427 17.3211 19.3343 17.3138 19.437H12.7818V18.722H16.4228C16.4008 18.216 16.2321 17.82 15.9168 17.534C15.6088 17.248 15.2201 17.105 14.7508 17.105C14.4355 17.105 14.1421 17.1783 13.8708 17.325C13.6068 17.4643 13.3941 17.6733 13.2328 17.952C13.0715 18.2233 12.9908 18.5643 12.9908 18.975V19.283C12.9908 19.7377 13.0715 20.119 13.2328 20.427C13.4015 20.735 13.6178 20.966 13.8818 21.12C14.1531 21.274 14.4428 21.351 14.7508 21.351C15.1395 21.351 15.4585 21.2667 15.7078 21.098C15.9645 20.922 16.1478 20.6873 16.2578 20.394H17.1708C17.0828 20.724 16.9288 21.021 16.7088 21.285C16.4888 21.549 16.2138 21.758 15.8838 21.912C15.5611 22.0587 15.1835 22.132 14.7508 22.132ZM23.6716 22C23.3416 22 23.0556 21.9487 22.8136 21.846C22.5716 21.7433 22.3846 21.571 22.2526 21.329C22.128 21.0797 22.0656 20.746 22.0656 20.328V17.237H21.0976V16.456H22.0656L22.1866 15.114H22.9896V16.456H24.5956V17.237H22.9896V20.328C22.9896 20.6727 23.0593 20.9073 23.1986 21.032C23.338 21.1493 23.5836 21.208 23.9356 21.208H24.5296V22H23.6716ZM25.8013 22V14.08H26.7253V17.391C26.9086 17.061 27.1653 16.8007 27.4953 16.61C27.8326 16.4193 28.1993 16.324 28.5953 16.324C29.0206 16.324 29.3909 16.412 29.7063 16.588C30.0216 16.7567 30.2636 17.017 30.4323 17.369C30.6009 17.721 30.6852 18.1647 30.6852 18.7V22H29.7723V18.799C29.7723 18.2417 29.6549 17.8237 29.4203 17.545C29.1856 17.259 28.8446 17.116 28.3973 17.116C28.0819 17.116 27.7959 17.193 27.5393 17.347C27.2899 17.501 27.0919 17.721 26.9453 18.007C26.7986 18.293 26.7253 18.645 26.7253 19.063V22H25.8013ZM34.5594 22.132C34.0387 22.132 33.5767 22.011 33.1734 21.769C32.7774 21.527 32.4657 21.1897 32.2384 20.757C32.0111 20.317 31.8974 19.8073 31.8974 19.228C31.8974 18.6413 32.0074 18.1317 32.2274 17.699C32.4547 17.2663 32.7701 16.929 33.1734 16.687C33.5841 16.445 34.0534 16.324 34.5814 16.324C35.1241 16.324 35.5824 16.445 35.9564 16.687C36.3377 16.929 36.6274 17.248 36.8254 17.644C37.0307 18.0327 37.1334 18.4617 37.1334 18.931C37.1334 19.0043 37.1334 19.0813 37.1334 19.162C37.1334 19.2427 37.1297 19.3343 37.1224 19.437H32.5904V18.722H36.2314C36.2094 18.216 36.0407 17.82 35.7254 17.534C35.4174 17.248 35.0287 17.105 34.5594 17.105C34.2441 17.105 33.9507 17.1783 33.6794 17.325C33.4154 17.4643 33.2027 17.6733 33.0414 17.952C32.8801 18.2233 32.7994 18.5643 32.7994 18.975V19.283C32.7994 19.7377 32.8801 20.119 33.0414 20.427C33.2101 20.735 33.4264 20.966 33.6904 21.12C33.9617 21.274 34.2514 21.351 34.5594 21.351C34.9481 21.351 35.2671 21.2667 35.5164 21.098C35.7731 20.922 35.9564 20.6873 36.0664 20.394H36.9794C36.8914 20.724 36.7374 21.021 36.5174 21.285C36.2974 21.549 36.0224 21.758 35.6924 21.912C35.3697 22.0587 34.9921 22.132 34.5594 22.132ZM43.4912 24.552C42.9926 24.552 42.5489 24.486 42.1602 24.354C41.7789 24.2293 41.4819 24.035 41.2692 23.771C41.0566 23.507 40.9502 23.1807 40.9502 22.792C40.9502 22.6233 40.9832 22.4437 41.0492 22.253C41.1226 22.0623 41.2436 21.8753 41.4122 21.692C41.5882 21.5087 41.8339 21.3437 42.1492 21.197L42.7872 21.571C42.3986 21.7323 42.1456 21.9157 42.0282 22.121C41.9109 22.3337 41.8522 22.528 41.8522 22.704C41.8522 22.946 41.9219 23.1477 42.0612 23.309C42.2006 23.4703 42.3949 23.5913 42.6442 23.672C42.8936 23.7527 43.1759 23.793 43.4912 23.793C43.8066 23.793 44.0779 23.749 44.3052 23.661C44.5326 23.573 44.7086 23.4483 44.8332 23.287C44.9579 23.1257 45.0202 22.935 45.0202 22.715C45.0202 22.4583 44.9249 22.242 44.7342 22.066C44.5436 21.8973 44.1806 21.7983 43.6452 21.769C43.2126 21.7397 42.8496 21.6993 42.5562 21.648C42.2629 21.5967 42.0209 21.538 41.8302 21.472C41.6396 21.3987 41.4782 21.318 41.3462 21.23C41.2216 21.142 41.1079 21.0503 41.0052 20.955V20.702L42.0722 19.646L42.8752 19.932L41.7752 20.922L41.9182 20.537C41.9989 20.5957 42.0759 20.6507 42.1492 20.702C42.2226 20.7533 42.3216 20.7973 42.4462 20.834C42.5709 20.8707 42.7432 20.9037 42.9632 20.933C43.1906 20.9623 43.4876 20.9917 43.8542 21.021C44.3602 21.0577 44.7636 21.1457 45.0642 21.285C45.3722 21.4243 45.5922 21.6113 45.7242 21.846C45.8636 22.0807 45.9332 22.3593 45.9332 22.682C45.9332 22.9973 45.8452 23.2943 45.6692 23.573C45.5006 23.859 45.2366 24.0937 44.8772 24.277C44.5179 24.4603 44.0559 24.552 43.4912 24.552ZM43.4802 20.262C43.0182 20.262 42.6222 20.174 42.2922 19.998C41.9696 19.822 41.7239 19.5873 41.5552 19.294C41.3866 18.9933 41.3022 18.6597 41.3022 18.293C41.3022 17.9263 41.3866 17.5963 41.5552 17.303C41.7312 17.0097 41.9806 16.775 42.3032 16.599C42.6259 16.4157 43.0182 16.324 43.4802 16.324C43.9422 16.324 44.3346 16.4157 44.6572 16.599C44.9799 16.775 45.2256 17.0097 45.3942 17.303C45.5629 17.5963 45.6472 17.9263 45.6472 18.293C45.6472 18.6597 45.5629 18.9933 45.3942 19.294C45.2256 19.5873 44.9799 19.822 44.6572 19.998C44.3346 20.174 43.9422 20.262 43.4802 20.262ZM43.4802 19.503C43.8762 19.503 44.1879 19.4003 44.4152 19.195C44.6426 18.9897 44.7562 18.689 44.7562 18.293C44.7562 17.9043 44.6426 17.6073 44.4152 17.402C44.1879 17.1967 43.8762 17.094 43.4802 17.094C43.0916 17.094 42.7762 17.1967 42.5342 17.402C42.2996 17.6073 42.1822 17.9043 42.1822 18.293C42.1822 18.689 42.2996 18.9897 42.5342 19.195C42.7689 19.4003 43.0842 19.503 43.4802 19.503ZM44.3822 17.237L44.1072 16.456H46.3732V17.149L44.3822 17.237ZM47.524 22V16.456H48.448V22H47.524ZM47.986 15.279C47.8027 15.279 47.6487 15.2203 47.524 15.103C47.4067 14.9783 47.348 14.8243 47.348 14.641C47.348 14.4577 47.4067 14.311 47.524 14.201C47.6487 14.0837 47.8027 14.025 47.986 14.025C48.162 14.025 48.3123 14.0837 48.437 14.201C48.5617 14.311 48.624 14.4577 48.624 14.641C48.624 14.8243 48.5617 14.9783 48.437 15.103C48.3123 15.2203 48.162 15.279 47.986 15.279ZM51.6736 22L49.5726 16.456H50.5406L52.2126 21.109L53.8956 16.456H54.8416L52.7406 22H51.6736ZM58.0311 22.132C57.5104 22.132 57.0484 22.011 56.6451 21.769C56.2491 21.527 55.9374 21.1897 55.7101 20.757C55.4827 20.317 55.3691 19.8073 55.3691 19.228C55.3691 18.6413 55.4791 18.1317 55.6991 17.699C55.9264 17.2663 56.2417 16.929 56.6451 16.687C57.0557 16.445 57.5251 16.324 58.0531 16.324C58.5957 16.324 59.0541 16.445 59.4281 16.687C59.8094 16.929 60.0991 17.248 60.2971 17.644C60.5024 18.0327 60.6051 18.4617 60.6051 18.931C60.6051 19.0043 60.6051 19.0813 60.6051 19.162C60.6051 19.2427 60.6014 19.3343 60.5941 19.437H56.0621V18.722H59.7031C59.6811 18.216 59.5124 17.82 59.1971 17.534C58.8891 17.248 58.5004 17.105 58.0311 17.105C57.7157 17.105 57.4224 17.1783 57.1511 17.325C56.8871 17.4643 56.6744 17.6733 56.5131 17.952C56.3517 18.2233 56.2711 18.5643 56.2711 18.975V19.283C56.2711 19.7377 56.3517 20.119 56.5131 20.427C56.6817 20.735 56.8981 20.966 57.1621 21.12C57.4334 21.274 57.7231 21.351 58.0311 21.351C58.4197 21.351 58.7387 21.2667 58.9881 21.098C59.2447 20.922 59.4281 20.6873 59.5381 20.394H60.4511C60.3631 20.724 60.2091 21.021 59.9891 21.285C59.7691 21.549 59.4941 21.758 59.1641 21.912C58.8414 22.0587 58.4637 22.132 58.0311 22.132ZM61.852 22V16.456H62.688L62.732 17.424C62.908 17.0793 63.1574 16.8117 63.48 16.621C63.81 16.423 64.184 16.324 64.602 16.324C65.0347 16.324 65.4087 16.412 65.724 16.588C66.0394 16.7567 66.285 17.017 66.461 17.369C66.637 17.7137 66.725 18.1537 66.725 18.689V22H65.801V18.788C65.801 18.2307 65.6764 17.8127 65.427 17.534C65.185 17.2553 64.8404 17.116 64.393 17.116C64.085 17.116 63.81 17.193 63.568 17.347C63.326 17.4937 63.1317 17.71 62.985 17.996C62.8457 18.2747 62.776 18.623 62.776 19.041V22H61.852ZM73.5873 22.132C73.0666 22.132 72.5973 22.011 72.1793 21.769C71.7686 21.527 71.446 21.1897 71.2113 20.757C70.9766 20.317 70.8593 19.811 70.8593 19.239C70.8593 18.6523 70.9766 18.1427 71.2113 17.71C71.446 17.2773 71.7686 16.94 72.1793 16.698C72.5973 16.4487 73.0666 16.324 73.5873 16.324C74.2473 16.324 74.7973 16.4963 75.2373 16.841C75.6773 17.1783 75.956 17.633 76.0733 18.205H75.1273C75.054 17.8603 74.8743 17.5927 74.5883 17.402C74.3023 17.2113 73.965 17.116 73.5763 17.116C73.261 17.116 72.9676 17.1967 72.6963 17.358C72.425 17.512 72.2086 17.7467 72.0473 18.062C71.886 18.3773 71.8053 18.766 71.8053 19.228C71.8053 19.5727 71.853 19.8807 71.9483 20.152C72.0436 20.416 72.172 20.636 72.3333 20.812C72.4946 20.988 72.6816 21.1237 72.8943 21.219C73.1143 21.307 73.3416 21.351 73.5763 21.351C73.8403 21.351 74.0786 21.3107 74.2913 21.23C74.504 21.142 74.6836 21.0137 74.8303 20.845C74.977 20.6763 75.076 20.4783 75.1273 20.251H76.0733C75.956 20.8083 75.6736 21.263 75.2263 21.615C74.7863 21.9597 74.24 22.132 73.5873 22.132ZM79.8162 22.132C79.2956 22.132 78.8336 22.011 78.4302 21.769C78.0342 21.527 77.7226 21.1897 77.4952 20.757C77.2679 20.317 77.1542 19.8073 77.1542 19.228C77.1542 18.6413 77.2642 18.1317 77.4842 17.699C77.7116 17.2663 78.0269 16.929 78.4302 16.687C78.8409 16.445 79.3102 16.324 79.8382 16.324C80.3809 16.324 80.8392 16.445 81.2132 16.687C81.5946 16.929 81.8842 17.248 82.0822 17.644C82.2876 18.0327 82.3902 18.4617 82.3902 18.931C82.3902 19.0043 82.3902 19.0813 82.3902 19.162C82.3902 19.2427 82.3866 19.3343 82.3792 19.437H77.8472V18.722H81.4882C81.4662 18.216 81.2976 17.82 80.9822 17.534C80.6742 17.248 80.2856 17.105 79.8162 17.105C79.5009 17.105 79.2076 17.1783 78.9362 17.325C78.6722 17.4643 78.4596 17.6733 78.2982 17.952C78.1369 18.2233 78.0562 18.5643 78.0562 18.975V19.283C78.0562 19.7377 78.1369 20.119 78.2982 20.427C78.4669 20.735 78.6832 20.966 78.9472 21.12C79.2186 21.274 79.5082 21.351 79.8162 21.351C80.2049 21.351 80.5239 21.2667 80.7732 21.098C81.0299 20.922 81.2132 20.6873 81.3232 20.394H82.2362C82.1482 20.724 81.9942 21.021 81.7742 21.285C81.5542 21.549 81.2792 21.758 80.9492 21.912C80.6266 22.0587 80.2489 22.132 79.8162 22.132ZM83.6372 22V16.456H84.4732L84.5392 17.512C84.6639 17.2627 84.8215 17.05 85.0122 16.874C85.2102 16.698 85.4449 16.5623 85.7162 16.467C85.9949 16.3717 86.3102 16.324 86.6622 16.324V17.292H86.3212C86.0865 17.292 85.8629 17.325 85.6502 17.391C85.4375 17.4497 85.2469 17.5487 85.0782 17.688C84.9169 17.8273 84.7885 18.018 84.6932 18.26C84.6052 18.4947 84.5612 18.788 84.5612 19.14V22H83.6372ZM89.8865 22C89.5565 22 89.2705 21.9487 89.0285 21.846C88.7865 21.7433 88.5995 21.571 88.4675 21.329C88.3428 21.0797 88.2805 20.746 88.2805 20.328V17.237H87.3125V16.456H88.2805L88.4015 15.114H89.2045V16.456H90.8105V17.237H89.2045V20.328C89.2045 20.6727 89.2741 20.9073 89.4135 21.032C89.5528 21.1493 89.7985 21.208 90.1505 21.208H90.7445V22H89.8865ZM92.1041 22V16.456H93.0281V22H92.1041ZM92.5661 15.279C92.3828 15.279 92.2288 15.2203 92.1041 15.103C91.9868 14.9783 91.9281 14.8243 91.9281 14.641C91.9281 14.4577 91.9868 14.311 92.1041 14.201C92.2288 14.0837 92.3828 14.025 92.5661 14.025C92.7421 14.025 92.8924 14.0837 93.0171 14.201C93.1418 14.311 93.2041 14.4577 93.2041 14.641C93.2041 14.8243 93.1418 14.9783 93.0171 15.103C92.8924 15.2203 92.7421 15.279 92.5661 15.279ZM94.9667 22V17.237H94.1197V16.456H94.9667V15.598C94.9667 15.246 95.0253 14.96 95.1427 14.74C95.26 14.5127 95.4323 14.3477 95.6597 14.245C95.8943 14.135 96.1803 14.08 96.5177 14.08H97.0677V14.872H96.6607C96.3893 14.872 96.1913 14.927 96.0667 15.037C95.9493 15.147 95.8907 15.3413 95.8907 15.62V16.456H99.2127V22H98.2887V17.237H95.8907V22H94.9667ZM98.7617 15.4C98.5857 15.4 98.4353 15.3413 98.3107 15.224C98.186 15.0993 98.1237 14.9453 98.1237 14.762C98.1237 14.5787 98.186 14.432 98.3107 14.322C98.4353 14.2047 98.5857 14.146 98.7617 14.146C98.945 14.146 99.0953 14.2047 99.2127 14.322C99.3373 14.432 99.3997 14.5787 99.3997 14.762C99.3997 14.9453 99.3373 15.0993 99.2127 15.224C99.0953 15.3413 98.945 15.4 98.7617 15.4ZM103.354 22.132C102.833 22.132 102.364 22.011 101.946 21.769C101.535 21.527 101.213 21.1897 100.978 20.757C100.743 20.317 100.626 19.811 100.626 19.239C100.626 18.6523 100.743 18.1427 100.978 17.71C101.213 17.2773 101.535 16.94 101.946 16.698C102.364 16.4487 102.833 16.324 103.354 16.324C104.014 16.324 104.564 16.4963 105.004 16.841C105.444 17.1783 105.723 17.633 105.84 18.205H104.894C104.821 17.8603 104.641 17.5927 104.355 17.402C104.069 17.2113 103.732 17.116 103.343 17.116C103.028 17.116 102.734 17.1967 102.463 17.358C102.192 17.512 101.975 17.7467 101.814 18.062C101.653 18.3773 101.572 18.766 101.572 19.228C101.572 19.5727 101.62 19.8807 101.715 20.152C101.81 20.416 101.939 20.636 102.1 20.812C102.261 20.988 102.448 21.1237 102.661 21.219C102.881 21.307 103.108 21.351 103.343 21.351C103.607 21.351 103.845 21.3107 104.058 21.23C104.271 21.142 104.45 21.0137 104.597 20.845C104.744 20.6763 104.843 20.4783 104.894 20.251H105.84C105.723 20.8083 105.44 21.263 104.993 21.615C104.553 21.9597 104.007 22.132 103.354 22.132ZM108.956 22.132C108.509 22.132 108.135 22.055 107.834 21.901C107.533 21.7397 107.31 21.5307 107.163 21.274C107.016 21.01 106.943 20.724 106.943 20.416C106.943 20.042 107.038 19.7267 107.229 19.47C107.427 19.206 107.702 19.008 108.054 18.876C108.413 18.7367 108.835 18.667 109.319 18.667H110.782C110.782 18.3223 110.727 18.0363 110.617 17.809C110.514 17.5743 110.36 17.3983 110.155 17.281C109.957 17.1637 109.708 17.105 109.407 17.105C109.055 17.105 108.751 17.193 108.494 17.369C108.237 17.545 108.08 17.8053 108.021 18.15H107.075C107.119 17.754 107.251 17.424 107.471 17.16C107.698 16.8887 107.984 16.6833 108.329 16.544C108.674 16.3973 109.033 16.324 109.407 16.324C109.92 16.324 110.346 16.4193 110.683 16.61C111.028 16.7933 111.284 17.0537 111.453 17.391C111.622 17.721 111.706 18.1133 111.706 18.568V22H110.881L110.826 21.021C110.753 21.175 110.657 21.3217 110.54 21.461C110.43 21.593 110.298 21.7103 110.144 21.813C109.99 21.9083 109.814 21.9853 109.616 22.044C109.425 22.1027 109.205 22.132 108.956 22.132ZM109.099 21.351C109.356 21.351 109.587 21.2997 109.792 21.197C110.005 21.087 110.184 20.9403 110.331 20.757C110.478 20.5663 110.588 20.3573 110.661 20.13C110.742 19.9027 110.782 19.6643 110.782 19.415V19.382H109.396C109.037 19.382 108.747 19.426 108.527 19.514C108.307 19.5947 108.149 19.712 108.054 19.866C107.959 20.0127 107.911 20.1813 107.911 20.372C107.911 20.57 107.955 20.7423 108.043 20.889C108.138 21.0357 108.274 21.1493 108.45 21.23C108.633 21.3107 108.85 21.351 109.099 21.351ZM115.163 22C114.833 22 114.547 21.9487 114.305 21.846C114.063 21.7433 113.876 21.571 113.744 21.329C113.619 21.0797 113.557 20.746 113.557 20.328V17.237H112.589V16.456H113.557L113.678 15.114H114.481V16.456H116.087V17.237H114.481V20.328C114.481 20.6727 114.551 20.9073 114.69 21.032C114.829 21.1493 115.075 21.208 115.427 21.208H116.021V22H115.163ZM119.573 22.132C119.052 22.132 118.59 22.011 118.187 21.769C117.791 21.527 117.479 21.1897 117.252 20.757C117.025 20.317 116.911 19.8073 116.911 19.228C116.911 18.6413 117.021 18.1317 117.241 17.699C117.468 17.2663 117.784 16.929 118.187 16.687C118.598 16.445 119.067 16.324 119.595 16.324C120.138 16.324 120.596 16.445 120.97 16.687C121.351 16.929 121.641 17.248 121.839 17.644C122.044 18.0327 122.147 18.4617 122.147 18.931C122.147 19.0043 122.147 19.0813 122.147 19.162C122.147 19.2427 122.143 19.3343 122.136 19.437H117.604V18.722H121.245C121.223 18.216 121.054 17.82 120.739 17.534C120.431 17.248 120.042 17.105 119.573 17.105C119.258 17.105 118.964 17.1783 118.693 17.325C118.429 17.4643 118.216 17.6733 118.055 17.952C117.894 18.2233 117.813 18.5643 117.813 18.975V19.283C117.813 19.7377 117.894 20.119 118.055 20.427C118.224 20.735 118.44 20.966 118.704 21.12C118.975 21.274 119.265 21.351 119.573 21.351C119.962 21.351 120.281 21.2667 120.53 21.098C120.787 20.922 120.97 20.6873 121.08 20.394H121.993C121.905 20.724 121.751 21.021 121.531 21.285C121.311 21.549 121.036 21.758 120.706 21.912C120.383 22.0587 120.006 22.132 119.573 22.132ZM126.624 22V15.598C126.624 15.246 126.683 14.96 126.8 14.74C126.917 14.5127 127.09 14.3477 127.317 14.245C127.552 14.135 127.838 14.08 128.175 14.08H128.802V14.872H128.318C128.047 14.872 127.849 14.927 127.724 15.037C127.607 15.147 127.548 15.3413 127.548 15.62V22H126.624ZM125.777 17.237V16.456H128.945V17.237H125.777ZM132.314 22.132C131.801 22.132 131.339 22.0147 130.928 21.78C130.518 21.538 130.195 21.2007 129.96 20.768C129.726 20.328 129.608 19.8183 129.608 19.239C129.608 18.645 129.726 18.1317 129.96 17.699C130.202 17.259 130.529 16.9217 130.939 16.687C131.357 16.445 131.823 16.324 132.336 16.324C132.864 16.324 133.33 16.445 133.733 16.687C134.144 16.9217 134.467 17.259 134.701 17.699C134.943 18.1317 135.064 18.6413 135.064 19.228C135.064 19.8147 134.943 20.328 134.701 20.768C134.459 21.2007 134.133 21.538 133.722 21.78C133.312 22.0147 132.842 22.132 132.314 22.132ZM132.325 21.34C132.641 21.34 132.934 21.263 133.205 21.109C133.477 20.9477 133.697 20.7093 133.865 20.394C134.034 20.0787 134.118 19.69 134.118 19.228C134.118 18.7587 134.034 18.37 133.865 18.062C133.704 17.7467 133.488 17.512 133.216 17.358C132.952 17.1967 132.659 17.116 132.336 17.116C132.028 17.116 131.735 17.1967 131.456 17.358C131.185 17.512 130.965 17.7467 130.796 18.062C130.635 18.37 130.554 18.7587 130.554 19.228C130.554 19.69 130.635 20.0787 130.796 20.394C130.965 20.7093 131.181 20.9477 131.445 21.109C131.717 21.263 132.01 21.34 132.325 21.34ZM136.36 22V16.456H137.196L137.262 17.512C137.387 17.2627 137.544 17.05 137.735 16.874C137.933 16.698 138.168 16.5623 138.439 16.467C138.718 16.3717 139.033 16.324 139.385 16.324V17.292H139.044C138.809 17.292 138.586 17.325 138.373 17.391C138.16 17.4497 137.97 17.5487 137.801 17.688C137.64 17.8273 137.511 18.018 137.416 18.26C137.328 18.4947 137.284 18.788 137.284 19.14V22H136.36ZM143.408 22V14.3H148.171V15.059H144.332V17.743H147.841V18.491H144.332V21.241H148.171V22H143.408ZM149.595 19.14V18.359H153.951V19.14H149.595ZM158.428 22.132C158.113 22.132 157.827 22.088 157.57 22C157.321 21.9047 157.101 21.78 156.91 21.626C156.719 21.472 156.562 21.2923 156.437 21.087L156.36 22H155.524V14.08H156.448V17.369C156.624 17.083 156.877 16.8373 157.207 16.632C157.537 16.4267 157.944 16.324 158.428 16.324C158.963 16.324 159.433 16.4523 159.836 16.709C160.239 16.9583 160.551 17.303 160.771 17.743C160.998 18.1757 161.112 18.6707 161.112 19.228C161.112 19.7853 160.998 20.284 160.771 20.724C160.551 21.164 160.239 21.5087 159.836 21.758C159.433 22.0073 158.963 22.132 158.428 22.132ZM158.318 21.329C158.677 21.329 158.996 21.241 159.275 21.065C159.554 20.889 159.77 20.647 159.924 20.339C160.085 20.0237 160.166 19.6533 160.166 19.228C160.166 18.81 160.085 18.4433 159.924 18.128C159.77 17.8127 159.554 17.567 159.275 17.391C158.996 17.215 158.677 17.127 158.318 17.127C157.951 17.127 157.629 17.215 157.35 17.391C157.071 17.567 156.855 17.8127 156.701 18.128C156.547 18.4433 156.47 18.81 156.47 19.228C156.47 19.6533 156.547 20.0237 156.701 20.339C156.855 20.647 157.071 20.889 157.35 21.065C157.629 21.241 157.951 21.329 158.318 21.329ZM162.498 22V16.456H163.422V22H162.498ZM162.96 15.279C162.776 15.279 162.622 15.2203 162.498 15.103C162.38 14.9783 162.322 14.8243 162.322 14.641C162.322 14.4577 162.38 14.311 162.498 14.201C162.622 14.0837 162.776 14.025 162.96 14.025C163.136 14.025 163.286 14.0837 163.411 14.201C163.535 14.311 163.598 14.4577 163.598 14.641C163.598 14.8243 163.535 14.9783 163.411 15.103C163.286 15.2203 163.136 15.279 162.96 15.279ZM168.462 22L165.822 18.964L168.231 16.456H169.364L166.603 19.294L166.614 18.634L169.639 22H168.462ZM165.052 22V14.08H165.976V22H165.052ZM172.629 22.132C172.108 22.132 171.646 22.011 171.243 21.769C170.847 21.527 170.535 21.1897 170.308 20.757C170.08 20.317 169.967 19.8073 169.967 19.228C169.967 18.6413 170.077 18.1317 170.297 17.699C170.524 17.2663 170.839 16.929 171.243 16.687C171.653 16.445 172.123 16.324 172.651 16.324C173.193 16.324 173.652 16.445 174.026 16.687C174.407 16.929 174.697 17.248 174.895 17.644C175.1 18.0327 175.203 18.4617 175.203 18.931C175.203 19.0043 175.203 19.0813 175.203 19.162C175.203 19.2427 175.199 19.3343 175.192 19.437H170.66V18.722H174.301C174.279 18.216 174.11 17.82 173.795 17.534C173.487 17.248 173.098 17.105 172.629 17.105C172.313 17.105 172.02 17.1783 171.749 17.325C171.485 17.4643 171.272 17.6733 171.111 17.952C170.949 18.2233 170.869 18.5643 170.869 18.975V19.283C170.869 19.7377 170.949 20.119 171.111 20.427C171.279 20.735 171.496 20.966 171.76 21.12C172.031 21.274 172.321 21.351 172.629 21.351C173.017 21.351 173.336 21.2667 173.586 21.098C173.842 20.922 174.026 20.6873 174.136 20.394H175.049C174.961 20.724 174.807 21.021 174.587 21.285C174.367 21.549 174.092 21.758 173.762 21.912C173.439 22.0587 173.061 22.132 172.629 22.132ZM181.385 22.132C180.959 22.132 180.585 22.0477 180.263 21.879C179.947 21.7103 179.702 21.45 179.526 21.098C179.357 20.746 179.273 20.306 179.273 19.778V16.456H180.197V19.679C180.197 20.229 180.318 20.6433 180.56 20.922C180.802 21.2007 181.143 21.34 181.583 21.34C181.891 21.34 182.169 21.2667 182.419 21.12C182.668 20.966 182.862 20.7497 183.002 20.471C183.148 20.185 183.222 19.8367 183.222 19.426V16.456H184.146V22H183.31L183.255 21.032C183.086 21.3767 182.837 21.648 182.507 21.846C182.177 22.0367 181.803 22.132 181.385 22.132ZM187.767 22.132C187.305 22.132 186.902 22.055 186.557 21.901C186.22 21.747 185.949 21.5343 185.743 21.263C185.545 20.9843 185.424 20.658 185.38 20.284H186.326C186.363 20.4747 186.44 20.6507 186.557 20.812C186.675 20.9733 186.832 21.1053 187.03 21.208C187.236 21.3033 187.485 21.351 187.778 21.351C188.035 21.351 188.248 21.3143 188.416 21.241C188.585 21.1603 188.71 21.054 188.79 20.922C188.878 20.79 188.922 20.647 188.922 20.493C188.922 20.2657 188.867 20.0933 188.757 19.976C188.655 19.8587 188.501 19.767 188.295 19.701C188.09 19.6277 187.841 19.5653 187.547 19.514C187.305 19.47 187.067 19.4113 186.832 19.338C186.598 19.2647 186.389 19.1693 186.205 19.052C186.022 18.9273 185.875 18.777 185.765 18.601C185.663 18.425 185.611 18.2087 185.611 17.952C185.611 17.6367 185.692 17.358 185.853 17.116C186.015 16.8667 186.246 16.6723 186.546 16.533C186.854 16.3937 187.21 16.324 187.613 16.324C188.207 16.324 188.688 16.467 189.054 16.753C189.421 17.039 189.637 17.4533 189.703 17.996H188.79C188.754 17.7173 188.633 17.501 188.427 17.347C188.229 17.1857 187.954 17.105 187.602 17.105C187.258 17.105 186.994 17.1747 186.81 17.314C186.634 17.4533 186.546 17.6367 186.546 17.864C186.546 18.0107 186.594 18.1427 186.689 18.26C186.792 18.37 186.939 18.4653 187.129 18.546C187.327 18.6267 187.569 18.6927 187.855 18.744C188.222 18.81 188.556 18.898 188.856 19.008C189.157 19.118 189.399 19.283 189.582 19.503C189.773 19.7157 189.868 20.02 189.868 20.416C189.868 20.7607 189.78 21.0613 189.604 21.318C189.436 21.5747 189.194 21.7763 188.878 21.923C188.563 22.0623 188.193 22.132 187.767 22.132ZM193.003 22.132C192.555 22.132 192.181 22.055 191.881 21.901C191.58 21.7397 191.356 21.5307 191.21 21.274C191.063 21.01 190.99 20.724 190.99 20.416C190.99 20.042 191.085 19.7267 191.276 19.47C191.474 19.206 191.749 19.008 192.101 18.876C192.46 18.7367 192.882 18.667 193.366 18.667H194.829C194.829 18.3223 194.774 18.0363 194.664 17.809C194.561 17.5743 194.407 17.3983 194.202 17.281C194.004 17.1637 193.754 17.105 193.454 17.105C193.102 17.105 192.797 17.193 192.541 17.369C192.284 17.545 192.126 17.8053 192.068 18.15H191.122C191.166 17.754 191.298 17.424 191.518 17.16C191.745 16.8887 192.031 16.6833 192.376 16.544C192.72 16.3973 193.08 16.324 193.454 16.324C193.967 16.324 194.392 16.4193 194.73 16.61C195.074 16.7933 195.331 17.0537 195.5 17.391C195.668 17.721 195.753 18.1133 195.753 18.568V22H194.928L194.873 21.021C194.799 21.175 194.704 21.3217 194.587 21.461C194.477 21.593 194.345 21.7103 194.191 21.813C194.037 21.9083 193.861 21.9853 193.663 22.044C193.472 22.1027 193.252 22.132 193.003 22.132ZM193.146 21.351C193.402 21.351 193.633 21.2997 193.839 21.197C194.051 21.087 194.231 20.9403 194.378 20.757C194.524 20.5663 194.634 20.3573 194.708 20.13C194.788 19.9027 194.829 19.6643 194.829 19.415V19.382H193.443C193.083 19.382 192.794 19.426 192.574 19.514C192.354 19.5947 192.196 19.712 192.101 19.866C192.005 20.0127 191.958 20.1813 191.958 20.372C191.958 20.57 192.002 20.7423 192.09 20.889C192.185 21.0357 192.321 21.1493 192.497 21.23C192.68 21.3107 192.896 21.351 193.146 21.351ZM199.371 24.552C198.872 24.552 198.429 24.486 198.04 24.354C197.659 24.2293 197.362 24.035 197.149 23.771C196.936 23.507 196.83 23.1807 196.83 22.792C196.83 22.6233 196.863 22.4437 196.929 22.253C197.002 22.0623 197.123 21.8753 197.292 21.692C197.468 21.5087 197.714 21.3437 198.029 21.197L198.667 21.571C198.278 21.7323 198.025 21.9157 197.908 22.121C197.791 22.3337 197.732 22.528 197.732 22.704C197.732 22.946 197.802 23.1477 197.941 23.309C198.08 23.4703 198.275 23.5913 198.524 23.672C198.773 23.7527 199.056 23.793 199.371 23.793C199.686 23.793 199.958 23.749 200.185 23.661C200.412 23.573 200.588 23.4483 200.713 23.287C200.838 23.1257 200.9 22.935 200.9 22.715C200.9 22.4583 200.805 22.242 200.614 22.066C200.423 21.8973 200.06 21.7983 199.525 21.769C199.092 21.7397 198.729 21.6993 198.436 21.648C198.143 21.5967 197.901 21.538 197.71 21.472C197.519 21.3987 197.358 21.318 197.226 21.23C197.101 21.142 196.988 21.0503 196.885 20.955V20.702L197.952 19.646L198.755 19.932L197.655 20.922L197.798 20.537C197.879 20.5957 197.956 20.6507 198.029 20.702C198.102 20.7533 198.201 20.7973 198.326 20.834C198.451 20.8707 198.623 20.9037 198.843 20.933C199.07 20.9623 199.367 20.9917 199.734 21.021C200.24 21.0577 200.643 21.1457 200.944 21.285C201.252 21.4243 201.472 21.6113 201.604 21.846C201.743 22.0807 201.813 22.3593 201.813 22.682C201.813 22.9973 201.725 23.2943 201.549 23.573C201.38 23.859 201.116 24.0937 200.757 24.277C200.398 24.4603 199.936 24.552 199.371 24.552ZM199.36 20.262C198.898 20.262 198.502 20.174 198.172 19.998C197.849 19.822 197.604 19.5873 197.435 19.294C197.266 18.9933 197.182 18.6597 197.182 18.293C197.182 17.9263 197.266 17.5963 197.435 17.303C197.611 17.0097 197.86 16.775 198.183 16.599C198.506 16.4157 198.898 16.324 199.36 16.324C199.822 16.324 200.214 16.4157 200.537 16.599C200.86 16.775 201.105 17.0097 201.274 17.303C201.443 17.5963 201.527 17.9263 201.527 18.293C201.527 18.6597 201.443 18.9933 201.274 19.294C201.105 19.5873 200.86 19.822 200.537 19.998C200.214 20.174 199.822 20.262 199.36 20.262ZM199.36 19.503C199.756 19.503 200.068 19.4003 200.295 19.195C200.522 18.9897 200.636 18.689 200.636 18.293C200.636 17.9043 200.522 17.6073 200.295 17.402C200.068 17.1967 199.756 17.094 199.36 17.094C198.971 17.094 198.656 17.1967 198.414 17.402C198.179 17.6073 198.062 17.9043 198.062 18.293C198.062 18.689 198.179 18.9897 198.414 19.195C198.649 19.4003 198.964 19.503 199.36 19.503ZM200.262 17.237L199.987 16.456H202.253V17.149L200.262 17.237ZM205.532 22.132C205.011 22.132 204.549 22.011 204.146 21.769C203.75 21.527 203.438 21.1897 203.211 20.757C202.984 20.317 202.87 19.8073 202.87 19.228C202.87 18.6413 202.98 18.1317 203.2 17.699C203.427 17.2663 203.743 16.929 204.146 16.687C204.557 16.445 205.026 16.324 205.554 16.324C206.097 16.324 206.555 16.445 206.929 16.687C207.31 16.929 207.6 17.248 207.798 17.644C208.003 18.0327 208.106 18.4617 208.106 18.931C208.106 19.0043 208.106 19.0813 208.106 19.162C208.106 19.2427 208.102 19.3343 208.095 19.437H203.563V18.722H207.204C207.182 18.216 207.013 17.82 206.698 17.534C206.39 17.248 206.001 17.105 205.532 17.105C205.217 17.105 204.923 17.1783 204.652 17.325C204.388 17.4643 204.175 17.6733 204.014 17.952C203.853 18.2233 203.772 18.5643 203.772 18.975V19.283C203.772 19.7377 203.853 20.119 204.014 20.427C204.183 20.735 204.399 20.966 204.663 21.12C204.934 21.274 205.224 21.351 205.532 21.351C205.921 21.351 206.24 21.2667 206.489 21.098C206.746 20.922 206.929 20.6873 207.039 20.394H207.952C207.864 20.724 207.71 21.021 207.49 21.285C207.27 21.549 206.995 21.758 206.665 21.912C206.342 22.0587 205.965 22.132 205.532 22.132ZM211.443 22.132C210.981 22.132 210.578 22.055 210.233 21.901C209.896 21.747 209.624 21.5343 209.419 21.263C209.221 20.9843 209.1 20.658 209.056 20.284H210.002C210.039 20.4747 210.116 20.6507 210.233 20.812C210.35 20.9733 210.508 21.1053 210.706 21.208C210.911 21.3033 211.161 21.351 211.454 21.351C211.711 21.351 211.923 21.3143 212.092 21.241C212.261 21.1603 212.385 21.054 212.466 20.922C212.554 20.79 212.598 20.647 212.598 20.493C212.598 20.2657 212.543 20.0933 212.433 19.976C212.33 19.8587 212.176 19.767 211.971 19.701C211.766 19.6277 211.516 19.5653 211.223 19.514C210.981 19.47 210.743 19.4113 210.508 19.338C210.273 19.2647 210.064 19.1693 209.881 19.052C209.698 18.9273 209.551 18.777 209.441 18.601C209.338 18.425 209.287 18.2087 209.287 17.952C209.287 17.6367 209.368 17.358 209.529 17.116C209.69 16.8667 209.921 16.6723 210.222 16.533C210.53 16.3937 210.886 16.324 211.289 16.324C211.883 16.324 212.363 16.467 212.73 16.753C213.097 17.039 213.313 17.4533 213.379 17.996H212.466C212.429 17.7173 212.308 17.501 212.103 17.347C211.905 17.1857 211.63 17.105 211.278 17.105C210.933 17.105 210.669 17.1747 210.486 17.314C210.31 17.4533 210.222 17.6367 210.222 17.864C210.222 18.0107 210.27 18.1427 210.365 18.26C210.468 18.37 210.614 18.4653 210.805 18.546C211.003 18.6267 211.245 18.6927 211.531 18.744C211.898 18.81 212.231 18.898 212.532 19.008C212.833 19.118 213.075 19.283 213.258 19.503C213.449 19.7157 213.544 20.02 213.544 20.416C213.544 20.7607 213.456 21.0613 213.28 21.318C213.111 21.5747 212.869 21.7763 212.554 21.923C212.239 22.0623 211.868 22.132 211.443 22.132ZM217.884 22V16.456H218.808V22H217.884ZM218.346 15.279C218.163 15.279 218.009 15.2203 217.884 15.103C217.767 14.9783 217.708 14.8243 217.708 14.641C217.708 14.4577 217.767 14.311 217.884 14.201C218.009 14.0837 218.163 14.025 218.346 14.025C218.522 14.025 218.673 14.0837 218.797 14.201C218.922 14.311 218.984 14.4577 218.984 14.641C218.984 14.8243 218.922 14.9783 218.797 15.103C218.673 15.2203 218.522 15.279 218.346 15.279ZM220.439 22V16.456H221.275L221.319 17.424C221.495 17.0793 221.744 16.8117 222.067 16.621C222.397 16.423 222.771 16.324 223.189 16.324C223.622 16.324 223.996 16.412 224.311 16.588C224.626 16.7567 224.872 17.017 225.048 17.369C225.224 17.7137 225.312 18.1537 225.312 18.689V22H224.388V18.788C224.388 18.2307 224.263 17.8127 224.014 17.534C223.772 17.2553 223.427 17.116 222.98 17.116C222.672 17.116 222.397 17.193 222.155 17.347C221.913 17.4937 221.719 17.71 221.572 17.996C221.433 18.2747 221.363 18.623 221.363 19.041V22H220.439ZM231.855 22C231.525 22 231.239 21.9487 230.997 21.846C230.755 21.7433 230.568 21.571 230.436 21.329C230.312 21.0797 230.249 20.746 230.249 20.328V17.237H229.281V16.456H230.249L230.37 15.114H231.173V16.456H232.779V17.237H231.173V20.328C231.173 20.6727 231.243 20.9073 231.382 21.032C231.522 21.1493 231.767 21.208 232.119 21.208H232.713V22H231.855ZM233.985 22V14.08H234.909V17.391C235.092 17.061 235.349 16.8007 235.679 16.61C236.016 16.4193 236.383 16.324 236.779 16.324C237.204 16.324 237.575 16.412 237.89 16.588C238.205 16.7567 238.447 17.017 238.616 17.369C238.785 17.721 238.869 18.1647 238.869 18.7V22H237.956V18.799C237.956 18.2417 237.839 17.8237 237.604 17.545C237.369 17.259 237.028 17.116 236.581 17.116C236.266 17.116 235.98 17.193 235.723 17.347C235.474 17.501 235.276 17.721 235.129 18.007C234.982 18.293 234.909 18.645 234.909 19.063V22H233.985ZM242.743 22.132C242.222 22.132 241.76 22.011 241.357 21.769C240.961 21.527 240.649 21.1897 240.422 20.757C240.195 20.317 240.081 19.8073 240.081 19.228C240.081 18.6413 240.191 18.1317 240.411 17.699C240.638 17.2663 240.954 16.929 241.357 16.687C241.768 16.445 242.237 16.324 242.765 16.324C243.308 16.324 243.766 16.445 244.14 16.687C244.521 16.929 244.811 17.248 245.009 17.644C245.214 18.0327 245.317 18.4617 245.317 18.931C245.317 19.0043 245.317 19.0813 245.317 19.162C245.317 19.2427 245.313 19.3343 245.306 19.437H240.774V18.722H244.415C244.393 18.216 244.224 17.82 243.909 17.534C243.601 17.248 243.212 17.105 242.743 17.105C242.428 17.105 242.134 17.1783 241.863 17.325C241.599 17.4643 241.386 17.6733 241.225 17.952C241.064 18.2233 240.983 18.5643 240.983 18.975V19.283C240.983 19.7377 241.064 20.119 241.225 20.427C241.394 20.735 241.61 20.966 241.874 21.12C242.145 21.274 242.435 21.351 242.743 21.351C243.132 21.351 243.451 21.2667 243.7 21.098C243.957 20.922 244.14 20.6873 244.25 20.394H245.163C245.075 20.724 244.921 21.021 244.701 21.285C244.481 21.549 244.206 21.758 243.876 21.912C243.553 22.0587 243.176 22.132 242.743 22.132ZM251.983 22.132C251.462 22.132 250.993 22.011 250.575 21.769C250.164 21.527 249.841 21.1897 249.607 20.757C249.372 20.317 249.255 19.811 249.255 19.239C249.255 18.6523 249.372 18.1427 249.607 17.71C249.841 17.2773 250.164 16.94 250.575 16.698C250.993 16.4487 251.462 16.324 251.983 16.324C252.643 16.324 253.193 16.4963 253.633 16.841C254.073 17.1783 254.351 17.633 254.469 18.205H253.523C253.449 17.8603 253.27 17.5927 252.984 17.402C252.698 17.2113 252.36 17.116 251.972 17.116C251.656 17.116 251.363 17.1967 251.092 17.358C250.82 17.512 250.604 17.7467 250.443 18.062C250.281 18.3773 250.201 18.766 250.201 19.228C250.201 19.5727 250.248 19.8807 250.344 20.152C250.439 20.416 250.567 20.636 250.729 20.812C250.89 20.988 251.077 21.1237 251.29 21.219C251.51 21.307 251.737 21.351 251.972 21.351C252.236 21.351 252.474 21.3107 252.687 21.23C252.899 21.142 253.079 21.0137 253.226 20.845C253.372 20.6763 253.471 20.4783 253.523 20.251H254.469C254.351 20.8083 254.069 21.263 253.622 21.615C253.182 21.9597 252.635 22.132 251.983 22.132ZM258.256 22.132C257.742 22.132 257.28 22.0147 256.87 21.78C256.459 21.538 256.136 21.2007 255.902 20.768C255.667 20.328 255.55 19.8183 255.55 19.239C255.55 18.645 255.667 18.1317 255.902 17.699C256.144 17.259 256.47 16.9217 256.881 16.687C257.299 16.445 257.764 16.324 258.278 16.324C258.806 16.324 259.271 16.445 259.675 16.687C260.085 16.9217 260.408 17.259 260.643 17.699C260.885 18.1317 261.006 18.6413 261.006 19.228C261.006 19.8147 260.885 20.328 260.643 20.768C260.401 21.2007 260.074 21.538 259.664 21.78C259.253 22.0147 258.784 22.132 258.256 22.132ZM258.267 21.34C258.582 21.34 258.875 21.263 259.147 21.109C259.418 20.9477 259.638 20.7093 259.807 20.394C259.975 20.0787 260.06 19.69 260.06 19.228C260.06 18.7587 259.975 18.37 259.807 18.062C259.645 17.7467 259.429 17.512 259.158 17.358C258.894 17.1967 258.6 17.116 258.278 17.116C257.97 17.116 257.676 17.1967 257.398 17.358C257.126 17.512 256.906 17.7467 256.738 18.062C256.576 18.37 256.496 18.7587 256.496 19.228C256.496 19.69 256.576 20.0787 256.738 20.394C256.906 20.7093 257.123 20.9477 257.387 21.109C257.658 21.263 257.951 21.34 258.267 21.34ZM264.314 22.132C263.889 22.132 263.515 22.0477 263.192 21.879C262.877 21.7103 262.631 21.45 262.455 21.098C262.287 20.746 262.202 20.306 262.202 19.778V16.456H263.126V19.679C263.126 20.229 263.247 20.6433 263.489 20.922C263.731 21.2007 264.072 21.34 264.512 21.34C264.82 21.34 265.099 21.2667 265.348 21.12C265.598 20.966 265.792 20.7497 265.931 20.471C266.078 20.185 266.151 19.8367 266.151 19.426V16.456H267.075V22H266.239L266.184 21.032C266.016 21.3767 265.766 21.648 265.436 21.846C265.106 22.0367 264.732 22.132 264.314 22.132ZM268.607 22V16.456H269.443L269.487 17.424C269.663 17.0793 269.912 16.8117 270.235 16.621C270.565 16.423 270.939 16.324 271.357 16.324C271.79 16.324 272.164 16.412 272.479 16.588C272.794 16.7567 273.04 17.017 273.216 17.369C273.392 17.7137 273.48 18.1537 273.48 18.689V22H272.556V18.788C272.556 18.2307 272.431 17.8127 272.182 17.534C271.94 17.2553 271.595 17.116 271.148 17.116C270.84 17.116 270.565 17.193 270.323 17.347C270.081 17.4937 269.887 17.71 269.74 17.996C269.601 18.2747 269.531 18.623 269.531 19.041V22H268.607ZM277.101 22C276.771 22 276.485 21.9487 276.243 21.846C276.001 21.7433 275.814 21.571 275.682 21.329C275.558 21.0797 275.495 20.746 275.495 20.328V17.237H274.527V16.456H275.495L275.616 15.114H276.419V16.456H278.025V17.237H276.419V20.328C276.419 20.6727 276.489 20.9073 276.628 21.032C276.768 21.1493 277.013 21.208 277.365 21.208H277.959V22H277.101ZM279.836 24.42L281.189 21.384H280.87L278.692 16.456H279.693L281.497 20.691L283.389 16.456H284.346L280.804 24.42H279.836ZM290.74 22.132C290.227 22.132 289.765 22.0147 289.354 21.78C288.943 21.538 288.621 21.2007 288.386 20.768C288.151 20.328 288.034 19.8183 288.034 19.239C288.034 18.645 288.151 18.1317 288.386 17.699C288.628 17.259 288.954 16.9217 289.365 16.687C289.783 16.445 290.249 16.324 290.762 16.324C291.29 16.324 291.756 16.445 292.159 16.687C292.57 16.9217 292.892 17.259 293.127 17.699C293.369 18.1317 293.49 18.6413 293.49 19.228C293.49 19.8147 293.369 20.328 293.127 20.768C292.885 21.2007 292.559 21.538 292.148 21.78C291.737 22.0147 291.268 22.132 290.74 22.132ZM290.751 21.34C291.066 21.34 291.36 21.263 291.631 21.109C291.902 20.9477 292.122 20.7093 292.291 20.394C292.46 20.0787 292.544 19.69 292.544 19.228C292.544 18.7587 292.46 18.37 292.291 18.062C292.13 17.7467 291.913 17.512 291.642 17.358C291.378 17.1967 291.085 17.116 290.762 17.116C290.454 17.116 290.161 17.1967 289.882 17.358C289.611 17.512 289.391 17.7467 289.222 18.062C289.061 18.37 288.98 18.7587 288.98 19.228C288.98 19.69 289.061 20.0787 289.222 20.394C289.391 20.7093 289.607 20.9477 289.871 21.109C290.142 21.263 290.436 21.34 290.751 21.34ZM295.094 22V15.598C295.094 15.246 295.152 14.96 295.27 14.74C295.387 14.5127 295.559 14.3477 295.787 14.245C296.021 14.135 296.307 14.08 296.645 14.08H297.272V14.872H296.788C296.516 14.872 296.318 14.927 296.194 15.037C296.076 15.147 296.018 15.3413 296.018 15.62V22H295.094ZM294.247 17.237V16.456H297.415V17.237H294.247ZM301.501 22V14.3H306.264V15.059H302.425V17.743H305.934V18.491H302.425V21.241H306.264V22H301.501ZM307.666 22V16.456H308.502L308.546 17.424C308.722 17.0793 308.971 16.8117 309.294 16.621C309.624 16.423 309.998 16.324 310.416 16.324C310.848 16.324 311.222 16.412 311.538 16.588C311.853 16.7567 312.099 17.017 312.275 17.369C312.451 17.7137 312.539 18.1537 312.539 18.689V22H311.615V18.788C311.615 18.2307 311.49 17.8127 311.241 17.534C310.999 17.2553 310.654 17.116 310.207 17.116C309.899 17.116 309.624 17.193 309.382 17.347C309.14 17.4937 308.945 17.71 308.799 17.996C308.659 18.2747 308.59 18.623 308.59 19.041V22H307.666ZM316.479 22.132C315.958 22.132 315.489 22.011 315.071 21.769C314.66 21.527 314.338 21.1897 314.103 20.757C313.868 20.317 313.751 19.811 313.751 19.239C313.751 18.6523 313.868 18.1427 314.103 17.71C314.338 17.2773 314.66 16.94 315.071 16.698C315.489 16.4487 315.958 16.324 316.479 16.324C317.139 16.324 317.689 16.4963 318.129 16.841C318.569 17.1783 318.848 17.633 318.965 18.205H318.019C317.946 17.8603 317.766 17.5927 317.48 17.402C317.194 17.2113 316.857 17.116 316.468 17.116C316.153 17.116 315.859 17.1967 315.588 17.358C315.317 17.512 315.1 17.7467 314.939 18.062C314.778 18.3773 314.697 18.766 314.697 19.228C314.697 19.5727 314.745 19.8807 314.84 20.152C314.935 20.416 315.064 20.636 315.225 20.812C315.386 20.988 315.573 21.1237 315.786 21.219C316.006 21.307 316.233 21.351 316.468 21.351C316.732 21.351 316.97 21.3107 317.183 21.23C317.396 21.142 317.575 21.0137 317.722 20.845C317.869 20.6763 317.968 20.4783 318.019 20.251H318.965C318.848 20.8083 318.565 21.263 318.118 21.615C317.678 21.9597 317.132 22.132 316.479 22.132ZM320.365 22V16.456H321.289V22H320.365ZM320.827 15.279C320.644 15.279 320.49 15.2203 320.365 15.103C320.248 14.9783 320.189 14.8243 320.189 14.641C320.189 14.4577 320.248 14.311 320.365 14.201C320.49 14.0837 320.644 14.025 320.827 14.025C321.003 14.025 321.153 14.0837 321.278 14.201C321.403 14.311 321.465 14.4577 321.465 14.641C321.465 14.8243 321.403 14.9783 321.278 15.103C321.153 15.2203 321.003 15.279 320.827 15.279ZM322.919 22V16.456H323.755L323.799 17.424C323.975 17.0793 324.225 16.8117 324.547 16.621C324.877 16.423 325.251 16.324 325.669 16.324C326.102 16.324 326.476 16.412 326.791 16.588C327.107 16.7567 327.352 17.017 327.528 17.369C327.704 17.7137 327.792 18.1537 327.792 18.689V22H326.868V18.788C326.868 18.2307 326.744 17.8127 326.494 17.534C326.252 17.2553 325.908 17.116 325.46 17.116C325.152 17.116 324.877 17.193 324.635 17.347C324.393 17.4937 324.199 17.71 324.052 17.996C323.913 18.2747 323.843 18.623 323.843 19.041V22H322.919ZM329.324 22V16.456H330.248V22H329.324ZM329.786 15.279C329.602 15.279 329.448 15.2203 329.324 15.103C329.206 14.9783 329.148 14.8243 329.148 14.641C329.148 14.4577 329.206 14.311 329.324 14.201C329.448 14.0837 329.602 14.025 329.786 14.025C329.962 14.025 330.112 14.0837 330.237 14.201C330.361 14.311 330.424 14.4577 330.424 14.641C330.424 14.8243 330.361 14.9783 330.237 15.103C330.112 15.2203 329.962 15.279 329.786 15.279ZM334.056 22C333.726 22 333.44 21.9487 333.198 21.846C332.956 21.7433 332.769 21.571 332.637 21.329C332.513 21.0797 332.45 20.746 332.45 20.328V17.237H331.482V16.456H332.45L332.571 15.114H333.374V16.456H334.98V17.237H333.374V20.328C333.374 20.6727 333.444 20.9073 333.583 21.032C333.723 21.1493 333.968 21.208 334.32 21.208H334.914V22H334.056ZM337.99 22.132C337.543 22.132 337.169 22.055 336.868 21.901C336.567 21.7397 336.344 21.5307 336.197 21.274C336.05 21.01 335.977 20.724 335.977 20.416C335.977 20.042 336.072 19.7267 336.263 19.47C336.461 19.206 336.736 19.008 337.088 18.876C337.447 18.7367 337.869 18.667 338.353 18.667H339.816C339.816 18.3223 339.761 18.0363 339.651 17.809C339.548 17.5743 339.394 17.3983 339.189 17.281C338.991 17.1637 338.742 17.105 338.441 17.105C338.089 17.105 337.785 17.193 337.528 17.369C337.271 17.545 337.114 17.8053 337.055 18.15H336.109C336.153 17.754 336.285 17.424 336.505 17.16C336.732 16.8887 337.018 16.6833 337.363 16.544C337.708 16.3973 338.067 16.324 338.441 16.324C338.954 16.324 339.38 16.4193 339.717 16.61C340.062 16.7933 340.318 17.0537 340.487 17.391C340.656 17.721 340.74 18.1133 340.74 18.568V22H339.915L339.86 21.021C339.787 21.175 339.691 21.3217 339.574 21.461C339.464 21.593 339.332 21.7103 339.178 21.813C339.024 21.9083 338.848 21.9853 338.65 22.044C338.459 22.1027 338.239 22.132 337.99 22.132ZM338.133 21.351C338.39 21.351 338.621 21.2997 338.826 21.197C339.039 21.087 339.218 20.9403 339.365 20.757C339.512 20.5663 339.622 20.3573 339.695 20.13C339.776 19.9027 339.816 19.6643 339.816 19.415V19.382H338.43C338.071 19.382 337.781 19.426 337.561 19.514C337.341 19.5947 337.183 19.712 337.088 19.866C336.993 20.0127 336.945 20.1813 336.945 20.372C336.945 20.57 336.989 20.7423 337.077 20.889C337.172 21.0357 337.308 21.1493 337.484 21.23C337.667 21.3107 337.884 21.351 338.133 21.351ZM344.259 22.132C343.797 22.132 343.394 22.055 343.049 21.901C342.712 21.747 342.441 21.5343 342.235 21.263C342.037 20.9843 341.916 20.658 341.872 20.284H342.818C342.855 20.4747 342.932 20.6507 343.049 20.812C343.167 20.9733 343.324 21.1053 343.522 21.208C343.728 21.3033 343.977 21.351 344.27 21.351C344.527 21.351 344.74 21.3143 344.908 21.241C345.077 21.1603 345.202 21.054 345.282 20.922C345.37 20.79 345.414 20.647 345.414 20.493C345.414 20.2657 345.359 20.0933 345.249 19.976C345.147 19.8587 344.993 19.767 344.787 19.701C344.582 19.6277 344.333 19.5653 344.039 19.514C343.797 19.47 343.559 19.4113 343.324 19.338C343.09 19.2647 342.881 19.1693 342.697 19.052C342.514 18.9273 342.367 18.777 342.257 18.601C342.155 18.425 342.103 18.2087 342.103 17.952C342.103 17.6367 342.184 17.358 342.345 17.116C342.507 16.8667 342.738 16.6723 343.038 16.533C343.346 16.3937 343.702 16.324 344.105 16.324C344.699 16.324 345.18 16.467 345.546 16.753C345.913 17.039 346.129 17.4533 346.195 17.996H345.282C345.246 17.7173 345.125 17.501 344.919 17.347C344.721 17.1857 344.446 17.105 344.094 17.105C343.75 17.105 343.486 17.1747 343.302 17.314C343.126 17.4533 343.038 17.6367 343.038 17.864C343.038 18.0107 343.086 18.1427 343.181 18.26C343.284 18.37 343.431 18.4653 343.621 18.546C343.819 18.6267 344.061 18.6927 344.347 18.744C344.714 18.81 345.048 18.898 345.348 19.008C345.649 19.118 345.891 19.283 346.074 19.503C346.265 19.7157 346.36 20.02 346.36 20.416C346.36 20.7607 346.272 21.0613 346.096 21.318C345.928 21.5747 345.686 21.7763 345.37 21.923C345.055 22.0623 344.685 22.132 344.259 22.132ZM348.021 22.055C347.838 22.055 347.684 21.9963 347.559 21.879C347.442 21.7543 347.383 21.604 347.383 21.428C347.383 21.252 347.442 21.1053 347.559 20.988C347.684 20.8633 347.838 20.801 348.021 20.801C348.204 20.801 348.355 20.8633 348.472 20.988C348.589 21.1053 348.648 21.252 348.648 21.428C348.648 21.604 348.589 21.7543 348.472 21.879C348.355 21.9963 348.204 22.055 348.021 22.055Z" fill="black"/>
</svg>
