<svg width="428" height="414" viewBox="0 0 428 414" fill="none" xmlns="http://www.w3.org/2000/svg">
<path opacity="0.2" d="M202.244 414.001C273.702 414.001 331.629 402.122 331.629 387.468C331.629 372.813 273.702 360.934 202.244 360.934C130.787 360.934 72.8594 372.813 72.8594 387.468C72.8594 402.122 130.787 414.001 202.244 414.001Z" fill="#3D3D60"/>
<path d="M191.467 367.58V298.114C191.467 288.519 183.689 280.741 174.094 280.741H174.068C164.474 280.741 156.696 288.519 156.696 298.114V367.58C156.696 377.174 164.474 384.952 174.068 384.952H174.094C183.689 384.952 191.467 377.174 191.467 367.58Z" fill="#171759"/>
<path d="M148.741 384.953H174.069C183.663 384.953 191.441 377.175 191.441 367.58V367.555C191.441 357.96 183.663 350.182 174.069 350.182H148.741C139.146 350.182 131.368 357.96 131.368 367.555V367.58C131.368 377.175 139.146 384.953 148.741 384.953Z" fill="#171759"/>
<path d="M247.818 367.58V298.114C247.818 288.519 240.04 280.741 230.446 280.741H230.42C220.825 280.741 213.047 288.519 213.047 298.114V367.58C213.047 377.174 220.825 384.952 230.42 384.952H230.446C240.04 384.952 247.818 377.174 247.818 367.58Z" fill="#171759"/>
<path d="M255.748 350.207H230.42C220.825 350.207 213.047 357.985 213.047 367.58V367.605C213.047 377.2 220.825 384.978 230.42 384.978H255.748C265.342 384.978 273.12 377.2 273.12 367.605V367.58C273.12 357.985 265.342 350.207 255.748 350.207Z" fill="#171759"/>
<path d="M202.244 324.976C291.984 324.976 364.732 252.228 364.732 162.488C364.732 72.7484 291.984 0 202.244 0C112.504 0 39.7559 72.7484 39.7559 162.488C39.7559 252.228 112.504 324.976 202.244 324.976Z" fill="#62657A"/>
<path d="M202.244 250.788C251.012 250.788 290.545 211.254 290.545 162.487C290.545 113.719 251.012 74.1855 202.244 74.1855C153.477 74.1855 113.943 113.719 113.943 162.487C113.943 211.254 153.477 250.788 202.244 250.788Z" stroke="#D3D3DD" stroke-width="12.8307" stroke-miterlimit="10"/>
<path d="M202.245 229.898C239.476 229.898 269.657 199.717 269.657 162.486C269.657 125.255 239.476 95.0732 202.245 95.0732C165.014 95.0732 134.832 125.255 134.832 162.486C134.832 199.717 165.014 229.898 202.245 229.898Z" fill="#D3D3DD"/>
<path opacity="0.2" d="M364.732 162.488C364.732 252.226 291.982 324.976 202.244 324.976C156.387 324.976 114.995 305.986 85.459 275.424C110.556 291.282 140.272 300.469 172.143 300.469C261.881 300.469 334.606 227.719 334.606 137.981C334.606 94.0999 317.233 54.2733 288.928 25.0449C334.478 53.8114 364.732 104.621 364.732 162.488Z" fill="#3D3D60"/>
<path d="M349.285 167.338C346.822 241.217 289.879 301.291 217.334 308.655" stroke="#4E4E68" stroke-width="12.8307" stroke-miterlimit="10" stroke-linecap="round"/>
<path d="M326.986 176.99C321.059 227.928 284.645 269.551 236.479 283.152" stroke="#4E4E68" stroke-width="12.8307" stroke-miterlimit="10" stroke-linecap="round"/>
<path d="M55.2305 157.64C57.694 83.7605 114.637 23.6871 187.182 16.3223" stroke="#4E4E68" stroke-width="12.8307" stroke-miterlimit="10" stroke-linecap="round"/>
<path d="M77.5312 147.964C83.459 97.0261 119.873 55.4033 168.039 41.8027" stroke="#4E4E68" stroke-width="12.8307" stroke-miterlimit="10" stroke-linecap="round"/>
<path d="M171.271 168.313V161.744C171.271 155.409 166.136 150.273 159.801 150.273C153.466 150.273 148.33 155.409 148.33 161.744V168.313C148.33 174.648 153.466 179.784 159.801 179.784C166.136 179.784 171.271 174.648 171.271 168.313Z" fill="#171759"/>
<path d="M256.186 168.313V161.744C256.186 155.409 251.05 150.273 244.715 150.273C238.38 150.273 233.244 155.409 233.244 161.744V168.313C233.244 174.648 238.38 179.784 244.715 179.784C251.05 179.784 256.186 174.648 256.186 168.313Z" fill="#171759"/>
<path d="M222.21 179.784C222.21 190.793 213.28 199.749 202.271 199.749C191.262 199.749 182.332 190.793 182.332 179.784H222.236H222.21Z" fill="white" stroke="#171759" stroke-width="9.49473" stroke-linecap="round" stroke-linejoin="round"/>
<path d="M399.683 165.313C414.876 165.313 427.192 152.997 427.192 137.804C427.192 122.611 414.876 110.295 399.683 110.295C384.49 110.295 372.174 122.611 372.174 137.804C372.174 152.997 384.49 165.313 399.683 165.313Z" fill="#171759"/>
<path d="M18.6891 179.959L1.77344 188.359L57.2454 300.058L74.1611 291.657L18.6891 179.959Z" fill="#FFBC00"/>
<path d="M35.6188 171.568L18.7031 179.969L74.1751 291.667L91.0908 283.267L35.6188 171.568Z" fill="#FFD815"/>
<path d="M91.0701 283.298L57.2617 300.088L63.4481 312.545L97.2565 295.755L91.0701 283.298Z" fill="#DBD9E2"/>
<path d="M63.4336 312.534L97.242 295.744L102.527 306.385C105.061 311.488 102.978 317.679 97.8758 320.213L82.546 327.826C77.4437 330.36 71.2522 328.278 68.7183 323.175L63.4336 312.534Z" fill="#FF558A"/>
<path d="M35.5737 171.597L1.75194 188.405L0.828125 169.39L20.998 159.382L35.5737 171.597Z" fill="#FFE7C5"/>
<path d="M20.9976 159.383L0.853372 169.391L0.00654478 151.839C-0.198747 147.861 4.47164 145.552 7.52535 148.118L20.9976 159.383Z" fill="#171759"/>
<path d="M43.9134 310.659C59.1062 310.659 71.4224 298.342 71.4224 283.15C71.4224 267.957 59.1062 255.641 43.9134 255.641C28.7205 255.641 16.4043 267.957 16.4043 283.15C16.4043 298.342 28.7205 310.659 43.9134 310.659Z" fill="#171759"/>
<path d="M385.209 64.9506L397.886 67.953C404.147 69.4413 404.147 78.3459 397.886 79.8342L385.209 82.8366C383.618 83.2215 382.361 84.4533 382.002 86.0443L378.999 98.721C377.511 104.982 368.606 104.982 367.118 98.721L364.116 86.0443C363.731 84.4533 362.499 83.1959 360.908 82.8366L348.231 79.8342C341.97 78.3459 341.97 69.4413 348.231 67.953L360.908 64.9506C362.499 64.5657 363.756 63.3339 364.116 61.7429L367.118 49.0662C368.606 42.8048 377.511 42.8048 378.999 49.0662L382.002 61.7429C382.387 63.3339 383.618 64.5913 385.209 64.9506Z" fill="#FFCD40"/>
<path d="M327.37 37.2367L331.45 38.2119C335.812 39.2383 335.812 45.4484 331.45 46.4748L327.37 47.45C326.01 47.7836 324.932 48.8357 324.598 50.2214L323.623 54.3016C322.597 58.664 316.387 58.664 315.36 54.3016L314.385 50.2214C314.052 48.8613 312.999 47.7836 311.614 47.45L307.534 46.4748C303.171 45.4484 303.171 39.2383 307.534 38.2119L311.614 37.2367C312.974 36.9031 314.052 35.851 314.385 34.4653L315.36 30.3851C316.387 26.0227 322.597 26.0227 323.623 30.3851L324.598 34.4653C324.932 35.8253 325.984 36.9031 327.37 37.2367Z" fill="#FFCD40"/>
</svg>
