<svg width="180" height="30" viewBox="0 0 180 30" fill="none" xmlns="http://www.w3.org/2000/svg">
<path d="M41.2827 -0.00463867C33.8924 -0.00463867 31.824 4.68914 31.824 11.0763C31.824 18.4318 35.1396 23.6798 42.0427 23.6798C44.5982 23.6798 46.5316 23.3687 48.2231 22.7456V21.2611C47.3271 21.6069 46.0836 22.126 43.7724 22.126C36.2098 22.126 35.2409 15.2558 35.2409 10.8016C35.2409 7.24469 35.6924 1.33936 41.248 1.33936C45.5333 1.33954 46.9102 4.44674 47.3627 6.38123H48.2231L47.9147 0.959361C46.392 0.547095 44.0462 -0.00463867 41.2827 -0.00463867ZM62.0347 -0.00463867C57.6889 -0.00463867 54.2684 1.68647 54.2684 5.82869C54.2684 8.04114 54.9947 9.28025 56.512 10.4536C59.7227 12.906 65.456 14.0465 65.456 17.7727C65.456 20.1576 63.4871 22.1238 60.4489 22.1238C56.7538 22.1238 55.1316 19.9843 54.8569 18.1531H53.9911L54.2338 23.0234C55.0987 23.162 57.824 23.6794 60.1716 23.6794C64.8978 23.6794 68.6996 21.6065 68.6996 17.2225C68.6996 13.9416 66.8711 12.5283 64.144 10.9398C61.1404 9.17981 57.0293 8.17714 57.0293 5.10469C57.0293 2.82469 59.0667 1.34087 61.3813 1.34087C65.0738 1.34087 66.4569 3.48354 66.7689 5.31136H67.6311L67.392 0.580428C65.8356 0.271539 64.352 -0.00463867 62.0347 -0.00463867ZM10 0.340872V1.02834C11.9022 1.02834 13.0052 1.27056 13.0052 3.86167V15.3603C13.0052 20.2279 14.1125 23.6795 21.2573 23.6795C28.4396 23.6795 29.1302 20.0892 29.1302 15.3603V3.86167C29.1302 1.27065 30.2351 1.02843 32.1338 1.02843V0.340961H24.1596V1.02843C26.0227 1.02843 27.1596 1.27065 27.1596 3.86176V15.3604C27.1596 19.468 26.3693 22.3302 21.3924 22.3302C16.9079 22.3302 16.0781 18.8813 16.0781 15.3604V3.86176C16.0781 1.27074 17.2183 1.02852 19.0813 1.02852V0.34105L10 0.340872ZM102.542 0.340872V1.03003C104.409 1.03003 105.547 1.27056 105.547 3.86167V19.811C105.547 22.3995 104.409 22.6412 102.542 22.6412V23.3355H110.622C116.044 23.3355 122.436 22.1257 122.436 11.8723C122.436 1.58345 116.356 0.340784 110.622 0.340784L102.542 0.340872ZM110.622 1.68629C117.182 1.68629 119.013 5.51767 119.013 11.8721C119.013 18.8107 116.56 21.9867 110.622 21.9867C108.898 21.9867 108.622 21.6072 108.622 19.0872V4.58763C108.622 1.89385 108.898 1.68629 110.622 1.68629ZM127.129 2.57172C126.151 2.57172 125.378 3.33838 125.378 4.32176C125.378 5.30505 126.151 6.07172 127.129 6.07172C128.116 6.07172 128.88 5.30505 128.88 4.32176C128.88 3.33838 128.116 2.57172 127.129 2.57172ZM156.151 6.37901C154.276 6.37901 153.547 8.5007 153.058 9.66514C152.071 9.14425 151.298 8.89981 149.884 8.89981C146.969 8.89981 144.089 9.75847 144.089 13.7194C144.089 16.33 145.156 17.2518 145.867 17.834C145.529 18.2047 144.542 19.3709 144.542 20.5078C144.542 21.7994 145.342 22.3816 145.867 22.6865C144.88 23.1798 143.476 24.0074 143.476 25.9123C143.476 28.6749 146.604 29.8127 149.609 29.8127C153.698 29.8127 157.138 27.8491 157.138 24.3478C157.138 20.9398 153.724 20.8776 152.258 20.8776H148.631C147.644 20.8776 146.116 20.8776 146.116 19.6465C146.116 18.9718 146.48 18.5105 146.667 18.266C147.333 18.5718 148.231 18.7283 149.458 18.7283C153.147 18.7283 155.076 16.9754 155.076 13.874C155.076 11.7229 154.062 10.5851 153.698 10.186C153.849 9.69625 154.124 8.8047 154.8 8.8047C155.2 8.8047 155.387 9.23669 156.187 9.23669C157.102 9.23669 157.627 8.68381 157.627 7.85127C157.627 6.93127 157.013 6.37901 156.151 6.37901ZM75.6889 8.89981C73.568 8.89981 70.592 9.91225 70.592 11.9087C70.592 12.7371 71.2338 13.2918 72.064 13.2918C72.5884 13.2918 73.5084 12.9523 73.5084 11.6936C73.5084 10.7096 73.7547 9.91225 75.6596 9.91225C78.2373 9.91225 78.2702 12.1825 78.2702 14.3336V15.4989C75.9369 15.7167 70.1609 15.7158 70.1609 20.1691C70.1609 22.1647 71.7253 23.6394 73.8436 23.6394C75.936 23.6394 77.2578 22.7825 78.2045 21.4003H78.2702C78.2702 22.7211 78.7929 23.6394 80.576 23.6394C81.6782 23.6394 82.4462 23.4554 82.8142 23.3638V22.7211C82.5396 22.7825 82.2604 22.8429 81.9858 22.8429C81.0302 22.8429 80.6649 22.474 80.6649 21.4003V13.7798C80.6649 10.9247 79.8969 8.89981 75.6889 8.89981ZM88.2205 8.89981L83.4907 9.63581V10.1585C84.3787 10.2198 85.824 10.3114 85.824 12.1549V20.5407C85.824 22.5371 84.7778 22.8109 83.4907 22.8109V23.3354H90.5538V22.8109C89.2605 22.8109 88.2205 22.5371 88.2205 20.5407V16.7594C88.2205 13.8403 90.432 10.3718 92.2409 10.3718C94.272 10.3718 94.3004 11.57 94.3004 14.2127V20.5407C94.3004 22.5371 93.2542 22.8109 91.9662 22.8109V23.3354H99.0311V22.8109C97.7413 22.8109 96.6978 22.5371 96.6978 20.5407V13.5371C96.6978 10.6794 96.3911 8.89981 93.1333 8.89981C90.0907 8.89981 88.7111 11.8154 88.2827 12.9523H88.2205V8.89981ZM128.418 8.89981L123.689 9.63581V10.1585C124.613 10.2198 126.027 10.3114 126.027 12.1549V20.5407C126.027 22.5371 124.978 22.8109 123.689 22.8109V23.3354H130.756V22.8109C129.467 22.8109 128.418 22.5371 128.418 20.5407V8.89981ZM137.022 8.89981C132.596 8.89981 130.782 11.3834 130.782 15.8687C130.782 21.0278 133.458 23.6394 138.213 23.6394C140.089 23.6394 141.138 23.3638 141.876 23.0856V22.1051C141.253 22.4118 140.427 22.5043 139.724 22.5043C134.587 22.5043 133.333 17.2527 133.333 14.6723H142.276V13.9949C142.276 10.4331 139.778 8.89981 137.022 8.89981ZM163.582 8.89981C159.653 8.89981 157.164 11.6607 157.164 16.2696C157.164 20.8767 159.653 23.6394 163.582 23.6394C167.52 23.6394 170 20.8767 170 16.2696C170 11.6607 167.52 8.89981 163.582 8.89981ZM136.622 9.91225C138.987 9.91225 139.538 12.0305 139.538 13.6589H133.333C133.333 12.522 134.284 9.91225 136.622 9.91225ZM149.52 9.91225C151.733 9.91225 152.533 11.7549 152.533 14.0563C152.533 15.6874 152.196 17.7122 149.609 17.7122C147.396 17.7122 146.631 15.81 146.631 13.4758C146.631 11.6945 147.093 9.91225 149.52 9.91225ZM163.582 9.91225C166.658 9.91225 167.271 13.7194 167.271 16.2696C167.271 18.8198 166.658 22.6251 163.582 22.6251C160.516 22.6251 159.902 18.8198 159.902 16.2696C159.902 13.7194 160.516 9.91225 163.582 9.91225ZM78.2702 16.514V18.3274C78.2702 20.4145 76.9804 22.3514 74.984 22.3514C73.9396 22.3514 72.8933 21.2767 72.8933 19.6811C72.8933 16.8234 76.8258 16.5469 78.2702 16.514ZM146.942 23.058H152.311C153.858 23.058 155.138 23.5798 155.138 25.146C155.138 27.3576 152.56 28.8011 149.769 28.8011C147.093 28.8011 145.467 27.2349 145.467 25.4225C145.467 24.0402 146.329 23.5176 146.942 23.058Z" fill="#10284A"/>
<path d="M10 28.6287V29.4082H142.64C142.356 29.17 142.107 28.9078 141.893 28.6287H10ZM157.618 28.6287C157.342 28.9104 157.04 29.1682 156.702 29.4082H169.751V28.6287H157.618Z" fill="#10284A"/>
</svg>
