<svg width="337" height="257" viewBox="0 0 337 257" fill="none" xmlns="http://www.w3.org/2000/svg">
<path d="M336.467 84.2505L288 98.1662" stroke="black" stroke-width="0.974684"/>
<path d="M179.124 54.671C171.254 54.7 163.432 55.4754 155.928 56.7526C117.889 63.2265 96.4476 80.2037 84.878 104.045C98.5691 102.977 112.073 101.841 125.215 101.923C135.792 101.989 146.135 102.843 156.154 105.156C162.799 106.691 166.967 112.457 168.263 119.075C169.559 125.693 168.639 133.514 166.046 141.686L165.92 142.083L165.715 142.445C162.31 148.428 155.073 153.19 145.848 158.232C136.623 163.275 125.367 168.186 114.15 172.456C102.932 176.725 91.7756 180.342 82.7565 182.735C79.5748 183.58 76.6818 184.262 74.1005 184.778C75.0984 198.432 76.9787 212.577 79.3673 226.875C140.824 210.099 199.327 191.836 256.35 172.815C267.725 153.316 269.476 134.898 263.792 117.229C253.97 86.6994 237.081 70.2767 217.644 61.8905C205.496 56.6491 192.243 54.6228 179.125 54.671H179.124ZM107.1 110.408C103.126 110.632 99.0885 110.915 95.0239 111.214L76.0138 176.279C77.498 175.932 79.0559 175.549 80.7305 175.105C82.5878 174.609 84.4389 174.089 86.2833 173.546C90.679 159.919 105.275 115.906 107.1 110.408ZM86.6167 111.839C81.8499 112.201 77.0445 112.565 72.183 112.879C72.0426 113.074 71.8698 113.294 71.6049 113.873C70.9119 115.386 70.1246 118.004 69.4504 121.208C68.1017 127.617 67.0951 136.44 66.5096 145.278C65.9249 154.116 65.7508 163.014 65.9863 169.656C66.1039 172.977 66.3328 175.755 66.6188 177.534C66.6398 177.668 66.653 177.671 66.6758 177.793C66.8776 177.788 67.1289 177.773 67.3539 177.764L86.6167 111.839ZM148.248 112.073C141.408 112.073 135.678 117.591 135.678 124.421C135.678 131.25 141.408 136.77 148.248 136.77C155.089 136.77 160.819 131.25 160.819 124.421C160.819 117.591 155.089 112.073 148.248 112.073ZM148.248 119.968C150.932 119.968 152.924 121.971 152.924 124.421C152.924 126.871 150.932 128.875 148.248 128.875C145.564 128.875 143.572 126.87 143.572 124.421C143.572 121.971 145.564 119.968 148.248 119.968ZM249.211 183.507C194.908 201.484 139.162 218.755 80.7262 234.69C80.9073 235.706 81.0814 236.721 81.2665 237.737C146.008 226.049 193.539 207.489 244.148 189.857C245.899 187.791 247.588 185.673 249.212 183.506L249.211 183.507Z" fill="#1C3A29"/>
<path d="M302.004 249.269L268.891 211.24" stroke="black" stroke-width="0.974684"/>
<path d="M13.5405 252.051L49.1061 216.305" stroke="black" stroke-width="0.974684"/>
<path d="M11.333 72.2549L56.667 94.7455" stroke="black" stroke-width="0.974684"/>
<line x1="173.5" x2="173.5" y2="40" stroke="black"/>
</svg>
