<svg width="311" height="246" viewBox="0 0 311 246" fill="none" xmlns="http://www.w3.org/2000/svg">
<g filter="url(#filter0_d_12_243)">
<rect x="55" y="27" width="246" height="204" rx="8" fill="#FAFFEA"/>
<path d="M91.0627 75L87.6067 62.4H89.2267L91.9447 73.2L95.0407 62.4H96.7147L99.7207 73.236L102.475 62.4H104.095L100.567 75H98.8387L95.8327 64.578L92.7547 75H91.0627ZM108.883 75.216C108.031 75.216 107.275 75.024 106.615 74.64C105.955 74.244 105.433 73.692 105.049 72.984C104.677 72.264 104.491 71.436 104.491 70.5C104.491 69.54 104.677 68.712 105.049 68.016C105.421 67.308 105.937 66.756 106.597 66.36C107.269 65.964 108.043 65.766 108.919 65.766C109.795 65.766 110.545 65.964 111.169 66.36C111.793 66.756 112.267 67.272 112.591 67.908C112.927 68.544 113.095 69.24 113.095 69.996C113.095 70.116 113.095 70.248 113.095 70.392C113.095 70.524 113.089 70.674 113.077 70.842H105.625V69.672H111.601C111.565 68.844 111.289 68.202 110.773 67.746C110.269 67.278 109.639 67.044 108.883 67.044C108.367 67.044 107.887 67.164 107.443 67.404C106.999 67.632 106.639 67.968 106.363 68.412C106.099 68.856 105.967 69.414 105.967 70.086V70.59C105.967 71.322 106.105 71.94 106.381 72.444C106.657 72.948 107.017 73.326 107.461 73.578C107.905 73.818 108.379 73.938 108.883 73.938C109.507 73.938 110.023 73.8 110.431 73.524C110.851 73.236 111.157 72.846 111.349 72.354H112.843C112.687 72.906 112.429 73.398 112.069 73.83C111.709 74.25 111.259 74.586 110.719 74.838C110.191 75.09 109.579 75.216 108.883 75.216ZM119.898 75V65.982H121.266L121.392 67.71C121.584 67.302 121.836 66.954 122.148 66.666C122.472 66.378 122.856 66.156 123.3 66C123.744 65.844 124.248 65.766 124.812 65.766V67.35H124.326C123.93 67.35 123.552 67.404 123.192 67.512C122.844 67.608 122.532 67.77 122.256 67.998C121.992 68.226 121.782 68.538 121.626 68.934C121.482 69.318 121.41 69.804 121.41 70.392V75H119.898ZM130.188 75.216C129.336 75.216 128.58 75.024 127.92 74.64C127.26 74.244 126.738 73.692 126.354 72.984C125.982 72.264 125.796 71.436 125.796 70.5C125.796 69.54 125.982 68.712 126.354 68.016C126.726 67.308 127.242 66.756 127.902 66.36C128.574 65.964 129.348 65.766 130.224 65.766C131.1 65.766 131.85 65.964 132.474 66.36C133.098 66.756 133.572 67.272 133.896 67.908C134.232 68.544 134.4 69.24 134.4 69.996C134.4 70.116 134.4 70.248 134.4 70.392C134.4 70.524 134.394 70.674 134.382 70.842H126.93V69.672H132.906C132.87 68.844 132.594 68.202 132.078 67.746C131.574 67.278 130.944 67.044 130.188 67.044C129.672 67.044 129.192 67.164 128.748 67.404C128.304 67.632 127.944 67.968 127.668 68.412C127.404 68.856 127.272 69.414 127.272 70.086V70.59C127.272 71.322 127.41 71.94 127.686 72.444C127.962 72.948 128.322 73.326 128.766 73.578C129.21 73.818 129.684 73.938 130.188 73.938C130.812 73.938 131.328 73.8 131.736 73.524C132.156 73.236 132.462 72.846 132.654 72.354H134.148C133.992 72.906 133.734 73.398 133.374 73.83C133.014 74.25 132.564 74.586 132.024 74.838C131.496 75.09 130.884 75.216 130.188 75.216ZM140.526 75.216C139.674 75.216 138.906 75.018 138.222 74.622C137.55 74.226 137.016 73.674 136.62 72.966C136.236 72.258 136.044 71.436 136.044 70.5C136.044 69.552 136.236 68.724 136.62 68.016C137.016 67.308 137.55 66.756 138.222 66.36C138.906 65.964 139.674 65.766 140.526 65.766C141.606 65.766 142.5 66.048 143.208 66.612C143.928 67.164 144.39 67.908 144.594 68.844H143.046C142.914 68.28 142.614 67.842 142.146 67.53C141.678 67.218 141.132 67.062 140.508 67.062C140.004 67.062 139.53 67.194 139.086 67.458C138.642 67.71 138.282 68.094 138.006 68.61C137.73 69.114 137.592 69.744 137.592 70.5C137.592 71.052 137.67 71.544 137.826 71.976C137.994 72.408 138.21 72.774 138.474 73.074C138.75 73.362 139.062 73.578 139.41 73.722C139.77 73.866 140.136 73.938 140.508 73.938C140.928 73.938 141.312 73.872 141.66 73.74C142.008 73.596 142.302 73.392 142.542 73.128C142.794 72.852 142.962 72.528 143.046 72.156H144.594C144.402 73.068 143.94 73.806 143.208 74.37C142.488 74.934 141.594 75.216 140.526 75.216ZM150.773 75.216C149.933 75.216 149.177 75.024 148.505 74.64C147.833 74.244 147.299 73.692 146.903 72.984C146.519 72.276 146.327 71.448 146.327 70.5C146.327 69.54 146.525 68.706 146.921 67.998C147.317 67.29 147.851 66.744 148.523 66.36C149.207 65.964 149.969 65.766 150.809 65.766C151.661 65.766 152.423 65.964 153.095 66.36C153.767 66.744 154.295 67.29 154.679 67.998C155.063 68.706 155.255 69.54 155.255 70.5C155.255 71.448 155.057 72.276 154.661 72.984C154.277 73.692 153.743 74.244 153.059 74.64C152.387 75.024 151.625 75.216 150.773 75.216ZM150.773 73.92C151.301 73.92 151.787 73.794 152.231 73.542C152.675 73.29 153.029 72.906 153.293 72.39C153.569 71.874 153.707 71.244 153.707 70.5C153.707 69.732 153.575 69.096 153.311 68.592C153.047 68.088 152.693 67.71 152.249 67.458C151.805 67.194 151.325 67.062 150.809 67.062C150.305 67.062 149.825 67.194 149.369 67.458C148.925 67.71 148.565 68.088 148.289 68.592C148.013 69.096 147.875 69.732 147.875 70.5C147.875 71.244 148.013 71.874 148.289 72.39C148.565 72.906 148.919 73.29 149.351 73.542C149.795 73.794 150.269 73.92 150.773 73.92ZM157.375 75V65.982H158.743L158.851 67.278C159.139 66.81 159.523 66.444 160.003 66.18C160.483 65.904 161.023 65.766 161.623 65.766C162.079 65.766 162.499 65.832 162.883 65.964C163.267 66.084 163.603 66.276 163.891 66.54C164.179 66.792 164.413 67.116 164.593 67.512C164.905 66.96 165.337 66.534 165.889 66.234C166.441 65.922 167.023 65.766 167.635 65.766C168.343 65.766 168.961 65.91 169.489 66.198C170.017 66.474 170.419 66.9 170.695 67.476C170.983 68.052 171.127 68.778 171.127 69.654V75H169.633V69.816C169.633 68.904 169.447 68.22 169.075 67.764C168.703 67.296 168.175 67.062 167.491 67.062C167.011 67.062 166.585 67.188 166.213 67.44C165.841 67.692 165.547 68.052 165.331 68.52C165.115 68.988 165.007 69.564 165.007 70.248V75H163.495V69.816C163.495 68.904 163.309 68.22 162.937 67.764C162.565 67.296 162.037 67.062 161.353 67.062C160.897 67.062 160.477 67.188 160.093 67.44C159.721 67.692 159.427 68.052 159.211 68.52C158.995 68.988 158.887 69.564 158.887 70.248V75H157.375ZM173.441 75V65.982H174.809L174.917 67.278C175.205 66.81 175.589 66.444 176.069 66.18C176.549 65.904 177.089 65.766 177.689 65.766C178.145 65.766 178.565 65.832 178.949 65.964C179.333 66.084 179.669 66.276 179.957 66.54C180.245 66.792 180.479 67.116 180.659 67.512C180.971 66.96 181.403 66.534 181.955 66.234C182.507 65.922 183.089 65.766 183.701 65.766C184.409 65.766 185.027 65.91 185.555 66.198C186.083 66.474 186.485 66.9 186.761 67.476C187.049 68.052 187.193 68.778 187.193 69.654V75H185.699V69.816C185.699 68.904 185.513 68.22 185.141 67.764C184.769 67.296 184.241 67.062 183.557 67.062C183.077 67.062 182.651 67.188 182.279 67.44C181.907 67.692 181.613 68.052 181.397 68.52C181.181 68.988 181.073 69.564 181.073 70.248V75H179.561V69.816C179.561 68.904 179.375 68.22 179.003 67.764C178.631 67.296 178.103 67.062 177.419 67.062C176.963 67.062 176.543 67.188 176.159 67.44C175.787 67.692 175.493 68.052 175.277 68.52C175.061 68.988 174.953 69.564 174.953 70.248V75H173.441ZM193.522 75.216C192.67 75.216 191.914 75.024 191.254 74.64C190.594 74.244 190.072 73.692 189.688 72.984C189.316 72.264 189.13 71.436 189.13 70.5C189.13 69.54 189.316 68.712 189.688 68.016C190.06 67.308 190.576 66.756 191.236 66.36C191.908 65.964 192.682 65.766 193.558 65.766C194.434 65.766 195.184 65.964 195.808 66.36C196.432 66.756 196.906 67.272 197.23 67.908C197.566 68.544 197.734 69.24 197.734 69.996C197.734 70.116 197.734 70.248 197.734 70.392C197.734 70.524 197.728 70.674 197.716 70.842H190.264V69.672H196.24C196.204 68.844 195.928 68.202 195.412 67.746C194.908 67.278 194.278 67.044 193.522 67.044C193.006 67.044 192.526 67.164 192.082 67.404C191.638 67.632 191.278 67.968 191.002 68.412C190.738 68.856 190.606 69.414 190.606 70.086V70.59C190.606 71.322 190.744 71.94 191.02 72.444C191.296 72.948 191.656 73.326 192.1 73.578C192.544 73.818 193.018 73.938 193.522 73.938C194.146 73.938 194.662 73.8 195.07 73.524C195.49 73.236 195.796 72.846 195.988 72.354H197.482C197.326 72.906 197.068 73.398 196.708 73.83C196.348 74.25 195.898 74.586 195.358 74.838C194.83 75.09 194.218 75.216 193.522 75.216ZM199.756 75V65.982H201.124L201.214 67.584C201.502 67.02 201.916 66.576 202.456 66.252C202.996 65.928 203.608 65.766 204.292 65.766C204.988 65.766 205.594 65.91 206.11 66.198C206.626 66.474 207.028 66.9 207.316 67.476C207.604 68.052 207.748 68.778 207.748 69.654V75H206.236V69.816C206.236 68.904 206.038 68.22 205.642 67.764C205.246 67.296 204.682 67.062 203.95 67.062C203.434 67.062 202.972 67.188 202.564 67.44C202.168 67.692 201.85 68.052 201.61 68.52C201.382 68.988 201.268 69.564 201.268 70.248V75H199.756ZM214.106 75.216C213.23 75.216 212.456 75.012 211.784 74.604C211.124 74.184 210.608 73.62 210.236 72.912C209.876 72.192 209.696 71.382 209.696 70.482C209.696 69.57 209.876 68.76 210.236 68.052C210.608 67.344 211.13 66.786 211.802 66.378C212.474 65.97 213.248 65.766 214.124 65.766C214.856 65.766 215.504 65.916 216.068 66.216C216.632 66.516 217.064 66.936 217.364 67.476V62.04H218.876V75H217.508L217.382 73.524C217.19 73.812 216.944 74.088 216.644 74.352C216.344 74.604 215.984 74.814 215.564 74.982C215.144 75.138 214.658 75.216 214.106 75.216ZM214.268 73.902C214.868 73.902 215.396 73.764 215.852 73.488C216.32 73.2 216.68 72.804 216.932 72.3C217.184 71.784 217.31 71.184 217.31 70.5C217.31 69.816 217.184 69.222 216.932 68.718C216.68 68.202 216.32 67.8 215.852 67.512C215.396 67.224 214.868 67.08 214.268 67.08C213.692 67.08 213.17 67.224 212.702 67.512C212.246 67.8 211.886 68.202 211.622 68.718C211.37 69.222 211.244 69.816 211.244 70.5C211.244 71.184 211.37 71.784 211.622 72.3C211.886 72.804 212.246 73.2 212.702 73.488C213.17 73.764 213.692 73.902 214.268 73.902ZM229.452 75.216C228.756 75.216 228.144 75.078 227.616 74.802C227.1 74.514 226.698 74.082 226.41 73.506C226.134 72.93 225.996 72.204 225.996 71.328V65.982H227.508V71.166C227.508 72.09 227.7 72.78 228.084 73.236C228.48 73.692 229.044 73.92 229.776 73.92C230.292 73.92 230.748 73.8 231.144 73.56C231.552 73.308 231.87 72.948 232.098 72.48C232.338 72 232.458 71.424 232.458 70.752V65.982H233.97V75H232.602L232.512 73.416C232.236 73.98 231.828 74.424 231.288 74.748C230.748 75.06 230.136 75.216 229.452 75.216ZM239.896 75.216C239.164 75.216 238.516 75.096 237.952 74.856C237.4 74.604 236.956 74.25 236.62 73.794C236.284 73.338 236.074 72.804 235.99 72.192H237.538C237.61 72.516 237.742 72.81 237.934 73.074C238.126 73.338 238.39 73.548 238.726 73.704C239.062 73.86 239.458 73.938 239.914 73.938C240.346 73.938 240.694 73.878 240.958 73.758C241.234 73.626 241.438 73.458 241.57 73.254C241.714 73.038 241.786 72.804 241.786 72.552C241.786 72.18 241.696 71.898 241.516 71.706C241.348 71.514 241.096 71.364 240.76 71.256C240.424 71.148 240.022 71.052 239.554 70.968C239.17 70.896 238.786 70.8 238.402 70.68C238.03 70.548 237.688 70.392 237.376 70.212C237.076 70.02 236.836 69.78 236.656 69.492C236.476 69.204 236.386 68.85 236.386 68.43C236.386 67.914 236.518 67.458 236.782 67.062C237.058 66.654 237.436 66.336 237.916 66.108C238.408 65.88 238.99 65.766 239.662 65.766C240.622 65.766 241.402 66 242.002 66.468C242.602 66.936 242.956 67.614 243.064 68.502H241.57C241.51 68.046 241.312 67.692 240.976 67.44C240.652 67.176 240.208 67.044 239.644 67.044C239.08 67.044 238.648 67.158 238.348 67.386C238.06 67.614 237.916 67.914 237.916 68.286C237.916 68.526 238 68.736 238.168 68.916C238.336 69.096 238.576 69.252 238.888 69.384C239.212 69.504 239.602 69.612 240.058 69.708C240.646 69.816 241.186 69.96 241.678 70.14C242.17 70.32 242.566 70.584 242.866 70.932C243.178 71.28 243.334 71.778 243.334 72.426C243.346 72.978 243.208 73.464 242.92 73.884C242.632 74.304 242.23 74.634 241.714 74.874C241.21 75.102 240.604 75.216 239.896 75.216ZM245.656 75V65.982H247.168V75H245.656ZM246.412 64.038C246.112 64.038 245.86 63.942 245.656 63.75C245.464 63.546 245.368 63.294 245.368 62.994C245.368 62.694 245.464 62.454 245.656 62.274C245.86 62.082 246.112 61.986 246.412 61.986C246.7 61.986 246.946 62.082 247.15 62.274C247.354 62.454 247.456 62.694 247.456 62.994C247.456 63.294 247.354 63.546 247.15 63.75C246.946 63.942 246.7 64.038 246.412 64.038ZM249.801 75V65.982H251.169L251.259 67.584C251.547 67.02 251.961 66.576 252.501 66.252C253.041 65.928 253.653 65.766 254.337 65.766C255.033 65.766 255.639 65.91 256.155 66.198C256.671 66.474 257.073 66.9 257.361 67.476C257.649 68.052 257.793 68.778 257.793 69.654V75H256.281V69.816C256.281 68.904 256.083 68.22 255.687 67.764C255.291 67.296 254.727 67.062 253.995 67.062C253.479 67.062 253.017 67.188 252.609 67.44C252.213 67.692 251.895 68.052 251.655 68.52C251.427 68.988 251.313 69.564 251.313 70.248V75H249.801ZM263.701 79.176C262.885 79.176 262.165 79.068 261.541 78.852C260.917 78.648 260.425 78.33 260.065 77.898C259.717 77.466 259.543 76.932 259.543 76.296C259.543 76.032 259.597 75.744 259.705 75.432C259.825 75.12 260.023 74.814 260.299 74.514C260.587 74.214 260.989 73.944 261.505 73.704L262.549 74.316C261.925 74.58 261.511 74.88 261.307 75.216C261.115 75.552 261.019 75.864 261.019 76.152C261.019 76.548 261.133 76.878 261.361 77.142C261.601 77.406 261.919 77.604 262.315 77.736C262.723 77.868 263.185 77.934 263.701 77.934C264.205 77.934 264.643 77.856 265.015 77.7C265.387 77.556 265.675 77.352 265.879 77.088C266.083 76.824 266.185 76.518 266.185 76.17C266.185 75.762 266.029 75.414 265.717 75.126C265.405 74.85 264.817 74.688 263.953 74.64C263.245 74.592 262.651 74.526 262.171 74.442C261.703 74.358 261.307 74.262 260.983 74.154C260.671 74.034 260.407 73.902 260.191 73.758C259.987 73.614 259.801 73.464 259.633 73.308V72.894L261.397 71.148L262.693 71.616L260.893 73.254L261.127 72.624C261.259 72.72 261.385 72.81 261.505 72.894C261.625 72.978 261.787 73.05 261.991 73.11C262.207 73.17 262.495 73.224 262.855 73.272C263.215 73.32 263.695 73.368 264.295 73.416C265.111 73.476 265.765 73.62 266.257 73.848C266.761 74.076 267.121 74.382 267.337 74.766C267.565 75.15 267.679 75.6 267.679 76.116C267.679 76.62 267.535 77.106 267.247 77.574C266.971 78.042 266.539 78.426 265.951 78.726C265.363 79.026 264.613 79.176 263.701 79.176ZM263.683 72.174C262.927 72.174 262.279 72.03 261.739 71.742C261.211 71.454 260.809 71.07 260.533 70.59C260.257 70.11 260.119 69.57 260.119 68.97C260.119 68.382 260.257 67.848 260.533 67.368C260.821 66.888 261.229 66.504 261.757 66.216C262.285 65.916 262.927 65.766 263.683 65.766C264.439 65.766 265.081 65.916 265.609 66.216C266.137 66.504 266.539 66.888 266.815 67.368C267.091 67.848 267.229 68.382 267.229 68.97C267.229 69.57 267.091 70.11 266.815 70.59C266.539 71.07 266.137 71.454 265.609 71.742C265.081 72.03 264.439 72.174 263.683 72.174ZM263.683 70.932C264.319 70.932 264.823 70.764 265.195 70.428C265.579 70.092 265.771 69.606 265.771 68.97C265.771 68.346 265.579 67.866 265.195 67.53C264.823 67.194 264.319 67.026 263.683 67.026C263.047 67.026 262.531 67.194 262.135 67.53C261.751 67.866 261.559 68.346 261.559 68.97C261.559 69.606 261.751 70.092 262.135 70.428C262.519 70.764 263.035 70.932 263.683 70.932ZM265.141 67.26L264.691 65.982H268.399V67.116L265.141 67.26ZM102.908 99V86.04H105.338V91.332C105.626 90.852 106.022 90.474 106.526 90.198C107.03 89.91 107.612 89.766 108.272 89.766C109.016 89.766 109.646 89.928 110.162 90.252C110.678 90.564 111.068 91.026 111.332 91.638C111.608 92.238 111.746 92.982 111.746 93.87V99H109.334V94.104C109.334 93.372 109.184 92.808 108.884 92.412C108.584 92.016 108.11 91.818 107.462 91.818C107.066 91.818 106.7 91.92 106.364 92.124C106.04 92.316 105.788 92.592 105.608 92.952C105.428 93.312 105.338 93.756 105.338 94.284V99H102.908ZM118.356 99.216C117.444 99.216 116.634 99.024 115.926 98.64C115.23 98.244 114.684 97.698 114.288 97.002C113.904 96.306 113.712 95.496 113.712 94.572C113.712 93.636 113.904 92.808 114.288 92.088C114.672 91.368 115.212 90.804 115.908 90.396C116.616 89.976 117.432 89.766 118.356 89.766C119.256 89.766 120.042 89.964 120.714 90.36C121.386 90.744 121.908 91.272 122.28 91.944C122.664 92.616 122.856 93.378 122.856 94.23C122.856 94.35 122.856 94.482 122.856 94.626C122.856 94.77 122.844 94.926 122.82 95.094H115.44V93.6H120.39C120.366 93.036 120.162 92.586 119.778 92.25C119.406 91.914 118.938 91.746 118.374 91.746C117.954 91.746 117.57 91.842 117.222 92.034C116.874 92.214 116.598 92.496 116.394 92.88C116.202 93.252 116.106 93.726 116.106 94.302V94.824C116.106 95.316 116.196 95.742 116.376 96.102C116.568 96.462 116.832 96.744 117.168 96.948C117.516 97.14 117.906 97.236 118.338 97.236C118.782 97.236 119.148 97.14 119.436 96.948C119.736 96.756 119.964 96.504 120.12 96.192H122.604C122.436 96.756 122.148 97.266 121.74 97.722C121.344 98.178 120.858 98.544 120.282 98.82C119.718 99.084 119.076 99.216 118.356 99.216ZM124.828 99V86.04H127.258V99H124.828ZM129.609 99V89.982H131.733L131.931 91.188C132.219 90.756 132.597 90.414 133.065 90.162C133.545 89.898 134.097 89.766 134.721 89.766C135.177 89.766 135.585 89.826 135.945 89.946C136.317 90.066 136.641 90.24 136.917 90.468C137.193 90.696 137.427 90.984 137.619 91.332C137.955 90.852 138.393 90.474 138.933 90.198C139.473 89.91 140.067 89.766 140.715 89.766C141.495 89.766 142.149 89.928 142.677 90.252C143.217 90.564 143.625 91.026 143.901 91.638C144.177 92.238 144.315 92.976 144.315 93.852V99H141.903V94.086C141.903 93.354 141.759 92.796 141.471 92.412C141.183 92.016 140.745 91.818 140.157 91.818C139.761 91.818 139.413 91.92 139.113 92.124C138.813 92.316 138.579 92.592 138.411 92.952C138.255 93.312 138.177 93.75 138.177 94.266V99H135.747V94.086C135.747 93.354 135.603 92.796 135.315 92.412C135.027 92.016 134.577 91.818 133.965 91.818C133.593 91.818 133.257 91.92 132.957 92.124C132.669 92.316 132.441 92.592 132.273 92.952C132.117 93.312 132.039 93.75 132.039 94.266V99H129.609ZM150.928 99.216C150.016 99.216 149.206 99.024 148.498 98.64C147.802 98.244 147.256 97.698 146.86 97.002C146.476 96.306 146.284 95.496 146.284 94.572C146.284 93.636 146.476 92.808 146.86 92.088C147.244 91.368 147.784 90.804 148.48 90.396C149.188 89.976 150.004 89.766 150.928 89.766C151.828 89.766 152.614 89.964 153.286 90.36C153.958 90.744 154.48 91.272 154.852 91.944C155.236 92.616 155.428 93.378 155.428 94.23C155.428 94.35 155.428 94.482 155.428 94.626C155.428 94.77 155.416 94.926 155.392 95.094H148.012V93.6H152.962C152.938 93.036 152.734 92.586 152.35 92.25C151.978 91.914 151.51 91.746 150.946 91.746C150.526 91.746 150.142 91.842 149.794 92.034C149.446 92.214 149.17 92.496 148.966 92.88C148.774 93.252 148.678 93.726 148.678 94.302V94.824C148.678 95.316 148.768 95.742 148.948 96.102C149.14 96.462 149.404 96.744 149.74 96.948C150.088 97.14 150.478 97.236 150.91 97.236C151.354 97.236 151.72 97.14 152.008 96.948C152.308 96.756 152.536 96.504 152.692 96.192H155.176C155.008 96.756 154.72 97.266 154.312 97.722C153.916 98.178 153.43 98.544 152.854 98.82C152.29 99.084 151.648 99.216 150.928 99.216ZM161.345 99C160.709 99 160.151 98.904 159.671 98.712C159.203 98.508 158.837 98.178 158.573 97.722C158.309 97.254 158.177 96.618 158.177 95.814V92.016H156.629V89.982H158.177L158.447 87.534H160.607V89.982H162.983V92.016H160.607V95.85C160.607 96.258 160.697 96.54 160.877 96.696C161.057 96.852 161.363 96.93 161.795 96.93H162.947V99H161.345ZM168.719 99.216C167.903 99.216 167.189 99.084 166.577 98.82C165.965 98.556 165.479 98.196 165.119 97.74C164.771 97.272 164.567 96.738 164.507 96.138H166.937C166.997 96.366 167.099 96.576 167.243 96.768C167.387 96.948 167.579 97.092 167.819 97.2C168.071 97.308 168.359 97.362 168.683 97.362C169.007 97.362 169.271 97.32 169.475 97.236C169.679 97.14 169.829 97.02 169.925 96.876C170.033 96.72 170.087 96.558 170.087 96.39C170.087 96.138 170.009 95.946 169.853 95.814C169.709 95.682 169.499 95.574 169.223 95.49C168.947 95.406 168.611 95.322 168.215 95.238C167.807 95.142 167.399 95.034 166.991 94.914C166.583 94.794 166.211 94.638 165.875 94.446C165.551 94.254 165.287 94.014 165.083 93.726C164.891 93.426 164.795 93.054 164.795 92.61C164.795 92.07 164.939 91.59 165.227 91.17C165.515 90.738 165.935 90.396 166.487 90.144C167.039 89.892 167.699 89.766 168.467 89.766C169.559 89.766 170.423 90.018 171.059 90.522C171.695 91.014 172.073 91.686 172.193 92.538H169.907C169.835 92.262 169.673 92.046 169.421 91.89C169.181 91.722 168.857 91.638 168.449 91.638C168.029 91.638 167.705 91.716 167.477 91.872C167.261 92.028 167.153 92.226 167.153 92.466C167.153 92.634 167.225 92.784 167.369 92.916C167.525 93.048 167.741 93.162 168.017 93.258C168.293 93.342 168.623 93.426 169.007 93.51C169.691 93.654 170.291 93.816 170.807 93.996C171.335 94.176 171.749 94.44 172.049 94.788C172.361 95.124 172.517 95.61 172.517 96.246C172.529 96.822 172.379 97.338 172.067 97.794C171.755 98.238 171.311 98.586 170.735 98.838C170.171 99.09 169.499 99.216 168.719 99.216ZM178.81 99V89.982H180.97L181.186 91.656C181.414 91.272 181.684 90.942 181.996 90.666C182.32 90.378 182.692 90.156 183.112 90C183.544 89.844 184.012 89.766 184.516 89.766V92.34H183.76C183.388 92.34 183.046 92.382 182.734 92.466C182.434 92.55 182.17 92.688 181.942 92.88C181.714 93.072 181.54 93.33 181.42 93.654C181.3 93.978 181.24 94.386 181.24 94.878V99H178.81ZM189.183 99.216C188.427 99.216 187.803 99.096 187.311 98.856C186.819 98.604 186.453 98.274 186.213 97.866C185.973 97.446 185.853 96.99 185.853 96.498C185.853 95.946 185.991 95.46 186.267 95.04C186.555 94.62 186.987 94.296 187.563 94.068C188.139 93.828 188.859 93.708 189.723 93.708H191.973C191.973 93.264 191.913 92.898 191.793 92.61C191.673 92.322 191.481 92.106 191.217 91.962C190.965 91.818 190.635 91.746 190.227 91.746C189.771 91.746 189.381 91.848 189.057 92.052C188.733 92.256 188.535 92.562 188.463 92.97H186.087C186.159 92.31 186.375 91.746 186.735 91.278C187.107 90.798 187.593 90.426 188.193 90.162C188.805 89.898 189.489 89.766 190.245 89.766C191.097 89.766 191.835 89.91 192.459 90.198C193.083 90.486 193.563 90.9 193.899 91.44C194.235 91.98 194.403 92.646 194.403 93.438V99H192.351L192.081 97.614C191.949 97.854 191.793 98.07 191.613 98.262C191.433 98.454 191.223 98.622 190.983 98.766C190.743 98.91 190.473 99.018 190.173 99.09C189.873 99.174 189.543 99.216 189.183 99.216ZM189.759 97.344C190.071 97.344 190.347 97.29 190.587 97.182C190.839 97.062 191.055 96.906 191.235 96.714C191.415 96.51 191.553 96.282 191.649 96.03C191.757 95.766 191.829 95.49 191.865 95.202V95.184H190.011C189.639 95.184 189.333 95.232 189.093 95.328C188.865 95.424 188.691 95.556 188.571 95.724C188.463 95.88 188.409 96.066 188.409 96.282C188.409 96.51 188.463 96.702 188.571 96.858C188.691 97.014 188.853 97.134 189.057 97.218C189.261 97.302 189.495 97.344 189.759 97.344ZM200.614 99C199.978 99 199.42 98.904 198.94 98.712C198.472 98.508 198.106 98.178 197.842 97.722C197.578 97.254 197.446 96.618 197.446 95.814V92.016H195.898V89.982H197.446L197.716 87.534H199.876V89.982H202.252V92.016H199.876V95.85C199.876 96.258 199.966 96.54 200.146 96.696C200.326 96.852 200.632 96.93 201.064 96.93H202.216V99H200.614ZM208.408 99.216C207.496 99.216 206.686 99.024 205.978 98.64C205.282 98.244 204.736 97.698 204.34 97.002C203.956 96.306 203.764 95.496 203.764 94.572C203.764 93.636 203.956 92.808 204.34 92.088C204.724 91.368 205.264 90.804 205.96 90.396C206.668 89.976 207.484 89.766 208.408 89.766C209.308 89.766 210.094 89.964 210.766 90.36C211.438 90.744 211.96 91.272 212.332 91.944C212.716 92.616 212.908 93.378 212.908 94.23C212.908 94.35 212.908 94.482 212.908 94.626C212.908 94.77 212.896 94.926 212.872 95.094H205.492V93.6H210.442C210.418 93.036 210.214 92.586 209.83 92.25C209.458 91.914 208.99 91.746 208.426 91.746C208.006 91.746 207.622 91.842 207.274 92.034C206.926 92.214 206.65 92.496 206.446 92.88C206.254 93.252 206.158 93.726 206.158 94.302V94.824C206.158 95.316 206.248 95.742 206.428 96.102C206.62 96.462 206.884 96.744 207.22 96.948C207.568 97.14 207.958 97.236 208.39 97.236C208.834 97.236 209.2 97.14 209.488 96.948C209.788 96.756 210.016 96.504 210.172 96.192H212.656C212.488 96.756 212.2 97.266 211.792 97.722C211.396 98.178 210.91 98.544 210.334 98.82C209.77 99.084 209.128 99.216 208.408 99.216ZM218.93 99.216C218.102 99.216 217.358 99.012 216.698 98.604C216.05 98.196 215.534 97.638 215.15 96.93C214.778 96.21 214.592 95.4 214.592 94.5C214.592 93.588 214.778 92.778 215.15 92.07C215.534 91.35 216.056 90.786 216.716 90.378C217.388 89.97 218.138 89.766 218.966 89.766C219.626 89.766 220.202 89.892 220.694 90.144C221.186 90.384 221.582 90.72 221.882 91.152V86.04H224.312V99H222.152L221.882 97.758C221.69 98.01 221.462 98.25 221.198 98.478C220.934 98.706 220.616 98.886 220.244 99.018C219.872 99.15 219.434 99.216 218.93 99.216ZM219.506 97.092C219.986 97.092 220.406 96.984 220.766 96.768C221.138 96.54 221.426 96.234 221.63 95.85C221.834 95.454 221.936 95.004 221.936 94.5C221.936 93.984 221.834 93.534 221.63 93.15C221.426 92.754 221.138 92.448 220.766 92.232C220.394 92.004 219.968 91.89 219.488 91.89C219.032 91.89 218.618 92.004 218.246 92.232C217.874 92.448 217.58 92.754 217.364 93.15C217.16 93.534 217.058 93.978 217.058 94.482C217.058 94.986 217.16 95.436 217.364 95.832C217.58 96.228 217.874 96.54 218.246 96.768C218.618 96.984 219.038 97.092 219.506 97.092ZM231.308 99V89.118C231.308 88.362 231.434 87.762 231.686 87.318C231.95 86.874 232.316 86.55 232.784 86.346C233.252 86.142 233.804 86.04 234.44 86.04H235.502V88.11H234.818C234.434 88.11 234.158 88.188 233.99 88.344C233.822 88.488 233.738 88.746 233.738 89.118V99H231.308ZM230.084 92.016V89.982H235.664V92.016H230.084ZM241.471 99.216C240.607 99.216 239.827 99.018 239.131 98.622C238.447 98.214 237.901 97.656 237.493 96.948C237.097 96.24 236.899 95.424 236.899 94.5C236.899 93.564 237.097 92.742 237.493 92.034C237.901 91.326 238.453 90.774 239.149 90.378C239.845 89.97 240.625 89.766 241.489 89.766C242.353 89.766 243.133 89.97 243.829 90.378C244.525 90.774 245.071 91.326 245.467 92.034C245.875 92.742 246.079 93.564 246.079 94.5C246.079 95.424 245.875 96.24 245.467 96.948C245.059 97.656 244.507 98.214 243.811 98.622C243.127 99.018 242.347 99.216 241.471 99.216ZM241.471 97.11C241.867 97.11 242.221 97.014 242.533 96.822C242.857 96.63 243.115 96.342 243.307 95.958C243.499 95.562 243.595 95.076 243.595 94.5C243.595 93.912 243.499 93.426 243.307 93.042C243.127 92.658 242.875 92.37 242.551 92.178C242.239 91.974 241.885 91.872 241.489 91.872C241.105 91.872 240.751 91.974 240.427 92.178C240.103 92.37 239.845 92.658 239.653 93.042C239.461 93.426 239.365 93.912 239.365 94.5C239.365 95.076 239.461 95.562 239.653 95.958C239.845 96.342 240.097 96.63 240.409 96.822C240.733 97.014 241.087 97.11 241.471 97.11ZM248.156 99V89.982H250.316L250.532 91.656C250.76 91.272 251.03 90.942 251.342 90.666C251.666 90.378 252.038 90.156 252.458 90C252.89 89.844 253.358 89.766 253.862 89.766V92.34H253.106C252.734 92.34 252.392 92.382 252.08 92.466C251.78 92.55 251.516 92.688 251.288 92.88C251.06 93.072 250.886 93.33 250.766 93.654C250.646 93.978 250.586 94.386 250.586 94.878V99H248.156ZM90.0493 123V110.04H92.4793V115.332C92.7673 114.852 93.1633 114.474 93.6673 114.198C94.1713 113.91 94.7533 113.766 95.4133 113.766C96.1573 113.766 96.7873 113.928 97.3033 114.252C97.8193 114.564 98.2093 115.026 98.4733 115.638C98.7493 116.238 98.8873 116.982 98.8873 117.87V123H96.4753V118.104C96.4753 117.372 96.3253 116.808 96.0253 116.412C95.7253 116.016 95.2513 115.818 94.6033 115.818C94.2073 115.818 93.8413 115.92 93.5053 116.124C93.1813 116.316 92.9293 116.592 92.7493 116.952C92.5693 117.312 92.4793 117.756 92.4793 118.284V123H90.0493ZM101.195 123V113.982H103.625V123H101.195ZM102.419 112.722C101.975 112.722 101.615 112.596 101.339 112.344C101.063 112.08 100.925 111.75 100.925 111.354C100.925 110.958 101.063 110.634 101.339 110.382C101.615 110.118 101.975 109.986 102.419 109.986C102.863 109.986 103.223 110.118 103.499 110.382C103.787 110.634 103.931 110.958 103.931 111.354C103.931 111.75 103.787 112.08 103.499 112.344C103.223 112.596 102.863 112.722 102.419 112.722ZM109.951 127.176C109.087 127.176 108.331 127.068 107.683 126.852C107.047 126.648 106.549 126.33 106.189 125.898C105.841 125.478 105.667 124.956 105.667 124.332C105.667 123.912 105.775 123.516 105.991 123.144C106.207 122.772 106.525 122.436 106.945 122.136C107.365 121.824 107.881 121.56 108.493 121.344L109.411 122.55C108.859 122.73 108.463 122.952 108.223 123.216C107.983 123.492 107.863 123.78 107.863 124.08C107.863 124.356 107.953 124.59 108.133 124.782C108.313 124.974 108.559 125.112 108.871 125.196C109.195 125.292 109.555 125.34 109.951 125.34C110.323 125.34 110.647 125.292 110.923 125.196C111.211 125.1 111.433 124.956 111.589 124.764C111.757 124.584 111.841 124.368 111.841 124.116C111.841 123.792 111.727 123.528 111.499 123.324C111.271 123.132 110.821 123.012 110.149 122.964C109.537 122.916 108.991 122.85 108.511 122.766C108.043 122.67 107.629 122.562 107.269 122.442C106.921 122.31 106.621 122.166 106.369 122.01C106.117 121.854 105.913 121.698 105.757 121.542V121.128L107.683 119.058L109.411 119.598L107.161 121.848L107.863 120.66C107.983 120.732 108.103 120.804 108.223 120.876C108.355 120.936 108.517 120.996 108.709 121.056C108.901 121.104 109.147 121.152 109.447 121.2C109.759 121.236 110.155 121.278 110.635 121.326C111.427 121.398 112.075 121.548 112.579 121.776C113.083 121.992 113.455 122.292 113.695 122.676C113.935 123.06 114.055 123.522 114.055 124.062C114.055 124.602 113.905 125.106 113.605 125.574C113.317 126.054 112.867 126.438 112.255 126.726C111.655 127.026 110.887 127.176 109.951 127.176ZM109.969 120.336C109.213 120.336 108.559 120.192 108.007 119.904C107.467 119.604 107.047 119.208 106.747 118.716C106.459 118.224 106.315 117.672 106.315 117.06C106.315 116.448 106.459 115.896 106.747 115.404C107.047 114.912 107.467 114.516 108.007 114.216C108.559 113.916 109.213 113.766 109.969 113.766C110.725 113.766 111.373 113.916 111.913 114.216C112.465 114.516 112.885 114.912 113.173 115.404C113.461 115.896 113.605 116.448 113.605 117.06C113.605 117.672 113.461 118.224 113.173 118.716C112.885 119.208 112.465 119.604 111.913 119.904C111.373 120.192 110.725 120.336 109.969 120.336ZM109.969 118.482C110.425 118.482 110.797 118.362 111.085 118.122C111.373 117.882 111.517 117.528 111.517 117.06C111.517 116.604 111.373 116.256 111.085 116.016C110.797 115.776 110.425 115.656 109.969 115.656C109.501 115.656 109.117 115.776 108.817 116.016C108.529 116.256 108.385 116.604 108.385 117.06C108.385 117.528 108.529 117.882 108.817 118.122C109.117 118.362 109.501 118.482 109.969 118.482ZM111.445 115.71L111.049 113.982H114.793V115.422L111.445 115.71ZM116.786 123V110.04H119.216V115.332C119.504 114.852 119.9 114.474 120.404 114.198C120.908 113.91 121.49 113.766 122.15 113.766C122.894 113.766 123.524 113.928 124.04 114.252C124.556 114.564 124.946 115.026 125.21 115.638C125.486 116.238 125.624 116.982 125.624 117.87V123H123.212V118.104C123.212 117.372 123.062 116.808 122.762 116.412C122.462 116.016 121.988 115.818 121.34 115.818C120.944 115.818 120.578 115.92 120.242 116.124C119.918 116.316 119.666 116.592 119.486 116.952C119.306 117.312 119.216 117.756 119.216 118.284V123H116.786ZM132.233 123.216C131.321 123.216 130.511 123.024 129.803 122.64C129.107 122.244 128.561 121.698 128.165 121.002C127.781 120.306 127.589 119.496 127.589 118.572C127.589 117.636 127.781 116.808 128.165 116.088C128.549 115.368 129.089 114.804 129.785 114.396C130.493 113.976 131.309 113.766 132.233 113.766C133.133 113.766 133.919 113.964 134.591 114.36C135.263 114.744 135.785 115.272 136.157 115.944C136.541 116.616 136.733 117.378 136.733 118.23C136.733 118.35 136.733 118.482 136.733 118.626C136.733 118.77 136.721 118.926 136.697 119.094H129.317V117.6H134.267C134.243 117.036 134.039 116.586 133.655 116.25C133.283 115.914 132.815 115.746 132.251 115.746C131.831 115.746 131.447 115.842 131.099 116.034C130.751 116.214 130.475 116.496 130.271 116.88C130.079 117.252 129.983 117.726 129.983 118.302V118.824C129.983 119.316 130.073 119.742 130.253 120.102C130.445 120.462 130.709 120.744 131.045 120.948C131.393 121.14 131.783 121.236 132.215 121.236C132.659 121.236 133.025 121.14 133.313 120.948C133.613 120.756 133.841 120.504 133.997 120.192H136.481C136.313 120.756 136.025 121.266 135.617 121.722C135.221 122.178 134.735 122.544 134.159 122.82C133.595 123.084 132.953 123.216 132.233 123.216ZM138.706 123V113.982H140.866L141.082 115.656C141.31 115.272 141.58 114.942 141.892 114.666C142.216 114.378 142.588 114.156 143.008 114C143.44 113.844 143.908 113.766 144.412 113.766V116.34H143.656C143.284 116.34 142.942 116.382 142.63 116.466C142.33 116.55 142.066 116.688 141.838 116.88C141.61 117.072 141.436 117.33 141.316 117.654C141.196 117.978 141.136 118.386 141.136 118.878V123H138.706ZM153.962 123.216C153.146 123.216 152.432 123.084 151.82 122.82C151.208 122.556 150.722 122.196 150.362 121.74C150.014 121.272 149.81 120.738 149.75 120.138H152.18C152.24 120.366 152.342 120.576 152.486 120.768C152.63 120.948 152.822 121.092 153.062 121.2C153.314 121.308 153.602 121.362 153.926 121.362C154.25 121.362 154.514 121.32 154.718 121.236C154.922 121.14 155.072 121.02 155.168 120.876C155.276 120.72 155.33 120.558 155.33 120.39C155.33 120.138 155.252 119.946 155.096 119.814C154.952 119.682 154.742 119.574 154.466 119.49C154.19 119.406 153.854 119.322 153.458 119.238C153.05 119.142 152.642 119.034 152.234 118.914C151.826 118.794 151.454 118.638 151.118 118.446C150.794 118.254 150.53 118.014 150.326 117.726C150.134 117.426 150.038 117.054 150.038 116.61C150.038 116.07 150.182 115.59 150.47 115.17C150.758 114.738 151.178 114.396 151.73 114.144C152.282 113.892 152.942 113.766 153.71 113.766C154.802 113.766 155.666 114.018 156.302 114.522C156.938 115.014 157.316 115.686 157.436 116.538H155.15C155.078 116.262 154.916 116.046 154.664 115.89C154.424 115.722 154.1 115.638 153.692 115.638C153.272 115.638 152.948 115.716 152.72 115.872C152.504 116.028 152.396 116.226 152.396 116.466C152.396 116.634 152.468 116.784 152.612 116.916C152.768 117.048 152.984 117.162 153.26 117.258C153.536 117.342 153.866 117.426 154.25 117.51C154.934 117.654 155.534 117.816 156.05 117.996C156.578 118.176 156.992 118.44 157.292 118.788C157.604 119.124 157.76 119.61 157.76 120.246C157.772 120.822 157.622 121.338 157.31 121.794C156.998 122.238 156.554 122.586 155.978 122.838C155.414 123.09 154.742 123.216 153.962 123.216ZM159.817 126.96V113.982H161.977L162.229 115.242C162.421 114.978 162.649 114.738 162.913 114.522C163.177 114.294 163.495 114.114 163.867 113.982C164.239 113.838 164.671 113.766 165.163 113.766C166.015 113.766 166.765 113.976 167.413 114.396C168.061 114.804 168.571 115.368 168.943 116.088C169.327 116.796 169.519 117.606 169.519 118.518C169.519 119.418 169.327 120.222 168.943 120.93C168.559 121.638 168.043 122.196 167.395 122.604C166.747 123.012 166.003 123.216 165.163 123.216C164.503 123.216 163.927 123.096 163.435 122.856C162.943 122.604 162.547 122.262 162.247 121.83V126.96H159.817ZM164.605 121.092C165.085 121.092 165.505 120.984 165.865 120.768C166.237 120.552 166.525 120.252 166.729 119.868C166.945 119.472 167.053 119.016 167.053 118.5C167.053 117.996 166.945 117.546 166.729 117.15C166.525 116.754 166.237 116.448 165.865 116.232C165.505 116.004 165.085 115.89 164.605 115.89C164.137 115.89 163.717 116.004 163.345 116.232C162.973 116.448 162.685 116.754 162.481 117.15C162.277 117.534 162.175 117.984 162.175 118.5C162.175 119.004 162.277 119.454 162.481 119.85C162.685 120.246 162.973 120.552 163.345 120.768C163.717 120.984 164.137 121.092 164.605 121.092ZM175.968 123.216C175.056 123.216 174.246 123.024 173.538 122.64C172.842 122.244 172.296 121.698 171.9 121.002C171.516 120.306 171.324 119.496 171.324 118.572C171.324 117.636 171.516 116.808 171.9 116.088C172.284 115.368 172.824 114.804 173.52 114.396C174.228 113.976 175.044 113.766 175.968 113.766C176.868 113.766 177.654 113.964 178.326 114.36C178.998 114.744 179.52 115.272 179.892 115.944C180.276 116.616 180.468 117.378 180.468 118.23C180.468 118.35 180.468 118.482 180.468 118.626C180.468 118.77 180.456 118.926 180.432 119.094H173.052V117.6H178.002C177.978 117.036 177.774 116.586 177.39 116.25C177.018 115.914 176.55 115.746 175.986 115.746C175.566 115.746 175.182 115.842 174.834 116.034C174.486 116.214 174.21 116.496 174.006 116.88C173.814 117.252 173.718 117.726 173.718 118.302V118.824C173.718 119.316 173.808 119.742 173.988 120.102C174.18 120.462 174.444 120.744 174.78 120.948C175.128 121.14 175.518 121.236 175.95 121.236C176.394 121.236 176.76 121.14 177.048 120.948C177.348 120.756 177.576 120.504 177.732 120.192H180.216C180.048 120.756 179.76 121.266 179.352 121.722C178.956 122.178 178.47 122.544 177.894 122.82C177.33 123.084 176.688 123.216 175.968 123.216ZM186.796 123.216C185.884 123.216 185.074 123.024 184.366 122.64C183.67 122.244 183.124 121.698 182.728 121.002C182.344 120.306 182.152 119.496 182.152 118.572C182.152 117.636 182.344 116.808 182.728 116.088C183.112 115.368 183.652 114.804 184.348 114.396C185.056 113.976 185.872 113.766 186.796 113.766C187.696 113.766 188.482 113.964 189.154 114.36C189.826 114.744 190.348 115.272 190.72 115.944C191.104 116.616 191.296 117.378 191.296 118.23C191.296 118.35 191.296 118.482 191.296 118.626C191.296 118.77 191.284 118.926 191.26 119.094H183.88V117.6H188.83C188.806 117.036 188.602 116.586 188.218 116.25C187.846 115.914 187.378 115.746 186.814 115.746C186.394 115.746 186.01 115.842 185.662 116.034C185.314 116.214 185.038 116.496 184.834 116.88C184.642 117.252 184.546 117.726 184.546 118.302V118.824C184.546 119.316 184.636 119.742 184.816 120.102C185.008 120.462 185.272 120.744 185.608 120.948C185.956 121.14 186.346 121.236 186.778 121.236C187.222 121.236 187.588 121.14 187.876 120.948C188.176 120.756 188.404 120.504 188.56 120.192H191.044C190.876 120.756 190.588 121.266 190.18 121.722C189.784 122.178 189.298 122.544 188.722 122.82C188.158 123.084 187.516 123.216 186.796 123.216ZM197.318 123.216C196.49 123.216 195.746 123.012 195.086 122.604C194.438 122.196 193.922 121.638 193.538 120.93C193.166 120.21 192.98 119.4 192.98 118.5C192.98 117.588 193.166 116.778 193.538 116.07C193.922 115.35 194.444 114.786 195.104 114.378C195.776 113.97 196.526 113.766 197.354 113.766C198.014 113.766 198.59 113.892 199.082 114.144C199.574 114.384 199.97 114.72 200.27 115.152V110.04H202.7V123H200.54L200.27 121.758C200.078 122.01 199.85 122.25 199.586 122.478C199.322 122.706 199.004 122.886 198.632 123.018C198.26 123.15 197.822 123.216 197.318 123.216ZM197.894 121.092C198.374 121.092 198.794 120.984 199.154 120.768C199.526 120.54 199.814 120.234 200.018 119.85C200.222 119.454 200.324 119.004 200.324 118.5C200.324 117.984 200.222 117.534 200.018 117.15C199.814 116.754 199.526 116.448 199.154 116.232C198.782 116.004 198.356 115.89 197.876 115.89C197.42 115.89 197.006 116.004 196.634 116.232C196.262 116.448 195.968 116.754 195.752 117.15C195.548 117.534 195.446 117.978 195.446 118.482C195.446 118.986 195.548 119.436 195.752 119.832C195.968 120.228 196.262 120.54 196.634 120.768C197.006 120.984 197.426 121.092 197.894 121.092ZM208.771 123.216C207.955 123.216 207.241 123.084 206.629 122.82C206.017 122.556 205.531 122.196 205.171 121.74C204.823 121.272 204.619 120.738 204.559 120.138H206.989C207.049 120.366 207.151 120.576 207.295 120.768C207.439 120.948 207.631 121.092 207.871 121.2C208.123 121.308 208.411 121.362 208.735 121.362C209.059 121.362 209.323 121.32 209.527 121.236C209.731 121.14 209.881 121.02 209.977 120.876C210.085 120.72 210.139 120.558 210.139 120.39C210.139 120.138 210.061 119.946 209.905 119.814C209.761 119.682 209.551 119.574 209.275 119.49C208.999 119.406 208.663 119.322 208.267 119.238C207.859 119.142 207.451 119.034 207.043 118.914C206.635 118.794 206.263 118.638 205.927 118.446C205.603 118.254 205.339 118.014 205.135 117.726C204.943 117.426 204.847 117.054 204.847 116.61C204.847 116.07 204.991 115.59 205.279 115.17C205.567 114.738 205.987 114.396 206.539 114.144C207.091 113.892 207.751 113.766 208.519 113.766C209.611 113.766 210.475 114.018 211.111 114.522C211.747 115.014 212.125 115.686 212.245 116.538H209.959C209.887 116.262 209.725 116.046 209.473 115.89C209.233 115.722 208.909 115.638 208.501 115.638C208.081 115.638 207.757 115.716 207.529 115.872C207.313 116.028 207.205 116.226 207.205 116.466C207.205 116.634 207.277 116.784 207.421 116.916C207.577 117.048 207.793 117.162 208.069 117.258C208.345 117.342 208.675 117.426 209.059 117.51C209.743 117.654 210.343 117.816 210.859 117.996C211.387 118.176 211.801 118.44 212.101 118.788C212.413 119.124 212.569 119.61 212.569 120.246C212.581 120.822 212.431 121.338 212.119 121.794C211.807 122.238 211.363 122.586 210.787 122.838C210.223 123.09 209.551 123.216 208.771 123.216ZM221.297 123L218.651 113.982H220.163L222.233 121.65L221.909 121.632L224.195 113.982H225.905L228.191 121.632L227.849 121.65L229.919 113.982H231.449L228.803 123H227.255L224.879 114.99H225.221L222.845 123H221.297ZM233.119 123V110.04H234.631V115.512C234.931 114.972 235.351 114.546 235.891 114.234C236.443 113.922 237.049 113.766 237.709 113.766C238.393 113.766 238.993 113.91 239.509 114.198C240.025 114.474 240.421 114.9 240.697 115.476C240.985 116.052 241.129 116.784 241.129 117.672V123H239.635V117.834C239.635 116.922 239.443 116.232 239.059 115.764C238.675 115.296 238.117 115.062 237.385 115.062C236.869 115.062 236.401 115.188 235.981 115.44C235.561 115.692 235.231 116.058 234.991 116.538C234.751 117.006 234.631 117.582 234.631 118.266V123H233.119ZM243.617 123V113.982H245.129V123H243.617ZM244.373 112.038C244.073 112.038 243.821 111.942 243.617 111.75C243.425 111.546 243.329 111.294 243.329 110.994C243.329 110.694 243.425 110.454 243.617 110.274C243.821 110.082 244.073 109.986 244.373 109.986C244.661 109.986 244.907 110.082 245.111 110.274C245.315 110.454 245.417 110.694 245.417 110.994C245.417 111.294 245.315 111.546 245.111 111.75C244.907 111.942 244.661 112.038 244.373 112.038ZM251.866 123.216C251.014 123.216 250.246 123.018 249.562 122.622C248.89 122.226 248.356 121.674 247.96 120.966C247.576 120.258 247.384 119.436 247.384 118.5C247.384 117.552 247.576 116.724 247.96 116.016C248.356 115.308 248.89 114.756 249.562 114.36C250.246 113.964 251.014 113.766 251.866 113.766C252.946 113.766 253.84 114.048 254.548 114.612C255.268 115.164 255.73 115.908 255.934 116.844H254.386C254.254 116.28 253.954 115.842 253.486 115.53C253.018 115.218 252.472 115.062 251.848 115.062C251.344 115.062 250.87 115.194 250.426 115.458C249.982 115.71 249.622 116.094 249.346 116.61C249.07 117.114 248.932 117.744 248.932 118.5C248.932 119.052 249.01 119.544 249.166 119.976C249.334 120.408 249.55 120.774 249.814 121.074C250.09 121.362 250.402 121.578 250.75 121.722C251.11 121.866 251.476 121.938 251.848 121.938C252.268 121.938 252.652 121.872 253 121.74C253.348 121.596 253.642 121.392 253.882 121.128C254.134 120.852 254.302 120.528 254.386 120.156H255.934C255.742 121.068 255.28 121.806 254.548 122.37C253.828 122.934 252.934 123.216 251.866 123.216ZM258.045 123V110.04H259.557V115.512C259.857 114.972 260.277 114.546 260.817 114.234C261.369 113.922 261.975 113.766 262.635 113.766C263.319 113.766 263.919 113.91 264.435 114.198C264.951 114.474 265.347 114.9 265.623 115.476C265.911 116.052 266.055 116.784 266.055 117.672V123H264.561V117.834C264.561 116.922 264.369 116.232 263.985 115.764C263.601 115.296 263.043 115.062 262.311 115.062C261.795 115.062 261.327 115.188 260.907 115.44C260.487 115.692 260.157 116.058 259.917 116.538C259.677 117.006 259.557 117.582 259.557 118.266V123H258.045ZM90.3837 147L87.7377 137.982H89.2497L91.3197 145.65L90.9957 145.632L93.2817 137.982H94.9917L97.2777 145.632L96.9357 145.65L99.0057 137.982H100.536L97.8897 147H96.3417L93.9657 138.99H94.3077L91.9317 147H90.3837ZM102.368 147V137.982H103.88V147H102.368ZM103.124 136.038C102.824 136.038 102.572 135.942 102.368 135.75C102.176 135.546 102.08 135.294 102.08 134.994C102.08 134.694 102.176 134.454 102.368 134.274C102.572 134.082 102.824 133.986 103.124 133.986C103.412 133.986 103.658 134.082 103.862 134.274C104.066 134.454 104.168 134.694 104.168 134.994C104.168 135.294 104.066 135.546 103.862 135.75C103.658 135.942 103.412 136.038 103.124 136.038ZM106.513 147V134.04H108.025V147H106.513ZM110.52 147V134.04H112.032V147H110.52ZM119.309 150.96V137.982H120.677L120.821 139.458C121.013 139.17 121.259 138.9 121.559 138.648C121.859 138.384 122.219 138.174 122.639 138.018C123.059 137.85 123.545 137.766 124.097 137.766C124.973 137.766 125.735 137.976 126.383 138.396C127.043 138.804 127.559 139.368 127.931 140.088C128.303 140.796 128.489 141.606 128.489 142.518C128.489 143.418 128.303 144.222 127.931 144.93C127.559 145.638 127.043 146.196 126.383 146.604C125.723 147.012 124.955 147.216 124.079 147.216C123.347 147.216 122.699 147.066 122.135 146.766C121.571 146.466 121.133 146.046 120.821 145.506V150.96H119.309ZM123.917 145.902C124.505 145.902 125.027 145.764 125.483 145.488C125.939 145.2 126.293 144.804 126.545 144.3C126.809 143.784 126.941 143.184 126.941 142.5C126.941 141.816 126.809 141.222 126.545 140.718C126.293 140.202 125.939 139.8 125.483 139.512C125.027 139.224 124.505 139.08 123.917 139.08C123.317 139.08 122.783 139.224 122.315 139.512C121.859 139.8 121.499 140.202 121.235 140.718C120.983 141.222 120.857 141.816 120.857 142.5C120.857 143.184 120.983 143.784 121.235 144.3C121.499 144.804 121.859 145.2 122.315 145.488C122.783 145.764 123.317 145.902 123.917 145.902ZM130.595 147V137.982H131.963L132.089 139.71C132.281 139.302 132.533 138.954 132.845 138.666C133.169 138.378 133.553 138.156 133.997 138C134.441 137.844 134.945 137.766 135.509 137.766V139.35H135.023C134.627 139.35 134.249 139.404 133.889 139.512C133.541 139.608 133.229 139.77 132.953 139.998C132.689 140.226 132.479 140.538 132.323 140.934C132.179 141.318 132.107 141.804 132.107 142.392V147H130.595ZM140.938 147.216C140.098 147.216 139.342 147.024 138.67 146.64C137.998 146.244 137.464 145.692 137.068 144.984C136.684 144.276 136.492 143.448 136.492 142.5C136.492 141.54 136.69 140.706 137.086 139.998C137.482 139.29 138.016 138.744 138.688 138.36C139.372 137.964 140.134 137.766 140.974 137.766C141.826 137.766 142.588 137.964 143.26 138.36C143.932 138.744 144.46 139.29 144.844 139.998C145.228 140.706 145.42 141.54 145.42 142.5C145.42 143.448 145.222 144.276 144.826 144.984C144.442 145.692 143.908 146.244 143.224 146.64C142.552 147.024 141.79 147.216 140.938 147.216ZM140.938 145.92C141.466 145.92 141.952 145.794 142.396 145.542C142.84 145.29 143.194 144.906 143.458 144.39C143.734 143.874 143.872 143.244 143.872 142.5C143.872 141.732 143.74 141.096 143.476 140.592C143.212 140.088 142.858 139.71 142.414 139.458C141.97 139.194 141.49 139.062 140.974 139.062C140.47 139.062 139.99 139.194 139.534 139.458C139.09 139.71 138.73 140.088 138.454 140.592C138.178 141.096 138.04 141.732 138.04 142.5C138.04 143.244 138.178 143.874 138.454 144.39C138.73 144.906 139.084 145.29 139.516 145.542C139.96 145.794 140.434 145.92 140.938 145.92ZM149.693 147L146.273 137.982H147.857L150.575 145.542L153.293 137.982H154.841L151.439 147H149.693ZM156.684 147V137.982H158.196V147H156.684ZM157.44 136.038C157.14 136.038 156.888 135.942 156.684 135.75C156.492 135.546 156.396 135.294 156.396 134.994C156.396 134.694 156.492 134.454 156.684 134.274C156.888 134.082 157.14 133.986 157.44 133.986C157.728 133.986 157.974 134.082 158.178 134.274C158.382 134.454 158.484 134.694 158.484 134.994C158.484 135.294 158.382 135.546 158.178 135.75C157.974 135.942 157.728 136.038 157.44 136.038ZM164.861 147.216C163.985 147.216 163.211 147.012 162.539 146.604C161.879 146.184 161.363 145.62 160.991 144.912C160.631 144.192 160.451 143.382 160.451 142.482C160.451 141.57 160.631 140.76 160.991 140.052C161.363 139.344 161.885 138.786 162.557 138.378C163.229 137.97 164.003 137.766 164.879 137.766C165.611 137.766 166.259 137.916 166.823 138.216C167.387 138.516 167.819 138.936 168.119 139.476V134.04H169.631V147H168.263L168.137 145.524C167.945 145.812 167.699 146.088 167.399 146.352C167.099 146.604 166.739 146.814 166.319 146.982C165.899 147.138 165.413 147.216 164.861 147.216ZM165.023 145.902C165.623 145.902 166.151 145.764 166.607 145.488C167.075 145.2 167.435 144.804 167.687 144.3C167.939 143.784 168.065 143.184 168.065 142.5C168.065 141.816 167.939 141.222 167.687 140.718C167.435 140.202 167.075 139.8 166.607 139.512C166.151 139.224 165.623 139.08 165.023 139.08C164.447 139.08 163.925 139.224 163.457 139.512C163.001 139.8 162.641 140.202 162.377 140.718C162.125 141.222 161.999 141.816 161.999 142.5C161.999 143.184 162.125 143.784 162.377 144.3C162.641 144.804 163.001 145.2 163.457 145.488C163.925 145.764 164.447 145.902 165.023 145.902ZM176.146 147.216C175.294 147.216 174.538 147.024 173.878 146.64C173.218 146.244 172.696 145.692 172.312 144.984C171.94 144.264 171.754 143.436 171.754 142.5C171.754 141.54 171.94 140.712 172.312 140.016C172.684 139.308 173.2 138.756 173.86 138.36C174.532 137.964 175.306 137.766 176.182 137.766C177.058 137.766 177.808 137.964 178.432 138.36C179.056 138.756 179.53 139.272 179.854 139.908C180.19 140.544 180.358 141.24 180.358 141.996C180.358 142.116 180.358 142.248 180.358 142.392C180.358 142.524 180.352 142.674 180.34 142.842H172.888V141.672H178.864C178.828 140.844 178.552 140.202 178.036 139.746C177.532 139.278 176.902 139.044 176.146 139.044C175.63 139.044 175.15 139.164 174.706 139.404C174.262 139.632 173.902 139.968 173.626 140.412C173.362 140.856 173.23 141.414 173.23 142.086V142.59C173.23 143.322 173.368 143.94 173.644 144.444C173.92 144.948 174.28 145.326 174.724 145.578C175.168 145.818 175.642 145.938 176.146 145.938C176.77 145.938 177.286 145.8 177.694 145.524C178.114 145.236 178.42 144.846 178.612 144.354H180.106C179.95 144.906 179.692 145.398 179.332 145.83C178.972 146.25 178.522 146.586 177.982 146.838C177.454 147.09 176.842 147.216 176.146 147.216ZM190.131 147.216C189.387 147.216 188.769 147.09 188.277 146.838C187.797 146.586 187.437 146.25 187.197 145.83C186.957 145.398 186.837 144.93 186.837 144.426C186.837 143.814 186.993 143.298 187.305 142.878C187.629 142.458 188.079 142.14 188.655 141.924C189.243 141.696 189.927 141.582 190.707 141.582H193.119C193.119 141.018 193.029 140.55 192.849 140.178C192.681 139.806 192.429 139.524 192.093 139.332C191.757 139.14 191.349 139.044 190.869 139.044C190.293 139.044 189.789 139.194 189.357 139.494C188.937 139.782 188.679 140.202 188.583 140.754H187.035C187.107 140.118 187.323 139.578 187.683 139.134C188.055 138.69 188.523 138.354 189.087 138.126C189.651 137.886 190.245 137.766 190.869 137.766C191.697 137.766 192.387 137.922 192.939 138.234C193.503 138.534 193.923 138.96 194.199 139.512C194.487 140.052 194.631 140.694 194.631 141.438V147H193.281L193.191 145.398C193.071 145.65 192.915 145.89 192.723 146.118C192.543 146.334 192.327 146.526 192.075 146.694C191.835 146.85 191.553 146.976 191.229 147.072C190.905 147.168 190.539 147.216 190.131 147.216ZM190.365 145.938C190.797 145.938 191.181 145.854 191.517 145.686C191.853 145.506 192.141 145.266 192.381 144.966C192.633 144.666 192.819 144.33 192.939 143.958C193.059 143.574 193.119 143.184 193.119 142.788V142.752H190.833C190.257 142.752 189.789 142.824 189.429 142.968C189.069 143.1 188.811 143.286 188.655 143.526C188.499 143.766 188.421 144.042 188.421 144.354C188.421 144.678 188.493 144.96 188.637 145.2C188.793 145.44 189.015 145.626 189.303 145.758C189.591 145.878 189.945 145.938 190.365 145.938ZM200.966 147.216C200.09 147.216 199.316 147.012 198.644 146.604C197.984 146.184 197.468 145.62 197.096 144.912C196.736 144.192 196.556 143.382 196.556 142.482C196.556 141.57 196.736 140.76 197.096 140.052C197.468 139.344 197.99 138.786 198.662 138.378C199.334 137.97 200.108 137.766 200.984 137.766C201.716 137.766 202.364 137.916 202.928 138.216C203.492 138.516 203.924 138.936 204.224 139.476V134.04H205.736V147H204.368L204.242 145.524C204.05 145.812 203.804 146.088 203.504 146.352C203.204 146.604 202.844 146.814 202.424 146.982C202.004 147.138 201.518 147.216 200.966 147.216ZM201.128 145.902C201.728 145.902 202.256 145.764 202.712 145.488C203.18 145.2 203.54 144.804 203.792 144.3C204.044 143.784 204.17 143.184 204.17 142.5C204.17 141.816 204.044 141.222 203.792 140.718C203.54 140.202 203.18 139.8 202.712 139.512C202.256 139.224 201.728 139.08 201.128 139.08C200.552 139.08 200.03 139.224 199.562 139.512C199.106 139.8 198.746 140.202 198.482 140.718C198.23 141.222 198.104 141.816 198.104 142.5C198.104 143.184 198.23 143.784 198.482 144.3C198.746 144.804 199.106 145.2 199.562 145.488C200.03 145.764 200.552 145.902 201.128 145.902ZM212.269 147.216C211.393 147.216 210.619 147.012 209.947 146.604C209.287 146.184 208.771 145.62 208.399 144.912C208.039 144.192 207.859 143.382 207.859 142.482C207.859 141.57 208.039 140.76 208.399 140.052C208.771 139.344 209.293 138.786 209.965 138.378C210.637 137.97 211.411 137.766 212.287 137.766C213.019 137.766 213.667 137.916 214.231 138.216C214.795 138.516 215.227 138.936 215.527 139.476V134.04H217.039V147H215.671L215.545 145.524C215.353 145.812 215.107 146.088 214.807 146.352C214.507 146.604 214.147 146.814 213.727 146.982C213.307 147.138 212.821 147.216 212.269 147.216ZM212.431 145.902C213.031 145.902 213.559 145.764 214.015 145.488C214.483 145.2 214.843 144.804 215.095 144.3C215.347 143.784 215.473 143.184 215.473 142.5C215.473 141.816 215.347 141.222 215.095 140.718C214.843 140.202 214.483 139.8 214.015 139.512C213.559 139.224 213.031 139.08 212.431 139.08C211.855 139.08 211.333 139.224 210.865 139.512C210.409 139.8 210.049 140.202 209.785 140.718C209.533 141.222 209.407 141.816 209.407 142.5C209.407 143.184 209.533 143.784 209.785 144.3C210.049 144.804 210.409 145.2 210.865 145.488C211.333 145.764 211.855 145.902 212.431 145.902ZM219.702 147V137.982H221.214V147H219.702ZM220.458 136.038C220.158 136.038 219.906 135.942 219.702 135.75C219.51 135.546 219.414 135.294 219.414 134.994C219.414 134.694 219.51 134.454 219.702 134.274C219.906 134.082 220.158 133.986 220.458 133.986C220.746 133.986 220.992 134.082 221.196 134.274C221.4 134.454 221.502 134.694 221.502 134.994C221.502 135.294 221.4 135.546 221.196 135.75C220.992 135.942 220.746 136.038 220.458 136.038ZM227.41 147C226.87 147 226.402 146.916 226.006 146.748C225.61 146.58 225.304 146.298 225.088 145.902C224.884 145.494 224.782 144.948 224.782 144.264V139.26H223.216V137.982H224.782L224.98 135.822H226.294V137.982H228.922V139.26H226.294V144.264C226.294 144.828 226.408 145.212 226.636 145.416C226.864 145.608 227.266 145.704 227.842 145.704H228.796V147H227.41ZM231.022 147V137.982H232.534V147H231.022ZM231.778 136.038C231.478 136.038 231.226 135.942 231.022 135.75C230.83 135.546 230.734 135.294 230.734 134.994C230.734 134.694 230.83 134.454 231.022 134.274C231.226 134.082 231.478 133.986 231.778 133.986C232.066 133.986 232.312 134.082 232.516 134.274C232.72 134.454 232.822 134.694 232.822 134.994C232.822 135.294 232.72 135.546 232.516 135.75C232.312 135.942 232.066 136.038 231.778 136.038ZM239.235 147.216C238.395 147.216 237.639 147.024 236.967 146.64C236.295 146.244 235.761 145.692 235.365 144.984C234.981 144.276 234.789 143.448 234.789 142.5C234.789 141.54 234.987 140.706 235.383 139.998C235.779 139.29 236.313 138.744 236.985 138.36C237.669 137.964 238.431 137.766 239.271 137.766C240.123 137.766 240.885 137.964 241.557 138.36C242.229 138.744 242.757 139.29 243.141 139.998C243.525 140.706 243.717 141.54 243.717 142.5C243.717 143.448 243.519 144.276 243.123 144.984C242.739 145.692 242.205 146.244 241.521 146.64C240.849 147.024 240.087 147.216 239.235 147.216ZM239.235 145.92C239.763 145.92 240.249 145.794 240.693 145.542C241.137 145.29 241.491 144.906 241.755 144.39C242.031 143.874 242.169 143.244 242.169 142.5C242.169 141.732 242.037 141.096 241.773 140.592C241.509 140.088 241.155 139.71 240.711 139.458C240.267 139.194 239.787 139.062 239.271 139.062C238.767 139.062 238.287 139.194 237.831 139.458C237.387 139.71 237.027 140.088 236.751 140.592C236.475 141.096 236.337 141.732 236.337 142.5C236.337 143.244 236.475 143.874 236.751 144.39C237.027 144.906 237.381 145.29 237.813 145.542C238.257 145.794 238.731 145.92 239.235 145.92ZM245.837 147V137.982H247.205L247.295 139.584C247.583 139.02 247.997 138.576 248.537 138.252C249.077 137.928 249.689 137.766 250.373 137.766C251.069 137.766 251.675 137.91 252.191 138.198C252.707 138.474 253.109 138.9 253.397 139.476C253.685 140.052 253.829 140.778 253.829 141.654V147H252.317V141.816C252.317 140.904 252.119 140.22 251.723 139.764C251.327 139.296 250.763 139.062 250.031 139.062C249.515 139.062 249.053 139.188 248.645 139.44C248.249 139.692 247.931 140.052 247.691 140.52C247.463 140.988 247.349 141.564 247.349 142.248V147H245.837ZM259.125 147.216C258.381 147.216 257.763 147.09 257.271 146.838C256.791 146.586 256.431 146.25 256.191 145.83C255.951 145.398 255.831 144.93 255.831 144.426C255.831 143.814 255.987 143.298 256.299 142.878C256.623 142.458 257.073 142.14 257.649 141.924C258.237 141.696 258.921 141.582 259.701 141.582H262.113C262.113 141.018 262.023 140.55 261.843 140.178C261.675 139.806 261.423 139.524 261.087 139.332C260.751 139.14 260.343 139.044 259.863 139.044C259.287 139.044 258.783 139.194 258.351 139.494C257.931 139.782 257.673 140.202 257.577 140.754H256.029C256.101 140.118 256.317 139.578 256.677 139.134C257.049 138.69 257.517 138.354 258.081 138.126C258.645 137.886 259.239 137.766 259.863 137.766C260.691 137.766 261.381 137.922 261.933 138.234C262.497 138.534 262.917 138.96 263.193 139.512C263.481 140.052 263.625 140.694 263.625 141.438V147H262.275L262.185 145.398C262.065 145.65 261.909 145.89 261.717 146.118C261.537 146.334 261.321 146.526 261.069 146.694C260.829 146.85 260.547 146.976 260.223 147.072C259.899 147.168 259.533 147.216 259.125 147.216ZM259.359 145.938C259.791 145.938 260.175 145.854 260.511 145.686C260.847 145.506 261.135 145.266 261.375 144.966C261.627 144.666 261.813 144.33 261.933 143.958C262.053 143.574 262.113 143.184 262.113 142.788V142.752H259.827C259.251 142.752 258.783 142.824 258.423 142.968C258.063 143.1 257.805 143.286 257.649 143.526C257.493 143.766 257.415 144.042 257.415 144.354C257.415 144.678 257.487 144.96 257.631 145.2C257.787 145.44 258.009 145.626 258.297 145.758C258.585 145.878 258.939 145.938 259.359 145.938ZM265.929 147V134.04H267.441V147H265.929ZM99.9383 171V158.04H101.45V163.512C101.75 162.972 102.17 162.546 102.71 162.234C103.262 161.922 103.868 161.766 104.528 161.766C105.212 161.766 105.812 161.91 106.328 162.198C106.844 162.474 107.24 162.9 107.516 163.476C107.804 164.052 107.948 164.784 107.948 165.672V171H106.454V165.834C106.454 164.922 106.262 164.232 105.878 163.764C105.494 163.296 104.936 163.062 104.204 163.062C103.688 163.062 103.22 163.188 102.8 163.44C102.38 163.692 102.05 164.058 101.81 164.538C101.57 165.006 101.45 165.582 101.45 166.266V171H99.9383ZM114.288 171.216C113.436 171.216 112.68 171.024 112.02 170.64C111.36 170.244 110.838 169.692 110.454 168.984C110.082 168.264 109.896 167.436 109.896 166.5C109.896 165.54 110.082 164.712 110.454 164.016C110.826 163.308 111.342 162.756 112.002 162.36C112.674 161.964 113.448 161.766 114.324 161.766C115.2 161.766 115.95 161.964 116.574 162.36C117.198 162.756 117.672 163.272 117.996 163.908C118.332 164.544 118.5 165.24 118.5 165.996C118.5 166.116 118.5 166.248 118.5 166.392C118.5 166.524 118.494 166.674 118.482 166.842H111.03V165.672H117.006C116.97 164.844 116.694 164.202 116.178 163.746C115.674 163.278 115.044 163.044 114.288 163.044C113.772 163.044 113.292 163.164 112.848 163.404C112.404 163.632 112.044 163.968 111.768 164.412C111.504 164.856 111.372 165.414 111.372 166.086V166.59C111.372 167.322 111.51 167.94 111.786 168.444C112.062 168.948 112.422 169.326 112.866 169.578C113.31 169.818 113.784 169.938 114.288 169.938C114.912 169.938 115.428 169.8 115.836 169.524C116.256 169.236 116.562 168.846 116.754 168.354H118.248C118.092 168.906 117.834 169.398 117.474 169.83C117.114 170.25 116.664 170.586 116.124 170.838C115.596 171.09 114.984 171.216 114.288 171.216ZM123.492 171.216C122.748 171.216 122.13 171.09 121.638 170.838C121.158 170.586 120.798 170.25 120.558 169.83C120.318 169.398 120.198 168.93 120.198 168.426C120.198 167.814 120.354 167.298 120.666 166.878C120.99 166.458 121.44 166.14 122.016 165.924C122.604 165.696 123.288 165.582 124.068 165.582H126.48C126.48 165.018 126.39 164.55 126.21 164.178C126.042 163.806 125.79 163.524 125.454 163.332C125.118 163.14 124.71 163.044 124.23 163.044C123.654 163.044 123.15 163.194 122.718 163.494C122.298 163.782 122.04 164.202 121.944 164.754H120.396C120.468 164.118 120.684 163.578 121.044 163.134C121.416 162.69 121.884 162.354 122.448 162.126C123.012 161.886 123.606 161.766 124.23 161.766C125.058 161.766 125.748 161.922 126.3 162.234C126.864 162.534 127.284 162.96 127.56 163.512C127.848 164.052 127.992 164.694 127.992 165.438V171H126.642L126.552 169.398C126.432 169.65 126.276 169.89 126.084 170.118C125.904 170.334 125.688 170.526 125.436 170.694C125.196 170.85 124.914 170.976 124.59 171.072C124.266 171.168 123.9 171.216 123.492 171.216ZM123.726 169.938C124.158 169.938 124.542 169.854 124.878 169.686C125.214 169.506 125.502 169.266 125.742 168.966C125.994 168.666 126.18 168.33 126.3 167.958C126.42 167.574 126.48 167.184 126.48 166.788V166.752H124.194C123.618 166.752 123.15 166.824 122.79 166.968C122.43 167.1 122.172 167.286 122.016 167.526C121.86 167.766 121.782 168.042 121.782 168.354C121.782 168.678 121.854 168.96 121.998 169.2C122.154 169.44 122.376 169.626 122.664 169.758C122.952 169.878 123.306 169.938 123.726 169.938ZM134.328 171.216C133.452 171.216 132.678 171.012 132.006 170.604C131.346 170.184 130.83 169.62 130.458 168.912C130.098 168.192 129.918 167.382 129.918 166.482C129.918 165.57 130.098 164.76 130.458 164.052C130.83 163.344 131.352 162.786 132.024 162.378C132.696 161.97 133.47 161.766 134.346 161.766C135.078 161.766 135.726 161.916 136.29 162.216C136.854 162.516 137.286 162.936 137.586 163.476V158.04H139.098V171H137.73L137.604 169.524C137.412 169.812 137.166 170.088 136.866 170.352C136.566 170.604 136.206 170.814 135.786 170.982C135.366 171.138 134.88 171.216 134.328 171.216ZM134.49 169.902C135.09 169.902 135.618 169.764 136.074 169.488C136.542 169.2 136.902 168.804 137.154 168.3C137.406 167.784 137.532 167.184 137.532 166.5C137.532 165.816 137.406 165.222 137.154 164.718C136.902 164.202 136.542 163.8 136.074 163.512C135.618 163.224 135.09 163.08 134.49 163.08C133.914 163.08 133.392 163.224 132.924 163.512C132.468 163.8 132.108 164.202 131.844 164.718C131.592 165.222 131.466 165.816 131.466 166.5C131.466 167.184 131.592 167.784 131.844 168.3C132.108 168.804 132.468 169.2 132.924 169.488C133.392 169.764 133.914 169.902 134.49 169.902ZM150.484 171.216C149.632 171.216 148.864 171.018 148.18 170.622C147.508 170.226 146.974 169.674 146.578 168.966C146.194 168.258 146.002 167.436 146.002 166.5C146.002 165.552 146.194 164.724 146.578 164.016C146.974 163.308 147.508 162.756 148.18 162.36C148.864 161.964 149.632 161.766 150.484 161.766C151.564 161.766 152.458 162.048 153.166 162.612C153.886 163.164 154.348 163.908 154.552 164.844H153.004C152.872 164.28 152.572 163.842 152.104 163.53C151.636 163.218 151.09 163.062 150.466 163.062C149.962 163.062 149.488 163.194 149.044 163.458C148.6 163.71 148.24 164.094 147.964 164.61C147.688 165.114 147.55 165.744 147.55 166.5C147.55 167.052 147.628 167.544 147.784 167.976C147.952 168.408 148.168 168.774 148.432 169.074C148.708 169.362 149.02 169.578 149.368 169.722C149.728 169.866 150.094 169.938 150.466 169.938C150.886 169.938 151.27 169.872 151.618 169.74C151.966 169.596 152.26 169.392 152.5 169.128C152.752 168.852 152.92 168.528 153.004 168.156H154.552C154.36 169.068 153.898 169.806 153.166 170.37C152.446 170.934 151.552 171.216 150.484 171.216ZM160.731 171.216C159.891 171.216 159.135 171.024 158.463 170.64C157.791 170.244 157.257 169.692 156.861 168.984C156.477 168.276 156.285 167.448 156.285 166.5C156.285 165.54 156.483 164.706 156.879 163.998C157.275 163.29 157.809 162.744 158.481 162.36C159.165 161.964 159.927 161.766 160.767 161.766C161.619 161.766 162.381 161.964 163.053 162.36C163.725 162.744 164.253 163.29 164.637 163.998C165.021 164.706 165.213 165.54 165.213 166.5C165.213 167.448 165.015 168.276 164.619 168.984C164.235 169.692 163.701 170.244 163.017 170.64C162.345 171.024 161.583 171.216 160.731 171.216ZM160.731 169.92C161.259 169.92 161.745 169.794 162.189 169.542C162.633 169.29 162.987 168.906 163.251 168.39C163.527 167.874 163.665 167.244 163.665 166.5C163.665 165.732 163.533 165.096 163.269 164.592C163.005 164.088 162.651 163.71 162.207 163.458C161.763 163.194 161.283 163.062 160.767 163.062C160.263 163.062 159.783 163.194 159.327 163.458C158.883 163.71 158.523 164.088 158.247 164.592C157.971 165.096 157.833 165.732 157.833 166.5C157.833 167.244 157.971 167.874 158.247 168.39C158.523 168.906 158.877 169.29 159.309 169.542C159.753 169.794 160.227 169.92 160.731 169.92ZM169.486 171L166.066 161.982H167.65L170.368 169.542L173.086 161.982H174.634L171.232 171H169.486ZM179.872 171.216C179.02 171.216 178.264 171.024 177.604 170.64C176.944 170.244 176.422 169.692 176.038 168.984C175.666 168.264 175.48 167.436 175.48 166.5C175.48 165.54 175.666 164.712 176.038 164.016C176.41 163.308 176.926 162.756 177.586 162.36C178.258 161.964 179.032 161.766 179.908 161.766C180.784 161.766 181.534 161.964 182.158 162.36C182.782 162.756 183.256 163.272 183.58 163.908C183.916 164.544 184.084 165.24 184.084 165.996C184.084 166.116 184.084 166.248 184.084 166.392C184.084 166.524 184.078 166.674 184.066 166.842H176.614V165.672H182.59C182.554 164.844 182.278 164.202 181.762 163.746C181.258 163.278 180.628 163.044 179.872 163.044C179.356 163.044 178.876 163.164 178.432 163.404C177.988 163.632 177.628 163.968 177.352 164.412C177.088 164.856 176.956 165.414 176.956 166.086V166.59C176.956 167.322 177.094 167.94 177.37 168.444C177.646 168.948 178.006 169.326 178.45 169.578C178.894 169.818 179.368 169.938 179.872 169.938C180.496 169.938 181.012 169.8 181.42 169.524C181.84 169.236 182.146 168.846 182.338 168.354H183.832C183.676 168.906 183.418 169.398 183.058 169.83C182.698 170.25 182.248 170.586 181.708 170.838C181.18 171.09 180.568 171.216 179.872 171.216ZM186.106 171V161.982H187.474L187.6 163.71C187.792 163.302 188.044 162.954 188.356 162.666C188.68 162.378 189.064 162.156 189.508 162C189.952 161.844 190.456 161.766 191.02 161.766V163.35H190.534C190.138 163.35 189.76 163.404 189.4 163.512C189.052 163.608 188.74 163.77 188.464 163.998C188.2 164.226 187.99 164.538 187.834 164.934C187.69 165.318 187.618 165.804 187.618 166.392V171H186.106ZM195.686 171.216C194.942 171.216 194.324 171.09 193.832 170.838C193.352 170.586 192.992 170.25 192.752 169.83C192.512 169.398 192.392 168.93 192.392 168.426C192.392 167.814 192.548 167.298 192.86 166.878C193.184 166.458 193.634 166.14 194.21 165.924C194.798 165.696 195.482 165.582 196.262 165.582H198.674C198.674 165.018 198.584 164.55 198.404 164.178C198.236 163.806 197.984 163.524 197.648 163.332C197.312 163.14 196.904 163.044 196.424 163.044C195.848 163.044 195.344 163.194 194.912 163.494C194.492 163.782 194.234 164.202 194.138 164.754H192.59C192.662 164.118 192.878 163.578 193.238 163.134C193.61 162.69 194.078 162.354 194.642 162.126C195.206 161.886 195.8 161.766 196.424 161.766C197.252 161.766 197.942 161.922 198.494 162.234C199.058 162.534 199.478 162.96 199.754 163.512C200.042 164.052 200.186 164.694 200.186 165.438V171H198.836L198.746 169.398C198.626 169.65 198.47 169.89 198.278 170.118C198.098 170.334 197.882 170.526 197.63 170.694C197.39 170.85 197.108 170.976 196.784 171.072C196.46 171.168 196.094 171.216 195.686 171.216ZM195.92 169.938C196.352 169.938 196.736 169.854 197.072 169.686C197.408 169.506 197.696 169.266 197.936 168.966C198.188 168.666 198.374 168.33 198.494 167.958C198.614 167.574 198.674 167.184 198.674 166.788V166.752H196.388C195.812 166.752 195.344 166.824 194.984 166.968C194.624 167.1 194.366 167.286 194.21 167.526C194.054 167.766 193.976 168.042 193.976 168.354C193.976 168.678 194.048 168.96 194.192 169.2C194.348 169.44 194.57 169.626 194.858 169.758C195.146 169.878 195.5 169.938 195.92 169.938ZM206.071 175.176C205.255 175.176 204.535 175.068 203.911 174.852C203.287 174.648 202.795 174.33 202.435 173.898C202.087 173.466 201.913 172.932 201.913 172.296C201.913 172.032 201.967 171.744 202.075 171.432C202.195 171.12 202.393 170.814 202.669 170.514C202.957 170.214 203.359 169.944 203.875 169.704L204.919 170.316C204.295 170.58 203.881 170.88 203.677 171.216C203.485 171.552 203.389 171.864 203.389 172.152C203.389 172.548 203.503 172.878 203.731 173.142C203.971 173.406 204.289 173.604 204.685 173.736C205.093 173.868 205.555 173.934 206.071 173.934C206.575 173.934 207.013 173.856 207.385 173.7C207.757 173.556 208.045 173.352 208.249 173.088C208.453 172.824 208.555 172.518 208.555 172.17C208.555 171.762 208.399 171.414 208.087 171.126C207.775 170.85 207.187 170.688 206.323 170.64C205.615 170.592 205.021 170.526 204.541 170.442C204.073 170.358 203.677 170.262 203.353 170.154C203.041 170.034 202.777 169.902 202.561 169.758C202.357 169.614 202.171 169.464 202.003 169.308V168.894L203.767 167.148L205.063 167.616L203.263 169.254L203.497 168.624C203.629 168.72 203.755 168.81 203.875 168.894C203.995 168.978 204.157 169.05 204.361 169.11C204.577 169.17 204.865 169.224 205.225 169.272C205.585 169.32 206.065 169.368 206.665 169.416C207.481 169.476 208.135 169.62 208.627 169.848C209.131 170.076 209.491 170.382 209.707 170.766C209.935 171.15 210.049 171.6 210.049 172.116C210.049 172.62 209.905 173.106 209.617 173.574C209.341 174.042 208.909 174.426 208.321 174.726C207.733 175.026 206.983 175.176 206.071 175.176ZM206.053 168.174C205.297 168.174 204.649 168.03 204.109 167.742C203.581 167.454 203.179 167.07 202.903 166.59C202.627 166.11 202.489 165.57 202.489 164.97C202.489 164.382 202.627 163.848 202.903 163.368C203.191 162.888 203.599 162.504 204.127 162.216C204.655 161.916 205.297 161.766 206.053 161.766C206.809 161.766 207.451 161.916 207.979 162.216C208.507 162.504 208.909 162.888 209.185 163.368C209.461 163.848 209.599 164.382 209.599 164.97C209.599 165.57 209.461 166.11 209.185 166.59C208.909 167.07 208.507 167.454 207.979 167.742C207.451 168.03 206.809 168.174 206.053 168.174ZM206.053 166.932C206.689 166.932 207.193 166.764 207.565 166.428C207.949 166.092 208.141 165.606 208.141 164.97C208.141 164.346 207.949 163.866 207.565 163.53C207.193 163.194 206.689 163.026 206.053 163.026C205.417 163.026 204.901 163.194 204.505 163.53C204.121 163.866 203.929 164.346 203.929 164.97C203.929 165.606 204.121 166.092 204.505 166.428C204.889 166.764 205.405 166.932 206.053 166.932ZM207.511 163.26L207.061 161.982H210.769V163.116L207.511 163.26ZM216.136 171.216C215.284 171.216 214.528 171.024 213.868 170.64C213.208 170.244 212.686 169.692 212.302 168.984C211.93 168.264 211.744 167.436 211.744 166.5C211.744 165.54 211.93 164.712 212.302 164.016C212.674 163.308 213.19 162.756 213.85 162.36C214.522 161.964 215.296 161.766 216.172 161.766C217.048 161.766 217.798 161.964 218.422 162.36C219.046 162.756 219.52 163.272 219.844 163.908C220.18 164.544 220.348 165.24 220.348 165.996C220.348 166.116 220.348 166.248 220.348 166.392C220.348 166.524 220.342 166.674 220.33 166.842H212.878V165.672H218.854C218.818 164.844 218.542 164.202 218.026 163.746C217.522 163.278 216.892 163.044 216.136 163.044C215.62 163.044 215.14 163.164 214.696 163.404C214.252 163.632 213.892 163.968 213.616 164.412C213.352 164.856 213.22 165.414 213.22 166.086V166.59C213.22 167.322 213.358 167.94 213.634 168.444C213.91 168.948 214.27 169.326 214.714 169.578C215.158 169.818 215.632 169.938 216.136 169.938C216.76 169.938 217.276 169.8 217.684 169.524C218.104 169.236 218.41 168.846 218.602 168.354H220.096C219.94 168.906 219.682 169.398 219.322 169.83C218.962 170.25 218.512 170.586 217.972 170.838C217.444 171.09 216.832 171.216 216.136 171.216ZM230.121 171.216C229.377 171.216 228.759 171.09 228.267 170.838C227.787 170.586 227.427 170.25 227.187 169.83C226.947 169.398 226.827 168.93 226.827 168.426C226.827 167.814 226.983 167.298 227.295 166.878C227.619 166.458 228.069 166.14 228.645 165.924C229.233 165.696 229.917 165.582 230.697 165.582H233.109C233.109 165.018 233.019 164.55 232.839 164.178C232.671 163.806 232.419 163.524 232.083 163.332C231.747 163.14 231.339 163.044 230.859 163.044C230.283 163.044 229.779 163.194 229.347 163.494C228.927 163.782 228.669 164.202 228.573 164.754H227.025C227.097 164.118 227.313 163.578 227.673 163.134C228.045 162.69 228.513 162.354 229.077 162.126C229.641 161.886 230.235 161.766 230.859 161.766C231.687 161.766 232.377 161.922 232.929 162.234C233.493 162.534 233.913 162.96 234.189 163.512C234.477 164.052 234.621 164.694 234.621 165.438V171H233.271L233.181 169.398C233.061 169.65 232.905 169.89 232.713 170.118C232.533 170.334 232.317 170.526 232.065 170.694C231.825 170.85 231.543 170.976 231.219 171.072C230.895 171.168 230.529 171.216 230.121 171.216ZM230.355 169.938C230.787 169.938 231.171 169.854 231.507 169.686C231.843 169.506 232.131 169.266 232.371 168.966C232.623 168.666 232.809 168.33 232.929 167.958C233.049 167.574 233.109 167.184 233.109 166.788V166.752H230.823C230.247 166.752 229.779 166.824 229.419 166.968C229.059 167.1 228.801 167.286 228.645 167.526C228.489 167.766 228.411 168.042 228.411 168.354C228.411 168.678 228.483 168.96 228.627 169.2C228.783 169.44 229.005 169.626 229.293 169.758C229.581 169.878 229.935 169.938 230.355 169.938ZM236.925 171V161.982H238.293L238.383 163.584C238.671 163.02 239.085 162.576 239.625 162.252C240.165 161.928 240.777 161.766 241.461 161.766C242.157 161.766 242.763 161.91 243.279 162.198C243.795 162.474 244.197 162.9 244.485 163.476C244.773 164.052 244.917 164.778 244.917 165.654V171H243.405V165.816C243.405 164.904 243.207 164.22 242.811 163.764C242.415 163.296 241.851 163.062 241.119 163.062C240.603 163.062 240.141 163.188 239.733 163.44C239.337 163.692 239.019 164.052 238.779 164.52C238.551 164.988 238.437 165.564 238.437 166.248V171H236.925ZM251.275 171.216C250.399 171.216 249.625 171.012 248.953 170.604C248.293 170.184 247.777 169.62 247.405 168.912C247.045 168.192 246.865 167.382 246.865 166.482C246.865 165.57 247.045 164.76 247.405 164.052C247.777 163.344 248.299 162.786 248.971 162.378C249.643 161.97 250.417 161.766 251.293 161.766C252.025 161.766 252.673 161.916 253.237 162.216C253.801 162.516 254.233 162.936 254.533 163.476V158.04H256.045V171H254.677L254.551 169.524C254.359 169.812 254.113 170.088 253.813 170.352C253.513 170.604 253.153 170.814 252.733 170.982C252.313 171.138 251.827 171.216 251.275 171.216ZM251.437 169.902C252.037 169.902 252.565 169.764 253.021 169.488C253.489 169.2 253.849 168.804 254.101 168.3C254.353 167.784 254.479 167.184 254.479 166.5C254.479 165.816 254.353 165.222 254.101 164.718C253.849 164.202 253.489 163.8 253.021 163.512C252.565 163.224 252.037 163.08 251.437 163.08C250.861 163.08 250.339 163.224 249.871 163.512C249.415 163.8 249.055 164.202 248.791 164.718C248.539 165.222 248.413 165.816 248.413 166.5C248.413 167.184 248.539 167.784 248.791 168.3C249.055 168.804 249.415 169.2 249.871 169.488C250.339 169.764 250.861 169.902 251.437 169.902ZM133.389 198.96V185.982H134.757L134.901 187.458C135.093 187.17 135.339 186.9 135.639 186.648C135.939 186.384 136.299 186.174 136.719 186.018C137.139 185.85 137.625 185.766 138.177 185.766C139.053 185.766 139.815 185.976 140.463 186.396C141.123 186.804 141.639 187.368 142.011 188.088C142.383 188.796 142.569 189.606 142.569 190.518C142.569 191.418 142.383 192.222 142.011 192.93C141.639 193.638 141.123 194.196 140.463 194.604C139.803 195.012 139.035 195.216 138.159 195.216C137.427 195.216 136.779 195.066 136.215 194.766C135.651 194.466 135.213 194.046 134.901 193.506V198.96H133.389ZM137.997 193.902C138.585 193.902 139.107 193.764 139.563 193.488C140.019 193.2 140.373 192.804 140.625 192.3C140.889 191.784 141.021 191.184 141.021 190.5C141.021 189.816 140.889 189.222 140.625 188.718C140.373 188.202 140.019 187.8 139.563 187.512C139.107 187.224 138.585 187.08 137.997 187.08C137.397 187.08 136.863 187.224 136.395 187.512C135.939 187.8 135.579 188.202 135.315 188.718C135.063 189.222 134.937 189.816 134.937 190.5C134.937 191.184 135.063 191.784 135.315 192.3C135.579 192.804 135.939 193.2 136.395 193.488C136.863 193.764 137.397 193.902 137.997 193.902ZM144.675 195V185.982H146.043L146.169 187.71C146.361 187.302 146.613 186.954 146.925 186.666C147.249 186.378 147.633 186.156 148.077 186C148.521 185.844 149.025 185.766 149.589 185.766V187.35H149.103C148.707 187.35 148.329 187.404 147.969 187.512C147.621 187.608 147.309 187.77 147.033 187.998C146.769 188.226 146.559 188.538 146.403 188.934C146.259 189.318 146.187 189.804 146.187 190.392V195H144.675ZM155.018 195.216C154.178 195.216 153.422 195.024 152.75 194.64C152.078 194.244 151.544 193.692 151.148 192.984C150.764 192.276 150.572 191.448 150.572 190.5C150.572 189.54 150.77 188.706 151.166 187.998C151.562 187.29 152.096 186.744 152.768 186.36C153.452 185.964 154.214 185.766 155.054 185.766C155.906 185.766 156.668 185.964 157.34 186.36C158.012 186.744 158.54 187.29 158.924 187.998C159.308 188.706 159.5 189.54 159.5 190.5C159.5 191.448 159.302 192.276 158.906 192.984C158.522 193.692 157.988 194.244 157.304 194.64C156.632 195.024 155.87 195.216 155.018 195.216ZM155.018 193.92C155.546 193.92 156.032 193.794 156.476 193.542C156.92 193.29 157.274 192.906 157.538 192.39C157.814 191.874 157.952 191.244 157.952 190.5C157.952 189.732 157.82 189.096 157.556 188.592C157.292 188.088 156.938 187.71 156.494 187.458C156.05 187.194 155.57 187.062 155.054 187.062C154.55 187.062 154.07 187.194 153.614 187.458C153.17 187.71 152.81 188.088 152.534 188.592C152.258 189.096 152.12 189.732 152.12 190.5C152.12 191.244 152.258 191.874 152.534 192.39C152.81 192.906 153.164 193.29 153.596 193.542C154.04 193.794 154.514 193.92 155.018 193.92ZM164.832 195C164.292 195 163.824 194.916 163.428 194.748C163.032 194.58 162.726 194.298 162.51 193.902C162.306 193.494 162.204 192.948 162.204 192.264V187.26H160.638V185.982H162.204L162.402 183.822H163.716V185.982H166.344V187.26H163.716V192.264C163.716 192.828 163.83 193.212 164.058 193.416C164.286 193.608 164.688 193.704 165.264 193.704H166.218V195H164.832ZM172.05 195.216C171.198 195.216 170.442 195.024 169.782 194.64C169.122 194.244 168.6 193.692 168.216 192.984C167.844 192.264 167.658 191.436 167.658 190.5C167.658 189.54 167.844 188.712 168.216 188.016C168.588 187.308 169.104 186.756 169.764 186.36C170.436 185.964 171.21 185.766 172.086 185.766C172.962 185.766 173.712 185.964 174.336 186.36C174.96 186.756 175.434 187.272 175.758 187.908C176.094 188.544 176.262 189.24 176.262 189.996C176.262 190.116 176.262 190.248 176.262 190.392C176.262 190.524 176.256 190.674 176.244 190.842H168.792V189.672H174.768C174.732 188.844 174.456 188.202 173.94 187.746C173.436 187.278 172.806 187.044 172.05 187.044C171.534 187.044 171.054 187.164 170.61 187.404C170.166 187.632 169.806 187.968 169.53 188.412C169.266 188.856 169.134 189.414 169.134 190.086V190.59C169.134 191.322 169.272 191.94 169.548 192.444C169.824 192.948 170.184 193.326 170.628 193.578C171.072 193.818 171.546 193.938 172.05 193.938C172.674 193.938 173.19 193.8 173.598 193.524C174.018 193.236 174.324 192.846 174.516 192.354H176.01C175.854 192.906 175.596 193.398 175.236 193.83C174.876 194.25 174.426 194.586 173.886 194.838C173.358 195.09 172.746 195.216 172.05 195.216ZM182.388 195.216C181.536 195.216 180.768 195.018 180.084 194.622C179.412 194.226 178.878 193.674 178.482 192.966C178.098 192.258 177.906 191.436 177.906 190.5C177.906 189.552 178.098 188.724 178.482 188.016C178.878 187.308 179.412 186.756 180.084 186.36C180.768 185.964 181.536 185.766 182.388 185.766C183.468 185.766 184.362 186.048 185.07 186.612C185.79 187.164 186.252 187.908 186.456 188.844H184.908C184.776 188.28 184.476 187.842 184.008 187.53C183.54 187.218 182.994 187.062 182.37 187.062C181.866 187.062 181.392 187.194 180.948 187.458C180.504 187.71 180.144 188.094 179.868 188.61C179.592 189.114 179.454 189.744 179.454 190.5C179.454 191.052 179.532 191.544 179.688 191.976C179.856 192.408 180.072 192.774 180.336 193.074C180.612 193.362 180.924 193.578 181.272 193.722C181.632 193.866 181.998 193.938 182.37 193.938C182.79 193.938 183.174 193.872 183.522 193.74C183.87 193.596 184.164 193.392 184.404 193.128C184.656 192.852 184.824 192.528 184.908 192.156H186.456C186.264 193.068 185.802 193.806 185.07 194.37C184.35 194.934 183.456 195.216 182.388 195.216ZM191.885 195C191.345 195 190.877 194.916 190.481 194.748C190.085 194.58 189.779 194.298 189.563 193.902C189.359 193.494 189.257 192.948 189.257 192.264V187.26H187.691V185.982H189.257L189.455 183.822H190.769V185.982H193.397V187.26H190.769V192.264C190.769 192.828 190.883 193.212 191.111 193.416C191.339 193.608 191.741 193.704 192.317 193.704H193.271V195H191.885ZM195.497 195V185.982H197.009V195H195.497ZM196.253 184.038C195.953 184.038 195.701 183.942 195.497 183.75C195.305 183.546 195.209 183.294 195.209 182.994C195.209 182.694 195.305 182.454 195.497 182.274C195.701 182.082 195.953 181.986 196.253 181.986C196.541 181.986 196.787 182.082 196.991 182.274C197.195 182.454 197.297 182.694 197.297 182.994C197.297 183.294 197.195 183.546 196.991 183.75C196.787 183.942 196.541 184.038 196.253 184.038ZM203.709 195.216C202.869 195.216 202.113 195.024 201.441 194.64C200.769 194.244 200.235 193.692 199.839 192.984C199.455 192.276 199.263 191.448 199.263 190.5C199.263 189.54 199.461 188.706 199.857 187.998C200.253 187.29 200.787 186.744 201.459 186.36C202.143 185.964 202.905 185.766 203.745 185.766C204.597 185.766 205.359 185.964 206.031 186.36C206.703 186.744 207.231 187.29 207.615 187.998C207.999 188.706 208.191 189.54 208.191 190.5C208.191 191.448 207.993 192.276 207.597 192.984C207.213 193.692 206.679 194.244 205.995 194.64C205.323 195.024 204.561 195.216 203.709 195.216ZM203.709 193.92C204.237 193.92 204.723 193.794 205.167 193.542C205.611 193.29 205.965 192.906 206.229 192.39C206.505 191.874 206.643 191.244 206.643 190.5C206.643 189.732 206.511 189.096 206.247 188.592C205.983 188.088 205.629 187.71 205.185 187.458C204.741 187.194 204.261 187.062 203.745 187.062C203.241 187.062 202.761 187.194 202.305 187.458C201.861 187.71 201.501 188.088 201.225 188.592C200.949 189.096 200.811 189.732 200.811 190.5C200.811 191.244 200.949 191.874 201.225 192.39C201.501 192.906 201.855 193.29 202.287 193.542C202.731 193.794 203.205 193.92 203.709 193.92ZM210.311 195V185.982H211.679L211.769 187.584C212.057 187.02 212.471 186.576 213.011 186.252C213.551 185.928 214.163 185.766 214.847 185.766C215.543 185.766 216.149 185.91 216.665 186.198C217.181 186.474 217.583 186.9 217.871 187.476C218.159 188.052 218.303 188.778 218.303 189.654V195H216.791V189.816C216.791 188.904 216.593 188.22 216.197 187.764C215.801 187.296 215.237 187.062 214.505 187.062C213.989 187.062 213.527 187.188 213.119 187.44C212.723 187.692 212.405 188.052 212.165 188.52C211.937 188.988 211.823 189.564 211.823 190.248V195H210.311ZM220.99 191.454L220.81 182.4H222.448L222.268 191.454H220.99ZM221.62 195.09C221.332 195.09 221.086 194.994 220.882 194.802C220.69 194.598 220.594 194.352 220.594 194.064C220.594 193.776 220.69 193.536 220.882 193.344C221.086 193.14 221.332 193.038 221.62 193.038C221.932 193.038 222.178 193.14 222.358 193.344C222.55 193.536 222.646 193.776 222.646 194.064C222.646 194.352 222.55 194.598 222.358 194.802C222.178 194.994 221.932 195.09 221.62 195.09Z" fill="#1C3A29"/>
</g>
<rect x="38.8452" y="7.1582" width="24.9111" height="16.9199" fill="white"/>
<path d="M65.3407 48.3194C66.5535 44.3054 69.0675 40.8828 71.5562 37.4727C72.2132 36.5793 72.8701 35.6859 73.5017 34.7799C76.0031 31.1937 77.4685 26.8525 77.4685 22.159C77.4685 9.91555 67.5136 0 55.2343 0C42.9549 0 33 9.91555 33 22.1464C33 26.8399 34.4654 31.1937 36.9668 34.7673C37.5984 35.6733 38.2554 36.5667 38.9123 37.4601C41.4136 40.8702 43.9276 44.3054 45.1278 48.3068H65.3407V48.3194ZM45.1278 22.1464C45.1278 23.2537 44.2182 24.1597 43.1065 24.1597C41.9948 24.1597 41.0852 23.2537 41.0852 22.1464C41.0852 14.3574 47.4144 8.05324 55.2343 8.05324C56.346 8.05324 57.2556 8.95923 57.2556 10.0665C57.2556 11.1739 56.346 12.0799 55.2343 12.0799C49.6504 12.0799 45.1278 16.5846 45.1278 22.1464Z" fill="#FFCD40"/>
<path d="M55.5074 64.1414C61.0912 64.1414 65.6138 59.6366 65.6138 54.0748V52.0615H45.4009V54.0748C45.4009 59.6366 49.9235 64.1414 55.5074 64.1414Z" fill="#909090"/>
<path d="M17.9038 51.7862L21.065 52.5362C24.445 53.3256 24.445 58.102 21.065 58.8914L17.9038 59.6414C16.8501 59.898 16.015 60.7072 15.7565 61.773L15.001 64.9112C14.2057 68.2664 9.39427 68.2664 8.59899 64.9112L7.84346 61.773C7.585 60.7269 6.76986 59.898 5.69623 59.6414L2.53496 58.8914C-0.844987 58.102 -0.844987 53.3256 2.53496 52.5362L5.69623 51.7862C6.74998 51.5296 7.585 50.7204 7.84346 49.6546L8.59899 46.5164C9.39427 43.1612 14.2057 43.1612 15.001 46.5164L15.7565 49.6546C16.015 50.7006 16.8302 51.5296 17.9038 51.7862Z" fill="#FFCD40"/>
<defs>
<filter id="filter0_d_12_243" x="45" y="22" width="266" height="224" filterUnits="userSpaceOnUse" color-interpolation-filters="sRGB">
<feFlood flood-opacity="0" result="BackgroundImageFix"/>
<feColorMatrix in="SourceAlpha" type="matrix" values="0 0 0 0 0 0 0 0 0 0 0 0 0 0 0 0 0 0 127 0" result="hardAlpha"/>
<feOffset dy="5"/>
<feGaussianBlur stdDeviation="5"/>
<feColorMatrix type="matrix" values="0 0 0 0 0 0 0 0 0 0 0 0 0 0 0 0 0 0 0.15 0"/>
<feBlend mode="normal" in2="BackgroundImageFix" result="effect1_dropShadow_12_243"/>
<feBlend mode="normal" in="SourceGraphic" in2="effect1_dropShadow_12_243" result="shape"/>
</filter>
</defs>
</svg>
