<svg width="279" height="240" viewBox="0 0 279 240" fill="none" xmlns="http://www.w3.org/2000/svg">
<g filter="url(#filter0_d_12_243)">
<rect x="23" y="21" width="246" height="204" rx="8" fill="#FAFFEA"/>
<path d="M57.4525 69V56.4H60.3505L64.2385 64.248L68.0725 56.4H70.9705V69H68.5405V60.522L65.1745 67.218H63.2485L59.8825 60.522V69H57.4525ZM77.6615 69.216C76.7975 69.216 76.0175 69.018 75.3215 68.622C74.6375 68.214 74.0915 67.656 73.6835 66.948C73.2875 66.24 73.0895 65.424 73.0895 64.5C73.0895 63.564 73.2875 62.742 73.6835 62.034C74.0915 61.326 74.6435 60.774 75.3395 60.378C76.0355 59.97 76.8155 59.766 77.6795 59.766C78.5435 59.766 79.3235 59.97 80.0195 60.378C80.7155 60.774 81.2615 61.326 81.6575 62.034C82.0655 62.742 82.2695 63.564 82.2695 64.5C82.2695 65.424 82.0655 66.24 81.6575 66.948C81.2495 67.656 80.6975 68.214 80.0015 68.622C79.3175 69.018 78.5375 69.216 77.6615 69.216ZM77.6615 67.11C78.0575 67.11 78.4115 67.014 78.7235 66.822C79.0475 66.63 79.3055 66.342 79.4975 65.958C79.6895 65.562 79.7855 65.076 79.7855 64.5C79.7855 63.912 79.6895 63.426 79.4975 63.042C79.3175 62.658 79.0655 62.37 78.7415 62.178C78.4295 61.974 78.0755 61.872 77.6795 61.872C77.2955 61.872 76.9415 61.974 76.6175 62.178C76.2935 62.37 76.0355 62.658 75.8435 63.042C75.6515 63.426 75.5555 63.912 75.5555 64.5C75.5555 65.076 75.6515 65.562 75.8435 65.958C76.0355 66.342 76.2875 66.63 76.5995 66.822C76.9235 67.014 77.2775 67.11 77.6615 67.11ZM84.3462 72.96V59.982H86.5062L86.7582 61.242C86.9502 60.978 87.1782 60.738 87.4422 60.522C87.7062 60.294 88.0242 60.114 88.3962 59.982C88.7682 59.838 89.2002 59.766 89.6922 59.766C90.5442 59.766 91.2942 59.976 91.9422 60.396C92.5902 60.804 93.1002 61.368 93.4722 62.088C93.8562 62.796 94.0482 63.606 94.0482 64.518C94.0482 65.418 93.8562 66.222 93.4722 66.93C93.0882 67.638 92.5722 68.196 91.9242 68.604C91.2762 69.012 90.5322 69.216 89.6922 69.216C89.0322 69.216 88.4562 69.096 87.9642 68.856C87.4722 68.604 87.0762 68.262 86.7762 67.83V72.96H84.3462ZM89.1342 67.092C89.6142 67.092 90.0342 66.984 90.3942 66.768C90.7662 66.552 91.0542 66.252 91.2582 65.868C91.4742 65.472 91.5822 65.016 91.5822 64.5C91.5822 63.996 91.4742 63.546 91.2582 63.15C91.0542 62.754 90.7662 62.448 90.3942 62.232C90.0342 62.004 89.6142 61.89 89.1342 61.89C88.6662 61.89 88.2462 62.004 87.8742 62.232C87.5022 62.448 87.2142 62.754 87.0102 63.15C86.8062 63.534 86.7042 63.984 86.7042 64.5C86.7042 65.004 86.8062 65.454 87.0102 65.85C87.2142 66.246 87.5022 66.552 87.8742 66.768C88.2462 66.984 88.6662 67.092 89.1342 67.092ZM100.497 69.216C99.5851 69.216 98.7751 69.024 98.0671 68.64C97.3711 68.244 96.8251 67.698 96.4291 67.002C96.0451 66.306 95.8531 65.496 95.8531 64.572C95.8531 63.636 96.0451 62.808 96.4291 62.088C96.8131 61.368 97.3531 60.804 98.0491 60.396C98.7571 59.976 99.5731 59.766 100.497 59.766C101.397 59.766 102.183 59.964 102.855 60.36C103.527 60.744 104.049 61.272 104.421 61.944C104.805 62.616 104.997 63.378 104.997 64.23C104.997 64.35 104.997 64.482 104.997 64.626C104.997 64.77 104.985 64.926 104.961 65.094H97.5811V63.6H102.531C102.507 63.036 102.303 62.586 101.919 62.25C101.547 61.914 101.079 61.746 100.515 61.746C100.095 61.746 99.7111 61.842 99.3631 62.034C99.0151 62.214 98.7391 62.496 98.5351 62.88C98.3431 63.252 98.2471 63.726 98.2471 64.302V64.824C98.2471 65.316 98.3371 65.742 98.5171 66.102C98.7091 66.462 98.9731 66.744 99.3091 66.948C99.6571 67.14 100.047 67.236 100.479 67.236C100.923 67.236 101.289 67.14 101.577 66.948C101.877 66.756 102.105 66.504 102.261 66.192H104.745C104.577 66.756 104.289 67.266 103.881 67.722C103.485 68.178 102.999 68.544 102.423 68.82C101.859 69.084 101.217 69.216 100.497 69.216ZM111.019 69.216C110.191 69.216 109.447 69.012 108.787 68.604C108.139 68.196 107.623 67.638 107.239 66.93C106.867 66.21 106.681 65.4 106.681 64.5C106.681 63.588 106.867 62.778 107.239 62.07C107.623 61.35 108.145 60.786 108.805 60.378C109.477 59.97 110.227 59.766 111.055 59.766C111.715 59.766 112.291 59.892 112.783 60.144C113.275 60.384 113.671 60.72 113.971 61.152V56.04H116.401V69H114.241L113.971 67.758C113.779 68.01 113.551 68.25 113.287 68.478C113.023 68.706 112.705 68.886 112.333 69.018C111.961 69.15 111.523 69.216 111.019 69.216ZM111.595 67.092C112.075 67.092 112.495 66.984 112.855 66.768C113.227 66.54 113.515 66.234 113.719 65.85C113.923 65.454 114.025 65.004 114.025 64.5C114.025 63.984 113.923 63.534 113.719 63.15C113.515 62.754 113.227 62.448 112.855 62.232C112.483 62.004 112.057 61.89 111.577 61.89C111.121 61.89 110.707 62.004 110.335 62.232C109.963 62.448 109.669 62.754 109.453 63.15C109.249 63.534 109.147 63.978 109.147 64.482C109.147 64.986 109.249 65.436 109.453 65.832C109.669 66.228 109.963 66.54 110.335 66.768C110.707 66.984 111.127 67.092 111.595 67.092ZM123 69V59.982H125.161L125.377 61.656C125.605 61.272 125.875 60.942 126.187 60.666C126.511 60.378 126.883 60.156 127.303 60C127.735 59.844 128.203 59.766 128.707 59.766V62.34H127.951C127.579 62.34 127.237 62.382 126.925 62.466C126.625 62.55 126.361 62.688 126.133 62.88C125.905 63.072 125.731 63.33 125.611 63.654C125.491 63.978 125.431 64.386 125.431 64.878V69H123ZM133.373 69.216C132.617 69.216 131.993 69.096 131.501 68.856C131.009 68.604 130.643 68.274 130.403 67.866C130.163 67.446 130.043 66.99 130.043 66.498C130.043 65.946 130.181 65.46 130.457 65.04C130.745 64.62 131.177 64.296 131.753 64.068C132.329 63.828 133.049 63.708 133.913 63.708H136.163C136.163 63.264 136.103 62.898 135.983 62.61C135.863 62.322 135.671 62.106 135.407 61.962C135.155 61.818 134.825 61.746 134.417 61.746C133.961 61.746 133.571 61.848 133.247 62.052C132.923 62.256 132.725 62.562 132.653 62.97H130.277C130.349 62.31 130.565 61.746 130.925 61.278C131.297 60.798 131.783 60.426 132.383 60.162C132.995 59.898 133.679 59.766 134.435 59.766C135.287 59.766 136.025 59.91 136.649 60.198C137.273 60.486 137.753 60.9 138.089 61.44C138.425 61.98 138.593 62.646 138.593 63.438V69H136.541L136.271 67.614C136.139 67.854 135.983 68.07 135.803 68.262C135.623 68.454 135.413 68.622 135.173 68.766C134.933 68.91 134.663 69.018 134.363 69.09C134.063 69.174 133.733 69.216 133.373 69.216ZM133.949 67.344C134.261 67.344 134.537 67.29 134.777 67.182C135.029 67.062 135.245 66.906 135.425 66.714C135.605 66.51 135.743 66.282 135.839 66.03C135.947 65.766 136.019 65.49 136.055 65.202V65.184H134.201C133.829 65.184 133.523 65.232 133.283 65.328C133.055 65.424 132.881 65.556 132.761 65.724C132.653 65.88 132.599 66.066 132.599 66.282C132.599 66.51 132.653 66.702 132.761 66.858C132.881 67.014 133.043 67.134 133.247 67.218C133.451 67.302 133.685 67.344 133.949 67.344ZM144.805 69C144.169 69 143.611 68.904 143.131 68.712C142.663 68.508 142.297 68.178 142.033 67.722C141.769 67.254 141.637 66.618 141.637 65.814V62.016H140.089V59.982H141.637L141.907 57.534H144.067V59.982H146.443V62.016H144.067V65.85C144.067 66.258 144.157 66.54 144.337 66.696C144.517 66.852 144.823 66.93 145.255 66.93H146.407V69H144.805ZM152.599 69.216C151.687 69.216 150.877 69.024 150.169 68.64C149.473 68.244 148.927 67.698 148.531 67.002C148.147 66.306 147.955 65.496 147.955 64.572C147.955 63.636 148.147 62.808 148.531 62.088C148.915 61.368 149.455 60.804 150.151 60.396C150.859 59.976 151.675 59.766 152.599 59.766C153.499 59.766 154.285 59.964 154.957 60.36C155.629 60.744 156.151 61.272 156.523 61.944C156.907 62.616 157.099 63.378 157.099 64.23C157.099 64.35 157.099 64.482 157.099 64.626C157.099 64.77 157.087 64.926 157.063 65.094H149.683V63.6H154.633C154.609 63.036 154.405 62.586 154.021 62.25C153.649 61.914 153.181 61.746 152.617 61.746C152.197 61.746 151.813 61.842 151.465 62.034C151.117 62.214 150.841 62.496 150.637 62.88C150.445 63.252 150.349 63.726 150.349 64.302V64.824C150.349 65.316 150.439 65.742 150.619 66.102C150.811 66.462 151.075 66.744 151.411 66.948C151.759 67.14 152.149 67.236 152.581 67.236C153.025 67.236 153.391 67.14 153.679 66.948C153.979 66.756 154.207 66.504 154.363 66.192H156.847C156.679 66.756 156.391 67.266 155.983 67.722C155.587 68.178 155.101 68.544 154.525 68.82C153.961 69.084 153.319 69.216 152.599 69.216ZM163.121 69.216C162.293 69.216 161.549 69.012 160.889 68.604C160.241 68.196 159.725 67.638 159.341 66.93C158.969 66.21 158.783 65.4 158.783 64.5C158.783 63.588 158.969 62.778 159.341 62.07C159.725 61.35 160.247 60.786 160.907 60.378C161.579 59.97 162.329 59.766 163.157 59.766C163.817 59.766 164.393 59.892 164.885 60.144C165.377 60.384 165.773 60.72 166.073 61.152V56.04H168.503V69H166.343L166.073 67.758C165.881 68.01 165.653 68.25 165.389 68.478C165.125 68.706 164.807 68.886 164.435 69.018C164.063 69.15 163.625 69.216 163.121 69.216ZM163.697 67.092C164.177 67.092 164.597 66.984 164.957 66.768C165.329 66.54 165.617 66.234 165.821 65.85C166.025 65.454 166.127 65.004 166.127 64.5C166.127 63.984 166.025 63.534 165.821 63.15C165.617 62.754 165.329 62.448 164.957 62.232C164.585 62.004 164.159 61.89 163.679 61.89C163.223 61.89 162.809 62.004 162.437 62.232C162.065 62.448 161.771 62.754 161.555 63.15C161.351 63.534 161.249 63.978 161.249 64.482C161.249 64.986 161.351 65.436 161.555 65.832C161.771 66.228 162.065 66.54 162.437 66.768C162.809 66.984 163.229 67.092 163.697 67.092ZM179.769 69.216C178.929 69.216 178.173 69.024 177.501 68.64C176.829 68.244 176.295 67.692 175.899 66.984C175.515 66.276 175.323 65.448 175.323 64.5C175.323 63.54 175.521 62.706 175.917 61.998C176.313 61.29 176.847 60.744 177.519 60.36C178.203 59.964 178.965 59.766 179.805 59.766C180.657 59.766 181.419 59.964 182.091 60.36C182.763 60.744 183.291 61.29 183.675 61.998C184.059 62.706 184.251 63.54 184.251 64.5C184.251 65.448 184.053 66.276 183.657 66.984C183.273 67.692 182.739 68.244 182.055 68.64C181.383 69.024 180.621 69.216 179.769 69.216ZM179.769 67.92C180.297 67.92 180.783 67.794 181.227 67.542C181.671 67.29 182.025 66.906 182.289 66.39C182.565 65.874 182.703 65.244 182.703 64.5C182.703 63.732 182.571 63.096 182.307 62.592C182.043 62.088 181.689 61.71 181.245 61.458C180.801 61.194 180.321 61.062 179.805 61.062C179.301 61.062 178.821 61.194 178.365 61.458C177.921 61.71 177.561 62.088 177.285 62.592C177.009 63.096 176.871 63.732 176.871 64.5C176.871 65.244 177.009 65.874 177.285 66.39C177.561 66.906 177.915 67.29 178.347 67.542C178.791 67.794 179.265 67.92 179.769 67.92ZM186.371 69V59.982H187.739L187.865 61.71C188.057 61.302 188.309 60.954 188.621 60.666C188.945 60.378 189.329 60.156 189.773 60C190.217 59.844 190.721 59.766 191.285 59.766V61.35H190.799C190.403 61.35 190.025 61.404 189.665 61.512C189.317 61.608 189.005 61.77 188.729 61.998C188.465 62.226 188.255 62.538 188.099 62.934C187.955 63.318 187.883 63.804 187.883 64.392V69H186.371ZM197.708 69V56.04H200.138V69H197.708ZM202.543 69V59.982H204.973V69H202.543ZM203.767 58.722C203.323 58.722 202.963 58.596 202.687 58.344C202.411 58.08 202.273 57.75 202.273 57.354C202.273 56.958 202.411 56.634 202.687 56.382C202.963 56.118 203.323 55.986 203.767 55.986C204.211 55.986 204.571 56.118 204.847 56.382C205.135 56.634 205.279 56.958 205.279 57.354C205.279 57.75 205.135 58.08 204.847 58.344C204.571 58.596 204.211 58.722 203.767 58.722ZM211.299 73.176C210.435 73.176 209.679 73.068 209.031 72.852C208.395 72.648 207.897 72.33 207.537 71.898C207.189 71.478 207.015 70.956 207.015 70.332C207.015 69.912 207.123 69.516 207.339 69.144C207.555 68.772 207.873 68.436 208.293 68.136C208.713 67.824 209.229 67.56 209.841 67.344L210.759 68.55C210.207 68.73 209.811 68.952 209.571 69.216C209.331 69.492 209.211 69.78 209.211 70.08C209.211 70.356 209.301 70.59 209.481 70.782C209.661 70.974 209.907 71.112 210.219 71.196C210.543 71.292 210.903 71.34 211.299 71.34C211.671 71.34 211.995 71.292 212.271 71.196C212.559 71.1 212.781 70.956 212.937 70.764C213.105 70.584 213.189 70.368 213.189 70.116C213.189 69.792 213.075 69.528 212.847 69.324C212.619 69.132 212.169 69.012 211.497 68.964C210.885 68.916 210.339 68.85 209.859 68.766C209.391 68.67 208.977 68.562 208.617 68.442C208.269 68.31 207.969 68.166 207.717 68.01C207.465 67.854 207.261 67.698 207.105 67.542V67.128L209.031 65.058L210.759 65.598L208.509 67.848L209.211 66.66C209.331 66.732 209.451 66.804 209.571 66.876C209.703 66.936 209.865 66.996 210.057 67.056C210.249 67.104 210.495 67.152 210.795 67.2C211.107 67.236 211.503 67.278 211.983 67.326C212.775 67.398 213.423 67.548 213.927 67.776C214.431 67.992 214.803 68.292 215.043 68.676C215.283 69.06 215.403 69.522 215.403 70.062C215.403 70.602 215.253 71.106 214.953 71.574C214.665 72.054 214.215 72.438 213.603 72.726C213.003 73.026 212.235 73.176 211.299 73.176ZM211.317 66.336C210.561 66.336 209.907 66.192 209.355 65.904C208.815 65.604 208.395 65.208 208.095 64.716C207.807 64.224 207.663 63.672 207.663 63.06C207.663 62.448 207.807 61.896 208.095 61.404C208.395 60.912 208.815 60.516 209.355 60.216C209.907 59.916 210.561 59.766 211.317 59.766C212.073 59.766 212.721 59.916 213.261 60.216C213.813 60.516 214.233 60.912 214.521 61.404C214.809 61.896 214.953 62.448 214.953 63.06C214.953 63.672 214.809 64.224 214.521 64.716C214.233 65.208 213.813 65.604 213.261 65.904C212.721 66.192 212.073 66.336 211.317 66.336ZM211.317 64.482C211.773 64.482 212.145 64.362 212.433 64.122C212.721 63.882 212.865 63.528 212.865 63.06C212.865 62.604 212.721 62.256 212.433 62.016C212.145 61.776 211.773 61.656 211.317 61.656C210.849 61.656 210.465 61.776 210.165 62.016C209.877 62.256 209.733 62.604 209.733 63.06C209.733 63.528 209.877 63.882 210.165 64.122C210.465 64.362 210.849 64.482 211.317 64.482ZM212.793 61.71L212.397 59.982H216.141V61.422L212.793 61.71ZM218.133 69V56.04H220.563V61.332C220.851 60.852 221.247 60.474 221.751 60.198C222.255 59.91 222.837 59.766 223.497 59.766C224.241 59.766 224.871 59.928 225.387 60.252C225.903 60.564 226.293 61.026 226.557 61.638C226.833 62.238 226.971 62.982 226.971 63.87V69H224.559V64.104C224.559 63.372 224.409 62.808 224.109 62.412C223.809 62.016 223.335 61.818 222.687 61.818C222.291 61.818 221.925 61.92 221.589 62.124C221.265 62.316 221.013 62.592 220.833 62.952C220.653 63.312 220.563 63.756 220.563 64.284V69H218.133ZM233.293 69C232.657 69 232.099 68.904 231.619 68.712C231.151 68.508 230.785 68.178 230.521 67.722C230.257 67.254 230.125 66.618 230.125 65.814V62.016H228.577V59.982H230.125L230.395 57.534H232.555V59.982H234.931V62.016H232.555V65.85C232.555 66.258 232.645 66.54 232.825 66.696C233.005 66.852 233.311 66.93 233.743 66.93H234.895V69H233.293ZM70.7583 93V83.982H72.8823L73.0803 85.188C73.3683 84.756 73.7463 84.414 74.2143 84.162C74.6943 83.898 75.2463 83.766 75.8703 83.766C76.3263 83.766 76.7343 83.826 77.0943 83.946C77.4663 84.066 77.7903 84.24 78.0663 84.468C78.3423 84.696 78.5763 84.984 78.7683 85.332C79.1043 84.852 79.5423 84.474 80.0823 84.198C80.6223 83.91 81.2163 83.766 81.8643 83.766C82.6443 83.766 83.2983 83.928 83.8263 84.252C84.3663 84.564 84.7743 85.026 85.0503 85.638C85.3263 86.238 85.4643 86.976 85.4643 87.852V93H83.0523V88.086C83.0523 87.354 82.9083 86.796 82.6203 86.412C82.3323 86.016 81.8943 85.818 81.3063 85.818C80.9103 85.818 80.5623 85.92 80.2623 86.124C79.9623 86.316 79.7283 86.592 79.5603 86.952C79.4043 87.312 79.3263 87.75 79.3263 88.266V93H76.8963V88.086C76.8963 87.354 76.7523 86.796 76.4643 86.412C76.1763 86.016 75.7263 85.818 75.1143 85.818C74.7423 85.818 74.4063 85.92 74.1063 86.124C73.8183 86.316 73.5903 86.592 73.4223 86.952C73.2663 87.312 73.1883 87.75 73.1883 88.266V93H70.7583ZM92.0052 93.216C91.1412 93.216 90.3612 93.018 89.6652 92.622C88.9812 92.214 88.4352 91.656 88.0272 90.948C87.6312 90.24 87.4332 89.424 87.4332 88.5C87.4332 87.564 87.6312 86.742 88.0272 86.034C88.4352 85.326 88.9872 84.774 89.6832 84.378C90.3792 83.97 91.1592 83.766 92.0232 83.766C92.8872 83.766 93.6672 83.97 94.3632 84.378C95.0592 84.774 95.6052 85.326 96.0012 86.034C96.4092 86.742 96.6132 87.564 96.6132 88.5C96.6132 89.424 96.4092 90.24 96.0012 90.948C95.5932 91.656 95.0412 92.214 94.3452 92.622C93.6612 93.018 92.8812 93.216 92.0052 93.216ZM92.0052 91.11C92.4012 91.11 92.7552 91.014 93.0672 90.822C93.3912 90.63 93.6492 90.342 93.8412 89.958C94.0332 89.562 94.1292 89.076 94.1292 88.5C94.1292 87.912 94.0332 87.426 93.8412 87.042C93.6612 86.658 93.4092 86.37 93.0852 86.178C92.7732 85.974 92.4192 85.872 92.0232 85.872C91.6392 85.872 91.2852 85.974 90.9612 86.178C90.6372 86.37 90.3792 86.658 90.1872 87.042C89.9952 87.426 89.8992 87.912 89.8992 88.5C89.8992 89.076 89.9952 89.562 90.1872 89.958C90.3792 90.342 90.6312 90.63 90.9432 90.822C91.2672 91.014 91.6212 91.11 92.0052 91.11ZM102.406 93C101.77 93 101.212 92.904 100.732 92.712C100.264 92.508 99.8984 92.178 99.6344 91.722C99.3704 91.254 99.2384 90.618 99.2384 89.814V86.016H97.6904V83.982H99.2384L99.5084 81.534H101.668V83.982H104.044V86.016H101.668V89.85C101.668 90.258 101.758 90.54 101.938 90.696C102.118 90.852 102.424 90.93 102.856 90.93H104.008V93H102.406ZM110.128 93.216C109.264 93.216 108.484 93.018 107.788 92.622C107.104 92.214 106.558 91.656 106.15 90.948C105.754 90.24 105.556 89.424 105.556 88.5C105.556 87.564 105.754 86.742 106.15 86.034C106.558 85.326 107.11 84.774 107.806 84.378C108.502 83.97 109.282 83.766 110.146 83.766C111.01 83.766 111.79 83.97 112.486 84.378C113.182 84.774 113.728 85.326 114.124 86.034C114.532 86.742 114.736 87.564 114.736 88.5C114.736 89.424 114.532 90.24 114.124 90.948C113.716 91.656 113.164 92.214 112.468 92.622C111.784 93.018 111.004 93.216 110.128 93.216ZM110.128 91.11C110.524 91.11 110.878 91.014 111.19 90.822C111.514 90.63 111.772 90.342 111.964 89.958C112.156 89.562 112.252 89.076 112.252 88.5C112.252 87.912 112.156 87.426 111.964 87.042C111.784 86.658 111.532 86.37 111.208 86.178C110.896 85.974 110.542 85.872 110.146 85.872C109.762 85.872 109.408 85.974 109.084 86.178C108.76 86.37 108.502 86.658 108.31 87.042C108.118 87.426 108.022 87.912 108.022 88.5C108.022 89.076 108.118 89.562 108.31 89.958C108.502 90.342 108.754 90.63 109.066 90.822C109.39 91.014 109.744 91.11 110.128 91.11ZM116.813 93V83.982H118.973L119.189 85.656C119.417 85.272 119.687 84.942 119.999 84.666C120.323 84.378 120.695 84.156 121.115 84C121.547 83.844 122.015 83.766 122.519 83.766V86.34H121.763C121.391 86.34 121.049 86.382 120.737 86.466C120.437 86.55 120.173 86.688 119.945 86.88C119.717 87.072 119.543 87.33 119.423 87.654C119.303 87.978 119.243 88.386 119.243 88.878V93H116.813ZM128.377 93.216C127.465 93.216 126.655 93.018 125.947 92.622C125.239 92.214 124.687 91.656 124.291 90.948C123.895 90.24 123.697 89.43 123.697 88.518C123.697 87.582 123.895 86.76 124.291 86.052C124.687 85.344 125.239 84.786 125.947 84.378C126.655 83.97 127.465 83.766 128.377 83.766C129.541 83.766 130.513 84.072 131.293 84.684C132.085 85.284 132.589 86.118 132.805 87.186H130.231C130.123 86.766 129.901 86.442 129.565 86.214C129.229 85.974 128.827 85.854 128.359 85.854C127.939 85.854 127.561 85.962 127.225 86.178C126.901 86.382 126.643 86.682 126.451 87.078C126.259 87.474 126.163 87.948 126.163 88.5C126.163 88.908 126.217 89.274 126.325 89.598C126.445 89.922 126.601 90.204 126.793 90.444C126.985 90.672 127.213 90.846 127.477 90.966C127.753 91.086 128.047 91.146 128.359 91.146C128.671 91.146 128.953 91.098 129.205 91.002C129.457 90.894 129.673 90.738 129.853 90.534C130.033 90.33 130.159 90.084 130.231 89.796H132.805C132.589 90.84 132.085 91.674 131.293 92.298C130.501 92.91 129.529 93.216 128.377 93.216ZM136.035 96.96L138.249 91.992H137.709L134.073 83.982H136.701L139.311 89.778L141.651 83.982H144.243L138.609 96.96H136.035ZM149.383 93.216C148.471 93.216 147.661 93.018 146.953 92.622C146.245 92.214 145.693 91.656 145.297 90.948C144.901 90.24 144.703 89.43 144.703 88.518C144.703 87.582 144.901 86.76 145.297 86.052C145.693 85.344 146.245 84.786 146.953 84.378C147.661 83.97 148.471 83.766 149.383 83.766C150.547 83.766 151.519 84.072 152.299 84.684C153.091 85.284 153.595 86.118 153.811 87.186H151.237C151.129 86.766 150.907 86.442 150.571 86.214C150.235 85.974 149.833 85.854 149.365 85.854C148.945 85.854 148.567 85.962 148.231 86.178C147.907 86.382 147.649 86.682 147.457 87.078C147.265 87.474 147.169 87.948 147.169 88.5C147.169 88.908 147.223 89.274 147.331 89.598C147.451 89.922 147.607 90.204 147.799 90.444C147.991 90.672 148.219 90.846 148.483 90.966C148.759 91.086 149.053 91.146 149.365 91.146C149.677 91.146 149.959 91.098 150.211 91.002C150.463 90.894 150.679 90.738 150.859 90.534C151.039 90.33 151.165 90.084 151.237 89.796H153.811C153.595 90.84 153.091 91.674 152.299 92.298C151.507 92.91 150.535 93.216 149.383 93.216ZM155.907 93V80.04H158.337V93H155.907ZM165.044 93.216C164.132 93.216 163.322 93.024 162.614 92.64C161.918 92.244 161.372 91.698 160.976 91.002C160.592 90.306 160.4 89.496 160.4 88.572C160.4 87.636 160.592 86.808 160.976 86.088C161.36 85.368 161.9 84.804 162.596 84.396C163.304 83.976 164.12 83.766 165.044 83.766C165.944 83.766 166.73 83.964 167.402 84.36C168.074 84.744 168.596 85.272 168.968 85.944C169.352 86.616 169.544 87.378 169.544 88.23C169.544 88.35 169.544 88.482 169.544 88.626C169.544 88.77 169.532 88.926 169.508 89.094H162.128V87.6H167.078C167.054 87.036 166.85 86.586 166.466 86.25C166.094 85.914 165.626 85.746 165.062 85.746C164.642 85.746 164.258 85.842 163.91 86.034C163.562 86.214 163.286 86.496 163.082 86.88C162.89 87.252 162.794 87.726 162.794 88.302V88.824C162.794 89.316 162.884 89.742 163.064 90.102C163.256 90.462 163.52 90.744 163.856 90.948C164.204 91.14 164.594 91.236 165.026 91.236C165.47 91.236 165.836 91.14 166.124 90.948C166.424 90.756 166.652 90.504 166.808 90.192H169.292C169.124 90.756 168.836 91.266 168.428 91.722C168.032 92.178 167.546 92.544 166.97 92.82C166.406 93.084 165.764 93.216 165.044 93.216ZM175.752 93V83.982H177.912L178.128 85.656C178.356 85.272 178.626 84.942 178.938 84.666C179.262 84.378 179.634 84.156 180.054 84C180.486 83.844 180.954 83.766 181.458 83.766V86.34H180.702C180.33 86.34 179.988 86.382 179.676 86.466C179.376 86.55 179.112 86.688 178.884 86.88C178.656 87.072 178.482 87.33 178.362 87.654C178.242 87.978 178.182 88.386 178.182 88.878V93H175.752ZM186.125 93.216C185.369 93.216 184.745 93.096 184.253 92.856C183.761 92.604 183.395 92.274 183.155 91.866C182.915 91.446 182.795 90.99 182.795 90.498C182.795 89.946 182.933 89.46 183.209 89.04C183.497 88.62 183.929 88.296 184.505 88.068C185.081 87.828 185.801 87.708 186.665 87.708H188.915C188.915 87.264 188.855 86.898 188.735 86.61C188.615 86.322 188.423 86.106 188.159 85.962C187.907 85.818 187.577 85.746 187.169 85.746C186.713 85.746 186.323 85.848 185.999 86.052C185.675 86.256 185.477 86.562 185.405 86.97H183.029C183.101 86.31 183.317 85.746 183.677 85.278C184.049 84.798 184.535 84.426 185.135 84.162C185.747 83.898 186.431 83.766 187.187 83.766C188.039 83.766 188.777 83.91 189.401 84.198C190.025 84.486 190.505 84.9 190.841 85.44C191.177 85.98 191.345 86.646 191.345 87.438V93H189.293L189.023 91.614C188.891 91.854 188.735 92.07 188.555 92.262C188.375 92.454 188.165 92.622 187.925 92.766C187.685 92.91 187.415 93.018 187.115 93.09C186.815 93.174 186.485 93.216 186.125 93.216ZM186.701 91.344C187.013 91.344 187.289 91.29 187.529 91.182C187.781 91.062 187.997 90.906 188.177 90.714C188.357 90.51 188.495 90.282 188.591 90.03C188.699 89.766 188.771 89.49 188.807 89.202V89.184H186.953C186.581 89.184 186.275 89.232 186.035 89.328C185.807 89.424 185.633 89.556 185.513 89.724C185.405 89.88 185.351 90.066 185.351 90.282C185.351 90.51 185.405 90.702 185.513 90.858C185.633 91.014 185.795 91.134 185.999 91.218C186.203 91.302 186.437 91.344 186.701 91.344ZM197.557 93C196.921 93 196.363 92.904 195.883 92.712C195.415 92.508 195.049 92.178 194.785 91.722C194.521 91.254 194.389 90.618 194.389 89.814V86.016H192.841V83.982H194.389L194.659 81.534H196.819V83.982H199.195V86.016H196.819V89.85C196.819 90.258 196.909 90.54 197.089 90.696C197.269 90.852 197.575 90.93 198.007 90.93H199.159V93H197.557ZM205.351 93.216C204.439 93.216 203.629 93.024 202.921 92.64C202.225 92.244 201.679 91.698 201.283 91.002C200.899 90.306 200.707 89.496 200.707 88.572C200.707 87.636 200.899 86.808 201.283 86.088C201.667 85.368 202.207 84.804 202.903 84.396C203.611 83.976 204.427 83.766 205.351 83.766C206.251 83.766 207.037 83.964 207.709 84.36C208.381 84.744 208.903 85.272 209.275 85.944C209.659 86.616 209.851 87.378 209.851 88.23C209.851 88.35 209.851 88.482 209.851 88.626C209.851 88.77 209.839 88.926 209.815 89.094H202.435V87.6H207.385C207.361 87.036 207.157 86.586 206.773 86.25C206.401 85.914 205.933 85.746 205.369 85.746C204.949 85.746 204.565 85.842 204.217 86.034C203.869 86.214 203.593 86.496 203.389 86.88C203.197 87.252 203.101 87.726 203.101 88.302V88.824C203.101 89.316 203.191 89.742 203.371 90.102C203.563 90.462 203.827 90.744 204.163 90.948C204.511 91.14 204.901 91.236 205.333 91.236C205.777 91.236 206.143 91.14 206.431 90.948C206.731 90.756 206.959 90.504 207.115 90.192H209.599C209.431 90.756 209.143 91.266 208.735 91.722C208.339 92.178 207.853 92.544 207.277 92.82C206.713 93.084 206.071 93.216 205.351 93.216ZM215.873 93.216C215.045 93.216 214.301 93.012 213.641 92.604C212.993 92.196 212.477 91.638 212.093 90.93C211.721 90.21 211.535 89.4 211.535 88.5C211.535 87.588 211.721 86.778 212.093 86.07C212.477 85.35 212.999 84.786 213.659 84.378C214.331 83.97 215.081 83.766 215.909 83.766C216.569 83.766 217.145 83.892 217.637 84.144C218.129 84.384 218.525 84.72 218.825 85.152V80.04H221.255V93H219.095L218.825 91.758C218.633 92.01 218.405 92.25 218.141 92.478C217.877 92.706 217.559 92.886 217.187 93.018C216.815 93.15 216.377 93.216 215.873 93.216ZM216.449 91.092C216.929 91.092 217.349 90.984 217.709 90.768C218.081 90.54 218.369 90.234 218.573 89.85C218.777 89.454 218.879 89.004 218.879 88.5C218.879 87.984 218.777 87.534 218.573 87.15C218.369 86.754 218.081 86.448 217.709 86.232C217.337 86.004 216.911 85.89 216.431 85.89C215.975 85.89 215.561 86.004 215.189 86.232C214.817 86.448 214.523 86.754 214.307 87.15C214.103 87.534 214.001 87.978 214.001 88.482C214.001 88.986 214.103 89.436 214.307 89.832C214.523 90.228 214.817 90.54 215.189 90.768C215.561 90.984 215.981 91.092 216.449 91.092ZM62.0484 117V104.04H64.4784V109.332C64.7664 108.852 65.1624 108.474 65.6664 108.198C66.1704 107.91 66.7524 107.766 67.4124 107.766C68.1564 107.766 68.7864 107.928 69.3024 108.252C69.8184 108.564 70.2084 109.026 70.4724 109.638C70.7484 110.238 70.8864 110.982 70.8864 111.87V117H68.4744V112.104C68.4744 111.372 68.3244 110.808 68.0244 110.412C67.7244 110.016 67.2504 109.818 66.6024 109.818C66.2064 109.818 65.8404 109.92 65.5044 110.124C65.1804 110.316 64.9284 110.592 64.7484 110.952C64.5684 111.312 64.4784 111.756 64.4784 112.284V117H62.0484ZM77.4961 117.216C76.5841 117.216 75.7741 117.024 75.0661 116.64C74.3701 116.244 73.8241 115.698 73.4281 115.002C73.0441 114.306 72.8521 113.496 72.8521 112.572C72.8521 111.636 73.0441 110.808 73.4281 110.088C73.8121 109.368 74.3521 108.804 75.0481 108.396C75.7561 107.976 76.5721 107.766 77.4961 107.766C78.3961 107.766 79.1821 107.964 79.8541 108.36C80.5261 108.744 81.0481 109.272 81.4201 109.944C81.8041 110.616 81.9961 111.378 81.9961 112.23C81.9961 112.35 81.9961 112.482 81.9961 112.626C81.9961 112.77 81.9841 112.926 81.9601 113.094H74.5801V111.6H79.5301C79.5061 111.036 79.3021 110.586 78.9181 110.25C78.5461 109.914 78.0781 109.746 77.5141 109.746C77.0941 109.746 76.7101 109.842 76.3621 110.034C76.0141 110.214 75.7381 110.496 75.5341 110.88C75.3421 111.252 75.2461 111.726 75.2461 112.302V112.824C75.2461 113.316 75.3361 113.742 75.5161 114.102C75.7081 114.462 75.9721 114.744 76.3081 114.948C76.6561 115.14 77.0461 115.236 77.4781 115.236C77.9221 115.236 78.2881 115.14 78.5761 114.948C78.8761 114.756 79.1041 114.504 79.2601 114.192H81.7441C81.5761 114.756 81.2881 115.266 80.8801 115.722C80.4841 116.178 79.9981 116.544 79.4221 116.82C78.8581 117.084 78.2161 117.216 77.4961 117.216ZM83.9683 117V104.04H86.3983V117H83.9683ZM88.7495 117V107.982H90.8735L91.0715 109.188C91.3595 108.756 91.7375 108.414 92.2055 108.162C92.6855 107.898 93.2375 107.766 93.8615 107.766C94.3175 107.766 94.7255 107.826 95.0855 107.946C95.4575 108.066 95.7815 108.24 96.0575 108.468C96.3335 108.696 96.5675 108.984 96.7595 109.332C97.0955 108.852 97.5335 108.474 98.0735 108.198C98.6135 107.91 99.2075 107.766 99.8555 107.766C100.636 107.766 101.29 107.928 101.818 108.252C102.358 108.564 102.766 109.026 103.042 109.638C103.318 110.238 103.456 110.976 103.456 111.852V117H101.044V112.086C101.044 111.354 100.9 110.796 100.612 110.412C100.324 110.016 99.8855 109.818 99.2975 109.818C98.9015 109.818 98.5535 109.92 98.2535 110.124C97.9535 110.316 97.7195 110.592 97.5515 110.952C97.3955 111.312 97.3175 111.75 97.3175 112.266V117H94.8875V112.086C94.8875 111.354 94.7435 110.796 94.4555 110.412C94.1675 110.016 93.7175 109.818 93.1055 109.818C92.7335 109.818 92.3975 109.92 92.0975 110.124C91.8095 110.316 91.5815 110.592 91.4135 110.952C91.2575 111.312 91.1795 111.75 91.1795 112.266V117H88.7495ZM110.068 117.216C109.156 117.216 108.346 117.024 107.638 116.64C106.942 116.244 106.396 115.698 106 115.002C105.616 114.306 105.424 113.496 105.424 112.572C105.424 111.636 105.616 110.808 106 110.088C106.384 109.368 106.924 108.804 107.62 108.396C108.328 107.976 109.144 107.766 110.068 107.766C110.968 107.766 111.754 107.964 112.426 108.36C113.098 108.744 113.62 109.272 113.992 109.944C114.376 110.616 114.568 111.378 114.568 112.23C114.568 112.35 114.568 112.482 114.568 112.626C114.568 112.77 114.556 112.926 114.532 113.094H107.152V111.6H112.102C112.078 111.036 111.874 110.586 111.49 110.25C111.118 109.914 110.65 109.746 110.086 109.746C109.666 109.746 109.282 109.842 108.934 110.034C108.586 110.214 108.31 110.496 108.106 110.88C107.914 111.252 107.818 111.726 107.818 112.302V112.824C107.818 113.316 107.908 113.742 108.088 114.102C108.28 114.462 108.544 114.744 108.88 114.948C109.228 115.14 109.618 115.236 110.05 115.236C110.494 115.236 110.86 115.14 111.148 114.948C111.448 114.756 111.676 114.504 111.832 114.192H114.316C114.148 114.756 113.86 115.266 113.452 115.722C113.056 116.178 112.57 116.544 111.994 116.82C111.43 117.084 110.788 117.216 110.068 117.216ZM120.485 117C119.849 117 119.291 116.904 118.811 116.712C118.343 116.508 117.977 116.178 117.713 115.722C117.449 115.254 117.317 114.618 117.317 113.814V110.016H115.769V107.982H117.317L117.587 105.534H119.747V107.982H122.123V110.016H119.747V113.85C119.747 114.258 119.837 114.54 120.017 114.696C120.197 114.852 120.503 114.93 120.935 114.93H122.087V117H120.485ZM127.86 117.216C127.044 117.216 126.33 117.084 125.718 116.82C125.106 116.556 124.62 116.196 124.26 115.74C123.912 115.272 123.708 114.738 123.648 114.138H126.078C126.138 114.366 126.24 114.576 126.384 114.768C126.528 114.948 126.72 115.092 126.96 115.2C127.212 115.308 127.5 115.362 127.824 115.362C128.148 115.362 128.412 115.32 128.616 115.236C128.82 115.14 128.97 115.02 129.066 114.876C129.174 114.72 129.228 114.558 129.228 114.39C129.228 114.138 129.15 113.946 128.994 113.814C128.85 113.682 128.64 113.574 128.364 113.49C128.088 113.406 127.752 113.322 127.356 113.238C126.948 113.142 126.54 113.034 126.132 112.914C125.724 112.794 125.352 112.638 125.016 112.446C124.692 112.254 124.428 112.014 124.224 111.726C124.032 111.426 123.936 111.054 123.936 110.61C123.936 110.07 124.08 109.59 124.368 109.17C124.656 108.738 125.076 108.396 125.628 108.144C126.18 107.892 126.84 107.766 127.608 107.766C128.7 107.766 129.564 108.018 130.2 108.522C130.836 109.014 131.214 109.686 131.334 110.538H129.048C128.976 110.262 128.814 110.046 128.562 109.89C128.322 109.722 127.998 109.638 127.59 109.638C127.17 109.638 126.846 109.716 126.618 109.872C126.402 110.028 126.294 110.226 126.294 110.466C126.294 110.634 126.366 110.784 126.51 110.916C126.666 111.048 126.882 111.162 127.158 111.258C127.434 111.342 127.764 111.426 128.148 111.51C128.832 111.654 129.432 111.816 129.948 111.996C130.476 112.176 130.89 112.44 131.19 112.788C131.502 113.124 131.658 113.61 131.658 114.246C131.67 114.822 131.52 115.338 131.208 115.794C130.896 116.238 130.452 116.586 129.876 116.838C129.312 117.09 128.64 117.216 127.86 117.216ZM140.386 117L137.74 107.982H139.252L141.322 115.65L140.998 115.632L143.284 107.982H144.994L147.28 115.632L146.938 115.65L149.008 107.982H150.538L147.892 117H146.344L143.968 108.99H144.31L141.934 117H140.386ZM152.37 117V107.982H153.882V117H152.37ZM153.126 106.038C152.826 106.038 152.574 105.942 152.37 105.75C152.178 105.546 152.082 105.294 152.082 104.994C152.082 104.694 152.178 104.454 152.37 104.274C152.574 104.082 152.826 103.986 153.126 103.986C153.414 103.986 153.66 104.082 153.864 104.274C154.068 104.454 154.17 104.694 154.17 104.994C154.17 105.294 154.068 105.546 153.864 105.75C153.66 105.942 153.414 106.038 153.126 106.038ZM156.514 117V104.04H158.026V117H156.514ZM160.522 117V104.04H162.034V117H160.522ZM169.311 120.96V107.982H170.679L170.823 109.458C171.015 109.17 171.261 108.9 171.561 108.648C171.861 108.384 172.221 108.174 172.641 108.018C173.061 107.85 173.547 107.766 174.099 107.766C174.975 107.766 175.737 107.976 176.385 108.396C177.045 108.804 177.561 109.368 177.933 110.088C178.305 110.796 178.491 111.606 178.491 112.518C178.491 113.418 178.305 114.222 177.933 114.93C177.561 115.638 177.045 116.196 176.385 116.604C175.725 117.012 174.957 117.216 174.081 117.216C173.349 117.216 172.701 117.066 172.137 116.766C171.573 116.466 171.135 116.046 170.823 115.506V120.96H169.311ZM173.919 115.902C174.507 115.902 175.029 115.764 175.485 115.488C175.941 115.2 176.295 114.804 176.547 114.3C176.811 113.784 176.943 113.184 176.943 112.5C176.943 111.816 176.811 111.222 176.547 110.718C176.295 110.202 175.941 109.8 175.485 109.512C175.029 109.224 174.507 109.08 173.919 109.08C173.319 109.08 172.785 109.224 172.317 109.512C171.861 109.8 171.501 110.202 171.237 110.718C170.985 111.222 170.859 111.816 170.859 112.5C170.859 113.184 170.985 113.784 171.237 114.3C171.501 114.804 171.861 115.2 172.317 115.488C172.785 115.764 173.319 115.902 173.919 115.902ZM180.596 117V107.982H181.964L182.09 109.71C182.282 109.302 182.534 108.954 182.846 108.666C183.17 108.378 183.554 108.156 183.998 108C184.442 107.844 184.946 107.766 185.51 107.766V109.35H185.024C184.628 109.35 184.25 109.404 183.89 109.512C183.542 109.608 183.23 109.77 182.954 109.998C182.69 110.226 182.48 110.538 182.324 110.934C182.18 111.318 182.108 111.804 182.108 112.392V117H180.596ZM190.94 117.216C190.1 117.216 189.344 117.024 188.672 116.64C188 116.244 187.466 115.692 187.07 114.984C186.686 114.276 186.494 113.448 186.494 112.5C186.494 111.54 186.692 110.706 187.088 109.998C187.484 109.29 188.018 108.744 188.69 108.36C189.374 107.964 190.136 107.766 190.976 107.766C191.828 107.766 192.59 107.964 193.262 108.36C193.934 108.744 194.462 109.29 194.846 109.998C195.23 110.706 195.422 111.54 195.422 112.5C195.422 113.448 195.224 114.276 194.828 114.984C194.444 115.692 193.91 116.244 193.226 116.64C192.554 117.024 191.792 117.216 190.94 117.216ZM190.94 115.92C191.468 115.92 191.954 115.794 192.398 115.542C192.842 115.29 193.196 114.906 193.46 114.39C193.736 113.874 193.874 113.244 193.874 112.5C193.874 111.732 193.742 111.096 193.478 110.592C193.214 110.088 192.86 109.71 192.416 109.458C191.972 109.194 191.492 109.062 190.976 109.062C190.472 109.062 189.992 109.194 189.536 109.458C189.092 109.71 188.732 110.088 188.456 110.592C188.18 111.096 188.042 111.732 188.042 112.5C188.042 113.244 188.18 113.874 188.456 114.39C188.732 114.906 189.086 115.29 189.518 115.542C189.962 115.794 190.436 115.92 190.94 115.92ZM199.695 117L196.275 107.982H197.859L200.577 115.542L203.295 107.982H204.843L201.441 117H199.695ZM206.686 117V107.982H208.198V117H206.686ZM207.442 106.038C207.142 106.038 206.89 105.942 206.686 105.75C206.494 105.546 206.398 105.294 206.398 104.994C206.398 104.694 206.494 104.454 206.686 104.274C206.89 104.082 207.142 103.986 207.442 103.986C207.73 103.986 207.976 104.082 208.18 104.274C208.384 104.454 208.486 104.694 208.486 104.994C208.486 105.294 208.384 105.546 208.18 105.75C207.976 105.942 207.73 106.038 207.442 106.038ZM214.863 117.216C213.987 117.216 213.213 117.012 212.541 116.604C211.881 116.184 211.365 115.62 210.993 114.912C210.633 114.192 210.453 113.382 210.453 112.482C210.453 111.57 210.633 110.76 210.993 110.052C211.365 109.344 211.887 108.786 212.559 108.378C213.231 107.97 214.005 107.766 214.881 107.766C215.613 107.766 216.261 107.916 216.825 108.216C217.389 108.516 217.821 108.936 218.121 109.476V104.04H219.633V117H218.265L218.139 115.524C217.947 115.812 217.701 116.088 217.401 116.352C217.101 116.604 216.741 116.814 216.321 116.982C215.901 117.138 215.415 117.216 214.863 117.216ZM215.025 115.902C215.625 115.902 216.153 115.764 216.609 115.488C217.077 115.2 217.437 114.804 217.689 114.3C217.941 113.784 218.067 113.184 218.067 112.5C218.067 111.816 217.941 111.222 217.689 110.718C217.437 110.202 217.077 109.8 216.609 109.512C216.153 109.224 215.625 109.08 215.025 109.08C214.449 109.08 213.927 109.224 213.459 109.512C213.003 109.8 212.643 110.202 212.379 110.718C212.127 111.222 212.001 111.816 212.001 112.5C212.001 113.184 212.127 113.784 212.379 114.3C212.643 114.804 213.003 115.2 213.459 115.488C213.927 115.764 214.449 115.902 215.025 115.902ZM226.148 117.216C225.296 117.216 224.54 117.024 223.88 116.64C223.22 116.244 222.698 115.692 222.314 114.984C221.942 114.264 221.756 113.436 221.756 112.5C221.756 111.54 221.942 110.712 222.314 110.016C222.686 109.308 223.202 108.756 223.862 108.36C224.534 107.964 225.308 107.766 226.184 107.766C227.06 107.766 227.81 107.964 228.434 108.36C229.058 108.756 229.532 109.272 229.856 109.908C230.192 110.544 230.36 111.24 230.36 111.996C230.36 112.116 230.36 112.248 230.36 112.392C230.36 112.524 230.354 112.674 230.342 112.842H222.89V111.672H228.866C228.83 110.844 228.554 110.202 228.038 109.746C227.534 109.278 226.904 109.044 226.148 109.044C225.632 109.044 225.152 109.164 224.708 109.404C224.264 109.632 223.904 109.968 223.628 110.412C223.364 110.856 223.232 111.414 223.232 112.086V112.59C223.232 113.322 223.37 113.94 223.646 114.444C223.922 114.948 224.282 115.326 224.726 115.578C225.17 115.818 225.644 115.938 226.148 115.938C226.772 115.938 227.288 115.8 227.696 115.524C228.116 115.236 228.422 114.846 228.614 114.354H230.108C229.952 114.906 229.694 115.398 229.334 115.83C228.974 116.25 228.524 116.586 227.984 116.838C227.456 117.09 226.844 117.216 226.148 117.216ZM50.3123 145.176C49.4963 145.176 48.7763 145.068 48.1523 144.852C47.5283 144.648 47.0363 144.33 46.6763 143.898C46.3283 143.466 46.1543 142.932 46.1543 142.296C46.1543 142.032 46.2083 141.744 46.3163 141.432C46.4363 141.12 46.6343 140.814 46.9103 140.514C47.1983 140.214 47.6003 139.944 48.1163 139.704L49.1603 140.316C48.5363 140.58 48.1223 140.88 47.9183 141.216C47.7263 141.552 47.6303 141.864 47.6303 142.152C47.6303 142.548 47.7443 142.878 47.9723 143.142C48.2123 143.406 48.5303 143.604 48.9263 143.736C49.3343 143.868 49.7963 143.934 50.3123 143.934C50.8163 143.934 51.2543 143.856 51.6263 143.7C51.9983 143.556 52.2863 143.352 52.4903 143.088C52.6943 142.824 52.7963 142.518 52.7963 142.17C52.7963 141.762 52.6403 141.414 52.3283 141.126C52.0163 140.85 51.4283 140.688 50.5643 140.64C49.8563 140.592 49.2623 140.526 48.7823 140.442C48.3143 140.358 47.9183 140.262 47.5943 140.154C47.2823 140.034 47.0183 139.902 46.8023 139.758C46.5983 139.614 46.4123 139.464 46.2443 139.308V138.894L48.0083 137.148L49.3043 137.616L47.5043 139.254L47.7383 138.624C47.8703 138.72 47.9963 138.81 48.1163 138.894C48.2363 138.978 48.3983 139.05 48.6023 139.11C48.8183 139.17 49.1063 139.224 49.4663 139.272C49.8263 139.32 50.3063 139.368 50.9063 139.416C51.7223 139.476 52.3763 139.62 52.8683 139.848C53.3723 140.076 53.7323 140.382 53.9483 140.766C54.1763 141.15 54.2903 141.6 54.2903 142.116C54.2903 142.62 54.1463 143.106 53.8583 143.574C53.5823 144.042 53.1503 144.426 52.5623 144.726C51.9743 145.026 51.2243 145.176 50.3123 145.176ZM50.2943 138.174C49.5383 138.174 48.8903 138.03 48.3503 137.742C47.8223 137.454 47.4203 137.07 47.1443 136.59C46.8683 136.11 46.7303 135.57 46.7303 134.97C46.7303 134.382 46.8683 133.848 47.1443 133.368C47.4323 132.888 47.8403 132.504 48.3683 132.216C48.8963 131.916 49.5383 131.766 50.2943 131.766C51.0503 131.766 51.6923 131.916 52.2203 132.216C52.7483 132.504 53.1503 132.888 53.4263 133.368C53.7023 133.848 53.8403 134.382 53.8403 134.97C53.8403 135.57 53.7023 136.11 53.4263 136.59C53.1503 137.07 52.7483 137.454 52.2203 137.742C51.6923 138.03 51.0503 138.174 50.2943 138.174ZM50.2943 136.932C50.9303 136.932 51.4343 136.764 51.8063 136.428C52.1903 136.092 52.3823 135.606 52.3823 134.97C52.3823 134.346 52.1903 133.866 51.8063 133.53C51.4343 133.194 50.9303 133.026 50.2943 133.026C49.6583 133.026 49.1423 133.194 48.7463 133.53C48.3623 133.866 48.1703 134.346 48.1703 134.97C48.1703 135.606 48.3623 136.092 48.7463 136.428C49.1303 136.764 49.6463 136.932 50.2943 136.932ZM51.7523 133.26L51.3023 131.982H55.0103V133.116L51.7523 133.26ZM56.7147 141V131.982H58.0827L58.2087 133.71C58.4007 133.302 58.6527 132.954 58.9647 132.666C59.2887 132.378 59.6727 132.156 60.1167 132C60.5607 131.844 61.0647 131.766 61.6287 131.766V133.35H61.1427C60.7467 133.35 60.3687 133.404 60.0087 133.512C59.6607 133.608 59.3487 133.77 59.0727 133.998C58.8087 134.226 58.5987 134.538 58.4427 134.934C58.2987 135.318 58.2267 135.804 58.2267 136.392V141H56.7147ZM67.004 141.216C66.152 141.216 65.396 141.024 64.736 140.64C64.076 140.244 63.554 139.692 63.17 138.984C62.798 138.264 62.612 137.436 62.612 136.5C62.612 135.54 62.798 134.712 63.17 134.016C63.542 133.308 64.058 132.756 64.718 132.36C65.39 131.964 66.164 131.766 67.04 131.766C67.916 131.766 68.666 131.964 69.29 132.36C69.914 132.756 70.388 133.272 70.712 133.908C71.048 134.544 71.216 135.24 71.216 135.996C71.216 136.116 71.216 136.248 71.216 136.392C71.216 136.524 71.21 136.674 71.198 136.842H63.746V135.672H69.722C69.686 134.844 69.41 134.202 68.894 133.746C68.39 133.278 67.76 133.044 67.004 133.044C66.488 133.044 66.008 133.164 65.564 133.404C65.12 133.632 64.76 133.968 64.484 134.412C64.22 134.856 64.088 135.414 64.088 136.086V136.59C64.088 137.322 64.226 137.94 64.502 138.444C64.778 138.948 65.138 139.326 65.582 139.578C66.026 139.818 66.5 139.938 67.004 139.938C67.628 139.938 68.144 139.8 68.552 139.524C68.972 139.236 69.278 138.846 69.47 138.354H70.964C70.808 138.906 70.55 139.398 70.19 139.83C69.83 140.25 69.38 140.586 68.84 140.838C68.312 141.09 67.7 141.216 67.004 141.216ZM76.2081 141.216C75.4641 141.216 74.8461 141.09 74.3541 140.838C73.8741 140.586 73.5141 140.25 73.2741 139.83C73.0341 139.398 72.9141 138.93 72.9141 138.426C72.9141 137.814 73.0701 137.298 73.3821 136.878C73.7061 136.458 74.1561 136.14 74.7321 135.924C75.3201 135.696 76.0041 135.582 76.7841 135.582H79.1961C79.1961 135.018 79.1061 134.55 78.9261 134.178C78.7581 133.806 78.5061 133.524 78.1701 133.332C77.8341 133.14 77.4261 133.044 76.9461 133.044C76.3701 133.044 75.8661 133.194 75.4341 133.494C75.0141 133.782 74.7561 134.202 74.6601 134.754H73.1121C73.1841 134.118 73.4001 133.578 73.7601 133.134C74.1321 132.69 74.6001 132.354 75.1641 132.126C75.7281 131.886 76.3221 131.766 76.9461 131.766C77.7741 131.766 78.4641 131.922 79.0161 132.234C79.5801 132.534 80.0001 132.96 80.2761 133.512C80.5641 134.052 80.7081 134.694 80.7081 135.438V141H79.3581L79.2681 139.398C79.1481 139.65 78.9921 139.89 78.8001 140.118C78.6201 140.334 78.4041 140.526 78.1521 140.694C77.9121 140.85 77.6301 140.976 77.3061 141.072C76.9821 141.168 76.6161 141.216 76.2081 141.216ZM76.4421 139.938C76.8741 139.938 77.2581 139.854 77.5941 139.686C77.9301 139.506 78.2181 139.266 78.4581 138.966C78.7101 138.666 78.8961 138.33 79.0161 137.958C79.1361 137.574 79.1961 137.184 79.1961 136.788V136.752H76.9101C76.3341 136.752 75.8661 136.824 75.5061 136.968C75.1461 137.1 74.8881 137.286 74.7321 137.526C74.5761 137.766 74.4981 138.042 74.4981 138.354C74.4981 138.678 74.5701 138.96 74.7141 139.2C74.8701 139.44 75.0921 139.626 75.3801 139.758C75.6681 139.878 76.0221 139.938 76.4421 139.938ZM86.3294 141C85.7894 141 85.3214 140.916 84.9254 140.748C84.5294 140.58 84.2234 140.298 84.0074 139.902C83.8034 139.494 83.7014 138.948 83.7014 138.264V133.26H82.1354V131.982H83.7014L83.8994 129.822H85.2134V131.982H87.8414V133.26H85.2134V138.264C85.2134 138.828 85.3274 139.212 85.5554 139.416C85.7834 139.608 86.1854 139.704 86.7614 139.704H87.7154V141H86.3294ZM93.547 141.216C92.695 141.216 91.939 141.024 91.279 140.64C90.619 140.244 90.097 139.692 89.713 138.984C89.341 138.264 89.155 137.436 89.155 136.5C89.155 135.54 89.341 134.712 89.713 134.016C90.085 133.308 90.601 132.756 91.261 132.36C91.933 131.964 92.707 131.766 93.583 131.766C94.459 131.766 95.209 131.964 95.833 132.36C96.457 132.756 96.931 133.272 97.255 133.908C97.591 134.544 97.759 135.24 97.759 135.996C97.759 136.116 97.759 136.248 97.759 136.392C97.759 136.524 97.753 136.674 97.741 136.842H90.289V135.672H96.265C96.229 134.844 95.953 134.202 95.437 133.746C94.933 133.278 94.303 133.044 93.547 133.044C93.031 133.044 92.551 133.164 92.107 133.404C91.663 133.632 91.303 133.968 91.027 134.412C90.763 134.856 90.631 135.414 90.631 136.086V136.59C90.631 137.322 90.769 137.94 91.045 138.444C91.321 138.948 91.681 139.326 92.125 139.578C92.569 139.818 93.043 139.938 93.547 139.938C94.171 139.938 94.687 139.8 95.095 139.524C95.515 139.236 95.821 138.846 96.013 138.354H97.507C97.351 138.906 97.093 139.398 96.733 139.83C96.373 140.25 95.923 140.586 95.383 140.838C94.855 141.09 94.243 141.216 93.547 141.216ZM99.7811 141V131.982H101.149L101.275 133.71C101.467 133.302 101.719 132.954 102.031 132.666C102.355 132.378 102.739 132.156 103.183 132C103.627 131.844 104.131 131.766 104.695 131.766V133.35H104.209C103.813 133.35 103.435 133.404 103.075 133.512C102.727 133.608 102.415 133.77 102.139 133.998C101.875 134.226 101.665 134.538 101.509 134.934C101.365 135.318 101.293 135.804 101.293 136.392V141H99.7811ZM111.172 144.96V131.982H112.54L112.684 133.458C112.876 133.17 113.122 132.9 113.422 132.648C113.722 132.384 114.082 132.174 114.502 132.018C114.922 131.85 115.408 131.766 115.96 131.766C116.836 131.766 117.598 131.976 118.246 132.396C118.906 132.804 119.422 133.368 119.794 134.088C120.166 134.796 120.352 135.606 120.352 136.518C120.352 137.418 120.166 138.222 119.794 138.93C119.422 139.638 118.906 140.196 118.246 140.604C117.586 141.012 116.818 141.216 115.942 141.216C115.21 141.216 114.562 141.066 113.998 140.766C113.434 140.466 112.996 140.046 112.684 139.506V144.96H111.172ZM115.78 139.902C116.368 139.902 116.89 139.764 117.346 139.488C117.802 139.2 118.156 138.804 118.408 138.3C118.672 137.784 118.804 137.184 118.804 136.5C118.804 135.816 118.672 135.222 118.408 134.718C118.156 134.202 117.802 133.8 117.346 133.512C116.89 133.224 116.368 133.08 115.78 133.08C115.18 133.08 114.646 133.224 114.178 133.512C113.722 133.8 113.362 134.202 113.098 134.718C112.846 135.222 112.72 135.816 112.72 136.5C112.72 137.184 112.846 137.784 113.098 138.3C113.362 138.804 113.722 139.2 114.178 139.488C114.646 139.764 115.18 139.902 115.78 139.902ZM122.457 141V131.982H123.825L123.951 133.71C124.143 133.302 124.395 132.954 124.707 132.666C125.031 132.378 125.415 132.156 125.859 132C126.303 131.844 126.807 131.766 127.371 131.766V133.35H126.885C126.489 133.35 126.111 133.404 125.751 133.512C125.403 133.608 125.091 133.77 124.815 133.998C124.551 134.226 124.341 134.538 124.185 134.934C124.041 135.318 123.969 135.804 123.969 136.392V141H122.457ZM132.8 141.216C131.96 141.216 131.204 141.024 130.532 140.64C129.86 140.244 129.326 139.692 128.93 138.984C128.546 138.276 128.354 137.448 128.354 136.5C128.354 135.54 128.552 134.706 128.948 133.998C129.344 133.29 129.878 132.744 130.55 132.36C131.234 131.964 131.996 131.766 132.836 131.766C133.688 131.766 134.45 131.964 135.122 132.36C135.794 132.744 136.322 133.29 136.706 133.998C137.09 134.706 137.282 135.54 137.282 136.5C137.282 137.448 137.084 138.276 136.688 138.984C136.304 139.692 135.77 140.244 135.086 140.64C134.414 141.024 133.652 141.216 132.8 141.216ZM132.8 139.92C133.328 139.92 133.814 139.794 134.258 139.542C134.702 139.29 135.056 138.906 135.32 138.39C135.596 137.874 135.734 137.244 135.734 136.5C135.734 135.732 135.602 135.096 135.338 134.592C135.074 134.088 134.72 133.71 134.276 133.458C133.832 133.194 133.352 133.062 132.836 133.062C132.332 133.062 131.852 133.194 131.396 133.458C130.952 133.71 130.592 134.088 130.316 134.592C130.04 135.096 129.902 135.732 129.902 136.5C129.902 137.244 130.04 137.874 130.316 138.39C130.592 138.906 130.946 139.29 131.378 139.542C131.822 139.794 132.296 139.92 132.8 139.92ZM142.615 141C142.075 141 141.607 140.916 141.211 140.748C140.815 140.58 140.509 140.298 140.293 139.902C140.089 139.494 139.987 138.948 139.987 138.264V133.26H138.421V131.982H139.987L140.185 129.822H141.499V131.982H144.127V133.26H141.499V138.264C141.499 138.828 141.613 139.212 141.841 139.416C142.069 139.608 142.471 139.704 143.047 139.704H144.001V141H142.615ZM149.832 141.216C148.98 141.216 148.224 141.024 147.564 140.64C146.904 140.244 146.382 139.692 145.998 138.984C145.626 138.264 145.44 137.436 145.44 136.5C145.44 135.54 145.626 134.712 145.998 134.016C146.37 133.308 146.886 132.756 147.546 132.36C148.218 131.964 148.992 131.766 149.868 131.766C150.744 131.766 151.494 131.964 152.118 132.36C152.742 132.756 153.216 133.272 153.54 133.908C153.876 134.544 154.044 135.24 154.044 135.996C154.044 136.116 154.044 136.248 154.044 136.392C154.044 136.524 154.038 136.674 154.026 136.842H146.574V135.672H152.55C152.514 134.844 152.238 134.202 151.722 133.746C151.218 133.278 150.588 133.044 149.832 133.044C149.316 133.044 148.836 133.164 148.392 133.404C147.948 133.632 147.588 133.968 147.312 134.412C147.048 134.856 146.916 135.414 146.916 136.086V136.59C146.916 137.322 147.054 137.94 147.33 138.444C147.606 138.948 147.966 139.326 148.41 139.578C148.854 139.818 149.328 139.938 149.832 139.938C150.456 139.938 150.972 139.8 151.38 139.524C151.8 139.236 152.106 138.846 152.298 138.354H153.792C153.636 138.906 153.378 139.398 153.018 139.83C152.658 140.25 152.208 140.586 151.668 140.838C151.14 141.09 150.528 141.216 149.832 141.216ZM160.17 141.216C159.318 141.216 158.55 141.018 157.866 140.622C157.194 140.226 156.66 139.674 156.264 138.966C155.88 138.258 155.688 137.436 155.688 136.5C155.688 135.552 155.88 134.724 156.264 134.016C156.66 133.308 157.194 132.756 157.866 132.36C158.55 131.964 159.318 131.766 160.17 131.766C161.25 131.766 162.144 132.048 162.852 132.612C163.572 133.164 164.034 133.908 164.238 134.844H162.69C162.558 134.28 162.258 133.842 161.79 133.53C161.322 133.218 160.776 133.062 160.152 133.062C159.648 133.062 159.174 133.194 158.73 133.458C158.286 133.71 157.926 134.094 157.65 134.61C157.374 135.114 157.236 135.744 157.236 136.5C157.236 137.052 157.314 137.544 157.47 137.976C157.638 138.408 157.854 138.774 158.118 139.074C158.394 139.362 158.706 139.578 159.054 139.722C159.414 139.866 159.78 139.938 160.152 139.938C160.572 139.938 160.956 139.872 161.304 139.74C161.652 139.596 161.946 139.392 162.186 139.128C162.438 138.852 162.606 138.528 162.69 138.156H164.238C164.046 139.068 163.584 139.806 162.852 140.37C162.132 140.934 161.238 141.216 160.17 141.216ZM169.667 141C169.127 141 168.659 140.916 168.263 140.748C167.867 140.58 167.561 140.298 167.345 139.902C167.141 139.494 167.039 138.948 167.039 138.264V133.26H165.473V131.982H167.039L167.237 129.822H168.551V131.982H171.179V133.26H168.551V138.264C168.551 138.828 168.665 139.212 168.893 139.416C169.121 139.608 169.523 139.704 170.099 139.704H171.053V141H169.667ZM173.279 141V131.982H174.791V141H173.279ZM174.035 130.038C173.735 130.038 173.483 129.942 173.279 129.75C173.087 129.546 172.991 129.294 172.991 128.994C172.991 128.694 173.087 128.454 173.279 128.274C173.483 128.082 173.735 127.986 174.035 127.986C174.323 127.986 174.569 128.082 174.773 128.274C174.977 128.454 175.079 128.694 175.079 128.994C175.079 129.294 174.977 129.546 174.773 129.75C174.569 129.942 174.323 130.038 174.035 130.038ZM181.492 141.216C180.652 141.216 179.896 141.024 179.224 140.64C178.552 140.244 178.018 139.692 177.622 138.984C177.238 138.276 177.046 137.448 177.046 136.5C177.046 135.54 177.244 134.706 177.64 133.998C178.036 133.29 178.57 132.744 179.242 132.36C179.926 131.964 180.688 131.766 181.528 131.766C182.38 131.766 183.142 131.964 183.814 132.36C184.486 132.744 185.014 133.29 185.398 133.998C185.782 134.706 185.974 135.54 185.974 136.5C185.974 137.448 185.776 138.276 185.38 138.984C184.996 139.692 184.462 140.244 183.778 140.64C183.106 141.024 182.344 141.216 181.492 141.216ZM181.492 139.92C182.02 139.92 182.506 139.794 182.95 139.542C183.394 139.29 183.748 138.906 184.012 138.39C184.288 137.874 184.426 137.244 184.426 136.5C184.426 135.732 184.294 135.096 184.03 134.592C183.766 134.088 183.412 133.71 182.968 133.458C182.524 133.194 182.044 133.062 181.528 133.062C181.024 133.062 180.544 133.194 180.088 133.458C179.644 133.71 179.284 134.088 179.008 134.592C178.732 135.096 178.594 135.732 178.594 136.5C178.594 137.244 178.732 137.874 179.008 138.39C179.284 138.906 179.638 139.29 180.07 139.542C180.514 139.794 180.988 139.92 181.492 139.92ZM188.094 141V131.982H189.462L189.552 133.584C189.84 133.02 190.254 132.576 190.794 132.252C191.334 131.928 191.946 131.766 192.63 131.766C193.326 131.766 193.932 131.91 194.448 132.198C194.964 132.474 195.366 132.9 195.654 133.476C195.942 134.052 196.086 134.778 196.086 135.654V141H194.574V135.816C194.574 134.904 194.376 134.22 193.98 133.764C193.584 133.296 193.02 133.062 192.288 133.062C191.772 133.062 191.31 133.188 190.902 133.44C190.506 133.692 190.188 134.052 189.948 134.52C189.72 134.988 189.606 135.564 189.606 136.248V141H188.094ZM205.029 141L202.383 131.982H203.895L205.965 139.65L205.641 139.632L207.927 131.982H209.637L211.923 139.632L211.581 139.65L213.651 131.982H215.181L212.535 141H210.987L208.611 132.99H208.953L206.577 141H205.029ZM216.851 141V128.04H218.363V133.512C218.663 132.972 219.083 132.546 219.623 132.234C220.175 131.922 220.781 131.766 221.441 131.766C222.125 131.766 222.725 131.91 223.241 132.198C223.757 132.474 224.153 132.9 224.429 133.476C224.717 134.052 224.861 134.784 224.861 135.672V141H223.367V135.834C223.367 134.922 223.175 134.232 222.791 133.764C222.407 133.296 221.849 133.062 221.117 133.062C220.601 133.062 220.133 133.188 219.713 133.44C219.293 133.692 218.963 134.058 218.723 134.538C218.483 135.006 218.363 135.582 218.363 136.266V141H216.851ZM231.201 141.216C230.349 141.216 229.593 141.024 228.933 140.64C228.273 140.244 227.751 139.692 227.367 138.984C226.995 138.264 226.809 137.436 226.809 136.5C226.809 135.54 226.995 134.712 227.367 134.016C227.739 133.308 228.255 132.756 228.915 132.36C229.587 131.964 230.361 131.766 231.237 131.766C232.113 131.766 232.863 131.964 233.487 132.36C234.111 132.756 234.585 133.272 234.909 133.908C235.245 134.544 235.413 135.24 235.413 135.996C235.413 136.116 235.413 136.248 235.413 136.392C235.413 136.524 235.407 136.674 235.395 136.842H227.943V135.672H233.919C233.883 134.844 233.607 134.202 233.091 133.746C232.587 133.278 231.957 133.044 231.201 133.044C230.685 133.044 230.205 133.164 229.761 133.404C229.317 133.632 228.957 133.968 228.681 134.412C228.417 134.856 228.285 135.414 228.285 136.086V136.59C228.285 137.322 228.423 137.94 228.699 138.444C228.975 138.948 229.335 139.326 229.779 139.578C230.223 139.818 230.697 139.938 231.201 139.938C231.825 139.938 232.341 139.8 232.749 139.524C233.169 139.236 233.475 138.846 233.667 138.354H235.161C235.005 138.906 234.747 139.398 234.387 139.83C234.027 140.25 233.577 140.586 233.037 140.838C232.509 141.09 231.897 141.216 231.201 141.216ZM237.435 141V131.982H238.803L238.893 133.584C239.181 133.02 239.595 132.576 240.135 132.252C240.675 131.928 241.287 131.766 241.971 131.766C242.667 131.766 243.273 131.91 243.789 132.198C244.305 132.474 244.707 132.9 244.995 133.476C245.283 134.052 245.427 134.778 245.427 135.654V141H243.915V135.816C243.915 134.904 243.717 134.22 243.321 133.764C242.925 133.296 242.361 133.062 241.629 133.062C241.113 133.062 240.651 133.188 240.243 133.44C239.847 133.692 239.529 134.052 239.289 134.52C239.061 134.988 238.947 135.564 238.947 136.248V141H237.435ZM65.1077 165.216C64.2557 165.216 63.4877 165.018 62.8037 164.622C62.1317 164.226 61.5977 163.674 61.2017 162.966C60.8177 162.258 60.6257 161.436 60.6257 160.5C60.6257 159.552 60.8177 158.724 61.2017 158.016C61.5977 157.308 62.1317 156.756 62.8037 156.36C63.4877 155.964 64.2557 155.766 65.1077 155.766C66.1877 155.766 67.0817 156.048 67.7897 156.612C68.5097 157.164 68.9717 157.908 69.1757 158.844H67.6277C67.4957 158.28 67.1957 157.842 66.7277 157.53C66.2597 157.218 65.7137 157.062 65.0897 157.062C64.5857 157.062 64.1117 157.194 63.6677 157.458C63.2237 157.71 62.8637 158.094 62.5877 158.61C62.3117 159.114 62.1737 159.744 62.1737 160.5C62.1737 161.052 62.2517 161.544 62.4077 161.976C62.5757 162.408 62.7917 162.774 63.0557 163.074C63.3317 163.362 63.6437 163.578 63.9917 163.722C64.3517 163.866 64.7177 163.938 65.0897 163.938C65.5097 163.938 65.8937 163.872 66.2417 163.74C66.5897 163.596 66.8837 163.392 67.1237 163.128C67.3757 162.852 67.5437 162.528 67.6277 162.156H69.1757C68.9837 163.068 68.5217 163.806 67.7897 164.37C67.0697 164.934 66.1757 165.216 65.1077 165.216ZM75.3549 165.216C74.5149 165.216 73.7589 165.024 73.0869 164.64C72.4149 164.244 71.8809 163.692 71.4849 162.984C71.1009 162.276 70.9089 161.448 70.9089 160.5C70.9089 159.54 71.1069 158.706 71.5029 157.998C71.8989 157.29 72.4329 156.744 73.1049 156.36C73.7889 155.964 74.5509 155.766 75.3909 155.766C76.2429 155.766 77.0049 155.964 77.6769 156.36C78.3489 156.744 78.8769 157.29 79.2609 157.998C79.6449 158.706 79.8369 159.54 79.8369 160.5C79.8369 161.448 79.6389 162.276 79.2429 162.984C78.8589 163.692 78.3249 164.244 77.6409 164.64C76.9689 165.024 76.2069 165.216 75.3549 165.216ZM75.3549 163.92C75.8829 163.92 76.3689 163.794 76.8129 163.542C77.2569 163.29 77.6109 162.906 77.8749 162.39C78.1509 161.874 78.2889 161.244 78.2889 160.5C78.2889 159.732 78.1569 159.096 77.8929 158.592C77.6289 158.088 77.2749 157.71 76.8309 157.458C76.3869 157.194 75.9069 157.062 75.3909 157.062C74.8869 157.062 74.4069 157.194 73.9509 157.458C73.5069 157.71 73.1469 158.088 72.8709 158.592C72.5949 159.096 72.4569 159.732 72.4569 160.5C72.4569 161.244 72.5949 161.874 72.8709 162.39C73.1469 162.906 73.5009 163.29 73.9329 163.542C74.3769 163.794 74.8509 163.92 75.3549 163.92ZM81.9568 165V155.982H83.3248L83.4328 157.278C83.7208 156.81 84.1048 156.444 84.5848 156.18C85.0648 155.904 85.6048 155.766 86.2048 155.766C86.6608 155.766 87.0808 155.832 87.4648 155.964C87.8488 156.084 88.1848 156.276 88.4728 156.54C88.7608 156.792 88.9948 157.116 89.1748 157.512C89.4868 156.96 89.9188 156.534 90.4708 156.234C91.0228 155.922 91.6048 155.766 92.2168 155.766C92.9248 155.766 93.5428 155.91 94.0708 156.198C94.5988 156.474 95.0008 156.9 95.2768 157.476C95.5648 158.052 95.7088 158.778 95.7088 159.654V165H94.2148V159.816C94.2148 158.904 94.0288 158.22 93.6568 157.764C93.2848 157.296 92.7568 157.062 92.0728 157.062C91.5928 157.062 91.1668 157.188 90.7948 157.44C90.4228 157.692 90.1288 158.052 89.9128 158.52C89.6968 158.988 89.5888 159.564 89.5888 160.248V165H88.0768V159.816C88.0768 158.904 87.8908 158.22 87.5188 157.764C87.1468 157.296 86.6188 157.062 85.9348 157.062C85.4788 157.062 85.0588 157.188 84.6748 157.44C84.3028 157.692 84.0088 158.052 83.7928 158.52C83.5768 158.988 83.4688 159.564 83.4688 160.248V165H81.9568ZM98.0233 168.96V155.982H99.3913L99.5353 157.458C99.7273 157.17 99.9733 156.9 100.273 156.648C100.573 156.384 100.933 156.174 101.353 156.018C101.773 155.85 102.259 155.766 102.811 155.766C103.687 155.766 104.449 155.976 105.097 156.396C105.757 156.804 106.273 157.368 106.645 158.088C107.017 158.796 107.203 159.606 107.203 160.518C107.203 161.418 107.017 162.222 106.645 162.93C106.273 163.638 105.757 164.196 105.097 164.604C104.437 165.012 103.669 165.216 102.793 165.216C102.061 165.216 101.413 165.066 100.849 164.766C100.285 164.466 99.8473 164.046 99.5353 163.506V168.96H98.0233ZM102.631 163.902C103.219 163.902 103.741 163.764 104.197 163.488C104.653 163.2 105.007 162.804 105.259 162.3C105.523 161.784 105.655 161.184 105.655 160.5C105.655 159.816 105.523 159.222 105.259 158.718C105.007 158.202 104.653 157.8 104.197 157.512C103.741 157.224 103.219 157.08 102.631 157.08C102.031 157.08 101.497 157.224 101.029 157.512C100.573 157.8 100.213 158.202 99.9493 158.718C99.6973 159.222 99.5713 159.816 99.5713 160.5C99.5713 161.184 99.6973 161.784 99.9493 162.3C100.213 162.804 100.573 163.2 101.029 163.488C101.497 163.764 102.031 163.902 102.631 163.902ZM112.278 165.216C111.534 165.216 110.916 165.09 110.424 164.838C109.944 164.586 109.584 164.25 109.344 163.83C109.104 163.398 108.984 162.93 108.984 162.426C108.984 161.814 109.14 161.298 109.452 160.878C109.776 160.458 110.226 160.14 110.802 159.924C111.39 159.696 112.074 159.582 112.854 159.582H115.266C115.266 159.018 115.176 158.55 114.996 158.178C114.828 157.806 114.576 157.524 114.24 157.332C113.904 157.14 113.496 157.044 113.016 157.044C112.44 157.044 111.936 157.194 111.504 157.494C111.084 157.782 110.826 158.202 110.73 158.754H109.182C109.254 158.118 109.47 157.578 109.83 157.134C110.202 156.69 110.67 156.354 111.234 156.126C111.798 155.886 112.392 155.766 113.016 155.766C113.844 155.766 114.534 155.922 115.086 156.234C115.65 156.534 116.07 156.96 116.346 157.512C116.634 158.052 116.778 158.694 116.778 159.438V165H115.428L115.338 163.398C115.218 163.65 115.062 163.89 114.87 164.118C114.69 164.334 114.474 164.526 114.222 164.694C113.982 164.85 113.7 164.976 113.376 165.072C113.052 165.168 112.686 165.216 112.278 165.216ZM112.512 163.938C112.944 163.938 113.328 163.854 113.664 163.686C114 163.506 114.288 163.266 114.528 162.966C114.78 162.666 114.966 162.33 115.086 161.958C115.206 161.574 115.266 161.184 115.266 160.788V160.752H112.98C112.404 160.752 111.936 160.824 111.576 160.968C111.216 161.1 110.958 161.286 110.802 161.526C110.646 161.766 110.568 162.042 110.568 162.354C110.568 162.678 110.64 162.96 110.784 163.2C110.94 163.44 111.162 163.626 111.45 163.758C111.738 163.878 112.092 163.938 112.512 163.938ZM119.082 165V155.982H120.45L120.576 157.71C120.768 157.302 121.02 156.954 121.332 156.666C121.656 156.378 122.04 156.156 122.484 156C122.928 155.844 123.432 155.766 123.996 155.766V157.35H123.51C123.114 157.35 122.736 157.404 122.376 157.512C122.028 157.608 121.716 157.77 121.44 157.998C121.176 158.226 120.966 158.538 120.81 158.934C120.666 159.318 120.594 159.804 120.594 160.392V165H119.082ZM129.371 165.216C128.519 165.216 127.763 165.024 127.103 164.64C126.443 164.244 125.921 163.692 125.537 162.984C125.165 162.264 124.979 161.436 124.979 160.5C124.979 159.54 125.165 158.712 125.537 158.016C125.909 157.308 126.425 156.756 127.085 156.36C127.757 155.964 128.531 155.766 129.407 155.766C130.283 155.766 131.033 155.964 131.657 156.36C132.281 156.756 132.755 157.272 133.079 157.908C133.415 158.544 133.583 159.24 133.583 159.996C133.583 160.116 133.583 160.248 133.583 160.392C133.583 160.524 133.577 160.674 133.565 160.842H126.113V159.672H132.089C132.053 158.844 131.777 158.202 131.261 157.746C130.757 157.278 130.127 157.044 129.371 157.044C128.855 157.044 128.375 157.164 127.931 157.404C127.487 157.632 127.127 157.968 126.851 158.412C126.587 158.856 126.455 159.414 126.455 160.086V160.59C126.455 161.322 126.593 161.94 126.869 162.444C127.145 162.948 127.505 163.326 127.949 163.578C128.393 163.818 128.867 163.938 129.371 163.938C129.995 163.938 130.511 163.8 130.919 163.524C131.339 163.236 131.645 162.846 131.837 162.354H133.331C133.175 162.906 132.917 163.398 132.557 163.83C132.197 164.25 131.747 164.586 131.207 164.838C130.679 165.09 130.067 165.216 129.371 165.216ZM139.637 165.216C138.761 165.216 137.987 165.012 137.315 164.604C136.655 164.184 136.139 163.62 135.767 162.912C135.407 162.192 135.227 161.382 135.227 160.482C135.227 159.57 135.407 158.76 135.767 158.052C136.139 157.344 136.661 156.786 137.333 156.378C138.005 155.97 138.779 155.766 139.655 155.766C140.387 155.766 141.035 155.916 141.599 156.216C142.163 156.516 142.595 156.936 142.895 157.476V152.04H144.407V165H143.039L142.913 163.524C142.721 163.812 142.475 164.088 142.175 164.352C141.875 164.604 141.515 164.814 141.095 164.982C140.675 165.138 140.189 165.216 139.637 165.216ZM139.799 163.902C140.399 163.902 140.927 163.764 141.383 163.488C141.851 163.2 142.211 162.804 142.463 162.3C142.715 161.784 142.841 161.184 142.841 160.5C142.841 159.816 142.715 159.222 142.463 158.718C142.211 158.202 141.851 157.8 141.383 157.512C140.927 157.224 140.399 157.08 139.799 157.08C139.223 157.08 138.701 157.224 138.233 157.512C137.777 157.8 137.417 158.202 137.153 158.718C136.901 159.222 136.775 159.816 136.775 160.5C136.775 161.184 136.901 161.784 137.153 162.3C137.417 162.804 137.777 163.2 138.233 163.488C138.701 163.764 139.223 163.902 139.799 163.902ZM155.253 165C154.713 165 154.245 164.916 153.849 164.748C153.453 164.58 153.147 164.298 152.931 163.902C152.727 163.494 152.625 162.948 152.625 162.264V157.26H151.059V155.982H152.625L152.823 153.822H154.137V155.982H156.765V157.26H154.137V162.264C154.137 162.828 154.251 163.212 154.479 163.416C154.707 163.608 155.109 163.704 155.685 163.704H156.639V165H155.253ZM162.525 165.216C161.685 165.216 160.929 165.024 160.257 164.64C159.585 164.244 159.051 163.692 158.655 162.984C158.271 162.276 158.079 161.448 158.079 160.5C158.079 159.54 158.277 158.706 158.673 157.998C159.069 157.29 159.603 156.744 160.275 156.36C160.959 155.964 161.721 155.766 162.561 155.766C163.413 155.766 164.175 155.964 164.847 156.36C165.519 156.744 166.047 157.29 166.431 157.998C166.815 158.706 167.007 159.54 167.007 160.5C167.007 161.448 166.809 162.276 166.413 162.984C166.029 163.692 165.495 164.244 164.811 164.64C164.139 165.024 163.377 165.216 162.525 165.216ZM162.525 163.92C163.053 163.92 163.539 163.794 163.983 163.542C164.427 163.29 164.781 162.906 165.045 162.39C165.321 161.874 165.459 161.244 165.459 160.5C165.459 159.732 165.327 159.096 165.063 158.592C164.799 158.088 164.445 157.71 164.001 157.458C163.557 157.194 163.077 157.062 162.561 157.062C162.057 157.062 161.577 157.194 161.121 157.458C160.677 157.71 160.317 158.088 160.041 158.592C159.765 159.096 159.627 159.732 159.627 160.5C159.627 161.244 159.765 161.874 160.041 162.39C160.317 162.906 160.671 163.29 161.103 163.542C161.547 163.794 162.021 163.92 162.525 163.92ZM178.678 165.216C178.174 165.216 177.712 165.144 177.292 165C176.884 164.856 176.518 164.658 176.194 164.406C175.882 164.154 175.624 163.854 175.42 163.506L175.276 165H173.908V152.04H175.42V157.476C175.708 157.02 176.122 156.624 176.662 156.288C177.202 155.94 177.874 155.766 178.678 155.766C179.566 155.766 180.34 155.976 181 156.396C181.66 156.804 182.17 157.368 182.53 158.088C182.902 158.796 183.088 159.6 183.088 160.5C183.088 161.412 182.902 162.222 182.53 162.93C182.17 163.638 181.654 164.196 180.982 164.604C180.322 165.012 179.554 165.216 178.678 165.216ZM178.516 163.902C179.104 163.902 179.626 163.764 180.082 163.488C180.538 163.2 180.892 162.804 181.144 162.3C181.408 161.784 181.54 161.184 181.54 160.5C181.54 159.816 181.408 159.222 181.144 158.718C180.892 158.202 180.538 157.8 180.082 157.512C179.626 157.224 179.104 157.08 178.516 157.08C177.916 157.08 177.382 157.224 176.914 157.512C176.458 157.8 176.098 158.202 175.834 158.718C175.582 159.222 175.456 159.816 175.456 160.5C175.456 161.184 175.582 161.784 175.834 162.3C176.098 162.804 176.458 163.2 176.914 163.488C177.382 163.764 177.916 163.902 178.516 163.902ZM185.355 165V155.982H186.867V165H185.355ZM186.111 154.038C185.811 154.038 185.559 153.942 185.355 153.75C185.163 153.546 185.067 153.294 185.067 152.994C185.067 152.694 185.163 152.454 185.355 152.274C185.559 152.082 185.811 151.986 186.111 151.986C186.399 151.986 186.645 152.082 186.849 152.274C187.053 152.454 187.155 152.694 187.155 152.994C187.155 153.294 187.053 153.546 186.849 153.75C186.645 153.942 186.399 154.038 186.111 154.038ZM193.604 165.216C192.752 165.216 191.984 165.018 191.3 164.622C190.628 164.226 190.094 163.674 189.698 162.966C189.314 162.258 189.122 161.436 189.122 160.5C189.122 159.552 189.314 158.724 189.698 158.016C190.094 157.308 190.628 156.756 191.3 156.36C191.984 155.964 192.752 155.766 193.604 155.766C194.684 155.766 195.578 156.048 196.286 156.612C197.006 157.164 197.468 157.908 197.672 158.844H196.124C195.992 158.28 195.692 157.842 195.224 157.53C194.756 157.218 194.21 157.062 193.586 157.062C193.082 157.062 192.608 157.194 192.164 157.458C191.72 157.71 191.36 158.094 191.084 158.61C190.808 159.114 190.67 159.744 190.67 160.5C190.67 161.052 190.748 161.544 190.904 161.976C191.072 162.408 191.288 162.774 191.552 163.074C191.828 163.362 192.14 163.578 192.488 163.722C192.848 163.866 193.214 163.938 193.586 163.938C194.006 163.938 194.39 163.872 194.738 163.74C195.086 163.596 195.38 163.392 195.62 163.128C195.872 162.852 196.04 162.528 196.124 162.156H197.672C197.48 163.068 197.018 163.806 196.286 164.37C195.566 164.934 194.672 165.216 193.604 165.216ZM200.773 168.96L202.987 163.992H202.465L198.901 155.982H200.539L203.509 162.876L206.623 155.982H208.189L202.357 168.96H200.773ZM213.045 165.216C212.193 165.216 211.425 165.018 210.741 164.622C210.069 164.226 209.535 163.674 209.139 162.966C208.755 162.258 208.563 161.436 208.563 160.5C208.563 159.552 208.755 158.724 209.139 158.016C209.535 157.308 210.069 156.756 210.741 156.36C211.425 155.964 212.193 155.766 213.045 155.766C214.125 155.766 215.019 156.048 215.727 156.612C216.447 157.164 216.909 157.908 217.113 158.844H215.565C215.433 158.28 215.133 157.842 214.665 157.53C214.197 157.218 213.651 157.062 213.027 157.062C212.523 157.062 212.049 157.194 211.605 157.458C211.161 157.71 210.801 158.094 210.525 158.61C210.249 159.114 210.111 159.744 210.111 160.5C210.111 161.052 210.189 161.544 210.345 161.976C210.513 162.408 210.729 162.774 210.993 163.074C211.269 163.362 211.581 163.578 211.929 163.722C212.289 163.866 212.655 163.938 213.027 163.938C213.447 163.938 213.831 163.872 214.179 163.74C214.527 163.596 214.821 163.392 215.061 163.128C215.313 162.852 215.481 162.528 215.565 162.156H217.113C216.921 163.068 216.459 163.806 215.727 164.37C215.007 164.934 214.113 165.216 213.045 165.216ZM219.224 165V152.04H220.736V165H219.224ZM227.246 165.216C226.394 165.216 225.638 165.024 224.978 164.64C224.318 164.244 223.796 163.692 223.412 162.984C223.04 162.264 222.854 161.436 222.854 160.5C222.854 159.54 223.04 158.712 223.412 158.016C223.784 157.308 224.3 156.756 224.96 156.36C225.632 155.964 226.406 155.766 227.282 155.766C228.158 155.766 228.908 155.964 229.532 156.36C230.156 156.756 230.63 157.272 230.954 157.908C231.29 158.544 231.458 159.24 231.458 159.996C231.458 160.116 231.458 160.248 231.458 160.392C231.458 160.524 231.452 160.674 231.44 160.842H223.988V159.672H229.964C229.928 158.844 229.652 158.202 229.136 157.746C228.632 157.278 228.002 157.044 227.246 157.044C226.73 157.044 226.25 157.164 225.806 157.404C225.362 157.632 225.002 157.968 224.726 158.412C224.462 158.856 224.33 159.414 224.33 160.086V160.59C224.33 161.322 224.468 161.94 224.744 162.444C225.02 162.948 225.38 163.326 225.824 163.578C226.268 163.818 226.742 163.938 227.246 163.938C227.87 163.938 228.386 163.8 228.794 163.524C229.214 163.236 229.52 162.846 229.712 162.354H231.206C231.05 162.906 230.792 163.398 230.432 163.83C230.072 164.25 229.622 164.586 229.082 164.838C228.554 165.09 227.942 165.216 227.246 165.216ZM112.147 189V176.04H113.659V181.512C113.959 180.972 114.379 180.546 114.919 180.234C115.471 179.922 116.077 179.766 116.737 179.766C117.421 179.766 118.021 179.91 118.537 180.198C119.053 180.474 119.449 180.9 119.725 181.476C120.013 182.052 120.157 182.784 120.157 183.672V189H118.663V183.834C118.663 182.922 118.471 182.232 118.087 181.764C117.703 181.296 117.145 181.062 116.413 181.062C115.897 181.062 115.429 181.188 115.009 181.44C114.589 181.692 114.259 182.058 114.019 182.538C113.779 183.006 113.659 183.582 113.659 184.266V189H112.147ZM126.497 189.216C125.645 189.216 124.889 189.024 124.229 188.64C123.569 188.244 123.047 187.692 122.663 186.984C122.291 186.264 122.105 185.436 122.105 184.5C122.105 183.54 122.291 182.712 122.663 182.016C123.035 181.308 123.551 180.756 124.211 180.36C124.883 179.964 125.657 179.766 126.533 179.766C127.409 179.766 128.159 179.964 128.783 180.36C129.407 180.756 129.881 181.272 130.205 181.908C130.541 182.544 130.709 183.24 130.709 183.996C130.709 184.116 130.709 184.248 130.709 184.392C130.709 184.524 130.703 184.674 130.691 184.842H123.239V183.672H129.215C129.179 182.844 128.903 182.202 128.387 181.746C127.883 181.278 127.253 181.044 126.497 181.044C125.981 181.044 125.501 181.164 125.057 181.404C124.613 181.632 124.253 181.968 123.977 182.412C123.713 182.856 123.581 183.414 123.581 184.086V184.59C123.581 185.322 123.719 185.94 123.995 186.444C124.271 186.948 124.631 187.326 125.075 187.578C125.519 187.818 125.993 187.938 126.497 187.938C127.121 187.938 127.637 187.8 128.045 187.524C128.465 187.236 128.771 186.846 128.963 186.354H130.457C130.301 186.906 130.043 187.398 129.683 187.83C129.323 188.25 128.873 188.586 128.333 188.838C127.805 189.09 127.193 189.216 126.497 189.216ZM132.731 189V176.04H134.243V189H132.731ZM136.739 189V179.982H138.107L138.215 181.278C138.503 180.81 138.887 180.444 139.367 180.18C139.847 179.904 140.387 179.766 140.987 179.766C141.443 179.766 141.863 179.832 142.247 179.964C142.631 180.084 142.967 180.276 143.255 180.54C143.543 180.792 143.777 181.116 143.957 181.512C144.269 180.96 144.701 180.534 145.253 180.234C145.805 179.922 146.387 179.766 146.999 179.766C147.707 179.766 148.325 179.91 148.853 180.198C149.381 180.474 149.783 180.9 150.059 181.476C150.347 182.052 150.491 182.778 150.491 183.654V189H148.997V183.816C148.997 182.904 148.811 182.22 148.439 181.764C148.067 181.296 147.539 181.062 146.855 181.062C146.375 181.062 145.949 181.188 145.577 181.44C145.205 181.692 144.911 182.052 144.695 182.52C144.479 182.988 144.371 183.564 144.371 184.248V189H142.859V183.816C142.859 182.904 142.673 182.22 142.301 181.764C141.929 181.296 141.401 181.062 140.717 181.062C140.261 181.062 139.841 181.188 139.457 181.44C139.085 181.692 138.791 182.052 138.575 182.52C138.359 182.988 138.251 183.564 138.251 184.248V189H136.739ZM156.819 189.216C155.967 189.216 155.211 189.024 154.551 188.64C153.891 188.244 153.369 187.692 152.985 186.984C152.613 186.264 152.427 185.436 152.427 184.5C152.427 183.54 152.613 182.712 152.985 182.016C153.357 181.308 153.873 180.756 154.533 180.36C155.205 179.964 155.979 179.766 156.855 179.766C157.731 179.766 158.481 179.964 159.105 180.36C159.729 180.756 160.203 181.272 160.527 181.908C160.863 182.544 161.031 183.24 161.031 183.996C161.031 184.116 161.031 184.248 161.031 184.392C161.031 184.524 161.025 184.674 161.013 184.842H153.561V183.672H159.537C159.501 182.844 159.225 182.202 158.709 181.746C158.205 181.278 157.575 181.044 156.819 181.044C156.303 181.044 155.823 181.164 155.379 181.404C154.935 181.632 154.575 181.968 154.299 182.412C154.035 182.856 153.903 183.414 153.903 184.086V184.59C153.903 185.322 154.041 185.94 154.317 186.444C154.593 186.948 154.953 187.326 155.397 187.578C155.841 187.818 156.315 187.938 156.819 187.938C157.443 187.938 157.959 187.8 158.367 187.524C158.787 187.236 159.093 186.846 159.285 186.354H160.779C160.623 186.906 160.365 187.398 160.005 187.83C159.645 188.25 159.195 188.586 158.655 188.838C158.127 189.09 157.515 189.216 156.819 189.216ZM166.319 189C165.779 189 165.311 188.916 164.915 188.748C164.519 188.58 164.213 188.298 163.997 187.902C163.793 187.494 163.691 186.948 163.691 186.264V181.26H162.125V179.982H163.691L163.889 177.822H165.203V179.982H167.831V181.26H165.203V186.264C165.203 186.828 165.317 187.212 165.545 187.416C165.773 187.608 166.175 187.704 166.751 187.704H167.705V189H166.319ZM173.188 189.216C172.456 189.216 171.808 189.096 171.244 188.856C170.692 188.604 170.248 188.25 169.912 187.794C169.576 187.338 169.366 186.804 169.282 186.192H170.83C170.902 186.516 171.034 186.81 171.226 187.074C171.418 187.338 171.682 187.548 172.018 187.704C172.354 187.86 172.75 187.938 173.206 187.938C173.638 187.938 173.986 187.878 174.25 187.758C174.526 187.626 174.73 187.458 174.862 187.254C175.006 187.038 175.078 186.804 175.078 186.552C175.078 186.18 174.988 185.898 174.808 185.706C174.64 185.514 174.388 185.364 174.052 185.256C173.716 185.148 173.314 185.052 172.846 184.968C172.462 184.896 172.078 184.8 171.694 184.68C171.322 184.548 170.98 184.392 170.668 184.212C170.368 184.02 170.128 183.78 169.948 183.492C169.768 183.204 169.678 182.85 169.678 182.43C169.678 181.914 169.81 181.458 170.074 181.062C170.35 180.654 170.728 180.336 171.208 180.108C171.7 179.88 172.282 179.766 172.954 179.766C173.914 179.766 174.694 180 175.294 180.468C175.894 180.936 176.248 181.614 176.356 182.502H174.862C174.802 182.046 174.604 181.692 174.268 181.44C173.944 181.176 173.5 181.044 172.936 181.044C172.372 181.044 171.94 181.158 171.64 181.386C171.352 181.614 171.208 181.914 171.208 182.286C171.208 182.526 171.292 182.736 171.46 182.916C171.628 183.096 171.868 183.252 172.18 183.384C172.504 183.504 172.894 183.612 173.35 183.708C173.938 183.816 174.478 183.96 174.97 184.14C175.462 184.32 175.858 184.584 176.158 184.932C176.47 185.28 176.626 185.778 176.626 186.426C176.638 186.978 176.5 187.464 176.212 187.884C175.924 188.304 175.522 188.634 175.006 188.874C174.502 189.102 173.896 189.216 173.188 189.216ZM179.326 189.09C179.026 189.09 178.774 188.994 178.57 188.802C178.378 188.598 178.282 188.352 178.282 188.064C178.282 187.776 178.378 187.536 178.57 187.344C178.774 187.14 179.026 187.038 179.326 187.038C179.626 187.038 179.872 187.14 180.064 187.344C180.256 187.536 180.352 187.776 180.352 188.064C180.352 188.352 180.256 188.598 180.064 188.802C179.872 188.994 179.626 189.09 179.326 189.09Z" fill="#1C3A29"/>
</g>
<path d="M32.51 16.8111L42.3619 19.1273C47.228 20.2756 47.228 27.1453 42.3619 28.2935L32.51 30.6098C31.2736 30.9068 30.2963 31.857 30.0171 33.0845L27.6838 42.8643C26.5271 47.6949 19.6069 47.6949 18.4502 42.8643L16.1169 33.0845C15.8177 31.857 14.8605 30.887 13.624 30.6098L3.77213 28.2935C-1.09397 27.1453 -1.09397 20.2756 3.77213 19.1273L13.624 16.8111C14.8605 16.5141 15.8377 15.5638 16.1169 14.3364L18.4502 4.55651C19.6069 -0.274044 26.5271 -0.274044 27.6838 4.55651L30.0171 14.3364C30.3163 15.5638 31.2736 16.5339 32.51 16.8111Z" fill="#FFCD40"/>
<defs>
<filter id="filter0_d_12_243" x="13" y="16" width="266" height="224" filterUnits="userSpaceOnUse" color-interpolation-filters="sRGB">
<feFlood flood-opacity="0" result="BackgroundImageFix"/>
<feColorMatrix in="SourceAlpha" type="matrix" values="0 0 0 0 0 0 0 0 0 0 0 0 0 0 0 0 0 0 127 0" result="hardAlpha"/>
<feOffset dy="5"/>
<feGaussianBlur stdDeviation="5"/>
<feColorMatrix type="matrix" values="0 0 0 0 0 0 0 0 0 0 0 0 0 0 0 0 0 0 0.15 0"/>
<feBlend mode="normal" in2="BackgroundImageFix" result="effect1_dropShadow_12_243"/>
<feBlend mode="normal" in="SourceGraphic" in2="effect1_dropShadow_12_243" result="shape"/>
</filter>
</defs>
</svg>
