<svg width="48" height="58" viewBox="0 0 48 58" fill="none" xmlns="http://www.w3.org/2000/svg">
<g id="Group">
<path id="Vector" fill-rule="evenodd" clip-rule="evenodd" d="M22.3779 0.825717C23.4035 0.441957 24.5242 0.391927 25.58 0.682764L26.0271 0.825717L44.2212 7.6485C45.1437 7.99443 45.9489 8.59539 46.543 9.38137C47.1371 10.1673 47.4956 11.106 47.5767 12.0879L47.5949 12.5167V26.456C47.5948 30.6677 46.4576 34.8013 44.3033 38.4204C42.1491 42.0395 39.0577 45.0099 35.3554 47.0179L34.6641 47.3792L25.9465 51.738C25.4665 51.9777 24.9422 52.1157 24.4064 52.1434C23.8706 52.1711 23.3349 52.088 22.8327 51.8991L22.4584 51.738L13.7409 47.3792C9.97367 45.4956 6.78494 42.6298 4.51127 39.0843C2.2376 35.5388 0.963358 31.4453 0.823055 27.2357L0.810059 26.456V12.5167C0.810074 11.532 1.0898 10.5675 1.61666 9.73555C2.14353 8.90361 2.89587 8.23843 3.78609 7.81745L4.18376 7.6485L22.3779 0.825717ZM33.1254 17.5487L21.1744 29.4996L16.5791 24.9043C16.0914 24.4169 15.4301 24.1433 14.7406 24.1435C14.0511 24.1438 13.39 24.4179 12.9026 24.9056C12.4153 25.3933 12.1416 26.0546 12.1419 26.7441C12.1421 27.4336 12.4162 28.0947 12.9039 28.5821L19.1523 34.8305C19.4178 35.0961 19.7331 35.3068 20.08 35.4506C20.427 35.5944 20.7989 35.6684 21.1744 35.6684C21.55 35.6684 21.9219 35.5944 22.2689 35.4506C22.6158 35.3068 22.9311 35.0961 23.1966 34.8305L36.8006 21.2239C37.0488 20.9841 37.2468 20.6973 37.3831 20.3802C37.5193 20.0631 37.591 19.7221 37.594 19.3769C37.597 19.0318 37.5312 18.6896 37.4005 18.3701C37.2698 18.0507 37.0768 17.7605 36.8328 17.5165C36.5887 17.2724 36.2986 17.0794 35.9791 16.9487C35.6597 16.8181 35.3174 16.7523 34.9723 16.7553C34.6272 16.7583 34.2862 16.83 33.969 16.9662C33.6519 17.1024 33.3651 17.3004 33.1254 17.5487Z" fill="#1C3A29"/>
</g>
</svg>
