<svg width="63" height="64" viewBox="0 0 63 64" fill="none" xmlns="http://www.w3.org/2000/svg">
<g id="Icons">
<path id="Vector" d="M45.2265 35.4489L23.1753 13.3977L27.8538 8.71921C29.4133 6.97258 35.0274 7.25329 38.8014 9.71729C42.5754 12.2125 43.2616 13.7096 47.8777 16.2672C51.5581 18.2633 55.5192 20.1971 61.7572 18.9183L45.2265 35.4489ZM43.0121 37.6634L20.9608 15.6122L15.4402 21.1328C15.1511 21.4213 14.9217 21.7641 14.7652 22.1414C14.6086 22.5187 14.5281 22.9232 14.5281 23.3317C14.5281 23.7402 14.6086 24.1446 14.7652 24.5219C14.9217 24.8993 15.1511 25.242 15.4402 25.5306L18.7463 28.8367C19.9627 30.0531 19.9627 32.0492 18.7463 33.2656C16.8749 35.137 14.2862 36.7277 11.8534 38.5367C10.7617 39.3477 9.67008 40.1898 8.70319 41.1567C4.52375 45.3361 1.31119 51.1063 4.43018 54.194C7.51798 57.313 13.2881 54.1005 17.4675 49.9522C18.4344 48.9853 19.2766 47.8937 20.1187 46.7709C21.8965 44.338 23.4872 41.7493 25.3898 39.8779C25.6783 39.5888 26.0211 39.3594 26.3984 39.2028C26.7757 39.0463 27.1802 38.9658 27.5887 38.9658C27.9972 38.9658 28.4016 39.0463 28.7789 39.2028C29.1563 39.3594 29.499 39.5888 29.7875 39.8779L33.0937 43.184C34.3101 44.4004 36.275 44.4004 37.4914 43.184L43.0121 37.6634Z" fill="#1C3A29"/>
</g>
</svg>
