<svg width="273" height="329" viewBox="0 0 273 329" fill="none" xmlns="http://www.w3.org/2000/svg">
<path opacity="0.2" d="M129.782 329C180.865 329 222.277 320.514 222.277 310.046C222.277 299.578 180.865 291.092 129.782 291.092C78.6988 291.092 37.2876 299.578 37.2876 310.046C37.2876 320.514 78.6988 329 129.782 329Z" fill="#3D3D60"/>
<path d="M122.078 295.839V246.218C122.078 239.364 116.517 233.808 109.658 233.808H109.64C102.781 233.808 97.2205 239.364 97.2205 246.218V295.839C97.2205 302.693 102.781 308.249 109.64 308.249H109.658C116.517 308.249 122.078 302.693 122.078 295.839Z" fill="#171759"/>
<path d="M91.5333 308.25H109.64C116.499 308.25 122.059 302.694 122.059 295.84V295.822C122.059 288.968 116.499 283.412 109.64 283.412H91.5333C84.6743 283.412 79.1139 288.968 79.1139 295.822V295.84C79.1139 302.694 84.6743 308.25 91.5333 308.25Z" fill="#171759"/>
<path d="M162.362 295.839V246.218C162.362 239.364 156.802 233.808 149.943 233.808H149.925C143.065 233.808 137.505 239.364 137.505 246.218V295.839C137.505 302.693 143.065 308.249 149.925 308.249H149.943C156.802 308.249 162.362 302.693 162.362 295.839Z" fill="#171759"/>
<path d="M168.032 283.43H149.925C143.066 283.43 137.506 288.986 137.506 295.84V295.858C137.506 302.712 143.066 308.268 149.925 308.268H168.032C174.891 308.268 180.451 302.712 180.451 295.858V295.84C180.451 288.986 174.891 283.43 168.032 283.43Z" fill="#171759"/>
<path d="M129.782 265.409C193.935 265.409 245.942 213.443 245.942 149.34C245.942 85.2359 193.935 33.2697 129.782 33.2697C65.6293 33.2697 13.623 85.2359 13.623 149.34C13.623 213.443 65.6293 265.409 129.782 265.409Z" fill="#62657A"/>
<path d="M129.782 212.416C164.645 212.416 192.907 184.176 192.907 149.34C192.907 114.504 164.645 86.2642 129.782 86.2642C94.9195 86.2642 66.6577 114.504 66.6577 149.34C66.6577 184.176 94.9195 212.416 129.782 212.416Z" stroke="#D3D3DD" stroke-width="9.91752" stroke-miterlimit="10"/>
<path d="M129.782 197.494C156.398 197.494 177.974 175.934 177.974 149.339C177.974 122.744 156.398 101.185 129.782 101.185C103.167 101.185 81.5903 122.744 81.5903 149.339C81.5903 175.934 103.167 197.494 129.782 197.494Z" fill="#D3D3DD"/>
<path opacity="0.2" d="M245.942 149.339C245.942 213.441 193.934 265.409 129.783 265.409C97.0004 265.409 67.4103 251.844 46.2954 230.012C64.2366 241.341 85.4799 247.903 108.264 247.903C172.416 247.903 224.405 195.936 224.405 131.833C224.405 100.488 211.986 72.0386 191.751 51.1599C224.313 71.7086 245.942 108.003 245.942 149.339Z" fill="#3D3D60"/>
<path d="M234.898 152.804C233.137 205.578 192.43 248.49 140.569 253.751" stroke="#4E4E68" stroke-width="9.91752" stroke-miterlimit="10" stroke-linecap="round"/>
<path d="M218.956 159.697C214.719 196.084 188.688 225.816 154.254 235.531" stroke="#4E4E68" stroke-width="9.91752" stroke-miterlimit="10" stroke-linecap="round"/>
<path d="M24.6851 145.876C26.4462 93.1015 67.1533 50.1894 119.014 44.9285" stroke="#4E4E68" stroke-width="9.91752" stroke-miterlimit="10" stroke-linecap="round"/>
<path d="M40.6265 138.964C44.8641 102.578 70.8954 72.8455 105.329 63.1302" stroke="#4E4E68" stroke-width="9.91752" stroke-miterlimit="10" stroke-linecap="round"/>
<path d="M238.153 125.505C238.153 184.405 189.5 232.156 129.501 232.156C69.5029 232.156 20.8306 184.405 20.8306 125.505" stroke="#201C3A" stroke-width="13.5779" stroke-miterlimit="10"/>
<path d="M244.396 146.771C212.204 141.638 173.598 137.709 129.949 137.691C85.886 137.672 46.9783 141.62 14.5803 146.771C13.8842 146.771 10.1966 146.696 7.22394 143.894C5.34252 142.108 4.15723 139.665 4.15723 136.957V121.166C4.15723 115.77 8.84196 111.352 14.5803 111.352H244.414C250.134 111.352 254.837 115.77 254.837 121.166V136.957C254.837 142.353 250.153 146.771 244.414 146.771H244.396Z" fill="#312A4C"/>
<path d="M10.5559 129.06C4.42248 129.06 -0.488025 123.89 0.0387725 117.818C5.85236 52.2068 62.0127 0 129.48 0C196.948 0 253.108 52.2068 258.922 117.818C259.468 123.871 254.538 129.06 248.405 129.06H10.5559Z" fill="#FF525F"/>
<path d="M146.771 221.346H112.209C109.009 221.346 106.415 223.938 106.415 227.136V237.156C106.415 240.354 109.009 242.947 112.209 242.947H146.771C149.971 242.947 152.566 240.354 152.566 237.156V227.136C152.566 223.938 149.971 221.346 146.771 221.346Z" fill="#312A4C"/>
<path d="M107.64 153.5V148.808C107.64 144.282 103.968 140.614 99.4395 140.614C94.9107 140.614 91.2394 144.282 91.2394 148.808V153.5C91.2394 158.026 94.9107 161.694 99.4395 161.694C103.968 161.694 107.64 158.026 107.64 153.5Z" fill="#171759"/>
<path d="M168.343 153.5V148.808C168.343 144.282 164.672 140.614 160.143 140.614C155.614 140.614 151.943 144.282 151.943 148.808V153.5C151.943 158.026 155.614 161.694 160.143 161.694C164.672 161.694 168.343 158.026 168.343 153.5Z" fill="#171759"/>
<path d="M144.055 161.694C144.055 169.558 137.671 175.955 129.801 175.955C121.931 175.955 115.547 169.558 115.547 161.694H144.073H144.055Z" fill="white" stroke="#171759" stroke-width="7.33896" stroke-linecap="round" stroke-linejoin="round"/>
<path d="M214.813 223.208C225.674 223.208 234.479 214.41 234.479 203.558C234.479 192.705 225.674 183.907 214.813 183.907C203.952 183.907 195.147 192.705 195.147 203.558C195.147 214.41 203.952 223.208 214.813 223.208Z" fill="#171759"/>
<path d="M33.5387 251.857C44.3997 251.857 53.2043 243.059 53.2043 232.207C53.2043 221.354 44.3997 212.556 33.5387 212.556C22.6776 212.556 13.873 221.354 13.873 232.207C13.873 243.059 22.6776 251.857 33.5387 251.857Z" fill="#171759"/>
<path d="M260.581 79.6647L269.643 81.8094C274.119 82.8726 274.119 89.2333 269.643 90.2965L260.581 92.4412C259.443 92.7162 258.544 93.596 258.287 94.7325L256.141 103.788C255.077 108.261 248.711 108.261 247.647 103.788L245.501 94.7325C245.226 93.596 244.345 92.6978 243.208 92.4412L234.146 90.2965C229.67 89.2333 229.67 82.8726 234.146 81.8094L243.208 79.6647C244.345 79.3898 245.244 78.5099 245.501 77.3734L247.647 68.318C248.711 63.8453 255.077 63.8453 256.141 68.318L258.287 77.3734C258.563 78.5099 259.443 79.4081 260.581 79.6647Z" fill="#FFCD40"/>
<path d="M219.231 59.8684L222.148 60.565C225.267 61.2982 225.267 65.7342 222.148 66.4675L219.231 67.164C218.259 67.4023 217.489 68.1539 217.25 69.1437L216.553 72.0583C215.819 75.1745 211.38 75.1745 210.646 72.0583L209.949 69.1437C209.71 68.1722 208.958 67.4023 207.968 67.164L205.051 66.4675C201.932 65.7342 201.932 61.2982 205.051 60.565L207.968 59.8684C208.94 59.6301 209.71 58.8786 209.949 57.8887L210.646 54.9741C211.38 51.8579 215.819 51.8579 216.553 54.9741L217.25 57.8887C217.489 58.8602 218.241 59.6301 219.231 59.8684Z" fill="#FFCD40"/>
</svg>
