<svg width="63" height="63" viewBox="0 0 63 63" fill="none" xmlns="http://www.w3.org/2000/svg">
<g id="Icons" clip-path="url(#clip0_8879_12415)">
<path id="Vector" d="M19.1043 31.2064H1.96206C0.889911 31.2064 0.0126953 32.0836 0.0126953 33.1558V37.0545C0.0126953 38.1267 0.889911 39.0039 1.96206 39.0039H19.2871C21.2242 39.0039 23.0396 40.3319 23.3564 42.2447C23.7584 44.6814 21.8822 46.8014 19.5064 46.8014C17.7885 46.8014 16.3265 45.6805 15.8026 44.1332C15.5467 43.3656 14.7548 42.9026 13.9507 42.9026H9.95447C8.76048 42.9026 7.79798 43.9748 8.01728 45.1444C9.06507 50.5173 13.8167 54.5988 19.4942 54.5988C26.451 54.5988 32.0067 48.4949 31.0929 41.3675C30.3497 35.4707 25.0377 31.2064 19.1043 31.2064ZM1.96206 27.3077H42.8988C50.1723 27.3077 55.9108 20.6311 54.3269 13.0895C53.401 8.67905 49.8312 5.10927 45.4208 4.18332C38.6711 2.77003 32.6159 7.21702 31.4219 13.3819C31.1904 14.5515 32.1651 15.6115 33.3469 15.6115H37.3431C38.1594 15.6115 38.9391 15.1485 39.195 14.3809C39.7189 12.8336 41.1809 11.7127 42.8988 11.7127C45.2624 11.7127 47.1508 13.8327 46.7488 16.2694C46.432 18.1822 44.6288 19.5102 42.6795 19.5102H1.96206C0.889911 19.5102 0.0126953 20.3874 0.0126953 21.4596V25.3583C0.0126953 26.4305 0.889911 27.3077 1.96206 27.3077ZM48.7469 31.2064H29.704C32.0554 33.2289 33.7489 35.9336 34.553 39.0039H48.7469C51.9755 39.0039 54.595 41.6234 54.595 44.852C54.595 48.0806 51.9755 50.7001 48.7469 50.7001C46.566 50.7001 44.6898 49.4939 43.6785 47.7273C43.3252 47.1181 42.6186 46.8014 41.9119 46.8014H37.7939C36.4659 46.8014 35.479 48.1172 35.9298 49.3721C38.0985 55.537 44.5192 59.7037 51.6953 58.1808C56.7149 57.1208 60.8451 53.1124 62.0148 48.105C64.0981 39.1866 57.3363 31.2064 48.7469 31.2064Z" fill="#1C3A29"/>
</g>
<defs>
<clipPath id="clip0_8879_12415">
<rect width="62.3797" height="62.3797" fill="white" transform="translate(0.0126953 0.0166016)"/>
</clipPath>
</defs>
</svg>
