<svg width="52" height="57" viewBox="0 0 52 57" fill="none" xmlns="http://www.w3.org/2000/svg">
<g id="Group">
<path id="Vector" fill-rule="evenodd" clip-rule="evenodd" d="M26.0126 44.3329C26.6492 44.333 27.2636 44.5667 27.7394 44.9897C28.2151 45.4128 28.519 45.9957 28.5935 46.6279L28.6117 46.932V49.5312C28.611 50.1937 28.3573 50.8308 27.9025 51.3126C27.4478 51.7943 26.8262 52.0842 26.1649 52.123C25.5036 52.1618 24.8524 51.9466 24.3443 51.5214C23.8363 51.0963 23.5098 50.4931 23.4316 49.8353L23.4134 49.5312V46.932C23.4134 46.2427 23.6872 45.5816 24.1747 45.0941C24.6621 44.6067 25.3232 44.3329 26.0126 44.3329ZM13.1467 39.0046C13.634 39.492 13.9077 40.153 13.9077 40.8422C13.9077 41.5314 13.634 42.1924 13.1467 42.6798L11.3091 44.5174C11.0694 44.7657 10.7826 44.9637 10.4655 45.0999C10.1484 45.2361 9.80729 45.3078 9.46217 45.3108C9.11706 45.3138 8.77481 45.248 8.45538 45.1174C8.13595 44.9867 7.84575 44.7937 7.60171 44.5496C7.35767 44.3056 7.16467 44.0154 7.03398 43.696C6.9033 43.3765 6.83753 43.0343 6.84053 42.6892C6.84353 42.344 6.91523 42.003 7.05145 41.6859C7.18767 41.3688 7.38568 41.082 7.63392 40.8422L9.47153 39.0046C9.95894 38.5173 10.6199 38.2436 11.3091 38.2436C11.9983 38.2436 12.6593 38.5173 13.1467 39.0046ZM42.5536 39.0046L44.3912 40.8422C44.8646 41.3324 45.1266 41.989 45.1207 42.6705C45.1148 43.3519 44.8414 44.0038 44.3595 44.4858C43.8776 44.9677 43.2257 45.241 42.5442 45.2469C41.8627 45.2528 41.2062 44.9909 40.716 44.5174L38.8784 42.6798C38.4049 42.1896 38.1429 41.533 38.1489 40.8516C38.1548 40.1701 38.4281 39.5182 38.91 39.0363C39.3919 38.5544 40.0439 38.281 40.7253 38.2751C41.4068 38.2692 42.0634 38.5311 42.5536 39.0046ZM27.6162 0.147217C28.8835 0.146941 30.1072 0.609578 31.0573 1.44815C32.0074 2.28673 32.6184 3.44348 32.7756 4.70094L33.7632 12.6024C36.7462 14.3109 39.0811 16.9571 40.4049 20.1296C41.7286 23.3021 41.967 26.8231 41.0831 30.1451C40.1991 33.4671 38.2423 36.4039 35.5169 38.499C32.7914 40.594 29.4502 41.7298 26.0126 41.7298C22.575 41.7298 19.2337 40.594 16.5083 38.499C13.7828 36.4039 11.826 33.4671 10.942 30.1451C10.0581 26.8231 10.2965 23.3021 11.6203 20.1296C12.944 16.9571 15.2789 14.3109 18.2619 12.6024L19.2496 4.70094C19.4067 3.44348 20.0177 2.28673 20.9678 1.44815C21.9179 0.609578 23.1416 0.146941 24.4089 0.147217H27.6162ZM5.21931 23.5396C5.90865 23.5396 6.56975 23.8135 7.05719 24.3009C7.54463 24.7883 7.81847 25.4494 7.81847 26.1388C7.81847 26.8281 7.54463 27.4892 7.05719 27.9767C6.56975 28.4641 5.90865 28.7379 5.21931 28.7379H2.62015C1.93081 28.7379 1.26971 28.4641 0.782271 27.9767C0.294835 27.4892 0.0209961 26.8281 0.0209961 26.1388C0.0209961 25.4494 0.294835 24.7883 0.782271 24.3009C1.26971 23.8135 1.93081 23.5396 2.62015 23.5396H5.21931ZM49.405 23.5396C50.0943 23.5396 50.7554 23.8135 51.2429 24.3009C51.7303 24.7883 52.0041 25.4494 52.0041 26.1388C52.0041 26.8281 51.7303 27.4892 51.2429 27.9767C50.7554 28.4641 50.0943 28.7379 49.405 28.7379H46.8058C46.1165 28.7379 45.4554 28.4641 44.9679 27.9767C44.4805 27.4892 44.2067 26.8281 44.2067 26.1388C44.2067 25.4494 44.4805 24.7883 44.9679 24.3009C45.4554 23.8135 46.1165 23.5396 46.8058 23.5396H49.405ZM44.3912 7.76274C44.8785 8.25016 45.1522 8.91114 45.1522 9.60035C45.1522 10.2896 44.8785 10.9505 44.3912 11.438L42.5536 13.2756C42.3138 13.5238 42.027 13.7218 41.7099 13.858C41.3928 13.9942 41.0517 14.0659 40.7066 14.0689C40.3615 14.0719 40.0193 14.0062 39.6998 13.8755C39.3804 13.7448 39.0902 13.5518 38.8462 13.3078C38.6021 13.0637 38.4091 12.7735 38.2784 12.4541C38.1478 12.1347 38.082 11.7924 38.085 11.4473C38.088 11.1022 38.1597 10.7611 38.2959 10.444C38.4321 10.1269 38.6301 9.84011 38.8784 9.60035L40.716 7.76274C41.2034 7.27548 41.8644 7.00175 42.5536 7.00175C43.2428 7.00175 43.9038 7.27548 44.3912 7.76274ZM11.3091 7.76274L13.1467 9.60035C13.6085 10.0928 13.8606 10.7455 13.8496 11.4205C13.8386 12.0954 13.5655 12.7396 13.088 13.2168C12.6105 13.6939 11.9661 13.9666 11.2911 13.9771C10.6162 13.9876 9.96361 13.7351 9.47153 13.273L7.63392 11.4354C7.17217 10.9429 6.92011 10.2902 6.93107 9.61524C6.94203 8.94029 7.21515 8.29607 7.69265 7.81891C8.17015 7.34175 8.81456 7.06908 9.48952 7.0586C10.1645 7.04812 10.817 7.30064 11.3091 7.76274ZM27.6162 5.34553H24.4089L23.7591 10.5438H28.266L27.6162 5.34553Z" fill="#1C3A29"/>
</g>
</svg>
