<svg
          width="330"
          height="366"
          viewBox="0 0 330 366"
          fill="none"
          xmlns="http://www.w3.org/2000/svg"
        >
          <path
            opacity="0.2"
            d="M195.004 365.665C257.948 365.665 308.975 355.2 308.975 342.292C308.975 329.383 257.948 318.919 195.004 318.919C132.06 318.919 81.0332 329.383 81.0332 342.292C81.0332 355.2 132.06 365.665 195.004 365.665Z"
            fill="#3D3D60"
          />
          <path
            d="M152.864 332.185L184.872 280.034C189.293 272.831 187.038 263.408 179.834 258.987L179.815 258.975C172.612 254.554 163.189 256.809 158.768 264.012L126.76 316.163C122.339 323.366 124.594 332.789 131.797 337.21L131.817 337.222C139.02 341.643 148.443 339.388 152.864 332.185Z"
            fill="#171759"
          />
          <path
            d="M166.797 322.895L147.783 311.225C140.58 306.804 131.156 309.059 126.735 316.262L126.723 316.281C122.302 323.485 124.558 332.908 131.761 337.329L150.776 348.999C157.979 353.42 167.402 351.165 171.823 343.962L171.835 343.942C176.256 336.739 174 327.316 166.797 322.895Z"
            fill="#171759"
          />
          <path
            d="M257.73 321.427L232.51 265.676C229.027 257.976 219.961 254.557 212.26 258.041L212.24 258.05C204.539 261.533 201.121 270.599 204.604 278.3L229.823 334.051C233.307 341.751 242.373 345.17 250.073 341.687L250.094 341.677C257.794 338.194 261.213 329.128 257.73 321.427Z"
            fill="#171759"
          />
          <path
            d="M257.843 304.702L237.515 313.897C229.815 317.38 226.396 326.447 229.879 334.147L229.889 334.168C233.372 341.868 242.438 345.287 250.139 341.803L270.466 332.608C278.167 329.125 281.585 320.058 278.102 312.358L278.093 312.337C274.609 304.637 265.543 301.218 257.843 304.702Z"
            fill="#171759"
          />
          <path
            d="M329.906 154.359C327.984 207.638 294.643 253.231 247.106 278.186C204.769 300.406 149.479 306.418 109.514 275.835C104.36 271.902 99.6361 267.471 95.3187 262.634C90.2553 256.938 85.7571 250.721 81.8918 244.166C72.6466 228.434 65.6619 211.458 56.462 195.68C49.6355 183.994 41.611 172.985 35.7113 160.824C12.994 114.033 42.3117 63.739 78.8854 34.0144C121.359 -0.502352 179.384 -9.40842 230.628 10.3251C245.66 16.1118 259.787 24.3849 272.4 34.5795C303.074 59.2633 324.865 95.2493 329.182 134.536C329.906 141.249 330.154 147.849 329.906 154.359Z"
            fill="#62657A"
          />
          <path
            d="M199.773 216.362C242.731 216.362 277.555 181.538 277.555 138.581C277.555 95.6237 242.731 60.7998 199.773 60.7998C156.816 60.7998 121.992 95.6237 121.992 138.581C121.992 181.538 156.816 216.362 199.773 216.362Z"
            stroke="#D3D3DD"
            stroke-width="11.3021"
            stroke-miterlimit="10"
          />
          <path
            d="M199.773 197.963C232.568 197.963 259.154 171.378 259.154 138.582C259.154 105.787 232.568 79.2007 199.773 79.2007C166.978 79.2007 140.392 105.787 140.392 138.582C140.392 171.378 166.978 197.963 199.773 197.963Z"
            fill="#D3D3DD"
          />
          <path
            opacity="0.2"
            d="M329.905 154.36C327.984 207.638 294.643 253.231 247.106 278.186C204.768 300.406 149.478 306.419 109.514 275.835C104.36 271.902 99.6358 267.472 95.3184 262.635C115.21 273.62 137.882 279.836 161.933 279.836C240.98 279.836 305.041 212.702 305.041 129.88C305.041 93.6902 292.812 60.4846 272.4 34.5801C303.074 59.2639 324.865 95.2499 329.182 134.536C329.905 141.25 330.154 147.85 329.905 154.36Z"
            fill="#3D3D60"
          />
          <path
            d="M314.218 154.223C312.048 219.301 261.89 272.217 197.987 278.705"
            stroke="#4E4E68"
            stroke-width="11.3021"
            stroke-miterlimit="10"
            stroke-linecap="round"
          />
          <path
            d="M294.575 162.724C289.353 207.593 257.278 244.257 214.85 256.237"
            stroke="#4E4E68"
            stroke-width="11.3021"
            stroke-miterlimit="10"
            stroke-linecap="round"
          />
          <path
            d="M53.9072 124.861C64.9607 60.6871 121.878 15.1169 186.052 17.4226"
            stroke="#4E4E68"
            stroke-width="11.3021"
            stroke-miterlimit="10"
            stroke-linecap="round"
          />
          <path
            d="M74.5449 119.119C85.8471 75.3801 122.624 43.4403 166.296 37.3823"
            stroke="#4E4E68"
            stroke-width="11.3021"
            stroke-miterlimit="10"
            stroke-linecap="round"
          />
          <path
            d="M176.694 141.229V135.442C176.694 129.862 172.171 125.338 166.59 125.338C161.01 125.338 156.486 129.862 156.486 135.442V141.229C156.486 146.809 161.01 151.333 166.59 151.333C172.171 151.333 176.694 146.809 176.694 141.229Z"
            fill="white"
            stroke="#171759"
            stroke-width="9.04171"
            stroke-miterlimit="10"
          />
          <path
            d="M251.492 141.229V135.442C251.492 129.862 246.968 125.338 241.388 125.338C235.808 125.338 231.284 129.862 231.284 135.442V141.229C231.284 146.809 235.808 151.333 241.388 151.333C246.968 151.333 251.492 146.809 251.492 141.229Z"
            fill="white"
            stroke="#171759"
            stroke-width="9.04171"
            stroke-miterlimit="10"
          />
          <path
            d="M223.848 174.976C223.848 156.214 215.981 141.001 206.284 141.001C196.587 141.001 188.721 156.237 188.721 174.976H223.87H223.848Z"
            fill="white"
            stroke="#171759"
            stroke-width="9.04171"
            stroke-linecap="round"
            stroke-linejoin="round"
          />
          <path
            d="M108.113 107.296L100.043 130.149C97.2177 138.174 103.163 146.582 111.662 146.582C120.161 146.582 126.106 138.174 123.28 130.149L115.211 107.296C114.035 103.951 109.311 103.951 108.113 107.296Z"
            fill="#0098FF"
          />
          <path
            d="M111.797 142.288C116.329 142.288 120.003 138.614 120.003 134.082C120.003 129.551 116.329 125.877 111.797 125.877C107.265 125.877 103.592 129.551 103.592 134.082C103.592 138.614 107.265 142.288 111.797 142.288Z"
            fill="#0B7AFF"
          />
          <path
            d="M107.186 132.048C109.309 132.048 111.029 130.327 111.029 128.205C111.029 126.083 109.309 124.362 107.186 124.362C105.064 124.362 103.344 126.083 103.344 128.205C103.344 130.327 105.064 132.048 107.186 132.048Z"
            fill="#C2F4FF"
          />
          <path
            d="M4.29232 207.481C15.7075 207.458 27.1 207.436 38.5151 207.391C40.2331 207.391 41.0242 205.266 39.7358 204.136L31.5079 196.925L46.4945 194.393C48.6645 194.031 48.5062 190.844 46.3136 190.686C34.9211 189.94 23.5059 189.194 12.1134 188.448C10.3729 188.335 9.44609 190.46 10.7119 191.658C13.2888 194.099 15.8657 196.518 18.4652 198.959C13.5374 200.587 8.63232 202.214 3.70459 203.842C1.69281 204.497 2.16752 207.481 4.29232 207.481Z"
            fill="#FF3939"
          />
          <path
            d="M46.9238 214.984C32.6379 221.246 18.352 227.53 4.08874 233.791C1.94133 234.741 2.09953 237.837 4.33735 238.561L18.5781 243.127L1.17277 254.497C-1.35891 256.147 0.585057 260.057 3.43319 259.018C18.126 253.728 32.8188 248.416 47.5341 243.127C49.772 242.313 49.772 239.148 47.5341 238.335C42.9681 236.707 38.402 235.057 33.836 233.43C39.1027 228.705 44.3921 223.981 49.6589 219.234C51.8063 217.29 49.5911 213.832 46.9238 215.007V214.984Z"
            fill="#FF3939"
          />
          <path
            d="M61.5032 243.33C58.9263 254.451 56.3494 265.55 53.7725 276.671C53.3882 278.344 55.2644 279.61 56.6659 278.615L65.5719 272.264L64.6 287.454C64.4643 289.669 67.6064 290.234 68.2393 288.109C71.5621 277.169 74.9075 266.251 78.2303 255.31C78.7502 253.638 76.8741 252.259 75.4274 253.208C72.4663 255.175 69.5051 257.119 66.544 259.085C66.0919 253.931 65.6172 248.755 65.1651 243.601C64.9842 241.499 61.9779 241.273 61.5032 243.353V243.33Z"
            fill="#FF3939"
          />
        </svg>