<svg width="138" height="253" viewBox="0 0 138 253" fill="none" xmlns="http://www.w3.org/2000/svg">
<g clip-path="url(#clip0_5171_54314)">
<path d="M75.8525 130.417V162.649" stroke="#9AB445" stroke-width="6.98629"/>
<path d="M77.5302 188.378H74.1671C70.3582 188.378 67.2705 191.466 67.2705 195.275V245.784C67.2705 249.593 70.3582 252.681 74.1671 252.681H77.5302C81.3391 252.681 84.4268 249.593 84.4268 245.784V195.275C84.4268 191.466 81.3391 188.378 77.5302 188.378Z" fill="#62657A"/>
<path d="M10.028 93.1772L27.5822 90.4412C30.3473 90.0103 32.2395 87.4193 31.8085 84.6543L31.8071 84.6454C31.3762 81.8803 28.7853 79.9881 26.0202 80.4191L8.46597 83.1551C5.70089 83.5861 3.80871 86.177 4.23968 88.9421L4.24106 88.9509C4.67203 91.716 7.26294 93.6082 10.028 93.1772Z" fill="#171759"/>
<path d="M9.58332 118.437C14.8519 119.096 19.6573 115.359 20.3164 110.091C20.9756 104.822 17.2389 100.017 11.9703 99.3578C6.7017 98.6986 1.89632 102.435 1.23718 107.704C0.57804 112.973 4.31473 117.778 9.58332 118.437Z" fill="#171759"/>
<path d="M16.2481 112.393L13.7357 88.4442C13.4437 85.661 10.9508 83.6415 8.16761 83.9335L8.1587 83.9344C5.3755 84.2264 3.35597 86.7193 3.64795 89.5025L6.16034 113.451C6.45232 116.234 8.94524 118.254 11.7284 117.962L11.7374 117.961C14.5205 117.669 16.5401 115.176 16.2481 112.393Z" fill="#171759"/>
<path d="M108.849 143.924L99.126 121.68C97.783 118.607 94.2036 117.205 91.1311 118.548L91.1228 118.552C88.0503 119.894 86.6482 123.474 87.9912 126.546L97.7144 148.791C99.0574 151.864 102.637 153.266 105.709 151.923L105.718 151.919C108.79 150.576 110.192 146.997 108.849 143.924Z" fill="#171759"/>
<path d="M108.964 137.253L100.853 140.798C97.7808 142.141 96.3787 145.72 97.7217 148.793L97.7253 148.801C99.0683 151.874 102.648 153.276 105.72 151.933L113.831 148.387C116.904 147.044 118.306 143.465 116.963 140.392L116.959 140.384C115.616 137.312 112.037 135.91 108.964 137.253Z" fill="#171759"/>
<path d="M54.3129 148.787L64.0361 126.542C65.3791 123.469 63.977 119.89 60.9045 118.547L60.8963 118.543C57.8237 117.2 54.2443 118.602 52.9013 121.675L43.1781 143.92C41.8351 146.992 43.2371 150.572 46.3097 151.915L46.3179 151.918C49.3904 153.261 52.9699 151.859 54.3129 148.787Z" fill="#171759"/>
<path d="M38.2 148.376L46.3107 151.921C49.3833 153.264 52.9627 151.862 54.3057 148.79L54.3093 148.782C55.6523 145.709 54.2502 142.13 51.1777 140.787L43.067 137.241C39.9945 135.898 36.415 137.3 35.072 140.373L35.0684 140.381C33.7254 143.454 35.1275 147.033 38.2 148.376Z" fill="#171759"/>
<path d="M75.8535 129.331C107.216 129.331 132.641 103.907 132.641 72.544C132.641 41.1813 107.216 15.7568 75.8535 15.7568C44.4909 15.7568 19.0664 41.1813 19.0664 72.544C19.0664 103.907 44.4909 129.331 75.8535 129.331Z" fill="#62657A"/>
<path opacity="0.43" d="M75.853 103.404C92.8964 103.404 106.713 89.5876 106.713 72.5442C106.713 55.5007 92.8964 41.6843 75.853 41.6843C58.8096 41.6843 44.9932 55.5007 44.9932 72.5442C44.9932 89.5876 58.8096 103.404 75.853 103.404Z" stroke="#D3D3DD" stroke-width="4.48414" stroke-miterlimit="10"/>
<path opacity="0.43" d="M75.8526 96.1037C88.8643 96.1037 99.4123 85.5557 99.4123 72.544C99.4123 59.5324 88.8643 48.9844 75.8526 48.9844C62.841 48.9844 52.293 59.5324 52.293 72.544C52.293 85.5557 62.841 96.1037 75.8526 96.1037Z" fill="#D3D3DD"/>
<path opacity="0.2" d="M132.639 72.5438C132.639 103.906 107.214 129.331 75.8517 129.331C59.8254 129.331 45.3596 122.694 35.0371 112.013C43.8081 117.556 54.1933 120.766 65.3319 120.766C96.694 120.766 122.11 95.3412 122.11 63.9791C122.11 48.6434 116.039 34.7246 106.147 24.5098C122.065 34.5632 132.639 52.3204 132.639 72.5438Z" fill="#3D3D60"/>
<path d="M127.232 74.239C126.371 100.059 106.471 121.053 81.1172 123.627" stroke="#4E4E68" stroke-width="4.48414" stroke-miterlimit="10" stroke-linecap="round"/>
<path d="M119.44 77.6111C117.368 95.4131 104.642 109.96 87.8086 114.713" stroke="#4E4E68" stroke-width="4.48414" stroke-miterlimit="10" stroke-linecap="round"/>
<path d="M24.4668 70.8485C25.3278 45.0288 45.2284 24.0341 70.5817 21.4602" stroke="#4E4E68" stroke-width="4.48414" stroke-miterlimit="10" stroke-linecap="round"/>
<path d="M32.2607 67.477C34.3324 49.675 47.0584 35.1284 63.8918 30.3752" stroke="#4E4E68" stroke-width="4.48414" stroke-miterlimit="10" stroke-linecap="round"/>
<path d="M86.9092 124.085H64.7845C60.4852 124.085 57 127.57 57 131.869V131.878C57 136.178 60.4852 139.663 64.7845 139.663H86.9092C91.2084 139.663 94.6937 136.178 94.6937 131.878V131.869C94.6937 127.57 91.2084 124.085 86.9092 124.085Z" fill="#FCD579"/>
<path d="M75.8541 149.178C81.7462 149.178 86.5353 153.967 86.5353 159.859V200.414H65.1729V159.859C65.1729 153.967 69.9619 149.178 75.8541 149.178Z" fill="#BBD567"/>
<path d="M130.631 70.0154C114.946 72.3651 96.5788 74.087 76.0504 74.0959C55.3516 74.1049 36.8501 72.374 21.0749 70.0154C20.743 70.0154 18.9853 69.9795 17.5683 68.6432C16.6714 67.7912 16.1064 66.6254 16.1064 65.3339V57.8006C16.1064 55.2267 18.3395 53.1191 21.0749 53.1191H130.631C133.358 53.1191 135.6 55.2267 135.6 57.8006V65.3339C135.6 67.9078 133.367 70.0154 130.631 70.0154Z" fill="#312A4C"/>
<path d="M19.1548 61.567C16.2311 61.567 13.8904 59.1007 14.1415 56.2039C16.9127 24.9047 43.683 -0.000244141 75.8522 -0.000244141C108.021 -0.000244141 134.783 24.9047 137.554 56.2039C137.814 59.0917 135.464 61.567 132.541 61.567H19.1548Z" fill="#FF525F"/>
</g>
<defs>
<clipPath id="clip0_5171_54314">
<rect width="137.143" height="252.681" fill="white" transform="translate(0.428711)"/>
</clipPath>
</defs>
</svg>
