<svg width="150" height="253" viewBox="0 0 150 253" fill="none" xmlns="http://www.w3.org/2000/svg">
<g clip-path="url(#clip0_5171_53706)">
<path d="M89.1694 130.258V162.451" stroke="#9AB445" stroke-width="6.97779"/>
<path d="M90.8556 188.149H87.4966C83.6924 188.149 80.6084 191.233 80.6084 195.037V245.485C80.6084 249.29 83.6924 252.373 87.4966 252.373H90.8556C94.6599 252.373 97.7438 249.29 97.7438 245.485V195.037C97.7438 191.233 94.6599 188.149 90.8556 188.149Z" fill="#62657A"/>
<path d="M14.0019 88.6875H40.4888C42.6111 88.6875 44.3315 86.9671 44.3315 84.8448V82.3994C44.3315 80.2772 42.6111 78.5567 40.4888 78.5567H14.0019C11.8796 78.5567 10.1592 80.2772 10.1592 82.3994V84.8448C10.1592 86.9671 11.8796 88.6875 14.0019 88.6875Z" fill="#171759"/>
<path d="M9.60327 92.8525C14.9065 92.8525 19.2056 88.5534 19.2056 83.2502C19.2056 77.947 14.9065 73.6479 9.60327 73.6479C4.30007 73.6479 0.000976562 77.947 0.000976562 83.2502C0.000976562 88.5534 4.30007 92.8525 9.60327 92.8525Z" fill="#171759"/>
<path d="M121.311 143.743L111.599 121.525C110.258 118.456 106.683 117.056 103.614 118.397L103.606 118.401C100.537 119.742 99.1365 123.318 100.478 126.386L110.189 148.604C111.531 151.673 115.106 153.073 118.175 151.732L118.183 151.728C121.252 150.387 122.652 146.812 121.311 143.743Z" fill="#171759"/>
<path d="M121.426 137.083L113.325 140.624C110.256 141.965 108.856 145.54 110.197 148.609L110.201 148.617C111.542 151.686 115.117 153.086 118.186 151.745L126.287 148.204C129.356 146.863 130.756 143.288 129.415 140.219L129.411 140.211C128.07 137.142 124.495 135.742 121.426 137.083Z" fill="#171759"/>
<path d="M66.8345 148.616L76.5459 126.398C77.8872 123.329 76.4869 119.754 73.4181 118.413L73.4099 118.409C70.3411 117.068 66.766 118.468 65.4246 121.537L55.7132 143.755C54.3719 146.824 55.7722 150.399 58.841 151.74L58.8492 151.744C61.918 153.085 65.4931 151.685 66.8345 148.616Z" fill="#171759"/>
<path d="M50.7523 148.191L58.8531 151.732C61.9219 153.073 65.4971 151.673 66.8384 148.604L66.842 148.596C68.1834 145.527 66.783 141.952 63.7142 140.611L55.6133 137.07C52.5446 135.728 48.9694 137.129 47.6281 140.198L47.6245 140.206C46.2831 143.275 47.6835 146.85 50.7523 148.191Z" fill="#171759"/>
<path d="M88.3577 129.175C119.682 129.175 145.076 103.781 145.076 72.4566C145.076 41.1321 119.682 15.7385 88.3577 15.7385C57.0332 15.7385 31.6396 41.1321 31.6396 72.4566C31.6396 103.781 57.0332 129.175 88.3577 129.175Z" fill="#62657A"/>
<path opacity="0.43" d="M88.357 103.279C105.38 103.279 119.179 89.479 119.179 72.4563C119.179 55.4336 105.38 41.634 88.357 41.634C71.3343 41.634 57.5347 55.4336 57.5347 72.4563C57.5347 89.479 71.3343 103.279 88.357 103.279Z" stroke="#D3D3DD" stroke-width="4.47868" stroke-miterlimit="10"/>
<path opacity="0.43" d="M88.3577 95.987C101.353 95.987 111.889 85.4519 111.889 72.456C111.889 59.4602 101.353 48.925 88.3577 48.925C75.3618 48.925 64.8267 59.4602 64.8267 72.456C64.8267 85.4519 75.3618 95.987 88.3577 95.987Z" fill="#D3D3DD"/>
<path opacity="0.2" d="M145.075 72.4556C145.075 103.78 119.681 129.174 88.3568 129.174C72.3499 129.174 57.9017 122.545 47.5918 111.877C56.3521 117.413 66.7247 120.619 77.8498 120.619C109.174 120.619 134.559 95.2252 134.559 63.9013C134.559 48.5842 128.495 34.6824 118.615 24.48C134.514 34.5212 145.075 52.2568 145.075 72.4556Z" fill="#3D3D60"/>
<path d="M139.674 74.1499C138.814 99.9382 118.938 120.907 93.6152 123.478" stroke="#4E4E68" stroke-width="4.47868" stroke-miterlimit="10" stroke-linecap="round"/>
<path d="M131.89 77.5176C129.821 95.2979 117.111 109.827 100.298 114.574" stroke="#4E4E68" stroke-width="4.47868" stroke-miterlimit="10" stroke-linecap="round"/>
<path d="M37.0322 70.7642C37.8921 44.976 57.7685 24.0068 83.091 21.436" stroke="#4E4E68" stroke-width="4.47868" stroke-miterlimit="10" stroke-linecap="round"/>
<path d="M44.8169 67.3957C46.886 49.6154 59.5965 35.0865 76.4095 30.3391" stroke="#4E4E68" stroke-width="4.47868" stroke-miterlimit="10" stroke-linecap="round"/>
<path d="M100.216 123.934H78.1178C73.8238 123.934 70.3428 127.415 70.3428 131.709V131.718C70.3428 136.012 73.8238 139.493 78.1178 139.493H100.216C104.51 139.493 107.991 136.012 107.991 131.718V131.709C107.991 127.415 104.51 123.934 100.216 123.934Z" fill="#FCD579"/>
<path d="M89.1702 148.996C95.0552 148.996 99.8384 153.78 99.8384 159.665V200.17H78.502V159.665C78.502 153.78 83.2852 148.996 89.1702 148.996Z" fill="#BBD567"/>
<path d="M143.07 69.9296C127.404 72.2765 109.059 73.9963 88.5556 74.0052C67.882 74.0142 49.403 72.2854 33.647 69.9296C33.3155 69.9296 31.5599 69.8938 30.1446 68.5592C29.2489 67.7082 28.6846 66.5437 28.6846 65.2539V57.7297C28.6846 55.1589 30.915 53.054 33.647 53.054H143.07C145.793 53.054 148.032 55.1589 148.032 57.7297V65.2539C148.032 67.8246 145.802 69.9296 143.07 69.9296Z" fill="#312A4C"/>
<path d="M31.7297 61.4918C28.8096 61.4918 26.4718 59.0285 26.7226 56.1353C29.4993 24.8741 56.2371 -0.000488281 88.3582 -0.000488281C120.479 -0.000488281 147.217 24.8741 149.985 56.1353C150.245 59.0196 147.898 61.4918 144.978 61.4918H31.7297Z" fill="#FF525F"/>
</g>
<defs>
<clipPath id="clip0_5171_53706">
<rect width="150" height="252.374" fill="white"/>
</clipPath>
</defs>
</svg>
