<svg width="150" height="252" viewBox="0 0 150 252" fill="none" xmlns="http://www.w3.org/2000/svg">
<g clip-path="url(#clip0_5171_53980)">
<path d="M61.4219 129.785V161.861" stroke="#9AB445" stroke-width="6.95246"/>
<path d="M59.7436 251.467H63.0904C66.8809 251.467 69.9536 248.395 69.9536 244.604V194.339C69.9536 190.549 66.8809 187.476 63.0904 187.476H59.7436C55.9531 187.476 52.8804 190.549 52.8804 194.339L52.8804 244.604C52.8804 248.395 55.9531 251.467 59.7436 251.467Z" fill="#62657A"/>
<path d="M136.053 78.2627H109.662C107.547 78.2627 105.833 79.9769 105.833 82.0915V84.5279C105.833 86.6425 107.547 88.3567 109.662 88.3567H136.053C138.167 88.3567 139.881 86.6425 139.881 84.5279V82.0915C139.881 79.9769 138.167 78.2627 136.053 78.2627Z" fill="#171759"/>
<path d="M140.435 92.5155C145.719 92.5155 150.002 88.232 150.002 82.9481C150.002 77.6641 145.719 73.3806 140.435 73.3806C135.151 73.3806 130.867 77.6641 130.867 82.9481C130.867 88.232 135.151 92.5155 140.435 92.5155Z" fill="#171759"/>
<path d="M39.6618 148.073L49.3379 125.936C50.6744 122.878 49.2791 119.316 46.2215 117.979L46.2133 117.976C43.1556 116.639 39.5935 118.035 38.257 121.092L28.5809 143.23C27.2444 146.287 28.6397 149.849 31.6973 151.186L31.7055 151.189C34.7631 152.526 38.3253 151.131 39.6618 148.073Z" fill="#171759"/>
<path d="M23.6373 147.661L31.7088 151.189C34.7664 152.525 38.3286 151.13 39.665 148.073L39.6686 148.064C41.0051 145.007 39.6098 141.445 36.5522 140.108L28.4807 136.58C25.4231 135.244 21.8609 136.639 20.5244 139.696L20.5209 139.705C19.1844 142.762 20.5796 146.324 23.6373 147.661Z" fill="#171759"/>
<path d="M93.9374 143.227L84.2612 121.09C82.9247 118.032 79.3626 116.637 76.305 117.973L76.2968 117.977C73.2391 119.313 71.8439 122.876 73.1803 125.933L82.8565 148.071C84.193 151.128 87.7551 152.523 90.8128 151.187L90.8209 151.183C93.8786 149.847 95.2739 146.285 93.9374 143.227Z" fill="#171759"/>
<path d="M94.0458 136.591L85.9743 140.119C82.9167 141.456 81.5214 145.018 82.8579 148.075L82.8615 148.084C84.198 151.141 87.7601 152.537 90.8178 151.2L98.8892 147.672C101.947 146.336 103.342 142.773 102.006 139.716L102.002 139.708C100.666 136.65 97.1035 135.255 94.0458 136.591Z" fill="#171759"/>
<path d="M61.4204 128.706C92.6312 128.706 117.933 103.404 117.933 72.1936C117.933 40.9828 92.6312 15.6814 61.4204 15.6814C30.2096 15.6814 4.9082 40.9828 4.9082 72.1936C4.9082 103.404 30.2096 128.706 61.4204 128.706Z" fill="#62657A"/>
<path opacity="0.43" d="M61.4199 102.904C78.3808 102.904 92.1303 89.1545 92.1303 72.1936C92.1303 55.2327 78.3808 41.4832 61.4199 41.4832C44.459 41.4832 30.7095 55.2327 30.7095 72.1936C30.7095 89.1545 44.459 102.904 61.4199 102.904Z" stroke="#D3D3DD" stroke-width="4.46243" stroke-miterlimit="10"/>
<path opacity="0.43" d="M61.4207 95.6382C74.3693 95.6382 84.8663 85.1413 84.8663 72.1927C84.8663 59.244 74.3693 48.7471 61.4207 48.7471C48.472 48.7471 37.9751 59.244 37.9751 72.1927C37.9751 85.1413 48.472 95.6382 61.4207 95.6382Z" fill="#D3D3DD"/>
<path opacity="0.2" d="M4.9082 72.1929C4.9082 103.403 30.2102 128.705 61.4204 128.705C77.3691 128.705 91.7649 122.101 102.037 111.471C93.3089 116.987 82.9739 120.182 71.8892 120.182C40.679 120.182 15.386 94.8798 15.386 63.6696C15.386 48.4081 21.4281 34.5568 31.2722 24.3914C15.4306 34.3961 4.9082 52.0673 4.9082 72.1929Z" fill="#3D3D60"/>
<path d="M10.29 73.8796C11.1468 99.5743 30.9511 120.467 56.1816 123.029" stroke="#4E4E68" stroke-width="4.46243" stroke-miterlimit="10" stroke-linecap="round"/>
<path d="M18.0474 77.2351C20.109 94.9509 32.7734 109.427 49.5253 114.157" stroke="#4E4E68" stroke-width="4.46243" stroke-miterlimit="10" stroke-linecap="round"/>
<path d="M112.561 70.5061C111.704 44.8114 91.8995 23.9184 66.6689 21.3569" stroke="#4E4E68" stroke-width="4.46243" stroke-miterlimit="10" stroke-linecap="round"/>
<path d="M104.805 67.1499C102.743 49.4341 90.0786 34.958 73.3267 30.2278" stroke="#4E4E68" stroke-width="4.46243" stroke-miterlimit="10" stroke-linecap="round"/>
<path d="M50.4085 138.987H72.4261C76.7045 138.987 80.1729 135.518 80.1729 131.24V131.231C80.1729 126.953 76.7045 123.484 72.4261 123.484H50.4085C46.13 123.484 42.6617 126.953 42.6617 131.231V131.24C42.6617 135.518 46.13 138.987 50.4085 138.987Z" fill="#FCD579"/>
<path d="M72.0513 199.444H50.7923V159.086C50.7923 153.222 55.5581 148.456 61.4218 148.456C67.2854 148.456 72.0513 153.222 72.0513 159.086V199.444Z" fill="#BBD567"/>
<path d="M6.91019 69.677C22.5198 72.0153 40.7979 73.7289 61.2268 73.7378C81.8254 73.7467 100.237 72.0242 115.936 69.677C116.266 69.677 118.016 69.6413 119.426 68.3115C120.318 67.4636 120.881 66.3034 120.881 65.0182V57.5213C120.881 54.9599 118.658 52.8625 115.936 52.8625H6.91019C4.19703 52.8625 1.96582 54.9599 1.96582 57.5213V65.0182C1.96582 67.5796 4.18811 69.677 6.91019 69.677Z" fill="#312A4C"/>
<path d="M117.846 61.2696C120.756 61.2696 123.085 58.8153 122.835 55.9325C120.078 24.7848 93.437 0.000488281 61.4236 0.000488281C29.4101 0.000488281 2.77836 24.7848 0.0205797 55.9325C-0.238241 58.8063 2.10007 61.2696 5.00957 61.2696H117.846Z" fill="#FF525F"/>
</g>
<defs>
<clipPath id="clip0_5171_53980">
<rect width="150" height="251.458" fill="white"/>
</clipPath>
</defs>
</svg>
