<svg width="155" height="253" viewBox="0 0 155 253" fill="none" xmlns="http://www.w3.org/2000/svg">
<g clip-path="url(#clip0_5171_54157)">
<path d="M87.2852 130.295V162.497" stroke="#9AB445" stroke-width="6.97976"/>
<path d="M88.9591 188.203H85.5991C81.7938 188.203 78.709 191.287 78.709 195.093V245.555C78.709 249.36 81.7938 252.445 85.5991 252.445H88.9591C92.7644 252.445 95.8493 249.36 95.8493 245.555V195.093C95.8493 191.287 92.7644 188.203 88.9591 188.203Z" fill="#62657A"/>
<path d="M16.4112 92.603L34.0388 90.526C36.8155 90.1988 38.8012 87.6827 38.474 84.906L38.473 84.8971C38.1458 82.1205 35.6297 80.1348 32.853 80.4619L15.2254 82.539C12.4488 82.8661 10.4631 85.3823 10.7902 88.1589L10.7913 88.1678C11.1184 90.9444 13.6346 92.9301 16.4112 92.603Z" fill="#171759"/>
<path d="M10.4976 76.0071C15.8023 76.0071 20.1026 71.7068 20.1026 66.4021C20.1026 61.0974 15.8023 56.7971 10.4976 56.7971C5.19289 56.7971 0.892578 61.0974 0.892578 66.4021C0.892578 71.7068 5.19289 76.0071 10.4976 76.0071Z" fill="#171759"/>
<path d="M5.76692 64.3437L9.77479 88.0648C10.2406 90.8216 12.853 92.6788 15.6098 92.213L15.6186 92.2115C18.3754 91.7458 20.2326 89.1333 19.7668 86.3766L15.759 62.6554C15.2932 59.8986 12.6808 58.0414 9.92399 58.5072L9.91515 58.5087C7.15837 58.9745 5.30114 61.5869 5.76692 64.3437Z" fill="#171759"/>
<path d="M120.25 143.789L110.536 121.565C109.194 118.496 105.618 117.095 102.548 118.437L102.54 118.44C99.4705 119.782 98.0697 123.358 99.4115 126.428L109.126 148.652C110.467 151.721 114.043 153.122 117.113 151.78L117.121 151.777C120.191 150.435 121.592 146.859 120.25 143.789Z" fill="#171759"/>
<path d="M120.36 137.12L112.257 140.662C109.188 142.004 107.787 145.58 109.129 148.65L109.132 148.658C110.474 151.728 114.05 153.129 117.12 151.787L125.223 148.245C128.293 146.903 129.693 143.327 128.352 140.257L128.348 140.249C127.006 137.18 123.43 135.779 120.36 137.12Z" fill="#171759"/>
<path d="M65.7588 148.646L75.4729 126.422C76.8147 123.352 75.4139 119.776 72.3443 118.435L72.336 118.431C69.2664 117.089 65.6902 118.49 64.3485 121.56L54.6344 143.784C53.2926 146.853 54.6934 150.43 57.7631 151.771L57.7713 151.775C60.8409 153.117 64.4171 151.716 65.7588 148.646Z" fill="#171759"/>
<path d="M49.6659 148.233L57.7691 151.775C60.8387 153.117 64.4148 151.716 65.7566 148.646L65.7602 148.638C67.1019 145.569 65.7011 141.992 62.6315 140.651L54.5283 137.109C51.4587 135.767 47.8825 137.168 46.5408 140.238L46.5372 140.246C45.1955 143.315 46.5962 146.892 49.6659 148.233Z" fill="#171759"/>
<path d="M87.2849 129.211C118.618 129.211 144.019 103.81 144.019 72.477C144.019 41.1436 118.618 15.7429 87.2849 15.7429C55.9515 15.7429 30.5508 41.1436 30.5508 72.477C30.5508 103.81 55.9515 129.211 87.2849 129.211Z" fill="#62657A"/>
<path opacity="0.43" d="M87.2841 103.308C104.312 103.308 118.115 89.5043 118.115 72.4768C118.115 55.4493 104.312 41.6458 87.2841 41.6458C70.2566 41.6458 56.4531 55.4493 56.4531 72.4768C56.4531 89.5043 70.2566 103.308 87.2841 103.308Z" stroke="#D3D3DD" stroke-width="4.47995" stroke-miterlimit="10"/>
<path opacity="0.43" d="M87.2847 96.0143C100.284 96.0143 110.822 85.4761 110.822 72.4766C110.822 59.4771 100.284 48.939 87.2847 48.939C74.2852 48.939 63.7471 59.4771 63.7471 72.4766C63.7471 85.4761 74.2852 96.0143 87.2847 96.0143Z" fill="#D3D3DD"/>
<path opacity="0.2" d="M144.011 72.4763C144.011 103.809 118.609 129.21 87.2765 129.21C71.2652 129.21 56.8128 122.58 46.5 111.909C55.2628 117.446 65.6383 120.654 76.7665 120.654C108.099 120.654 133.492 95.2523 133.492 63.9196C133.492 48.5981 127.426 34.6924 117.543 24.4871C133.447 34.5311 144.011 52.2717 144.011 72.4763Z" fill="#3D3D60"/>
<path d="M138.616 74.1704C137.756 99.966 117.874 120.941 92.5439 123.513" stroke="#4E4E68" stroke-width="4.47995" stroke-miterlimit="10" stroke-linecap="round"/>
<path d="M130.829 77.5391C128.759 95.3245 116.045 109.857 99.2275 114.606" stroke="#4E4E68" stroke-width="4.47995" stroke-miterlimit="10" stroke-linecap="round"/>
<path d="M35.9443 70.7831C36.8045 44.9875 56.6865 24.0124 82.0161 21.4409" stroke="#4E4E68" stroke-width="4.47995" stroke-miterlimit="10" stroke-linecap="round"/>
<path d="M43.7305 67.4143C45.8002 49.6289 58.5143 35.0959 75.332 30.3472" stroke="#4E4E68" stroke-width="4.47995" stroke-miterlimit="10" stroke-linecap="round"/>
<path d="M98.3334 123.969H76.2293C71.9341 123.969 68.4521 127.451 68.4521 131.746V131.755C68.4521 136.051 71.9341 139.533 76.2293 139.533H98.3334C102.629 139.533 106.111 136.051 106.111 131.755V131.746C106.111 127.451 102.629 123.969 98.3334 123.969Z" fill="#FCD579"/>
<path d="M87.2845 149.039C93.1712 149.039 97.9558 153.823 97.9558 159.71V200.226H76.6133V159.71C76.6133 153.823 81.3979 149.039 87.2845 149.039Z" fill="#BBD567"/>
<path d="M143.655 75.7916C127.33 78.3363 108.209 80.1999 86.8399 80.2178C65.3003 80.2268 46.0365 78.3542 29.6131 75.7916C29.2636 75.7916 27.4358 75.7468 25.9664 74.3043C25.0256 73.3814 24.4521 72.1181 24.4521 70.7203V62.5579C24.4521 59.7713 26.7817 57.4866 29.622 57.4866H143.655C146.495 57.4866 148.825 59.7713 148.825 62.5579V70.7203C148.825 73.5069 146.495 75.7916 143.655 75.7916Z" fill="#312A4C"/>
<path d="M27.6323 66.6435C24.5949 66.6435 22.1489 63.9734 22.4177 60.8464C25.2938 26.9511 53.1591 -0.000244141 86.6423 -0.000244141C120.125 -0.000244141 147.991 26.9511 150.867 60.8375C151.136 63.9645 148.69 66.6345 145.652 66.6345H27.6323V66.6435Z" fill="#FF525F"/>
</g>
<defs>
<clipPath id="clip0_5171_54157">
<rect width="153.214" height="252.445" fill="white" transform="translate(0.893555)"/>
</clipPath>
</defs>
</svg>
