<svg width="144" height="236" viewBox="0 0 144 236" fill="none" xmlns="http://www.w3.org/2000/svg">
<g clip-path="url(#clip0_5911_21438)">
<path d="M81.3169 121.829V151.884" stroke="#969696" stroke-width="6.51444"/>
<path d="M82.8798 175.876H79.7438C76.1922 175.876 73.313 178.755 73.313 182.307V229.405C73.313 232.956 76.1922 235.836 79.7438 235.836H82.8798C86.4314 235.836 89.3106 232.956 89.3106 229.405V182.307C89.3106 178.755 86.4314 175.876 82.8798 175.876Z" fill="#7A7A7A"/>
<path d="M15.1686 86.6496L31.6211 84.7111C34.2126 84.4057 36.0659 82.0573 35.7606 79.4658L35.7596 79.4575C35.4543 76.866 33.1059 75.0126 30.5143 75.318L14.0619 77.2565C11.4703 77.5619 9.61702 79.9103 9.92237 82.5018L9.92335 82.5101C10.2287 85.1017 12.5771 86.955 15.1686 86.6496Z" fill="#323232"/>
<path d="M9.64925 71.1603C14.6003 71.1603 18.6139 67.1467 18.6139 62.1956C18.6139 57.2446 14.6003 53.231 9.64925 53.231C4.69819 53.231 0.68457 57.2446 0.68457 62.1956C0.68457 67.1467 4.69819 71.1603 9.64925 71.1603Z" fill="#323232"/>
<path d="M5.23341 60.2744L8.97409 82.4142C9.40881 84.9872 11.8471 86.7206 14.4201 86.2859L14.4283 86.2845C17.0013 85.8497 18.7347 83.4115 18.3 80.8385L14.5593 58.6988C14.1246 56.1258 11.6863 54.3924 9.11333 54.8271L9.10509 54.8285C6.53209 55.2632 4.79868 57.7015 5.23341 60.2744Z" fill="#323232"/>
<path d="M112.086 134.424L103.019 113.681C101.767 110.816 98.4294 109.509 95.5644 110.761L95.5567 110.764C92.6917 112.017 91.3844 115.354 92.6366 118.219L101.703 138.962C102.955 141.827 106.293 143.134 109.158 141.882L109.166 141.879C112.031 140.626 113.338 137.289 112.086 134.424Z" fill="#323232"/>
<path d="M112.189 128.199L104.626 131.505C101.761 132.757 100.454 136.095 101.706 138.96L101.709 138.968C102.962 141.833 106.299 143.14 109.164 141.888L116.727 138.582C119.592 137.33 120.9 133.992 119.647 131.127L119.644 131.119C118.392 128.254 115.054 126.947 112.189 128.199Z" fill="#323232"/>
<path d="M61.2261 138.957L70.2926 118.214C71.5449 115.349 70.2375 112.011 67.3725 110.759L67.3648 110.756C64.4998 109.504 61.1621 110.811 59.9098 113.676L50.8433 134.418C49.591 137.283 50.8984 140.621 53.7634 141.873L53.7711 141.877C56.6361 143.129 59.9738 141.822 61.2261 138.957Z" fill="#323232"/>
<path d="M46.2055 138.571L53.7685 141.877C56.6335 143.129 59.9712 141.822 61.2235 138.957L61.2269 138.949C62.4792 136.084 61.1718 132.747 58.3068 131.494L50.7438 128.189C47.8788 126.936 44.5411 128.244 43.2888 131.109L43.2855 131.116C42.0332 133.981 43.3405 137.319 46.2055 138.571Z" fill="#323232"/>
<path d="M81.3175 120.817C110.562 120.817 134.269 97.1099 134.269 67.8654C134.269 38.6209 110.562 14.9136 81.3175 14.9136C52.0731 14.9136 28.3657 38.6209 28.3657 67.8654C28.3657 97.1099 52.0731 120.817 81.3175 120.817Z" fill="#7A7A7A"/>
<path opacity="0.43" d="M81.3176 96.6408C97.2099 96.6408 110.093 83.7575 110.093 67.8652C110.093 51.9729 97.2099 39.0896 81.3176 39.0896C65.4253 39.0896 52.542 51.9729 52.542 67.8652C52.542 83.7575 65.4253 96.6408 81.3176 96.6408Z" stroke="#DFDFDF" stroke-width="4.18129" stroke-miterlimit="10"/>
<path opacity="0.43" d="M81.3176 89.8334C93.4505 89.8334 103.286 79.9978 103.286 67.865C103.286 55.7321 93.4505 45.8965 81.3176 45.8965C69.1847 45.8965 59.3491 55.7321 59.3491 67.865C59.3491 79.9978 69.1847 89.8334 81.3176 89.8334Z" fill="#DFDFDF"/>
<path opacity="0.2" d="M134.261 67.8646C134.261 97.1086 110.553 120.816 81.309 120.816C66.3651 120.816 52.8763 114.628 43.251 104.668C51.4296 109.836 61.1134 112.83 71.4997 112.83C100.744 112.83 124.443 89.1223 124.443 59.8784C124.443 45.5784 118.782 32.5997 109.558 23.0747C124.401 32.4492 134.261 49.007 134.261 67.8646Z" fill="#585858"/>
<path d="M129.226 69.4458C128.424 93.5217 109.867 113.098 86.2261 115.498" stroke="#606060" stroke-width="4.18129" stroke-miterlimit="10" stroke-linecap="round"/>
<path d="M121.96 72.5898C120.028 89.1896 108.161 102.754 92.4648 107.186" stroke="#606060" stroke-width="4.18129" stroke-miterlimit="10" stroke-linecap="round"/>
<path d="M33.3999 66.2844C34.2027 42.2085 52.7593 22.6317 76.4003 20.2317" stroke="#606060" stroke-width="4.18129" stroke-miterlimit="10" stroke-linecap="round"/>
<path d="M40.6675 63.1402C42.5992 46.5404 54.4657 32.9764 70.1623 28.5442" stroke="#606060" stroke-width="4.18129" stroke-miterlimit="10" stroke-linecap="round"/>
<path d="M91.6284 115.925H70.998C66.9891 115.925 63.7393 119.175 63.7393 123.184V123.192C63.7393 127.201 66.9891 130.451 70.998 130.451H91.6284C95.6373 130.451 98.8872 127.201 98.8872 123.192V123.184C98.8872 119.175 95.6373 115.925 91.6284 115.925Z" fill="#D3D3D3"/>
<path d="M81.3163 139.323C86.8105 139.323 91.2761 143.789 91.2761 149.283V187.098H71.3564V149.283C71.3564 143.789 75.8221 139.323 81.3163 139.323Z" fill="#C0C0C0"/>
<path d="M133.929 70.9592C118.692 73.3342 100.847 75.0736 80.9019 75.0904C60.7983 75.0987 42.8188 73.3509 27.4902 70.9592C27.164 70.9592 25.4581 70.9174 24.0866 69.5711C23.2085 68.7097 22.6733 67.5306 22.6733 66.226V58.6077C22.6733 56.007 24.8476 53.8745 27.4985 53.8745H133.929C136.58 53.8745 138.754 56.007 138.754 58.6077V66.226C138.754 68.8268 136.58 70.9592 133.929 70.9592Z" fill="#4D4D4D"/>
<path d="M25.6413 62.4208C22.8064 62.4208 20.5234 59.9287 20.7742 57.0102C23.4586 25.3746 49.4662 0.219971 80.7172 0.219971C111.968 0.219971 137.976 25.3746 140.66 57.0018C140.911 59.9204 138.628 62.4124 135.793 62.4124H25.6413V62.4208Z" fill="#C1C1C1"/>
</g>
<defs>
<clipPath id="clip0_5911_21438">
<rect width="143" height="235.615" fill="white" transform="translate(0.685059 0.220215)"/>
</clipPath>
</defs>
</svg>
