<svg width="564" height="548" viewBox="0 0 564 548" fill="none" xmlns="http://www.w3.org/2000/svg">
<path d="M403.776 26V9.2H409.296C410.608 9.2 411.688 9.416 412.536 9.848C413.384 10.28 414.008 10.864 414.408 11.6C414.824 12.336 415.032 13.168 415.032 14.096C415.032 15.008 414.832 15.832 414.432 16.568C414.032 17.304 413.408 17.896 412.56 18.344C411.712 18.776 410.624 18.992 409.296 18.992H405.792V26H403.776ZM405.792 17.288H409.248C410.576 17.288 411.528 17 412.104 16.424C412.68 15.848 412.968 15.072 412.968 14.096C412.968 13.072 412.68 12.28 412.104 11.72C411.528 11.16 410.576 10.88 409.248 10.88H405.792V17.288ZM421.432 26.288C420.44 26.288 419.616 26.12 418.96 25.784C418.304 25.448 417.816 25 417.496 24.44C417.176 23.88 417.016 23.272 417.016 22.616C417.016 21.8 417.224 21.112 417.64 20.552C418.072 19.992 418.672 19.568 419.44 19.28C420.224 18.976 421.144 18.824 422.2 18.824H425.416C425.416 18.088 425.296 17.48 425.056 17C424.816 16.504 424.472 16.136 424.024 15.896C423.576 15.64 423.04 15.512 422.416 15.512C421.632 15.512 420.952 15.712 420.376 16.112C419.8 16.496 419.448 17.064 419.32 17.816H417.256C417.352 16.952 417.648 16.224 418.144 15.632C418.64 15.04 419.264 14.592 420.016 14.288C420.784 13.968 421.584 13.808 422.416 13.808C423.52 13.808 424.44 14.016 425.176 14.432C425.928 14.832 426.488 15.4 426.856 16.136C427.24 16.856 427.432 17.704 427.432 18.68V26H425.632L425.512 23.864C425.352 24.2 425.144 24.52 424.888 24.824C424.648 25.112 424.36 25.368 424.024 25.592C423.704 25.8 423.328 25.968 422.896 26.096C422.464 26.224 421.976 26.288 421.432 26.288ZM421.744 24.584C422.32 24.584 422.832 24.472 423.28 24.248C423.744 24.008 424.136 23.688 424.456 23.288C424.776 22.888 425.016 22.44 425.176 21.944C425.336 21.448 425.416 20.936 425.416 20.408V20.384H422.368C421.584 20.384 420.952 20.48 420.472 20.672C419.992 20.848 419.648 21.096 419.44 21.416C419.232 21.736 419.128 22.104 419.128 22.52C419.128 22.936 419.224 23.304 419.416 23.624C419.624 23.928 419.92 24.168 420.304 24.344C420.704 24.504 421.184 24.584 421.744 24.584ZM430.96 26V14.096H432.784L432.952 16.4C433.208 15.856 433.544 15.392 433.96 15.008C434.376 14.624 434.872 14.328 435.448 14.12C436.024 13.912 436.68 13.808 437.416 13.808V15.92H436.864C436.336 15.92 435.832 15.992 435.352 16.136C434.888 16.264 434.472 16.48 434.104 16.784C433.752 17.088 433.472 17.504 433.264 18.032C433.072 18.56 432.976 19.216 432.976 20V26H430.96ZM447.622 26L441.838 19.448L447.046 14.096H449.518L443.542 20.168L443.566 18.728L450.19 26H447.622ZM440.158 26V8.72H442.174V26H440.158ZM452.948 26V14.096H454.964V26H452.948ZM453.956 11.456C453.556 11.456 453.22 11.328 452.948 11.072C452.692 10.8 452.564 10.464 452.564 10.064C452.564 9.664 452.692 9.344 452.948 9.104C453.22 8.848 453.556 8.72 453.956 8.72C454.34 8.72 454.668 8.848 454.94 9.104C455.212 9.344 455.348 9.664 455.348 10.064C455.348 10.464 455.212 10.8 454.94 11.072C454.668 11.328 454.34 11.456 453.956 11.456ZM458.954 26V14.096H460.778L460.898 16.232C461.282 15.48 461.834 14.888 462.554 14.456C463.274 14.024 464.09 13.808 465.002 13.808C465.946 13.808 466.762 14 467.45 14.384C468.138 14.752 468.674 15.328 469.058 16.112C469.442 16.88 469.634 17.856 469.634 19.04V26H467.618V19.256C467.618 18.024 467.354 17.096 466.826 16.472C466.298 15.848 465.538 15.536 464.546 15.536C463.858 15.536 463.242 15.704 462.698 16.04C462.17 16.376 461.746 16.864 461.426 17.504C461.122 18.128 460.97 18.904 460.97 19.832V26H458.954ZM477.897 31.568C476.825 31.568 475.873 31.424 475.041 31.136C474.209 30.864 473.561 30.44 473.097 29.864C472.633 29.288 472.401 28.576 472.401 27.728C472.401 27.376 472.473 26.992 472.617 26.576C472.777 26.176 473.041 25.776 473.409 25.376C473.793 24.976 474.329 24.616 475.017 24.296L476.361 25.112C475.545 25.464 475.009 25.864 474.753 26.312C474.497 26.76 474.369 27.168 474.369 27.536C474.369 28.064 474.521 28.504 474.825 28.856C475.129 29.208 475.545 29.472 476.073 29.648C476.617 29.824 477.225 29.912 477.897 29.912C478.569 29.912 479.145 29.808 479.625 29.6C480.121 29.408 480.505 29.136 480.777 28.784C481.049 28.432 481.185 28.016 481.185 27.536C481.185 27.024 480.977 26.576 480.561 26.192C480.161 25.824 479.393 25.608 478.257 25.544C477.313 25.48 476.521 25.392 475.881 25.28C475.257 25.168 474.737 25.04 474.321 24.896C473.905 24.736 473.553 24.56 473.265 24.368C472.993 24.176 472.745 23.976 472.521 23.768V23.216L474.849 20.888L476.553 21.512L474.201 23.696L474.513 22.88C474.689 23.008 474.857 23.128 475.017 23.24C475.177 23.336 475.393 23.424 475.665 23.504C475.937 23.584 476.313 23.656 476.793 23.72C477.273 23.784 477.913 23.848 478.713 23.912C479.785 23.992 480.649 24.184 481.305 24.488C481.961 24.792 482.433 25.2 482.721 25.712C483.025 26.208 483.177 26.792 483.177 27.464C483.177 28.152 482.985 28.808 482.601 29.432C482.233 30.056 481.657 30.568 480.873 30.968C480.105 31.368 479.113 31.568 477.897 31.568ZM477.873 22.256C476.865 22.256 476.009 22.072 475.305 21.704C474.601 21.32 474.065 20.808 473.697 20.168C473.329 19.528 473.145 18.816 473.145 18.032C473.145 17.248 473.329 16.544 473.697 15.92C474.065 15.28 474.601 14.768 475.305 14.384C476.009 14 476.865 13.808 477.873 13.808C478.881 13.808 479.737 14 480.441 14.384C481.145 14.768 481.681 15.28 482.049 15.92C482.417 16.544 482.601 17.248 482.601 18.032C482.601 18.816 482.417 19.528 482.049 20.168C481.681 20.808 481.145 21.32 480.441 21.704C479.737 22.072 478.881 22.256 477.873 22.256ZM477.873 20.6C478.721 20.6 479.393 20.384 479.889 19.952C480.401 19.504 480.657 18.864 480.657 18.032C480.657 17.216 480.401 16.592 479.889 16.16C479.393 15.712 478.721 15.488 477.873 15.488C477.025 15.488 476.345 15.712 475.833 16.16C475.321 16.592 475.065 17.216 475.065 18.032C475.065 18.864 475.321 19.504 475.833 19.952C476.345 20.384 477.025 20.6 477.873 20.6ZM479.793 15.8L479.193 14.096H484.137V15.608L479.793 15.8ZM493.843 26V9.2H495.859V24.392H503.683V26H493.843ZM510.772 26.288C509.78 26.288 508.956 26.12 508.3 25.784C507.644 25.448 507.156 25 506.836 24.44C506.516 23.88 506.356 23.272 506.356 22.616C506.356 21.8 506.564 21.112 506.98 20.552C507.412 19.992 508.012 19.568 508.78 19.28C509.564 18.976 510.484 18.824 511.54 18.824H514.756C514.756 18.088 514.636 17.48 514.396 17C514.156 16.504 513.812 16.136 513.364 15.896C512.916 15.64 512.38 15.512 511.756 15.512C510.972 15.512 510.292 15.712 509.716 16.112C509.14 16.496 508.788 17.064 508.66 17.816H506.596C506.692 16.952 506.988 16.224 507.484 15.632C507.98 15.04 508.604 14.592 509.356 14.288C510.124 13.968 510.924 13.808 511.756 13.808C512.86 13.808 513.78 14.016 514.516 14.432C515.268 14.832 515.828 15.4 516.196 16.136C516.58 16.856 516.772 17.704 516.772 18.68V26H514.972L514.852 23.864C514.692 24.2 514.484 24.52 514.228 24.824C513.988 25.112 513.7 25.368 513.364 25.592C513.044 25.8 512.668 25.968 512.236 26.096C511.804 26.224 511.316 26.288 510.772 26.288ZM511.084 24.584C511.66 24.584 512.172 24.472 512.62 24.248C513.084 24.008 513.476 23.688 513.796 23.288C514.116 22.888 514.356 22.44 514.516 21.944C514.676 21.448 514.756 20.936 514.756 20.408V20.384H511.708C510.924 20.384 510.292 20.48 509.812 20.672C509.332 20.848 508.988 21.096 508.78 21.416C508.572 21.736 508.468 22.104 508.468 22.52C508.468 22.936 508.564 23.304 508.756 23.624C508.964 23.928 509.26 24.168 509.644 24.344C510.044 24.504 510.524 24.584 511.084 24.584ZM520.3 26V14.096H522.124L522.244 16.232C522.628 15.48 523.18 14.888 523.9 14.456C524.62 14.024 525.436 13.808 526.348 13.808C527.292 13.808 528.108 14 528.796 14.384C529.484 14.752 530.02 15.328 530.404 16.112C530.788 16.88 530.98 17.856 530.98 19.04V26H528.964V19.256C528.964 18.024 528.7 17.096 528.172 16.472C527.644 15.848 526.884 15.536 525.892 15.536C525.204 15.536 524.588 15.704 524.044 16.04C523.516 16.376 523.092 16.864 522.772 17.504C522.468 18.128 522.316 18.904 522.316 19.832V26H520.3ZM539.866 26.288C538.73 26.288 537.722 26.032 536.842 25.52C535.962 24.992 535.266 24.264 534.754 23.336C534.258 22.392 534.01 21.296 534.01 20.048C534.01 18.784 534.258 17.688 534.754 16.76C535.25 15.832 535.938 15.112 536.818 14.6C537.714 14.072 538.746 13.808 539.914 13.808C541.082 13.808 542.082 14.072 542.914 14.6C543.746 15.112 544.386 15.792 544.834 16.64C545.282 17.472 545.506 18.384 545.506 19.376C545.506 19.536 545.506 19.712 545.506 19.904C545.506 20.08 545.498 20.28 545.482 20.504H535.522V18.944H543.514C543.466 17.872 543.098 17.032 542.41 16.424C541.738 15.816 540.89 15.512 539.866 15.512C539.178 15.512 538.538 15.664 537.946 15.968C537.354 16.272 536.874 16.72 536.506 17.312C536.154 17.888 535.978 18.616 535.978 19.496V20.168C535.978 21.144 536.162 21.96 536.53 22.616C536.898 23.272 537.378 23.768 537.97 24.104C538.562 24.424 539.194 24.584 539.866 24.584C540.698 24.584 541.394 24.392 541.954 24.008C542.514 23.624 542.922 23.104 543.178 22.448H545.17C544.962 23.184 544.618 23.84 544.138 24.416C543.658 24.992 543.058 25.448 542.338 25.784C541.634 26.12 540.81 26.288 539.866 26.288Z" fill="black"/>
<path d="M254.776 26V9.2H260.68C261.864 9.2 262.84 9.392 263.608 9.776C264.392 10.144 264.976 10.656 265.36 11.312C265.744 11.952 265.936 12.672 265.936 13.472C265.936 14.336 265.744 15.056 265.36 15.632C264.992 16.208 264.504 16.648 263.896 16.952C263.304 17.256 262.672 17.44 262 17.504L262.336 17.264C263.056 17.28 263.72 17.472 264.328 17.84C264.936 18.208 265.416 18.704 265.768 19.328C266.136 19.952 266.32 20.648 266.32 21.416C266.32 22.264 266.112 23.04 265.696 23.744C265.28 24.432 264.664 24.984 263.848 25.4C263.048 25.8 262.056 26 260.872 26H254.776ZM256.792 24.32H260.656C261.792 24.32 262.672 24.056 263.296 23.528C263.936 22.984 264.256 22.232 264.256 21.272C264.256 20.328 263.928 19.576 263.272 19.016C262.632 18.44 261.744 18.152 260.608 18.152H256.792V24.32ZM256.792 16.544H260.536C261.624 16.544 262.448 16.288 263.008 15.776C263.584 15.264 263.872 14.568 263.872 13.688C263.872 12.84 263.584 12.16 263.008 11.648C262.448 11.136 261.6 10.88 260.464 10.88H256.792V16.544ZM269.789 26V14.096H271.805V26H269.789ZM270.797 11.456C270.397 11.456 270.061 11.328 269.789 11.072C269.533 10.8 269.405 10.464 269.405 10.064C269.405 9.664 269.533 9.344 269.789 9.104C270.061 8.848 270.397 8.72 270.797 8.72C271.181 8.72 271.509 8.848 271.781 9.104C272.053 9.344 272.189 9.664 272.189 10.064C272.189 10.464 272.053 10.8 271.781 11.072C271.509 11.328 271.181 11.456 270.797 11.456ZM283.26 26L277.476 19.448L282.684 14.096H285.156L279.18 20.168L279.204 18.728L285.828 26H283.26ZM275.796 26V8.72H277.812V26H275.796ZM292.854 26.288C291.718 26.288 290.71 26.032 289.83 25.52C288.95 24.992 288.254 24.264 287.742 23.336C287.246 22.392 286.998 21.296 286.998 20.048C286.998 18.784 287.246 17.688 287.742 16.76C288.238 15.832 288.926 15.112 289.806 14.6C290.702 14.072 291.734 13.808 292.902 13.808C294.07 13.808 295.07 14.072 295.902 14.6C296.734 15.112 297.374 15.792 297.822 16.64C298.27 17.472 298.494 18.384 298.494 19.376C298.494 19.536 298.494 19.712 298.494 19.904C298.494 20.08 298.486 20.28 298.47 20.504H288.51V18.944H296.502C296.454 17.872 296.086 17.032 295.398 16.424C294.726 15.816 293.878 15.512 292.854 15.512C292.166 15.512 291.526 15.664 290.934 15.968C290.342 16.272 289.862 16.72 289.494 17.312C289.142 17.888 288.966 18.616 288.966 19.496V20.168C288.966 21.144 289.15 21.96 289.518 22.616C289.886 23.272 290.366 23.768 290.958 24.104C291.55 24.424 292.182 24.584 292.854 24.584C293.686 24.584 294.382 24.392 294.942 24.008C295.502 23.624 295.91 23.104 296.166 22.448H298.158C297.95 23.184 297.606 23.84 297.126 24.416C296.646 24.992 296.046 25.448 295.326 25.784C294.622 26.12 293.798 26.288 292.854 26.288ZM308.598 26V9.2H310.614V24.392H318.438V26H308.598ZM325.527 26.288C324.535 26.288 323.711 26.12 323.055 25.784C322.399 25.448 321.911 25 321.591 24.44C321.271 23.88 321.111 23.272 321.111 22.616C321.111 21.8 321.319 21.112 321.735 20.552C322.167 19.992 322.767 19.568 323.535 19.28C324.319 18.976 325.239 18.824 326.295 18.824H329.511C329.511 18.088 329.391 17.48 329.151 17C328.911 16.504 328.567 16.136 328.119 15.896C327.671 15.64 327.135 15.512 326.511 15.512C325.727 15.512 325.047 15.712 324.471 16.112C323.895 16.496 323.543 17.064 323.415 17.816H321.351C321.447 16.952 321.743 16.224 322.239 15.632C322.735 15.04 323.359 14.592 324.111 14.288C324.879 13.968 325.679 13.808 326.511 13.808C327.615 13.808 328.535 14.016 329.271 14.432C330.023 14.832 330.583 15.4 330.951 16.136C331.335 16.856 331.527 17.704 331.527 18.68V26H329.727L329.607 23.864C329.447 24.2 329.239 24.52 328.983 24.824C328.743 25.112 328.455 25.368 328.119 25.592C327.799 25.8 327.423 25.968 326.991 26.096C326.559 26.224 326.071 26.288 325.527 26.288ZM325.839 24.584C326.415 24.584 326.927 24.472 327.375 24.248C327.839 24.008 328.231 23.688 328.551 23.288C328.871 22.888 329.111 22.44 329.271 21.944C329.431 21.448 329.511 20.936 329.511 20.408V20.384H326.463C325.679 20.384 325.047 20.48 324.567 20.672C324.087 20.848 323.743 21.096 323.535 21.416C323.327 21.736 323.223 22.104 323.223 22.52C323.223 22.936 323.319 23.304 323.511 23.624C323.719 23.928 324.015 24.168 324.399 24.344C324.799 24.504 325.279 24.584 325.839 24.584ZM335.055 26V14.096H336.879L336.999 16.232C337.383 15.48 337.935 14.888 338.655 14.456C339.375 14.024 340.191 13.808 341.103 13.808C342.047 13.808 342.863 14 343.551 14.384C344.239 14.752 344.775 15.328 345.159 16.112C345.543 16.88 345.735 17.856 345.735 19.04V26H343.719V19.256C343.719 18.024 343.455 17.096 342.927 16.472C342.399 15.848 341.639 15.536 340.647 15.536C339.959 15.536 339.343 15.704 338.799 16.04C338.271 16.376 337.847 16.864 337.527 17.504C337.223 18.128 337.071 18.904 337.071 19.832V26H335.055ZM354.621 26.288C353.485 26.288 352.477 26.032 351.597 25.52C350.717 24.992 350.021 24.264 349.509 23.336C349.013 22.392 348.765 21.296 348.765 20.048C348.765 18.784 349.013 17.688 349.509 16.76C350.005 15.832 350.693 15.112 351.573 14.6C352.469 14.072 353.501 13.808 354.669 13.808C355.837 13.808 356.837 14.072 357.669 14.6C358.501 15.112 359.141 15.792 359.589 16.64C360.037 17.472 360.261 18.384 360.261 19.376C360.261 19.536 360.261 19.712 360.261 19.904C360.261 20.08 360.253 20.28 360.237 20.504H350.277V18.944H358.269C358.221 17.872 357.853 17.032 357.165 16.424C356.493 15.816 355.645 15.512 354.621 15.512C353.933 15.512 353.293 15.664 352.701 15.968C352.109 16.272 351.629 16.72 351.261 17.312C350.909 17.888 350.733 18.616 350.733 19.496V20.168C350.733 21.144 350.917 21.96 351.285 22.616C351.653 23.272 352.133 23.768 352.725 24.104C353.317 24.424 353.949 24.584 354.621 24.584C355.453 24.584 356.149 24.392 356.709 24.008C357.269 23.624 357.677 23.104 357.933 22.448H359.925C359.717 23.184 359.373 23.84 358.893 24.416C358.413 24.992 357.813 25.448 357.093 25.784C356.389 26.12 355.565 26.288 354.621 26.288Z" fill="black"/>
<path d="M52.712 26V10.856H47.696V9.2H59.744V10.856H54.728V26H52.712ZM61.2063 26V14.096H63.0303L63.1983 16.4C63.4543 15.856 63.7903 15.392 64.2063 15.008C64.6223 14.624 65.1183 14.328 65.6943 14.12C66.2703 13.912 66.9263 13.808 67.6623 13.808V15.92H67.1103C66.5823 15.92 66.0783 15.992 65.5983 16.136C65.1343 16.264 64.7183 16.48 64.3503 16.784C63.9983 17.088 63.7183 17.504 63.5103 18.032C63.3183 18.56 63.2223 19.216 63.2223 20V26H61.2063ZM74.3651 26.288C73.3731 26.288 72.5491 26.12 71.8931 25.784C71.2371 25.448 70.7491 25 70.4291 24.44C70.1091 23.88 69.9491 23.272 69.9491 22.616C69.9491 21.8 70.1571 21.112 70.5731 20.552C71.0051 19.992 71.6051 19.568 72.3731 19.28C73.1571 18.976 74.0771 18.824 75.1331 18.824H78.3491C78.3491 18.088 78.2291 17.48 77.9891 17C77.7491 16.504 77.4051 16.136 76.9571 15.896C76.5091 15.64 75.9731 15.512 75.3491 15.512C74.5651 15.512 73.8851 15.712 73.3091 16.112C72.7331 16.496 72.3811 17.064 72.2531 17.816H70.1891C70.2851 16.952 70.5811 16.224 71.0771 15.632C71.5731 15.04 72.1971 14.592 72.9491 14.288C73.7171 13.968 74.5171 13.808 75.3491 13.808C76.4531 13.808 77.3731 14.016 78.1091 14.432C78.8611 14.832 79.4211 15.4 79.7891 16.136C80.1731 16.856 80.3651 17.704 80.3651 18.68V26H78.5651L78.4451 23.864C78.2851 24.2 78.0771 24.52 77.8211 24.824C77.5811 25.112 77.2931 25.368 76.9571 25.592C76.6371 25.8 76.2611 25.968 75.8291 26.096C75.3971 26.224 74.9091 26.288 74.3651 26.288ZM74.6771 24.584C75.2531 24.584 75.7651 24.472 76.2131 24.248C76.6771 24.008 77.0691 23.688 77.3891 23.288C77.7091 22.888 77.9491 22.44 78.1091 21.944C78.2691 21.448 78.3491 20.936 78.3491 20.408V20.384H75.3011C74.5171 20.384 73.8851 20.48 73.4051 20.672C72.9251 20.848 72.5811 21.096 72.3731 21.416C72.1651 21.736 72.0611 22.104 72.0611 22.52C72.0611 22.936 72.1571 23.304 72.3491 23.624C72.5571 23.928 72.8531 24.168 73.2371 24.344C73.6371 24.504 74.1171 24.584 74.6771 24.584ZM86.8796 26L82.3676 14.096H84.4796L88.0556 24.056L91.6556 14.096H93.7196L89.2076 26H86.8796ZM101.186 26.288C100.05 26.288 99.0418 26.032 98.1618 25.52C97.2818 24.992 96.5858 24.264 96.0738 23.336C95.5778 22.392 95.3298 21.296 95.3298 20.048C95.3298 18.784 95.5778 17.688 96.0738 16.76C96.5698 15.832 97.2578 15.112 98.1378 14.6C99.0338 14.072 100.066 13.808 101.234 13.808C102.402 13.808 103.402 14.072 104.234 14.6C105.066 15.112 105.706 15.792 106.154 16.64C106.602 17.472 106.826 18.384 106.826 19.376C106.826 19.536 106.826 19.712 106.826 19.904C106.826 20.08 106.818 20.28 106.802 20.504H96.8418V18.944H104.834C104.786 17.872 104.418 17.032 103.73 16.424C103.058 15.816 102.21 15.512 101.186 15.512C100.498 15.512 99.8578 15.664 99.2658 15.968C98.6738 16.272 98.1938 16.72 97.8258 17.312C97.4738 17.888 97.2978 18.616 97.2978 19.496V20.168C97.2978 21.144 97.4818 21.96 97.8498 22.616C98.2178 23.272 98.6978 23.768 99.2898 24.104C99.8818 24.424 100.514 24.584 101.186 24.584C102.018 24.584 102.714 24.392 103.274 24.008C103.834 23.624 104.242 23.104 104.498 22.448H106.49C106.282 23.184 105.938 23.84 105.458 24.416C104.978 24.992 104.378 25.448 103.658 25.784C102.954 26.12 102.13 26.288 101.186 26.288ZM109.978 26V8.72H111.994V26H109.978ZM122.73 26V9.2H124.746V24.392H132.57V26H122.73ZM139.659 26.288C138.667 26.288 137.843 26.12 137.187 25.784C136.531 25.448 136.043 25 135.723 24.44C135.403 23.88 135.243 23.272 135.243 22.616C135.243 21.8 135.451 21.112 135.867 20.552C136.299 19.992 136.899 19.568 137.667 19.28C138.451 18.976 139.371 18.824 140.427 18.824H143.643C143.643 18.088 143.523 17.48 143.283 17C143.043 16.504 142.699 16.136 142.251 15.896C141.803 15.64 141.267 15.512 140.643 15.512C139.859 15.512 139.179 15.712 138.603 16.112C138.027 16.496 137.675 17.064 137.547 17.816H135.483C135.579 16.952 135.875 16.224 136.371 15.632C136.867 15.04 137.491 14.592 138.243 14.288C139.011 13.968 139.811 13.808 140.643 13.808C141.747 13.808 142.667 14.016 143.403 14.432C144.155 14.832 144.715 15.4 145.083 16.136C145.467 16.856 145.659 17.704 145.659 18.68V26H143.859L143.739 23.864C143.579 24.2 143.371 24.52 143.115 24.824C142.875 25.112 142.587 25.368 142.251 25.592C141.931 25.8 141.555 25.968 141.123 26.096C140.691 26.224 140.203 26.288 139.659 26.288ZM139.971 24.584C140.547 24.584 141.059 24.472 141.507 24.248C141.971 24.008 142.363 23.688 142.683 23.288C143.003 22.888 143.243 22.44 143.403 21.944C143.563 21.448 143.643 20.936 143.643 20.408V20.384H140.595C139.811 20.384 139.179 20.48 138.699 20.672C138.219 20.848 137.875 21.096 137.667 21.416C137.459 21.736 137.355 22.104 137.355 22.52C137.355 22.936 137.451 23.304 137.643 23.624C137.851 23.928 138.147 24.168 138.531 24.344C138.931 24.504 139.411 24.584 139.971 24.584ZM149.187 26V14.096H151.011L151.131 16.232C151.515 15.48 152.067 14.888 152.787 14.456C153.507 14.024 154.323 13.808 155.235 13.808C156.179 13.808 156.995 14 157.683 14.384C158.371 14.752 158.907 15.328 159.291 16.112C159.675 16.88 159.867 17.856 159.867 19.04V26H157.851V19.256C157.851 18.024 157.587 17.096 157.059 16.472C156.531 15.848 155.771 15.536 154.779 15.536C154.091 15.536 153.475 15.704 152.931 16.04C152.403 16.376 151.979 16.864 151.659 17.504C151.355 18.128 151.203 18.904 151.203 19.832V26H149.187ZM168.753 26.288C167.617 26.288 166.609 26.032 165.729 25.52C164.849 24.992 164.153 24.264 163.641 23.336C163.145 22.392 162.897 21.296 162.897 20.048C162.897 18.784 163.145 17.688 163.641 16.76C164.137 15.832 164.825 15.112 165.705 14.6C166.601 14.072 167.633 13.808 168.801 13.808C169.969 13.808 170.969 14.072 171.801 14.6C172.633 15.112 173.273 15.792 173.721 16.64C174.169 17.472 174.393 18.384 174.393 19.376C174.393 19.536 174.393 19.712 174.393 19.904C174.393 20.08 174.385 20.28 174.369 20.504H164.409V18.944H172.401C172.353 17.872 171.985 17.032 171.297 16.424C170.625 15.816 169.777 15.512 168.753 15.512C168.065 15.512 167.425 15.664 166.833 15.968C166.241 16.272 165.761 16.72 165.393 17.312C165.041 17.888 164.865 18.616 164.865 19.496V20.168C164.865 21.144 165.049 21.96 165.417 22.616C165.785 23.272 166.265 23.768 166.857 24.104C167.449 24.424 168.081 24.584 168.753 24.584C169.585 24.584 170.281 24.392 170.841 24.008C171.401 23.624 171.809 23.104 172.065 22.448H174.057C173.849 23.184 173.505 23.84 173.025 24.416C172.545 24.992 171.945 25.448 171.225 25.784C170.521 26.12 169.697 26.288 168.753 26.288Z" fill="black"/>
<rect y="48" width="564" height="500" rx="8" fill="#9595A5"/>
<path d="M315.602 151.591H303.058V129.755H292.938L309.33 108.355L325.721 129.755H315.602V151.591Z" fill="#F9F9F9"/>
<path d="M330.291 278.445C327.33 278.445 324.435 276.993 321.973 274.27C319.511 271.548 317.592 267.679 316.458 263.153C315.325 258.626 315.029 253.645 315.606 248.84C316.184 244.034 317.61 239.62 319.704 236.156C321.798 232.691 324.466 230.332 327.37 229.376C330.275 228.42 333.285 228.911 336.021 230.786C338.757 232.661 341.095 235.836 342.74 239.91C344.386 243.984 345.264 248.773 345.264 253.673C345.259 260.241 343.68 266.537 340.873 271.181C338.066 275.826 334.261 278.438 330.291 278.445ZM330.291 236.827C328.277 236.827 326.309 237.815 324.635 239.666C322.96 241.517 321.655 244.148 320.885 247.226C320.114 250.304 319.913 253.691 320.305 256.959C320.698 260.227 321.668 263.228 323.092 265.584C324.516 267.94 326.33 269.544 328.305 270.194C330.28 270.844 332.327 270.511 334.187 269.236C336.048 267.961 337.638 265.802 338.757 263.032C339.875 260.261 340.472 257.004 340.472 253.673C340.469 249.207 339.396 244.925 337.487 241.767C335.578 238.609 332.99 236.832 330.291 236.827ZM303.341 253.673C303.341 258.572 302.462 263.362 300.817 267.436C299.172 271.51 296.834 274.685 294.098 276.56C291.362 278.435 288.351 278.925 285.447 277.969C282.543 277.014 279.875 274.654 277.781 271.19C275.687 267.725 274.261 263.311 273.683 258.506C273.105 253.7 273.402 248.719 274.535 244.193C275.668 239.666 277.587 235.797 280.05 233.075C282.512 230.353 285.407 228.9 288.368 228.9C292.338 228.907 296.143 231.52 298.95 236.164C301.757 240.808 303.336 247.105 303.341 253.673ZM288.368 236.827C286.354 236.827 284.386 237.815 282.712 239.666C281.037 241.517 279.732 244.148 278.962 247.226C278.191 250.304 277.989 253.691 278.382 256.959C278.775 260.227 279.745 263.228 281.169 265.584C282.593 267.94 284.407 269.544 286.382 270.194C288.357 270.844 290.404 270.511 292.264 269.236C294.125 267.961 295.715 265.802 296.833 263.032C297.952 260.261 298.549 257.004 298.549 253.673C298.546 249.207 297.473 244.925 295.564 241.767C293.655 238.609 291.067 236.832 288.368 236.827Z" fill="#F9F9F9"/>
<path d="M300.06 194.262C297.241 194.262 294.956 190.481 294.956 185.817C294.956 181.153 297.241 177.373 300.06 177.373C302.879 177.373 305.164 181.153 305.164 185.817C305.164 190.481 302.879 194.262 300.06 194.262Z" fill="#F9F9F9"/>
<path d="M319.069 228.479L311.725 240.466V262.591H306.934V239.638C306.935 238.851 307.031 238.072 307.214 237.345C307.398 236.619 307.666 235.96 308.004 235.406L315.681 222.874L305.731 206.411L297.022 221.164C296.687 221.729 296.287 222.179 295.846 222.486C295.404 222.793 294.931 222.953 294.452 222.955H290.165V215.027H293.947L307.795 191.57L307.866 191.685L309.124 189.604L325.893 217.35L319.117 228.561L319.069 228.479Z" fill="#F9F9F9"/>
<rect x="375" y="48" width="10" height="500" rx="5" fill="white"/>
<g filter="url(#filter0_d_5233_17572)">
<path d="M456.252 311H494.059C517.193 311 535.977 329.784 535.977 352.918V498.618C535.977 515.954 521.901 530.039 504.556 530.039H445.747C428.41 530.039 414.326 515.962 414.326 498.618V352.918C414.334 329.784 433.118 311 456.252 311Z" fill="#B9D950"/>
<path d="M548.703 397.675C550.02 394.622 546.963 390.367 541.873 388.171C536.784 385.975 531.591 386.67 530.273 389.723C528.956 392.775 532.014 397.03 537.103 399.226C542.192 401.422 547.386 400.728 548.703 397.675Z" fill="#B9D950"/>
<path d="M412.985 401.278C418.074 399.082 421.132 394.827 419.815 391.774C418.498 388.721 413.304 388.027 408.215 390.223C403.126 392.419 400.068 396.673 401.385 399.726C402.702 402.779 407.896 403.474 412.985 401.278Z" fill="#B9D950"/>
<path d="M460.26 322.158H490.043C513.177 322.158 531.961 340.942 531.961 364.076V486.268C531.961 503.604 517.885 517.688 500.54 517.688H449.755C432.418 517.688 418.334 503.612 418.334 486.268V364.076C418.334 340.942 437.118 322.158 460.252 322.158H460.26Z" fill="#D5FA5D"/>
<path d="M452.117 375.4H498.194C514.497 375.4 527.73 388.634 527.73 404.936V469.869C527.73 480.375 519.197 488.908 508.691 488.908H441.611C431.106 488.908 422.573 480.375 422.573 469.869V404.936C422.573 388.634 435.806 375.4 452.109 375.4H452.117Z" fill="#86CFED"/>
<path d="M508.024 411.895H442.295C437.877 411.895 434.295 415.476 434.295 419.895V462.959C434.295 467.377 437.877 470.959 442.295 470.959H508.024C512.442 470.959 516.024 467.377 516.024 462.959V419.895C516.024 415.476 512.442 411.895 508.024 411.895Z" fill="#D5FA5D"/>
<path d="M437.005 411.624L423.131 395.634C422.382 394.772 421.076 394.679 420.214 395.428C419.351 396.176 419.259 397.482 420.007 398.345L433.882 414.334C434.63 415.196 435.936 415.289 436.799 414.54C437.661 413.792 437.754 412.486 437.005 411.624Z" fill="#D5FA5D"/>
<path d="M516.56 414.657L529.627 399.599C530.376 398.737 530.283 397.431 529.421 396.682C528.558 395.934 527.252 396.026 526.504 396.889L513.437 411.947C512.689 412.81 512.781 414.116 513.644 414.864C514.506 415.612 515.812 415.52 516.56 414.657Z" fill="#D5FA5D"/>
<path d="M424.166 485.67L439.145 468.408C439.894 467.545 439.801 466.239 438.939 465.491C438.076 464.743 436.77 464.835 436.022 465.698L421.042 482.96C420.294 483.823 420.386 485.129 421.249 485.877C422.111 486.625 423.417 486.533 424.166 485.67Z" fill="#D5FA5D"/>
<path d="M528.962 482.902L513.983 465.64C513.234 464.777 511.928 464.685 511.066 465.433C510.203 466.182 510.111 467.488 510.859 468.35L525.839 485.613C526.587 486.475 527.893 486.568 528.756 485.819C529.618 485.071 529.711 483.765 528.962 482.902Z" fill="#D5FA5D"/>
</g>
<g filter="url(#filter1_d_5233_17572)">
<path d="M95.2523 206H133.059C156.193 206 174.977 224.784 174.977 247.918V393.618C174.977 410.954 160.901 425.039 143.556 425.039H84.7469C67.4102 425.039 53.3262 410.962 53.3262 393.618V247.918C53.3341 224.784 72.1182 206 95.2523 206Z" fill="#272727"/>
<path d="M187.703 292.675C189.02 289.622 185.963 285.367 180.873 283.171C175.784 280.975 170.591 281.67 169.273 284.723C167.956 287.775 171.014 292.03 176.103 294.226C181.192 296.422 186.386 295.728 187.703 292.675Z" fill="#272727"/>
<path d="M51.9851 296.278C57.0744 294.082 60.1322 289.827 58.8149 286.774C57.4977 283.721 52.3042 283.027 47.2149 285.223C42.1257 287.419 39.0678 291.673 40.3851 294.726C41.7023 297.779 46.8958 298.474 51.9851 296.278Z" fill="#272727"/>
<path d="M99.2601 217.158H129.043C152.177 217.158 170.961 235.942 170.961 259.076V381.268C170.961 398.604 156.885 412.688 139.54 412.688H88.7547C71.418 412.688 57.334 398.612 57.334 381.268V259.076C57.334 235.942 76.118 217.158 99.2522 217.158H99.2601Z" fill="#3F3F3F"/>
<path d="M91.1167 270.4H137.194C153.497 270.4 166.73 283.634 166.73 299.936V364.869C166.73 375.375 158.197 383.908 147.691 383.908H80.6113C70.1059 383.908 61.5728 375.375 61.5728 364.869V299.936C61.5728 283.634 74.8059 270.4 91.1087 270.4H91.1167Z" fill="#86CFED"/>
<path d="M147.024 306.895H81.2949C76.8766 306.895 73.2949 310.476 73.2949 314.895V357.959C73.2949 362.377 76.8766 365.959 81.2949 365.959H147.024C151.442 365.959 155.024 362.377 155.024 357.959V314.895C155.024 310.476 151.442 306.895 147.024 306.895Z" fill="#3F3F3F"/>
<path d="M76.0053 306.624L62.1305 290.634C61.3821 289.772 60.0762 289.679 59.2137 290.428C58.3512 291.176 58.2588 292.482 59.0072 293.345L72.8819 309.334C73.6303 310.196 74.9362 310.289 75.7987 309.54C76.6612 308.792 76.7537 307.486 76.0053 306.624Z" fill="#3F3F3F"/>
<path d="M155.56 309.657L168.627 294.599C169.376 293.737 169.283 292.431 168.421 291.682C167.558 290.934 166.252 291.026 165.504 291.889L152.437 306.947C151.689 307.81 151.781 309.116 152.644 309.864C153.506 310.612 154.812 310.52 155.56 309.657Z" fill="#3F3F3F"/>
<path d="M63.1656 380.67L78.1453 363.408C78.8938 362.545 78.8013 361.239 77.9388 360.491C77.0763 359.743 75.7704 359.835 75.022 360.698L60.0423 377.96C59.2939 378.823 59.3863 380.129 60.2488 380.877C61.1113 381.625 62.4172 381.533 63.1656 380.67Z" fill="#3F3F3F"/>
<path d="M167.962 377.902L152.983 360.64C152.234 359.777 150.928 359.685 150.066 360.433C149.203 361.182 149.111 362.488 149.859 363.35L164.839 380.613C165.587 381.475 166.893 381.568 167.756 380.819C168.618 380.071 168.711 378.765 167.962 377.902Z" fill="#3F3F3F"/>
</g>
<g filter="url(#filter2_d_5233_17572)">
<g clip-path="url(#clip0_5233_17572)">
<path d="M309.476 419.07V437.87" stroke="#9AB445" stroke-width="4.07498"/>
<path d="M310.459 452.878H308.498C306.276 452.878 304.475 454.679 304.475 456.901V486.362C304.475 488.583 306.276 490.384 308.498 490.384H310.459C312.681 490.384 314.482 488.583 314.482 486.362V456.901C314.482 454.679 312.681 452.878 310.459 452.878Z" fill="#62657A"/>
<path d="M328.251 426.949L322.58 413.973C321.797 412.181 319.709 411.364 317.917 412.147L317.912 412.149C316.12 412.932 315.302 415.02 316.085 416.812L321.757 429.787C322.54 431.58 324.628 432.397 326.42 431.614L326.425 431.612C328.217 430.829 329.035 428.741 328.251 426.949Z" fill="#171759"/>
<path d="M328.316 423.055L323.585 425.123C321.793 425.906 320.975 427.994 321.759 429.786L321.761 429.791C322.544 431.583 324.632 432.401 326.424 431.618L331.155 429.55C332.947 428.767 333.765 426.679 332.982 424.887L332.979 424.882C332.196 423.09 330.108 422.272 328.316 423.055Z" fill="#171759"/>
<path d="M296.433 429.789L302.105 416.814C302.888 415.022 302.07 412.934 300.278 412.15L300.273 412.148C298.481 411.365 296.393 412.183 295.61 413.975L289.938 426.95C289.155 428.742 289.973 430.83 291.765 431.613L291.77 431.616C293.562 432.399 295.65 431.581 296.433 429.789Z" fill="#171759"/>
<path d="M287.042 429.545L291.773 431.613C293.565 432.396 295.653 431.578 296.436 429.786L296.439 429.781C297.222 427.989 296.404 425.901 294.612 425.118L289.881 423.05C288.089 422.267 286.001 423.085 285.218 424.877L285.216 424.882C284.432 426.674 285.25 428.762 287.042 429.545Z" fill="#171759"/>
<path d="M309 418.437C327.294 418.437 342.123 403.608 342.123 385.314C342.123 367.021 327.294 352.191 309 352.191C290.707 352.191 275.877 367.021 275.877 385.314C275.877 403.608 290.707 418.437 309 418.437Z" fill="#62657A"/>
<path opacity="0.43" d="M309 403.314C318.942 403.314 327 395.256 327 385.314C327 375.373 318.942 367.314 309 367.314C299.059 367.314 291 375.373 291 385.314C291 395.256 299.059 403.314 309 403.314Z" stroke="#D3D3DD" stroke-width="2.61552" stroke-miterlimit="10"/>
<path opacity="0.43" d="M309 399.056C316.59 399.056 322.742 392.904 322.742 385.314C322.742 377.725 316.59 371.572 309 371.572C301.411 371.572 295.258 377.725 295.258 385.314C295.258 392.904 301.411 399.056 309 399.056Z" fill="#D3D3DD"/>
<path opacity="0.2" d="M342.123 385.314C342.123 403.607 327.293 418.437 309 418.437C299.652 418.437 291.215 414.566 285.194 408.336C290.31 411.568 296.367 413.441 302.864 413.441C321.157 413.441 335.982 398.611 335.982 380.318C335.982 371.373 332.441 363.255 326.671 357.296C335.956 363.16 342.123 373.518 342.123 385.314Z" fill="#3D3D60"/>
<path d="M338.974 386.303C338.472 401.363 326.864 413.609 312.076 415.11" stroke="#4E4E68" stroke-width="2.61552" stroke-miterlimit="10" stroke-linecap="round"/>
<path d="M334.428 388.27C333.22 398.654 325.797 407.138 315.978 409.911" stroke="#4E4E68" stroke-width="2.61552" stroke-miterlimit="10" stroke-linecap="round"/>
<path d="M279.031 384.326C279.533 369.266 291.141 357.02 305.929 355.519" stroke="#4E4E68" stroke-width="2.61552" stroke-miterlimit="10" stroke-linecap="round"/>
<path d="M283.577 382.359C284.786 371.975 292.208 363.491 302.027 360.718" stroke="#4E4E68" stroke-width="2.61552" stroke-miterlimit="10" stroke-linecap="round"/>
<path d="M315.931 415.377H303.026C300.519 415.377 298.486 417.41 298.486 419.917V419.923C298.486 422.43 300.519 424.463 303.026 424.463H315.931C318.439 424.463 320.472 422.43 320.472 419.923V419.917C320.472 417.41 318.439 415.377 315.931 415.377Z" fill="#FCD579"/>
<path d="M309.476 430.013C312.913 430.013 315.706 432.807 315.706 436.243V459.898H303.246V436.243C303.246 432.807 306.039 430.013 309.476 430.013Z" fill="#BBD567"/>
<path d="M310.459 452.878H308.498C306.276 452.878 304.475 454.679 304.475 456.901V486.362C304.475 488.583 306.276 490.384 308.498 490.384H310.459C312.681 490.384 314.482 488.583 314.482 486.362V456.901C314.482 454.679 312.681 452.878 310.459 452.878Z" fill="#62657A"/>
<path d="M309.476 430.013C312.913 430.013 315.706 432.806 315.706 436.243V459.898H303.246V436.243C303.246 432.806 306.039 430.013 309.476 430.013Z" fill="#BBD567"/>
<path d="M340.951 383.839C331.802 385.21 321.089 386.214 309.115 386.219C297.042 386.225 286.25 385.215 277.049 383.839C276.855 383.839 275.83 383.818 275.004 383.039C274.48 382.542 274.151 381.862 274.151 381.109V376.714C274.151 375.213 275.453 373.984 277.049 373.984H340.951C342.541 373.984 343.849 375.213 343.849 376.714V381.109C343.849 382.61 342.547 383.839 340.951 383.839Z" fill="#312A4C"/>
<path d="M275.935 378.911C274.23 378.911 272.864 377.473 273.011 375.783C274.627 357.527 290.242 343 309 343C327.759 343 343.373 357.527 344.99 375.783C345.142 377.467 343.771 378.911 342.066 378.911H275.935Z" fill="#FF525F"/>
</g>
</g>
<path opacity="0.66" d="M422.138 173.006C422.138 173.007 422.139 173.008 422.14 173.009L475.14 208.312C478.817 210.761 479.844 215.766 476.997 219.145C453.9 246.561 412.879 252.97 382.399 232.66C371.234 225.222 362.419 214.826 356.901 202.708C355.071 198.688 357.403 194.147 361.603 192.776L422.132 173.002C422.135 173.001 422.138 173.003 422.138 173.006Z" fill="#DD1010"/>
<path d="M354.806 190.619C354.805 190.617 354.806 190.614 354.808 190.614L414.088 172.184C416.191 171.531 418.426 172.706 419.08 174.809C419.734 176.912 418.559 179.147 416.456 179.801L357.173 198.232C355.069 198.886 352.837 197.706 352.185 195.61C351.532 193.508 352.71 191.277 354.803 190.624C354.805 190.623 354.806 190.621 354.806 190.619Z" fill="#F76626"/>
<g filter="url(#filter3_d_5233_17572)">
<path d="M456.252 72H494.059C517.193 72 535.977 90.784 535.977 113.918V259.618C535.977 276.954 521.901 291.039 504.556 291.039H445.747C428.41 291.039 414.326 276.962 414.326 259.618V113.918C414.334 90.784 433.118 72 456.252 72Z" fill="#F76626"/>
<path d="M548.703 158.675C550.02 155.622 546.963 151.367 541.873 149.171C536.784 146.975 531.591 147.67 530.273 150.723C528.956 153.775 532.014 158.03 537.103 160.226C542.192 162.422 547.386 161.728 548.703 158.675Z" fill="#F76626"/>
<path d="M412.985 162.278C418.074 160.082 421.132 155.827 419.815 152.774C418.498 149.721 413.304 149.027 408.215 151.223C403.126 153.419 400.068 157.673 401.385 160.726C402.702 163.779 407.896 164.474 412.985 162.278Z" fill="#F76626"/>
<path d="M460.26 83.1577H490.043C513.177 83.1577 531.961 101.942 531.961 125.076V247.268C531.961 264.604 517.885 278.688 500.54 278.688H449.755C432.418 278.688 418.334 264.612 418.334 247.268V125.076C418.334 101.942 437.118 83.1577 460.252 83.1577H460.26Z" fill="#FC8332"/>
<path d="M452.117 136.4H498.194C514.497 136.4 527.73 149.634 527.73 165.936V230.869C527.73 241.375 519.197 249.908 508.691 249.908H441.611C431.106 249.908 422.573 241.375 422.573 230.869V165.936C422.573 149.634 435.806 136.4 452.109 136.4H452.117Z" fill="#B4DEEF"/>
<path d="M508.024 172.895H442.295C437.877 172.895 434.295 176.476 434.295 180.895V223.959C434.295 228.377 437.877 231.959 442.295 231.959H508.024C512.442 231.959 516.024 228.377 516.024 223.959V180.895C516.024 176.476 512.442 172.895 508.024 172.895Z" fill="#FC8332"/>
<path d="M437.005 172.624L423.131 156.634C422.382 155.772 421.076 155.679 420.214 156.428C419.351 157.176 419.259 158.482 420.007 159.345L433.882 175.334C434.63 176.196 435.936 176.289 436.799 175.54C437.661 174.792 437.754 173.486 437.005 172.624Z" fill="#FC8332"/>
<path d="M516.56 175.657L529.627 160.599C530.376 159.737 530.283 158.431 529.421 157.682C528.558 156.934 527.252 157.026 526.504 157.889L513.437 172.947C512.689 173.81 512.781 175.116 513.644 175.864C514.506 176.612 515.812 176.52 516.56 175.657Z" fill="#FC8332"/>
<path d="M424.166 246.67L439.145 229.408C439.894 228.545 439.801 227.239 438.939 226.491C438.076 225.743 436.77 225.835 436.022 226.698L421.042 243.96C420.294 244.823 420.386 246.129 421.249 246.877C422.111 247.625 423.417 247.533 424.166 246.67Z" fill="#FC8332"/>
<path d="M528.962 243.902L513.983 226.64C513.234 225.777 511.928 225.685 511.066 226.433C510.203 227.182 510.111 228.488 510.859 229.35L525.839 246.613C526.587 247.475 527.893 247.568 528.756 246.819C529.618 246.071 529.711 244.765 528.962 243.902Z" fill="#FC8332"/>
</g>
<g filter="url(#filter4_d_5233_17572)">
<rect x="336" y="91" width="192" height="64" rx="8" fill="#FAFFEA"/>
<path fill-rule="evenodd" clip-rule="evenodd" d="M374 123C374 117.477 369.523 113 364 113C358.477 113 354 117.477 354 123C354 128.523 358.477 133 364 133C369.523 133 374 128.523 374 123ZM364 118C364.265 118 364.52 118.105 364.707 118.293C364.895 118.48 365 118.735 365 119V124C365 124.265 364.895 124.52 364.707 124.707C364.52 124.895 364.265 125 364 125C363.735 125 363.48 124.895 363.293 124.707C363.105 124.52 363 124.265 363 124V119C363 118.735 363.105 118.48 363.293 118.293C363.48 118.105 363.735 118 364 118ZM363 127C363 126.735 363.105 126.48 363.293 126.293C363.48 126.105 363.735 126 364 126H364.008C364.273 126 364.528 126.105 364.715 126.293C364.903 126.48 365.008 126.735 365.008 127C365.008 127.265 364.903 127.52 364.715 127.707C364.528 127.895 364.273 128 364.008 128H364C363.735 128 363.48 127.895 363.293 127.707C363.105 127.52 363 127.265 363 127Z" fill="black"/>
<path d="M388.42 120L392.032 110.2H393.278L396.876 120H395.63L392.648 111.67L389.652 120H388.42ZM390.072 117.48L390.408 116.528H394.846L395.182 117.48H390.072ZM399.596 120L396.922 112.944H398.154L400.282 118.866L402.424 112.944H403.628L400.954 120H399.596ZM407.743 120.168C407.09 120.168 406.502 120.019 405.979 119.72C405.457 119.412 405.046 118.983 404.747 118.432C404.449 117.872 404.299 117.223 404.299 116.486C404.299 115.73 404.449 115.077 404.747 114.526C405.055 113.966 405.471 113.537 405.993 113.238C406.525 112.93 407.118 112.776 407.771 112.776C408.443 112.776 409.036 112.93 409.549 113.238C410.072 113.537 410.483 113.966 410.781 114.526C411.089 115.077 411.243 115.725 411.243 116.472C411.243 117.219 411.089 117.872 410.781 118.432C410.473 118.983 410.058 119.412 409.535 119.72C409.013 120.019 408.415 120.168 407.743 120.168ZM407.757 119.16C408.159 119.16 408.532 119.062 408.877 118.866C409.223 118.661 409.503 118.357 409.717 117.956C409.932 117.555 410.039 117.06 410.039 116.472C410.039 115.875 409.932 115.38 409.717 114.988C409.512 114.587 409.237 114.288 408.891 114.092C408.555 113.887 408.182 113.784 407.771 113.784C407.379 113.784 407.006 113.887 406.651 114.092C406.306 114.288 406.026 114.587 405.811 114.988C405.606 115.38 405.503 115.875 405.503 116.472C405.503 117.06 405.606 117.555 405.811 117.956C406.026 118.357 406.301 118.661 406.637 118.866C406.983 119.062 407.356 119.16 407.757 119.16ZM413.004 120V112.944H414.18V120H413.004ZM413.592 111.446C413.359 111.446 413.163 111.371 413.004 111.222C412.855 111.063 412.78 110.867 412.78 110.634C412.78 110.401 412.855 110.214 413.004 110.074C413.163 109.925 413.359 109.85 413.592 109.85C413.816 109.85 414.007 109.925 414.166 110.074C414.325 110.214 414.404 110.401 414.404 110.634C414.404 110.867 414.325 111.063 414.166 111.222C414.007 111.371 413.816 111.446 413.592 111.446ZM419.363 120.168C418.682 120.168 418.085 120.009 417.571 119.692C417.058 119.365 416.661 118.922 416.381 118.362C416.101 117.802 415.961 117.167 415.961 116.458C415.961 115.749 416.101 115.119 416.381 114.568C416.661 114.008 417.058 113.569 417.571 113.252C418.094 112.935 418.696 112.776 419.377 112.776C419.956 112.776 420.46 112.893 420.889 113.126C421.328 113.359 421.664 113.686 421.897 114.106V109.92H423.073V120H422.009L421.911 118.838C421.762 119.071 421.571 119.291 421.337 119.496C421.104 119.692 420.824 119.855 420.497 119.986C420.171 120.107 419.793 120.168 419.363 120.168ZM419.503 119.146C419.97 119.146 420.381 119.034 420.735 118.81C421.09 118.586 421.365 118.278 421.561 117.886C421.757 117.485 421.855 117.013 421.855 116.472C421.855 115.94 421.757 115.473 421.561 115.072C421.365 114.671 421.09 114.358 420.735 114.134C420.381 113.91 419.97 113.798 419.503 113.798C419.046 113.798 418.64 113.91 418.285 114.134C417.931 114.358 417.655 114.671 417.459 115.072C417.263 115.473 417.165 115.94 417.165 116.472C417.165 117.013 417.263 117.485 417.459 117.886C417.655 118.278 417.931 118.586 418.285 118.81C418.64 119.034 419.046 119.146 419.503 119.146ZM428.751 120V112.944H429.815L429.899 114.288C430.058 113.971 430.259 113.7 430.501 113.476C430.753 113.252 431.052 113.079 431.397 112.958C431.752 112.837 432.153 112.776 432.601 112.776V114.008H432.167C431.869 114.008 431.584 114.05 431.313 114.134C431.043 114.209 430.8 114.335 430.585 114.512C430.38 114.689 430.217 114.932 430.095 115.24C429.983 115.539 429.927 115.912 429.927 116.36V120H428.751ZM434.045 120V112.944H435.221V120H434.045ZM434.633 111.446C434.4 111.446 434.204 111.371 434.045 111.222C433.896 111.063 433.821 110.867 433.821 110.634C433.821 110.401 433.896 110.214 434.045 110.074C434.204 109.925 434.4 109.85 434.633 109.85C434.857 109.85 435.048 109.925 435.207 110.074C435.366 110.214 435.445 110.401 435.445 110.634C435.445 110.867 435.366 111.063 435.207 111.222C435.048 111.371 434.857 111.446 434.633 111.446ZM440.404 120.168C439.723 120.168 439.126 120.009 438.612 119.692C438.099 119.365 437.702 118.922 437.422 118.362C437.142 117.802 437.002 117.167 437.002 116.458C437.002 115.749 437.142 115.119 437.422 114.568C437.702 114.008 438.099 113.569 438.612 113.252C439.135 112.935 439.737 112.776 440.418 112.776C440.997 112.776 441.501 112.893 441.93 113.126C442.369 113.359 442.705 113.686 442.938 114.106V109.92H444.114V120H443.05L442.952 118.838C442.803 119.071 442.612 119.291 442.378 119.496C442.145 119.692 441.865 119.855 441.538 119.986C441.212 120.107 440.834 120.168 440.404 120.168ZM440.544 119.146C441.011 119.146 441.422 119.034 441.776 118.81C442.131 118.586 442.406 118.278 442.602 117.886C442.798 117.485 442.896 117.013 442.896 116.472C442.896 115.94 442.798 115.473 442.602 115.072C442.406 114.671 442.131 114.358 441.776 114.134C441.422 113.91 441.011 113.798 440.544 113.798C440.087 113.798 439.681 113.91 439.326 114.134C438.972 114.358 438.696 114.671 438.5 115.072C438.304 115.473 438.206 115.94 438.206 116.472C438.206 117.013 438.304 117.485 438.5 117.886C438.696 118.278 438.972 118.586 439.326 118.81C439.681 119.034 440.087 119.146 440.544 119.146ZM446.186 120V112.944H447.362V120H446.186ZM446.774 111.446C446.54 111.446 446.344 111.371 446.186 111.222C446.036 111.063 445.962 110.867 445.962 110.634C445.962 110.401 446.036 110.214 446.186 110.074C446.344 109.925 446.54 109.85 446.774 109.85C446.998 109.85 447.189 109.925 447.348 110.074C447.506 110.214 447.586 110.401 447.586 110.634C447.586 110.867 447.506 111.063 447.348 111.222C447.189 111.371 446.998 111.446 446.774 111.446ZM449.437 120V112.944H450.501L450.557 114.176C450.781 113.737 451.098 113.397 451.509 113.154C451.929 112.902 452.405 112.776 452.937 112.776C453.488 112.776 453.964 112.888 454.365 113.112C454.766 113.327 455.079 113.658 455.303 114.106C455.527 114.545 455.639 115.105 455.639 115.786V120H454.463V115.912C454.463 115.203 454.304 114.671 453.987 114.316C453.679 113.961 453.24 113.784 452.671 113.784C452.279 113.784 451.929 113.882 451.621 114.078C451.313 114.265 451.066 114.54 450.879 114.904C450.702 115.259 450.613 115.702 450.613 116.234V120H449.437ZM460.262 123.248C459.627 123.248 459.063 123.164 458.568 122.996C458.083 122.837 457.705 122.59 457.434 122.254C457.163 121.918 457.028 121.503 457.028 121.008C457.028 120.793 457.07 120.565 457.154 120.322C457.247 120.079 457.401 119.841 457.616 119.608C457.84 119.375 458.153 119.165 458.554 118.978L459.366 119.454C458.871 119.659 458.549 119.893 458.4 120.154C458.251 120.425 458.176 120.672 458.176 120.896C458.176 121.204 458.265 121.461 458.442 121.666C458.619 121.871 458.867 122.025 459.184 122.128C459.501 122.231 459.861 122.282 460.262 122.282C460.663 122.282 461.009 122.226 461.298 122.114C461.587 122.002 461.811 121.843 461.97 121.638C462.129 121.433 462.208 121.19 462.208 120.91C462.208 120.583 462.087 120.308 461.844 120.084C461.601 119.869 461.139 119.743 460.458 119.706C459.907 119.669 459.445 119.617 459.072 119.552C458.699 119.487 458.391 119.412 458.148 119.328C457.905 119.235 457.7 119.132 457.532 119.02C457.373 118.908 457.229 118.791 457.098 118.67V118.348L458.456 117.004L459.478 117.368L458.078 118.628L458.26 118.138C458.363 118.213 458.461 118.283 458.554 118.348C458.647 118.413 458.773 118.469 458.932 118.516C459.091 118.563 459.31 118.605 459.59 118.642C459.879 118.679 460.257 118.717 460.724 118.754C461.368 118.801 461.881 118.913 462.264 119.09C462.656 119.267 462.936 119.505 463.104 119.804C463.281 120.103 463.37 120.457 463.37 120.868C463.37 121.269 463.258 121.647 463.034 122.002C462.819 122.366 462.483 122.665 462.026 122.898C461.569 123.131 460.981 123.248 460.262 123.248ZM460.248 117.788C459.66 117.788 459.156 117.676 458.736 117.452C458.325 117.228 458.013 116.929 457.798 116.556C457.583 116.173 457.476 115.749 457.476 115.282C457.476 114.815 457.583 114.395 457.798 114.022C458.022 113.649 458.339 113.35 458.75 113.126C459.161 112.893 459.66 112.776 460.248 112.776C460.836 112.776 461.335 112.893 461.746 113.126C462.157 113.35 462.469 113.649 462.684 114.022C462.899 114.395 463.006 114.815 463.006 115.282C463.006 115.749 462.899 116.173 462.684 116.556C462.469 116.929 462.157 117.228 461.746 117.452C461.335 117.676 460.836 117.788 460.248 117.788ZM460.248 116.822C460.752 116.822 461.149 116.691 461.438 116.43C461.727 116.169 461.872 115.786 461.872 115.282C461.872 114.787 461.727 114.409 461.438 114.148C461.149 113.887 460.752 113.756 460.248 113.756C459.753 113.756 459.352 113.887 459.044 114.148C458.745 114.409 458.596 114.787 458.596 115.282C458.596 115.786 458.745 116.169 459.044 116.43C459.343 116.691 459.744 116.822 460.248 116.822ZM461.396 113.938L461.046 112.944H463.93V113.826L461.396 113.938ZM469.113 120V112.944H470.289V120H469.113ZM469.701 111.446C469.468 111.446 469.272 111.371 469.113 111.222C468.964 111.063 468.889 110.867 468.889 110.634C468.889 110.401 468.964 110.214 469.113 110.074C469.272 109.925 469.468 109.85 469.701 109.85C469.925 109.85 470.117 109.925 470.275 110.074C470.434 110.214 470.513 110.401 470.513 110.634C470.513 110.867 470.434 111.063 470.275 111.222C470.117 111.371 469.925 111.446 469.701 111.446ZM472.365 120V112.944H473.429L473.485 114.176C473.709 113.737 474.026 113.397 474.437 113.154C474.857 112.902 475.333 112.776 475.865 112.776C476.415 112.776 476.891 112.888 477.293 113.112C477.694 113.327 478.007 113.658 478.231 114.106C478.455 114.545 478.567 115.105 478.567 115.786V120H477.391V115.912C477.391 115.203 477.232 114.671 476.915 114.316C476.607 113.961 476.168 113.784 475.599 113.784C475.207 113.784 474.857 113.882 474.549 114.078C474.241 114.265 473.993 114.54 473.807 114.904C473.629 115.259 473.541 115.702 473.541 116.234V120H472.365ZM392.088 136.168C391.407 136.168 390.809 136.009 390.296 135.692C389.783 135.365 389.386 134.922 389.106 134.362C388.826 133.802 388.686 133.167 388.686 132.458C388.686 131.749 388.826 131.119 389.106 130.568C389.386 130.008 389.783 129.569 390.296 129.252C390.819 128.935 391.421 128.776 392.102 128.776C392.681 128.776 393.185 128.893 393.614 129.126C394.053 129.359 394.389 129.686 394.622 130.106V125.92H395.798V136H394.734L394.636 134.838C394.487 135.071 394.295 135.291 394.062 135.496C393.829 135.692 393.549 135.855 393.222 135.986C392.895 136.107 392.517 136.168 392.088 136.168ZM392.228 135.146C392.695 135.146 393.105 135.034 393.46 134.81C393.815 134.586 394.09 134.278 394.286 133.886C394.482 133.485 394.58 133.013 394.58 132.472C394.58 131.94 394.482 131.473 394.286 131.072C394.09 130.671 393.815 130.358 393.46 130.134C393.105 129.91 392.695 129.798 392.228 129.798C391.771 129.798 391.365 129.91 391.01 130.134C390.655 130.358 390.38 130.671 390.184 131.072C389.988 131.473 389.89 131.94 389.89 132.472C389.89 133.013 389.988 133.485 390.184 133.886C390.38 134.278 390.655 134.586 391.01 134.81C391.365 135.034 391.771 135.146 392.228 135.146ZM400.907 136.168C400.254 136.168 399.666 136.019 399.143 135.72C398.621 135.412 398.21 134.983 397.911 134.432C397.613 133.872 397.463 133.223 397.463 132.486C397.463 131.73 397.613 131.077 397.911 130.526C398.219 129.966 398.635 129.537 399.157 129.238C399.689 128.93 400.282 128.776 400.935 128.776C401.607 128.776 402.2 128.93 402.713 129.238C403.236 129.537 403.647 129.966 403.945 130.526C404.253 131.077 404.407 131.725 404.407 132.472C404.407 133.219 404.253 133.872 403.945 134.432C403.637 134.983 403.222 135.412 402.699 135.72C402.177 136.019 401.579 136.168 400.907 136.168ZM400.921 135.16C401.323 135.16 401.696 135.062 402.041 134.866C402.387 134.661 402.667 134.357 402.881 133.956C403.096 133.555 403.203 133.06 403.203 132.472C403.203 131.875 403.096 131.38 402.881 130.988C402.676 130.587 402.401 130.288 402.055 130.092C401.719 129.887 401.346 129.784 400.935 129.784C400.543 129.784 400.17 129.887 399.815 130.092C399.47 130.288 399.19 130.587 398.975 130.988C398.77 131.38 398.667 131.875 398.667 132.472C398.667 133.06 398.77 133.555 398.975 133.956C399.19 134.357 399.465 134.661 399.801 134.866C400.147 135.062 400.52 135.16 400.921 135.16ZM409.206 136.168C408.553 136.168 407.965 136.019 407.442 135.72C406.92 135.412 406.509 134.983 406.21 134.432C405.912 133.872 405.762 133.223 405.762 132.486C405.762 131.73 405.912 131.077 406.21 130.526C406.518 129.966 406.934 129.537 407.456 129.238C407.988 128.93 408.581 128.776 409.234 128.776C409.906 128.776 410.499 128.93 411.012 129.238C411.535 129.537 411.946 129.966 412.244 130.526C412.552 131.077 412.706 131.725 412.706 132.472C412.706 133.219 412.552 133.872 412.244 134.432C411.936 134.983 411.521 135.412 410.998 135.72C410.476 136.019 409.878 136.168 409.206 136.168ZM409.22 135.16C409.622 135.16 409.995 135.062 410.34 134.866C410.686 134.661 410.966 134.357 411.18 133.956C411.395 133.555 411.502 133.06 411.502 132.472C411.502 131.875 411.395 131.38 411.18 130.988C410.975 130.587 410.7 130.288 410.354 130.092C410.018 129.887 409.645 129.784 409.234 129.784C408.842 129.784 408.469 129.887 408.114 130.092C407.769 130.288 407.489 130.587 407.274 130.988C407.069 131.38 406.966 131.875 406.966 132.472C406.966 133.06 407.069 133.555 407.274 133.956C407.489 134.357 407.764 134.661 408.1 134.866C408.446 135.062 408.819 135.16 409.22 135.16ZM414.355 136V128.944H415.419L415.503 130.288C415.662 129.971 415.862 129.7 416.105 129.476C416.357 129.252 416.656 129.079 417.001 128.958C417.356 128.837 417.757 128.776 418.205 128.776V130.008H417.771C417.472 130.008 417.188 130.05 416.917 130.134C416.646 130.209 416.404 130.335 416.189 130.512C415.984 130.689 415.82 130.932 415.699 131.24C415.587 131.539 415.531 131.912 415.531 132.36V136H414.355ZM422.779 136V135.034L426.685 129.924H422.849V128.944H428.029V129.91L424.109 135.02H428.099V136H422.779ZM432.818 136.168C432.164 136.168 431.576 136.019 431.054 135.72C430.531 135.412 430.12 134.983 429.822 134.432C429.523 133.872 429.374 133.223 429.374 132.486C429.374 131.73 429.523 131.077 429.822 130.526C430.13 129.966 430.545 129.537 431.068 129.238C431.6 128.93 432.192 128.776 432.846 128.776C433.518 128.776 434.11 128.93 434.624 129.238C435.146 129.537 435.557 129.966 435.856 130.526C436.164 131.077 436.318 131.725 436.318 132.472C436.318 133.219 436.164 133.872 435.856 134.432C435.548 134.983 435.132 135.412 434.61 135.72C434.087 136.019 433.49 136.168 432.818 136.168ZM432.832 135.16C433.233 135.16 433.606 135.062 433.952 134.866C434.297 134.661 434.577 134.357 434.792 133.956C435.006 133.555 435.114 133.06 435.114 132.472C435.114 131.875 435.006 131.38 434.792 130.988C434.586 130.587 434.311 130.288 433.966 130.092C433.63 129.887 433.256 129.784 432.846 129.784C432.454 129.784 432.08 129.887 431.726 130.092C431.38 130.288 431.1 130.587 430.886 130.988C430.68 131.38 430.578 131.875 430.578 132.472C430.578 133.06 430.68 133.555 430.886 133.956C431.1 134.357 431.376 134.661 431.712 134.866C432.057 135.062 432.43 135.16 432.832 135.16ZM437.966 136V128.944H439.03L439.086 130.176C439.31 129.737 439.628 129.397 440.038 129.154C440.458 128.902 440.934 128.776 441.466 128.776C442.017 128.776 442.493 128.888 442.894 129.112C443.296 129.327 443.608 129.658 443.832 130.106C444.056 130.545 444.168 131.105 444.168 131.786V136H442.992V131.912C442.992 131.203 442.834 130.671 442.516 130.316C442.208 129.961 441.77 129.784 441.2 129.784C440.808 129.784 440.458 129.882 440.15 130.078C439.842 130.265 439.595 130.54 439.408 130.904C439.231 131.259 439.142 131.702 439.142 132.234V136H437.966ZM449.099 136.168C448.437 136.168 447.849 136.014 447.335 135.706C446.831 135.398 446.435 134.969 446.145 134.418C445.856 133.858 445.711 133.209 445.711 132.472C445.711 131.725 445.851 131.077 446.131 130.526C446.421 129.975 446.822 129.546 447.335 129.238C447.858 128.93 448.455 128.776 449.127 128.776C449.818 128.776 450.401 128.93 450.877 129.238C451.363 129.546 451.731 129.952 451.983 130.456C452.245 130.951 452.375 131.497 452.375 132.094C452.375 132.187 452.375 132.285 452.375 132.388C452.375 132.491 452.371 132.607 452.361 132.738H446.593V131.828H451.227C451.199 131.184 450.985 130.68 450.583 130.316C450.191 129.952 449.697 129.77 449.099 129.77C448.698 129.77 448.325 129.863 447.979 130.05C447.643 130.227 447.373 130.493 447.167 130.848C446.962 131.193 446.859 131.627 446.859 132.15V132.542C446.859 133.121 446.962 133.606 447.167 133.998C447.382 134.39 447.657 134.684 447.993 134.88C448.339 135.076 448.707 135.174 449.099 135.174C449.594 135.174 450 135.067 450.317 134.852C450.644 134.628 450.877 134.329 451.017 133.956H452.179C452.067 134.376 451.871 134.754 451.591 135.09C451.311 135.426 450.961 135.692 450.541 135.888C450.131 136.075 449.65 136.168 449.099 136.168ZM456.622 136.168C456.034 136.168 455.521 136.07 455.082 135.874C454.653 135.678 454.308 135.407 454.046 135.062C453.794 134.707 453.64 134.292 453.584 133.816H454.788C454.835 134.059 454.933 134.283 455.082 134.488C455.232 134.693 455.432 134.861 455.684 134.992C455.946 135.113 456.263 135.174 456.636 135.174C456.963 135.174 457.234 135.127 457.448 135.034C457.663 134.931 457.822 134.796 457.924 134.628C458.036 134.46 458.092 134.278 458.092 134.082C458.092 133.793 458.022 133.573 457.882 133.424C457.752 133.275 457.556 133.158 457.294 133.074C457.033 132.981 456.716 132.901 456.342 132.836C456.034 132.78 455.731 132.705 455.432 132.612C455.134 132.519 454.868 132.397 454.634 132.248C454.401 132.089 454.214 131.898 454.074 131.674C453.944 131.45 453.878 131.175 453.878 130.848C453.878 130.447 453.981 130.092 454.186 129.784C454.392 129.467 454.686 129.219 455.068 129.042C455.46 128.865 455.913 128.776 456.426 128.776C457.182 128.776 457.794 128.958 458.26 129.322C458.727 129.686 459.002 130.213 459.086 130.904H457.924C457.878 130.549 457.724 130.274 457.462 130.078C457.21 129.873 456.86 129.77 456.412 129.77C455.974 129.77 455.638 129.859 455.404 130.036C455.18 130.213 455.068 130.447 455.068 130.736C455.068 130.923 455.129 131.091 455.25 131.24C455.381 131.38 455.568 131.501 455.81 131.604C456.062 131.707 456.37 131.791 456.734 131.856C457.201 131.94 457.626 132.052 458.008 132.192C458.391 132.332 458.699 132.542 458.932 132.822C459.175 133.093 459.296 133.48 459.296 133.984C459.296 134.423 459.184 134.805 458.96 135.132C458.746 135.459 458.438 135.715 458.036 135.902C457.635 136.079 457.164 136.168 456.622 136.168ZM461.27 133.214L461.13 126.2H462.404L462.264 133.214H461.27ZM461.76 136.07C461.536 136.07 461.344 135.995 461.186 135.846C461.036 135.687 460.962 135.496 460.962 135.272C460.962 135.048 461.036 134.861 461.186 134.712C461.344 134.553 461.536 134.474 461.76 134.474C462.002 134.474 462.194 134.553 462.334 134.712C462.483 134.861 462.558 135.048 462.558 135.272C462.558 135.496 462.483 135.687 462.334 135.846C462.194 135.995 462.002 136.07 461.76 136.07Z" fill="#1C3A29"/>
</g>
<rect x="223" y="48" width="16" height="500" rx="8" fill="white"/>
<defs>
<filter id="filter0_d_5233_17572" x="391.079" y="306" width="167.93" height="239.039" filterUnits="userSpaceOnUse" color-interpolation-filters="sRGB">
<feFlood flood-opacity="0" result="BackgroundImageFix"/>
<feColorMatrix in="SourceAlpha" type="matrix" values="0 0 0 0 0 0 0 0 0 0 0 0 0 0 0 0 0 0 127 0" result="hardAlpha"/>
<feOffset dy="5"/>
<feGaussianBlur stdDeviation="5"/>
<feColorMatrix type="matrix" values="0 0 0 0 0 0 0 0 0 0 0 0 0 0 0 0 0 0 0.15 0"/>
<feBlend mode="normal" in2="BackgroundImageFix" result="effect1_dropShadow_5233_17572"/>
<feBlend mode="normal" in="SourceGraphic" in2="effect1_dropShadow_5233_17572" result="shape"/>
</filter>
<filter id="filter1_d_5233_17572" x="30.0791" y="201" width="167.93" height="239.039" filterUnits="userSpaceOnUse" color-interpolation-filters="sRGB">
<feFlood flood-opacity="0" result="BackgroundImageFix"/>
<feColorMatrix in="SourceAlpha" type="matrix" values="0 0 0 0 0 0 0 0 0 0 0 0 0 0 0 0 0 0 127 0" result="hardAlpha"/>
<feOffset dy="5"/>
<feGaussianBlur stdDeviation="5"/>
<feColorMatrix type="matrix" values="0 0 0 0 0 0 0 0 0 0 0 0 0 0 0 0 0 0 0.15 0"/>
<feBlend mode="normal" in2="BackgroundImageFix" result="effect1_dropShadow_5233_17572"/>
<feBlend mode="normal" in="SourceGraphic" in2="effect1_dropShadow_5233_17572" result="shape"/>
</filter>
<filter id="filter2_d_5233_17572" x="263" y="338" width="92" height="167.384" filterUnits="userSpaceOnUse" color-interpolation-filters="sRGB">
<feFlood flood-opacity="0" result="BackgroundImageFix"/>
<feColorMatrix in="SourceAlpha" type="matrix" values="0 0 0 0 0 0 0 0 0 0 0 0 0 0 0 0 0 0 127 0" result="hardAlpha"/>
<feOffset dy="5"/>
<feGaussianBlur stdDeviation="5"/>
<feColorMatrix type="matrix" values="0 0 0 0 0 0 0 0 0 0 0 0 0 0 0 0 0 0 0.15 0"/>
<feBlend mode="normal" in2="BackgroundImageFix" result="effect1_dropShadow_5233_17572"/>
<feBlend mode="normal" in="SourceGraphic" in2="effect1_dropShadow_5233_17572" result="shape"/>
</filter>
<filter id="filter3_d_5233_17572" x="391.079" y="67" width="167.93" height="239.039" filterUnits="userSpaceOnUse" color-interpolation-filters="sRGB">
<feFlood flood-opacity="0" result="BackgroundImageFix"/>
<feColorMatrix in="SourceAlpha" type="matrix" values="0 0 0 0 0 0 0 0 0 0 0 0 0 0 0 0 0 0 127 0" result="hardAlpha"/>
<feOffset dy="5"/>
<feGaussianBlur stdDeviation="5"/>
<feColorMatrix type="matrix" values="0 0 0 0 0 0 0 0 0 0 0 0 0 0 0 0 0 0 0.15 0"/>
<feBlend mode="normal" in2="BackgroundImageFix" result="effect1_dropShadow_5233_17572"/>
<feBlend mode="normal" in="SourceGraphic" in2="effect1_dropShadow_5233_17572" result="shape"/>
</filter>
<filter id="filter4_d_5233_17572" x="326" y="86" width="212" height="84" filterUnits="userSpaceOnUse" color-interpolation-filters="sRGB">
<feFlood flood-opacity="0" result="BackgroundImageFix"/>
<feColorMatrix in="SourceAlpha" type="matrix" values="0 0 0 0 0 0 0 0 0 0 0 0 0 0 0 0 0 0 127 0" result="hardAlpha"/>
<feOffset dy="5"/>
<feGaussianBlur stdDeviation="5"/>
<feColorMatrix type="matrix" values="0 0 0 0 0 0 0 0 0 0 0 0 0 0 0 0 0 0 0.15 0"/>
<feBlend mode="normal" in2="BackgroundImageFix" result="effect1_dropShadow_5233_17572"/>
<feBlend mode="normal" in="SourceGraphic" in2="effect1_dropShadow_5233_17572" result="shape"/>
</filter>
<clipPath id="clip0_5233_17572">
<rect x="273" y="343" width="72" height="147.384" rx="8" fill="white"/>
</clipPath>
</defs>
</svg>
