<svg width="232" height="233" viewBox="0 0 232 233" fill="none" xmlns="http://www.w3.org/2000/svg">
<path opacity="0.2" d="M113.166 232.115C152.909 232.115 185.126 225.298 185.126 216.887C185.126 208.477 152.909 201.659 113.166 201.659C73.4233 201.659 41.2056 208.477 41.2056 216.887C41.2056 225.298 73.4233 232.115 113.166 232.115Z" fill="#3D3D60"/>
<path d="M103.504 211.071V171.204C103.504 165.697 99.178 161.233 93.8416 161.233H93.8274C88.491 161.233 84.1651 165.697 84.1651 171.204V211.071C84.1651 216.577 88.491 221.041 93.8274 221.041H93.8416C99.178 221.041 103.504 216.577 103.504 211.071Z" fill="#171759"/>
<path d="M79.755 221.042H93.8416C99.1779 221.042 103.504 216.578 103.504 211.072V211.057C103.504 205.55 99.1779 201.086 93.8416 201.086H79.755C74.4187 201.086 70.0927 205.55 70.0927 211.057V211.072C70.0927 216.578 74.4187 221.042 79.755 221.042Z" fill="#171759"/>
<path d="M148.662 201.903L134.196 164.937C132.197 159.831 126.566 157.363 121.618 159.425L121.605 159.43C116.657 161.492 114.266 167.303 116.264 172.409L130.73 209.375C132.729 214.481 138.36 216.949 143.308 214.887L143.321 214.882C148.269 212.82 150.66 207.009 148.662 201.903Z" fill="#171759"/>
<path d="M130.316 220.267L143.378 214.824C148.326 212.762 150.718 206.951 148.719 201.845L148.714 201.832C146.716 196.726 141.085 194.258 136.137 196.32L123.075 201.763C118.127 203.825 115.735 209.635 117.734 214.741L117.739 214.755C119.737 219.861 125.368 222.328 130.316 220.267Z" fill="#171759"/>
<path d="M106.644 186.623C156.555 186.623 197.015 144.871 197.015 93.3689C197.015 41.8663 156.555 0.115234 106.644 0.115234C56.7331 0.115234 16.2725 41.8663 16.2725 93.3689C16.2725 144.871 56.7331 186.623 106.644 186.623Z" fill="#62657A"/>
<path d="M100.935 142.573C128.058 142.573 150.045 119.885 150.045 91.8966C150.045 63.9085 128.058 41.2197 100.935 41.2197C73.8118 41.2197 51.8242 63.9085 51.8242 91.8966C51.8242 119.885 73.8118 142.573 100.935 142.573Z" stroke="#D3D3DD" stroke-width="9.84288" stroke-miterlimit="10"/>
<path d="M100.935 130.585C121.642 130.585 138.428 113.263 138.428 91.8958C138.428 70.5286 121.642 53.207 100.935 53.207C80.2281 53.207 63.4419 70.5286 63.4419 91.8958C63.4419 113.263 80.2281 130.585 100.935 130.585Z" fill="#D3D3DD"/>
<path opacity="0.2" d="M197.015 93.3685C197.015 144.87 156.553 186.622 106.644 186.622C81.1392 186.622 58.1182 175.724 41.6909 158.184C55.6491 167.285 72.1763 172.558 89.9023 172.558C139.812 172.558 180.259 130.806 180.259 79.3039C180.259 54.1201 170.597 31.2632 154.855 14.4888C180.188 30.9981 197.015 60.1583 197.015 93.3685Z" fill="#3D3D60"/>
<path d="M188.423 96.1528C187.053 138.553 155.383 173.03 115.036 177.256" stroke="#4E4E68" stroke-width="6" stroke-miterlimit="10" stroke-linecap="round"/>
<path d="M176.021 101.691C172.724 130.925 152.472 154.813 125.683 162.618" stroke="#4E4E68" stroke-width="6" stroke-miterlimit="10" stroke-linecap="round"/>
<path d="M24.8784 90.586C26.2485 48.1859 57.9185 13.7092 98.266 9.48242" stroke="#4E4E68" stroke-width="6" stroke-miterlimit="10" stroke-linecap="round"/>
<path d="M37.2808 85.0336C40.5776 55.7997 60.8299 31.9119 87.6188 24.1064" stroke="#4E4E68" stroke-width="6" stroke-miterlimit="10" stroke-linecap="round"/>
<path d="M193.561 142.058C202.011 142.058 208.861 134.99 208.861 126.271C208.861 117.551 202.011 110.483 193.561 110.483C185.111 110.483 178.261 117.551 178.261 126.271C178.261 134.99 185.111 142.058 193.561 142.058Z" fill="#171759"/>
<path d="M21.2998 157.691C29.7496 157.691 36.5996 150.622 36.5996 141.903C36.5996 133.184 29.7496 126.115 21.2998 126.115C12.8499 126.115 6 133.184 6 141.903C6 150.622 12.8499 157.691 21.2998 157.691Z" fill="#171759"/>
<path d="M79.6553 94.9739V91.2037C79.6553 87.568 76.799 84.6206 73.2756 84.6206C69.7522 84.6206 66.8959 87.568 66.8959 91.2037V94.9739C66.8959 98.6097 69.7522 101.557 73.2756 101.557C76.799 101.557 79.6553 98.6097 79.6553 94.9739Z" fill="#171759"/>
<path d="M126.882 94.9739V91.2037C126.882 87.568 124.026 84.6206 120.502 84.6206C116.979 84.6206 114.123 87.568 114.123 91.2037V94.9739C114.123 98.6097 116.979 101.557 120.502 101.557C124.026 101.557 126.882 98.6097 126.882 94.9739Z" fill="#171759"/>
<path d="M86.7915 102.942C87.6478 107.876 91.8296 111.631 96.8819 111.631C101.934 111.631 106.116 107.876 106.972 102.942" stroke="#171759" stroke-width="7.28373" stroke-linecap="round" stroke-linejoin="round"/>
</svg>
