<svg width="232" height="232" viewBox="0 0 232 232" fill="none" xmlns="http://www.w3.org/2000/svg">
<path opacity="0.2" d="M113.166 232C152.909 232 185.127 225.182 185.127 216.772C185.127 208.362 152.909 201.544 113.166 201.544C73.4238 201.544 41.2061 208.362 41.2061 216.772C41.2061 225.182 73.4238 232 113.166 232Z" fill="#3D3D60"/>
<path d="M103.504 210.955V171.088C103.504 165.582 99.178 161.118 93.8416 161.118H93.8274C88.491 161.118 84.1651 165.582 84.1651 171.088V210.955C84.1651 216.462 88.491 220.926 93.8274 220.926H93.8416C99.178 220.926 103.504 216.462 103.504 210.955Z" fill="#171759"/>
<path d="M79.755 220.926H93.8416C99.1779 220.926 103.504 216.462 103.504 210.956V210.941C103.504 205.435 99.1779 200.971 93.8416 200.971H79.755C74.4187 200.971 70.0927 205.435 70.0927 210.941V210.956C70.0927 216.462 74.4187 220.926 79.755 220.926Z" fill="#171759"/>
<path d="M148.662 201.788L134.195 164.822C132.197 159.716 126.566 157.248 121.618 159.31L121.605 159.315C116.656 161.377 114.265 167.188 116.263 172.294L130.73 209.26C132.728 214.366 138.359 216.834 143.307 214.772L143.32 214.767C148.269 212.705 150.66 206.894 148.662 201.788Z" fill="#171759"/>
<path d="M130.316 220.151L143.378 214.708C148.326 212.647 150.717 206.836 148.719 201.73L148.714 201.716C146.715 196.61 141.084 194.143 136.136 196.205L123.074 201.648C118.126 203.709 115.735 209.52 117.733 214.626L117.738 214.64C119.737 219.746 125.368 222.213 130.316 220.151Z" fill="#171759"/>
<path d="M106.644 186.507C156.555 186.507 197.015 144.756 197.015 93.2537C197.015 41.7511 156.555 0 106.644 0C56.7331 0 16.2725 41.7511 16.2725 93.2537C16.2725 144.756 56.7331 186.507 106.644 186.507Z" fill="#62657A"/>
<path d="M100.935 142.458C128.058 142.458 150.045 119.769 150.045 91.7814C150.045 63.7933 128.058 41.1045 100.935 41.1045C73.8118 41.1045 51.8242 63.7933 51.8242 91.7814C51.8242 119.769 73.8118 142.458 100.935 142.458Z" stroke="#D3D3DD" stroke-width="9.84288" stroke-miterlimit="10"/>
<path d="M100.935 130.469C121.642 130.469 138.428 113.148 138.428 91.7806C138.428 70.4134 121.642 53.0918 100.935 53.0918C80.2286 53.0918 63.4424 70.4134 63.4424 91.7806C63.4424 113.148 80.2286 130.469 100.935 130.469Z" fill="#D3D3DD"/>
<path opacity="0.2" d="M197.016 93.2533C197.016 144.755 156.554 186.507 106.644 186.507C81.1397 186.507 58.1187 175.609 41.6914 158.068C55.6496 167.17 72.1768 172.442 89.9028 172.442C139.813 172.442 180.26 130.69 180.26 79.1887C180.26 54.0049 170.598 31.148 154.856 14.3735C180.189 30.8829 197.016 60.0431 197.016 93.2533Z" fill="#3D3D60"/>
<path d="M188.423 96.0374C187.053 138.437 155.383 172.914 115.035 177.141" stroke="#4E4E68" stroke-width="9.84288" stroke-miterlimit="10" stroke-linecap="round"/>
<path d="M176.021 101.576C172.724 130.81 152.471 154.698 125.683 162.503" stroke="#4E4E68" stroke-width="9.84288" stroke-miterlimit="10" stroke-linecap="round"/>
<path d="M24.8779 90.4708C26.2481 48.0707 57.918 13.5939 98.2655 9.36719" stroke="#4E4E68" stroke-width="9.84288" stroke-miterlimit="10" stroke-linecap="round"/>
<path d="M37.2803 84.9183C40.5771 55.6845 60.8294 31.7967 87.6183 23.9912" stroke="#4E4E68" stroke-width="9.84288" stroke-miterlimit="10" stroke-linecap="round"/>
<path d="M71.8908 106.405C80.4589 106.405 87.4046 99.2377 87.4046 90.3963C87.4046 81.555 80.4589 74.3877 71.8908 74.3877C63.3227 74.3877 56.377 81.555 56.377 90.3963C56.377 99.2377 63.3227 106.405 71.8908 106.405Z" stroke="#ED351D" stroke-width="7.87431" stroke-linecap="round" stroke-linejoin="round"/>
<path d="M121.872 106.405C130.44 106.405 137.386 99.2374 137.386 90.3961C137.386 81.5548 130.44 74.3875 121.872 74.3875C113.304 74.3875 106.358 81.5548 106.358 90.3961C106.358 99.2374 113.304 106.405 121.872 106.405Z" stroke="#ED351D" stroke-width="7.87431" stroke-linecap="round" stroke-linejoin="round"/>
<path d="M87.4043 90.3961C89.117 89.542 92.3567 88.187 96.6384 88.1429C101.177 88.084 104.631 89.5272 106.372 90.3961" stroke="#ED351D" stroke-width="7.87431" stroke-linecap="round" stroke-linejoin="round"/>
<path d="M193.561 141.943C202.011 141.943 208.861 134.875 208.861 126.156C208.861 117.436 202.011 110.368 193.561 110.368C185.112 110.368 178.262 117.436 178.262 126.156C178.262 134.875 185.112 141.943 193.561 141.943Z" fill="#171759"/>
<path d="M79.6553 94.8587V91.0885C79.6553 87.4527 76.799 84.5054 73.2756 84.5054C69.7522 84.5054 66.8959 87.4527 66.8959 91.0885V94.8587C66.8959 98.4945 69.7522 101.442 73.2756 101.442C76.799 101.442 79.6553 98.4945 79.6553 94.8587Z" fill="#171759"/>
<path d="M126.882 94.8587V91.0885C126.882 87.4527 124.026 84.5054 120.502 84.5054C116.979 84.5054 114.123 87.4527 114.123 91.0885V94.8587C114.123 98.4945 116.979 101.442 120.502 101.442C124.026 101.442 126.882 98.4945 126.882 94.8587Z" fill="#171759"/>
<path d="M86.791 102.827C87.6473 107.761 91.8291 111.516 96.8815 111.516C101.934 111.516 106.116 107.761 106.972 102.827" stroke="#171759" stroke-width="7.28373" stroke-linecap="round" stroke-linejoin="round"/>
<path d="M21.2998 157.575C29.7496 157.575 36.5996 150.507 36.5996 141.788C36.5996 133.068 29.7496 126 21.2998 126C12.8499 126 6 133.068 6 141.788C6 150.507 12.8499 157.575 21.2998 157.575Z" fill="#171759"/>
</svg>
