<svg width="141" height="236" viewBox="0 0 141 236" fill="none" xmlns="http://www.w3.org/2000/svg">
<g clip-path="url(#clip0_5911_21377)">
<path d="M83.9097 121.861V151.907" stroke="#969696" stroke-width="6.5126"/>
<path d="M85.483 175.893H82.3479C78.7973 175.893 75.9189 178.771 75.9189 182.322V229.407C75.9189 232.957 78.7973 235.836 82.3479 235.836H85.483C89.0337 235.836 91.912 232.957 91.912 229.407V182.322C91.912 178.771 89.0337 175.893 85.483 175.893Z" fill="#7A7A7A"/>
<path d="M13.7539 83.0618H38.475C40.4558 83.0618 42.0615 81.456 42.0615 79.4752V77.1929C42.0615 75.2121 40.4558 73.6064 38.475 73.6064H13.7539C11.7731 73.6064 10.1673 75.2121 10.1673 77.1929V79.4752C10.1673 81.456 11.7731 83.0618 13.7539 83.0618Z" fill="#323232"/>
<path d="M9.64818 86.9492C14.5978 86.9492 18.6103 82.9367 18.6103 77.987C18.6103 73.0374 14.5978 69.0249 9.64818 69.0249C4.69852 69.0249 0.686035 73.0374 0.686035 77.987C0.686035 82.9367 4.69852 86.9492 9.64818 86.9492Z" fill="#323232"/>
<path d="M113.908 134.447L104.844 113.71C103.593 110.846 100.256 109.539 97.3916 110.791L97.3839 110.794C94.5197 112.046 93.2127 115.383 94.4646 118.247L103.529 138.984C104.781 141.848 108.117 143.155 110.981 141.903L110.989 141.9C113.853 140.648 115.16 137.311 113.908 134.447Z" fill="#323232"/>
<path d="M114.016 128.231L106.455 131.535C103.591 132.787 102.284 136.124 103.536 138.988L103.539 138.996C104.791 141.86 108.128 143.167 110.992 141.915L118.553 138.61C121.417 137.359 122.724 134.022 121.472 131.158L121.469 131.15C120.217 128.286 116.88 126.979 114.016 128.231Z" fill="#323232"/>
<path d="M63.0642 138.995L72.1282 118.258C73.3801 115.394 72.0731 112.057 69.2089 110.805L69.2013 110.802C66.3371 109.55 63.0003 110.857 61.7484 113.721L52.6844 134.458C51.4325 137.322 52.7395 140.659 55.6037 141.911L55.6113 141.914C58.4755 143.166 61.8123 141.859 63.0642 138.995Z" fill="#323232"/>
<path d="M48.0544 138.599L55.6152 141.903C58.4794 143.155 61.8162 141.848 63.0681 138.984L63.0714 138.976C64.3234 136.112 63.0164 132.775 60.1522 131.524L52.5914 128.219C49.7272 126.967 46.3904 128.274 45.1385 131.138L45.1351 131.146C43.8832 134.01 45.1902 137.347 48.0544 138.599Z" fill="#323232"/>
<path d="M83.1522 120.85C112.388 120.85 136.089 97.1491 136.089 67.9129C136.089 38.6767 112.388 14.9761 83.1522 14.9761C53.916 14.9761 30.2153 38.6767 30.2153 67.9129C30.2153 97.1491 53.916 120.85 83.1522 120.85Z" fill="#7A7A7A"/>
<path opacity="0.43" d="M83.1517 96.6802C99.0396 96.6802 111.919 83.8006 111.919 67.9127C111.919 52.0249 99.0396 39.1453 83.1517 39.1453C67.2639 39.1453 54.3843 52.0249 54.3843 67.9127C54.3843 83.8006 67.2639 96.6802 83.1517 96.6802Z" stroke="#DFDFDF" stroke-width="4.1801" stroke-miterlimit="10"/>
<path opacity="0.43" d="M83.1517 89.8747C95.2811 89.8747 105.114 80.0419 105.114 67.9125C105.114 55.783 95.2811 45.9502 83.1517 45.9502C71.0223 45.9502 61.1895 55.783 61.1895 67.9125C61.1895 80.0419 71.0223 89.8747 83.1517 89.8747Z" fill="#DFDFDF"/>
<path opacity="0.2" d="M136.088 67.912C136.088 97.1477 112.386 120.849 83.1508 120.849C68.2111 120.849 54.7261 114.662 45.1035 104.705C53.2798 109.872 62.9609 112.865 73.3443 112.865C102.58 112.865 126.273 89.1637 126.273 59.928C126.273 45.6321 120.613 32.657 111.392 23.1348C126.231 32.5066 136.088 49.0598 136.088 67.912Z" fill="#585858"/>
<path d="M131.048 69.4934C130.245 93.5624 111.694 113.134 88.0596 115.533" stroke="#606060" stroke-width="4.1801" stroke-miterlimit="10" stroke-linecap="round"/>
<path d="M123.783 72.6365C121.852 89.2315 109.988 102.792 94.2964 107.223" stroke="#606060" stroke-width="4.1801" stroke-miterlimit="10" stroke-linecap="round"/>
<path d="M35.249 66.3334C36.0516 42.2643 54.6029 22.6931 78.2372 20.2937" stroke="#606060" stroke-width="4.1801" stroke-miterlimit="10" stroke-linecap="round"/>
<path d="M42.5151 63.1894C44.4463 46.5944 56.3095 33.0342 72.0016 28.6033" stroke="#606060" stroke-width="4.1801" stroke-miterlimit="10" stroke-linecap="round"/>
<path d="M94.2192 115.958H73.5946C69.5868 115.958 66.3379 119.207 66.3379 123.215V123.224C66.3379 127.231 69.5868 130.48 73.5946 130.48H94.2192C98.2269 130.48 101.476 127.231 101.476 123.224V123.215C101.476 119.207 98.2269 115.958 94.2192 115.958Z" fill="#D3D3D3"/>
<path d="M83.9111 139.35C89.4038 139.35 93.8681 143.814 93.8681 149.307V187.112H73.9541V149.307C73.9541 143.814 78.4185 139.35 83.9111 139.35Z" fill="#C0C0C0"/>
<path d="M134.217 65.5546C119.595 67.745 102.473 69.3501 83.3366 69.3585C64.0413 69.3668 46.7942 67.7533 32.0886 65.5546C31.7793 65.5546 30.1407 65.5211 28.8197 64.2755C27.9837 63.4813 27.457 62.3944 27.457 61.1906V54.168C27.457 51.7686 29.5387 49.804 32.0886 49.804H134.217C136.758 49.804 138.848 51.7686 138.848 54.168V61.1906C138.848 63.5899 136.767 65.5546 134.217 65.5546Z" fill="#4D4D4D"/>
<path d="M30.299 57.6792C27.5736 57.6792 25.3915 55.3801 25.6256 52.6798C28.2173 23.5027 53.1725 0.286377 83.1522 0.286377C113.132 0.286377 138.087 23.5027 140.67 52.6798C140.913 55.3718 138.723 57.6792 135.997 57.6792H30.299Z" fill="#C1C1C1"/>
</g>
<defs>
<clipPath id="clip0_5911_21377">
<rect width="140" height="235.549" fill="white" transform="translate(0.685059 0.286865)"/>
</clipPath>
</defs>
</svg>
