<svg width="141" height="235" viewBox="0 0 141 235" fill="none" xmlns="http://www.w3.org/2000/svg">
<g clip-path="url(#clip0_5911_21407)">
<path d="M58.0127 121.275V151.212" stroke="#969696" stroke-width="6.48896"/>
<path d="M56.4457 234.844H59.5694C63.1072 234.844 65.9751 231.976 65.9751 228.439V181.525C65.9751 177.987 63.1072 175.119 59.5694 175.119H56.4457C52.908 175.119 50.0401 177.987 50.0401 181.525L50.0401 228.439C50.0401 231.976 52.908 234.844 56.4457 234.844Z" fill="#7A7A7A"/>
<path d="M127.667 73.187H103.036C101.062 73.187 99.4624 74.7869 99.4624 76.7605V79.0346C99.4624 81.0082 101.062 82.6081 103.036 82.6081H127.667C129.641 82.6081 131.241 81.0082 131.241 79.0346V76.7605C131.241 74.7869 129.641 73.187 127.667 73.187Z" fill="#323232"/>
<path d="M131.757 86.4896C136.689 86.4896 140.687 82.4917 140.687 77.56C140.687 72.6283 136.689 68.6304 131.757 68.6304C126.826 68.6304 122.828 72.6283 122.828 77.56C122.828 82.4917 126.826 86.4896 131.757 86.4896Z" fill="#323232"/>
<path d="M37.7035 138.343L46.7346 117.682C47.982 114.828 46.6797 111.503 43.8259 110.256L43.8183 110.253C40.9645 109.005 37.6398 110.308 36.3924 113.161L27.3613 133.823C26.114 136.677 27.4162 140.001 30.27 141.249L30.2777 141.252C33.1315 142.499 36.4561 141.197 37.7035 138.343Z" fill="#323232"/>
<path d="M22.7471 137.959L30.2805 141.251C33.1343 142.499 36.459 141.197 37.7064 138.343L37.7097 138.335C38.9571 135.481 37.6548 132.157 34.801 130.909L27.2676 127.616C24.4138 126.369 21.0892 127.671 19.8418 130.525L19.8385 130.533C18.5911 133.387 19.8933 136.711 22.7471 137.959Z" fill="#323232"/>
<path d="M88.3619 133.82L79.3309 113.159C78.0835 110.305 74.7588 109.003 71.905 110.25L71.8974 110.254C69.0436 111.501 67.7413 114.826 68.9887 117.679L78.0198 138.341C79.2671 141.195 82.5918 142.497 85.4456 141.25L85.4533 141.246C88.3071 139.999 89.6093 136.674 88.3619 133.82Z" fill="#323232"/>
<path d="M88.4624 127.627L80.929 130.92C78.0752 132.167 76.7729 135.492 78.0203 138.345L78.0237 138.353C79.271 141.207 82.5957 142.509 85.4495 141.262L92.9829 137.969C95.8367 136.722 97.1389 133.397 95.8915 130.543L95.8882 130.535C94.6408 127.682 91.3162 126.379 88.4624 127.627Z" fill="#323232"/>
<path d="M58.0108 120.267C87.1409 120.267 110.755 96.6526 110.755 67.5225C110.755 38.3924 87.1409 14.7778 58.0108 14.7778C28.8807 14.7778 5.26611 38.3924 5.26611 67.5225C5.26611 96.6526 28.8807 120.267 58.0108 120.267Z" fill="#7A7A7A"/>
<path opacity="0.43" d="M58.0107 96.1855C73.8409 96.1855 86.6738 83.3526 86.6738 67.5224C86.6738 51.6923 73.8409 38.8594 58.0107 38.8594C42.1805 38.8594 29.3477 51.6923 29.3477 67.5224C29.3477 83.3526 42.1805 96.1855 58.0107 96.1855Z" stroke="#DFDFDF" stroke-width="4.16493" stroke-miterlimit="10"/>
<path opacity="0.43" d="M58.0105 89.4043C70.0959 89.4043 79.893 79.6071 79.893 67.5217C79.893 55.4363 70.0959 45.6392 58.0105 45.6392C45.9251 45.6392 36.1279 55.4363 36.1279 67.5217C36.1279 79.6071 45.9251 89.4043 58.0105 89.4043Z" fill="#DFDFDF"/>
<path opacity="0.2" d="M5.26611 67.5217C5.26611 96.6513 28.8813 120.266 58.0108 120.266C72.8963 120.266 86.3323 114.102 95.92 104.181C87.7734 109.329 78.1274 112.311 67.7817 112.311C38.6522 112.311 15.0454 88.6962 15.0454 59.5667C15.0454 45.3226 20.6847 32.3947 29.8725 22.907C15.087 32.2448 5.26611 48.7379 5.26611 67.5217Z" fill="#585858"/>
<path d="M10.29 69.0962C11.0897 93.0779 29.5737 112.578 53.1222 114.969" stroke="#606060" stroke-width="4.16493" stroke-miterlimit="10" stroke-linecap="round"/>
<path d="M17.5298 72.228C19.454 88.7628 31.2741 102.274 46.9092 106.689" stroke="#606060" stroke-width="4.16493" stroke-miterlimit="10" stroke-linecap="round"/>
<path d="M105.742 65.9475C104.943 41.9658 86.4587 22.4656 62.9102 20.075" stroke="#606060" stroke-width="4.16493" stroke-miterlimit="10" stroke-linecap="round"/>
<path d="M98.5034 62.8151C96.5793 46.2804 84.7592 32.7693 69.124 28.3545" stroke="#606060" stroke-width="4.16493" stroke-miterlimit="10" stroke-linecap="round"/>
<path d="M47.7331 129.863H68.2829C72.2761 129.863 75.5132 126.626 75.5132 122.632V122.624C75.5132 118.631 72.2761 115.394 68.2829 115.394H47.7331C43.7399 115.394 40.5028 118.631 40.5028 122.624V122.632C40.5028 126.626 43.7399 129.863 47.7331 129.863Z" fill="#D3D3D3"/>
<path d="M67.9331 186.29H48.0914V148.622C48.0914 143.149 52.5395 138.701 58.0122 138.701C63.485 138.701 67.9331 143.149 67.9331 148.622V186.29Z" fill="#C0C0C0"/>
<path d="M7.13476 65.1737C21.7037 67.3561 38.7633 68.9554 57.8303 68.9638C77.0556 68.9721 94.2401 67.3644 108.892 65.1737C109.201 65.1737 110.833 65.1404 112.149 63.8992C112.982 63.1079 113.507 62.025 113.507 60.8255V53.8284C113.507 51.4377 111.433 49.4802 108.892 49.4802H7.13476C4.60249 49.4802 2.52002 51.4377 2.52002 53.8284V60.8255C2.52002 63.2162 4.59416 65.1737 7.13476 65.1737Z" fill="#4D4D4D"/>
<path d="M110.675 57.3268C113.39 57.3268 115.564 55.0361 115.331 52.3456C112.757 23.2744 87.8925 0.142334 58.0133 0.142334C28.1341 0.142334 3.27777 23.2744 0.703843 52.3456C0.462277 55.0278 2.6447 57.3268 5.36024 57.3268H110.675Z" fill="#C1C1C1"/>
</g>
<defs>
<clipPath id="clip0_5911_21407">
<rect width="140" height="234.694" fill="white" transform="translate(0.685059 0.141846)"/>
</clipPath>
</defs>
</svg>
