<svg width="889" height="299" viewBox="0 0 889 299" fill="none" xmlns="http://www.w3.org/2000/svg">
<g filter="url(#filter0_d_12_243)">
<rect x="10" y="83.0576" width="621" height="134" rx="8" fill="#FAFFEA"/>
<path d="M71.462 142.058V126.658H73.31V142.058H71.462ZM61.628 142.058V126.658H63.476V142.058H61.628ZM63.124 134.974V133.456H71.924V134.974H63.124ZM81.3556 142.322C80.3143 142.322 79.3903 142.087 78.5836 141.618C77.777 141.134 77.139 140.459 76.6696 139.594C76.215 138.728 75.9876 137.724 75.9876 136.58C75.9876 135.421 76.215 134.416 76.6696 133.566C77.1243 132.715 77.755 132.048 78.5616 131.564C79.383 131.08 80.329 130.838 81.3996 130.838C82.4703 130.838 83.387 131.08 84.1496 131.564C84.9123 132.048 85.499 132.678 85.9096 133.456C86.3203 134.218 86.5256 135.054 86.5256 135.964C86.5256 136.11 86.5256 136.272 86.5256 136.448C86.5256 136.609 86.5183 136.792 86.5036 136.998H77.3736V135.568H84.6996C84.6556 134.585 84.3183 133.815 83.6876 133.258C83.0716 132.686 82.2943 132.4 81.3556 132.4C80.725 132.4 80.1383 132.546 79.5956 132.84C79.053 133.118 78.613 133.529 78.2756 134.072C77.953 134.6 77.7916 135.267 77.7916 136.074V136.69C77.7916 137.584 77.9603 138.34 78.2976 138.956C78.635 139.557 79.075 140.012 79.6176 140.32C80.1603 140.613 80.7396 140.76 81.3556 140.76C82.1183 140.76 82.7563 140.584 83.2696 140.232C83.783 139.88 84.157 139.403 84.3916 138.802H86.2176C86.027 139.476 85.7116 140.078 85.2716 140.606C84.8316 141.134 84.2816 141.552 83.6216 141.86C82.9763 142.168 82.221 142.322 81.3556 142.322ZM88.975 142.058V126.218H90.823V142.058H88.975ZM93.852 142.058V131.102H95.524L95.656 132.686C96.008 132.114 96.4773 131.666 97.064 131.344C97.6507 131.006 98.3107 130.838 99.044 130.838C99.616 130.838 100.137 130.918 100.606 131.08C101.075 131.226 101.486 131.461 101.838 131.784C102.19 132.092 102.476 132.488 102.696 132.972C103.077 132.297 103.605 131.776 104.28 131.41C104.955 131.028 105.673 130.838 106.436 130.838C107.301 130.838 108.057 131.014 108.702 131.366C109.347 131.703 109.846 132.231 110.198 132.95C110.55 133.654 110.726 134.548 110.726 135.634V142.058H108.9V135.832C108.9 134.702 108.673 133.852 108.218 133.28C107.763 132.708 107.111 132.422 106.26 132.422C105.673 132.422 105.145 132.576 104.676 132.884C104.221 133.192 103.862 133.639 103.598 134.226C103.334 134.798 103.202 135.509 103.202 136.36V142.058H101.354V135.832C101.354 134.702 101.127 133.852 100.672 133.28C100.217 132.708 99.572 132.422 98.736 132.422C98.164 132.422 97.6433 132.576 97.174 132.884C96.7193 133.192 96.36 133.639 96.096 134.226C95.832 134.798 95.7 135.509 95.7 136.36V142.058H93.852ZM118.416 142.322C117.375 142.322 116.451 142.087 115.644 141.618C114.838 141.134 114.2 140.459 113.73 139.594C113.276 138.728 113.048 137.724 113.048 136.58C113.048 135.421 113.276 134.416 113.73 133.566C114.185 132.715 114.816 132.048 115.622 131.564C116.444 131.08 117.39 130.838 118.46 130.838C119.531 130.838 120.448 131.08 121.21 131.564C121.973 132.048 122.56 132.678 122.97 133.456C123.381 134.218 123.586 135.054 123.586 135.964C123.586 136.11 123.586 136.272 123.586 136.448C123.586 136.609 123.579 136.792 123.564 136.998H114.434V135.568H121.76C121.716 134.585 121.379 133.815 120.748 133.258C120.132 132.686 119.355 132.4 118.416 132.4C117.786 132.4 117.199 132.546 116.656 132.84C116.114 133.118 115.674 133.529 115.336 134.072C115.014 134.6 114.852 135.267 114.852 136.074V136.69C114.852 137.584 115.021 138.34 115.358 138.956C115.696 139.557 116.136 140.012 116.678 140.32C117.221 140.613 117.8 140.76 118.416 140.76C119.179 140.76 119.817 140.584 120.33 140.232C120.844 139.88 121.218 139.403 121.452 138.802H123.278C123.088 139.476 122.772 140.078 122.332 140.606C121.892 141.134 121.342 141.552 120.682 141.86C120.037 142.168 119.282 142.322 118.416 142.322ZM130.004 142.058C129.344 142.058 128.772 141.955 128.288 141.75C127.804 141.544 127.43 141.2 127.166 140.716C126.917 140.217 126.792 139.55 126.792 138.714V132.664H124.878V131.102H126.792L127.034 128.484H128.64V131.102H131.852V132.664H128.64V138.714C128.64 139.403 128.78 139.872 129.058 140.122C129.337 140.356 129.828 140.474 130.532 140.474H131.676V142.058H130.004ZM138.38 142.322C137.5 142.322 136.715 142.175 136.026 141.882C135.351 141.574 134.801 141.148 134.376 140.606C133.965 140.048 133.708 139.396 133.606 138.648H135.498C135.586 139.029 135.747 139.381 135.982 139.704C136.231 140.026 136.554 140.283 136.95 140.474C137.36 140.664 137.844 140.76 138.402 140.76C138.93 140.76 139.355 140.686 139.678 140.54C140.015 140.378 140.264 140.173 140.426 139.924C140.587 139.66 140.668 139.381 140.668 139.088C140.668 138.633 140.558 138.296 140.338 138.076C140.132 137.841 139.824 137.658 139.414 137.526C139.003 137.394 138.512 137.269 137.94 137.152C137.5 137.064 137.045 136.946 136.576 136.8C136.121 136.653 135.703 136.47 135.322 136.25C134.955 136.015 134.662 135.729 134.442 135.392C134.222 135.04 134.112 134.607 134.112 134.094C134.112 133.463 134.273 132.906 134.596 132.422C134.918 131.923 135.373 131.534 135.96 131.256C136.561 130.977 137.265 130.838 138.072 130.838C139.245 130.838 140.198 131.124 140.932 131.696C141.665 132.268 142.098 133.096 142.23 134.182H140.404C140.33 133.624 140.088 133.192 139.678 132.884C139.282 132.561 138.739 132.4 138.05 132.4C137.375 132.4 136.862 132.539 136.51 132.818C136.158 133.096 135.982 133.463 135.982 133.918C135.982 134.211 136.084 134.468 136.29 134.688C136.495 134.893 136.788 135.069 137.17 135.216C137.566 135.362 138.028 135.494 138.556 135.612C139.26 135.758 139.912 135.942 140.514 136.162C141.115 136.367 141.606 136.682 141.988 137.108C142.369 137.533 142.56 138.142 142.56 138.934C142.574 139.594 142.406 140.18 142.054 140.694C141.716 141.207 141.232 141.61 140.602 141.904C139.986 142.182 139.245 142.322 138.38 142.322ZM154.652 142.322C153.743 142.322 152.987 142.168 152.386 141.86C151.785 141.552 151.337 141.141 151.044 140.628C150.751 140.114 150.604 139.55 150.604 138.934C150.604 138.186 150.795 137.555 151.176 137.042C151.572 136.528 152.122 136.14 152.826 135.876C153.545 135.597 154.388 135.458 155.356 135.458H158.304C158.304 134.783 158.194 134.226 157.974 133.786C157.754 133.331 157.439 132.986 157.028 132.752C156.617 132.517 156.126 132.4 155.554 132.4C154.835 132.4 154.212 132.583 153.684 132.95C153.171 133.302 152.855 133.822 152.738 134.512H150.846C150.934 133.72 151.198 133.052 151.638 132.51C152.093 131.967 152.665 131.556 153.354 131.278C154.058 130.984 154.791 130.838 155.554 130.838C156.566 130.838 157.409 131.028 158.084 131.41C158.773 131.776 159.287 132.297 159.624 132.972C159.976 133.632 160.152 134.416 160.152 135.326V142.058H158.502L158.392 140.1C158.245 140.408 158.055 140.701 157.82 140.98C157.6 141.244 157.336 141.478 157.028 141.684C156.735 141.874 156.39 142.028 155.994 142.146C155.598 142.263 155.151 142.322 154.652 142.322ZM154.938 140.76C155.466 140.76 155.935 140.657 156.346 140.452C156.771 140.232 157.131 139.938 157.424 139.572C157.717 139.205 157.937 138.794 158.084 138.34C158.231 137.885 158.304 137.416 158.304 136.932V136.888H155.51C154.791 136.888 154.212 136.976 153.772 137.152C153.332 137.313 153.017 137.54 152.826 137.834C152.635 138.127 152.54 138.464 152.54 138.846C152.54 139.242 152.628 139.586 152.804 139.88C152.995 140.158 153.266 140.378 153.618 140.54C153.985 140.686 154.425 140.76 154.938 140.76ZM162.946 142.058V131.102H164.618L164.772 133.214C165.006 132.715 165.314 132.29 165.696 131.938C166.077 131.586 166.532 131.314 167.06 131.124C167.602 130.933 168.211 130.838 168.886 130.838V132.774H168.358C167.874 132.774 167.412 132.84 166.972 132.972C166.546 133.089 166.165 133.287 165.828 133.566C165.505 133.844 165.248 134.226 165.058 134.71C164.882 135.194 164.794 135.795 164.794 136.514V142.058H162.946ZM175.457 142.322C174.416 142.322 173.492 142.087 172.685 141.618C171.879 141.134 171.241 140.459 170.771 139.594C170.317 138.728 170.089 137.724 170.089 136.58C170.089 135.421 170.317 134.416 170.771 133.566C171.226 132.715 171.857 132.048 172.663 131.564C173.485 131.08 174.431 130.838 175.501 130.838C176.572 130.838 177.489 131.08 178.251 131.564C179.014 132.048 179.601 132.678 180.011 133.456C180.422 134.218 180.627 135.054 180.627 135.964C180.627 136.11 180.627 136.272 180.627 136.448C180.627 136.609 180.62 136.792 180.605 136.998H171.475V135.568H178.801C178.757 134.585 178.42 133.815 177.789 133.258C177.173 132.686 176.396 132.4 175.457 132.4C174.827 132.4 174.24 132.546 173.697 132.84C173.155 133.118 172.715 133.529 172.377 134.072C172.055 134.6 171.893 135.267 171.893 136.074V136.69C171.893 137.584 172.062 138.34 172.399 138.956C172.737 139.557 173.177 140.012 173.719 140.32C174.262 140.613 174.841 140.76 175.457 140.76C176.22 140.76 176.858 140.584 177.371 140.232C177.885 139.88 178.259 139.403 178.493 138.802H180.319C180.129 139.476 179.813 140.078 179.373 140.606C178.933 141.134 178.383 141.552 177.723 141.86C177.078 142.168 176.323 142.322 175.457 142.322ZM188.833 142.058V130.97H191.451L191.693 132.444C192.045 131.916 192.507 131.498 193.079 131.19C193.666 130.867 194.333 130.706 195.081 130.706C195.638 130.706 196.137 130.779 196.577 130.926C197.017 131.072 197.406 131.285 197.743 131.564C198.095 131.842 198.381 132.194 198.601 132.62C199.012 132.018 199.547 131.549 200.207 131.212C200.867 130.874 201.586 130.706 202.363 130.706C203.331 130.706 204.138 130.904 204.783 131.3C205.428 131.681 205.912 132.238 206.235 132.972C206.572 133.705 206.741 134.607 206.741 135.678V142.058H203.793V135.942C203.793 135.062 203.617 134.387 203.265 133.918C202.928 133.448 202.4 133.214 201.681 133.214C201.212 133.214 200.794 133.331 200.427 133.566C200.06 133.8 199.774 134.138 199.569 134.578C199.378 135.018 199.283 135.546 199.283 136.162V142.058H196.313V135.942C196.313 135.062 196.137 134.387 195.785 133.918C195.433 133.448 194.89 133.214 194.157 133.214C193.702 133.214 193.292 133.331 192.925 133.566C192.573 133.8 192.294 134.138 192.089 134.578C191.898 135.018 191.803 135.546 191.803 136.162V142.058H188.833ZM213.284 142.322C212.36 142.322 211.597 142.175 210.996 141.882C210.394 141.574 209.947 141.17 209.654 140.672C209.375 140.158 209.236 139.594 209.236 138.978C209.236 138.303 209.404 137.709 209.742 137.196C210.094 136.682 210.614 136.279 211.304 135.986C212.008 135.692 212.888 135.546 213.944 135.546H216.694C216.694 135.003 216.62 134.556 216.474 134.204C216.327 133.837 216.1 133.566 215.792 133.39C215.484 133.214 215.073 133.126 214.56 133.126C214.002 133.126 213.526 133.25 213.13 133.5C212.748 133.734 212.514 134.101 212.426 134.6H209.544C209.617 133.808 209.874 133.126 210.314 132.554C210.768 131.967 211.362 131.512 212.096 131.19C212.844 130.867 213.672 130.706 214.582 130.706C215.623 130.706 216.525 130.882 217.288 131.234C218.05 131.586 218.637 132.092 219.048 132.752C219.458 133.412 219.664 134.226 219.664 135.194V142.058H217.156L216.826 140.364C216.664 140.657 216.474 140.921 216.254 141.156C216.034 141.39 215.777 141.596 215.484 141.772C215.19 141.948 214.86 142.08 214.494 142.168C214.127 142.27 213.724 142.322 213.284 142.322ZM213.988 140.034C214.369 140.034 214.706 139.968 215 139.836C215.308 139.689 215.572 139.498 215.792 139.264C216.012 139.014 216.18 138.736 216.298 138.428C216.43 138.105 216.518 137.76 216.562 137.394V137.372H214.296C213.841 137.372 213.467 137.43 213.174 137.548C212.895 137.65 212.69 137.804 212.558 138.01C212.426 138.215 212.36 138.45 212.36 138.714C212.36 139.007 212.426 139.249 212.558 139.44C212.69 139.63 212.88 139.777 213.13 139.88C213.379 139.982 213.665 140.034 213.988 140.034ZM222.434 142.058V130.97H225.052L225.272 132.774C225.61 132.158 226.086 131.659 226.702 131.278C227.333 130.896 228.081 130.706 228.946 130.706C229.87 130.706 230.648 130.896 231.278 131.278C231.909 131.659 232.386 132.216 232.708 132.95C233.046 133.683 233.214 134.585 233.214 135.656V142.058H230.266V135.942C230.266 135.062 230.076 134.387 229.694 133.918C229.328 133.448 228.756 133.214 227.978 133.214C227.48 133.214 227.032 133.331 226.636 133.566C226.255 133.8 225.954 134.138 225.734 134.578C225.514 135.003 225.404 135.524 225.404 136.14V142.058H222.434ZM240.941 142.322C239.929 142.322 239.019 142.072 238.213 141.574C237.421 141.075 236.797 140.386 236.343 139.506C235.888 138.626 235.661 137.636 235.661 136.536C235.661 135.406 235.888 134.409 236.343 133.544C236.812 132.664 237.45 131.974 238.257 131.476C239.078 130.962 239.995 130.706 241.007 130.706C241.799 130.706 242.495 130.852 243.097 131.146C243.698 131.439 244.182 131.857 244.549 132.4V126.218H247.519V142.058H244.879L244.549 140.54C244.329 140.848 244.05 141.141 243.713 141.42C243.39 141.698 243.001 141.918 242.547 142.08C242.092 142.241 241.557 142.322 240.941 142.322ZM241.645 139.726C242.231 139.726 242.745 139.594 243.185 139.33C243.639 139.051 243.991 138.67 244.241 138.186C244.49 137.702 244.615 137.144 244.615 136.514C244.615 135.883 244.49 135.326 244.241 134.842C243.991 134.358 243.639 133.984 243.185 133.72C242.745 133.441 242.231 133.302 241.645 133.302C241.087 133.302 240.581 133.441 240.127 133.72C239.672 133.984 239.313 134.358 239.049 134.842C238.799 135.326 238.675 135.876 238.675 136.492C238.675 137.137 238.799 137.702 239.049 138.186C239.313 138.67 239.665 139.051 240.105 139.33C240.559 139.594 241.073 139.726 241.645 139.726ZM254.169 142.322C253.245 142.322 252.482 142.175 251.881 141.882C251.279 141.574 250.832 141.17 250.539 140.672C250.26 140.158 250.121 139.594 250.121 138.978C250.121 138.303 250.289 137.709 250.627 137.196C250.979 136.682 251.499 136.279 252.189 135.986C252.893 135.692 253.773 135.546 254.829 135.546H257.579C257.579 135.003 257.505 134.556 257.359 134.204C257.212 133.837 256.985 133.566 256.677 133.39C256.369 133.214 255.958 133.126 255.445 133.126C254.887 133.126 254.411 133.25 254.015 133.5C253.633 133.734 253.399 134.101 253.311 134.6H250.429C250.502 133.808 250.759 133.126 251.199 132.554C251.653 131.967 252.247 131.512 252.981 131.19C253.729 130.867 254.557 130.706 255.467 130.706C256.508 130.706 257.41 130.882 258.173 131.234C258.935 131.586 259.522 132.092 259.933 132.752C260.343 133.412 260.549 134.226 260.549 135.194V142.058H258.041L257.711 140.364C257.549 140.657 257.359 140.921 257.139 141.156C256.919 141.39 256.662 141.596 256.369 141.772C256.075 141.948 255.745 142.08 255.379 142.168C255.012 142.27 254.609 142.322 254.169 142.322ZM254.873 140.034C255.254 140.034 255.591 139.968 255.885 139.836C256.193 139.689 256.457 139.498 256.677 139.264C256.897 139.014 257.065 138.736 257.183 138.428C257.315 138.105 257.403 137.76 257.447 137.394V137.372H255.181C254.726 137.372 254.352 137.43 254.059 137.548C253.78 137.65 253.575 137.804 253.443 138.01C253.311 138.215 253.245 138.45 253.245 138.714C253.245 139.007 253.311 139.249 253.443 139.44C253.575 139.63 253.765 139.777 254.015 139.88C254.264 139.982 254.55 140.034 254.873 140.034ZM268.184 142.058C267.407 142.058 266.725 141.94 266.138 141.706C265.566 141.456 265.119 141.053 264.796 140.496C264.474 139.924 264.312 139.146 264.312 138.164V133.456H262.42V130.97H264.312L264.642 127.956H267.282V130.97H270.208V133.456H267.282V138.208C267.282 138.706 267.392 139.051 267.612 139.242C267.832 139.432 268.206 139.528 268.734 139.528H270.186V142.058H268.184ZM277.665 142.322C276.609 142.322 275.655 142.08 274.805 141.596C273.969 141.097 273.301 140.415 272.803 139.55C272.319 138.67 272.077 137.665 272.077 136.536C272.077 135.377 272.319 134.365 272.803 133.5C273.301 132.62 273.976 131.938 274.827 131.454C275.677 130.955 276.631 130.706 277.687 130.706C278.757 130.706 279.711 130.955 280.547 131.454C281.397 131.938 282.065 132.62 282.549 133.5C283.047 134.365 283.297 135.37 283.297 136.514C283.297 137.658 283.047 138.67 282.549 139.55C282.065 140.415 281.397 141.097 280.547 141.596C279.696 142.08 278.735 142.322 277.665 142.322ZM277.665 139.748C278.163 139.748 278.603 139.63 278.985 139.396C279.381 139.161 279.689 138.802 279.909 138.318C280.143 137.834 280.261 137.232 280.261 136.514C280.261 135.795 280.143 135.201 279.909 134.732C279.689 134.248 279.381 133.888 278.985 133.654C278.603 133.404 278.171 133.28 277.687 133.28C277.217 133.28 276.785 133.404 276.389 133.654C275.993 133.888 275.677 134.248 275.443 134.732C275.223 135.201 275.113 135.795 275.113 136.514C275.113 137.232 275.223 137.834 275.443 138.318C275.677 138.802 275.985 139.161 276.367 139.396C276.763 139.63 277.195 139.748 277.665 139.748ZM285.856 142.058V130.97H288.496L288.782 133.016C289.046 132.532 289.376 132.121 289.772 131.784C290.183 131.446 290.645 131.182 291.158 130.992C291.686 130.801 292.266 130.706 292.896 130.706V133.852H291.884C291.444 133.852 291.034 133.903 290.652 134.006C290.286 134.108 289.963 134.277 289.684 134.512C289.406 134.732 289.193 135.04 289.046 135.436C288.9 135.832 288.826 136.33 288.826 136.932V142.058H285.856ZM296.266 146.898L298.95 140.826H298.29L293.846 130.97H297.08L300.248 138.12L303.108 130.97H306.254L299.412 146.898H296.266ZM314.618 142.058V129.254C314.618 128.55 314.735 127.978 314.97 127.538C315.205 127.083 315.549 126.753 316.004 126.548C316.473 126.328 317.045 126.218 317.72 126.218H318.864V127.802H318.006C317.463 127.802 317.067 127.912 316.818 128.132C316.583 128.352 316.466 128.74 316.466 129.298V142.058H314.618ZM312.968 132.664V131.102H319.172V132.664H312.968ZM325.914 142.322C324.887 142.322 323.963 142.087 323.142 141.618C322.32 141.148 321.668 140.481 321.184 139.616C320.714 138.75 320.48 137.746 320.48 136.602C320.48 135.428 320.722 134.416 321.206 133.566C321.69 132.7 322.342 132.033 323.164 131.564C324 131.08 324.931 130.838 325.958 130.838C326.984 130.838 327.908 131.08 328.73 131.564C329.551 132.033 330.196 132.7 330.666 133.566C331.15 134.416 331.392 135.428 331.392 136.602C331.392 137.746 331.15 138.75 330.666 139.616C330.182 140.481 329.522 141.148 328.686 141.618C327.864 142.087 326.94 142.322 325.914 142.322ZM325.914 140.738C326.544 140.738 327.131 140.584 327.674 140.276C328.216 139.968 328.656 139.506 328.994 138.89C329.331 138.259 329.5 137.489 329.5 136.58C329.5 135.656 329.331 134.893 328.994 134.292C328.671 133.676 328.238 133.214 327.696 132.906C327.153 132.583 326.574 132.422 325.958 132.422C325.342 132.422 324.755 132.583 324.198 132.906C323.655 133.214 323.215 133.676 322.878 134.292C322.54 134.893 322.372 135.656 322.372 136.58C322.372 137.489 322.54 138.259 322.878 138.89C323.215 139.506 323.648 139.968 324.176 140.276C324.718 140.584 325.298 140.738 325.914 140.738ZM333.961 142.058V131.102H335.633L335.787 133.214C336.022 132.715 336.33 132.29 336.711 131.938C337.093 131.586 337.547 131.314 338.075 131.124C338.618 130.933 339.227 130.838 339.901 130.838V132.774H339.373C338.889 132.774 338.427 132.84 337.987 132.972C337.562 133.089 337.181 133.287 336.843 133.566C336.521 133.844 336.264 134.226 336.073 134.71C335.897 135.194 335.809 135.795 335.809 136.514V142.058H333.961ZM347.797 142.058V131.102H349.469L349.623 133.214C349.858 132.715 350.166 132.29 350.547 131.938C350.929 131.586 351.383 131.314 351.911 131.124C352.454 130.933 353.063 130.838 353.737 130.838V132.774H353.209C352.725 132.774 352.263 132.84 351.823 132.972C351.398 133.089 351.017 133.287 350.679 133.566C350.357 133.844 350.1 134.226 349.909 134.71C349.733 135.194 349.645 135.795 349.645 136.514V142.058H347.797ZM356.009 142.058V131.102H357.857V142.058H356.009ZM356.933 128.704C356.566 128.704 356.258 128.586 356.009 128.352C355.774 128.102 355.657 127.794 355.657 127.428C355.657 127.061 355.774 126.768 356.009 126.548C356.258 126.313 356.566 126.196 356.933 126.196C357.285 126.196 357.586 126.313 357.835 126.548C358.084 126.768 358.209 127.061 358.209 127.428C358.209 127.794 358.084 128.102 357.835 128.352C357.586 128.586 357.285 128.704 356.933 128.704ZM366.025 142.322C364.939 142.322 363.986 142.072 363.165 141.574C362.358 141.075 361.727 140.393 361.273 139.528C360.833 138.648 360.613 137.658 360.613 136.558C360.613 135.458 360.833 134.482 361.273 133.632C361.727 132.766 362.365 132.084 363.187 131.586C364.008 131.087 364.961 130.838 366.047 130.838C366.941 130.838 367.733 131.021 368.423 131.388C369.112 131.754 369.64 132.268 370.007 132.928V126.218H371.855V142.058H370.183L370.029 140.254C369.794 140.606 369.493 140.943 369.127 141.266C368.76 141.574 368.32 141.83 367.807 142.036C367.293 142.226 366.699 142.322 366.025 142.322ZM366.223 140.716C366.956 140.716 367.601 140.547 368.159 140.21C368.731 139.858 369.171 139.374 369.479 138.758C369.787 138.142 369.941 137.416 369.941 136.58C369.941 135.758 369.787 135.04 369.479 134.424C369.171 133.808 368.731 133.324 368.159 132.972C367.601 132.62 366.956 132.444 366.223 132.444C365.504 132.444 364.859 132.62 364.287 132.972C363.729 133.324 363.289 133.808 362.967 134.424C362.659 135.04 362.505 135.758 362.505 136.58C362.505 137.416 362.659 138.142 362.967 138.758C363.289 139.374 363.729 139.858 364.287 140.21C364.859 140.547 365.504 140.716 366.223 140.716ZM379.817 142.322C378.775 142.322 377.851 142.087 377.045 141.618C376.238 141.134 375.6 140.459 375.131 139.594C374.676 138.728 374.449 137.724 374.449 136.58C374.449 135.421 374.676 134.416 375.131 133.566C375.585 132.715 376.216 132.048 377.023 131.564C377.844 131.08 378.79 130.838 379.861 130.838C380.931 130.838 381.848 131.08 382.611 131.564C383.373 132.048 383.96 132.678 384.371 133.456C384.781 134.218 384.987 135.054 384.987 135.964C384.987 136.11 384.987 136.272 384.987 136.448C384.987 136.609 384.979 136.792 384.965 136.998H375.835V135.568H383.161C383.117 134.585 382.779 133.815 382.149 133.258C381.533 132.686 380.755 132.4 379.817 132.4C379.186 132.4 378.599 132.546 378.057 132.84C377.514 133.118 377.074 133.529 376.737 134.072C376.414 134.6 376.253 135.267 376.253 136.074V136.69C376.253 137.584 376.421 138.34 376.759 138.956C377.096 139.557 377.536 140.012 378.079 140.32C378.621 140.613 379.201 140.76 379.817 140.76C380.579 140.76 381.217 140.584 381.731 140.232C382.244 139.88 382.618 139.403 382.853 138.802H384.679C384.488 139.476 384.173 140.078 383.733 140.606C383.293 141.134 382.743 141.552 382.083 141.86C381.437 142.168 380.682 142.322 379.817 142.322ZM387.436 142.058V131.102H389.108L389.262 133.214C389.497 132.715 389.805 132.29 390.186 131.938C390.567 131.586 391.022 131.314 391.55 131.124C392.093 130.933 392.701 130.838 393.376 130.838V132.774H392.848C392.364 132.774 391.902 132.84 391.462 132.972C391.037 133.089 390.655 133.287 390.318 133.566C389.995 133.844 389.739 134.226 389.548 134.71C389.372 135.194 389.284 135.795 389.284 136.514V142.058H387.436ZM399.63 142.322C398.75 142.322 397.965 142.175 397.276 141.882C396.601 141.574 396.051 141.148 395.626 140.606C395.215 140.048 394.958 139.396 394.856 138.648H396.748C396.836 139.029 396.997 139.381 397.232 139.704C397.481 140.026 397.804 140.283 398.2 140.474C398.61 140.664 399.094 140.76 399.652 140.76C400.18 140.76 400.605 140.686 400.928 140.54C401.265 140.378 401.514 140.173 401.676 139.924C401.837 139.66 401.918 139.381 401.918 139.088C401.918 138.633 401.808 138.296 401.588 138.076C401.382 137.841 401.074 137.658 400.664 137.526C400.253 137.394 399.762 137.269 399.19 137.152C398.75 137.064 398.295 136.946 397.826 136.8C397.371 136.653 396.953 136.47 396.572 136.25C396.205 136.015 395.912 135.729 395.692 135.392C395.472 135.04 395.362 134.607 395.362 134.094C395.362 133.463 395.523 132.906 395.846 132.422C396.168 131.923 396.623 131.534 397.21 131.256C397.811 130.977 398.515 130.838 399.322 130.838C400.495 130.838 401.448 131.124 402.182 131.696C402.915 132.268 403.348 133.096 403.48 134.182H401.654C401.58 133.624 401.338 133.192 400.928 132.884C400.532 132.561 399.989 132.4 399.3 132.4C398.625 132.4 398.112 132.539 397.76 132.818C397.408 133.096 397.232 133.463 397.232 133.918C397.232 134.211 397.334 134.468 397.54 134.688C397.745 134.893 398.038 135.069 398.42 135.216C398.816 135.362 399.278 135.494 399.806 135.612C400.51 135.758 401.162 135.942 401.764 136.162C402.365 136.367 402.856 136.682 403.238 137.108C403.619 137.533 403.81 138.142 403.81 138.934C403.824 139.594 403.656 140.18 403.304 140.694C402.966 141.207 402.482 141.61 401.852 141.904C401.236 142.182 400.495 142.322 399.63 142.322ZM416.276 142.322C415.425 142.322 414.677 142.153 414.032 141.816C413.401 141.464 412.91 140.936 412.558 140.232C412.221 139.513 412.052 138.618 412.052 137.548V131.102H413.9V137.35C413.9 138.479 414.135 139.33 414.604 139.902C415.088 140.459 415.777 140.738 416.672 140.738C417.303 140.738 417.867 140.584 418.366 140.276C418.865 139.968 419.253 139.528 419.532 138.956C419.825 138.369 419.972 137.658 419.972 136.822V131.102H421.82V142.058H420.148L420.038 140.1C419.686 140.789 419.18 141.332 418.52 141.728C417.86 142.124 417.112 142.322 416.276 142.322ZM424.862 142.058V131.102H426.534L426.644 133.06C426.996 132.37 427.502 131.828 428.162 131.432C428.822 131.036 429.57 130.838 430.406 130.838C431.271 130.838 432.019 131.014 432.65 131.366C433.28 131.703 433.772 132.231 434.124 132.95C434.476 133.654 434.652 134.548 434.652 135.634V142.058H432.804V135.832C432.804 134.702 432.562 133.852 432.078 133.28C431.594 132.708 430.897 132.422 429.988 132.422C429.357 132.422 428.792 132.576 428.294 132.884C427.81 133.192 427.421 133.639 427.128 134.226C426.849 134.798 426.71 135.509 426.71 136.36V142.058H424.862ZM442.402 142.322C441.316 142.322 440.363 142.072 439.542 141.574C438.735 141.075 438.104 140.393 437.65 139.528C437.21 138.648 436.99 137.658 436.99 136.558C436.99 135.458 437.21 134.482 437.65 133.632C438.104 132.766 438.742 132.084 439.564 131.586C440.385 131.087 441.338 130.838 442.424 130.838C443.318 130.838 444.11 131.021 444.8 131.388C445.489 131.754 446.017 132.268 446.384 132.928V126.218H448.232V142.058H446.56L446.406 140.254C446.171 140.606 445.87 140.943 445.504 141.266C445.137 141.574 444.697 141.83 444.184 142.036C443.67 142.226 443.076 142.322 442.402 142.322ZM442.6 140.716C443.333 140.716 443.978 140.547 444.536 140.21C445.108 139.858 445.548 139.374 445.856 138.758C446.164 138.142 446.318 137.416 446.318 136.58C446.318 135.758 446.164 135.04 445.856 134.424C445.548 133.808 445.108 133.324 444.536 132.972C443.978 132.62 443.333 132.444 442.6 132.444C441.881 132.444 441.236 132.62 440.664 132.972C440.106 133.324 439.666 133.808 439.344 134.424C439.036 135.04 438.882 135.758 438.882 136.58C438.882 137.416 439.036 138.142 439.344 138.758C439.666 139.374 440.106 139.858 440.664 140.21C441.236 140.547 441.881 140.716 442.6 140.716ZM456.194 142.322C455.152 142.322 454.228 142.087 453.422 141.618C452.615 141.134 451.977 140.459 451.508 139.594C451.053 138.728 450.826 137.724 450.826 136.58C450.826 135.421 451.053 134.416 451.508 133.566C451.962 132.715 452.593 132.048 453.4 131.564C454.221 131.08 455.167 130.838 456.238 130.838C457.308 130.838 458.225 131.08 458.988 131.564C459.75 132.048 460.337 132.678 460.748 133.456C461.158 134.218 461.364 135.054 461.364 135.964C461.364 136.11 461.364 136.272 461.364 136.448C461.364 136.609 461.356 136.792 461.342 136.998H452.212V135.568H459.538C459.494 134.585 459.156 133.815 458.526 133.258C457.91 132.686 457.132 132.4 456.194 132.4C455.563 132.4 454.976 132.546 454.434 132.84C453.891 133.118 453.451 133.529 453.114 134.072C452.791 134.6 452.63 135.267 452.63 136.074V136.69C452.63 137.584 452.798 138.34 453.136 138.956C453.473 139.557 453.913 140.012 454.456 140.32C454.998 140.613 455.578 140.76 456.194 140.76C456.956 140.76 457.594 140.584 458.108 140.232C458.621 139.88 458.995 139.403 459.23 138.802H461.056C460.865 139.476 460.55 140.078 460.11 140.606C459.67 141.134 459.12 141.552 458.46 141.86C457.814 142.168 457.059 142.322 456.194 142.322ZM463.813 142.058V131.102H465.485L465.639 133.214C465.874 132.715 466.182 132.29 466.563 131.938C466.944 131.586 467.399 131.314 467.927 131.124C468.47 130.933 469.078 130.838 469.753 130.838V132.774H469.225C468.741 132.774 468.279 132.84 467.839 132.972C467.414 133.089 467.032 133.287 466.695 133.566C466.372 133.844 466.116 134.226 465.925 134.71C465.749 135.194 465.661 135.795 465.661 136.514V142.058H463.813ZM479.321 142.058V128.726L476.791 129.298V128.022L479.937 126.658H481.191V142.058H479.321ZM489.523 142.322C488.511 142.322 487.601 142.138 486.795 141.772C486.003 141.39 485.372 140.87 484.903 140.21C484.433 139.535 484.199 138.758 484.199 137.878C484.199 137.247 484.323 136.66 484.573 136.118C484.822 135.575 485.174 135.106 485.629 134.71C486.083 134.299 486.611 134.013 487.213 133.852C486.377 133.558 485.731 133.104 485.277 132.488C484.822 131.872 484.595 131.204 484.595 130.486C484.595 129.723 484.793 129.034 485.189 128.418C485.585 127.802 486.149 127.31 486.883 126.944C487.616 126.577 488.496 126.394 489.523 126.394C490.549 126.394 491.429 126.577 492.163 126.944C492.896 127.31 493.453 127.802 493.835 128.418C494.231 129.034 494.428 129.723 494.428 130.486C494.428 131.204 494.201 131.872 493.747 132.488C493.307 133.104 492.669 133.558 491.833 133.852C492.449 134.013 492.977 134.299 493.417 134.71C493.871 135.106 494.216 135.575 494.451 136.118C494.7 136.66 494.825 137.247 494.825 137.878C494.825 138.758 494.59 139.535 494.12 140.21C493.666 140.87 493.035 141.39 492.229 141.772C491.437 142.138 490.535 142.322 489.523 142.322ZM489.523 140.694C490.696 140.694 491.561 140.43 492.119 139.902C492.691 139.359 492.977 138.648 492.977 137.768C492.977 136.77 492.661 136.015 492.031 135.502C491.415 134.988 490.579 134.732 489.523 134.732C488.467 134.732 487.623 134.988 486.993 135.502C486.362 136.015 486.046 136.77 486.046 137.768C486.046 138.648 486.333 139.359 486.905 139.902C487.491 140.43 488.364 140.694 489.523 140.694ZM489.523 133.192C490.461 133.192 491.202 132.95 491.745 132.466C492.287 131.982 492.559 131.358 492.559 130.596C492.559 129.73 492.287 129.078 491.745 128.638C491.217 128.198 490.476 127.978 489.523 127.978C488.584 127.978 487.843 128.198 487.301 128.638C486.758 129.078 486.487 129.73 486.487 130.596C486.487 131.358 486.758 131.982 487.301 132.466C487.843 132.95 488.584 133.192 489.523 133.192ZM504.769 146.898L507.497 140.826H506.859L502.503 131.102H504.505L508.135 139.462L511.941 131.102H513.855L506.705 146.898H504.769ZM519.68 142.322C518.639 142.322 517.715 142.087 516.908 141.618C516.101 141.134 515.463 140.459 514.994 139.594C514.539 138.728 514.312 137.724 514.312 136.58C514.312 135.421 514.539 134.416 514.994 133.566C515.449 132.715 516.079 132.048 516.886 131.564C517.707 131.08 518.653 130.838 519.724 130.838C520.795 130.838 521.711 131.08 522.474 131.564C523.237 132.048 523.823 132.678 524.234 133.456C524.645 134.218 524.85 135.054 524.85 135.964C524.85 136.11 524.85 136.272 524.85 136.448C524.85 136.609 524.843 136.792 524.828 136.998H515.698V135.568H523.024C522.98 134.585 522.643 133.815 522.012 133.258C521.396 132.686 520.619 132.4 519.68 132.4C519.049 132.4 518.463 132.546 517.92 132.84C517.377 133.118 516.937 133.529 516.6 134.072C516.277 134.6 516.116 135.267 516.116 136.074V136.69C516.116 137.584 516.285 138.34 516.622 138.956C516.959 139.557 517.399 140.012 517.942 140.32C518.485 140.613 519.064 140.76 519.68 140.76C520.443 140.76 521.081 140.584 521.594 140.232C522.107 139.88 522.481 139.403 522.716 138.802H524.542C524.351 139.476 524.036 140.078 523.596 140.606C523.156 141.134 522.606 141.552 521.946 141.86C521.301 142.168 520.545 142.322 519.68 142.322ZM530.929 142.322C530.02 142.322 529.265 142.168 528.663 141.86C528.062 141.552 527.615 141.141 527.321 140.628C527.028 140.114 526.881 139.55 526.881 138.934C526.881 138.186 527.072 137.555 527.453 137.042C527.849 136.528 528.399 136.14 529.103 135.876C529.822 135.597 530.665 135.458 531.633 135.458H534.581C534.581 134.783 534.471 134.226 534.251 133.786C534.031 133.331 533.716 132.986 533.305 132.752C532.895 132.517 532.403 132.4 531.831 132.4C531.113 132.4 530.489 132.583 529.961 132.95C529.448 133.302 529.133 133.822 529.015 134.512H527.123C527.211 133.72 527.475 133.052 527.915 132.51C528.37 131.967 528.942 131.556 529.631 131.278C530.335 130.984 531.069 130.838 531.831 130.838C532.843 130.838 533.687 131.028 534.361 131.41C535.051 131.776 535.564 132.297 535.901 132.972C536.253 133.632 536.429 134.416 536.429 135.326V142.058H534.779L534.669 140.1C534.523 140.408 534.332 140.701 534.097 140.98C533.877 141.244 533.613 141.478 533.305 141.684C533.012 141.874 532.667 142.028 532.271 142.146C531.875 142.263 531.428 142.322 530.929 142.322ZM531.215 140.76C531.743 140.76 532.213 140.657 532.623 140.452C533.049 140.232 533.408 139.938 533.701 139.572C533.995 139.205 534.215 138.794 534.361 138.34C534.508 137.885 534.581 137.416 534.581 136.932V136.888H531.787C531.069 136.888 530.489 136.976 530.049 137.152C529.609 137.313 529.294 137.54 529.103 137.834C528.913 138.127 528.817 138.464 528.817 138.846C528.817 139.242 528.905 139.586 529.081 139.88C529.272 140.158 529.543 140.378 529.895 140.54C530.262 140.686 530.702 140.76 531.215 140.76ZM539.223 142.058V131.102H540.895L541.049 133.214C541.284 132.715 541.592 132.29 541.973 131.938C542.354 131.586 542.809 131.314 543.337 131.124C543.88 130.933 544.488 130.838 545.163 130.838V132.774H544.635C544.151 132.774 543.689 132.84 543.249 132.972C542.824 133.089 542.442 133.287 542.105 133.566C541.782 133.844 541.526 134.226 541.335 134.71C541.159 135.194 541.071 135.795 541.071 136.514V142.058H539.223ZM551.417 142.322C550.537 142.322 549.752 142.175 549.063 141.882C548.388 141.574 547.838 141.148 547.413 140.606C547.002 140.048 546.745 139.396 546.643 138.648H548.535C548.623 139.029 548.784 139.381 549.019 139.704C549.268 140.026 549.591 140.283 549.987 140.474C550.397 140.664 550.881 140.76 551.439 140.76C551.967 140.76 552.392 140.686 552.715 140.54C553.052 140.378 553.301 140.173 553.463 139.924C553.624 139.66 553.705 139.381 553.705 139.088C553.705 138.633 553.595 138.296 553.375 138.076C553.169 137.841 552.861 137.658 552.451 137.526C552.04 137.394 551.549 137.269 550.977 137.152C550.537 137.064 550.082 136.946 549.613 136.8C549.158 136.653 548.74 136.47 548.359 136.25C547.992 136.015 547.699 135.729 547.479 135.392C547.259 135.04 547.149 134.607 547.149 134.094C547.149 133.463 547.31 132.906 547.633 132.422C547.955 131.923 548.41 131.534 548.997 131.256C549.598 130.977 550.302 130.838 551.109 130.838C552.282 130.838 553.235 131.124 553.969 131.696C554.702 132.268 555.135 133.096 555.267 134.182H553.441C553.367 133.624 553.125 133.192 552.715 132.884C552.319 132.561 551.776 132.4 551.087 132.4C550.412 132.4 549.899 132.539 549.547 132.818C549.195 133.096 549.019 133.463 549.019 133.918C549.019 134.211 549.121 134.468 549.327 134.688C549.532 134.893 549.825 135.069 550.207 135.216C550.603 135.362 551.065 135.494 551.593 135.612C552.297 135.758 552.949 135.942 553.551 136.162C554.152 136.367 554.643 136.682 555.025 137.108C555.406 137.533 555.597 138.142 555.597 138.934C555.611 139.594 555.443 140.18 555.091 140.694C554.753 141.207 554.269 141.61 553.639 141.904C553.023 142.182 552.282 142.322 551.417 142.322ZM569.031 142.322C568.004 142.322 567.08 142.087 566.259 141.618C565.438 141.148 564.785 140.481 564.301 139.616C563.832 138.75 563.597 137.746 563.597 136.602C563.597 135.428 563.839 134.416 564.323 133.566C564.807 132.7 565.46 132.033 566.281 131.564C567.117 131.08 568.048 130.838 569.075 130.838C570.102 130.838 571.026 131.08 571.847 131.564C572.668 132.033 573.314 132.7 573.783 133.566C574.267 134.416 574.509 135.428 574.509 136.602C574.509 137.746 574.267 138.75 573.783 139.616C573.299 140.481 572.639 141.148 571.803 141.618C570.982 142.087 570.058 142.322 569.031 142.322ZM569.031 140.738C569.662 140.738 570.248 140.584 570.791 140.276C571.334 139.968 571.774 139.506 572.111 138.89C572.448 138.259 572.617 137.489 572.617 136.58C572.617 135.656 572.448 134.893 572.111 134.292C571.788 133.676 571.356 133.214 570.813 132.906C570.27 132.583 569.691 132.422 569.075 132.422C568.459 132.422 567.872 132.583 567.315 132.906C566.772 133.214 566.332 133.676 565.995 134.292C565.658 134.893 565.489 135.656 565.489 136.58C565.489 137.489 565.658 138.259 565.995 138.89C566.332 139.506 566.765 139.968 567.293 140.276C567.836 140.584 568.415 140.738 569.031 140.738ZM577.079 142.058V126.218H578.927V142.058H577.079ZM586.905 142.322C585.82 142.322 584.867 142.072 584.046 141.574C583.239 141.075 582.608 140.393 582.154 139.528C581.714 138.648 581.494 137.658 581.494 136.558C581.494 135.458 581.714 134.482 582.154 133.632C582.608 132.766 583.246 132.084 584.068 131.586C584.889 131.087 585.842 130.838 586.928 130.838C587.822 130.838 588.614 131.021 589.304 131.388C589.993 131.754 590.521 132.268 590.888 132.928V126.218H592.736V142.058H591.064L590.91 140.254C590.675 140.606 590.374 140.943 590.008 141.266C589.641 141.574 589.201 141.83 588.688 142.036C588.174 142.226 587.58 142.322 586.905 142.322ZM587.104 140.716C587.837 140.716 588.482 140.547 589.04 140.21C589.612 139.858 590.052 139.374 590.36 138.758C590.668 138.142 590.822 137.416 590.822 136.58C590.822 135.758 590.668 135.04 590.36 134.424C590.052 133.808 589.612 133.324 589.04 132.972C588.482 132.62 587.837 132.444 587.104 132.444C586.385 132.444 585.74 132.62 585.168 132.972C584.61 133.324 584.17 133.808 583.848 134.424C583.54 135.04 583.386 135.758 583.386 136.58C583.386 137.416 583.54 138.142 583.848 138.758C584.17 139.374 584.61 139.858 585.168 140.21C585.74 140.547 586.385 140.716 587.104 140.716ZM596.429 142.168C596.063 142.168 595.755 142.05 595.505 141.816C595.271 141.566 595.153 141.266 595.153 140.914C595.153 140.562 595.271 140.268 595.505 140.034C595.755 139.784 596.063 139.66 596.429 139.66C596.796 139.66 597.097 139.784 597.331 140.034C597.566 140.268 597.683 140.562 597.683 140.914C597.683 141.266 597.566 141.566 597.331 141.816C597.097 142.05 596.796 142.168 596.429 142.168ZM61.628 174.058V158.658H63.476V172.584H70.648V174.058H61.628ZM73.2746 174.058V163.102H75.1226V174.058H73.2746ZM74.1986 160.704C73.8319 160.704 73.5239 160.586 73.2746 160.352C73.0399 160.102 72.9226 159.794 72.9226 159.428C72.9226 159.061 73.0399 158.768 73.2746 158.548C73.5239 158.313 73.8319 158.196 74.1986 158.196C74.5506 158.196 74.8513 158.313 75.1006 158.548C75.3499 158.768 75.4746 159.061 75.4746 159.428C75.4746 159.794 75.3499 160.102 75.1006 160.352C74.8513 160.586 74.5506 160.704 74.1986 160.704ZM82.6963 179.162C81.6989 179.162 80.8189 179.03 80.0563 178.766C79.2936 178.516 78.6996 178.128 78.2743 177.6C77.8489 177.072 77.6363 176.419 77.6363 175.642C77.6363 175.319 77.7023 174.967 77.8343 174.586C77.9809 174.219 78.2229 173.852 78.5603 173.486C78.9123 173.119 79.4036 172.789 80.0343 172.496L81.2883 173.244C80.5256 173.566 80.0269 173.933 79.7923 174.344C79.5576 174.754 79.4403 175.128 79.4403 175.466C79.4403 175.95 79.5796 176.353 79.8583 176.676C80.1369 176.998 80.5183 177.24 81.0023 177.402C81.5009 177.563 82.0656 177.644 82.6963 177.644C83.3123 177.644 83.8403 177.548 84.2803 177.358C84.7349 177.182 85.0869 176.932 85.3363 176.61C85.5856 176.287 85.7103 175.906 85.7103 175.466C85.7103 174.996 85.5196 174.586 85.1383 174.234C84.7716 173.896 84.0603 173.698 83.0043 173.64C82.1389 173.581 81.4129 173.5 80.8263 173.398C80.2543 173.295 79.7776 173.178 79.3963 173.046C79.0149 172.899 78.6923 172.738 78.4283 172.562C78.1789 172.386 77.9516 172.202 77.7463 172.012V171.506L79.8803 169.372L81.4643 169.944L79.2863 171.946L79.5723 171.176C79.7336 171.293 79.8876 171.403 80.0343 171.506C80.1809 171.608 80.3789 171.696 80.6283 171.77C80.8776 171.843 81.2223 171.909 81.6623 171.968C82.1023 172.026 82.6889 172.085 83.4223 172.144C84.4196 172.217 85.2189 172.393 85.8203 172.672C86.4216 172.95 86.8543 173.324 87.1183 173.794C87.3969 174.248 87.5363 174.784 87.5363 175.4C87.5363 176.03 87.3603 176.632 87.0083 177.204C86.6709 177.776 86.1429 178.245 85.4243 178.612C84.7203 178.978 83.8109 179.162 82.6963 179.162ZM82.6743 170.626C81.7503 170.626 80.9583 170.45 80.2983 170.098C79.6529 169.746 79.1616 169.276 78.8243 168.69C78.4869 168.103 78.3183 167.45 78.3183 166.732C78.3183 166.013 78.4869 165.368 78.8243 164.796C79.1763 164.209 79.6749 163.74 80.3203 163.388C80.9656 163.021 81.7503 162.838 82.6743 162.838C83.5983 162.838 84.3829 163.021 85.0283 163.388C85.6736 163.74 86.1649 164.209 86.5023 164.796C86.8396 165.368 87.0083 166.013 87.0083 166.732C87.0083 167.45 86.8396 168.103 86.5023 168.69C86.1649 169.276 85.6736 169.746 85.0283 170.098C84.3829 170.45 83.5983 170.626 82.6743 170.626ZM82.6743 169.108C83.4516 169.108 84.0676 168.902 84.5223 168.492C84.9916 168.081 85.2263 167.494 85.2263 166.732C85.2263 165.984 84.9916 165.404 84.5223 164.994C84.0676 164.583 83.4516 164.378 82.6743 164.378C81.8969 164.378 81.2663 164.583 80.7823 164.994C80.3129 165.404 80.0783 165.984 80.0783 166.732C80.0783 167.494 80.3129 168.081 80.7823 168.492C81.2516 168.902 81.8823 169.108 82.6743 169.108ZM84.4343 164.664L83.8843 163.102H88.4163V164.488L84.4343 164.664ZM90.5004 174.058V158.218H92.3484V164.972C92.7151 164.312 93.2284 163.791 93.8884 163.41C94.5631 163.028 95.3038 162.838 96.1104 162.838C96.9464 162.838 97.6798 163.014 98.3104 163.366C98.9411 163.703 99.4251 164.231 99.7624 164.95C100.114 165.654 100.29 166.548 100.29 167.634V174.058H98.4644V167.832C98.4644 166.702 98.2298 165.852 97.7604 165.28C97.3058 164.708 96.6238 164.422 95.7144 164.422C95.0838 164.422 94.5118 164.576 93.9984 164.884C93.4851 165.192 93.0818 165.639 92.7884 166.226C92.4951 166.798 92.3484 167.509 92.3484 168.36V174.058H90.5004ZM107.446 174.058C106.786 174.058 106.214 173.955 105.73 173.75C105.246 173.544 104.872 173.2 104.608 172.716C104.358 172.217 104.234 171.55 104.234 170.714V164.664H102.32V163.102H104.234L104.476 160.484H106.082V163.102H109.294V164.664H106.082V170.714C106.082 171.403 106.221 171.872 106.5 172.122C106.778 172.356 107.27 172.474 107.974 172.474H109.118V174.058H107.446ZM115.821 174.322C114.941 174.322 114.156 174.175 113.467 173.882C112.792 173.574 112.242 173.148 111.817 172.606C111.406 172.048 111.15 171.396 111.047 170.648H112.939C113.027 171.029 113.188 171.381 113.423 171.704C113.672 172.026 113.995 172.283 114.391 172.474C114.802 172.664 115.286 172.76 115.843 172.76C116.371 172.76 116.796 172.686 117.119 172.54C117.456 172.378 117.706 172.173 117.867 171.924C118.028 171.66 118.109 171.381 118.109 171.088C118.109 170.633 117.999 170.296 117.779 170.076C117.574 169.841 117.266 169.658 116.855 169.526C116.444 169.394 115.953 169.269 115.381 169.152C114.941 169.064 114.486 168.946 114.017 168.8C113.562 168.653 113.144 168.47 112.763 168.25C112.396 168.015 112.103 167.729 111.883 167.392C111.663 167.04 111.553 166.607 111.553 166.094C111.553 165.463 111.714 164.906 112.037 164.422C112.36 163.923 112.814 163.534 113.401 163.256C114.002 162.977 114.706 162.838 115.513 162.838C116.686 162.838 117.64 163.124 118.373 163.696C119.106 164.268 119.539 165.096 119.671 166.182H117.845C117.772 165.624 117.53 165.192 117.119 164.884C116.723 164.561 116.18 164.4 115.491 164.4C114.816 164.4 114.303 164.539 113.951 164.818C113.599 165.096 113.423 165.463 113.423 165.918C113.423 166.211 113.526 166.468 113.731 166.688C113.936 166.893 114.23 167.069 114.611 167.216C115.007 167.362 115.469 167.494 115.997 167.612C116.701 167.758 117.354 167.942 117.955 168.162C118.556 168.367 119.048 168.682 119.429 169.108C119.81 169.533 120.001 170.142 120.001 170.934C120.016 171.594 119.847 172.18 119.495 172.694C119.158 173.207 118.674 173.61 118.043 173.904C117.427 174.182 116.686 174.322 115.821 174.322ZM132.093 174.322C131.184 174.322 130.429 174.168 129.827 173.86C129.226 173.552 128.779 173.141 128.485 172.628C128.192 172.114 128.045 171.55 128.045 170.934C128.045 170.186 128.236 169.555 128.617 169.042C129.013 168.528 129.563 168.14 130.267 167.876C130.986 167.597 131.829 167.458 132.797 167.458H135.745C135.745 166.783 135.635 166.226 135.415 165.786C135.195 165.331 134.88 164.986 134.469 164.752C134.059 164.517 133.567 164.4 132.995 164.4C132.277 164.4 131.653 164.583 131.125 164.95C130.612 165.302 130.297 165.822 130.179 166.512H128.287C128.375 165.72 128.639 165.052 129.079 164.51C129.534 163.967 130.106 163.556 130.795 163.278C131.499 162.984 132.233 162.838 132.995 162.838C134.007 162.838 134.851 163.028 135.525 163.41C136.215 163.776 136.728 164.297 137.065 164.972C137.417 165.632 137.593 166.416 137.593 167.326V174.058H135.943L135.833 172.1C135.687 172.408 135.496 172.701 135.261 172.98C135.041 173.244 134.777 173.478 134.469 173.684C134.176 173.874 133.831 174.028 133.435 174.146C133.039 174.263 132.592 174.322 132.093 174.322ZM132.379 172.76C132.907 172.76 133.377 172.657 133.787 172.452C134.213 172.232 134.572 171.938 134.865 171.572C135.159 171.205 135.379 170.794 135.525 170.34C135.672 169.885 135.745 169.416 135.745 168.932V168.888H132.951C132.233 168.888 131.653 168.976 131.213 169.152C130.773 169.313 130.458 169.54 130.267 169.834C130.077 170.127 129.981 170.464 129.981 170.846C129.981 171.242 130.069 171.586 130.245 171.88C130.436 172.158 130.707 172.378 131.059 172.54C131.426 172.686 131.866 172.76 132.379 172.76ZM140.387 174.058V163.102H142.059L142.169 165.06C142.521 164.37 143.027 163.828 143.687 163.432C144.347 163.036 145.095 162.838 145.931 162.838C146.796 162.838 147.544 163.014 148.175 163.366C148.806 163.703 149.297 164.231 149.649 164.95C150.001 165.654 150.177 166.548 150.177 167.634V174.058H148.329V167.832C148.329 166.702 148.087 165.852 147.603 165.28C147.119 164.708 146.422 164.422 145.513 164.422C144.882 164.422 144.318 164.576 143.819 164.884C143.335 165.192 142.946 165.639 142.653 166.226C142.374 166.798 142.235 167.509 142.235 168.36V174.058H140.387ZM157.927 174.322C156.842 174.322 155.888 174.072 155.067 173.574C154.26 173.075 153.63 172.393 153.175 171.528C152.735 170.648 152.515 169.658 152.515 168.558C152.515 167.458 152.735 166.482 153.175 165.632C153.63 164.766 154.268 164.084 155.089 163.586C155.91 163.087 156.864 162.838 157.949 162.838C158.844 162.838 159.636 163.021 160.325 163.388C161.014 163.754 161.542 164.268 161.909 164.928V158.218H163.757V174.058H162.085L161.931 172.254C161.696 172.606 161.396 172.943 161.029 173.266C160.662 173.574 160.222 173.83 159.709 174.036C159.196 174.226 158.602 174.322 157.927 174.322ZM158.125 172.716C158.858 172.716 159.504 172.547 160.061 172.21C160.633 171.858 161.073 171.374 161.381 170.758C161.689 170.142 161.843 169.416 161.843 168.58C161.843 167.758 161.689 167.04 161.381 166.424C161.073 165.808 160.633 165.324 160.061 164.972C159.504 164.62 158.858 164.444 158.125 164.444C157.406 164.444 156.761 164.62 156.189 164.972C155.632 165.324 155.192 165.808 154.869 166.424C154.561 167.04 154.407 167.758 154.407 168.58C154.407 169.416 154.561 170.142 154.869 170.758C155.192 171.374 155.632 171.858 156.189 172.21C156.761 172.547 157.406 172.716 158.125 172.716ZM172.635 174.058V163.102H174.307L174.461 165.214C174.696 164.715 175.004 164.29 175.385 163.938C175.767 163.586 176.221 163.314 176.749 163.124C177.292 162.933 177.901 162.838 178.575 162.838V164.774H178.047C177.563 164.774 177.101 164.84 176.661 164.972C176.236 165.089 175.855 165.287 175.517 165.566C175.195 165.844 174.938 166.226 174.747 166.71C174.571 167.194 174.483 167.795 174.483 168.514V174.058H172.635ZM185.147 174.322C184.105 174.322 183.181 174.087 182.375 173.618C181.568 173.134 180.93 172.459 180.461 171.594C180.006 170.728 179.779 169.724 179.779 168.58C179.779 167.421 180.006 166.416 180.461 165.566C180.915 164.715 181.546 164.048 182.353 163.564C183.174 163.08 184.12 162.838 185.191 162.838C186.261 162.838 187.178 163.08 187.941 163.564C188.703 164.048 189.29 164.678 189.701 165.456C190.111 166.218 190.317 167.054 190.317 167.964C190.317 168.11 190.317 168.272 190.317 168.448C190.317 168.609 190.309 168.792 190.295 168.998H181.165V167.568H188.491C188.447 166.585 188.109 165.815 187.479 165.258C186.863 164.686 186.085 164.4 185.147 164.4C184.516 164.4 183.929 164.546 183.387 164.84C182.844 165.118 182.404 165.529 182.067 166.072C181.744 166.6 181.583 167.267 181.583 168.074V168.69C181.583 169.584 181.751 170.34 182.089 170.956C182.426 171.557 182.866 172.012 183.409 172.32C183.951 172.613 184.531 172.76 185.147 172.76C185.909 172.76 186.547 172.584 187.061 172.232C187.574 171.88 187.948 171.403 188.183 170.802H190.009C189.818 171.476 189.503 172.078 189.063 172.606C188.623 173.134 188.073 173.552 187.413 173.86C186.767 174.168 186.012 174.322 185.147 174.322ZM193.36 174.058V161.254C193.36 160.55 193.477 159.978 193.712 159.538C193.947 159.083 194.291 158.753 194.746 158.548C195.215 158.328 195.787 158.218 196.462 158.218H197.606V159.802H196.748C196.205 159.802 195.809 159.912 195.56 160.132C195.325 160.352 195.208 160.74 195.208 161.298V174.058H193.36ZM191.71 164.664V163.102H197.914V164.664H191.71ZM200.114 174.058V158.218H201.962V174.058H200.114ZM209.918 174.322C208.877 174.322 207.953 174.087 207.146 173.618C206.339 173.134 205.701 172.459 205.232 171.594C204.777 170.728 204.55 169.724 204.55 168.58C204.55 167.421 204.777 166.416 205.232 165.566C205.687 164.715 206.317 164.048 207.124 163.564C207.945 163.08 208.891 162.838 209.962 162.838C211.033 162.838 211.949 163.08 212.712 163.564C213.475 164.048 214.061 164.678 214.472 165.456C214.883 166.218 215.088 167.054 215.088 167.964C215.088 168.11 215.088 168.272 215.088 168.448C215.088 168.609 215.081 168.792 215.066 168.998H205.936V167.568H213.262C213.218 166.585 212.881 165.815 212.25 165.258C211.634 164.686 210.857 164.4 209.918 164.4C209.287 164.4 208.701 164.546 208.158 164.84C207.615 165.118 207.175 165.529 206.838 166.072C206.515 166.6 206.354 167.267 206.354 168.074V168.69C206.354 169.584 206.523 170.34 206.86 170.956C207.197 171.557 207.637 172.012 208.18 172.32C208.723 172.613 209.302 172.76 209.918 172.76C210.681 172.76 211.319 172.584 211.832 172.232C212.345 171.88 212.719 171.403 212.954 170.802H214.78C214.589 171.476 214.274 172.078 213.834 172.606C213.394 173.134 212.844 173.552 212.184 173.86C211.539 174.168 210.783 174.322 209.918 174.322ZM222.554 174.322C221.512 174.322 220.574 174.087 219.738 173.618C218.916 173.134 218.264 172.459 217.78 171.594C217.31 170.728 217.076 169.731 217.076 168.602C217.076 167.443 217.31 166.438 217.78 165.588C218.264 164.722 218.916 164.048 219.738 163.564C220.574 163.08 221.512 162.838 222.554 162.838C223.859 162.838 224.952 163.182 225.832 163.872C226.712 164.546 227.269 165.448 227.504 166.578H225.612C225.465 165.903 225.106 165.375 224.534 164.994C223.962 164.612 223.294 164.422 222.532 164.422C221.916 164.422 221.336 164.583 220.794 164.906C220.251 165.214 219.811 165.676 219.474 166.292C219.136 166.908 218.968 167.67 218.968 168.58C218.968 169.269 219.063 169.878 219.254 170.406C219.459 170.919 219.723 171.352 220.046 171.704C220.383 172.056 220.764 172.32 221.19 172.496C221.63 172.672 222.077 172.76 222.532 172.76C223.045 172.76 223.514 172.679 223.94 172.518C224.365 172.342 224.724 172.092 225.018 171.77C225.311 171.447 225.509 171.058 225.612 170.604H227.504C227.269 171.704 226.712 172.598 225.832 173.288C224.952 173.977 223.859 174.322 222.554 174.322ZM234.118 174.058C233.458 174.058 232.886 173.955 232.402 173.75C231.918 173.544 231.544 173.2 231.28 172.716C231.03 172.217 230.906 171.55 230.906 170.714V164.664H228.992V163.102H230.906L231.148 160.484H232.754V163.102H235.966V164.664H232.754V170.714C232.754 171.403 232.893 171.872 233.172 172.122C233.45 172.356 233.942 172.474 234.646 172.474H235.79V174.058H234.118ZM242.984 174.322C241.957 174.322 241.033 174.087 240.212 173.618C239.391 173.148 238.738 172.481 238.254 171.616C237.785 170.75 237.55 169.746 237.55 168.602C237.55 167.428 237.792 166.416 238.276 165.566C238.76 164.7 239.413 164.033 240.234 163.564C241.07 163.08 242.001 162.838 243.028 162.838C244.055 162.838 244.979 163.08 245.8 163.564C246.621 164.033 247.267 164.7 247.736 165.566C248.22 166.416 248.462 167.428 248.462 168.602C248.462 169.746 248.22 170.75 247.736 171.616C247.252 172.481 246.592 173.148 245.756 173.618C244.935 174.087 244.011 174.322 242.984 174.322ZM242.984 172.738C243.615 172.738 244.201 172.584 244.744 172.276C245.287 171.968 245.727 171.506 246.064 170.89C246.401 170.259 246.57 169.489 246.57 168.58C246.57 167.656 246.401 166.893 246.064 166.292C245.741 165.676 245.309 165.214 244.766 164.906C244.223 164.583 243.644 164.422 243.028 164.422C242.412 164.422 241.825 164.583 241.268 164.906C240.725 165.214 240.285 165.676 239.948 166.292C239.611 166.893 239.442 167.656 239.442 168.58C239.442 169.489 239.611 170.259 239.948 170.89C240.285 171.506 240.718 171.968 241.246 172.276C241.789 172.584 242.368 172.738 242.984 172.738ZM251.032 174.058V163.102H252.704L252.858 165.214C253.092 164.715 253.4 164.29 253.782 163.938C254.163 163.586 254.618 163.314 255.146 163.124C255.688 162.933 256.297 162.838 256.972 162.838V164.774H256.444C255.96 164.774 255.498 164.84 255.058 164.972C254.632 165.089 254.251 165.287 253.914 165.566C253.591 165.844 253.334 166.226 253.144 166.71C252.968 167.194 252.88 167.795 252.88 168.514V174.058H251.032ZM263.225 174.322C262.345 174.322 261.561 174.175 260.871 173.882C260.197 173.574 259.647 173.148 259.221 172.606C258.811 172.048 258.554 171.396 258.451 170.648H260.343C260.431 171.029 260.593 171.381 260.827 171.704C261.077 172.026 261.399 172.283 261.795 172.474C262.206 172.664 262.69 172.76 263.247 172.76C263.775 172.76 264.201 172.686 264.523 172.54C264.861 172.378 265.11 172.173 265.271 171.924C265.433 171.66 265.513 171.381 265.513 171.088C265.513 170.633 265.403 170.296 265.183 170.076C264.978 169.841 264.67 169.658 264.259 169.526C263.849 169.394 263.357 169.269 262.785 169.152C262.345 169.064 261.891 168.946 261.421 168.8C260.967 168.653 260.549 168.47 260.167 168.25C259.801 168.015 259.507 167.729 259.287 167.392C259.067 167.04 258.957 166.607 258.957 166.094C258.957 165.463 259.119 164.906 259.441 164.422C259.764 163.923 260.219 163.534 260.805 163.256C261.407 162.977 262.111 162.838 262.917 162.838C264.091 162.838 265.044 163.124 265.777 163.696C266.511 164.268 266.943 165.096 267.075 166.182H265.249C265.176 165.624 264.934 165.192 264.523 164.884C264.127 164.561 263.585 164.4 262.895 164.4C262.221 164.4 261.707 164.539 261.355 164.818C261.003 165.096 260.827 165.463 260.827 165.918C260.827 166.211 260.93 166.468 261.135 166.688C261.341 166.893 261.634 167.069 262.015 167.216C262.411 167.362 262.873 167.494 263.401 167.612C264.105 167.758 264.758 167.942 265.359 168.162C265.961 168.367 266.452 168.682 266.833 169.108C267.215 169.533 267.405 170.142 267.405 170.934C267.42 171.594 267.251 172.18 266.899 172.694C266.562 173.207 266.078 173.61 265.447 173.904C264.831 174.182 264.091 174.322 263.225 174.322ZM279.498 174.322C278.588 174.322 277.833 174.168 277.232 173.86C276.63 173.552 276.183 173.141 275.89 172.628C275.596 172.114 275.45 171.55 275.45 170.934C275.45 170.186 275.64 169.555 276.022 169.042C276.418 168.528 276.968 168.14 277.672 167.876C278.39 167.597 279.234 167.458 280.202 167.458H283.15C283.15 166.783 283.04 166.226 282.82 165.786C282.6 165.331 282.284 164.986 281.874 164.752C281.463 164.517 280.972 164.4 280.4 164.4C279.681 164.4 279.058 164.583 278.53 164.95C278.016 165.302 277.701 165.822 277.584 166.512H275.692C275.78 165.72 276.044 165.052 276.484 164.51C276.938 163.967 277.51 163.556 278.2 163.278C278.904 162.984 279.637 162.838 280.4 162.838C281.412 162.838 282.255 163.028 282.93 163.41C283.619 163.776 284.132 164.297 284.47 164.972C284.822 165.632 284.998 166.416 284.998 167.326V174.058H283.348L283.238 172.1C283.091 172.408 282.9 172.701 282.666 172.98C282.446 173.244 282.182 173.478 281.874 173.684C281.58 173.874 281.236 174.028 280.84 174.146C280.444 174.263 279.996 174.322 279.498 174.322ZM279.784 172.76C280.312 172.76 280.781 172.657 281.192 172.452C281.617 172.232 281.976 171.938 282.27 171.572C282.563 171.205 282.783 170.794 282.93 170.34C283.076 169.885 283.15 169.416 283.15 168.932V168.888H280.356C279.637 168.888 279.058 168.976 278.618 169.152C278.178 169.313 277.862 169.54 277.672 169.834C277.481 170.127 277.386 170.464 277.386 170.846C277.386 171.242 277.474 171.586 277.65 171.88C277.84 172.158 278.112 172.378 278.464 172.54C278.83 172.686 279.27 172.76 279.784 172.76ZM287.791 174.058V163.102H289.463L289.617 165.214C289.852 164.715 290.16 164.29 290.541 163.938C290.923 163.586 291.377 163.314 291.905 163.124C292.448 162.933 293.057 162.838 293.731 162.838V164.774H293.203C292.719 164.774 292.257 164.84 291.817 164.972C291.392 165.089 291.011 165.287 290.673 165.566C290.351 165.844 290.094 166.226 289.903 166.71C289.727 167.194 289.639 167.795 289.639 168.514V174.058H287.791ZM300.303 174.322C299.262 174.322 298.338 174.087 297.531 173.618C296.724 173.134 296.086 172.459 295.617 171.594C295.162 170.728 294.935 169.724 294.935 168.58C294.935 167.421 295.162 166.416 295.617 165.566C296.072 164.715 296.702 164.048 297.509 163.564C298.33 163.08 299.276 162.838 300.347 162.838C301.418 162.838 302.334 163.08 303.097 163.564C303.86 164.048 304.446 164.678 304.857 165.456C305.268 166.218 305.473 167.054 305.473 167.964C305.473 168.11 305.473 168.272 305.473 168.448C305.473 168.609 305.466 168.792 305.451 168.998H296.321V167.568H303.647C303.603 166.585 303.266 165.815 302.635 165.258C302.019 164.686 301.242 164.4 300.303 164.4C299.672 164.4 299.086 164.546 298.543 164.84C298 165.118 297.56 165.529 297.223 166.072C296.9 166.6 296.739 167.267 296.739 168.074V168.69C296.739 169.584 296.908 170.34 297.245 170.956C297.582 171.557 298.022 172.012 298.565 172.32C299.108 172.613 299.687 172.76 300.303 172.76C301.066 172.76 301.704 172.584 302.217 172.232C302.73 171.88 303.104 171.403 303.339 170.802H305.165C304.974 171.476 304.659 172.078 304.219 172.606C303.779 173.134 303.229 173.552 302.569 173.86C301.924 174.168 301.168 174.322 300.303 174.322ZM313.679 174.058V162.97H316.319L316.605 165.016C316.869 164.532 317.199 164.121 317.595 163.784C318.005 163.446 318.467 163.182 318.981 162.992C319.509 162.801 320.088 162.706 320.719 162.706V165.852H319.707C319.267 165.852 318.856 165.903 318.475 166.006C318.108 166.108 317.785 166.277 317.507 166.512C317.228 166.732 317.015 167.04 316.869 167.436C316.722 167.832 316.649 168.33 316.649 168.932V174.058H313.679ZM327.833 174.322C326.718 174.322 325.728 174.087 324.863 173.618C324.012 173.134 323.345 172.466 322.861 171.616C322.391 170.75 322.157 169.753 322.157 168.624C322.157 167.465 322.391 166.446 322.861 165.566C323.345 164.671 324.012 163.974 324.863 163.476C325.713 162.962 326.703 162.706 327.833 162.706C328.933 162.706 329.893 162.948 330.715 163.432C331.536 163.916 332.174 164.568 332.629 165.39C333.083 166.211 333.311 167.142 333.311 168.184C333.311 168.33 333.311 168.499 333.311 168.69C333.311 168.866 333.296 169.049 333.267 169.24H324.269V167.436H330.319C330.275 166.717 330.018 166.152 329.549 165.742C329.094 165.331 328.522 165.126 327.833 165.126C327.334 165.126 326.872 165.243 326.447 165.478C326.021 165.698 325.684 166.042 325.435 166.512C325.2 166.981 325.083 167.575 325.083 168.294V168.932C325.083 169.533 325.193 170.061 325.413 170.516C325.647 170.956 325.97 171.3 326.381 171.55C326.791 171.784 327.268 171.902 327.811 171.902C328.353 171.902 328.801 171.784 329.153 171.55C329.519 171.315 329.791 171.014 329.967 170.648H333.003C332.797 171.337 332.453 171.96 331.969 172.518C331.485 173.075 330.891 173.515 330.187 173.838C329.483 174.16 328.698 174.322 327.833 174.322ZM344.279 178.898V172.518C343.927 173.046 343.458 173.478 342.871 173.816C342.299 174.153 341.588 174.322 340.737 174.322C339.71 174.322 338.794 174.072 337.987 173.574C337.18 173.06 336.542 172.364 336.073 171.484C335.618 170.604 335.391 169.614 335.391 168.514C335.391 167.399 335.626 166.409 336.095 165.544C336.564 164.664 337.202 163.974 338.009 163.476C338.816 162.962 339.725 162.706 340.737 162.706C341.294 162.706 341.793 162.779 342.233 162.926C342.673 163.058 343.062 163.256 343.399 163.52C343.751 163.769 344.044 164.07 344.279 164.422L344.609 162.97H347.249V178.898H344.279ZM341.375 171.726C341.962 171.726 342.475 171.594 342.915 171.33C343.37 171.051 343.722 170.67 343.971 170.186C344.22 169.702 344.345 169.144 344.345 168.514C344.345 167.883 344.22 167.326 343.971 166.842C343.722 166.358 343.37 165.984 342.915 165.72C342.475 165.441 341.962 165.302 341.375 165.302C340.818 165.302 340.312 165.441 339.857 165.72C339.402 165.984 339.043 166.358 338.779 166.842C338.53 167.326 338.405 167.876 338.405 168.492C338.405 169.137 338.53 169.702 338.779 170.186C339.043 170.67 339.395 171.051 339.835 171.33C340.29 171.594 340.803 171.726 341.375 171.726ZM354.295 174.322C353.4 174.322 352.63 174.138 351.985 173.772C351.354 173.39 350.87 172.84 350.533 172.122C350.196 171.388 350.027 170.486 350.027 169.416V162.97H352.997V169.108C352.997 170.002 353.18 170.677 353.547 171.132C353.928 171.586 354.508 171.814 355.285 171.814C355.784 171.814 356.224 171.704 356.605 171.484C356.986 171.249 357.287 170.919 357.507 170.494C357.742 170.054 357.859 169.518 357.859 168.888V162.97H360.807V174.058H358.211L357.969 172.254C357.646 172.884 357.17 173.39 356.539 173.772C355.908 174.138 355.16 174.322 354.295 174.322ZM363.782 174.058V162.97H366.752V174.058H363.782ZM365.278 161.452C364.75 161.452 364.31 161.298 363.958 160.99C363.62 160.667 363.452 160.264 363.452 159.78C363.452 159.296 363.62 158.9 363.958 158.592C364.31 158.269 364.75 158.108 365.278 158.108C365.82 158.108 366.26 158.269 366.598 158.592C366.95 158.9 367.126 159.296 367.126 159.78C367.126 160.264 366.95 160.667 366.598 160.99C366.26 161.298 365.82 161.452 365.278 161.452ZM369.753 174.058V162.97H372.393L372.679 165.016C372.943 164.532 373.273 164.121 373.669 163.784C374.079 163.446 374.541 163.182 375.055 162.992C375.583 162.801 376.162 162.706 376.793 162.706V165.852H375.781C375.341 165.852 374.93 165.903 374.549 166.006C374.182 166.108 373.859 166.277 373.581 166.512C373.302 166.732 373.089 167.04 372.943 167.436C372.796 167.832 372.723 168.33 372.723 168.932V174.058H369.753ZM383.907 174.322C382.792 174.322 381.802 174.087 380.937 173.618C380.086 173.134 379.419 172.466 378.935 171.616C378.466 170.75 378.231 169.753 378.231 168.624C378.231 167.465 378.466 166.446 378.935 165.566C379.419 164.671 380.086 163.974 380.937 163.476C381.788 162.962 382.778 162.706 383.907 162.706C385.007 162.706 385.968 162.948 386.789 163.432C387.61 163.916 388.248 164.568 388.703 165.39C389.158 166.211 389.385 167.142 389.385 168.184C389.385 168.33 389.385 168.499 389.385 168.69C389.385 168.866 389.37 169.049 389.341 169.24H380.343V167.436H386.393C386.349 166.717 386.092 166.152 385.623 165.742C385.168 165.331 384.596 165.126 383.907 165.126C383.408 165.126 382.946 165.243 382.521 165.478C382.096 165.698 381.758 166.042 381.509 166.512C381.274 166.981 381.157 167.575 381.157 168.294V168.932C381.157 169.533 381.267 170.061 381.487 170.516C381.722 170.956 382.044 171.3 382.455 171.55C382.866 171.784 383.342 171.902 383.885 171.902C384.428 171.902 384.875 171.784 385.227 171.55C385.594 171.315 385.865 171.014 386.041 170.648H389.077C388.872 171.337 388.527 171.96 388.043 172.518C387.559 173.075 386.965 173.515 386.261 173.838C385.557 174.16 384.772 174.322 383.907 174.322ZM396.745 174.322C395.733 174.322 394.824 174.072 394.017 173.574C393.225 173.075 392.602 172.386 392.147 171.506C391.693 170.626 391.465 169.636 391.465 168.536C391.465 167.406 391.693 166.409 392.147 165.544C392.617 164.664 393.255 163.974 394.061 163.476C394.883 162.962 395.799 162.706 396.811 162.706C397.603 162.706 398.3 162.852 398.901 163.146C399.503 163.439 399.987 163.857 400.353 164.4V158.218H403.323V174.058H400.683L400.353 172.54C400.133 172.848 399.855 173.141 399.517 173.42C399.195 173.698 398.806 173.918 398.351 174.08C397.897 174.241 397.361 174.322 396.745 174.322ZM397.449 171.726C398.036 171.726 398.549 171.594 398.989 171.33C399.444 171.051 399.796 170.67 400.045 170.186C400.295 169.702 400.419 169.144 400.419 168.514C400.419 167.883 400.295 167.326 400.045 166.842C399.796 166.358 399.444 165.984 398.989 165.72C398.549 165.441 398.036 165.302 397.449 165.302C396.892 165.302 396.386 165.441 395.931 165.72C395.477 165.984 395.117 166.358 394.853 166.842C394.604 167.326 394.479 167.876 394.479 168.492C394.479 169.137 394.604 169.702 394.853 170.186C395.117 170.67 395.469 171.051 395.909 171.33C396.364 171.594 396.877 171.726 397.449 171.726ZM417.967 174.322C417.395 174.322 416.882 174.248 416.427 174.102C415.987 173.955 415.591 173.757 415.239 173.508C414.902 173.244 414.616 172.95 414.381 172.628L414.051 174.058H411.411V158.218H414.381V164.51C414.733 163.996 415.195 163.571 415.767 163.234C416.354 162.882 417.08 162.706 417.945 162.706C418.972 162.706 419.881 162.962 420.673 163.476C421.48 163.974 422.11 164.664 422.565 165.544C423.034 166.409 423.269 167.406 423.269 168.536C423.269 169.636 423.034 170.626 422.565 171.506C422.11 172.386 421.487 173.075 420.695 173.574C419.903 174.072 418.994 174.322 417.967 174.322ZM417.263 171.726C417.85 171.726 418.363 171.594 418.803 171.33C419.258 171.051 419.61 170.677 419.859 170.208C420.108 169.724 420.233 169.166 420.233 168.536C420.233 167.905 420.108 167.348 419.859 166.864C419.61 166.365 419.258 165.984 418.803 165.72C418.363 165.441 417.85 165.302 417.263 165.302C416.691 165.302 416.178 165.441 415.723 165.72C415.283 165.984 414.931 166.358 414.667 166.842C414.418 167.326 414.293 167.883 414.293 168.514C414.293 169.144 414.418 169.709 414.667 170.208C414.931 170.692 415.283 171.066 415.723 171.33C416.178 171.594 416.691 171.726 417.263 171.726ZM426.225 178.898L428.909 172.826H428.249L423.805 162.97H427.039L430.207 170.12L433.067 162.97H436.213L429.371 178.898H426.225ZM443.272 174.058V158.218H446.242V174.058H443.272ZM452.878 174.322C451.954 174.322 451.191 174.175 450.59 173.882C449.988 173.574 449.541 173.17 449.248 172.672C448.969 172.158 448.83 171.594 448.83 170.978C448.83 170.303 448.998 169.709 449.336 169.196C449.688 168.682 450.208 168.279 450.898 167.986C451.602 167.692 452.482 167.546 453.538 167.546H456.288C456.288 167.003 456.214 166.556 456.068 166.204C455.921 165.837 455.694 165.566 455.386 165.39C455.078 165.214 454.667 165.126 454.154 165.126C453.596 165.126 453.12 165.25 452.724 165.5C452.342 165.734 452.108 166.101 452.02 166.6H449.138C449.211 165.808 449.468 165.126 449.908 164.554C450.362 163.967 450.956 163.512 451.69 163.19C452.438 162.867 453.266 162.706 454.176 162.706C455.217 162.706 456.119 162.882 456.882 163.234C457.644 163.586 458.231 164.092 458.642 164.752C459.052 165.412 459.258 166.226 459.258 167.194V174.058H456.75L456.42 172.364C456.258 172.657 456.068 172.921 455.848 173.156C455.628 173.39 455.371 173.596 455.078 173.772C454.784 173.948 454.454 174.08 454.088 174.168C453.721 174.27 453.318 174.322 452.878 174.322ZM453.582 172.034C453.963 172.034 454.3 171.968 454.594 171.836C454.902 171.689 455.166 171.498 455.386 171.264C455.606 171.014 455.774 170.736 455.892 170.428C456.024 170.105 456.112 169.76 456.156 169.394V169.372H453.89C453.435 169.372 453.061 169.43 452.768 169.548C452.489 169.65 452.284 169.804 452.152 170.01C452.02 170.215 451.954 170.45 451.954 170.714C451.954 171.007 452.02 171.249 452.152 171.44C452.284 171.63 452.474 171.777 452.724 171.88C452.973 171.982 453.259 172.034 453.582 172.034ZM464.12 174.058L460.864 162.97H463.79L465.946 171.968L465.396 171.946L467.86 162.97H471.16L473.624 171.946L473.052 171.968L475.23 162.97H478.156L474.9 174.058H471.82L469.202 164.818H469.818L467.2 174.058H464.12ZM481.009 174.168C480.452 174.168 480.004 174.006 479.667 173.684C479.33 173.346 479.161 172.936 479.161 172.452C479.161 171.968 479.33 171.564 479.667 171.242C480.004 170.904 480.452 170.736 481.009 170.736C481.537 170.736 481.97 170.904 482.307 171.242C482.644 171.564 482.813 171.968 482.813 172.452C482.813 172.936 482.644 173.346 482.307 173.684C481.97 174.006 481.537 174.168 481.009 174.168Z" fill="#1C3A29"/>
</g>
<path opacity="0.2" d="M784.377 298.115C822.433 298.115 853.283 291.79 853.283 283.988C853.283 276.185 822.433 269.86 784.377 269.86C746.321 269.86 715.471 276.185 715.471 283.988C715.471 291.79 746.321 298.115 784.377 298.115Z" fill="#3D3D60"/>
<path d="M778.594 273.378V236.392C778.594 231.283 774.451 227.142 769.342 227.142H769.328C764.218 227.142 760.076 231.283 760.076 236.392V273.378C760.076 278.487 764.218 282.628 769.328 282.628H769.342C774.451 282.628 778.594 278.487 778.594 273.378Z" fill="#171759"/>
<path d="M755.853 282.628H769.342C774.451 282.628 778.594 278.487 778.594 273.378V273.365C778.594 268.256 774.451 264.115 769.342 264.115H755.853C750.743 264.115 746.601 268.256 746.601 273.365V273.378C746.601 278.487 750.743 282.628 755.853 282.628Z" fill="#171759"/>
<path d="M825.787 265.671L807.294 233.64C804.74 229.216 799.082 227.701 794.656 230.255L794.645 230.262C790.219 232.817 788.703 238.475 791.257 242.899L809.75 274.93C812.304 279.354 817.962 280.87 822.388 278.315L822.4 278.308C826.825 275.753 828.341 270.095 825.787 265.671Z" fill="#171759"/>
<path d="M824.765 255.534L813.084 262.279C808.659 264.834 807.142 270.491 809.696 274.916L809.703 274.927C812.257 279.352 817.915 280.867 822.341 278.312L834.022 271.568C838.448 269.013 839.964 263.355 837.41 258.931L837.403 258.919C834.849 254.495 829.191 252.979 824.765 255.534Z" fill="#171759"/>
<path d="M784.347 250.698C832.139 250.698 870.883 211.964 870.883 164.182C870.883 116.401 832.139 77.667 784.347 77.667C736.555 77.667 697.812 116.401 697.812 164.182C697.812 211.964 736.555 250.698 784.347 250.698Z" fill="#62657A"/>
<path d="M784.347 211.197C810.319 211.197 831.373 190.148 831.373 164.182C831.373 138.216 810.319 117.167 784.347 117.167C758.376 117.167 737.321 138.216 737.321 164.182C737.321 190.148 758.376 211.197 784.347 211.197Z" stroke="#D3D3DD" stroke-width="6.65198" stroke-miterlimit="10"/>
<path d="M784.347 200.076C804.175 200.076 820.249 184.006 820.249 164.183C820.249 144.36 804.175 128.29 784.347 128.29C764.52 128.29 748.446 144.36 748.446 164.183C748.446 184.006 764.52 200.076 784.347 200.076Z" fill="#D3D3DD"/>
<path opacity="0.2" d="M870.883 164.182C870.883 211.962 832.139 250.697 784.347 250.697C759.925 250.697 737.881 240.586 722.151 224.313C735.517 232.757 751.343 237.649 768.316 237.649C816.108 237.649 854.838 198.914 854.838 151.133C854.838 127.769 845.586 106.564 830.512 91.0015C854.77 106.318 870.883 133.371 870.883 164.182Z" fill="#3D3D60"/>
<path d="M862.642 166.765C861.33 206.101 831.005 238.087 792.37 242.008" stroke="#4E4E68" stroke-width="6.71325" stroke-miterlimit="10" stroke-linecap="round"/>
<path d="M850.766 171.901C847.609 199.023 828.216 221.185 802.564 228.426" stroke="#4E4E68" stroke-width="6.71325" stroke-miterlimit="10" stroke-linecap="round"/>
<path d="M706.039 161.599C707.351 122.263 737.676 90.2773 776.311 86.356" stroke="#4E4E68" stroke-width="6.71325" stroke-miterlimit="10" stroke-linecap="round"/>
<path d="M717.915 156.449C721.072 129.328 740.465 107.166 766.116 99.9243" stroke="#4E4E68" stroke-width="6.71325" stroke-miterlimit="10" stroke-linecap="round"/>
<path d="M862.791 229.541C870.882 229.541 877.441 222.983 877.441 214.894C877.441 206.804 870.882 200.247 862.791 200.247C854.699 200.247 848.14 206.804 848.14 214.894C848.14 222.983 854.699 229.541 862.791 229.541Z" fill="#171759"/>
<path d="M755.322 166.953C755.322 163.329 758.257 160.395 761.88 160.395C765.504 160.395 768.438 163.329 768.438 166.953" stroke="#171759" stroke-width="5.36904" stroke-miterlimit="10" stroke-linecap="round"/>
<path d="M801.227 166.953C801.227 165.35 801.8 163.88 802.754 162.748C802.842 162.645 802.916 162.557 803.019 162.469C804.208 161.189 805.897 160.395 807.792 160.395C809.466 160.395 811.008 161.028 812.154 162.072C812.242 162.145 812.33 162.233 812.418 162.322C812.462 162.366 812.506 162.41 812.536 162.454C813.667 163.615 814.342 165.203 814.342 166.953" stroke="#171759" stroke-width="5.36904" stroke-miterlimit="10" stroke-linecap="round"/>
<path d="M711.64 206.501L719.221 208.296C722.965 209.186 722.965 214.511 719.221 215.402L711.64 217.197C710.688 217.427 709.936 218.164 709.721 219.115L707.926 226.696C707.036 230.441 701.711 230.441 700.821 226.696L699.025 219.115C698.795 218.164 698.058 217.412 697.107 217.197L689.526 215.402C685.782 214.511 685.782 209.186 689.526 208.296L697.107 206.501C698.058 206.271 698.81 205.534 699.025 204.583L700.821 197.002C701.711 193.257 707.036 193.257 707.926 197.002L709.721 204.583C709.952 205.534 710.688 206.286 711.64 206.501Z" fill="#FFCD40"/>
<path d="M690.406 228.477L692.838 229.059C695.439 229.671 695.439 233.373 692.838 233.985L690.406 234.566C689.595 234.765 688.952 235.393 688.753 236.219L688.172 238.651C687.56 241.252 683.858 241.252 683.246 238.651L682.664 236.219C682.465 235.408 681.838 234.765 681.012 234.566L678.58 233.985C675.979 233.373 675.979 229.671 678.58 229.059L681.012 228.477C681.823 228.278 682.465 227.651 682.664 226.825L683.246 224.393C683.858 221.792 687.56 221.792 688.172 224.393L688.753 226.825C688.952 227.636 689.58 228.278 690.406 228.477Z" fill="#FFCD40"/>
<path d="M884.617 104.889L887.049 105.47C889.65 106.082 889.65 109.784 887.049 110.396L884.617 110.978C883.806 111.176 883.163 111.804 882.964 112.63L882.383 115.062C881.771 117.663 878.069 117.663 877.457 115.062L876.875 112.63C876.676 111.819 876.049 111.176 875.223 110.978L872.79 110.396C870.19 109.784 870.19 106.082 872.79 105.47L875.223 104.889C876.034 104.69 876.676 104.062 876.875 103.236L877.457 100.804C878.069 98.2028 881.771 98.2028 882.383 100.804L882.964 103.236C883.163 104.047 883.791 104.69 884.617 104.889Z" fill="#FFCD40"/>
<rect x="771.969" y="23.6909" width="19.1689" height="13.1156" fill="white"/>
<path d="M792.357 55.5971C793.29 52.4856 795.225 49.8325 797.14 47.1892C797.645 46.4967 798.151 45.8042 798.637 45.1019C800.562 42.322 801.689 38.9569 801.689 35.3187C801.689 25.8282 794.029 18.1421 784.58 18.1421C775.131 18.1421 767.471 25.8282 767.471 35.309C767.471 38.9472 768.599 42.322 770.524 45.0921C771.01 45.7944 771.515 46.4869 772.021 47.1795C773.945 49.8228 775.88 52.4856 776.803 55.5873H792.357V55.5971ZM776.803 35.309C776.803 36.1673 776.103 36.8696 775.248 36.8696C774.393 36.8696 773.693 36.1673 773.693 35.309C773.693 29.2713 778.563 24.3846 784.58 24.3846C785.436 24.3846 786.136 25.0869 786.136 25.9452C786.136 26.8036 785.436 27.5058 784.58 27.5058C780.284 27.5058 776.803 30.9977 776.803 35.309Z" fill="#FFCD40"/>
<path d="M784.79 67.8613C789.087 67.8613 792.567 64.3694 792.567 60.0582V58.4976H777.013V60.0582C777.013 64.3694 780.493 67.8613 784.79 67.8613Z" fill="#909090"/>
<path d="M784.58 2V14.1067" stroke="#FFCD40" stroke-width="3.08856" stroke-linecap="round"/>
<path d="M773.987 6.53955L777.092 15.072" stroke="#FFCD40" stroke-width="3.08856" stroke-linecap="round"/>
<path d="M794.243 6.53955L791.138 15.072" stroke="#FFCD40" stroke-width="3.08856" stroke-linecap="round"/>
<path d="M801.472 13.6021L797.191 17.8824" stroke="#FFCD40" stroke-width="3.08856" stroke-linecap="round"/>
<path d="M766.924 13.6021L771.205 17.8824" stroke="#FFCD40" stroke-width="3.08856" stroke-linecap="round"/>
<path d="M676.65 160.431C684.742 160.431 691.301 153.873 691.301 145.784C691.301 137.695 684.742 131.137 676.65 131.137C668.559 131.137 662 137.695 662 145.784C662 153.873 668.559 160.431 676.65 160.431Z" fill="#171759"/>
<path d="M794.165 177.042C793.373 181.339 789.505 184.609 784.832 184.609C780.16 184.609 776.292 181.339 775.5 177.042" stroke="#171759" stroke-width="4.96773" stroke-linecap="round" stroke-linejoin="round"/>
<defs>
<filter id="filter0_d_12_243" x="0" y="78.0576" width="641" height="154" filterUnits="userSpaceOnUse" color-interpolation-filters="sRGB">
<feFlood flood-opacity="0" result="BackgroundImageFix"/>
<feColorMatrix in="SourceAlpha" type="matrix" values="0 0 0 0 0 0 0 0 0 0 0 0 0 0 0 0 0 0 127 0" result="hardAlpha"/>
<feOffset dy="5"/>
<feGaussianBlur stdDeviation="5"/>
<feColorMatrix type="matrix" values="0 0 0 0 0 0 0 0 0 0 0 0 0 0 0 0 0 0 0.15 0"/>
<feBlend mode="normal" in2="BackgroundImageFix" result="effect1_dropShadow_12_243"/>
<feBlend mode="normal" in="SourceGraphic" in2="effect1_dropShadow_12_243" result="shape"/>
</filter>
</defs>
</svg>
