<svg width="564" height="548" viewBox="0 0 564 548" fill="none" xmlns="http://www.w3.org/2000/svg">
<mask id="mask0_5233_17953" style="mask-type:alpha" maskUnits="userSpaceOnUse" x="0" y="48" width="564" height="500">
<rect y="48" width="564" height="500" rx="8" fill="#9595A5"/>
</mask>
<g mask="url(#mask0_5233_17953)">
<rect x="-65" y="-102" width="749" height="664.286" rx="8" fill="#9595A5"/>
<g filter="url(#filter0_d_5233_17953)">
<path d="M140.76 429H185.505C212.885 429 235.116 451.231 235.116 478.611V651.05C235.116 671.568 218.457 688.237 197.929 688.237H128.326C107.808 688.237 91.1392 671.578 91.1392 651.05V478.611C91.1486 451.231 113.38 429 140.76 429Z" fill="#272727"/>
<path d="M250.177 531.582C251.736 527.969 248.117 522.933 242.094 520.334C236.071 517.735 229.924 518.557 228.365 522.17C226.806 525.783 230.425 530.819 236.449 533.418C242.472 536.017 248.618 535.195 250.177 531.582Z" fill="#272727"/>
<path d="M89.5517 535.845C95.575 533.246 99.194 528.21 97.635 524.597C96.076 520.984 89.9293 520.162 83.9061 522.761C77.8828 525.36 74.2638 530.396 75.8228 534.009C77.3818 537.622 83.5284 538.444 89.5517 535.845Z" fill="#272727"/>
<path d="M145.503 442.206H180.751C208.131 442.206 230.362 464.437 230.362 491.817V636.434C230.362 656.952 213.703 673.621 193.175 673.621H133.07C112.551 673.621 95.8823 656.962 95.8823 636.434V491.817C95.8823 464.437 118.114 442.206 145.493 442.206H145.503Z" fill="#3F3F3F"/>
<path d="M135.865 505.22H190.399C209.693 505.22 225.355 520.881 225.355 540.176V617.026C225.355 629.459 215.256 639.559 202.822 639.559H123.431C110.998 639.559 100.899 629.459 100.899 617.026V540.176C100.899 520.881 116.561 505.22 135.855 505.22H135.865Z" fill="#86CFED"/>
<path d="M117.98 548.091L101.559 529.168C100.674 528.147 99.1281 528.037 98.1073 528.923C97.0865 529.809 96.9771 531.355 97.8629 532.375L114.284 551.299C115.17 552.32 116.715 552.429 117.736 551.543C118.757 550.658 118.866 549.112 117.98 548.091Z" fill="#3F3F3F"/>
<path d="M212.136 551.681L227.601 533.859C228.487 532.838 228.377 531.293 227.356 530.407C226.336 529.521 224.79 529.631 223.904 530.651L208.439 548.473C207.553 549.494 207.663 551.039 208.684 551.925C209.704 552.811 211.25 552.702 212.136 551.681Z" fill="#3F3F3F"/>
</g>
<g filter="url(#filter1_d_5233_17953)">
<path d="M425.76 343H470.505C497.885 343 520.116 365.231 520.116 392.611V565.05C520.116 585.568 503.457 602.237 482.929 602.237H413.326C392.808 602.237 376.139 585.578 376.139 565.05V392.611C376.149 365.231 398.38 343 425.76 343Z" fill="#B9D950"/>
<path d="M535.177 445.582C536.736 441.969 533.117 436.933 527.094 434.334C521.071 431.735 514.924 432.557 513.365 436.17C511.806 439.783 515.425 444.819 521.449 447.418C527.472 450.017 533.618 449.195 535.177 445.582Z" fill="#B9D950"/>
<path d="M374.552 449.845C380.575 447.246 384.194 442.21 382.635 438.597C381.076 434.984 374.929 434.162 368.906 436.761C362.883 439.36 359.264 444.396 360.823 448.009C362.382 451.622 368.528 452.444 374.552 449.845Z" fill="#B9D950"/>
<path d="M430.503 356.206H465.751C493.131 356.206 515.362 378.437 515.362 405.817V550.434C515.362 570.952 498.703 587.621 478.175 587.621H418.07C397.551 587.621 380.882 570.962 380.882 550.434V405.817C380.882 378.437 403.114 356.206 430.493 356.206H430.503Z" fill="#D5FA5D"/>
<path d="M420.865 419.22H475.399C494.693 419.22 510.355 434.881 510.355 454.176V531.026C510.355 543.459 500.256 553.559 487.822 553.559H408.431C395.998 553.559 385.899 543.459 385.899 531.026V454.176C385.899 434.881 401.561 419.22 420.855 419.22H420.865Z" fill="#86CFED"/>
<path d="M488.501 462.411H407.772C403.354 462.411 399.772 465.993 399.772 470.411V524.315C399.772 528.733 403.354 532.315 407.772 532.315H488.501C492.919 532.315 496.501 528.733 496.501 524.315V470.411C496.501 465.993 492.919 462.411 488.501 462.411Z" fill="#D5FA5D"/>
<path d="M402.98 462.091L386.559 443.168C385.674 442.147 384.128 442.037 383.107 442.923C382.087 443.809 381.977 445.355 382.863 446.375L399.284 465.299C400.17 466.32 401.715 466.429 402.736 465.543C403.757 464.658 403.866 463.112 402.98 462.091Z" fill="#D5FA5D"/>
<path d="M497.136 465.681L512.601 447.859C513.487 446.838 513.377 445.293 512.356 444.407C511.336 443.521 509.79 443.631 508.904 444.651L493.439 462.473C492.553 463.494 492.663 465.039 493.684 465.925C494.704 466.811 496.25 466.702 497.136 465.681Z" fill="#D5FA5D"/>
<path d="M387.785 549.726L405.513 529.296C406.399 528.275 406.29 526.729 405.269 525.843C404.248 524.958 402.703 525.067 401.817 526.088L384.088 546.518C383.202 547.539 383.312 549.085 384.332 549.971C385.353 550.856 386.899 550.747 387.785 549.726Z" fill="#D5FA5D"/>
<path d="M511.814 546.451L494.085 526.02C493.199 524.999 491.653 524.89 490.633 525.776C489.612 526.662 489.502 528.207 490.388 529.228L508.117 549.659C509.003 550.679 510.548 550.789 511.569 549.903C512.59 549.017 512.699 547.472 511.814 546.451Z" fill="#D5FA5D"/>
</g>
</g>
<path d="M376.776 26V9.2H382.296C383.608 9.2 384.688 9.416 385.536 9.848C386.384 10.28 387.008 10.864 387.408 11.6C387.824 12.336 388.032 13.168 388.032 14.096C388.032 15.008 387.832 15.832 387.432 16.568C387.032 17.304 386.408 17.896 385.56 18.344C384.712 18.776 383.624 18.992 382.296 18.992H378.792V26H376.776ZM378.792 17.288H382.248C383.576 17.288 384.528 17 385.104 16.424C385.68 15.848 385.968 15.072 385.968 14.096C385.968 13.072 385.68 12.28 385.104 11.72C384.528 11.16 383.576 10.88 382.248 10.88H378.792V17.288ZM394.432 26.288C393.44 26.288 392.616 26.12 391.96 25.784C391.304 25.448 390.816 25 390.496 24.44C390.176 23.88 390.016 23.272 390.016 22.616C390.016 21.8 390.224 21.112 390.64 20.552C391.072 19.992 391.672 19.568 392.44 19.28C393.224 18.976 394.144 18.824 395.2 18.824H398.416C398.416 18.088 398.296 17.48 398.056 17C397.816 16.504 397.472 16.136 397.024 15.896C396.576 15.64 396.04 15.512 395.416 15.512C394.632 15.512 393.952 15.712 393.376 16.112C392.8 16.496 392.448 17.064 392.32 17.816H390.256C390.352 16.952 390.648 16.224 391.144 15.632C391.64 15.04 392.264 14.592 393.016 14.288C393.784 13.968 394.584 13.808 395.416 13.808C396.52 13.808 397.44 14.016 398.176 14.432C398.928 14.832 399.488 15.4 399.856 16.136C400.24 16.856 400.432 17.704 400.432 18.68V26H398.632L398.512 23.864C398.352 24.2 398.144 24.52 397.888 24.824C397.648 25.112 397.36 25.368 397.024 25.592C396.704 25.8 396.328 25.968 395.896 26.096C395.464 26.224 394.976 26.288 394.432 26.288ZM394.744 24.584C395.32 24.584 395.832 24.472 396.28 24.248C396.744 24.008 397.136 23.688 397.456 23.288C397.776 22.888 398.016 22.44 398.176 21.944C398.336 21.448 398.416 20.936 398.416 20.408V20.384H395.368C394.584 20.384 393.952 20.48 393.472 20.672C392.992 20.848 392.648 21.096 392.44 21.416C392.232 21.736 392.128 22.104 392.128 22.52C392.128 22.936 392.224 23.304 392.416 23.624C392.624 23.928 392.92 24.168 393.304 24.344C393.704 24.504 394.184 24.584 394.744 24.584ZM403.96 26V14.096H405.784L405.952 16.4C406.208 15.856 406.544 15.392 406.96 15.008C407.376 14.624 407.872 14.328 408.448 14.12C409.024 13.912 409.68 13.808 410.416 13.808V15.92H409.864C409.336 15.92 408.832 15.992 408.352 16.136C407.888 16.264 407.472 16.48 407.104 16.784C406.752 17.088 406.472 17.504 406.264 18.032C406.072 18.56 405.976 19.216 405.976 20V26H403.96ZM420.622 26L414.838 19.448L420.046 14.096H422.518L416.542 20.168L416.566 18.728L423.19 26H420.622ZM413.158 26V8.72H415.174V26H413.158ZM425.948 26V14.096H427.964V26H425.948ZM426.956 11.456C426.556 11.456 426.22 11.328 425.948 11.072C425.692 10.8 425.564 10.464 425.564 10.064C425.564 9.664 425.692 9.344 425.948 9.104C426.22 8.848 426.556 8.72 426.956 8.72C427.34 8.72 427.668 8.848 427.94 9.104C428.212 9.344 428.348 9.664 428.348 10.064C428.348 10.464 428.212 10.8 427.94 11.072C427.668 11.328 427.34 11.456 426.956 11.456ZM431.954 26V14.096H433.778L433.898 16.232C434.282 15.48 434.834 14.888 435.554 14.456C436.274 14.024 437.09 13.808 438.002 13.808C438.946 13.808 439.762 14 440.45 14.384C441.138 14.752 441.674 15.328 442.058 16.112C442.442 16.88 442.634 17.856 442.634 19.04V26H440.618V19.256C440.618 18.024 440.354 17.096 439.826 16.472C439.298 15.848 438.538 15.536 437.546 15.536C436.858 15.536 436.242 15.704 435.698 16.04C435.17 16.376 434.746 16.864 434.426 17.504C434.122 18.128 433.97 18.904 433.97 19.832V26H431.954ZM450.897 31.568C449.825 31.568 448.873 31.424 448.041 31.136C447.209 30.864 446.561 30.44 446.097 29.864C445.633 29.288 445.401 28.576 445.401 27.728C445.401 27.376 445.473 26.992 445.617 26.576C445.777 26.176 446.041 25.776 446.409 25.376C446.793 24.976 447.329 24.616 448.017 24.296L449.361 25.112C448.545 25.464 448.009 25.864 447.753 26.312C447.497 26.76 447.369 27.168 447.369 27.536C447.369 28.064 447.521 28.504 447.825 28.856C448.129 29.208 448.545 29.472 449.073 29.648C449.617 29.824 450.225 29.912 450.897 29.912C451.569 29.912 452.145 29.808 452.625 29.6C453.121 29.408 453.505 29.136 453.777 28.784C454.049 28.432 454.185 28.016 454.185 27.536C454.185 27.024 453.977 26.576 453.561 26.192C453.161 25.824 452.393 25.608 451.257 25.544C450.313 25.48 449.521 25.392 448.881 25.28C448.257 25.168 447.737 25.04 447.321 24.896C446.905 24.736 446.553 24.56 446.265 24.368C445.993 24.176 445.745 23.976 445.521 23.768V23.216L447.849 20.888L449.553 21.512L447.201 23.696L447.513 22.88C447.689 23.008 447.857 23.128 448.017 23.24C448.177 23.336 448.393 23.424 448.665 23.504C448.937 23.584 449.313 23.656 449.793 23.72C450.273 23.784 450.913 23.848 451.713 23.912C452.785 23.992 453.649 24.184 454.305 24.488C454.961 24.792 455.433 25.2 455.721 25.712C456.025 26.208 456.177 26.792 456.177 27.464C456.177 28.152 455.985 28.808 455.601 29.432C455.233 30.056 454.657 30.568 453.873 30.968C453.105 31.368 452.113 31.568 450.897 31.568ZM450.873 22.256C449.865 22.256 449.009 22.072 448.305 21.704C447.601 21.32 447.065 20.808 446.697 20.168C446.329 19.528 446.145 18.816 446.145 18.032C446.145 17.248 446.329 16.544 446.697 15.92C447.065 15.28 447.601 14.768 448.305 14.384C449.009 14 449.865 13.808 450.873 13.808C451.881 13.808 452.737 14 453.441 14.384C454.145 14.768 454.681 15.28 455.049 15.92C455.417 16.544 455.601 17.248 455.601 18.032C455.601 18.816 455.417 19.528 455.049 20.168C454.681 20.808 454.145 21.32 453.441 21.704C452.737 22.072 451.881 22.256 450.873 22.256ZM450.873 20.6C451.721 20.6 452.393 20.384 452.889 19.952C453.401 19.504 453.657 18.864 453.657 18.032C453.657 17.216 453.401 16.592 452.889 16.16C452.393 15.712 451.721 15.488 450.873 15.488C450.025 15.488 449.345 15.712 448.833 16.16C448.321 16.592 448.065 17.216 448.065 18.032C448.065 18.864 448.321 19.504 448.833 19.952C449.345 20.384 450.025 20.6 450.873 20.6ZM452.793 15.8L452.193 14.096H457.137V15.608L452.793 15.8ZM466.843 26V9.2H468.859V24.392H476.683V26H466.843ZM483.772 26.288C482.78 26.288 481.956 26.12 481.3 25.784C480.644 25.448 480.156 25 479.836 24.44C479.516 23.88 479.356 23.272 479.356 22.616C479.356 21.8 479.564 21.112 479.98 20.552C480.412 19.992 481.012 19.568 481.78 19.28C482.564 18.976 483.484 18.824 484.54 18.824H487.756C487.756 18.088 487.636 17.48 487.396 17C487.156 16.504 486.812 16.136 486.364 15.896C485.916 15.64 485.38 15.512 484.756 15.512C483.972 15.512 483.292 15.712 482.716 16.112C482.14 16.496 481.788 17.064 481.66 17.816H479.596C479.692 16.952 479.988 16.224 480.484 15.632C480.98 15.04 481.604 14.592 482.356 14.288C483.124 13.968 483.924 13.808 484.756 13.808C485.86 13.808 486.78 14.016 487.516 14.432C488.268 14.832 488.828 15.4 489.196 16.136C489.58 16.856 489.772 17.704 489.772 18.68V26H487.972L487.852 23.864C487.692 24.2 487.484 24.52 487.228 24.824C486.988 25.112 486.7 25.368 486.364 25.592C486.044 25.8 485.668 25.968 485.236 26.096C484.804 26.224 484.316 26.288 483.772 26.288ZM484.084 24.584C484.66 24.584 485.172 24.472 485.62 24.248C486.084 24.008 486.476 23.688 486.796 23.288C487.116 22.888 487.356 22.44 487.516 21.944C487.676 21.448 487.756 20.936 487.756 20.408V20.384H484.708C483.924 20.384 483.292 20.48 482.812 20.672C482.332 20.848 481.988 21.096 481.78 21.416C481.572 21.736 481.468 22.104 481.468 22.52C481.468 22.936 481.564 23.304 481.756 23.624C481.964 23.928 482.26 24.168 482.644 24.344C483.044 24.504 483.524 24.584 484.084 24.584ZM493.3 26V14.096H495.124L495.244 16.232C495.628 15.48 496.18 14.888 496.9 14.456C497.62 14.024 498.436 13.808 499.348 13.808C500.292 13.808 501.108 14 501.796 14.384C502.484 14.752 503.02 15.328 503.404 16.112C503.788 16.88 503.98 17.856 503.98 19.04V26H501.964V19.256C501.964 18.024 501.7 17.096 501.172 16.472C500.644 15.848 499.884 15.536 498.892 15.536C498.204 15.536 497.588 15.704 497.044 16.04C496.516 16.376 496.092 16.864 495.772 17.504C495.468 18.128 495.316 18.904 495.316 19.832V26H493.3ZM512.866 26.288C511.73 26.288 510.722 26.032 509.842 25.52C508.962 24.992 508.266 24.264 507.754 23.336C507.258 22.392 507.01 21.296 507.01 20.048C507.01 18.784 507.258 17.688 507.754 16.76C508.25 15.832 508.938 15.112 509.818 14.6C510.714 14.072 511.746 13.808 512.914 13.808C514.082 13.808 515.082 14.072 515.914 14.6C516.746 15.112 517.386 15.792 517.834 16.64C518.282 17.472 518.506 18.384 518.506 19.376C518.506 19.536 518.506 19.712 518.506 19.904C518.506 20.08 518.498 20.28 518.482 20.504H508.522V18.944H516.514C516.466 17.872 516.098 17.032 515.41 16.424C514.738 15.816 513.89 15.512 512.866 15.512C512.178 15.512 511.538 15.664 510.946 15.968C510.354 16.272 509.874 16.72 509.506 17.312C509.154 17.888 508.978 18.616 508.978 19.496V20.168C508.978 21.144 509.162 21.96 509.53 22.616C509.898 23.272 510.378 23.768 510.97 24.104C511.562 24.424 512.194 24.584 512.866 24.584C513.698 24.584 514.394 24.392 514.954 24.008C515.514 23.624 515.922 23.104 516.178 22.448H518.17C517.962 23.184 517.618 23.84 517.138 24.416C516.658 24.992 516.058 25.448 515.338 25.784C514.634 26.12 513.81 26.288 512.866 26.288Z" fill="black"/>
<path d="M90.128 26.288C88.896 26.288 87.824 26.064 86.912 25.616C86 25.168 85.296 24.544 84.8 23.744C84.304 22.944 84.056 22.016 84.056 20.96H86.168C86.168 21.616 86.32 22.224 86.624 22.784C86.928 23.328 87.368 23.768 87.944 24.104C88.536 24.424 89.264 24.584 90.128 24.584C90.88 24.584 91.52 24.464 92.048 24.224C92.592 23.968 93 23.624 93.272 23.192C93.56 22.76 93.704 22.272 93.704 21.728C93.704 21.056 93.56 20.52 93.272 20.12C92.984 19.704 92.592 19.368 92.096 19.112C91.616 18.856 91.056 18.632 90.416 18.44C89.792 18.248 89.136 18.032 88.448 17.792C87.152 17.344 86.192 16.792 85.568 16.136C84.944 15.464 84.632 14.592 84.632 13.52C84.632 12.608 84.84 11.808 85.256 11.12C85.688 10.432 86.296 9.896 87.08 9.512C87.88 9.112 88.824 8.912 89.912 8.912C90.984 8.912 91.912 9.112 92.696 9.512C93.496 9.912 94.12 10.464 94.568 11.168C95.016 11.856 95.24 12.656 95.24 13.568H93.128C93.128 13.104 93.008 12.648 92.768 12.2C92.528 11.752 92.16 11.384 91.664 11.096C91.184 10.792 90.576 10.64 89.84 10.64C89.232 10.624 88.688 10.728 88.208 10.952C87.744 11.16 87.376 11.464 87.104 11.864C86.848 12.264 86.72 12.752 86.72 13.328C86.72 13.872 86.832 14.312 87.056 14.648C87.296 14.984 87.632 15.272 88.064 15.512C88.512 15.736 89.032 15.944 89.624 16.136C90.216 16.328 90.872 16.544 91.592 16.784C92.408 17.056 93.128 17.392 93.752 17.792C94.392 18.176 94.888 18.672 95.24 19.28C95.608 19.888 95.792 20.664 95.792 21.608C95.792 22.408 95.576 23.168 95.144 23.888C94.728 24.592 94.104 25.168 93.272 25.616C92.44 26.064 91.392 26.288 90.128 26.288ZM99.011 26V8.72H101.027V16.136C101.427 15.4 101.987 14.832 102.707 14.432C103.443 14.016 104.251 13.808 105.131 13.808C106.043 13.808 106.843 14 107.531 14.384C108.219 14.752 108.747 15.328 109.115 16.112C109.499 16.88 109.691 17.856 109.691 19.04V26H107.699V19.256C107.699 18.024 107.443 17.096 106.931 16.472C106.435 15.848 105.691 15.536 104.699 15.536C104.011 15.536 103.387 15.704 102.827 16.04C102.267 16.376 101.827 16.864 101.507 17.504C101.187 18.128 101.027 18.904 101.027 19.832V26H99.011ZM117.185 26.288C116.193 26.288 115.369 26.12 114.713 25.784C114.057 25.448 113.569 25 113.249 24.44C112.929 23.88 112.769 23.272 112.769 22.616C112.769 21.8 112.977 21.112 113.393 20.552C113.825 19.992 114.425 19.568 115.193 19.28C115.977 18.976 116.897 18.824 117.953 18.824H121.169C121.169 18.088 121.049 17.48 120.809 17C120.569 16.504 120.225 16.136 119.777 15.896C119.329 15.64 118.793 15.512 118.169 15.512C117.385 15.512 116.705 15.712 116.129 16.112C115.553 16.496 115.201 17.064 115.073 17.816H113.009C113.105 16.952 113.401 16.224 113.897 15.632C114.393 15.04 115.017 14.592 115.769 14.288C116.537 13.968 117.337 13.808 118.169 13.808C119.273 13.808 120.193 14.016 120.929 14.432C121.681 14.832 122.241 15.4 122.609 16.136C122.993 16.856 123.185 17.704 123.185 18.68V26H121.385L121.265 23.864C121.105 24.2 120.897 24.52 120.641 24.824C120.401 25.112 120.113 25.368 119.777 25.592C119.457 25.8 119.081 25.968 118.649 26.096C118.217 26.224 117.729 26.288 117.185 26.288ZM117.497 24.584C118.073 24.584 118.585 24.472 119.033 24.248C119.497 24.008 119.889 23.688 120.209 23.288C120.529 22.888 120.769 22.44 120.929 21.944C121.089 21.448 121.169 20.936 121.169 20.408V20.384H118.121C117.337 20.384 116.705 20.48 116.225 20.672C115.745 20.848 115.401 21.096 115.193 21.416C114.985 21.736 114.881 22.104 114.881 22.52C114.881 22.936 114.977 23.304 115.169 23.624C115.377 23.928 115.673 24.168 116.057 24.344C116.457 24.504 116.937 24.584 117.497 24.584ZM126.713 26V14.096H128.537L128.705 16.4C128.961 15.856 129.297 15.392 129.713 15.008C130.129 14.624 130.625 14.328 131.201 14.12C131.777 13.912 132.433 13.808 133.169 13.808V15.92H132.617C132.089 15.92 131.585 15.992 131.105 16.136C130.641 16.264 130.225 16.48 129.857 16.784C129.505 17.088 129.225 17.504 129.017 18.032C128.825 18.56 128.729 19.216 128.729 20V26H126.713ZM135.912 26V14.096H137.736L137.904 16.4C138.16 15.856 138.496 15.392 138.912 15.008C139.328 14.624 139.824 14.328 140.4 14.12C140.976 13.912 141.632 13.808 142.368 13.808V15.92H141.816C141.288 15.92 140.784 15.992 140.304 16.136C139.84 16.264 139.424 16.48 139.056 16.784C138.704 17.088 138.424 17.504 138.216 18.032C138.024 18.56 137.928 19.216 137.928 20V26H135.912ZM150.089 26.288C148.969 26.288 147.961 26.032 147.065 25.52C146.169 25.008 145.457 24.288 144.929 23.36C144.417 22.416 144.161 21.312 144.161 20.048C144.161 18.784 144.425 17.688 144.953 16.76C145.481 15.816 146.193 15.088 147.089 14.576C148.001 14.064 149.017 13.808 150.137 13.808C151.257 13.808 152.265 14.064 153.161 14.576C154.057 15.088 154.761 15.816 155.273 16.76C155.801 17.688 156.065 18.784 156.065 20.048C156.065 21.312 155.801 22.416 155.273 23.36C154.745 24.288 154.025 25.008 153.113 25.52C152.217 26.032 151.209 26.288 150.089 26.288ZM150.089 24.56C150.777 24.56 151.417 24.392 152.009 24.056C152.601 23.72 153.081 23.216 153.449 22.544C153.817 21.872 154.001 21.04 154.001 20.048C154.001 19.04 153.817 18.208 153.449 17.552C153.097 16.88 152.625 16.376 152.033 16.04C151.441 15.704 150.809 15.536 150.137 15.536C149.465 15.536 148.825 15.704 148.217 16.04C147.625 16.376 147.145 16.88 146.777 17.552C146.409 18.208 146.225 19.04 146.225 20.048C146.225 21.04 146.409 21.872 146.777 22.544C147.145 23.216 147.617 23.72 148.193 24.056C148.785 24.392 149.417 24.56 150.089 24.56ZM161.303 26L157.823 14.096H159.839L162.599 24.344L162.095 24.32L165.143 14.096H167.423L170.495 24.32L169.967 24.344L172.727 14.096H174.767L171.287 26H169.223L166.031 15.296H166.559L163.367 26H161.303ZM184.428 26V9.2H186.444V24.392H194.268V26H184.428ZM201.358 26.288C200.366 26.288 199.542 26.12 198.886 25.784C198.23 25.448 197.742 25 197.422 24.44C197.102 23.88 196.942 23.272 196.942 22.616C196.942 21.8 197.15 21.112 197.566 20.552C197.998 19.992 198.598 19.568 199.366 19.28C200.15 18.976 201.07 18.824 202.126 18.824H205.342C205.342 18.088 205.222 17.48 204.982 17C204.742 16.504 204.398 16.136 203.95 15.896C203.502 15.64 202.966 15.512 202.342 15.512C201.558 15.512 200.878 15.712 200.302 16.112C199.726 16.496 199.374 17.064 199.246 17.816H197.182C197.278 16.952 197.574 16.224 198.07 15.632C198.566 15.04 199.19 14.592 199.942 14.288C200.71 13.968 201.51 13.808 202.342 13.808C203.446 13.808 204.366 14.016 205.102 14.432C205.854 14.832 206.414 15.4 206.782 16.136C207.166 16.856 207.358 17.704 207.358 18.68V26H205.558L205.438 23.864C205.278 24.2 205.07 24.52 204.814 24.824C204.574 25.112 204.286 25.368 203.95 25.592C203.63 25.8 203.254 25.968 202.822 26.096C202.39 26.224 201.902 26.288 201.358 26.288ZM201.67 24.584C202.246 24.584 202.758 24.472 203.206 24.248C203.67 24.008 204.062 23.688 204.382 23.288C204.702 22.888 204.942 22.44 205.102 21.944C205.262 21.448 205.342 20.936 205.342 20.408V20.384H202.294C201.51 20.384 200.878 20.48 200.398 20.672C199.918 20.848 199.574 21.096 199.366 21.416C199.158 21.736 199.054 22.104 199.054 22.52C199.054 22.936 199.15 23.304 199.342 23.624C199.55 23.928 199.846 24.168 200.23 24.344C200.63 24.504 201.11 24.584 201.67 24.584ZM210.886 26V14.096H212.71L212.83 16.232C213.214 15.48 213.766 14.888 214.486 14.456C215.206 14.024 216.022 13.808 216.934 13.808C217.878 13.808 218.694 14 219.382 14.384C220.07 14.752 220.606 15.328 220.99 16.112C221.374 16.88 221.566 17.856 221.566 19.04V26H219.55V19.256C219.55 18.024 219.286 17.096 218.758 16.472C218.23 15.848 217.47 15.536 216.478 15.536C215.79 15.536 215.174 15.704 214.63 16.04C214.102 16.376 213.678 16.864 213.358 17.504C213.054 18.128 212.902 18.904 212.902 19.832V26H210.886ZM230.452 26.288C229.316 26.288 228.308 26.032 227.428 25.52C226.548 24.992 225.852 24.264 225.34 23.336C224.844 22.392 224.596 21.296 224.596 20.048C224.596 18.784 224.844 17.688 225.34 16.76C225.836 15.832 226.524 15.112 227.404 14.6C228.3 14.072 229.332 13.808 230.5 13.808C231.668 13.808 232.668 14.072 233.5 14.6C234.332 15.112 234.972 15.792 235.42 16.64C235.868 17.472 236.092 18.384 236.092 19.376C236.092 19.536 236.092 19.712 236.092 19.904C236.092 20.08 236.084 20.28 236.068 20.504H226.108V18.944H234.1C234.052 17.872 233.684 17.032 232.996 16.424C232.324 15.816 231.476 15.512 230.452 15.512C229.764 15.512 229.124 15.664 228.532 15.968C227.94 16.272 227.46 16.72 227.092 17.312C226.74 17.888 226.564 18.616 226.564 19.496V20.168C226.564 21.144 226.748 21.96 227.116 22.616C227.484 23.272 227.964 23.768 228.556 24.104C229.148 24.424 229.78 24.584 230.452 24.584C231.284 24.584 231.98 24.392 232.54 24.008C233.1 23.624 233.508 23.104 233.764 22.448H235.756C235.548 23.184 235.204 23.84 234.724 24.416C234.244 24.992 233.644 25.448 232.924 25.784C232.22 26.12 231.396 26.288 230.452 26.288Z" fill="black"/>
<rect x="325" y="48" width="10" height="500" fill="white"/>
<g clip-path="url(#clip0_5233_17953)" filter="url(#filter2_d_5233_17953)">
<path d="M161.062 322.806V345.001" stroke="#9AB445" stroke-width="4.81074"/>
<path d="M162.223 362.717H159.907C157.284 362.717 155.158 364.843 155.158 367.466V402.247C155.158 404.87 157.284 406.996 159.907 406.996H162.223C164.846 406.996 166.972 404.87 166.972 402.247V367.466C166.972 364.843 164.846 362.717 162.223 362.717Z" fill="#62657A"/>
<path d="M183.227 332.107L176.532 316.789C175.607 314.673 173.142 313.708 171.027 314.632L171.021 314.635C168.905 315.56 167.94 318.025 168.864 320.14L175.56 335.458C176.485 337.574 178.949 338.539 181.065 337.614L181.071 337.612C183.187 336.687 184.152 334.222 183.227 332.107Z" fill="#171759"/>
<path d="M183.304 327.51L177.719 329.951C175.603 330.876 174.637 333.341 175.562 335.456L175.565 335.462C176.489 337.578 178.954 338.543 181.07 337.618L186.655 335.177C188.771 334.252 189.736 331.788 188.811 329.672L188.809 329.666C187.884 327.551 185.419 326.585 183.304 327.51Z" fill="#171759"/>
<path d="M145.664 335.46L152.359 320.142C153.284 318.027 152.319 315.562 150.203 314.637L150.197 314.635C148.081 313.71 145.617 314.675 144.692 316.791L137.996 332.109C137.072 334.225 138.037 336.689 140.153 337.614L140.159 337.617C142.274 338.541 144.739 337.576 145.664 335.46Z" fill="#171759"/>
<path d="M134.577 335.171L140.162 337.613C142.278 338.537 144.743 337.572 145.668 335.456L145.67 335.451C146.595 333.335 145.629 330.87 143.514 329.945L137.929 327.504C135.813 326.579 133.348 327.545 132.423 329.66L132.421 329.666C131.496 331.782 132.462 334.247 134.577 335.171Z" fill="#171759"/>
<path d="M160.5 322.058C182.097 322.058 199.604 304.55 199.604 282.954C199.604 261.358 182.097 243.851 160.5 243.851C138.904 243.851 121.397 261.358 121.397 282.954C121.397 304.55 138.904 322.058 160.5 322.058Z" fill="#62657A"/>
<path opacity="0.43" d="M160.5 304.204C172.237 304.204 181.75 294.69 181.75 282.954C181.75 271.218 172.237 261.704 160.5 261.704C148.764 261.704 139.25 271.218 139.25 282.954C139.25 294.69 148.764 304.204 160.5 304.204Z" stroke="#D3D3DD" stroke-width="3.08777" stroke-miterlimit="10"/>
<path opacity="0.43" d="M160.5 299.177C169.46 299.177 176.724 291.914 176.724 282.954C176.724 273.994 169.46 266.731 160.5 266.731C151.541 266.731 144.277 273.994 144.277 282.954C144.277 291.914 151.541 299.177 160.5 299.177Z" fill="#D3D3DD"/>
<path opacity="0.2" d="M199.604 282.954C199.604 304.55 182.096 322.058 160.5 322.058C149.465 322.058 139.504 317.488 132.396 310.133C138.435 313.949 145.586 316.16 153.256 316.16C174.852 316.16 192.354 298.652 192.354 277.056C192.354 266.496 188.173 256.912 181.361 249.878C192.323 256.801 199.604 269.028 199.604 282.954Z" fill="#3D3D60"/>
<path d="M195.885 284.121C195.293 301.9 181.589 316.357 164.131 318.129" stroke="#4E4E68" stroke-width="3.08777" stroke-miterlimit="10" stroke-linecap="round"/>
<path d="M190.519 286.444C189.092 298.702 180.329 308.719 168.738 311.992" stroke="#4E4E68" stroke-width="3.08777" stroke-miterlimit="10" stroke-linecap="round"/>
<path d="M125.12 281.787C125.713 264.008 139.416 249.551 156.875 247.778" stroke="#4E4E68" stroke-width="3.08777" stroke-miterlimit="10" stroke-linecap="round"/>
<path d="M130.487 279.464C131.913 267.206 140.676 257.189 152.268 253.916" stroke="#4E4E68" stroke-width="3.08777" stroke-miterlimit="10" stroke-linecap="round"/>
<path d="M168.683 318.445H153.448C150.487 318.445 148.087 320.845 148.087 323.806V323.812C148.087 326.772 150.487 329.172 153.448 329.172H168.683C171.643 329.172 174.043 326.772 174.043 323.812V323.806C174.043 320.845 171.643 318.445 168.683 318.445Z" fill="#FCD579"/>
<path d="M161.062 335.724C165.119 335.724 168.417 339.021 168.417 343.079V371.004H153.707V343.079C153.707 339.021 157.005 335.724 161.062 335.724Z" fill="#BBD567"/>
<path d="M162.223 362.717H159.907C157.284 362.717 155.158 364.843 155.158 367.466V402.247C155.158 404.87 157.284 406.996 159.907 406.996H162.223C164.846 406.996 166.972 404.87 166.972 402.247V367.466C166.972 364.843 164.846 362.717 162.223 362.717Z" fill="#62657A"/>
<path d="M161.062 335.724C165.119 335.724 168.417 339.021 168.417 343.079V371.004H153.707V343.079C153.707 339.021 157.005 335.724 161.062 335.724Z" fill="#BBD567"/>
<path d="M198.22 281.212C187.419 282.83 174.772 284.016 160.636 284.022C146.383 284.028 133.643 282.837 122.78 281.212C122.552 281.212 121.341 281.188 120.365 280.267C119.748 279.681 119.359 278.878 119.359 277.989V272.801C119.359 271.029 120.897 269.578 122.78 269.578H198.22C200.098 269.578 201.642 271.029 201.642 272.801V277.989C201.642 279.761 200.104 281.212 198.22 281.212Z" fill="#312A4C"/>
<path d="M121.465 275.395C119.452 275.395 117.84 273.697 118.013 271.702C119.921 250.149 138.355 233 160.5 233C182.646 233 201.08 250.149 202.988 271.702C203.167 273.691 201.549 275.395 199.536 275.395H121.465Z" fill="#FF525F"/>
</g>
<g filter="url(#filter3_d_5233_17953)">
<path d="M425.76 61H470.505C497.885 61 520.116 83.2314 520.116 110.611V283.05C520.116 303.568 503.457 320.237 482.929 320.237H413.326C392.808 320.237 376.139 303.578 376.139 283.05V110.611C376.149 83.2314 398.38 61 425.76 61Z" fill="#F76626"/>
<path d="M535.177 163.582C536.736 159.969 533.117 154.933 527.094 152.334C521.071 149.735 514.924 150.557 513.365 154.17C511.806 157.783 515.425 162.819 521.449 165.418C527.472 168.017 533.618 167.195 535.177 163.582Z" fill="#F76626"/>
<path d="M374.552 167.845C380.575 165.246 384.194 160.21 382.635 156.597C381.076 152.984 374.929 152.162 368.906 154.761C362.883 157.36 359.264 162.396 360.823 166.009C362.382 169.622 368.528 170.444 374.552 167.845Z" fill="#F76626"/>
<path d="M430.503 74.2061H465.751C493.131 74.2061 515.362 96.4374 515.362 123.817V268.434C515.362 288.952 498.703 305.621 478.175 305.621H418.07C397.551 305.621 380.882 288.962 380.882 268.434V123.817C380.882 96.4374 403.114 74.2061 430.493 74.2061H430.503Z" fill="#FC8332"/>
<path d="M420.865 137.22H475.399C494.693 137.22 510.355 152.881 510.355 172.176V249.026C510.355 261.459 500.256 271.559 487.822 271.559H408.431C395.998 271.559 385.899 261.459 385.899 249.026V172.176C385.899 152.881 401.561 137.22 420.855 137.22H420.865Z" fill="#B4DEEF"/>
<path d="M496.501 180.411H399.772V250.315H496.501V180.411Z" fill="#FC8332"/>
<path d="M404.584 181.939L384.956 159.319L381.259 162.527L400.888 185.147L404.584 181.939Z" fill="#FC8332"/>
<path d="M495.532 185.529L514.205 164.011L510.508 160.803L491.835 182.321L495.532 185.529Z" fill="#FC8332"/>
<path d="M386.181 269.574L407.117 245.447L403.421 242.24L382.484 266.367L386.181 269.574Z" fill="#FC8332"/>
<path d="M513.417 266.299L492.481 242.172L488.784 245.38L509.721 269.507L513.417 266.299Z" fill="#FC8332"/>
</g>
<g filter="url(#filter4_d_5233_17953)">
<rect x="229" y="280" width="192" height="80" rx="8" fill="#FAFFEA"/>
<path d="M255.45 323.5C255.867 323.917 256.392 324.113 257.025 324.088C257.658 324.063 258.117 323.834 258.4 323.4L262.625 317.075C262.775 316.842 262.754 316.629 262.563 316.437C262.372 316.245 262.159 316.224 261.925 316.375L255.6 320.6C255.167 320.9 254.929 321.354 254.888 321.963C254.847 322.572 255.034 323.084 255.45 323.5ZM250.1 328C249.733 328 249.396 327.921 249.088 327.762C248.78 327.603 248.534 327.366 248.35 327.05C247.917 326.267 247.583 325.454 247.35 324.613C247.117 323.772 247 322.901 247 322C247 320.617 247.263 319.317 247.788 318.1C248.313 316.883 249.026 315.825 249.925 314.925C250.824 314.025 251.883 313.313 253.1 312.788C254.317 312.263 255.617 312.001 257 312C258.367 312 259.65 312.258 260.85 312.775C262.05 313.292 263.1 313.996 264 314.888C264.9 315.78 265.617 316.822 266.15 318.013C266.683 319.204 266.958 320.483 266.975 321.85C266.992 322.767 266.888 323.663 266.663 324.538C266.438 325.413 266.092 326.251 265.625 327.05C265.442 327.367 265.196 327.604 264.888 327.763C264.58 327.922 264.242 328.001 263.874 328H250.1Z" fill="black"/>
<path d="M282.05 309V299.2H284.934C286.082 299.2 287.025 299.401 287.762 299.802C288.509 300.194 289.059 300.759 289.414 301.496C289.778 302.224 289.96 303.101 289.96 304.128C289.96 305.136 289.778 306.004 289.414 306.732C289.059 307.46 288.509 308.02 287.762 308.412C287.025 308.804 286.082 309 284.934 309H282.05ZM283.226 308.02H284.906C285.858 308.02 286.614 307.866 287.174 307.558C287.734 307.241 288.135 306.793 288.378 306.214C288.621 305.626 288.742 304.931 288.742 304.128C288.742 303.307 288.621 302.602 288.378 302.014C288.135 301.426 287.734 300.973 287.174 300.656C286.614 300.339 285.858 300.18 284.906 300.18H283.226V308.02ZM294.769 309.168C294.115 309.168 293.527 309.019 293.005 308.72C292.482 308.412 292.071 307.983 291.773 307.432C291.474 306.872 291.325 306.223 291.325 305.486C291.325 304.73 291.474 304.077 291.773 303.526C292.081 302.966 292.496 302.537 293.019 302.238C293.551 301.93 294.143 301.776 294.797 301.776C295.469 301.776 296.061 301.93 296.575 302.238C297.097 302.537 297.508 302.966 297.807 303.526C298.115 304.077 298.269 304.725 298.269 305.472C298.269 306.219 298.115 306.872 297.807 307.432C297.499 307.983 297.083 308.412 296.561 308.72C296.038 309.019 295.441 309.168 294.769 309.168ZM294.783 308.16C295.184 308.16 295.557 308.062 295.903 307.866C296.248 307.661 296.528 307.357 296.743 306.956C296.957 306.555 297.065 306.06 297.065 305.472C297.065 304.875 296.957 304.38 296.743 303.988C296.537 303.587 296.262 303.288 295.917 303.092C295.581 302.887 295.207 302.784 294.797 302.784C294.405 302.784 294.031 302.887 293.677 303.092C293.331 303.288 293.051 303.587 292.837 303.988C292.631 304.38 292.529 304.875 292.529 305.472C292.529 306.06 292.631 306.555 292.837 306.956C293.051 307.357 293.327 307.661 293.663 307.866C294.008 308.062 294.381 308.16 294.783 308.16ZM304.406 312.08L306.128 308.216H305.722L302.95 301.944H304.224L306.52 307.334L308.928 301.944H310.146L305.638 312.08H304.406ZM313.909 309.168C313.256 309.168 312.668 309.019 312.145 308.72C311.623 308.412 311.212 307.983 310.913 307.432C310.615 306.872 310.465 306.223 310.465 305.486C310.465 304.73 310.615 304.077 310.913 303.526C311.221 302.966 311.637 302.537 312.159 302.238C312.691 301.93 313.284 301.776 313.937 301.776C314.609 301.776 315.202 301.93 315.715 302.238C316.238 302.537 316.649 302.966 316.947 303.526C317.255 304.077 317.409 304.725 317.409 305.472C317.409 306.219 317.255 306.872 316.947 307.432C316.639 307.983 316.224 308.412 315.701 308.72C315.179 309.019 314.581 309.168 313.909 309.168ZM313.923 308.16C314.325 308.16 314.698 308.062 315.043 307.866C315.389 307.661 315.669 307.357 315.883 306.956C316.098 306.555 316.205 306.06 316.205 305.472C316.205 304.875 316.098 304.38 315.883 303.988C315.678 303.587 315.403 303.288 315.057 303.092C314.721 302.887 314.348 302.784 313.937 302.784C313.545 302.784 313.172 302.887 312.817 303.092C312.472 303.288 312.192 303.587 311.977 303.988C311.772 304.38 311.669 304.875 311.669 305.472C311.669 306.06 311.772 306.555 311.977 306.956C312.192 307.357 312.467 307.661 312.803 307.866C313.149 308.062 313.522 308.16 313.923 308.16ZM321.62 309.168C321.079 309.168 320.603 309.061 320.192 308.846C319.791 308.631 319.478 308.3 319.254 307.852C319.039 307.404 318.932 306.844 318.932 306.172V301.944H320.108V306.046C320.108 306.746 320.262 307.273 320.57 307.628C320.878 307.983 321.312 308.16 321.872 308.16C322.264 308.16 322.619 308.067 322.936 307.88C323.253 307.684 323.501 307.409 323.678 307.054C323.865 306.69 323.958 306.247 323.958 305.724V301.944H325.134V309H324.07L324 307.768C323.785 308.207 323.468 308.552 323.048 308.804C322.628 309.047 322.152 309.168 321.62 309.168ZM327.084 309V301.944H328.148L328.232 303.288C328.39 302.971 328.591 302.7 328.834 302.476C329.086 302.252 329.384 302.079 329.73 301.958C330.084 301.837 330.486 301.776 330.934 301.776V303.008H330.5C330.201 303.008 329.916 303.05 329.646 303.134C329.375 303.209 329.132 303.335 328.918 303.512C328.712 303.689 328.549 303.932 328.428 304.24C328.316 304.539 328.26 304.912 328.26 305.36V309H327.084ZM339.68 309.168C339.279 309.168 338.915 309.112 338.588 309C338.271 308.879 337.991 308.72 337.748 308.524C337.505 308.328 337.305 308.099 337.146 307.838L337.048 309H335.984V298.92H337.16V303.106C337.384 302.742 337.706 302.429 338.126 302.168C338.546 301.907 339.064 301.776 339.68 301.776C340.361 301.776 340.959 301.939 341.472 302.266C341.985 302.583 342.382 303.022 342.662 303.582C342.951 304.133 343.096 304.763 343.096 305.472C343.096 306.181 342.951 306.816 342.662 307.376C342.382 307.936 341.985 308.375 341.472 308.692C340.959 309.009 340.361 309.168 339.68 309.168ZM339.54 308.146C339.997 308.146 340.403 308.034 340.758 307.81C341.113 307.586 341.388 307.278 341.584 306.886C341.789 306.485 341.892 306.013 341.892 305.472C341.892 304.94 341.789 304.473 341.584 304.072C341.388 303.671 341.113 303.358 340.758 303.134C340.403 302.91 339.997 302.798 339.54 302.798C339.073 302.798 338.663 302.91 338.308 303.134C337.953 303.358 337.678 303.671 337.482 304.072C337.286 304.473 337.188 304.94 337.188 305.472C337.188 306.013 337.286 306.485 337.482 306.886C337.678 307.278 337.953 307.586 338.308 307.81C338.663 308.034 339.073 308.146 339.54 308.146ZM347.842 309.168C347.179 309.168 346.591 309.014 346.078 308.706C345.574 308.398 345.177 307.969 344.888 307.418C344.598 306.858 344.454 306.209 344.454 305.472C344.454 304.725 344.594 304.077 344.874 303.526C345.163 302.975 345.564 302.546 346.078 302.238C346.6 301.93 347.198 301.776 347.87 301.776C348.56 301.776 349.144 301.93 349.62 302.238C350.105 302.546 350.474 302.952 350.726 303.456C350.987 303.951 351.118 304.497 351.118 305.094C351.118 305.187 351.118 305.285 351.118 305.388C351.118 305.491 351.113 305.607 351.104 305.738H345.336V304.828H349.97C349.942 304.184 349.727 303.68 349.326 303.316C348.934 302.952 348.439 302.77 347.842 302.77C347.44 302.77 347.067 302.863 346.722 303.05C346.386 303.227 346.115 303.493 345.91 303.848C345.704 304.193 345.602 304.627 345.602 305.15V305.542C345.602 306.121 345.704 306.606 345.91 306.998C346.124 307.39 346.4 307.684 346.736 307.88C347.081 308.076 347.45 308.174 347.842 308.174C348.336 308.174 348.742 308.067 349.06 307.852C349.386 307.628 349.62 307.329 349.76 306.956H350.922C350.81 307.376 350.614 307.754 350.334 308.09C350.054 308.426 349.704 308.692 349.284 308.888C348.873 309.075 348.392 309.168 347.842 309.168ZM355.365 309.168C354.777 309.168 354.263 309.07 353.825 308.874C353.395 308.678 353.05 308.407 352.789 308.062C352.537 307.707 352.383 307.292 352.327 306.816H353.531C353.577 307.059 353.675 307.283 353.825 307.488C353.974 307.693 354.175 307.861 354.427 307.992C354.688 308.113 355.005 308.174 355.379 308.174C355.705 308.174 355.976 308.127 356.191 308.034C356.405 307.931 356.564 307.796 356.667 307.628C356.779 307.46 356.835 307.278 356.835 307.082C356.835 306.793 356.765 306.573 356.625 306.424C356.494 306.275 356.298 306.158 356.037 306.074C355.775 305.981 355.458 305.901 355.085 305.836C354.777 305.78 354.473 305.705 354.175 305.612C353.876 305.519 353.61 305.397 353.377 305.248C353.143 305.089 352.957 304.898 352.817 304.674C352.686 304.45 352.621 304.175 352.621 303.848C352.621 303.447 352.723 303.092 352.929 302.784C353.134 302.467 353.428 302.219 353.811 302.042C354.203 301.865 354.655 301.776 355.169 301.776C355.925 301.776 356.536 301.958 357.003 302.322C357.469 302.686 357.745 303.213 357.829 303.904H356.667C356.62 303.549 356.466 303.274 356.205 303.078C355.953 302.873 355.603 302.77 355.155 302.77C354.716 302.77 354.38 302.859 354.147 303.036C353.923 303.213 353.811 303.447 353.811 303.736C353.811 303.923 353.871 304.091 353.993 304.24C354.123 304.38 354.31 304.501 354.553 304.604C354.805 304.707 355.113 304.791 355.477 304.856C355.943 304.94 356.368 305.052 356.751 305.192C357.133 305.332 357.441 305.542 357.675 305.822C357.917 306.093 358.039 306.48 358.039 306.984C358.039 307.423 357.927 307.805 357.703 308.132C357.488 308.459 357.18 308.715 356.779 308.902C356.377 309.079 355.906 309.168 355.365 309.168ZM362.19 309C361.77 309 361.406 308.935 361.098 308.804C360.79 308.673 360.552 308.454 360.384 308.146C360.225 307.829 360.146 307.404 360.146 306.872V302.938H358.914V301.944H360.146L360.3 300.236H361.322V301.944H363.366V302.938H361.322V306.872C361.322 307.311 361.41 307.609 361.588 307.768C361.765 307.917 362.078 307.992 362.526 307.992H363.282V309H362.19ZM371.391 309C370.971 309 370.607 308.935 370.299 308.804C369.991 308.673 369.753 308.454 369.585 308.146C369.426 307.829 369.347 307.404 369.347 306.872V302.938H368.115V301.944H369.347L369.501 300.236H370.523V301.944H372.567V302.938H370.523V306.872C370.523 307.311 370.611 307.609 370.789 307.768C370.966 307.917 371.279 307.992 371.727 307.992H372.483V309H371.391ZM377.06 309.168C376.406 309.168 375.818 309.019 375.296 308.72C374.773 308.412 374.362 307.983 374.064 307.432C373.765 306.872 373.616 306.223 373.616 305.486C373.616 304.73 373.765 304.077 374.064 303.526C374.372 302.966 374.787 302.537 375.31 302.238C375.842 301.93 376.434 301.776 377.088 301.776C377.76 301.776 378.352 301.93 378.866 302.238C379.388 302.537 379.799 302.966 380.098 303.526C380.406 304.077 380.56 304.725 380.56 305.472C380.56 306.219 380.406 306.872 380.098 307.432C379.79 307.983 379.374 308.412 378.852 308.72C378.329 309.019 377.732 309.168 377.06 309.168ZM377.074 308.16C377.475 308.16 377.848 308.062 378.194 307.866C378.539 307.661 378.819 307.357 379.034 306.956C379.248 306.555 379.356 306.06 379.356 305.472C379.356 304.875 379.248 304.38 379.034 303.988C378.828 303.587 378.553 303.288 378.208 303.092C377.872 302.887 377.498 302.784 377.088 302.784C376.696 302.784 376.322 302.887 375.968 303.092C375.622 303.288 375.342 303.587 375.128 303.988C374.922 304.38 374.82 304.875 374.82 305.472C374.82 306.06 374.922 306.555 375.128 306.956C375.342 307.357 375.618 307.661 375.954 307.866C376.299 308.062 376.672 308.16 377.074 308.16ZM281.98 325V317.944H283.044L283.128 319.288C283.287 318.971 283.487 318.7 283.73 318.476C283.982 318.252 284.281 318.079 284.626 317.958C284.981 317.837 285.382 317.776 285.83 317.776V319.008H285.396C285.097 319.008 284.813 319.05 284.542 319.134C284.271 319.209 284.029 319.335 283.814 319.512C283.609 319.689 283.445 319.932 283.324 320.24C283.212 320.539 283.156 320.912 283.156 321.36V325H281.98ZM287.274 325V317.944H288.45V325H287.274ZM287.862 316.446C287.628 316.446 287.432 316.371 287.274 316.222C287.124 316.063 287.05 315.867 287.05 315.634C287.05 315.401 287.124 315.214 287.274 315.074C287.432 314.925 287.628 314.85 287.862 314.85C288.086 314.85 288.277 314.925 288.436 315.074C288.594 315.214 288.674 315.401 288.674 315.634C288.674 315.867 288.594 316.063 288.436 316.222C288.277 316.371 288.086 316.446 287.862 316.446ZM293.633 325.168C292.952 325.168 292.354 325.009 291.841 324.692C291.328 324.365 290.931 323.922 290.651 323.362C290.371 322.802 290.231 322.167 290.231 321.458C290.231 320.749 290.371 320.119 290.651 319.568C290.931 319.008 291.328 318.569 291.841 318.252C292.364 317.935 292.966 317.776 293.647 317.776C294.226 317.776 294.73 317.893 295.159 318.126C295.598 318.359 295.934 318.686 296.167 319.106V314.92H297.343V325H296.279L296.181 323.838C296.032 324.071 295.84 324.291 295.607 324.496C295.374 324.692 295.094 324.855 294.767 324.986C294.44 325.107 294.062 325.168 293.633 325.168ZM293.773 324.146C294.24 324.146 294.65 324.034 295.005 323.81C295.36 323.586 295.635 323.278 295.831 322.886C296.027 322.485 296.125 322.013 296.125 321.472C296.125 320.94 296.027 320.473 295.831 320.072C295.635 319.671 295.36 319.358 295.005 319.134C294.65 318.91 294.24 318.798 293.773 318.798C293.316 318.798 292.91 318.91 292.555 319.134C292.2 319.358 291.925 319.671 291.729 320.072C291.533 320.473 291.435 320.94 291.435 321.472C291.435 322.013 291.533 322.485 291.729 322.886C291.925 323.278 292.2 323.586 292.555 323.81C292.91 324.034 293.316 324.146 293.773 324.146ZM302.396 325.168C301.734 325.168 301.146 325.014 300.632 324.706C300.128 324.398 299.732 323.969 299.442 323.418C299.153 322.858 299.008 322.209 299.008 321.472C299.008 320.725 299.148 320.077 299.428 319.526C299.718 318.975 300.119 318.546 300.632 318.238C301.155 317.93 301.752 317.776 302.424 317.776C303.115 317.776 303.698 317.93 304.174 318.238C304.66 318.546 305.028 318.952 305.28 319.456C305.542 319.951 305.672 320.497 305.672 321.094C305.672 321.187 305.672 321.285 305.672 321.388C305.672 321.491 305.668 321.607 305.658 321.738H299.89V320.828H304.524C304.496 320.184 304.282 319.68 303.88 319.316C303.488 318.952 302.994 318.77 302.396 318.77C301.995 318.77 301.622 318.863 301.276 319.05C300.94 319.227 300.67 319.493 300.464 319.848C300.259 320.193 300.156 320.627 300.156 321.15V321.542C300.156 322.121 300.259 322.606 300.464 322.998C300.679 323.39 300.954 323.684 301.29 323.88C301.636 324.076 302.004 324.174 302.396 324.174C302.891 324.174 303.297 324.067 303.614 323.852C303.941 323.628 304.174 323.329 304.314 322.956H305.476C305.364 323.376 305.168 323.754 304.888 324.09C304.608 324.426 304.258 324.692 303.838 324.888C303.428 325.075 302.947 325.168 302.396 325.168ZM313.274 325.168C312.705 325.168 312.229 325.07 311.846 324.874C311.463 324.669 311.179 324.403 310.992 324.076C310.805 323.74 310.712 323.376 310.712 322.984C310.712 322.508 310.833 322.107 311.076 321.78C311.328 321.444 311.678 321.192 312.126 321.024C312.583 320.847 313.12 320.758 313.736 320.758H315.598C315.598 320.319 315.528 319.955 315.388 319.666C315.257 319.367 315.061 319.143 314.8 318.994C314.548 318.845 314.231 318.77 313.848 318.77C313.4 318.77 313.013 318.882 312.686 319.106C312.359 319.33 312.159 319.661 312.084 320.1H310.88C310.936 319.596 311.104 319.176 311.384 318.84C311.673 318.495 312.037 318.233 312.476 318.056C312.915 317.869 313.372 317.776 313.848 317.776C314.501 317.776 315.043 317.897 315.472 318.14C315.911 318.373 316.237 318.705 316.452 319.134C316.667 319.554 316.774 320.053 316.774 320.632V325H315.724L315.654 323.754C315.561 323.95 315.439 324.137 315.29 324.314C315.15 324.482 314.982 324.631 314.786 324.762C314.59 324.883 314.366 324.981 314.114 325.056C313.871 325.131 313.591 325.168 313.274 325.168ZM313.456 324.174C313.783 324.174 314.077 324.109 314.338 323.978C314.609 323.838 314.837 323.651 315.024 323.418C315.211 323.175 315.351 322.909 315.444 322.62C315.547 322.331 315.598 322.027 315.598 321.71V321.668H313.834C313.377 321.668 313.008 321.724 312.728 321.836C312.448 321.939 312.247 322.088 312.126 322.284C312.005 322.471 311.944 322.685 311.944 322.928C311.944 323.18 312 323.399 312.112 323.586C312.233 323.773 312.406 323.917 312.63 324.02C312.863 324.123 313.139 324.174 313.456 324.174ZM321.174 325C320.754 325 320.39 324.935 320.082 324.804C319.774 324.673 319.536 324.454 319.368 324.146C319.209 323.829 319.13 323.404 319.13 322.872V318.938H317.898V317.944H319.13L319.284 316.236H320.306V317.944H322.35V318.938H320.306V322.872C320.306 323.311 320.395 323.609 320.572 323.768C320.749 323.917 321.062 323.992 321.51 323.992H322.266V325H321.174ZM330.375 325C329.955 325 329.591 324.935 329.283 324.804C328.975 324.673 328.737 324.454 328.569 324.146C328.41 323.829 328.331 323.404 328.331 322.872V318.938H327.099V317.944H328.331L328.485 316.236H329.507V317.944H331.551V318.938H329.507V322.872C329.507 323.311 329.596 323.609 329.773 323.768C329.95 323.917 330.263 323.992 330.711 323.992H331.467V325H330.375ZM333.085 325V314.92H334.261V319.134C334.495 318.714 334.821 318.383 335.241 318.14C335.671 317.897 336.137 317.776 336.641 317.776C337.183 317.776 337.654 317.888 338.055 318.112C338.457 318.327 338.765 318.658 338.979 319.106C339.194 319.554 339.301 320.119 339.301 320.8V325H338.139V320.926C338.139 320.217 337.99 319.685 337.691 319.33C337.393 318.966 336.959 318.784 336.389 318.784C335.988 318.784 335.624 318.882 335.297 319.078C334.98 319.274 334.728 319.554 334.541 319.918C334.355 320.282 334.261 320.73 334.261 321.262V325H333.085ZM344.232 325.168C343.57 325.168 342.982 325.014 342.468 324.706C341.964 324.398 341.568 323.969 341.278 323.418C340.989 322.858 340.844 322.209 340.844 321.472C340.844 320.725 340.984 320.077 341.264 319.526C341.554 318.975 341.955 318.546 342.468 318.238C342.991 317.93 343.588 317.776 344.26 317.776C344.951 317.776 345.534 317.93 346.01 318.238C346.496 318.546 346.864 318.952 347.116 319.456C347.378 319.951 347.508 320.497 347.508 321.094C347.508 321.187 347.508 321.285 347.508 321.388C347.508 321.491 347.504 321.607 347.494 321.738H341.726V320.828H346.36C346.332 320.184 346.118 319.68 345.716 319.316C345.324 318.952 344.83 318.77 344.232 318.77C343.831 318.77 343.458 318.863 343.112 319.05C342.776 319.227 342.506 319.493 342.3 319.848C342.095 320.193 341.992 320.627 341.992 321.15V321.542C341.992 322.121 342.095 322.606 342.3 322.998C342.515 323.39 342.79 323.684 343.126 323.88C343.472 324.076 343.84 324.174 344.232 324.174C344.727 324.174 345.133 324.067 345.45 323.852C345.777 323.628 346.01 323.329 346.15 322.956H347.312C347.2 323.376 347.004 323.754 346.724 324.09C346.444 324.426 346.094 324.692 345.674 324.888C345.264 325.075 344.783 325.168 344.232 325.168ZM355.474 325.168C354.886 325.168 354.373 325.07 353.934 324.874C353.505 324.678 353.159 324.407 352.898 324.062C352.646 323.707 352.492 323.292 352.436 322.816H353.64C353.687 323.059 353.785 323.283 353.934 323.488C354.083 323.693 354.284 323.861 354.536 323.992C354.797 324.113 355.115 324.174 355.488 324.174C355.815 324.174 356.085 324.127 356.3 324.034C356.515 323.931 356.673 323.796 356.776 323.628C356.888 323.46 356.944 323.278 356.944 323.082C356.944 322.793 356.874 322.573 356.734 322.424C356.603 322.275 356.407 322.158 356.146 322.074C355.885 321.981 355.567 321.901 355.194 321.836C354.886 321.78 354.583 321.705 354.284 321.612C353.985 321.519 353.719 321.397 353.486 321.248C353.253 321.089 353.066 320.898 352.926 320.674C352.795 320.45 352.73 320.175 352.73 319.848C352.73 319.447 352.833 319.092 353.038 318.784C353.243 318.467 353.537 318.219 353.92 318.042C354.312 317.865 354.765 317.776 355.278 317.776C356.034 317.776 356.645 317.958 357.112 318.322C357.579 318.686 357.854 319.213 357.938 319.904H356.776C356.729 319.549 356.575 319.274 356.314 319.078C356.062 318.873 355.712 318.77 355.264 318.77C354.825 318.77 354.489 318.859 354.256 319.036C354.032 319.213 353.92 319.447 353.92 319.736C353.92 319.923 353.981 320.091 354.102 320.24C354.233 320.38 354.419 320.501 354.662 320.604C354.914 320.707 355.222 320.791 355.586 320.856C356.053 320.94 356.477 321.052 356.86 321.192C357.243 321.332 357.551 321.542 357.784 321.822C358.027 322.093 358.148 322.48 358.148 322.984C358.148 323.423 358.036 323.805 357.812 324.132C357.597 324.459 357.289 324.715 356.888 324.902C356.487 325.079 356.015 325.168 355.474 325.168ZM359.841 328.08V317.944H360.905L361.003 319.092C361.153 318.868 361.344 318.658 361.577 318.462C361.811 318.257 362.091 318.093 362.417 317.972C362.744 317.841 363.117 317.776 363.537 317.776C364.228 317.776 364.825 317.939 365.329 318.266C365.843 318.593 366.239 319.036 366.519 319.596C366.809 320.147 366.953 320.777 366.953 321.486C366.953 322.195 366.809 322.83 366.519 323.39C366.239 323.941 365.843 324.375 365.329 324.692C364.816 325.009 364.214 325.168 363.523 325.168C362.954 325.168 362.45 325.051 362.011 324.818C361.582 324.585 361.251 324.258 361.017 323.838V328.08H359.841ZM363.397 324.146C363.855 324.146 364.261 324.034 364.615 323.81C364.97 323.586 365.245 323.278 365.441 322.886C365.647 322.485 365.749 322.013 365.749 321.472C365.749 320.94 365.647 320.473 365.441 320.072C365.245 319.671 364.97 319.358 364.615 319.134C364.261 318.91 363.855 318.798 363.397 318.798C362.931 318.798 362.52 318.91 362.165 319.134C361.811 319.358 361.535 319.671 361.339 320.072C361.143 320.473 361.045 320.94 361.045 321.472C361.045 322.013 361.143 322.485 361.339 322.886C361.535 323.278 361.811 323.586 362.165 323.81C362.52 324.034 362.931 324.146 363.397 324.146ZM371.699 325.168C371.036 325.168 370.448 325.014 369.935 324.706C369.431 324.398 369.034 323.969 368.745 323.418C368.456 322.858 368.311 322.209 368.311 321.472C368.311 320.725 368.451 320.077 368.731 319.526C369.02 318.975 369.422 318.546 369.935 318.238C370.458 317.93 371.055 317.776 371.727 317.776C372.418 317.776 373.001 317.93 373.477 318.238C373.962 318.546 374.331 318.952 374.583 319.456C374.844 319.951 374.975 320.497 374.975 321.094C374.975 321.187 374.975 321.285 374.975 321.388C374.975 321.491 374.97 321.607 374.961 321.738H369.193V320.828H373.827C373.799 320.184 373.584 319.68 373.183 319.316C372.791 318.952 372.296 318.77 371.699 318.77C371.298 318.77 370.924 318.863 370.579 319.05C370.243 319.227 369.972 319.493 369.767 319.848C369.562 320.193 369.459 320.627 369.459 321.15V321.542C369.459 322.121 369.562 322.606 369.767 322.998C369.982 323.39 370.257 323.684 370.593 323.88C370.938 324.076 371.307 324.174 371.699 324.174C372.194 324.174 372.6 324.067 372.917 323.852C373.244 323.628 373.477 323.329 373.617 322.956H374.779C374.667 323.376 374.471 323.754 374.191 324.09C373.911 324.426 373.561 324.692 373.141 324.888C372.73 325.075 372.25 325.168 371.699 325.168ZM379.656 325.168C378.993 325.168 378.405 325.014 377.892 324.706C377.388 324.398 376.991 323.969 376.702 323.418C376.413 322.858 376.268 322.209 376.268 321.472C376.268 320.725 376.408 320.077 376.688 319.526C376.977 318.975 377.379 318.546 377.892 318.238C378.415 317.93 379.012 317.776 379.684 317.776C380.375 317.776 380.958 317.93 381.434 318.238C381.919 318.546 382.288 318.952 382.54 319.456C382.801 319.951 382.932 320.497 382.932 321.094C382.932 321.187 382.932 321.285 382.932 321.388C382.932 321.491 382.927 321.607 382.918 321.738H377.15V320.828H381.784C381.756 320.184 381.541 319.68 381.14 319.316C380.748 318.952 380.253 318.77 379.656 318.77C379.255 318.77 378.881 318.863 378.536 319.05C378.2 319.227 377.929 319.493 377.724 319.848C377.519 320.193 377.416 320.627 377.416 321.15V321.542C377.416 322.121 377.519 322.606 377.724 322.998C377.939 323.39 378.214 323.684 378.55 323.88C378.895 324.076 379.264 324.174 379.656 324.174C380.151 324.174 380.557 324.067 380.874 323.852C381.201 323.628 381.434 323.329 381.574 322.956H382.736C382.624 323.376 382.428 323.754 382.148 324.09C381.868 324.426 381.518 324.692 381.098 324.888C380.687 325.075 380.207 325.168 379.656 325.168ZM387.627 325.168C386.946 325.168 386.348 325.009 385.835 324.692C385.322 324.365 384.925 323.922 384.645 323.362C384.365 322.802 384.225 322.167 384.225 321.458C384.225 320.749 384.365 320.119 384.645 319.568C384.925 319.008 385.322 318.569 385.835 318.252C386.358 317.935 386.96 317.776 387.641 317.776C388.22 317.776 388.724 317.893 389.153 318.126C389.592 318.359 389.928 318.686 390.161 319.106V314.92H391.337V325H390.273L390.175 323.838C390.026 324.071 389.834 324.291 389.601 324.496C389.368 324.692 389.088 324.855 388.761 324.986C388.434 325.107 388.056 325.168 387.627 325.168ZM387.767 324.146C388.234 324.146 388.644 324.034 388.999 323.81C389.354 323.586 389.629 323.278 389.825 322.886C390.021 322.485 390.119 322.013 390.119 321.472C390.119 320.94 390.021 320.473 389.825 320.072C389.629 319.671 389.354 319.358 388.999 319.134C388.644 318.91 388.234 318.798 387.767 318.798C387.31 318.798 386.904 318.91 386.549 319.134C386.194 319.358 385.919 319.671 385.723 320.072C385.527 320.473 385.429 320.94 385.429 321.472C385.429 322.013 385.527 322.485 385.723 322.886C385.919 323.278 386.194 323.586 386.549 323.81C386.904 324.034 387.31 324.146 387.767 324.146ZM285.13 341.168C284.477 341.168 283.889 341.019 283.366 340.72C282.843 340.412 282.433 339.983 282.134 339.432C281.835 338.872 281.686 338.223 281.686 337.486C281.686 336.73 281.835 336.077 282.134 335.526C282.442 334.966 282.857 334.537 283.38 334.238C283.912 333.93 284.505 333.776 285.158 333.776C285.83 333.776 286.423 333.93 286.936 334.238C287.459 334.537 287.869 334.966 288.168 335.526C288.476 336.077 288.63 336.725 288.63 337.472C288.63 338.219 288.476 338.872 288.168 339.432C287.86 339.983 287.445 340.412 286.922 340.72C286.399 341.019 285.802 341.168 285.13 341.168ZM285.144 340.16C285.545 340.16 285.919 340.062 286.264 339.866C286.609 339.661 286.889 339.357 287.104 338.956C287.319 338.555 287.426 338.06 287.426 337.472C287.426 336.875 287.319 336.38 287.104 335.988C286.899 335.587 286.623 335.288 286.278 335.092C285.942 334.887 285.569 334.784 285.158 334.784C284.766 334.784 284.393 334.887 284.038 335.092C283.693 335.288 283.413 335.587 283.198 335.988C282.993 336.38 282.89 336.875 282.89 337.472C282.89 338.06 282.993 338.555 283.198 338.956C283.413 339.357 283.688 339.661 284.024 339.866C284.369 340.062 284.743 340.16 285.144 340.16ZM290.671 341V332.852C290.671 332.404 290.745 332.04 290.895 331.76C291.044 331.471 291.263 331.261 291.553 331.13C291.851 330.99 292.215 330.92 292.645 330.92H293.443V331.928H292.827C292.481 331.928 292.229 331.998 292.071 332.138C291.921 332.278 291.847 332.525 291.847 332.88V341H290.671ZM289.593 334.938V333.944H293.625V334.938H289.593ZM301.527 341C301.107 341 300.743 340.935 300.435 340.804C300.127 340.673 299.889 340.454 299.721 340.146C299.563 339.829 299.483 339.404 299.483 338.872V334.938H298.251V333.944H299.483L299.637 332.236H300.659V333.944H302.703V334.938H300.659V338.872C300.659 339.311 300.748 339.609 300.925 339.768C301.103 339.917 301.415 339.992 301.863 339.992H302.619V341H301.527ZM304.238 341V330.92H305.414V335.134C305.647 334.714 305.974 334.383 306.394 334.14C306.823 333.897 307.29 333.776 307.794 333.776C308.335 333.776 308.806 333.888 309.208 334.112C309.609 334.327 309.917 334.658 310.132 335.106C310.346 335.554 310.454 336.119 310.454 336.8V341H309.292V336.926C309.292 336.217 309.142 335.685 308.844 335.33C308.545 334.966 308.111 334.784 307.542 334.784C307.14 334.784 306.776 334.882 306.45 335.078C306.132 335.274 305.88 335.554 305.694 335.918C305.507 336.282 305.414 336.73 305.414 337.262V341H304.238ZM315.385 341.168C314.722 341.168 314.134 341.014 313.621 340.706C313.117 340.398 312.72 339.969 312.431 339.418C312.141 338.858 311.997 338.209 311.997 337.472C311.997 336.725 312.137 336.077 312.417 335.526C312.706 334.975 313.107 334.546 313.621 334.238C314.143 333.93 314.741 333.776 315.413 333.776C316.103 333.776 316.687 333.93 317.163 334.238C317.648 334.546 318.017 334.952 318.269 335.456C318.53 335.951 318.661 336.497 318.661 337.094C318.661 337.187 318.661 337.285 318.661 337.388C318.661 337.491 318.656 337.607 318.647 337.738H312.879V336.828H317.513C317.485 336.184 317.27 335.68 316.869 335.316C316.477 334.952 315.982 334.77 315.385 334.77C314.983 334.77 314.61 334.863 314.265 335.05C313.929 335.227 313.658 335.493 313.453 335.848C313.247 336.193 313.145 336.627 313.145 337.15V337.542C313.145 338.121 313.247 338.606 313.453 338.998C313.667 339.39 313.943 339.684 314.279 339.88C314.624 340.076 314.993 340.174 315.385 340.174C315.879 340.174 316.285 340.067 316.603 339.852C316.929 339.628 317.163 339.329 317.303 338.956H318.465C318.353 339.376 318.157 339.754 317.877 340.09C317.597 340.426 317.247 340.692 316.827 340.888C316.416 341.075 315.935 341.168 315.385 341.168ZM323.966 341V333.944H325.03L325.114 335.288C325.273 334.971 325.474 334.7 325.716 334.476C325.968 334.252 326.267 334.079 326.612 333.958C326.967 333.837 327.368 333.776 327.816 333.776V335.008H327.382C327.084 335.008 326.799 335.05 326.528 335.134C326.258 335.209 326.015 335.335 325.8 335.512C325.595 335.689 325.432 335.932 325.31 336.24C325.198 336.539 325.142 336.912 325.142 337.36V341H323.966ZM332.038 341.168C331.385 341.168 330.797 341.019 330.274 340.72C329.752 340.412 329.341 339.983 329.042 339.432C328.744 338.872 328.594 338.223 328.594 337.486C328.594 336.73 328.744 336.077 329.042 335.526C329.35 334.966 329.766 334.537 330.288 334.238C330.82 333.93 331.413 333.776 332.066 333.776C332.738 333.776 333.331 333.93 333.844 334.238C334.367 334.537 334.778 334.966 335.076 335.526C335.384 336.077 335.538 336.725 335.538 337.472C335.538 338.219 335.384 338.872 335.076 339.432C334.768 339.983 334.353 340.412 333.83 340.72C333.308 341.019 332.71 341.168 332.038 341.168ZM332.052 340.16C332.454 340.16 332.827 340.062 333.172 339.866C333.518 339.661 333.798 339.357 334.012 338.956C334.227 338.555 334.334 338.06 334.334 337.472C334.334 336.875 334.227 336.38 334.012 335.988C333.807 335.587 333.532 335.288 333.186 335.092C332.85 334.887 332.477 334.784 332.066 334.784C331.674 334.784 331.301 334.887 330.946 335.092C330.601 335.288 330.321 335.587 330.106 335.988C329.901 336.38 329.798 336.875 329.798 337.472C329.798 338.06 329.901 338.555 330.106 338.956C330.321 339.357 330.596 339.661 330.932 339.866C331.278 340.062 331.651 340.16 332.052 340.16ZM339.483 341.168C338.914 341.168 338.438 341.07 338.055 340.874C337.672 340.669 337.388 340.403 337.201 340.076C337.014 339.74 336.921 339.376 336.921 338.984C336.921 338.508 337.042 338.107 337.285 337.78C337.537 337.444 337.887 337.192 338.335 337.024C338.792 336.847 339.329 336.758 339.945 336.758H341.807C341.807 336.319 341.737 335.955 341.597 335.666C341.466 335.367 341.27 335.143 341.009 334.994C340.757 334.845 340.44 334.77 340.057 334.77C339.609 334.77 339.222 334.882 338.895 335.106C338.568 335.33 338.368 335.661 338.293 336.1H337.089C337.145 335.596 337.313 335.176 337.593 334.84C337.882 334.495 338.246 334.233 338.685 334.056C339.124 333.869 339.581 333.776 340.057 333.776C340.71 333.776 341.252 333.897 341.681 334.14C342.12 334.373 342.446 334.705 342.661 335.134C342.876 335.554 342.983 336.053 342.983 336.632V341H341.933L341.863 339.754C341.77 339.95 341.648 340.137 341.499 340.314C341.359 340.482 341.191 340.631 340.995 340.762C340.799 340.883 340.575 340.981 340.323 341.056C340.08 341.131 339.8 341.168 339.483 341.168ZM339.665 340.174C339.992 340.174 340.286 340.109 340.547 339.978C340.818 339.838 341.046 339.651 341.233 339.418C341.42 339.175 341.56 338.909 341.653 338.62C341.756 338.331 341.807 338.027 341.807 337.71V337.668H340.043C339.586 337.668 339.217 337.724 338.937 337.836C338.657 337.939 338.456 338.088 338.335 338.284C338.214 338.471 338.153 338.685 338.153 338.928C338.153 339.18 338.209 339.399 338.321 339.586C338.442 339.773 338.615 339.917 338.839 340.02C339.072 340.123 339.348 340.174 339.665 340.174ZM347.91 341.168C347.229 341.168 346.632 341.009 346.118 340.692C345.605 340.365 345.208 339.922 344.928 339.362C344.648 338.802 344.508 338.167 344.508 337.458C344.508 336.749 344.648 336.119 344.928 335.568C345.208 335.008 345.605 334.569 346.118 334.252C346.641 333.935 347.243 333.776 347.924 333.776C348.503 333.776 349.007 333.893 349.436 334.126C349.875 334.359 350.211 334.686 350.444 335.106V330.92H351.62V341H350.556L350.458 339.838C350.309 340.071 350.118 340.291 349.884 340.496C349.651 340.692 349.371 340.855 349.044 340.986C348.718 341.107 348.34 341.168 347.91 341.168ZM348.05 340.146C348.517 340.146 348.928 340.034 349.282 339.81C349.637 339.586 349.912 339.278 350.108 338.886C350.304 338.485 350.402 338.013 350.402 337.472C350.402 336.94 350.304 336.473 350.108 336.072C349.912 335.671 349.637 335.358 349.282 335.134C348.928 334.91 348.517 334.798 348.05 334.798C347.593 334.798 347.187 334.91 346.832 335.134C346.478 335.358 346.202 335.671 346.006 336.072C345.81 336.473 345.712 336.94 345.712 337.472C345.712 338.013 345.81 338.485 346.006 338.886C346.202 339.278 346.478 339.586 346.832 339.81C347.187 340.034 347.593 340.146 348.05 340.146ZM355.008 341L352.936 333.944H354.112L355.722 339.894H355.512L357.262 333.944H358.592L360.37 339.88L360.146 339.894L361.742 333.944H362.932L360.874 341H359.67L357.822 334.784H358.06L356.212 341H355.008ZM366.307 341.168C365.738 341.168 365.262 341.07 364.879 340.874C364.497 340.669 364.212 340.403 364.025 340.076C363.839 339.74 363.745 339.376 363.745 338.984C363.745 338.508 363.867 338.107 364.109 337.78C364.361 337.444 364.711 337.192 365.159 337.024C365.617 336.847 366.153 336.758 366.769 336.758H368.631C368.631 336.319 368.561 335.955 368.421 335.666C368.291 335.367 368.095 335.143 367.833 334.994C367.581 334.845 367.264 334.77 366.881 334.77C366.433 334.77 366.046 334.882 365.719 335.106C365.393 335.33 365.192 335.661 365.117 336.1H363.913C363.969 335.596 364.137 335.176 364.417 334.84C364.707 334.495 365.071 334.233 365.509 334.056C365.948 333.869 366.405 333.776 366.881 333.776C367.535 333.776 368.076 333.897 368.505 334.14C368.944 334.373 369.271 334.705 369.485 335.134C369.7 335.554 369.807 336.053 369.807 336.632V341H368.757L368.687 339.754C368.594 339.95 368.473 340.137 368.323 340.314C368.183 340.482 368.015 340.631 367.819 340.762C367.623 340.883 367.399 340.981 367.147 341.056C366.905 341.131 366.625 341.168 366.307 341.168ZM366.489 340.174C366.816 340.174 367.11 340.109 367.371 339.978C367.642 339.838 367.871 339.651 368.057 339.418C368.244 339.175 368.384 338.909 368.477 338.62C368.58 338.331 368.631 338.027 368.631 337.71V337.668H366.867C366.41 337.668 366.041 337.724 365.761 337.836C365.481 337.939 365.281 338.088 365.159 338.284C365.038 338.471 364.977 338.685 364.977 338.928C364.977 339.18 365.033 339.399 365.145 339.586C365.267 339.773 365.439 339.917 365.663 340.02C365.897 340.123 366.172 340.174 366.489 340.174ZM372.191 344.08L373.913 340.216H373.507L370.735 333.944H372.009L374.305 339.334L376.713 333.944H377.931L373.423 344.08H372.191Z" fill="#1C3A29"/>
</g>
<path d="M159.333 70.4492L182.493 85.7414L177.217 89.225L159.333 77.4165L141.45 89.225L136.174 85.7414L159.333 70.4492ZM159.333 84.3691L182.493 99.6612L177.217 103.145L159.333 91.3364L141.45 103.145L136.174 99.6612L159.333 84.3691Z" fill="#F9F9F9"/>
<g clip-path="url(#clip1_5233_17953)">
<path d="M143.857 149.581L148.489 121.422C148.873 119.101 149.57 117.096 150.486 115.676C151.402 114.256 152.492 113.49 153.611 113.48H160.695V125.514H153.611L149.633 149.581H162.739L163.72 143.565H160.695V131.531H174.319V143.565H169.551L164.592 173.649H166.417C167.616 160.231 172.711 150.303 179.087 149.642C186.716 148.799 193.391 162.819 193.391 179.666C193.391 196.513 187.397 209.751 179.768 209.751C173.065 209.751 167.643 199.582 166.417 185.683H154.974C153.775 199.101 148.68 209.028 142.304 209.69C134.675 210.473 128 196.513 128 179.606C128 162.758 133.994 149.521 141.623 149.521H143.857V149.581ZM172.084 185.683C173.174 192.723 176.144 197.717 179.768 197.717C184.345 197.717 187.942 189.774 187.942 179.666C187.942 169.558 184.345 161.615 179.768 161.615C176.144 161.615 173.174 166.609 172.084 173.649H179.768V185.683H172.084ZM154.974 173.649H158.788L160.777 161.615H152.522C153.72 165.105 154.592 169.136 154.974 173.649ZM141.623 197.717C146.2 197.717 149.797 189.774 149.797 179.666C149.797 174.07 148.68 169.257 146.936 165.947L144.32 181.832L139.198 177.741L141.841 161.675C141.759 161.675 141.677 161.615 141.596 161.615C137.018 161.615 133.422 169.558 133.422 179.666C133.422 189.774 137.046 197.717 141.623 197.717Z" fill="#F9F9F9"/>
</g>
<defs>
<filter id="filter0_d_5233_17953" x="63.6252" y="423.082" width="198.75" height="282.908" filterUnits="userSpaceOnUse" color-interpolation-filters="sRGB">
<feFlood flood-opacity="0" result="BackgroundImageFix"/>
<feColorMatrix in="SourceAlpha" type="matrix" values="0 0 0 0 0 0 0 0 0 0 0 0 0 0 0 0 0 0 127 0" result="hardAlpha"/>
<feOffset dy="5.91762"/>
<feGaussianBlur stdDeviation="5.91762"/>
<feColorMatrix type="matrix" values="0 0 0 0 0 0 0 0 0 0 0 0 0 0 0 0 0 0 0.15 0"/>
<feBlend mode="normal" in2="BackgroundImageFix" result="effect1_dropShadow_5233_17953"/>
<feBlend mode="normal" in="SourceGraphic" in2="effect1_dropShadow_5233_17953" result="shape"/>
</filter>
<filter id="filter1_d_5233_17953" x="348.625" y="337.082" width="198.75" height="282.908" filterUnits="userSpaceOnUse" color-interpolation-filters="sRGB">
<feFlood flood-opacity="0" result="BackgroundImageFix"/>
<feColorMatrix in="SourceAlpha" type="matrix" values="0 0 0 0 0 0 0 0 0 0 0 0 0 0 0 0 0 0 127 0" result="hardAlpha"/>
<feOffset dy="5.91762"/>
<feGaussianBlur stdDeviation="5.91762"/>
<feColorMatrix type="matrix" values="0 0 0 0 0 0 0 0 0 0 0 0 0 0 0 0 0 0 0.15 0"/>
<feBlend mode="normal" in2="BackgroundImageFix" result="effect1_dropShadow_5233_17953"/>
<feBlend mode="normal" in="SourceGraphic" in2="effect1_dropShadow_5233_17953" result="shape"/>
</filter>
<filter id="filter2_d_5233_17953" x="106.194" y="227.097" width="108.611" height="197.607" filterUnits="userSpaceOnUse" color-interpolation-filters="sRGB">
<feFlood flood-opacity="0" result="BackgroundImageFix"/>
<feColorMatrix in="SourceAlpha" type="matrix" values="0 0 0 0 0 0 0 0 0 0 0 0 0 0 0 0 0 0 127 0" result="hardAlpha"/>
<feOffset dy="5.90278"/>
<feGaussianBlur stdDeviation="5.90278"/>
<feColorMatrix type="matrix" values="0 0 0 0 0 0 0 0 0 0 0 0 0 0 0 0 0 0 0.15 0"/>
<feBlend mode="normal" in2="BackgroundImageFix" result="effect1_dropShadow_5233_17953"/>
<feBlend mode="normal" in="SourceGraphic" in2="effect1_dropShadow_5233_17953" result="shape"/>
</filter>
<filter id="filter3_d_5233_17953" x="348.625" y="55.0824" width="198.75" height="282.908" filterUnits="userSpaceOnUse" color-interpolation-filters="sRGB">
<feFlood flood-opacity="0" result="BackgroundImageFix"/>
<feColorMatrix in="SourceAlpha" type="matrix" values="0 0 0 0 0 0 0 0 0 0 0 0 0 0 0 0 0 0 127 0" result="hardAlpha"/>
<feOffset dy="5.91762"/>
<feGaussianBlur stdDeviation="5.91762"/>
<feColorMatrix type="matrix" values="0 0 0 0 0 0 0 0 0 0 0 0 0 0 0 0 0 0 0.15 0"/>
<feBlend mode="normal" in2="BackgroundImageFix" result="effect1_dropShadow_5233_17953"/>
<feBlend mode="normal" in="SourceGraphic" in2="effect1_dropShadow_5233_17953" result="shape"/>
</filter>
<filter id="filter4_d_5233_17953" x="219" y="275" width="212" height="100" filterUnits="userSpaceOnUse" color-interpolation-filters="sRGB">
<feFlood flood-opacity="0" result="BackgroundImageFix"/>
<feColorMatrix in="SourceAlpha" type="matrix" values="0 0 0 0 0 0 0 0 0 0 0 0 0 0 0 0 0 0 127 0" result="hardAlpha"/>
<feOffset dy="5"/>
<feGaussianBlur stdDeviation="5"/>
<feColorMatrix type="matrix" values="0 0 0 0 0 0 0 0 0 0 0 0 0 0 0 0 0 0 0.15 0"/>
<feBlend mode="normal" in2="BackgroundImageFix" result="effect1_dropShadow_5233_17953"/>
<feBlend mode="normal" in="SourceGraphic" in2="effect1_dropShadow_5233_17953" result="shape"/>
</filter>
<clipPath id="clip0_5233_17953">
<rect width="85" height="173.996" fill="white" transform="translate(118 233)"/>
</clipPath>
<clipPath id="clip1_5233_17953">
<rect width="65.3913" height="144.406" fill="white" transform="matrix(-1 0 0 1 193.391 108.594)"/>
</clipPath>
</defs>
</svg>
