<svg width="129" height="236" viewBox="0 0 129 236" fill="none" xmlns="http://www.w3.org/2000/svg">
<g clip-path="url(#clip0_5911_21469)">
<path d="M71.0801 121.722V151.805" stroke="#969696" stroke-width="6.52053"/>
<path d="M72.6465 175.82H69.5076C65.9527 175.82 63.0708 178.702 63.0708 182.257V229.399C63.0708 232.954 65.9527 235.836 69.5076 235.836H72.6465C76.2015 235.836 79.0834 232.954 79.0834 229.399V182.257C79.0834 178.702 76.2015 175.82 72.6465 175.82Z" fill="#7A7A7A"/>
<path d="M9.64487 86.9655L26.0288 84.4119C28.6096 84.0097 30.3756 81.5915 29.9733 79.0107L29.9721 79.0025C29.5698 76.4217 27.1516 74.6557 24.5709 75.0579L8.18695 77.6115C5.60621 78.0138 3.84018 80.432 4.24242 83.0127L4.24371 83.021C4.64594 85.6017 7.06413 87.3678 9.64487 86.9655Z" fill="#323232"/>
<path d="M9.23001 110.541C14.1474 111.157 18.6324 107.669 19.2476 102.752C19.8628 97.8343 16.3752 93.3492 11.4578 92.734C6.5405 92.1188 2.05548 95.6064 1.44028 100.524C0.825083 105.441 4.31266 109.926 9.23001 110.541Z" fill="#323232"/>
<path d="M15.4506 104.9L13.1057 82.5482C12.8332 79.9505 10.5065 78.0656 7.90885 78.3382L7.90053 78.339C5.30288 78.6115 3.41798 80.9383 3.6905 83.5359L6.03539 105.888C6.30791 108.485 8.63463 110.37 11.2323 110.098L11.2406 110.097C13.8383 109.824 15.7231 107.498 15.4506 104.9Z" fill="#323232"/>
<path d="M101.878 134.329L92.8028 113.567C91.5493 110.7 88.2085 109.391 85.3408 110.645L85.3331 110.648C82.4654 111.901 81.1568 115.242 82.4103 118.11L91.4853 138.872C92.7388 141.74 96.0796 143.048 98.9473 141.795L98.955 141.791C101.823 140.538 103.131 137.197 101.878 134.329Z" fill="#323232"/>
<path d="M101.986 128.102L94.4155 131.411C91.5479 132.665 90.2393 136.005 91.4927 138.873L91.4961 138.881C92.7495 141.748 96.0904 143.057 98.9581 141.804L106.528 138.495C109.396 137.241 110.704 133.9 109.451 131.033L109.448 131.025C108.194 128.157 104.853 126.849 101.986 128.102Z" fill="#323232"/>
<path d="M50.9772 138.867L60.0522 118.105C61.3056 115.238 59.9971 111.897 57.1294 110.644L57.1217 110.64C54.254 109.387 50.9132 110.695 49.6597 113.563L40.5847 134.325C39.3313 137.193 40.6399 140.533 43.5075 141.787L43.5152 141.79C46.3829 143.044 49.7237 141.735 50.9772 138.867Z" fill="#323232"/>
<path d="M35.9378 138.484L43.5078 141.793C46.3755 143.046 49.7163 141.738 50.9698 138.87L50.9731 138.862C52.2266 135.995 50.918 132.654 48.0503 131.4L40.4803 128.092C37.6126 126.838 34.2718 128.147 33.0183 131.014L33.0149 131.022C31.7615 133.89 33.0701 137.231 35.9378 138.484Z" fill="#323232"/>
<path d="M71.0809 120.709C100.353 120.709 124.082 96.9794 124.082 67.7076C124.082 38.4358 100.353 14.7063 71.0809 14.7063C41.8091 14.7063 18.0796 38.4358 18.0796 67.7076C18.0796 96.9794 41.8091 120.709 71.0809 120.709Z" fill="#7A7A7A"/>
<path opacity="0.43" d="M71.0808 96.5103C86.988 96.5103 99.8834 83.615 99.8834 67.7078C99.8834 51.8006 86.988 38.9053 71.0808 38.9053C55.1736 38.9053 42.2783 51.8006 42.2783 67.7078C42.2783 83.615 55.1736 96.5103 71.0808 96.5103Z" stroke="#DFDFDF" stroke-width="4.18519" stroke-miterlimit="10"/>
<path opacity="0.43" d="M71.0808 89.6968C83.225 89.6968 93.0698 79.852 93.0698 67.7078C93.0698 55.5636 83.225 45.7188 71.0808 45.7188C58.9366 45.7188 49.0918 55.5636 49.0918 67.7078C49.0918 79.852 58.9366 89.6968 71.0808 89.6968Z" fill="#DFDFDF"/>
<path opacity="0.2" d="M124.081 67.7075C124.081 96.9788 100.351 120.709 71.08 120.709C56.1221 120.709 42.6206 114.515 32.9863 104.546C41.1726 109.719 50.8655 112.715 61.2615 112.715C90.5328 112.715 114.254 88.9851 114.254 59.7138C114.254 45.4004 108.588 32.4096 99.3551 22.8757C114.213 32.2589 124.081 48.8323 124.081 67.7075Z" fill="#585858"/>
<path d="M119.034 69.2898C118.23 93.3881 99.6563 112.983 75.9932 115.386" stroke="#606060" stroke-width="4.18519" stroke-miterlimit="10" stroke-linecap="round"/>
<path d="M111.761 72.437C109.828 89.0522 97.95 102.629 82.2388 107.065" stroke="#606060" stroke-width="4.18519" stroke-miterlimit="10" stroke-linecap="round"/>
<path d="M23.1196 66.1253C23.9232 42.0269 42.4971 22.4318 66.1602 20.0295" stroke="#606060" stroke-width="4.18519" stroke-miterlimit="10" stroke-linecap="round"/>
<path d="M30.3936 62.9784C32.3271 46.3632 44.2047 32.7864 59.9159 28.3501" stroke="#606060" stroke-width="4.18519" stroke-miterlimit="10" stroke-linecap="round"/>
<path d="M81.4006 115.812H60.7509C56.7382 115.812 53.4854 119.065 53.4854 123.078V123.086C53.4854 127.099 56.7382 130.352 60.7509 130.352H81.4006C85.4132 130.352 88.6661 127.099 88.6661 123.086V123.078C88.6661 119.065 85.4132 115.812 81.4006 115.812Z" fill="#D3D3D3"/>
<path d="M71.0814 139.233C76.5808 139.233 81.0506 143.703 81.0506 149.202V187.053H61.1123V149.202C61.1123 143.703 65.5821 139.233 71.0814 139.233Z" fill="#C0C0C0"/>
<path d="M122.208 65.3477C107.568 67.5407 90.4254 69.1479 71.2656 69.1562C51.9467 69.1646 34.6786 67.5491 19.9551 65.3477C19.6454 65.3477 18.0048 65.3142 16.6822 64.067C15.8452 63.2718 15.3179 62.1837 15.3179 60.9784V53.9472C15.3179 51.5449 17.4021 49.5779 19.9551 49.5779H122.208C124.752 49.5779 126.845 51.5449 126.845 53.9472V60.9784C126.845 63.3807 124.761 65.3477 122.208 65.3477Z" fill="#4D4D4D"/>
<path d="M18.1626 57.4625C15.4339 57.4625 13.2492 55.1606 13.4836 52.457C16.07 23.2443 41.0556 -0.000244141 71.0802 -0.000244141C101.105 -0.000244141 126.082 23.2443 128.668 52.457C128.911 55.1523 126.718 57.4625 123.989 57.4625H18.1626Z" fill="#C1C1C1"/>
</g>
<defs>
<clipPath id="clip0_5911_21469">
<rect width="128" height="235.836" fill="white" transform="translate(0.685059)"/>
</clipPath>
</defs>
</svg>
