<svg width="44" height="44" viewBox="0 0 44 44" fill="none" xmlns="http://www.w3.org/2000/svg">
<path d="M9.43457 16.2917C11.7651 16.2917 13.2538 17.595 13.3936 19.3044L13.4023 19.4128H11.4785L11.4629 19.3328C11.3026 18.5314 10.5803 17.9559 9.41895 17.9558C8.80136 17.9558 8.30758 18.1168 7.9707 18.3835C7.63577 18.6489 7.44923 19.0235 7.44922 19.4685C7.44922 19.7909 7.56913 20.0583 7.80078 20.2742C8.03519 20.4926 8.3885 20.6622 8.8584 20.7742H8.85938L10.6172 21.2068L10.9502 21.2957C11.709 21.5153 12.3252 21.8254 12.7666 22.2625C13.2738 22.7649 13.5419 23.4271 13.542 24.2869C13.542 25.3039 13.1442 26.159 12.4082 26.7576C11.6741 27.3544 10.6114 27.6902 9.29199 27.6902C8.02386 27.6901 7.02789 27.3541 6.33105 26.7908C5.67701 26.262 5.29254 25.5378 5.19336 24.7205L5.17773 24.5554L5.16992 24.448H7.11523L7.13086 24.5291C7.29362 25.3954 8.12597 26.0144 9.42676 26.0144C10.1166 26.0144 10.6508 25.8525 11.0098 25.5789C11.3657 25.3074 11.5576 24.9202 11.5576 24.448C11.5575 24.0673 11.4314 23.782 11.1729 23.5554C10.9088 23.3241 10.4995 23.1483 9.92188 23.0085H9.9209L8.15918 22.5671V22.5681C7.32653 22.3675 6.64988 22.0167 6.18066 21.5144C5.7099 21.0104 5.4541 20.3596 5.4541 19.573C5.4542 18.5938 5.86971 17.77 6.57812 17.1931C7.28497 16.6177 8.27859 16.2918 9.43457 16.2917ZM21.752 16.5251V18.2517H18.6025V27.4753H16.6152V18.2566H13.4736V16.5251H21.752Z" fill="#1C3A29" stroke="#1C3A29" stroke-width="0.2"/>
<path d="M26.0181 16.3186C27.4194 16.3186 28.5641 16.7795 29.3569 17.637C30.1313 18.4748 30.5593 19.6802 30.5776 21.1741H30.5825V22.7366C30.5825 24.2744 30.1497 25.5136 29.3569 26.3694C28.5631 27.2261 27.4181 27.6877 26.0181 27.6877C24.617 27.6877 23.4707 27.2267 22.6753 26.3704C21.8806 25.5146 21.4468 24.2747 21.4468 22.7366V21.2747L21.4517 20.9885C21.5022 19.5762 21.9302 18.4351 22.6753 17.6331C23.4708 16.7769 24.6171 16.3187 26.0181 16.3186ZM35.8872 16.5276C37.0121 16.5277 37.9233 16.9058 38.5532 17.5461C39.1826 18.1861 39.5239 19.0805 39.5239 20.0999C39.5239 21.1263 39.1786 22.0192 38.5454 22.6555C37.912 23.292 36.9979 23.6643 35.8735 23.6643H33.6489V27.4749H31.6616V16.5276H35.8872ZM26.0181 18.0422C25.2746 18.0423 24.6384 18.3062 24.187 18.8323C23.7344 19.3601 23.4576 20.1632 23.4575 21.2581V22.7444C23.4575 23.8439 23.735 24.6491 24.188 25.178C24.6394 25.705 25.2747 25.9689 26.0181 25.969C26.7518 25.969 27.3864 25.7047 27.8384 25.177C28.2917 24.6476 28.5708 23.8421 28.5708 22.7444V21.2581C28.5707 20.1633 28.2915 19.3602 27.8384 18.8323C27.3864 18.3059 26.7519 18.0422 26.0181 18.0422ZM33.6411 21.9993H35.6206C36.2232 21.9993 36.6894 21.823 37.0044 21.5051C37.3194 21.1872 37.4966 20.715 37.4966 20.0999C37.4965 19.4848 37.3192 19.0153 37.0044 18.6995C36.6895 18.3836 36.2235 18.2083 35.6206 18.2083H33.6411V21.9993Z" fill="#1C3A29" stroke="#1C3A29" stroke-width="0.2"/>
<path d="M30.6494 0.400391L30.792 0.407227C31.1219 0.439918 31.4322 0.585214 31.6689 0.821289L43.4785 12.6309L43.5742 12.7363C43.784 12.993 43.8993 13.316 43.8994 13.6504V30.3496L43.8926 30.4922C43.8646 30.775 43.7541 31.0436 43.5742 31.2637L43.4785 31.3691L31.6689 43.1787C31.4322 43.4148 31.1219 43.5601 30.792 43.5928L30.6494 43.5996H13.9502C13.6159 43.5995 13.2928 43.4842 13.0361 43.2744L12.9307 43.1787L1.12109 31.3691C0.851363 31.0986 0.700276 30.7317 0.700195 30.3496V13.6504L0.707031 13.5078C0.739723 13.1779 0.885019 12.8677 1.12109 12.6309L12.9307 0.821289L13.0361 0.725586C13.2928 0.515826 13.6159 0.400462 13.9502 0.400391H30.6494ZM3.58691 14.248V29.752L14.5479 40.7129H30.0518L41.0127 29.752V14.248L30.0518 3.28711H14.5479L3.58691 14.248Z" fill="#1C3A29" stroke="#1C3A29" stroke-width="0.2"/>
</svg>
