<svg width="232" height="232" viewBox="0 0 232 232" fill="none" xmlns="http://www.w3.org/2000/svg">
<path opacity="0.2" d="M113.166 232C152.909 232 185.127 225.182 185.127 216.772C185.127 208.362 152.909 201.544 113.166 201.544C73.4238 201.544 41.2061 208.362 41.2061 216.772C41.2061 225.182 73.4238 232 113.166 232Z" fill="#3D3D60"/>
<path d="M103.504 210.955V171.088C103.504 165.582 99.178 161.118 93.8416 161.118H93.8274C88.491 161.118 84.1651 165.582 84.1651 171.088V210.955C84.1651 216.462 88.491 220.926 93.8274 220.926H93.8416C99.178 220.926 103.504 216.462 103.504 210.955Z" fill="#171759"/>
<path d="M79.755 220.926H93.8416C99.1779 220.926 103.504 216.462 103.504 210.956V210.941C103.504 205.435 99.1779 200.971 93.8416 200.971H79.755C74.4187 200.971 70.0927 205.435 70.0927 210.941V210.956C70.0927 216.462 74.4187 220.926 79.755 220.926Z" fill="#171759"/>
<path d="M148.662 201.788L134.195 164.822C132.197 159.716 126.566 157.248 121.618 159.31L121.605 159.315C116.656 161.377 114.265 167.188 116.263 172.294L130.73 209.26C132.728 214.366 138.359 216.834 143.307 214.772L143.32 214.767C148.269 212.705 150.66 206.894 148.662 201.788Z" fill="#171759"/>
<path d="M130.316 220.151L143.378 214.708C148.326 212.647 150.717 206.836 148.719 201.73L148.714 201.716C146.715 196.61 141.084 194.143 136.136 196.205L123.074 201.648C118.126 203.709 115.735 209.52 117.733 214.626L117.738 214.64C119.737 219.746 125.368 222.213 130.316 220.151Z" fill="#171759"/>
<path d="M106.644 186.507C156.555 186.507 197.015 144.756 197.015 93.2537C197.015 41.7511 156.555 0 106.644 0C56.7331 0 16.2725 41.7511 16.2725 93.2537C16.2725 144.756 56.7331 186.507 106.644 186.507Z" fill="#62657A"/>
<path d="M100.935 142.458C128.058 142.458 150.045 119.769 150.045 91.7814C150.045 63.7933 128.058 41.1045 100.935 41.1045C73.8118 41.1045 51.8242 63.7933 51.8242 91.7814C51.8242 119.769 73.8118 142.458 100.935 142.458Z" stroke="#D3D3DD" stroke-width="9.84288" stroke-miterlimit="10"/>
<path d="M100.935 130.469C121.642 130.469 138.428 113.148 138.428 91.7806C138.428 70.4134 121.642 53.0918 100.935 53.0918C80.2286 53.0918 63.4424 70.4134 63.4424 91.7806C63.4424 113.148 80.2286 130.469 100.935 130.469Z" fill="#D3D3DD"/>
<path opacity="0.2" d="M197.016 93.2533C197.016 144.755 156.554 186.507 106.644 186.507C81.1397 186.507 58.1187 175.609 41.6914 158.068C55.6496 167.17 72.1768 172.442 89.9028 172.442C139.813 172.442 180.26 130.69 180.26 79.1887C180.26 54.0049 170.598 31.148 154.856 14.3735C180.189 30.8829 197.016 60.0431 197.016 93.2533Z" fill="#3D3D60"/>
<path d="M188.423 96.0374C187.053 138.437 155.383 172.914 115.035 177.141" stroke="#4E4E68" stroke-width="9.84288" stroke-miterlimit="10" stroke-linecap="round"/>
<path d="M176.021 101.576C172.724 130.81 152.471 154.698 125.683 162.503" stroke="#4E4E68" stroke-width="9.84288" stroke-miterlimit="10" stroke-linecap="round"/>
<path d="M24.8779 90.4708C26.2481 48.0707 57.918 13.5939 98.2655 9.36719" stroke="#4E4E68" stroke-width="9.84288" stroke-miterlimit="10" stroke-linecap="round"/>
<path d="M37.2803 84.9183C40.5771 55.6845 60.8294 31.7967 87.6183 23.9912" stroke="#4E4E68" stroke-width="9.84288" stroke-miterlimit="10" stroke-linecap="round"/>
<path d="M152.811 134.735L158.858 143.598L215.573 102.391L209.525 93.528L152.811 134.735Z" fill="#FFBC00"/>
<path d="M146.776 125.867L152.823 134.73L209.538 93.5227L203.49 84.6599L146.776 125.867Z" fill="#FFD815"/>
<path d="M203.488 84.672L215.575 102.385L221.9 97.79L209.813 80.0765L203.488 84.672Z" fill="#DBD9E2"/>
<path d="M221.906 97.7893L209.819 80.0759L215.222 76.1502C217.813 74.2679 221.393 74.9092 223.217 77.5824L228.697 85.6144C230.521 88.2877 229.9 91.9813 227.309 93.8636L221.906 97.7893Z" fill="#FF558A"/>
<path d="M146.807 125.86L158.895 143.577L148.534 145.757L141.326 135.197L146.807 125.86Z" fill="#FFE7C5"/>
<path d="M141.325 135.197L148.533 145.757L138.956 147.76C136.787 148.216 135.117 145.772 136.273 143.828L141.325 135.197Z" fill="#171759"/>
<path d="M193.561 141.943C202.011 141.943 208.861 134.875 208.861 126.156C208.861 117.436 202.011 110.368 193.561 110.368C185.112 110.368 178.262 117.436 178.262 126.156C178.262 134.875 185.112 141.943 193.561 141.943Z" fill="#171759"/>
<path d="M79.6553 94.8587V91.0885C79.6553 87.4527 76.799 84.5054 73.2756 84.5054C69.7522 84.5054 66.8959 87.4527 66.8959 91.0885V94.8587C66.8959 98.4945 69.7522 101.442 73.2756 101.442C76.799 101.442 79.6553 98.4945 79.6553 94.8587Z" fill="#171759"/>
<path d="M126.882 94.8587V91.0885C126.882 87.4527 124.026 84.5054 120.502 84.5054C116.979 84.5054 114.123 87.4527 114.123 91.0885V94.8587C114.123 98.4945 116.979 101.442 120.502 101.442C124.026 101.442 126.882 98.4945 126.882 94.8587Z" fill="#171759"/>
<path d="M86.791 102.827C87.6473 107.761 91.8291 111.516 96.8815 111.516C101.934 111.516 106.116 107.761 106.972 102.827" stroke="#171759" stroke-width="7.28373" stroke-linecap="round" stroke-linejoin="round"/>
<path d="M73.2324 178.717L28.5034 187.774C26.5053 188.172 24.4358 186.876 23.865 184.887L7.62321 127.421C7.05232 125.418 8.22265 123.474 10.2208 123.062L54.9498 114.005C56.9479 113.607 59.0173 114.903 59.5882 116.891L75.83 174.357C76.4008 176.36 75.2305 178.304 73.2324 178.717Z" fill="#C2E9F9"/>
<path d="M69.3506 179.498L24.6216 188.555C22.6235 188.953 20.554 187.657 19.9831 185.668L3.74137 128.202C3.17048 126.199 4.34081 124.255 6.33892 123.843L51.0679 114.786C53.066 114.388 55.1355 115.684 55.7064 117.672L71.9481 175.138C72.519 177.141 71.3487 179.085 69.3506 179.498Z" fill="#F3FDFF"/>
<path d="M70.977 180.881L23.2651 190.543C21.267 190.94 19.1975 189.644 18.6266 187.656L2.38493 130.19C1.81404 128.187 2.98433 126.243 4.98243 125.831L52.6944 116.169C54.6925 115.772 56.7619 117.068 57.3328 119.056L73.5745 176.522C74.1454 178.525 72.9751 180.469 70.977 180.881Z" fill="#3A6DED"/>
<path d="M68.7368 181.339L21.0249 191C19.0268 191.398 16.9573 190.102 16.3864 188.114L0.14469 130.648C-0.426197 128.645 0.744132 126.701 2.74224 126.288L50.4541 116.627C52.4522 116.23 54.5217 117.526 55.0926 119.514L71.3343 176.98C71.9052 178.983 70.7349 180.927 68.7368 181.339Z" fill="#5086FF"/>
<path d="M42.6902 126.155L14.0744 131.943C12.0763 132.341 10.0069 131.045 9.43597 129.056L9.15055 128.026C8.57966 126.023 9.74999 124.079 11.7481 123.666L40.3638 117.878C42.3619 117.481 44.4314 118.777 45.0023 120.765L45.2877 121.796C45.8586 123.799 44.6883 125.743 42.6902 126.155Z" fill="#3A6DED"/>
<path d="M42.1902 124.418L13.5745 130.206C11.5764 130.603 9.5069 129.307 8.93601 127.319L8.65055 126.288C8.07966 124.285 9.24999 122.341 11.2481 121.929L39.8638 116.141C41.8619 115.743 43.9314 117.039 44.5023 119.028L44.7877 120.059C45.3586 122.061 44.1883 124.005 42.1902 124.418Z" fill="#AAB0BA"/>
</svg>
