<svg width="119" height="109" viewBox="0 0 119 109" fill="none" xmlns="http://www.w3.org/2000/svg">
<path opacity="0.2" d="M63.9299 108.567C82.253 108.567 97.1068 105.52 97.1068 101.763C97.1068 98.0052 82.253 94.959 63.9299 94.959C45.6067 94.959 30.7529 98.0052 30.7529 101.763C30.7529 105.52 45.6067 108.567 63.9299 108.567Z" fill="#3D3D60"/>
<path d="M102.371 81.3445C103.588 83.2395 104.299 85.4899 104.299 87.8983C104.299 91.2475 102.923 94.3007 100.719 96.505C100.305 96.9262 99.8637 97.3078 99.3899 97.6566C98.9227 98.0053 98.4292 98.3212 97.916 98.6107C96.192 99.5516 94.2114 100.085 92.1189 100.085H35.7536C29.0485 100.085 23.5673 94.6034 23.5673 87.8983C23.5673 85.4899 24.2713 83.2395 25.4952 81.3445C23.4159 76.3896 22.271 70.9545 22.271 65.2561C22.271 42.2454 40.919 23.5908 63.9297 23.5908C72.1022 23.5908 79.7285 25.9465 86.1573 30.013C86.1705 30.0196 86.1836 30.0327 86.1968 30.0393C86.5389 30.2565 86.8811 30.4802 87.2233 30.7105C87.4996 30.8947 87.776 31.0856 88.0458 31.283C88.2564 31.4277 88.4669 31.5791 88.6709 31.737C88.7894 31.8225 88.9078 31.9081 89.0262 32.0002C89.2368 32.1515 89.4408 32.316 89.6448 32.474C89.9145 32.6845 90.1712 32.8951 90.4344 33.1057C90.7371 33.3557 91.0332 33.6123 91.3293 33.869C91.5596 34.0729 91.7899 34.2703 92.0136 34.4875C92.2373 34.6849 92.4545 34.8889 92.6716 35.0994C92.9743 35.3824 93.277 35.6785 93.5665 35.9812C93.8955 36.3036 94.2114 36.6392 94.5141 36.9748C94.6851 37.1524 94.8496 37.3301 95.001 37.5078C95.2708 37.7973 95.5208 38.0868 95.7709 38.3895C95.8169 38.4356 95.8564 38.4882 95.9024 38.5408C96.0604 38.7251 96.2117 38.9093 96.3565 39.1001C96.4749 39.2449 96.5934 39.3897 96.7052 39.5344C96.9158 39.7976 97.1264 40.0674 97.3238 40.3438C97.4948 40.5675 97.6659 40.8044 97.8304 41.0347C97.8765 41.0939 97.916 41.1531 97.9489 41.2124C98.1002 41.4098 98.2384 41.6072 98.37 41.8112C98.4621 41.9362 98.5542 42.0678 98.6332 42.1994C98.7582 42.3836 98.8832 42.5744 99.0083 42.7653C99.2188 43.0877 99.4228 43.4233 99.6268 43.7589C99.8176 44.0681 100.002 44.384 100.18 44.7064C100.245 44.8117 100.305 44.9235 100.364 45.0354C100.528 45.3184 100.68 45.6079 100.831 45.8974C100.963 46.1474 101.094 46.4041 101.219 46.6607C101.311 46.8384 101.397 47.016 101.482 47.1937C101.706 47.6477 101.917 48.1017 102.107 48.5623C102.252 48.8716 102.384 49.1875 102.509 49.5033C102.522 49.5165 102.529 49.5362 102.529 49.5494C102.68 49.9113 102.818 50.2666 102.956 50.6351C103.141 51.122 103.318 51.6221 103.476 52.1222C103.595 52.4578 103.7 52.7999 103.805 53.1421C103.831 53.2211 103.851 53.3 103.878 53.3856C103.976 53.708 104.068 54.0436 104.16 54.3726C104.18 54.4515 104.2 54.5305 104.22 54.6095C104.325 55.0109 104.43 55.4122 104.522 55.8202C104.634 56.3071 104.74 56.8072 104.832 57.3007C104.891 57.5903 104.944 57.8864 104.99 58.1759C105.029 58.3601 105.055 58.5444 105.082 58.7286C105.115 58.9194 105.148 59.1103 105.167 59.3011C105.2 59.5117 105.233 59.7222 105.259 59.9328C105.312 60.3539 105.358 60.7816 105.398 61.2027C105.444 61.6305 105.477 62.0647 105.503 62.4924C105.529 62.8478 105.549 63.1965 105.555 63.5518C105.569 63.7295 105.575 63.9072 105.575 64.0914C105.588 64.4796 105.595 64.8679 105.595 65.2561C105.595 69.5332 104.95 73.6523 103.753 77.5412C103.549 78.186 103.338 78.8309 103.108 79.4626C102.884 80.0942 102.634 80.7194 102.377 81.3379H102.371V81.3445Z" fill="#62657A"/>
<path d="M63.9293 90.5236C76.4342 90.5236 86.5714 80.3863 86.5714 67.8814C86.5714 55.3765 76.4342 45.2393 63.9293 45.2393C51.4244 45.2393 41.2871 55.3765 41.2871 67.8814C41.2871 80.3863 51.4244 90.5236 63.9293 90.5236Z" stroke="#D3D3DD" stroke-width="3.29006" stroke-miterlimit="10"/>
<path d="M63.93 85.1676C73.4768 85.1676 81.2159 77.4284 81.2159 67.8817C81.2159 58.3349 73.4768 50.5957 63.93 50.5957C54.3832 50.5957 46.644 58.3349 46.644 67.8817C46.644 77.4284 54.3832 85.1676 63.93 85.1676Z" fill="#D3D3DD"/>
<path opacity="0.2" d="M102.37 81.3442C103.588 83.2392 104.298 85.4896 104.298 87.8979C104.298 91.2472 102.923 94.3004 100.719 96.5047C100.304 96.9259 99.8633 97.3075 99.3895 97.6562C98.9223 98.0116 98.4288 98.3274 97.9155 98.6104C96.1915 99.5513 94.2109 100.084 92.1184 100.084H82.9326C85.8081 99.3144 88.3875 97.7878 90.4339 95.7349C93.4674 92.6948 95.3559 88.5099 95.3559 83.9038C95.3559 81.4692 94.8295 79.1596 93.8753 77.0671C93.8622 77.021 93.8359 76.9684 93.8161 76.9223C93.9806 76.5867 94.132 76.2511 94.2833 75.909C94.3294 75.8103 94.3688 75.7116 94.4149 75.6129C96.6324 70.5199 97.8695 64.8939 97.8695 58.9718C97.8695 47.7198 93.4147 37.5074 86.1569 30.0127C86.17 30.0193 86.1832 30.0324 86.1963 30.039C86.5385 30.2562 86.8807 30.4799 87.2228 30.7102C87.4992 30.8944 87.7756 31.0853 88.0454 31.2827C88.2559 31.4274 88.4665 31.5788 88.6705 31.7367C88.7889 31.8222 88.9074 31.9078 89.0258 31.9999C89.2364 32.1512 89.4403 32.3157 89.6443 32.4737C89.9141 32.6842 90.1707 32.8948 90.4339 33.1053C90.7366 33.3554 91.0327 33.612 91.3288 33.8686C91.5592 34.0726 91.7894 34.27 92.0132 34.4872C92.2369 34.6846 92.454 34.8886 92.6712 35.0991C92.9739 35.3821 93.2766 35.6782 93.5661 35.9809C93.9017 36.3099 94.2175 36.6389 94.5136 36.9745C94.6847 37.1521 94.8492 37.3298 95.0005 37.5074C95.2703 37.797 95.5204 38.0865 95.7704 38.3892C95.8165 38.4352 95.856 38.4879 95.902 38.5405C96.0599 38.7248 96.2113 38.909 96.356 39.0998C96.4745 39.2446 96.5929 39.3894 96.7048 39.5341C96.9153 39.7973 97.1259 40.0671 97.3233 40.3435C97.4944 40.5672 97.6655 40.8041 97.83 41.0344C97.876 41.0936 97.9155 41.1528 97.9484 41.212C98.0998 41.4094 98.238 41.6069 98.3696 41.8108C98.4617 41.9359 98.5538 42.0675 98.6328 42.1991C98.7578 42.3833 98.8828 42.5741 99.0078 42.765C99.2184 43.0874 99.4224 43.423 99.6264 43.7585C99.8172 44.0678 100.001 44.3837 100.179 44.7061C100.245 44.8114 100.304 44.9232 100.363 45.0351C100.528 45.318 100.679 45.6076 100.831 45.8971C100.962 46.1471 101.094 46.4038 101.219 46.6604C101.311 46.838 101.396 47.0157 101.482 47.1934C101.706 47.6474 101.916 48.1014 102.107 48.562C102.252 48.8713 102.383 49.1871 102.508 49.503C102.522 49.5161 102.528 49.5359 102.528 49.549C102.68 49.911 102.818 50.2663 102.956 50.6348C103.14 51.1217 103.318 51.6218 103.476 52.1219C103.594 52.4575 103.699 52.7996 103.805 53.1418C103.831 53.2208 103.851 53.2997 103.877 53.3853C103.976 53.7077 104.068 54.0433 104.16 54.3723C104.18 54.4512 104.2 54.5302 104.219 54.6092C104.325 55.0105 104.43 55.4119 104.522 55.8199C104.634 56.3068 104.739 56.8069 104.831 57.3004C104.89 57.5899 104.943 57.886 104.989 58.1756C105.029 58.3598 105.055 58.5441 105.081 58.7283C105.114 58.9191 105.147 59.11 105.167 59.3008C105.2 59.5113 105.233 59.7219 105.259 59.9325C105.312 60.3536 105.358 60.7813 105.397 61.2024C105.443 61.6301 105.476 62.0644 105.502 62.4921C105.529 62.8475 105.548 63.1962 105.555 63.5515C105.568 63.7292 105.575 63.9069 105.575 64.0911C105.588 64.4793 105.595 64.8675 105.595 65.2558C105.595 69.5328 104.95 73.652 103.752 77.5408C103.555 78.1857 103.338 78.824 103.107 79.4622C102.884 80.0939 102.633 80.719 102.377 81.3376H102.37V81.3442Z" fill="#3D3D60"/>
<path d="M101.634 66.499C101.443 72.2829 99.9425 77.7444 97.4224 82.5874" stroke="#4E4E68" stroke-width="3.29006" stroke-miterlimit="10" stroke-linecap="round"/>
<path d="M95.9154 68.9736C95.3364 73.9482 93.6255 78.574 91.0396 82.5879" stroke="#4E4E68" stroke-width="3.29006" stroke-miterlimit="10" stroke-linecap="round"/>
<path d="M26.2319 64.0121C26.8636 45.0679 41.4649 29.6639 60.0669 27.7754" stroke="#4E4E68" stroke-width="3.29006" stroke-miterlimit="10" stroke-linecap="round"/>
<path d="M31.9502 61.5315C33.4702 48.47 42.8074 37.797 55.1583 34.3096" stroke="#4E4E68" stroke-width="3.29006" stroke-miterlimit="10" stroke-linecap="round"/>
<path d="M76.2932 71.4023V76.6072C76.2932 77.7785 75.3325 78.7392 74.1612 78.7392C72.99 78.7392 72.0293 77.7785 72.0293 76.6072V71.4089C72.0293 71.4089 72.0622 71.4484 72.0819 71.4681C72.1214 71.5076 72.1609 71.5471 72.2004 71.58C72.7136 72.0472 73.4045 72.3301 74.1547 72.3301C75.0035 72.3301 75.7602 71.9748 76.2932 71.4023Z" fill="#0098FF"/>
<path d="M74.161 78.0282C74.946 78.0282 75.5823 77.3918 75.5823 76.6068C75.5823 75.8219 74.946 75.1855 74.161 75.1855C73.3761 75.1855 72.7397 75.8219 72.7397 76.6068C72.7397 77.3918 73.3761 78.0282 74.161 78.0282Z" fill="#0B7AFF"/>
<path d="M73.3589 76.2511C73.726 76.2511 74.0235 75.9535 74.0235 75.5865C74.0235 75.2194 73.726 74.9219 73.3589 74.9219C72.9919 74.9219 72.6943 75.2194 72.6943 75.5865C72.6943 75.9535 72.9919 76.2511 73.3589 76.2511Z" fill="#C2F4FF"/>
<path d="M56.6439 69.3877C56.6439 71.013 55.3278 72.329 53.7025 72.329C52.0773 72.329 50.7612 71.013 50.7612 69.3877" stroke="#171759" stroke-width="2.63204" stroke-miterlimit="10" stroke-linecap="round"/>
<path d="M77.0948 69.3945C77.0948 70.1118 76.8382 70.7698 76.4105 71.2764C76.371 71.3225 76.3381 71.362 76.292 71.4015C75.759 71.9739 75.0023 72.3293 74.1535 72.3293C73.4034 72.3293 72.7124 72.0463 72.1992 71.5791C72.1597 71.5462 72.1202 71.5067 72.0808 71.4673C72.061 71.4475 72.0413 71.4278 72.0281 71.408C71.5214 70.8882 71.2188 70.1776 71.2188 69.3945" stroke="#171759" stroke-width="2.63204" stroke-miterlimit="10" stroke-linecap="round"/>
<path d="M59.2832 78.3637C59.678 76.1594 61.606 74.4814 63.9353 74.4814C66.2647 74.4814 68.1927 76.1594 68.5875 78.3637" stroke="#171759" stroke-width="2.43464" stroke-linecap="round" stroke-linejoin="round"/>
<path d="M50.4201 98.6535L49.2976 95.0954C48.3277 92.0213 45.0495 90.3155 41.9754 91.2854L41.9691 91.2873C38.895 92.2572 37.1892 95.5354 38.159 98.6095L39.2816 102.168C40.2514 105.242 43.5297 106.947 46.6038 105.978L46.61 105.976C49.6841 105.006 51.3899 101.728 50.4201 98.6535Z" fill="#171759"/>
<path d="M88.5711 102.186L89.6936 98.6276C90.6635 95.5536 88.9577 92.2753 85.8836 91.3055L85.8773 91.3035C82.8032 90.3336 79.525 92.0395 78.5551 95.1135L77.4326 98.6716C76.4628 101.746 78.1686 105.024 81.2427 105.994L81.2489 105.996C84.323 106.966 87.6013 105.26 88.5711 102.186Z" fill="#171759"/>
<path d="M112.188 22.3743L111.359 22.3414C111.103 22.3283 110.886 22.5059 110.833 22.756L110.675 23.5653C109.609 29.0597 102.825 30.1125 99.8113 26.3421C99.6204 26.1052 99.2585 26.1052 99.048 26.329L93.9023 31.9089C92.9284 32.9683 91.2308 31.8102 91.8625 30.5205L95.2183 23.5982C95.3565 23.3087 95.1986 22.9468 94.8828 22.881C89.9345 21.815 88.0789 14.8269 92.889 11.6685L93.5799 11.2145C93.7904 11.0763 93.8694 10.7999 93.7641 10.5696L93.422 9.82605C90.6517 3.89737 97.7714 -1.70888 102.884 2.37079L103.522 2.88404C103.72 3.04196 104.009 3.0288 104.194 2.85771L104.792 2.29841C109.57 -2.15633 117.104 2.87746 114.807 9.00354L114.518 9.77341C114.426 10.0103 114.524 10.2801 114.748 10.4051L115.465 10.7999C121.183 13.9649 118.722 22.6836 112.195 22.3875L112.188 22.3743Z" fill="#B6E3FF"/>
<path d="M84.4463 31.0667L87.381 27.1055C87.6837 28.9874 87.993 30.8759 88.2957 32.7578C90.7106 32.3498 93.132 31.9353 95.5469 31.5273C94.8823 33.0144 94.2243 34.4949 93.5597 35.982C94.7705 36.5545 95.9747 37.1336 97.1854 37.706L94.0072 40.042" fill="#62657A"/>
<path d="M84.4463 31.0667L87.381 27.1055C87.6837 28.9874 87.993 30.8759 88.2957 32.7578C90.7106 32.3498 93.132 31.9353 95.5469 31.5273C94.8823 33.0144 94.2243 34.4949 93.5597 35.982C94.7705 36.5545 95.9747 37.1336 97.1854 37.706L94.0072 40.042" stroke="#4E4E68" stroke-width="2.63204" stroke-linecap="round" stroke-linejoin="round"/>
<rect y="54.9932" width="26.3553" height="35.3265" rx="2.81381" transform="rotate(-13.1081 0 54.9932)" fill="#FCCC5D"/>
<path d="M7.71115 63.6915L6.95687 60.4522L5.83875 60.7126L5.69963 60.1152L8.67581 59.4221L8.81493 60.0196L7.69681 60.2799L8.45109 63.5192L7.71115 63.6915ZM10.2354 63.1037L9.56404 60.2207L10.304 60.0484L10.9753 62.9314L10.2354 63.1037ZM9.85762 59.7941C9.72242 59.8256 9.60387 59.8128 9.50196 59.7556C9.3992 59.6948 9.33378 59.6041 9.3057 59.4835C9.27762 59.3629 9.29667 59.2545 9.36284 59.1582C9.42817 59.0582 9.52843 58.9925 9.66363 58.961C9.79882 58.9295 9.9178 58.9442 10.0206 59.005C10.1261 59.0613 10.1929 59.1498 10.221 59.2703C10.2491 59.3909 10.2287 59.5016 10.1597 59.6024C10.0935 59.6987 9.99282 59.7626 9.85762 59.7941ZM13.2011 62.4825C12.9234 62.5471 12.6618 62.5406 12.4165 62.4629C12.1748 62.3844 11.9677 62.2477 11.7952 62.0529C11.6227 61.8581 11.5037 61.62 11.4382 61.3386C11.3667 61.0317 11.3645 60.7491 11.4314 60.4908C11.4984 60.2325 11.623 60.0148 11.8051 59.8375C11.9901 59.6558 12.2214 59.5326 12.4991 59.4679C12.8572 59.3845 13.179 59.4098 13.4644 59.5436C13.7498 59.6775 13.9663 59.9044 14.114 60.2244L13.3303 60.4069C13.2659 60.2794 13.1714 60.1878 13.0467 60.132C12.9257 60.0755 12.7902 60.0646 12.6404 60.0995C12.5016 60.1319 12.3913 60.196 12.3097 60.2921C12.2272 60.3845 12.1757 60.5024 12.1552 60.6459C12.1338 60.7857 12.1444 60.9469 12.1869 61.1296C12.2184 61.2648 12.2615 61.3838 12.3163 61.4866C12.371 61.5895 12.4347 61.6729 12.5074 61.7368C12.5792 61.7971 12.66 61.838 12.7498 61.8595C12.8432 61.8801 12.9429 61.8781 13.0488 61.8534C13.1511 61.8296 13.2368 61.7923 13.3059 61.7416C13.3778 61.6863 13.4335 61.6194 13.473 61.5409C13.5116 61.4587 13.5313 61.3694 13.5319 61.2729L14.3157 61.0904C14.3257 61.4309 14.2312 61.7284 14.0323 61.9827C13.8326 62.2333 13.5555 62.3999 13.2011 62.4825ZM17.1227 61.5L15.5982 60.2139L16.3691 58.6361L17.2461 58.4319L16.2342 60.3894L16.0977 59.803L18.0435 61.2856L17.1227 61.5ZM15.3304 61.9173L14.4115 57.971L15.1514 57.7987L16.0703 61.745L15.3304 61.9173ZM19.6982 60.9696C19.4242 61.0334 19.1667 61.0279 18.9258 60.953C18.6886 60.8772 18.4856 60.7415 18.3168 60.5459C18.148 60.3502 18.0295 60.1062 17.9614 59.8139C17.8917 59.5143 17.8884 59.2357 17.9518 58.9783C18.0151 58.7209 18.1356 58.5021 18.3132 58.3221C18.4909 58.1421 18.7185 58.0197 18.9962 57.955C19.2813 57.8887 19.5387 57.8942 19.7686 57.9716C19.9985 58.0491 20.1915 58.1833 20.3477 58.3742C20.5039 58.5651 20.6139 58.7976 20.6777 59.0716C20.6862 59.1082 20.6937 59.1488 20.7003 59.1935C20.7105 59.2373 20.7193 59.2834 20.7267 59.3318L18.5288 59.8436L18.4229 59.3886L19.8918 59.0466C19.8377 58.8473 19.7412 58.7061 19.6024 58.6228C19.4628 58.5359 19.3089 58.5121 19.1408 58.5512C19.0166 58.5801 18.911 58.6394 18.824 58.729C18.7398 58.8141 18.6811 58.926 18.6479 59.0647C18.6184 59.2025 18.6257 59.3664 18.67 59.5565L18.707 59.7154C18.7453 59.8798 18.804 60.0164 18.8833 60.125C18.9662 60.2329 19.0646 60.3082 19.1786 60.351C19.2925 60.3938 19.4171 60.3994 19.5523 60.368C19.7021 60.3331 19.8099 60.2829 19.8756 60.2176C19.9404 60.1485 19.9863 60.0647 20.0134 59.9659L20.7643 59.791C20.7514 59.9674 20.7005 60.1372 20.6114 60.3005C20.5259 60.4629 20.4063 60.6025 20.2524 60.7192C20.0985 60.8359 19.9138 60.9194 19.6982 60.9696ZM23.0304 60.1243C22.8404 60.1686 22.6655 60.1785 22.5057 60.154C22.3451 60.126 22.2084 60.0519 22.0957 59.9317C21.9821 59.8079 21.8969 59.6236 21.8398 59.3788L21.5386 58.0853L21.0399 58.2014L20.8957 57.5821L21.3944 57.4659L21.289 56.6411L21.9467 56.4879L22.1344 57.2937L22.8798 57.1201L23.024 57.7394L22.2786 57.913L22.5823 59.2175C22.6113 59.3417 22.6587 59.4212 22.7245 59.4559C22.7904 59.4907 22.8891 59.4927 23.0207 59.4621L23.4153 59.3702L23.5621 60.0005L23.0304 60.1243Z" fill="#1C3A29"/>
<path d="M12.8935 73.444L11.3527 66.8271L11.8727 66.706L13.4135 73.3229L12.8935 73.444ZM13.0859 72.8033C12.6991 72.8934 12.3461 72.9014 12.0269 72.8274C11.7078 72.7534 11.4411 72.609 11.2268 72.394C11.0126 72.1791 10.8669 71.9058 10.7896 71.5742L11.4528 71.4198C11.5008 71.6258 11.593 71.8056 11.7294 71.9592C11.8646 72.1078 12.035 72.2138 12.2404 72.2772C12.4497 72.3344 12.69 72.3314 12.9613 72.2682C13.1975 72.2132 13.3897 72.1287 13.5379 72.0148C13.69 71.8946 13.793 71.7568 13.8468 71.6012C13.9057 71.4445 13.9152 71.2807 13.8754 71.1099C13.831 70.919 13.7514 70.7707 13.6367 70.665C13.5259 70.553 13.3883 70.4739 13.2239 70.4274C13.0583 70.3759 12.8724 70.3397 12.6663 70.3189C12.4602 70.298 12.2384 70.2782 12.001 70.2593C11.5261 70.2216 11.1636 70.1206 10.9135 69.9564C10.6672 69.786 10.5049 69.5324 10.4265 69.1958C10.3598 68.9094 10.3666 68.643 10.447 68.3966C10.5323 68.1489 10.684 67.9362 10.9021 67.7582C11.1241 67.5741 11.4059 67.4423 11.7476 67.3628C12.0842 67.2844 12.3902 67.2793 12.6657 67.3476C12.9461 67.4147 13.1824 67.5424 13.3746 67.7307C13.5656 67.914 13.6944 68.1488 13.7611 68.4352L13.0979 68.5897C13.064 68.444 12.9929 68.3095 12.8848 68.1864C12.7767 68.0633 12.6342 67.9746 12.4574 67.9205C12.2845 67.8601 12.0824 67.8568 11.8513 67.9106C11.6592 67.9501 11.496 68.0225 11.3616 68.1279C11.2312 68.2272 11.1378 68.3496 11.0817 68.4951C11.0305 68.6394 11.026 68.802 11.0681 68.9829C11.1079 69.1537 11.1752 69.2837 11.2702 69.3728C11.3701 69.4607 11.4967 69.5266 11.6499 69.5704C11.8069 69.608 11.9854 69.6353 12.1853 69.6523C12.3853 69.6693 12.6071 69.6891 12.8507 69.7118C13.1268 69.7376 13.3775 69.7905 13.6027 69.8704C13.8317 69.9442 14.0238 70.0637 14.1787 70.2289C14.3388 70.3929 14.4533 70.6231 14.5223 70.9196C14.5808 71.1708 14.5685 71.4252 14.4855 71.6829C14.4064 71.9344 14.2526 72.1609 14.0241 72.3624C13.7956 72.5639 13.4828 72.7109 13.0859 72.8033ZM17.3093 72.4157L15.7685 65.7988L16.2885 65.6777L17.8293 72.2946L17.3093 72.4157ZM17.5018 71.775C17.1149 71.8651 16.7619 71.8732 16.4428 71.7992C16.1236 71.7252 15.8569 71.5807 15.6427 71.3658C15.4284 71.1508 15.2827 70.8776 15.2055 70.546L15.8687 70.3915C15.9167 70.5975 16.0088 70.7773 16.1452 70.9309C16.2805 71.0795 16.4508 71.1855 16.6563 71.2489C16.8656 71.3061 17.1059 71.3031 17.3772 71.24C17.6133 71.185 17.8055 71.1005 17.9538 70.9865C18.1059 70.8664 18.2088 70.7285 18.2627 70.573C18.3215 70.4162 18.331 70.2525 18.2913 70.0817C18.2468 69.8907 18.1672 69.7424 18.0526 69.6367C17.9418 69.5248 17.8042 69.4456 17.6397 69.3991C17.4742 69.3477 17.2883 69.3115 17.0822 69.2906C16.876 69.2698 16.6542 69.2499 16.4168 69.231C15.9419 69.1933 15.5794 69.0923 15.3293 68.9281C15.083 68.7577 14.9207 68.5042 14.8423 68.1676C14.7757 67.8812 14.7825 67.6148 14.8628 67.3683C14.9481 67.1207 15.0999 66.9079 15.318 66.73C15.5399 66.5459 15.8218 66.4141 16.1634 66.3345C16.5 66.2561 16.8061 66.2511 17.0815 66.3193C17.362 66.3865 17.5983 66.5142 17.7904 66.7025C17.9814 66.8858 18.1102 67.1206 18.1769 67.407L17.5137 67.5614C17.4798 67.4157 17.4088 67.2813 17.3007 67.1582C17.1925 67.035 17.0501 66.9464 16.8733 66.8922C16.7003 66.8318 16.4983 66.8286 16.2671 66.8824C16.0751 66.9218 15.9118 66.9943 15.7775 67.0997C15.647 67.1989 15.5537 67.3213 15.4975 67.4668C15.4464 67.6111 15.4418 67.7737 15.484 67.9546C15.5237 68.1254 15.5911 68.2554 15.686 68.3445C15.7859 68.4325 15.9125 68.4984 16.0657 68.5421C16.2228 68.5797 16.4013 68.607 16.6012 68.624C16.8011 68.641 17.0229 68.6609 17.2666 68.6836C17.5427 68.7093 17.7933 68.7622 18.0185 68.8422C18.2476 68.916 18.4396 69.0355 18.5946 69.2006C18.7546 69.3646 18.8691 69.5949 18.9381 69.8913C18.9966 70.1425 18.9844 70.397 18.9014 70.6546C18.8222 70.9061 18.6684 71.1326 18.4399 71.3341C18.2114 71.5356 17.8987 71.6826 17.5018 71.775ZM21.7252 71.3875L20.1844 64.7705L20.7044 64.6495L22.2452 71.2664L21.7252 71.3875ZM21.9176 70.7468C21.5307 70.8369 21.1777 70.8449 20.8586 70.7709C20.5395 70.6969 20.2728 70.5525 20.0585 70.3375C19.8443 70.1226 19.6985 69.8493 19.6213 69.5177L20.2845 69.3633C20.3325 69.5693 20.4247 69.7491 20.5611 69.9027C20.6963 70.0513 20.8667 70.1573 21.0721 70.2207C21.2814 70.2779 21.5217 70.2749 21.793 70.2117C22.0292 70.1567 22.2213 70.0722 22.3696 69.9583C22.5217 69.8381 22.6247 69.7003 22.6785 69.5447C22.7373 69.388 22.7469 69.2242 22.7071 69.0534C22.6626 68.8625 22.5831 68.7142 22.4684 68.6084C22.3576 68.4965 22.22 68.4173 22.0556 68.3709C21.89 68.3194 21.7041 68.2832 21.498 68.2624C21.2919 68.2415 21.0701 68.2217 20.8326 68.2028C20.3577 68.1651 19.9952 68.0641 19.7451 67.8999C19.4989 67.7295 19.3366 67.4759 19.2582 67.1393C19.1915 66.8529 19.1983 66.5865 19.2786 66.34C19.364 66.0924 19.5157 65.8796 19.7338 65.7017C19.9558 65.5176 20.2376 65.3858 20.5792 65.3063C20.9159 65.2279 21.2219 65.2228 21.4973 65.2911C21.7778 65.3582 22.0141 65.4859 22.2063 65.6742C22.3972 65.8575 22.5261 66.0923 22.5928 66.3787L21.9296 66.5332C21.8956 66.3875 21.8246 66.253 21.7165 66.1299C21.6084 66.0068 21.4659 65.9181 21.2891 65.864C21.1161 65.8036 20.9141 65.8003 20.683 65.8541C20.4909 65.8936 20.3277 65.966 20.1933 66.0714C20.0628 66.1707 19.9695 66.2931 19.9133 66.4385C19.8622 66.5829 19.8577 66.7455 19.8998 66.9263C19.9396 67.0972 20.0069 67.2271 20.1018 67.3163C20.2018 67.4042 20.3283 67.4701 20.4815 67.5139C20.6386 67.5515 20.8171 67.5788 21.017 67.5958C21.217 67.6128 21.4388 67.6326 21.6824 67.6553C21.9585 67.6811 22.2092 67.7339 22.4344 67.8139C22.6634 67.8877 22.8554 68.0072 23.0104 68.1724C23.1704 68.3364 23.285 68.5666 23.354 68.863C23.4125 69.1143 23.4002 69.3687 23.3172 69.6264C23.2381 69.8779 23.0842 70.1044 22.8557 70.3059C22.6272 70.5074 22.3145 70.6544 21.9176 70.7468Z" fill="#1C3A29"/>
</svg>
