<svg width="604" height="343" viewBox="0 0 604 343" fill="none" xmlns="http://www.w3.org/2000/svg">
<g clip-path="url(#clip0_4762_38093)">
<path d="M238.355 164.524L222.071 140.917C219.822 137.657 215.414 136.878 212.225 139.178L212.217 139.184C209.028 141.485 208.267 145.992 210.516 149.253L226.8 172.859C229.049 176.12 233.457 176.898 236.646 174.598L236.654 174.592C239.843 172.292 240.604 167.784 238.355 164.524Z" fill="#171759"/>
<path d="M236.936 156.734L228.52 162.806C225.331 165.106 224.57 169.614 226.819 172.874L226.825 172.883C229.074 176.144 233.482 176.922 236.671 174.622L245.087 168.551C248.276 166.251 249.037 161.743 246.788 158.482L246.782 158.474C244.533 155.213 240.125 154.434 236.936 156.734Z" fill="#171759"/>
<path d="M108.355 198.038L132.434 262.966L144.004 255.613L198.412 194.207M318.473 165.094L346.924 160.932L350.68 174.047L330.669 189.084" stroke="#484848" stroke-width="3.20157"/>
<path d="M310.962 152.308L299.705 130.239H310.962V86.7402L284.076 92.8125" stroke="#484848" stroke-width="3.20157"/>
<path d="M133.061 336.207C167.943 336.207 196.221 307.282 196.221 271.6C196.221 235.918 167.943 206.992 133.061 206.992C98.1779 206.992 69.8999 235.918 69.8999 271.6C69.8999 307.282 98.1779 336.207 133.061 336.207Z" stroke="#62657A" stroke-width="12.7956"/>
<path d="M68.4912 254.022C76.6184 230.864 94.7508 211.559 116.013 207.002" stroke="#4E4E68" stroke-width="1.92094" stroke-miterlimit="10" stroke-linecap="round"/>
<path d="M73.8125 252.264C79.1228 234.719 94.7617 219.277 109.764 214.016" stroke="#4E4E68" stroke-width="1.92094" stroke-miterlimit="10" stroke-linecap="round"/>
<path d="M371.932 336.207C406.815 336.207 435.093 307.282 435.093 271.6C435.093 235.918 406.815 206.992 371.932 206.992C337.05 206.992 308.771 235.918 308.771 271.6C308.771 307.282 337.05 336.207 371.932 336.207Z" stroke="#62657A" stroke-width="12.7956"/>
<path d="M308 254.022C316.127 230.864 334.259 211.559 355.521 207.002" stroke="#4E4E68" stroke-width="1.92094" stroke-miterlimit="10" stroke-linecap="round"/>
<path d="M313.31 252.264C318.63 234.719 334.259 219.277 349.261 214.016" stroke="#4E4E68" stroke-width="1.92094" stroke-miterlimit="10" stroke-linecap="round"/>
<path d="M231.933 298.184L125.705 283.649C118.1 282.603 112.424 275.976 112.424 268.121C112.424 259.701 118.924 252.786 127.156 252.466L234.249 248.282C248.146 247.738 259.695 259.114 259.695 273.329C259.695 288.494 246.633 300.191 231.943 298.174L231.933 298.184Z" fill="#BBD567"/>
<path d="M205.288 250.81C190.901 180.771 76.1597 166.054 58.0273 262.005" stroke="#BBD567" stroke-width="8.31341"/>
<path d="M432.349 226.885C393.507 166.055 284.077 194.837 297.838 286.946" stroke="#BBD567" stroke-width="8.31341"/>
<path d="M209.659 208.913C233.008 219.788 290.264 232.968 317.525 170.537M251.871 261.366L331.599 197.398" stroke="#BBD567" stroke-width="9.59403"/>
<path d="M197.161 184.604L245.621 278.314M309.721 154.861L370.691 268.4" stroke="#9AB445" stroke-width="8.31341"/>
<path d="M194.79 177.067L194.781 177.071C191.089 178.565 189.28 182.837 190.74 186.613L192.812 191.972C194.272 195.748 198.449 197.599 202.14 196.105L202.15 196.101C205.842 194.607 207.651 190.335 206.191 186.559L204.119 181.2C202.658 177.424 198.482 175.573 194.79 177.067Z" fill="#BBD567"/>
<path d="M309.218 149.548L309.208 149.551C305.516 151.045 303.707 155.317 305.167 159.093L307.239 164.452C308.7 168.229 312.876 170.079 316.568 168.585L316.577 168.581C320.269 167.088 322.078 162.816 320.618 159.04L318.546 153.681C317.086 149.904 312.909 148.054 309.218 149.548Z" fill="#BBD567"/>
<path d="M372.245 284.396C379.326 284.396 385.067 278.523 385.067 271.28C385.067 264.036 379.326 258.164 372.245 258.164C365.163 258.164 359.423 264.036 359.423 271.28C359.423 278.523 365.163 284.396 372.245 284.396Z" fill="#4E4E68"/>
<path d="M112.424 269.039C113.363 277.993 119.613 282.475 124.933 283.435L232.799 298.152C249.992 299.753 259.372 285.036 259.685 274.802C197.463 273.201 162.45 272.241 112.424 269.05V269.039Z" fill="#9AB445"/>
<path d="M503.564 93.7754L415.396 197.079L428.218 216.267L603 295.901L503.574 93.7754H503.564Z" fill="url(#paint0_linear_4762_38093)" fill-opacity="0.5"/>
<path d="M416.021 196.117L405.703 198.038C415.708 202.52 428.53 214.985 430.095 216.906L429.156 206.992L416.021 196.117Z" fill="#FCD579"/>
<path d="M234.051 285.677C241.132 285.677 246.873 279.805 246.873 272.561C246.873 265.317 241.132 259.445 234.051 259.445C226.97 259.445 221.229 265.317 221.229 272.561C221.229 279.805 226.97 285.677 234.051 285.677Z" fill="#62657A"/>
<path d="M233.738 272.881V309.656" stroke="#484848" stroke-width="3.20157"/>
<path d="M248.115 307.414H219.351V318.929H248.115V307.414Z" fill="#FCD579"/>
<path d="M232.215 159.022H164.975C161.281 159.022 158.308 162.341 159.383 165.959C167.479 193.183 205.298 183.461 214.604 175.831C219.643 171.69 226.758 167.965 231.829 166.76C233.811 166.29 235.605 164.572 235.605 162.491C235.605 160.57 234.082 159.012 232.204 159.012L232.215 159.022Z" fill="#FCD579"/>
<path d="M355.177 185.36L343.044 141.659C342.48 139.62 343.972 137.582 346.048 137.582H371.985C373.56 137.582 374.885 138.777 375.083 140.378L379.162 172.949C379.319 174.197 378.745 175.435 377.681 176.086L359.789 187.217C358.025 188.316 355.72 187.388 355.156 185.36H355.177Z" fill="#F0C254"/>
<path d="M376.627 135.352H342.24C339.993 135.352 338.171 137.213 338.171 139.508C338.171 141.804 339.993 143.665 342.24 143.665H376.627C378.874 143.665 380.695 141.804 380.695 139.508C380.695 137.213 378.874 135.352 376.627 135.352Z" fill="#FCD579"/>
<path d="M263.347 93.3044L296.93 85.7167C299.121 85.2258 301.291 86.6345 301.771 88.8756C302.251 91.1167 300.874 93.3365 298.683 93.8274L265.099 101.415C262.908 101.906 260.738 100.497 260.258 98.2562C259.779 96.0151 261.156 93.7954 263.347 93.3044Z" fill="#FCD579"/>
<path d="M136.576 178.648H75.4606C70.5049 178.648 66.4883 174.465 66.4883 169.299V168.456C66.4883 167.624 66.6552 166.834 66.9473 166.108C67.0725 165.799 67.4377 164.967 68.1888 164.188C69.7016 162.619 71.7047 162.448 72.2785 162.416C87.0828 162.437 101.887 162.459 116.691 162.48C117.568 162.448 118.851 162.437 120.385 162.651C123.17 163.024 125.163 163.857 126.144 164.262C137.077 168.787 139.331 169.043 140.134 171.53C140.562 172.842 140.572 174.753 139.602 176.332C138.684 177.826 137.223 178.435 136.576 178.659V178.648Z" fill="#FCD579"/>
<path d="M86.1021 179.607C87.2184 188.988 88.3347 198.379 89.4614 207.76L134.584 272.869" stroke="#9AB445" stroke-width="8.31341"/>
<path d="M69.8477 180.612C91.3394 180.42 112.821 180.228 134.312 180.036C137.849 180.004 142.221 181.626 146.164 185.019C150.63 188.872 152.455 193.952 153.248 197.089" stroke="#BBD567" stroke-width="8.31341"/>
<path d="M134.334 280.245C139.26 280.245 143.254 276.16 143.254 271.121C143.254 266.081 139.26 261.996 134.334 261.996C129.407 261.996 125.414 266.081 125.414 271.121C125.414 276.16 129.407 280.245 134.334 280.245Z" fill="#62657A"/>
<path d="M155.815 274.492H118.528V286.007H155.815V274.492Z" fill="#FCD579"/>
<path d="M99.3517 192.875L92.7013 164.799C91.7827 160.921 87.9648 158.539 84.1737 159.479L84.1635 159.481C80.3724 160.421 78.0437 164.326 78.9623 168.204L85.6127 196.281C86.5313 200.159 90.3492 202.541 94.1404 201.601L94.1505 201.598C97.9416 200.659 100.27 196.753 99.3517 192.875Z" fill="#171759"/>
<path d="M100.817 185.105L90.8093 187.586C87.0181 188.525 84.6895 192.431 85.608 196.309L85.6105 196.319C86.5291 200.197 90.347 202.579 94.1382 201.64L104.146 199.159C107.937 198.22 110.266 194.314 109.347 190.436L109.345 190.426C108.426 186.548 104.608 184.166 100.817 185.105Z" fill="#171759"/>
<path d="M94.167 174.286C130.652 174.286 160.228 144.031 160.228 106.711C160.228 69.3908 130.652 39.1367 94.167 39.1367C57.6825 39.1367 28.106 69.3908 28.106 106.711C28.106 144.031 57.6825 174.286 94.167 174.286Z" fill="#62657A"/>
<path d="M100.291 144.491C120.118 144.491 136.191 128.05 136.191 107.769C136.191 87.4879 120.118 71.0469 100.291 71.0469C80.4644 71.0469 64.3916 87.4879 64.3916 107.769C64.3916 128.05 80.4644 144.491 100.291 144.491Z" stroke="#D3D3DD" stroke-width="5.33595" stroke-miterlimit="10"/>
<path d="M101.366 135.814C116.503 135.814 128.773 123.263 128.773 107.779C128.773 92.2959 116.503 79.7441 101.366 79.7441C86.2296 79.7441 73.959 92.2959 73.959 107.779C73.959 123.263 86.2296 135.814 101.366 135.814Z" fill="#D3D3DD"/>
<path opacity="0.2" d="M160.217 106.7C160.217 144.019 130.64 174.274 94.1563 174.274C75.5128 174.274 58.6845 166.377 46.6763 153.667C56.8796 160.262 68.9609 164.082 81.9186 164.082C118.402 164.082 147.969 133.828 147.969 96.508C147.969 78.2591 140.906 61.6963 129.399 49.541C147.917 61.5042 160.217 82.6346 160.217 106.7Z" fill="#3D3D60"/>
<path d="M153.937 108.719C152.935 139.443 129.785 164.426 100.291 167.489" stroke="#4E4E68" stroke-width="5.33595" stroke-miterlimit="10" stroke-linecap="round"/>
<path d="M144.871 112.742C142.461 133.926 127.656 151.236 108.074 156.892" stroke="#4E4E68" stroke-width="5.33595" stroke-miterlimit="10" stroke-linecap="round"/>
<path d="M34.3862 104.696C35.3878 73.9715 58.5384 48.9886 88.0321 45.9258" stroke="#4E4E68" stroke-width="5.33595" stroke-miterlimit="10" stroke-linecap="round"/>
<path d="M43.4526 100.671C45.8626 79.4874 60.6669 62.1776 80.2494 56.5215" stroke="#4E4E68" stroke-width="5.33595" stroke-miterlimit="10" stroke-linecap="round"/>
<path d="M92.2783 107.256V104.524C92.2783 101.89 90.1904 99.7539 87.6148 99.7539C85.0392 99.7539 82.9513 101.89 82.9513 104.524V107.256C82.9513 109.891 85.0392 112.027 87.6148 112.027C90.1904 112.027 92.2783 109.891 92.2783 107.256Z" fill="#171759"/>
<path d="M126.801 107.245V104.513C126.801 101.878 124.713 99.7422 122.138 99.7422C119.562 99.7422 117.474 101.878 117.474 104.513V107.245C117.474 109.879 119.562 112.015 122.138 112.015C124.713 112.015 126.801 109.879 126.801 107.245Z" fill="#171759"/>
<path d="M112.988 112.016C112.988 116.594 109.357 120.318 104.882 120.318C100.406 120.318 96.7754 116.594 96.7754 112.016H112.999H112.988Z" fill="white" stroke="#171759" stroke-width="3.9486" stroke-linecap="round" stroke-linejoin="round"/>
<path d="M158.246 85.9196C158.058 90.0496 155.971 124.765 130.348 139.983C121.699 145.127 113.51 146.173 110.035 146.579C93.2072 148.553 72.5605 143.004 58.7682 126.462C44.3813 109.206 44.9655 89.0038 45.2263 84.2441" stroke="#201C3A" stroke-width="8.53751" stroke-miterlimit="10"/>
<path d="M157.891 97.9906C147.98 95.5041 136.691 93.391 124.193 92.2491C96.6707 89.7306 73.0193 92.8041 55.3043 96.742C55.3043 96.742 47.4901 99.378 30.4532 97.9906C29.4203 97.9052 27.7093 97.6491 26.3739 96.3578C25.3306 95.344 24.6733 93.9566 24.6733 92.4199V83.4555C24.6733 80.3927 27.2711 77.8848 30.4532 77.8848H157.901C161.073 77.8848 163.681 80.3927 163.681 83.4555V92.4199C163.681 95.4827 161.083 97.9906 157.901 97.9906H157.891Z" fill="#312A4C"/>
<path d="M28.2099 87.9364C24.8088 87.9364 22.0858 85.0016 22.3779 81.5546C25.6017 44.299 56.7439 14.6738 94.1667 14.6738C131.589 14.6738 162.721 44.3097 165.945 81.5546C166.247 84.9909 163.514 87.9364 160.113 87.9364H28.2099Z" fill="#FF525F"/>
<path d="M119.35 139.272L100.233 140.66C98.4624 140.788 97.1292 142.361 97.2549 144.171L97.6486 149.845C97.7742 151.656 99.3111 153.02 101.081 152.891L120.198 151.503C121.969 151.375 123.302 149.802 123.176 147.992L122.783 142.318C122.657 140.507 121.12 139.143 119.35 139.272Z" fill="#312A4C"/>
<g filter="url(#filter0_d_4762_38093)">
<path d="M210.466 178.206L203.816 150.129C202.897 146.251 199.079 143.869 195.288 144.809L195.278 144.811C191.487 145.751 189.158 149.656 190.077 153.534L196.727 181.611C197.646 185.489 201.463 187.871 205.255 186.931L205.265 186.929C209.056 185.989 211.385 182.084 210.466 178.206Z" fill="#171759"/>
<path d="M211.944 170.434L201.937 172.914C198.146 173.854 195.817 177.759 196.735 181.637L196.738 181.647C197.657 185.525 201.474 187.907 205.266 186.968L215.273 184.487C219.064 183.548 221.393 179.642 220.475 175.764L220.472 175.754C219.553 171.876 215.736 169.494 211.944 170.434Z" fill="#171759"/>
<path d="M205.288 159.608C241.772 159.608 271.349 129.354 271.349 92.0334C271.349 54.7131 241.772 24.459 205.288 24.459C168.803 24.459 139.227 54.7131 139.227 92.0334C139.227 129.354 168.803 159.608 205.288 159.608Z" fill="#62657A"/>
<path d="M211.411 129.813C231.238 129.813 247.311 113.372 247.311 93.0911C247.311 72.8101 231.238 56.3691 211.411 56.3691C191.585 56.3691 175.512 72.8101 175.512 93.0911C175.512 113.372 191.585 129.813 211.411 129.813Z" stroke="#D3D3DD" stroke-width="5.33595" stroke-miterlimit="10"/>
<path d="M212.486 121.137C227.623 121.137 239.893 108.585 239.893 93.1015C239.893 77.6181 227.623 65.0664 212.486 65.0664C197.35 65.0664 185.079 77.6181 185.079 93.1015C185.079 108.585 197.35 121.137 212.486 121.137Z" fill="#D3D3DD"/>
<path opacity="0.2" d="M271.348 92.0337C271.348 129.353 241.771 159.608 205.287 159.608C186.644 159.608 169.815 151.711 157.807 139.001C168.01 145.596 180.092 149.416 193.049 149.416C229.533 149.416 259.1 119.162 259.1 81.842C259.1 63.5931 252.037 47.0303 240.53 34.875C259.048 46.8382 271.348 67.9685 271.348 92.0337Z" fill="#3D3D60"/>
<path d="M265.057 94.0488C264.055 124.773 240.905 149.756 211.411 152.819" stroke="#4E4E68" stroke-width="5.33595" stroke-miterlimit="10" stroke-linecap="round"/>
<path d="M255.991 98.0625C253.581 119.246 238.776 136.556 219.194 142.212" stroke="#4E4E68" stroke-width="5.33595" stroke-miterlimit="10" stroke-linecap="round"/>
<path d="M145.506 90.0143C146.508 59.2899 169.658 34.307 199.152 31.2441" stroke="#4E4E68" stroke-width="5.33595" stroke-miterlimit="10" stroke-linecap="round"/>
<path d="M154.573 85.9895C156.983 64.8058 171.787 47.4959 191.37 41.8398" stroke="#4E4E68" stroke-width="5.33595" stroke-miterlimit="10" stroke-linecap="round"/>
<path d="M203.388 92.5668V89.8348C203.388 87.2002 201.3 85.0645 198.725 85.0645C196.149 85.0645 194.061 87.2002 194.061 89.8348V92.5668C194.061 95.2014 196.149 97.3371 198.725 97.3371C201.3 97.3371 203.388 95.2014 203.388 92.5668Z" fill="#171759"/>
<path d="M237.911 92.5785V89.8465C237.911 87.2119 235.823 85.0762 233.248 85.0762C230.672 85.0762 228.584 87.2119 228.584 89.8465V92.5785C228.584 95.2131 230.672 97.3488 233.248 97.3488C235.823 97.3488 237.911 95.2131 237.911 92.5785Z" fill="#171759"/>
<path d="M224.108 97.3379C224.108 101.916 220.478 105.641 216.002 105.641C211.526 105.641 207.896 101.916 207.896 97.3379H224.119H224.108Z" fill="white" stroke="#171759" stroke-width="3.9486" stroke-linecap="round" stroke-linejoin="round"/>
<path d="M269.366 71.2458C269.179 75.3758 267.092 110.091 241.469 125.31C232.82 130.453 224.63 131.499 221.156 131.905C204.328 133.879 183.681 128.33 169.889 111.788C155.502 94.5319 156.086 74.33 156.347 69.5703" stroke="#201C3A" stroke-width="8.53751" stroke-miterlimit="10"/>
<path d="M269.012 83.3168C259.101 80.8302 247.812 78.7172 235.314 77.5753C207.792 75.0567 184.14 78.1302 166.425 82.0682C166.425 82.0682 158.611 84.7041 141.574 83.3168C140.541 83.2314 138.83 82.9753 137.495 81.684C136.452 80.6702 135.794 79.2828 135.794 77.7461V68.7817C135.794 65.7188 138.392 63.2109 141.574 63.2109H269.022C272.194 63.2109 274.802 65.7188 274.802 68.7817V77.7461C274.802 80.8089 272.204 83.3168 269.022 83.3168H269.012Z" fill="#312A4C"/>
<path d="M139.341 73.2626C135.94 73.2626 133.217 70.3278 133.509 66.8808C136.733 29.6358 167.875 0 205.288 0C242.7 0 273.842 29.6358 277.066 66.8808C277.368 70.3171 274.635 73.2626 271.234 73.2626H139.331H139.341Z" fill="#6155FF"/>
<path d="M230.48 124.588L211.363 125.976C209.593 126.105 208.26 127.677 208.385 129.488L208.779 135.162C208.905 136.972 210.441 138.336 212.212 138.207L231.329 136.819C233.099 136.691 234.432 135.119 234.307 133.308L233.913 127.634C233.787 125.823 232.25 124.46 230.48 124.588Z" fill="#312A4C"/>
</g>
<path d="M263.347 93.5076L296.93 85.9199C299.121 85.4289 301.291 86.8376 301.771 89.0787C302.251 91.3198 300.874 93.5396 298.683 94.0305L265.099 101.618C262.908 102.109 260.738 100.7 260.258 98.4593C259.779 96.2182 261.156 93.9985 263.347 93.5076Z" fill="#FCD579"/>
<path d="M284.077 104.254C290.254 104.254 295.261 99.1316 295.261 92.8133C295.261 86.495 290.254 81.373 284.077 81.373C277.9 81.373 272.893 86.495 272.893 92.8133C272.893 99.1316 277.9 104.254 284.077 104.254Z" fill="#171759"/>
<path d="M11.1841 123.345C17.3608 123.345 22.3681 118.223 22.3681 111.905C22.3681 105.587 17.3608 100.465 11.1841 100.465C5.00727 100.465 0 105.587 0 111.905C0 118.223 5.00727 123.345 11.1841 123.345Z" fill="#171759"/>
<path d="M292.945 41.7268L298.099 42.9754C300.644 43.5944 300.644 47.2976 298.099 47.9165L292.945 49.1651C292.298 49.3252 291.787 49.8375 291.641 50.4991L290.42 55.771C289.815 58.375 286.195 58.375 285.59 55.771L284.369 50.4991C284.213 49.8375 283.712 49.3145 283.065 49.1651L277.911 47.9165C275.366 47.2976 275.366 43.5944 277.911 42.9754L283.065 41.7268C283.712 41.5667 284.223 41.0545 284.369 40.3928L285.59 35.1209C286.195 32.517 289.815 32.517 290.42 35.1209L291.641 40.3928C291.797 41.0545 292.298 41.5774 292.945 41.7268Z" fill="#FFCD40"/>
<path d="M269.419 30.2022L271.078 30.6078C272.851 31.0347 272.851 33.6173 271.078 34.0441L269.419 34.4497C268.866 34.5884 268.428 35.0259 268.292 35.6022L267.896 37.2991C267.478 39.1133 264.953 39.1133 264.536 37.2991L264.14 35.6022C264.004 35.0366 263.576 34.5884 263.013 34.4497L261.354 34.0441C259.581 33.6173 259.581 31.0347 261.354 30.6078L263.013 30.2022C263.566 30.0635 264.004 29.626 264.14 29.0497L264.536 27.3529C264.953 25.5386 267.478 25.5386 267.896 27.3529L268.292 29.0497C268.428 29.6153 268.855 30.0635 269.419 30.2022Z" fill="#FFCD40"/>
</g>
<defs>
<filter id="filter0_d_4762_38093" x="131.092" y="0" width="148.393" height="191.964" filterUnits="userSpaceOnUse" color-interpolation-filters="sRGB">
<feFlood flood-opacity="0" result="BackgroundImageFix"/>
<feColorMatrix in="SourceAlpha" type="matrix" values="0 0 0 0 0 0 0 0 0 0 0 0 0 0 0 0 0 0 127 0" result="hardAlpha"/>
<feOffset dy="2.3958"/>
<feGaussianBlur stdDeviation="1.1979"/>
<feComposite in2="hardAlpha" operator="out"/>
<feColorMatrix type="matrix" values="0 0 0 0 0 0 0 0 0 0 0 0 0 0 0 0 0 0 0.25 0"/>
<feBlend mode="normal" in2="BackgroundImageFix" result="effect1_dropShadow_4762_38093"/>
<feBlend mode="normal" in="SourceGraphic" in2="effect1_dropShadow_4762_38093" result="shape"/>
</filter>
<linearGradient id="paint0_linear_4762_38093" x1="444.921" y1="220.067" x2="549.582" y2="196.782" gradientUnits="userSpaceOnUse">
<stop stop-color="#FCD579"/>
<stop offset="1" stop-color="white" stop-opacity="0"/>
</linearGradient>
<clipPath id="clip0_4762_38093">
<rect width="603.168" height="342.6" fill="white"/>
</clipPath>
</defs>
</svg>
