<svg width="44" height="46" viewBox="0 0 44 46" fill="none" xmlns="http://www.w3.org/2000/svg">
<path fill-rule="evenodd" clip-rule="evenodd" d="M11.4 36.7701V9.23005C11.4 8.01271 11.8877 6.84522 12.7557 5.98443C13.6237 5.12364 14.801 4.64005 16.0286 4.64005H28.3716C29.5992 4.64005 30.7765 5.12364 31.6445 5.98443C32.5125 6.84522 33.0002 8.01271 33.0002 9.23005V36.7701C33.0002 37.9874 32.5125 39.1549 31.6445 40.0157C30.7765 40.8765 29.5992 41.3601 28.3716 41.3601H16.0286C14.801 41.3601 13.6237 40.8765 12.7557 40.0157C11.8877 39.1549 11.4 37.9874 11.4 36.7701ZM43.4115 12.798L37.6288 21.3997V23.7651H41.486C41.9048 23.7651 42.3158 23.8778 42.6752 24.0913C43.0345 24.3048 43.3286 24.6109 43.5263 24.9772C43.7239 25.3434 43.8176 25.7559 43.7974 26.1708C43.7772 26.5857 43.6438 26.9874 43.4115 27.333L37.6288 35.9347V36.7701C37.6288 39.2047 36.6535 41.5397 34.9174 43.2613C33.1814 44.9829 30.8267 45.9501 28.3716 45.9501H16.0286C13.5735 45.9501 11.2188 44.9829 9.48278 43.2613C7.74672 41.5397 6.77141 39.2047 6.77141 36.7701V35.9347L0.988733 27.333C0.756402 26.9874 0.623016 26.5857 0.602796 26.1708C0.582577 25.7559 0.676282 25.3434 0.873922 24.9772C1.07156 24.6109 1.36572 24.3048 1.72504 24.0913C2.08436 23.8778 2.49537 23.7651 2.91423 23.7651H6.77141V21.3997L0.988733 12.798C0.756402 12.4524 0.623016 12.0507 0.602796 11.6358C0.582577 11.2209 0.676282 10.8084 0.873922 10.4422C1.07156 10.0759 1.36572 9.76977 1.72504 9.55631C2.08436 9.34284 2.49537 9.23008 2.91423 9.23005H6.77141C6.77141 6.79536 7.74672 4.46039 9.48278 2.73881C11.2188 1.01722 13.5735 0.0500488 16.0286 0.0500488H28.3716C30.8267 0.0500488 33.1814 1.01722 34.9174 2.73881C36.6535 4.46039 37.6288 6.79536 37.6288 9.23005H41.486C41.9048 9.23008 42.3158 9.34284 42.6752 9.55631C43.0345 9.76977 43.3286 10.0759 43.5263 10.4422C43.7239 10.8084 43.8176 11.2209 43.7974 11.6358C43.7772 12.0507 43.6438 12.4524 43.4115 12.798ZM22.2001 20.705C22.9092 20.705 23.6114 20.5665 24.2666 20.2974C24.9218 20.0283 25.5171 19.6339 26.0185 19.1366C26.5199 18.6393 26.9177 18.049 27.1891 17.3993C27.4605 16.7496 27.6001 16.0533 27.6001 15.35C27.6001 14.6468 27.4605 13.9505 27.1891 13.3008C26.9177 12.6511 26.5199 12.0608 26.0185 11.5635C25.5171 11.0662 24.9218 10.6718 24.2666 10.4027C23.6114 10.1336 22.9092 9.99505 22.2001 9.99505C20.7679 9.99505 19.3944 10.5592 18.3817 11.5635C17.369 12.5677 16.8001 13.9298 16.8001 15.35C16.8001 16.7703 17.369 18.1323 18.3817 19.1366C19.3944 20.1409 20.7679 20.705 22.2001 20.705ZM22.2001 36.0051C23.6323 36.0051 25.0058 35.4409 26.0185 34.4366C27.0312 33.4324 27.6001 32.0703 27.6001 30.6501C27.6001 29.2298 27.0312 27.8678 26.0185 26.8635C25.0058 25.8592 23.6323 25.295 22.2001 25.295C20.7679 25.295 19.3944 25.8592 18.3817 26.8635C17.369 27.8678 16.8001 29.2298 16.8001 30.6501C16.8001 32.0703 17.369 33.4324 18.3817 34.4366C19.3944 35.4409 20.7679 36.0051 22.2001 36.0051Z" fill="#1C3A29"/>
</svg>
