<svg width="564" height="548" viewBox="0 0 564 548" fill="none" xmlns="http://www.w3.org/2000/svg">
<mask id="mask0_5233_18319" style="mask-type:alpha" maskUnits="userSpaceOnUse" x="0" y="48" width="564" height="500">
<rect y="48" width="564" height="500" rx="8" fill="#9595A5"/>
</mask>
<g mask="url(#mask0_5233_18319)">
<rect x="-65" y="-102" width="749" height="664.286" rx="8" fill="#9595A5"/>
<g filter="url(#filter0_d_5233_18319)">
<path d="M99.7597 430H144.505C171.885 430 194.116 452.231 194.116 479.611V652.05C194.116 672.568 177.457 689.237 156.929 689.237H87.3263C66.808 689.237 50.1392 672.578 50.1392 652.05V479.611C50.1486 452.231 72.3799 430 99.7597 430Z" fill="#272727"/>
<path d="M209.177 532.582C210.736 528.969 207.117 523.933 201.094 521.334C195.07 518.735 188.924 519.557 187.365 523.17C185.806 526.783 189.425 531.819 195.448 534.418C201.471 537.017 207.618 536.195 209.177 532.582Z" fill="#272727"/>
<path d="M48.5517 536.845C54.575 534.246 58.194 529.21 56.635 525.597C55.076 521.984 48.9293 521.162 42.9061 523.761C36.8828 526.36 33.2638 531.396 34.8228 535.009C36.3818 538.622 42.5284 539.444 48.5517 536.845Z" fill="#272727"/>
<path d="M104.503 443.206H139.751C167.131 443.206 189.362 465.437 189.362 492.817V637.434C189.362 657.952 172.703 674.621 152.175 674.621H92.0695C71.5511 674.621 54.8823 657.962 54.8823 637.434V492.817C54.8823 465.437 77.1137 443.206 104.493 443.206H104.503Z" fill="#3F3F3F"/>
<path d="M94.8648 506.22H149.399C168.693 506.22 184.355 521.881 184.355 541.176V618.026C184.355 630.459 174.256 640.559 161.822 640.559H82.4315C69.9981 640.559 59.8989 630.459 59.8989 618.026V541.176C59.8989 521.881 75.5606 506.22 94.8554 506.22H94.8648Z" fill="#86CFED"/>
<path d="M76.9805 549.091L60.5594 530.168C59.6736 529.147 58.1281 529.037 57.1073 529.923C56.0865 530.809 55.9771 532.355 56.8629 533.375L73.2839 552.299C74.1697 553.32 75.7153 553.429 76.736 552.543C77.7568 551.658 77.8663 550.112 76.9805 549.091Z" fill="#3F3F3F"/>
<path d="M171.135 552.681L186.6 534.859C187.486 533.838 187.377 532.293 186.356 531.407C185.335 530.521 183.789 530.631 182.904 531.651L167.439 549.473C166.553 550.494 166.662 552.039 167.683 552.925C168.704 553.811 170.25 553.702 171.135 552.681Z" fill="#3F3F3F"/>
</g>
<g filter="url(#filter1_d_5233_18319)">
<path d="M97.7597 92H142.505C169.885 92 192.116 114.231 192.116 141.611V314.05C192.116 334.568 175.457 351.237 154.929 351.237H85.3263C64.808 351.237 48.1392 334.578 48.1392 314.05V141.611C48.1486 114.231 70.3799 92 97.7597 92Z" fill="#D7DDE0"/>
<path d="M207.177 194.582C208.736 190.969 205.117 185.933 199.094 183.334C193.07 180.735 186.924 181.557 185.365 185.17C183.806 188.783 187.425 193.819 193.448 196.418C199.471 199.017 205.618 198.195 207.177 194.582Z" fill="#D7DDE0"/>
<path d="M46.5517 198.845C52.575 196.246 56.194 191.21 54.635 187.597C53.076 183.984 46.9293 183.162 40.9061 185.761C34.8828 188.36 31.2638 193.396 32.8228 197.009C34.3818 200.622 40.5284 201.444 46.5517 198.845Z" fill="#D7DDE0"/>
<path d="M102.503 105.206H137.751C165.131 105.206 187.362 127.437 187.362 154.817V299.434C187.362 319.952 170.703 336.621 150.175 336.621H90.0695C69.5511 336.621 52.8823 319.962 52.8823 299.434V154.817C52.8823 127.437 75.1137 105.206 102.493 105.206H102.503Z" fill="white"/>
<path d="M92.8648 168.22H147.399C166.693 168.22 182.355 183.881 182.355 203.176V280.026C182.355 292.459 172.256 302.559 159.822 302.559H80.4315C67.9981 302.559 57.8989 292.459 57.8989 280.026V203.176C57.8989 183.881 73.5606 168.22 92.8554 168.22H92.8648Z" fill="#86CFED"/>
<path d="M160.501 211.411H79.7725C75.3542 211.411 71.7725 214.993 71.7725 219.411V273.315C71.7725 277.733 75.3542 281.315 79.7725 281.315H160.501C164.919 281.315 168.501 277.733 168.501 273.315V219.411C168.501 214.993 164.919 211.411 160.501 211.411Z" fill="white"/>
<path d="M74.9805 211.091L58.5594 192.168C57.6736 191.147 56.1281 191.037 55.1073 191.923C54.0865 192.809 53.9771 194.355 54.8629 195.375L71.2839 214.299C72.1697 215.32 73.7153 215.429 74.736 214.543C75.7568 213.658 75.8663 212.112 74.9805 211.091Z" fill="white"/>
<path d="M169.135 214.681L184.6 196.859C185.486 195.838 185.377 194.293 184.356 193.407C183.335 192.521 181.789 192.631 180.904 193.651L165.439 211.473C164.553 212.494 164.662 214.039 165.683 214.925C166.704 215.811 168.25 215.702 169.135 214.681Z" fill="white"/>
<path d="M59.7845 298.726L77.5133 278.296C78.3991 277.275 78.2897 275.729 77.2689 274.843C76.2481 273.958 74.7026 274.067 73.8168 275.088L56.088 295.518C55.2022 296.539 55.3116 298.085 56.3324 298.971C57.3532 299.856 58.8987 299.747 59.7845 298.726Z" fill="white"/>
<path d="M183.813 295.451L166.084 275.02C165.199 273.999 163.653 273.89 162.632 274.776C161.611 275.662 161.502 277.207 162.388 278.228L180.117 298.659C181.002 299.679 182.548 299.789 183.569 298.903C184.589 298.017 184.699 296.472 183.813 295.451Z" fill="white"/>
</g>
<g filter="url(#filter2_d_5233_18319)">
<path d="M425.759 340H470.504C497.884 340 520.115 362.231 520.115 389.611V562.05C520.115 582.568 503.456 599.237 482.928 599.237H413.326C392.807 599.237 376.139 582.578 376.139 562.05V389.611C376.148 362.231 398.379 340 425.759 340Z" fill="#B9D950"/>
<path d="M535.177 442.582C536.736 438.969 533.117 433.933 527.094 431.334C521.07 428.735 514.924 429.557 513.365 433.17C511.806 436.783 515.425 441.819 521.448 444.418C527.471 447.017 533.618 446.195 535.177 442.582Z" fill="#B9D950"/>
<path d="M374.552 446.845C380.575 444.246 384.194 439.21 382.635 435.597C381.076 431.984 374.929 431.162 368.906 433.761C362.883 436.36 359.264 441.396 360.823 445.009C362.382 448.622 368.528 449.444 374.552 446.845Z" fill="#B9D950"/>
<path d="M430.503 353.206H465.752C493.131 353.206 515.363 375.437 515.363 402.817V547.434C515.363 567.952 498.703 584.621 478.176 584.621H418.07C397.552 584.621 380.883 567.962 380.883 547.434V402.817C380.883 375.437 403.114 353.206 430.494 353.206H430.503Z" fill="#D5FA5D"/>
<path d="M420.865 416.22H475.399C494.694 416.22 510.356 431.881 510.356 451.176V528.026C510.356 540.459 500.256 550.559 487.823 550.559H408.432C395.999 550.559 385.899 540.459 385.899 528.026V451.176C385.899 431.881 401.561 416.22 420.856 416.22H420.865Z" fill="#86CFED"/>
<path d="M488.501 459.411H407.772C403.354 459.411 399.772 462.993 399.772 467.411V521.315C399.772 525.733 403.354 529.315 407.772 529.315H488.501C492.919 529.315 496.501 525.733 496.501 521.315V467.411C496.501 462.993 492.919 459.411 488.501 459.411Z" fill="#D5FA5D"/>
<path d="M402.98 459.091L386.559 440.168C385.673 439.147 384.128 439.037 383.107 439.923C382.086 440.809 381.977 442.355 382.862 443.375L399.283 462.299C400.169 463.32 401.715 463.429 402.736 462.543C403.756 461.658 403.866 460.112 402.98 459.091Z" fill="#D5FA5D"/>
<path d="M497.135 462.681L512.6 444.859C513.486 443.838 513.377 442.293 512.356 441.407C511.335 440.521 509.789 440.631 508.904 441.651L493.439 459.473C492.553 460.494 492.662 462.039 493.683 462.925C494.704 463.811 496.25 463.702 497.135 462.681Z" fill="#D5FA5D"/>
<path d="M387.785 546.726L405.513 526.296C406.399 525.275 406.29 523.729 405.269 522.843C404.248 521.958 402.703 522.067 401.817 523.088L384.088 543.518C383.202 544.539 383.312 546.085 384.332 546.971C385.353 547.856 386.899 547.747 387.785 546.726Z" fill="#D5FA5D"/>
<path d="M511.813 543.451L494.084 523.02C493.199 521.999 491.653 521.89 490.632 522.776C489.611 523.662 489.502 525.207 490.388 526.228L508.117 546.659C509.002 547.679 510.548 547.789 511.569 546.903C512.589 546.017 512.699 544.472 511.813 543.451Z" fill="#D5FA5D"/>
</g>
</g>
<path d="M376.776 26V9.2H382.296C383.608 9.2 384.688 9.416 385.536 9.848C386.384 10.28 387.008 10.864 387.408 11.6C387.824 12.336 388.032 13.168 388.032 14.096C388.032 15.008 387.832 15.832 387.432 16.568C387.032 17.304 386.408 17.896 385.56 18.344C384.712 18.776 383.624 18.992 382.296 18.992H378.792V26H376.776ZM378.792 17.288H382.248C383.576 17.288 384.528 17 385.104 16.424C385.68 15.848 385.968 15.072 385.968 14.096C385.968 13.072 385.68 12.28 385.104 11.72C384.528 11.16 383.576 10.88 382.248 10.88H378.792V17.288ZM394.432 26.288C393.44 26.288 392.616 26.12 391.96 25.784C391.304 25.448 390.816 25 390.496 24.44C390.176 23.88 390.016 23.272 390.016 22.616C390.016 21.8 390.224 21.112 390.64 20.552C391.072 19.992 391.672 19.568 392.44 19.28C393.224 18.976 394.144 18.824 395.2 18.824H398.416C398.416 18.088 398.296 17.48 398.056 17C397.816 16.504 397.472 16.136 397.024 15.896C396.576 15.64 396.04 15.512 395.416 15.512C394.632 15.512 393.952 15.712 393.376 16.112C392.8 16.496 392.448 17.064 392.32 17.816H390.256C390.352 16.952 390.648 16.224 391.144 15.632C391.64 15.04 392.264 14.592 393.016 14.288C393.784 13.968 394.584 13.808 395.416 13.808C396.52 13.808 397.44 14.016 398.176 14.432C398.928 14.832 399.488 15.4 399.856 16.136C400.24 16.856 400.432 17.704 400.432 18.68V26H398.632L398.512 23.864C398.352 24.2 398.144 24.52 397.888 24.824C397.648 25.112 397.36 25.368 397.024 25.592C396.704 25.8 396.328 25.968 395.896 26.096C395.464 26.224 394.976 26.288 394.432 26.288ZM394.744 24.584C395.32 24.584 395.832 24.472 396.28 24.248C396.744 24.008 397.136 23.688 397.456 23.288C397.776 22.888 398.016 22.44 398.176 21.944C398.336 21.448 398.416 20.936 398.416 20.408V20.384H395.368C394.584 20.384 393.952 20.48 393.472 20.672C392.992 20.848 392.648 21.096 392.44 21.416C392.232 21.736 392.128 22.104 392.128 22.52C392.128 22.936 392.224 23.304 392.416 23.624C392.624 23.928 392.92 24.168 393.304 24.344C393.704 24.504 394.184 24.584 394.744 24.584ZM403.96 26V14.096H405.784L405.952 16.4C406.208 15.856 406.544 15.392 406.96 15.008C407.376 14.624 407.872 14.328 408.448 14.12C409.024 13.912 409.68 13.808 410.416 13.808V15.92H409.864C409.336 15.92 408.832 15.992 408.352 16.136C407.888 16.264 407.472 16.48 407.104 16.784C406.752 17.088 406.472 17.504 406.264 18.032C406.072 18.56 405.976 19.216 405.976 20V26H403.96ZM420.622 26L414.838 19.448L420.046 14.096H422.518L416.542 20.168L416.566 18.728L423.19 26H420.622ZM413.158 26V8.72H415.174V26H413.158ZM425.948 26V14.096H427.964V26H425.948ZM426.956 11.456C426.556 11.456 426.22 11.328 425.948 11.072C425.692 10.8 425.564 10.464 425.564 10.064C425.564 9.664 425.692 9.344 425.948 9.104C426.22 8.848 426.556 8.72 426.956 8.72C427.34 8.72 427.668 8.848 427.94 9.104C428.212 9.344 428.348 9.664 428.348 10.064C428.348 10.464 428.212 10.8 427.94 11.072C427.668 11.328 427.34 11.456 426.956 11.456ZM431.954 26V14.096H433.778L433.898 16.232C434.282 15.48 434.834 14.888 435.554 14.456C436.274 14.024 437.09 13.808 438.002 13.808C438.946 13.808 439.762 14 440.45 14.384C441.138 14.752 441.674 15.328 442.058 16.112C442.442 16.88 442.634 17.856 442.634 19.04V26H440.618V19.256C440.618 18.024 440.354 17.096 439.826 16.472C439.298 15.848 438.538 15.536 437.546 15.536C436.858 15.536 436.242 15.704 435.698 16.04C435.17 16.376 434.746 16.864 434.426 17.504C434.122 18.128 433.97 18.904 433.97 19.832V26H431.954ZM450.897 31.568C449.825 31.568 448.873 31.424 448.041 31.136C447.209 30.864 446.561 30.44 446.097 29.864C445.633 29.288 445.401 28.576 445.401 27.728C445.401 27.376 445.473 26.992 445.617 26.576C445.777 26.176 446.041 25.776 446.409 25.376C446.793 24.976 447.329 24.616 448.017 24.296L449.361 25.112C448.545 25.464 448.009 25.864 447.753 26.312C447.497 26.76 447.369 27.168 447.369 27.536C447.369 28.064 447.521 28.504 447.825 28.856C448.129 29.208 448.545 29.472 449.073 29.648C449.617 29.824 450.225 29.912 450.897 29.912C451.569 29.912 452.145 29.808 452.625 29.6C453.121 29.408 453.505 29.136 453.777 28.784C454.049 28.432 454.185 28.016 454.185 27.536C454.185 27.024 453.977 26.576 453.561 26.192C453.161 25.824 452.393 25.608 451.257 25.544C450.313 25.48 449.521 25.392 448.881 25.28C448.257 25.168 447.737 25.04 447.321 24.896C446.905 24.736 446.553 24.56 446.265 24.368C445.993 24.176 445.745 23.976 445.521 23.768V23.216L447.849 20.888L449.553 21.512L447.201 23.696L447.513 22.88C447.689 23.008 447.857 23.128 448.017 23.24C448.177 23.336 448.393 23.424 448.665 23.504C448.937 23.584 449.313 23.656 449.793 23.72C450.273 23.784 450.913 23.848 451.713 23.912C452.785 23.992 453.649 24.184 454.305 24.488C454.961 24.792 455.433 25.2 455.721 25.712C456.025 26.208 456.177 26.792 456.177 27.464C456.177 28.152 455.985 28.808 455.601 29.432C455.233 30.056 454.657 30.568 453.873 30.968C453.105 31.368 452.113 31.568 450.897 31.568ZM450.873 22.256C449.865 22.256 449.009 22.072 448.305 21.704C447.601 21.32 447.065 20.808 446.697 20.168C446.329 19.528 446.145 18.816 446.145 18.032C446.145 17.248 446.329 16.544 446.697 15.92C447.065 15.28 447.601 14.768 448.305 14.384C449.009 14 449.865 13.808 450.873 13.808C451.881 13.808 452.737 14 453.441 14.384C454.145 14.768 454.681 15.28 455.049 15.92C455.417 16.544 455.601 17.248 455.601 18.032C455.601 18.816 455.417 19.528 455.049 20.168C454.681 20.808 454.145 21.32 453.441 21.704C452.737 22.072 451.881 22.256 450.873 22.256ZM450.873 20.6C451.721 20.6 452.393 20.384 452.889 19.952C453.401 19.504 453.657 18.864 453.657 18.032C453.657 17.216 453.401 16.592 452.889 16.16C452.393 15.712 451.721 15.488 450.873 15.488C450.025 15.488 449.345 15.712 448.833 16.16C448.321 16.592 448.065 17.216 448.065 18.032C448.065 18.864 448.321 19.504 448.833 19.952C449.345 20.384 450.025 20.6 450.873 20.6ZM452.793 15.8L452.193 14.096H457.137V15.608L452.793 15.8ZM466.843 26V9.2H468.859V24.392H476.683V26H466.843ZM483.772 26.288C482.78 26.288 481.956 26.12 481.3 25.784C480.644 25.448 480.156 25 479.836 24.44C479.516 23.88 479.356 23.272 479.356 22.616C479.356 21.8 479.564 21.112 479.98 20.552C480.412 19.992 481.012 19.568 481.78 19.28C482.564 18.976 483.484 18.824 484.54 18.824H487.756C487.756 18.088 487.636 17.48 487.396 17C487.156 16.504 486.812 16.136 486.364 15.896C485.916 15.64 485.38 15.512 484.756 15.512C483.972 15.512 483.292 15.712 482.716 16.112C482.14 16.496 481.788 17.064 481.66 17.816H479.596C479.692 16.952 479.988 16.224 480.484 15.632C480.98 15.04 481.604 14.592 482.356 14.288C483.124 13.968 483.924 13.808 484.756 13.808C485.86 13.808 486.78 14.016 487.516 14.432C488.268 14.832 488.828 15.4 489.196 16.136C489.58 16.856 489.772 17.704 489.772 18.68V26H487.972L487.852 23.864C487.692 24.2 487.484 24.52 487.228 24.824C486.988 25.112 486.7 25.368 486.364 25.592C486.044 25.8 485.668 25.968 485.236 26.096C484.804 26.224 484.316 26.288 483.772 26.288ZM484.084 24.584C484.66 24.584 485.172 24.472 485.62 24.248C486.084 24.008 486.476 23.688 486.796 23.288C487.116 22.888 487.356 22.44 487.516 21.944C487.676 21.448 487.756 20.936 487.756 20.408V20.384H484.708C483.924 20.384 483.292 20.48 482.812 20.672C482.332 20.848 481.988 21.096 481.78 21.416C481.572 21.736 481.468 22.104 481.468 22.52C481.468 22.936 481.564 23.304 481.756 23.624C481.964 23.928 482.26 24.168 482.644 24.344C483.044 24.504 483.524 24.584 484.084 24.584ZM493.3 26V14.096H495.124L495.244 16.232C495.628 15.48 496.18 14.888 496.9 14.456C497.62 14.024 498.436 13.808 499.348 13.808C500.292 13.808 501.108 14 501.796 14.384C502.484 14.752 503.02 15.328 503.404 16.112C503.788 16.88 503.98 17.856 503.98 19.04V26H501.964V19.256C501.964 18.024 501.7 17.096 501.172 16.472C500.644 15.848 499.884 15.536 498.892 15.536C498.204 15.536 497.588 15.704 497.044 16.04C496.516 16.376 496.092 16.864 495.772 17.504C495.468 18.128 495.316 18.904 495.316 19.832V26H493.3ZM512.866 26.288C511.73 26.288 510.722 26.032 509.842 25.52C508.962 24.992 508.266 24.264 507.754 23.336C507.258 22.392 507.01 21.296 507.01 20.048C507.01 18.784 507.258 17.688 507.754 16.76C508.25 15.832 508.938 15.112 509.818 14.6C510.714 14.072 511.746 13.808 512.914 13.808C514.082 13.808 515.082 14.072 515.914 14.6C516.746 15.112 517.386 15.792 517.834 16.64C518.282 17.472 518.506 18.384 518.506 19.376C518.506 19.536 518.506 19.712 518.506 19.904C518.506 20.08 518.498 20.28 518.482 20.504H508.522V18.944H516.514C516.466 17.872 516.098 17.032 515.41 16.424C514.738 15.816 513.89 15.512 512.866 15.512C512.178 15.512 511.538 15.664 510.946 15.968C510.354 16.272 509.874 16.72 509.506 17.312C509.154 17.888 508.978 18.616 508.978 19.496V20.168C508.978 21.144 509.162 21.96 509.53 22.616C509.898 23.272 510.378 23.768 510.97 24.104C511.562 24.424 512.194 24.584 512.866 24.584C513.698 24.584 514.394 24.392 514.954 24.008C515.514 23.624 515.922 23.104 516.178 22.448H518.17C517.962 23.184 517.618 23.84 517.138 24.416C516.658 24.992 516.058 25.448 515.338 25.784C514.634 26.12 513.81 26.288 512.866 26.288Z" fill="black"/>
<path d="M88.712 26V10.856H83.696V9.2H95.744V10.856H90.728V26H88.712ZM97.2063 26V14.096H99.0303L99.1983 16.4C99.4543 15.856 99.7903 15.392 100.206 15.008C100.622 14.624 101.118 14.328 101.694 14.12C102.27 13.912 102.926 13.808 103.662 13.808V15.92H103.11C102.582 15.92 102.078 15.992 101.598 16.136C101.134 16.264 100.718 16.48 100.35 16.784C99.9983 17.088 99.7183 17.504 99.5103 18.032C99.3183 18.56 99.2223 19.216 99.2223 20V26H97.2063ZM110.365 26.288C109.373 26.288 108.549 26.12 107.893 25.784C107.237 25.448 106.749 25 106.429 24.44C106.109 23.88 105.949 23.272 105.949 22.616C105.949 21.8 106.157 21.112 106.573 20.552C107.005 19.992 107.605 19.568 108.373 19.28C109.157 18.976 110.077 18.824 111.133 18.824H114.349C114.349 18.088 114.229 17.48 113.989 17C113.749 16.504 113.405 16.136 112.957 15.896C112.509 15.64 111.973 15.512 111.349 15.512C110.565 15.512 109.885 15.712 109.309 16.112C108.733 16.496 108.381 17.064 108.253 17.816H106.189C106.285 16.952 106.581 16.224 107.077 15.632C107.573 15.04 108.197 14.592 108.949 14.288C109.717 13.968 110.517 13.808 111.349 13.808C112.453 13.808 113.373 14.016 114.109 14.432C114.861 14.832 115.421 15.4 115.789 16.136C116.173 16.856 116.365 17.704 116.365 18.68V26H114.565L114.445 23.864C114.285 24.2 114.077 24.52 113.821 24.824C113.581 25.112 113.293 25.368 112.957 25.592C112.637 25.8 112.261 25.968 111.829 26.096C111.397 26.224 110.909 26.288 110.365 26.288ZM110.677 24.584C111.253 24.584 111.765 24.472 112.213 24.248C112.677 24.008 113.069 23.688 113.389 23.288C113.709 22.888 113.949 22.44 114.109 21.944C114.269 21.448 114.349 20.936 114.349 20.408V20.384H111.301C110.517 20.384 109.885 20.48 109.405 20.672C108.925 20.848 108.581 21.096 108.373 21.416C108.165 21.736 108.061 22.104 108.061 22.52C108.061 22.936 108.157 23.304 108.349 23.624C108.557 23.928 108.853 24.168 109.237 24.344C109.637 24.504 110.117 24.584 110.677 24.584ZM122.88 26L118.368 14.096H120.48L124.056 24.056L127.656 14.096H129.72L125.208 26H122.88ZM137.186 26.288C136.05 26.288 135.042 26.032 134.162 25.52C133.282 24.992 132.586 24.264 132.074 23.336C131.578 22.392 131.33 21.296 131.33 20.048C131.33 18.784 131.578 17.688 132.074 16.76C132.57 15.832 133.258 15.112 134.138 14.6C135.034 14.072 136.066 13.808 137.234 13.808C138.402 13.808 139.402 14.072 140.234 14.6C141.066 15.112 141.706 15.792 142.154 16.64C142.602 17.472 142.826 18.384 142.826 19.376C142.826 19.536 142.826 19.712 142.826 19.904C142.826 20.08 142.818 20.28 142.802 20.504H132.842V18.944H140.834C140.786 17.872 140.418 17.032 139.73 16.424C139.058 15.816 138.21 15.512 137.186 15.512C136.498 15.512 135.858 15.664 135.266 15.968C134.674 16.272 134.194 16.72 133.826 17.312C133.474 17.888 133.298 18.616 133.298 19.496V20.168C133.298 21.144 133.482 21.96 133.85 22.616C134.218 23.272 134.698 23.768 135.29 24.104C135.882 24.424 136.514 24.584 137.186 24.584C138.018 24.584 138.714 24.392 139.274 24.008C139.834 23.624 140.242 23.104 140.498 22.448H142.49C142.282 23.184 141.938 23.84 141.458 24.416C140.978 24.992 140.378 25.448 139.658 25.784C138.954 26.12 138.13 26.288 137.186 26.288ZM145.978 26V8.72H147.994V26H145.978ZM158.73 26V9.2H160.746V24.392H168.57V26H158.73ZM175.659 26.288C174.667 26.288 173.843 26.12 173.187 25.784C172.531 25.448 172.043 25 171.723 24.44C171.403 23.88 171.243 23.272 171.243 22.616C171.243 21.8 171.451 21.112 171.867 20.552C172.299 19.992 172.899 19.568 173.667 19.28C174.451 18.976 175.371 18.824 176.427 18.824H179.643C179.643 18.088 179.523 17.48 179.283 17C179.043 16.504 178.699 16.136 178.251 15.896C177.803 15.64 177.267 15.512 176.643 15.512C175.859 15.512 175.179 15.712 174.603 16.112C174.027 16.496 173.675 17.064 173.547 17.816H171.483C171.579 16.952 171.875 16.224 172.371 15.632C172.867 15.04 173.491 14.592 174.243 14.288C175.011 13.968 175.811 13.808 176.643 13.808C177.747 13.808 178.667 14.016 179.403 14.432C180.155 14.832 180.715 15.4 181.083 16.136C181.467 16.856 181.659 17.704 181.659 18.68V26H179.859L179.739 23.864C179.579 24.2 179.371 24.52 179.115 24.824C178.875 25.112 178.587 25.368 178.251 25.592C177.931 25.8 177.555 25.968 177.123 26.096C176.691 26.224 176.203 26.288 175.659 26.288ZM175.971 24.584C176.547 24.584 177.059 24.472 177.507 24.248C177.971 24.008 178.363 23.688 178.683 23.288C179.003 22.888 179.243 22.44 179.403 21.944C179.563 21.448 179.643 20.936 179.643 20.408V20.384H176.595C175.811 20.384 175.179 20.48 174.699 20.672C174.219 20.848 173.875 21.096 173.667 21.416C173.459 21.736 173.355 22.104 173.355 22.52C173.355 22.936 173.451 23.304 173.643 23.624C173.851 23.928 174.147 24.168 174.531 24.344C174.931 24.504 175.411 24.584 175.971 24.584ZM185.187 26V14.096H187.011L187.131 16.232C187.515 15.48 188.067 14.888 188.787 14.456C189.507 14.024 190.323 13.808 191.235 13.808C192.179 13.808 192.995 14 193.683 14.384C194.371 14.752 194.907 15.328 195.291 16.112C195.675 16.88 195.867 17.856 195.867 19.04V26H193.851V19.256C193.851 18.024 193.587 17.096 193.059 16.472C192.531 15.848 191.771 15.536 190.779 15.536C190.091 15.536 189.475 15.704 188.931 16.04C188.403 16.376 187.979 16.864 187.659 17.504C187.355 18.128 187.203 18.904 187.203 19.832V26H185.187ZM204.753 26.288C203.617 26.288 202.609 26.032 201.729 25.52C200.849 24.992 200.153 24.264 199.641 23.336C199.145 22.392 198.897 21.296 198.897 20.048C198.897 18.784 199.145 17.688 199.641 16.76C200.137 15.832 200.825 15.112 201.705 14.6C202.601 14.072 203.633 13.808 204.801 13.808C205.969 13.808 206.969 14.072 207.801 14.6C208.633 15.112 209.273 15.792 209.721 16.64C210.169 17.472 210.393 18.384 210.393 19.376C210.393 19.536 210.393 19.712 210.393 19.904C210.393 20.08 210.385 20.28 210.369 20.504H200.409V18.944H208.401C208.353 17.872 207.985 17.032 207.297 16.424C206.625 15.816 205.777 15.512 204.753 15.512C204.065 15.512 203.425 15.664 202.833 15.968C202.241 16.272 201.761 16.72 201.393 17.312C201.041 17.888 200.865 18.616 200.865 19.496V20.168C200.865 21.144 201.049 21.96 201.417 22.616C201.785 23.272 202.265 23.768 202.857 24.104C203.449 24.424 204.081 24.584 204.753 24.584C205.585 24.584 206.281 24.392 206.841 24.008C207.401 23.624 207.809 23.104 208.065 22.448H210.057C209.849 23.184 209.505 23.84 209.025 24.416C208.545 24.992 207.945 25.448 207.225 25.784C206.521 26.12 205.697 26.288 204.753 26.288Z" fill="black"/>
<rect x="325" y="48" width="10" height="500" fill="white"/>
<g clip-path="url(#clip0_5233_18319)" filter="url(#filter3_d_5233_18319)">
<path d="M274.062 342.806V365.001" stroke="#9AB445" stroke-width="4.81074"/>
<path d="M275.223 382.717H272.907C270.284 382.717 268.158 384.843 268.158 387.466V422.247C268.158 424.87 270.284 426.996 272.907 426.996H275.223C277.846 426.996 279.972 424.87 279.972 422.247V387.466C279.972 384.843 277.846 382.717 275.223 382.717Z" fill="#62657A"/>
<path d="M296.227 352.107L289.532 336.789C288.607 334.673 286.142 333.708 284.027 334.632L284.021 334.635C281.905 335.56 280.94 338.025 281.864 340.14L288.56 355.458C289.485 357.574 291.949 358.539 294.065 357.614L294.071 357.612C296.187 356.687 297.152 354.222 296.227 352.107Z" fill="#171759"/>
<path d="M296.305 347.51L290.72 349.951C288.604 350.876 287.638 353.341 288.563 355.456L288.566 355.462C289.49 357.578 291.955 358.543 294.071 357.618L299.656 355.177C301.772 354.252 302.737 351.788 301.812 349.672L301.81 349.666C300.885 347.551 298.42 346.585 296.305 347.51Z" fill="#171759"/>
<path d="M258.664 355.46L265.36 340.142C266.284 338.027 265.319 335.562 263.203 334.637L263.198 334.635C261.082 333.71 258.617 334.675 257.692 336.791L250.997 352.109C250.072 354.225 251.038 356.689 253.153 357.614L253.159 357.617C255.275 358.541 257.74 357.576 258.664 355.46Z" fill="#171759"/>
<path d="M247.578 355.171L253.163 357.613C255.279 358.537 257.744 357.572 258.669 355.456L258.671 355.451C259.596 353.335 258.63 350.87 256.515 349.945L250.93 347.504C248.814 346.579 246.349 347.545 245.424 349.66L245.422 349.666C244.497 351.782 245.463 354.247 247.578 355.171Z" fill="#171759"/>
<path d="M273.501 342.058C295.097 342.058 312.604 324.55 312.604 302.954C312.604 281.358 295.097 263.851 273.501 263.851C251.905 263.851 234.397 281.358 234.397 302.954C234.397 324.55 251.905 342.058 273.501 342.058Z" fill="#62657A"/>
<path opacity="0.43" d="M273.501 324.204C285.237 324.204 294.751 314.69 294.751 302.954C294.751 291.218 285.237 281.704 273.501 281.704C261.765 281.704 252.251 291.218 252.251 302.954C252.251 314.69 261.765 324.204 273.501 324.204Z" stroke="#D3D3DD" stroke-width="3.08777" stroke-miterlimit="10"/>
<path opacity="0.43" d="M273.5 319.177C282.46 319.177 289.724 311.914 289.724 302.954C289.724 293.994 282.46 286.731 273.5 286.731C264.541 286.731 257.277 293.994 257.277 302.954C257.277 311.914 264.541 319.177 273.5 319.177Z" fill="#D3D3DD"/>
<path opacity="0.2" d="M312.605 302.954C312.605 324.55 295.097 342.058 273.501 342.058C262.466 342.058 252.505 337.488 245.396 330.133C251.436 333.949 258.587 336.16 266.257 336.16C287.853 336.16 305.355 318.652 305.355 297.056C305.355 286.496 301.174 276.912 294.362 269.878C305.324 276.801 312.605 289.028 312.605 302.954Z" fill="#3D3D60"/>
<path d="M308.886 304.121C308.294 321.9 294.59 336.357 277.132 338.129" stroke="#4E4E68" stroke-width="3.08777" stroke-miterlimit="10" stroke-linecap="round"/>
<path d="M303.52 306.444C302.094 318.702 293.331 328.719 281.739 331.992" stroke="#4E4E68" stroke-width="3.08777" stroke-miterlimit="10" stroke-linecap="round"/>
<path d="M238.121 301.787C238.714 284.008 252.417 269.551 269.876 267.778" stroke="#4E4E68" stroke-width="3.08777" stroke-miterlimit="10" stroke-linecap="round"/>
<path d="M243.488 299.464C244.915 287.206 253.678 277.189 265.269 273.916" stroke="#4E4E68" stroke-width="3.08777" stroke-miterlimit="10" stroke-linecap="round"/>
<path d="M281.683 338.445H266.448C263.488 338.445 261.088 340.845 261.088 343.806V343.812C261.088 346.772 263.488 349.172 266.448 349.172H281.683C284.644 349.172 287.044 346.772 287.044 343.812V343.806C287.044 340.845 284.644 338.445 281.683 338.445Z" fill="#FCD579"/>
<path d="M274.062 355.724C278.119 355.724 281.417 359.021 281.417 363.079V391.004H266.707V363.079C266.707 359.021 270.005 355.724 274.062 355.724Z" fill="#BBD567"/>
<path d="M275.223 382.717H272.907C270.284 382.717 268.158 384.843 268.158 387.466V422.247C268.158 424.87 270.284 426.996 272.907 426.996H275.223C277.846 426.996 279.972 424.87 279.972 422.247V387.466C279.972 384.843 277.846 382.717 275.223 382.717Z" fill="#62657A"/>
<path d="M274.062 355.724C278.119 355.724 281.417 359.021 281.417 363.079V391.004H266.707V363.079C266.707 359.021 270.005 355.724 274.062 355.724Z" fill="#BBD567"/>
<path d="M311.22 301.212C300.419 302.83 287.771 304.016 273.636 304.022C259.383 304.028 246.642 302.837 235.78 301.212C235.551 301.212 234.341 301.188 233.365 300.267C232.747 299.681 232.358 298.878 232.358 297.989V292.801C232.358 291.029 233.896 289.578 235.78 289.578H311.22C313.097 289.578 314.641 291.029 314.641 292.801V297.989C314.641 299.761 313.103 301.212 311.22 301.212Z" fill="#312A4C"/>
<path d="M234.465 295.395C232.452 295.395 230.84 293.697 231.013 291.702C232.921 270.149 251.355 253 273.5 253C295.646 253 314.08 270.149 315.988 291.702C316.167 293.691 314.549 295.395 312.536 295.395H234.465Z" fill="#FF525F"/>
</g>
<g filter="url(#filter4_d_5233_18319)">
<path d="M425.759 61H470.504C497.884 61 520.115 83.2314 520.115 110.611V283.05C520.115 303.568 503.456 320.237 482.928 320.237H413.326C392.807 320.237 376.139 303.578 376.139 283.05V110.611C376.148 83.2314 398.379 61 425.759 61Z" fill="#F76626"/>
<path d="M535.177 163.582C536.736 159.969 533.117 154.933 527.094 152.334C521.07 149.735 514.924 150.557 513.365 154.17C511.806 157.783 515.425 162.819 521.448 165.418C527.471 168.017 533.618 167.195 535.177 163.582Z" fill="#F76626"/>
<path d="M374.552 167.845C380.575 165.246 384.194 160.21 382.635 156.597C381.076 152.984 374.929 152.162 368.906 154.761C362.883 157.36 359.264 162.396 360.823 166.009C362.382 169.622 368.528 170.444 374.552 167.845Z" fill="#F76626"/>
<path d="M430.503 74.2061H465.752C493.131 74.2061 515.363 96.4374 515.363 123.817V268.434C515.363 288.952 498.703 305.621 478.176 305.621H418.07C397.552 305.621 380.883 288.962 380.883 268.434V123.817C380.883 96.4374 403.114 74.2061 430.494 74.2061H430.503Z" fill="#FC8332"/>
<path d="M420.865 137.22H475.399C494.694 137.22 510.356 152.881 510.356 172.176V249.026C510.356 261.459 500.256 271.559 487.823 271.559H408.432C395.999 271.559 385.899 261.459 385.899 249.026V172.176C385.899 152.881 401.561 137.22 420.856 137.22H420.865Z" fill="#B4DEEF"/>
<path d="M496.501 180.411H399.772V250.315H496.501V180.411Z" fill="#FC8332"/>
<path d="M404.584 181.939L384.955 159.319L381.259 162.527L400.887 185.147L404.584 181.939Z" fill="#FC8332"/>
<path d="M495.531 185.529L514.204 164.011L510.508 160.803L491.835 182.321L495.531 185.529Z" fill="#FC8332"/>
<path d="M386.181 269.574L407.117 245.447L403.421 242.24L382.484 266.367L386.181 269.574Z" fill="#FC8332"/>
<path d="M513.417 266.299L492.48 242.172L488.784 245.38L509.72 269.507L513.417 266.299Z" fill="#FC8332"/>
</g>
<g filter="url(#filter5_d_5233_18319)">
<rect x="227" y="125" width="192" height="96" rx="8" fill="#FAFFEA"/>
<g clip-path="url(#clip1_5233_18319)">
<path d="M259.859 174.562V174.5L259.484 169.5C259.474 169.365 259.417 169.247 259.312 169.148C259.208 169.049 259.089 169 258.953 169H256.047C255.911 169 255.792 169.049 255.688 169.148C255.583 169.247 255.526 169.365 255.516 169.5L255.141 174.5V174.562C255.13 174.688 255.172 174.792 255.266 174.875C255.359 174.958 255.469 175 255.594 175H259.406C259.531 175 259.641 174.958 259.734 174.875C259.828 174.792 259.87 174.688 259.859 174.562ZM271.719 181.859C271.719 182.62 271.479 183 271 183H260C260.135 183 260.25 182.951 260.344 182.852C260.438 182.753 260.479 182.635 260.469 182.5L260.156 178.5C260.146 178.365 260.089 178.247 259.984 178.148C259.88 178.049 259.76 178 259.625 178H255.375C255.24 178 255.12 178.049 255.016 178.148C254.911 178.247 254.854 178.365 254.844 178.5L254.531 182.5C254.521 182.635 254.562 182.753 254.656 182.852C254.75 182.951 254.865 183 255 183H244C243.521 183 243.281 182.62 243.281 181.859C243.281 181.297 243.417 180.693 243.688 180.047L250.203 163.734C250.286 163.536 250.422 163.365 250.609 163.219C250.797 163.073 250.995 163 251.203 163H256.5C256.365 163 256.245 163.049 256.141 163.148C256.036 163.247 255.979 163.365 255.969 163.5L255.734 166.5C255.724 166.646 255.766 166.766 255.859 166.859C255.953 166.953 256.068 167 256.203 167H258.797C258.932 167 259.047 166.953 259.141 166.859C259.234 166.766 259.276 166.646 259.266 166.5L259.031 163.5C259.021 163.365 258.964 163.247 258.859 163.148C258.755 163.049 258.635 163 258.5 163H263.797C264.005 163 264.203 163.073 264.391 163.219C264.578 163.365 264.714 163.536 264.797 163.734L271.312 180.047C271.583 180.693 271.719 181.297 271.719 181.859Z" fill="black"/>
</g>
<path d="M285.05 154V144.2H288.214C288.979 144.2 289.605 144.331 290.09 144.592C290.575 144.844 290.935 145.185 291.168 145.614C291.401 146.043 291.518 146.529 291.518 147.07C291.518 147.593 291.397 148.073 291.154 148.512C290.921 148.951 290.557 149.301 290.062 149.562C289.567 149.823 288.933 149.954 288.158 149.954H286.226V154H285.05ZM290.23 154L288.074 149.618H289.39L291.616 154H290.23ZM286.226 149.03H288.13C288.877 149.03 289.423 148.848 289.768 148.484C290.123 148.12 290.3 147.653 290.3 147.084C290.3 146.505 290.127 146.048 289.782 145.712C289.446 145.367 288.891 145.194 288.116 145.194H286.226V149.03ZM293.405 154V146.944H294.581V154H293.405ZM293.993 145.446C293.759 145.446 293.563 145.371 293.405 145.222C293.255 145.063 293.181 144.867 293.181 144.634C293.181 144.401 293.255 144.214 293.405 144.074C293.563 143.925 293.759 143.85 293.993 143.85C294.217 143.85 294.408 143.925 294.567 144.074C294.725 144.214 294.805 144.401 294.805 144.634C294.805 144.867 294.725 145.063 294.567 145.222C294.408 145.371 294.217 145.446 293.993 145.446ZM299.764 154.168C299.082 154.168 298.485 154.009 297.972 153.692C297.458 153.365 297.062 152.922 296.782 152.362C296.502 151.802 296.362 151.167 296.362 150.458C296.362 149.749 296.502 149.119 296.782 148.568C297.062 148.008 297.458 147.569 297.972 147.252C298.494 146.935 299.096 146.776 299.778 146.776C300.356 146.776 300.86 146.893 301.29 147.126C301.728 147.359 302.064 147.686 302.298 148.106V143.92H303.474V154H302.41L302.312 152.838C302.162 153.071 301.971 153.291 301.738 153.496C301.504 153.692 301.224 153.855 300.898 153.986C300.571 154.107 300.193 154.168 299.764 154.168ZM299.904 153.146C300.37 153.146 300.781 153.034 301.136 152.81C301.49 152.586 301.766 152.278 301.962 151.886C302.158 151.485 302.256 151.013 302.256 150.472C302.256 149.94 302.158 149.473 301.962 149.072C301.766 148.671 301.49 148.358 301.136 148.134C300.781 147.91 300.37 147.798 299.904 147.798C299.446 147.798 299.04 147.91 298.686 148.134C298.331 148.358 298.056 148.671 297.86 149.072C297.664 149.473 297.566 149.94 297.566 150.472C297.566 151.013 297.664 151.485 297.86 151.886C298.056 152.278 298.331 152.586 298.686 152.81C299.04 153.034 299.446 153.146 299.904 153.146ZM308.527 154.168C307.864 154.168 307.276 154.014 306.763 153.706C306.259 153.398 305.862 152.969 305.573 152.418C305.284 151.858 305.139 151.209 305.139 150.472C305.139 149.725 305.279 149.077 305.559 148.526C305.848 147.975 306.25 147.546 306.763 147.238C307.286 146.93 307.883 146.776 308.555 146.776C309.246 146.776 309.829 146.93 310.305 147.238C310.79 147.546 311.159 147.952 311.411 148.456C311.672 148.951 311.803 149.497 311.803 150.094C311.803 150.187 311.803 150.285 311.803 150.388C311.803 150.491 311.798 150.607 311.789 150.738H306.021V149.828H310.655C310.627 149.184 310.412 148.68 310.011 148.316C309.619 147.952 309.124 147.77 308.527 147.77C308.126 147.77 307.752 147.863 307.407 148.05C307.071 148.227 306.8 148.493 306.595 148.848C306.39 149.193 306.287 149.627 306.287 150.15V150.542C306.287 151.121 306.39 151.606 306.595 151.998C306.81 152.39 307.085 152.684 307.421 152.88C307.766 153.076 308.135 153.174 308.527 153.174C309.022 153.174 309.428 153.067 309.745 152.852C310.072 152.628 310.305 152.329 310.445 151.956H311.607C311.495 152.376 311.299 152.754 311.019 153.09C310.739 153.426 310.389 153.692 309.969 153.888C309.558 154.075 309.078 154.168 308.527 154.168ZM319.405 154.168C318.836 154.168 318.36 154.07 317.977 153.874C317.594 153.669 317.31 153.403 317.123 153.076C316.936 152.74 316.843 152.376 316.843 151.984C316.843 151.508 316.964 151.107 317.207 150.78C317.459 150.444 317.809 150.192 318.257 150.024C318.714 149.847 319.251 149.758 319.867 149.758H321.729C321.729 149.319 321.659 148.955 321.519 148.666C321.388 148.367 321.192 148.143 320.931 147.994C320.679 147.845 320.362 147.77 319.979 147.77C319.531 147.77 319.144 147.882 318.817 148.106C318.49 148.33 318.29 148.661 318.215 149.1H317.011C317.067 148.596 317.235 148.176 317.515 147.84C317.804 147.495 318.168 147.233 318.607 147.056C319.046 146.869 319.503 146.776 319.979 146.776C320.632 146.776 321.174 146.897 321.603 147.14C322.042 147.373 322.368 147.705 322.583 148.134C322.798 148.554 322.905 149.053 322.905 149.632V154H321.855L321.785 152.754C321.692 152.95 321.57 153.137 321.421 153.314C321.281 153.482 321.113 153.631 320.917 153.762C320.721 153.883 320.497 153.981 320.245 154.056C320.002 154.131 319.722 154.168 319.405 154.168ZM319.587 153.174C319.914 153.174 320.208 153.109 320.469 152.978C320.74 152.838 320.968 152.651 321.155 152.418C321.342 152.175 321.482 151.909 321.575 151.62C321.678 151.331 321.729 151.027 321.729 150.71V150.668H319.965C319.508 150.668 319.139 150.724 318.859 150.836C318.579 150.939 318.378 151.088 318.257 151.284C318.136 151.471 318.075 151.685 318.075 151.928C318.075 152.18 318.131 152.399 318.243 152.586C318.364 152.773 318.537 152.917 318.761 153.02C318.994 153.123 319.27 153.174 319.587 153.174ZM327.384 154.168C326.796 154.168 326.283 154.07 325.844 153.874C325.415 153.678 325.069 153.407 324.808 153.062C324.556 152.707 324.402 152.292 324.346 151.816H325.55C325.597 152.059 325.695 152.283 325.844 152.488C325.993 152.693 326.194 152.861 326.446 152.992C326.707 153.113 327.025 153.174 327.398 153.174C327.725 153.174 327.995 153.127 328.21 153.034C328.425 152.931 328.583 152.796 328.686 152.628C328.798 152.46 328.854 152.278 328.854 152.082C328.854 151.793 328.784 151.573 328.644 151.424C328.513 151.275 328.317 151.158 328.056 151.074C327.795 150.981 327.477 150.901 327.104 150.836C326.796 150.78 326.493 150.705 326.194 150.612C325.895 150.519 325.629 150.397 325.396 150.248C325.163 150.089 324.976 149.898 324.836 149.674C324.705 149.45 324.64 149.175 324.64 148.848C324.64 148.447 324.743 148.092 324.948 147.784C325.153 147.467 325.447 147.219 325.83 147.042C326.222 146.865 326.675 146.776 327.188 146.776C327.944 146.776 328.555 146.958 329.022 147.322C329.489 147.686 329.764 148.213 329.848 148.904H328.686C328.639 148.549 328.485 148.274 328.224 148.078C327.972 147.873 327.622 147.77 327.174 147.77C326.735 147.77 326.399 147.859 326.166 148.036C325.942 148.213 325.83 148.447 325.83 148.736C325.83 148.923 325.891 149.091 326.012 149.24C326.143 149.38 326.329 149.501 326.572 149.604C326.824 149.707 327.132 149.791 327.496 149.856C327.963 149.94 328.387 150.052 328.77 150.192C329.153 150.332 329.461 150.542 329.694 150.822C329.937 151.093 330.058 151.48 330.058 151.984C330.058 152.423 329.946 152.805 329.722 153.132C329.507 153.459 329.199 153.715 328.798 153.902C328.397 154.079 327.925 154.168 327.384 154.168ZM338.648 154.168C337.986 154.168 337.388 154.014 336.856 153.706C336.334 153.398 335.923 152.969 335.624 152.418C335.326 151.858 335.176 151.214 335.176 150.486C335.176 149.739 335.326 149.091 335.624 148.54C335.923 147.989 336.334 147.56 336.856 147.252C337.388 146.935 337.986 146.776 338.648 146.776C339.488 146.776 340.188 146.995 340.748 147.434C341.308 147.863 341.663 148.442 341.812 149.17H340.608C340.515 148.731 340.286 148.391 339.922 148.148C339.558 147.905 339.129 147.784 338.634 147.784C338.233 147.784 337.86 147.887 337.514 148.092C337.169 148.288 336.894 148.587 336.688 148.988C336.483 149.389 336.38 149.884 336.38 150.472C336.38 150.911 336.441 151.303 336.562 151.648C336.684 151.984 336.847 152.264 337.052 152.488C337.258 152.712 337.496 152.885 337.766 153.006C338.046 153.118 338.336 153.174 338.634 153.174C338.97 153.174 339.274 153.123 339.544 153.02C339.815 152.908 340.044 152.745 340.23 152.53C340.417 152.315 340.543 152.063 340.608 151.774H341.812C341.663 152.483 341.304 153.062 340.734 153.51C340.174 153.949 339.479 154.168 338.648 154.168ZM343.482 154V143.92H344.658V154H343.482ZM349.749 154.168C349.096 154.168 348.508 154.019 347.985 153.72C347.462 153.412 347.052 152.983 346.753 152.432C346.454 151.872 346.305 151.223 346.305 150.486C346.305 149.73 346.454 149.077 346.753 148.526C347.061 147.966 347.476 147.537 347.999 147.238C348.531 146.93 349.124 146.776 349.777 146.776C350.449 146.776 351.042 146.93 351.555 147.238C352.078 147.537 352.488 147.966 352.787 148.526C353.095 149.077 353.249 149.725 353.249 150.472C353.249 151.219 353.095 151.872 352.787 152.432C352.479 152.983 352.064 153.412 351.541 153.72C351.018 154.019 350.421 154.168 349.749 154.168ZM349.763 153.16C350.164 153.16 350.538 153.062 350.883 152.866C351.228 152.661 351.508 152.357 351.723 151.956C351.938 151.555 352.045 151.06 352.045 150.472C352.045 149.875 351.938 149.38 351.723 148.988C351.518 148.587 351.242 148.288 350.897 148.092C350.561 147.887 350.188 147.784 349.777 147.784C349.385 147.784 349.012 147.887 348.657 148.092C348.312 148.288 348.032 148.587 347.817 148.988C347.612 149.38 347.509 149.875 347.509 150.472C347.509 151.06 347.612 151.555 347.817 151.956C348.032 152.357 348.307 152.661 348.643 152.866C348.988 153.062 349.362 153.16 349.763 153.16ZM357.558 154.168C356.97 154.168 356.457 154.07 356.018 153.874C355.589 153.678 355.243 153.407 354.982 153.062C354.73 152.707 354.576 152.292 354.52 151.816H355.724C355.771 152.059 355.869 152.283 356.018 152.488C356.167 152.693 356.368 152.861 356.62 152.992C356.881 153.113 357.199 153.174 357.572 153.174C357.899 153.174 358.169 153.127 358.384 153.034C358.599 152.931 358.757 152.796 358.86 152.628C358.972 152.46 359.028 152.278 359.028 152.082C359.028 151.793 358.958 151.573 358.818 151.424C358.687 151.275 358.491 151.158 358.23 151.074C357.969 150.981 357.651 150.901 357.278 150.836C356.97 150.78 356.667 150.705 356.368 150.612C356.069 150.519 355.803 150.397 355.57 150.248C355.337 150.089 355.15 149.898 355.01 149.674C354.879 149.45 354.814 149.175 354.814 148.848C354.814 148.447 354.917 148.092 355.122 147.784C355.327 147.467 355.621 147.219 356.004 147.042C356.396 146.865 356.849 146.776 357.362 146.776C358.118 146.776 358.729 146.958 359.196 147.322C359.663 147.686 359.938 148.213 360.022 148.904H358.86C358.813 148.549 358.659 148.274 358.398 148.078C358.146 147.873 357.796 147.77 357.348 147.77C356.909 147.77 356.573 147.859 356.34 148.036C356.116 148.213 356.004 148.447 356.004 148.736C356.004 148.923 356.065 149.091 356.186 149.24C356.317 149.38 356.503 149.501 356.746 149.604C356.998 149.707 357.306 149.791 357.67 149.856C358.137 149.94 358.561 150.052 358.944 150.192C359.327 150.332 359.635 150.542 359.868 150.822C360.111 151.093 360.232 151.48 360.232 151.984C360.232 152.423 360.12 152.805 359.896 153.132C359.681 153.459 359.373 153.715 358.972 153.902C358.571 154.079 358.099 154.168 357.558 154.168ZM365.019 154.168C364.357 154.168 363.769 154.014 363.255 153.706C362.751 153.398 362.355 152.969 362.065 152.418C361.776 151.858 361.631 151.209 361.631 150.472C361.631 149.725 361.771 149.077 362.051 148.526C362.341 147.975 362.742 147.546 363.255 147.238C363.778 146.93 364.375 146.776 365.047 146.776C365.738 146.776 366.321 146.93 366.797 147.238C367.283 147.546 367.651 147.952 367.903 148.456C368.165 148.951 368.295 149.497 368.295 150.094C368.295 150.187 368.295 150.285 368.295 150.388C368.295 150.491 368.291 150.607 368.281 150.738H362.513V149.828H367.147C367.119 149.184 366.905 148.68 366.503 148.316C366.111 147.952 365.617 147.77 365.019 147.77C364.618 147.77 364.245 147.863 363.899 148.05C363.563 148.227 363.293 148.493 363.087 148.848C362.882 149.193 362.779 149.627 362.779 150.15V150.542C362.779 151.121 362.882 151.606 363.087 151.998C363.302 152.39 363.577 152.684 363.913 152.88C364.259 153.076 364.627 153.174 365.019 153.174C365.514 153.174 365.92 153.067 366.237 152.852C366.564 152.628 366.797 152.329 366.937 151.956H368.099C367.987 152.376 367.791 152.754 367.511 153.09C367.231 153.426 366.881 153.692 366.461 153.888C366.051 154.075 365.57 154.168 365.019 154.168ZM375.897 154.168C375.328 154.168 374.852 154.07 374.469 153.874C374.086 153.669 373.802 153.403 373.615 153.076C373.428 152.74 373.335 152.376 373.335 151.984C373.335 151.508 373.456 151.107 373.699 150.78C373.951 150.444 374.301 150.192 374.749 150.024C375.206 149.847 375.743 149.758 376.359 149.758H378.221C378.221 149.319 378.151 148.955 378.011 148.666C377.88 148.367 377.684 148.143 377.423 147.994C377.171 147.845 376.854 147.77 376.471 147.77C376.023 147.77 375.636 147.882 375.309 148.106C374.982 148.33 374.782 148.661 374.707 149.1H373.503C373.559 148.596 373.727 148.176 374.007 147.84C374.296 147.495 374.66 147.233 375.099 147.056C375.538 146.869 375.995 146.776 376.471 146.776C377.124 146.776 377.666 146.897 378.095 147.14C378.534 147.373 378.86 147.705 379.075 148.134C379.29 148.554 379.397 149.053 379.397 149.632V154H378.347L378.277 152.754C378.184 152.95 378.062 153.137 377.913 153.314C377.773 153.482 377.605 153.631 377.409 153.762C377.213 153.883 376.989 153.981 376.737 154.056C376.494 154.131 376.214 154.168 375.897 154.168ZM376.079 153.174C376.406 153.174 376.7 153.109 376.961 152.978C377.232 152.838 377.46 152.651 377.647 152.418C377.834 152.175 377.974 151.909 378.067 151.62C378.17 151.331 378.221 151.027 378.221 150.71V150.668H376.457C376 150.668 375.631 150.724 375.351 150.836C375.071 150.939 374.87 151.088 374.749 151.284C374.628 151.471 374.567 151.685 374.567 151.928C374.567 152.18 374.623 152.399 374.735 152.586C374.856 152.773 375.029 152.917 375.253 153.02C375.486 153.123 375.762 153.174 376.079 153.174ZM383.876 154.168C383.288 154.168 382.775 154.07 382.336 153.874C381.907 153.678 381.562 153.407 381.3 153.062C381.048 152.707 380.894 152.292 380.838 151.816H382.042C382.089 152.059 382.187 152.283 382.336 152.488C382.486 152.693 382.686 152.861 382.938 152.992C383.2 153.113 383.517 153.174 383.89 153.174C384.217 153.174 384.488 153.127 384.702 153.034C384.917 152.931 385.076 152.796 385.178 152.628C385.29 152.46 385.346 152.278 385.346 152.082C385.346 151.793 385.276 151.573 385.136 151.424C385.006 151.275 384.81 151.158 384.548 151.074C384.287 150.981 383.97 150.901 383.596 150.836C383.288 150.78 382.985 150.705 382.686 150.612C382.388 150.519 382.122 150.397 381.888 150.248C381.655 150.089 381.468 149.898 381.328 149.674C381.198 149.45 381.132 149.175 381.132 148.848C381.132 148.447 381.235 148.092 381.44 147.784C381.646 147.467 381.94 147.219 382.322 147.042C382.714 146.865 383.167 146.776 383.68 146.776C384.436 146.776 385.048 146.958 385.514 147.322C385.981 147.686 386.256 148.213 386.34 148.904H385.178C385.132 148.549 384.978 148.274 384.716 148.078C384.464 147.873 384.114 147.77 383.666 147.77C383.228 147.77 382.892 147.859 382.658 148.036C382.434 148.213 382.322 148.447 382.322 148.736C382.322 148.923 382.383 149.091 382.504 149.24C382.635 149.38 382.822 149.501 383.064 149.604C383.316 149.707 383.624 149.791 383.988 149.856C384.455 149.94 384.88 150.052 385.262 150.192C385.645 150.332 385.953 150.542 386.186 150.822C386.429 151.093 386.55 151.48 386.55 151.984C386.55 152.423 386.438 152.805 386.214 153.132C386 153.459 385.692 153.715 385.29 153.902C384.889 154.079 384.418 154.168 383.876 154.168ZM284.98 173.08V162.944H286.044L286.142 164.092C286.291 163.868 286.483 163.658 286.716 163.462C286.949 163.257 287.229 163.093 287.556 162.972C287.883 162.841 288.256 162.776 288.676 162.776C289.367 162.776 289.964 162.939 290.468 163.266C290.981 163.593 291.378 164.036 291.658 164.596C291.947 165.147 292.092 165.777 292.092 166.486C292.092 167.195 291.947 167.83 291.658 168.39C291.378 168.941 290.981 169.375 290.468 169.692C289.955 170.009 289.353 170.168 288.662 170.168C288.093 170.168 287.589 170.051 287.15 169.818C286.721 169.585 286.389 169.258 286.156 168.838V173.08H284.98ZM288.536 169.146C288.993 169.146 289.399 169.034 289.754 168.81C290.109 168.586 290.384 168.278 290.58 167.886C290.785 167.485 290.888 167.013 290.888 166.472C290.888 165.94 290.785 165.473 290.58 165.072C290.384 164.671 290.109 164.358 289.754 164.134C289.399 163.91 288.993 163.798 288.536 163.798C288.069 163.798 287.659 163.91 287.304 164.134C286.949 164.358 286.674 164.671 286.478 165.072C286.282 165.473 286.184 165.94 286.184 166.472C286.184 167.013 286.282 167.485 286.478 167.886C286.674 168.278 286.949 168.586 287.304 168.81C287.659 169.034 288.069 169.146 288.536 169.146ZM296.894 170.168C296.24 170.168 295.652 170.019 295.13 169.72C294.607 169.412 294.196 168.983 293.898 168.432C293.599 167.872 293.45 167.223 293.45 166.486C293.45 165.73 293.599 165.077 293.898 164.526C294.206 163.966 294.621 163.537 295.144 163.238C295.676 162.93 296.268 162.776 296.922 162.776C297.594 162.776 298.186 162.93 298.7 163.238C299.222 163.537 299.633 163.966 299.932 164.526C300.24 165.077 300.394 165.725 300.394 166.472C300.394 167.219 300.24 167.872 299.932 168.432C299.624 168.983 299.208 169.412 298.686 169.72C298.163 170.019 297.566 170.168 296.894 170.168ZM296.908 169.16C297.309 169.16 297.682 169.062 298.028 168.866C298.373 168.661 298.653 168.357 298.868 167.956C299.082 167.555 299.19 167.06 299.19 166.472C299.19 165.875 299.082 165.38 298.868 164.988C298.662 164.587 298.387 164.288 298.042 164.092C297.706 163.887 297.332 163.784 296.922 163.784C296.53 163.784 296.156 163.887 295.802 164.092C295.456 164.288 295.176 164.587 294.962 164.988C294.756 165.38 294.654 165.875 294.654 166.472C294.654 167.06 294.756 167.555 294.962 167.956C295.176 168.357 295.452 168.661 295.788 168.866C296.133 169.062 296.506 169.16 296.908 169.16ZM304.703 170.168C304.115 170.168 303.601 170.07 303.163 169.874C302.733 169.678 302.388 169.407 302.127 169.062C301.875 168.707 301.721 168.292 301.665 167.816H302.869C302.915 168.059 303.013 168.283 303.163 168.488C303.312 168.693 303.513 168.861 303.765 168.992C304.026 169.113 304.343 169.174 304.717 169.174C305.043 169.174 305.314 169.127 305.529 169.034C305.743 168.931 305.902 168.796 306.005 168.628C306.117 168.46 306.173 168.278 306.173 168.082C306.173 167.793 306.103 167.573 305.963 167.424C305.832 167.275 305.636 167.158 305.375 167.074C305.113 166.981 304.796 166.901 304.423 166.836C304.115 166.78 303.811 166.705 303.513 166.612C303.214 166.519 302.948 166.397 302.715 166.248C302.481 166.089 302.295 165.898 302.155 165.674C302.024 165.45 301.959 165.175 301.959 164.848C301.959 164.447 302.061 164.092 302.267 163.784C302.472 163.467 302.766 163.219 303.149 163.042C303.541 162.865 303.993 162.776 304.507 162.776C305.263 162.776 305.874 162.958 306.341 163.322C306.807 163.686 307.083 164.213 307.167 164.904H306.005C305.958 164.549 305.804 164.274 305.543 164.078C305.291 163.873 304.941 163.77 304.493 163.77C304.054 163.77 303.718 163.859 303.485 164.036C303.261 164.213 303.149 164.447 303.149 164.736C303.149 164.923 303.209 165.091 303.331 165.24C303.461 165.38 303.648 165.501 303.891 165.604C304.143 165.707 304.451 165.791 304.815 165.856C305.281 165.94 305.706 166.052 306.089 166.192C306.471 166.332 306.779 166.542 307.013 166.822C307.255 167.093 307.377 167.48 307.377 167.984C307.377 168.423 307.265 168.805 307.041 169.132C306.826 169.459 306.518 169.715 306.117 169.902C305.715 170.079 305.244 170.168 304.703 170.168ZM311.73 170.168C311.142 170.168 310.629 170.07 310.19 169.874C309.761 169.678 309.415 169.407 309.154 169.062C308.902 168.707 308.748 168.292 308.692 167.816H309.896C309.943 168.059 310.041 168.283 310.19 168.488C310.339 168.693 310.54 168.861 310.792 168.992C311.053 169.113 311.371 169.174 311.744 169.174C312.071 169.174 312.341 169.127 312.556 169.034C312.771 168.931 312.929 168.796 313.032 168.628C313.144 168.46 313.2 168.278 313.2 168.082C313.2 167.793 313.13 167.573 312.99 167.424C312.859 167.275 312.663 167.158 312.402 167.074C312.141 166.981 311.823 166.901 311.45 166.836C311.142 166.78 310.839 166.705 310.54 166.612C310.241 166.519 309.975 166.397 309.742 166.248C309.509 166.089 309.322 165.898 309.182 165.674C309.051 165.45 308.986 165.175 308.986 164.848C308.986 164.447 309.089 164.092 309.294 163.784C309.499 163.467 309.793 163.219 310.176 163.042C310.568 162.865 311.021 162.776 311.534 162.776C312.29 162.776 312.901 162.958 313.368 163.322C313.835 163.686 314.11 164.213 314.194 164.904H313.032C312.985 164.549 312.831 164.274 312.57 164.078C312.318 163.873 311.968 163.77 311.52 163.77C311.081 163.77 310.745 163.859 310.512 164.036C310.288 164.213 310.176 164.447 310.176 164.736C310.176 164.923 310.237 165.091 310.358 165.24C310.489 165.38 310.675 165.501 310.918 165.604C311.17 165.707 311.478 165.791 311.842 165.856C312.309 165.94 312.733 166.052 313.116 166.192C313.499 166.332 313.807 166.542 314.04 166.822C314.283 167.093 314.404 167.48 314.404 167.984C314.404 168.423 314.292 168.805 314.068 169.132C313.853 169.459 313.545 169.715 313.144 169.902C312.743 170.079 312.271 170.168 311.73 170.168ZM316.209 170V162.944H317.385V170H316.209ZM316.797 161.446C316.564 161.446 316.368 161.371 316.209 161.222C316.06 161.063 315.985 160.867 315.985 160.634C315.985 160.401 316.06 160.214 316.209 160.074C316.368 159.925 316.564 159.85 316.797 159.85C317.021 159.85 317.213 159.925 317.371 160.074C317.53 160.214 317.609 160.401 317.609 160.634C317.609 160.867 317.53 161.063 317.371 161.222C317.213 161.371 317.021 161.446 316.797 161.446ZM323.156 170.168C322.755 170.168 322.391 170.112 322.064 170C321.747 169.879 321.467 169.72 321.224 169.524C320.982 169.328 320.781 169.099 320.622 168.838L320.524 170H319.46V159.92H320.636V164.106C320.86 163.742 321.182 163.429 321.602 163.168C322.022 162.907 322.54 162.776 323.156 162.776C323.838 162.776 324.435 162.939 324.948 163.266C325.462 163.583 325.858 164.022 326.138 164.582C326.428 165.133 326.572 165.763 326.572 166.472C326.572 167.181 326.428 167.816 326.138 168.376C325.858 168.936 325.462 169.375 324.948 169.692C324.435 170.009 323.838 170.168 323.156 170.168ZM323.016 169.146C323.474 169.146 323.88 169.034 324.234 168.81C324.589 168.586 324.864 168.278 325.06 167.886C325.266 167.485 325.368 167.013 325.368 166.472C325.368 165.94 325.266 165.473 325.06 165.072C324.864 164.671 324.589 164.358 324.234 164.134C323.88 163.91 323.474 163.798 323.016 163.798C322.55 163.798 322.139 163.91 321.784 164.134C321.43 164.358 321.154 164.671 320.958 165.072C320.762 165.473 320.664 165.94 320.664 166.472C320.664 167.013 320.762 167.485 320.958 167.886C321.154 168.278 321.43 168.586 321.784 168.81C322.139 169.034 322.55 169.146 323.016 169.146ZM328.224 170V159.92H329.4V170H328.224ZM334.435 170.168C333.773 170.168 333.185 170.014 332.671 169.706C332.167 169.398 331.771 168.969 331.481 168.418C331.192 167.858 331.047 167.209 331.047 166.472C331.047 165.725 331.187 165.077 331.467 164.526C331.757 163.975 332.158 163.546 332.671 163.238C333.194 162.93 333.791 162.776 334.463 162.776C335.154 162.776 335.737 162.93 336.213 163.238C336.699 163.546 337.067 163.952 337.319 164.456C337.581 164.951 337.711 165.497 337.711 166.094C337.711 166.187 337.711 166.285 337.711 166.388C337.711 166.491 337.707 166.607 337.697 166.738H331.929V165.828H336.563C336.535 165.184 336.321 164.68 335.919 164.316C335.527 163.952 335.033 163.77 334.435 163.77C334.034 163.77 333.661 163.863 333.315 164.05C332.979 164.227 332.709 164.493 332.503 164.848C332.298 165.193 332.195 165.627 332.195 166.15V166.542C332.195 167.121 332.298 167.606 332.503 167.998C332.718 168.39 332.993 168.684 333.329 168.88C333.675 169.076 334.043 169.174 334.435 169.174C334.93 169.174 335.336 169.067 335.653 168.852C335.98 168.628 336.213 168.329 336.353 167.956H337.515C337.403 168.376 337.207 168.754 336.927 169.09C336.647 169.426 336.297 169.692 335.877 169.888C335.467 170.075 334.986 170.168 334.435 170.168ZM345.789 170C345.369 170 345.005 169.935 344.697 169.804C344.389 169.673 344.151 169.454 343.983 169.146C343.824 168.829 343.745 168.404 343.745 167.872V163.938H342.513V162.944H343.745L343.899 161.236H344.921V162.944H346.965V163.938H344.921V167.872C344.921 168.311 345.01 168.609 345.187 168.768C345.364 168.917 345.677 168.992 346.125 168.992H346.881V170H345.789ZM351.458 170.168C350.805 170.168 350.217 170.019 349.694 169.72C349.171 169.412 348.761 168.983 348.462 168.432C348.163 167.872 348.014 167.223 348.014 166.486C348.014 165.73 348.163 165.077 348.462 164.526C348.77 163.966 349.185 163.537 349.708 163.238C350.24 162.93 350.833 162.776 351.486 162.776C352.158 162.776 352.751 162.93 353.264 163.238C353.787 163.537 354.197 163.966 354.496 164.526C354.804 165.077 354.958 165.725 354.958 166.472C354.958 167.219 354.804 167.872 354.496 168.432C354.188 168.983 353.773 169.412 353.25 169.72C352.727 170.019 352.13 170.168 351.458 170.168ZM351.472 169.16C351.873 169.16 352.247 169.062 352.592 168.866C352.937 168.661 353.217 168.357 353.432 167.956C353.647 167.555 353.754 167.06 353.754 166.472C353.754 165.875 353.647 165.38 353.432 164.988C353.227 164.587 352.951 164.288 352.606 164.092C352.27 163.887 351.897 163.784 351.486 163.784C351.094 163.784 350.721 163.887 350.366 164.092C350.021 164.288 349.741 164.587 349.526 164.988C349.321 165.38 349.218 165.875 349.218 166.472C349.218 167.06 349.321 167.555 349.526 167.956C349.741 168.357 350.016 168.661 350.352 168.866C350.697 169.062 351.071 169.16 351.472 169.16ZM363.098 170C362.678 170 362.314 169.935 362.006 169.804C361.698 169.673 361.46 169.454 361.292 169.146C361.133 168.829 361.054 168.404 361.054 167.872V163.938H359.822V162.944H361.054L361.208 161.236H362.23V162.944H364.274V163.938H362.23V167.872C362.23 168.311 362.318 168.609 362.496 168.768C362.673 168.917 362.986 168.992 363.434 168.992H364.19V170H363.098ZM365.808 170V159.92H366.984V164.134C367.217 163.714 367.544 163.383 367.964 163.14C368.393 162.897 368.86 162.776 369.364 162.776C369.905 162.776 370.377 162.888 370.778 163.112C371.179 163.327 371.487 163.658 371.702 164.106C371.917 164.554 372.024 165.119 372.024 165.8V170H370.862V165.926C370.862 165.217 370.713 164.685 370.414 164.33C370.115 163.966 369.681 163.784 369.112 163.784C368.711 163.784 368.347 163.882 368.02 164.078C367.703 164.274 367.451 164.554 367.264 164.918C367.077 165.282 366.984 165.73 366.984 166.262V170H365.808ZM376.955 170.168C376.292 170.168 375.704 170.014 375.191 169.706C374.687 169.398 374.29 168.969 374.001 168.418C373.712 167.858 373.567 167.209 373.567 166.472C373.567 165.725 373.707 165.077 373.987 164.526C374.276 163.975 374.678 163.546 375.191 163.238C375.714 162.93 376.311 162.776 376.983 162.776C377.674 162.776 378.257 162.93 378.733 163.238C379.218 163.546 379.587 163.952 379.839 164.456C380.1 164.951 380.231 165.497 380.231 166.094C380.231 166.187 380.231 166.285 380.231 166.388C380.231 166.491 380.226 166.607 380.217 166.738H374.449V165.828H379.083C379.055 165.184 378.84 164.68 378.439 164.316C378.047 163.952 377.552 163.77 376.955 163.77C376.554 163.77 376.18 163.863 375.835 164.05C375.499 164.227 375.228 164.493 375.023 164.848C374.818 165.193 374.715 165.627 374.715 166.15V166.542C374.715 167.121 374.818 167.606 375.023 167.998C375.238 168.39 375.513 168.684 375.849 168.88C376.194 169.076 376.563 169.174 376.955 169.174C377.45 169.174 377.856 169.067 378.173 168.852C378.5 168.628 378.733 168.329 378.873 167.956H380.035C379.923 168.376 379.727 168.754 379.447 169.09C379.167 169.426 378.817 169.692 378.397 169.888C377.986 170.075 377.506 170.168 376.955 170.168ZM284.98 186V178.944H286.044L286.128 180.288C286.287 179.971 286.487 179.7 286.73 179.476C286.982 179.252 287.281 179.079 287.626 178.958C287.981 178.837 288.382 178.776 288.83 178.776V180.008H288.396C288.097 180.008 287.813 180.05 287.542 180.134C287.271 180.209 287.029 180.335 286.814 180.512C286.609 180.689 286.445 180.932 286.324 181.24C286.212 181.539 286.156 181.912 286.156 182.36V186H284.98ZM290.274 186V178.944H291.45V186H290.274ZM290.862 177.446C290.628 177.446 290.432 177.371 290.274 177.222C290.124 177.063 290.05 176.867 290.05 176.634C290.05 176.401 290.124 176.214 290.274 176.074C290.432 175.925 290.628 175.85 290.862 175.85C291.086 175.85 291.277 175.925 291.436 176.074C291.594 176.214 291.674 176.401 291.674 176.634C291.674 176.867 291.594 177.063 291.436 177.222C291.277 177.371 291.086 177.446 290.862 177.446ZM296.311 189.248C295.676 189.248 295.112 189.164 294.617 188.996C294.132 188.837 293.754 188.59 293.483 188.254C293.212 187.918 293.077 187.503 293.077 187.008C293.077 186.793 293.119 186.565 293.203 186.322C293.296 186.079 293.45 185.841 293.665 185.608C293.889 185.375 294.202 185.165 294.603 184.978L295.415 185.454C294.92 185.659 294.598 185.893 294.449 186.154C294.3 186.425 294.225 186.672 294.225 186.896C294.225 187.204 294.314 187.461 294.491 187.666C294.668 187.871 294.916 188.025 295.233 188.128C295.55 188.231 295.91 188.282 296.311 188.282C296.712 188.282 297.058 188.226 297.347 188.114C297.636 188.002 297.86 187.843 298.019 187.638C298.178 187.433 298.257 187.19 298.257 186.91C298.257 186.583 298.136 186.308 297.893 186.084C297.65 185.869 297.188 185.743 296.507 185.706C295.956 185.669 295.494 185.617 295.121 185.552C294.748 185.487 294.44 185.412 294.197 185.328C293.954 185.235 293.749 185.132 293.581 185.02C293.422 184.908 293.278 184.791 293.147 184.67V184.348L294.505 183.004L295.527 183.368L294.127 184.628L294.309 184.138C294.412 184.213 294.51 184.283 294.603 184.348C294.696 184.413 294.822 184.469 294.981 184.516C295.14 184.563 295.359 184.605 295.639 184.642C295.928 184.679 296.306 184.717 296.773 184.754C297.417 184.801 297.93 184.913 298.313 185.09C298.705 185.267 298.985 185.505 299.153 185.804C299.33 186.103 299.419 186.457 299.419 186.868C299.419 187.269 299.307 187.647 299.083 188.002C298.868 188.366 298.532 188.665 298.075 188.898C297.618 189.131 297.03 189.248 296.311 189.248ZM296.297 183.788C295.709 183.788 295.205 183.676 294.785 183.452C294.374 183.228 294.062 182.929 293.847 182.556C293.632 182.173 293.525 181.749 293.525 181.282C293.525 180.815 293.632 180.395 293.847 180.022C294.071 179.649 294.388 179.35 294.799 179.126C295.21 178.893 295.709 178.776 296.297 178.776C296.885 178.776 297.384 178.893 297.795 179.126C298.206 179.35 298.518 179.649 298.733 180.022C298.948 180.395 299.055 180.815 299.055 181.282C299.055 181.749 298.948 182.173 298.733 182.556C298.518 182.929 298.206 183.228 297.795 183.452C297.384 183.676 296.885 183.788 296.297 183.788ZM296.297 182.822C296.801 182.822 297.198 182.691 297.487 182.43C297.776 182.169 297.921 181.786 297.921 181.282C297.921 180.787 297.776 180.409 297.487 180.148C297.198 179.887 296.801 179.756 296.297 179.756C295.802 179.756 295.401 179.887 295.093 180.148C294.794 180.409 294.645 180.787 294.645 181.282C294.645 181.786 294.794 182.169 295.093 182.43C295.392 182.691 295.793 182.822 296.297 182.822ZM297.445 179.938L297.095 178.944H299.979V179.826L297.445 179.938ZM301.332 186V175.92H302.508V180.134C302.741 179.714 303.068 179.383 303.488 179.14C303.917 178.897 304.384 178.776 304.888 178.776C305.429 178.776 305.9 178.888 306.302 179.112C306.703 179.327 307.011 179.658 307.226 180.106C307.44 180.554 307.548 181.119 307.548 181.8V186H306.386V181.926C306.386 181.217 306.236 180.685 305.938 180.33C305.639 179.966 305.205 179.784 304.636 179.784C304.234 179.784 303.87 179.882 303.544 180.078C303.226 180.274 302.974 180.554 302.788 180.918C302.601 181.282 302.508 181.73 302.508 182.262V186H301.332ZM312.156 186C311.736 186 311.372 185.935 311.064 185.804C310.756 185.673 310.518 185.454 310.35 185.146C310.192 184.829 310.112 184.404 310.112 183.872V179.938H308.88V178.944H310.112L310.266 177.236H311.288V178.944H313.332V179.938H311.288V183.872C311.288 184.311 311.377 184.609 311.554 184.768C311.732 184.917 312.044 184.992 312.492 184.992H313.248V186H312.156ZM321.679 186.168C321.017 186.168 320.429 186.014 319.915 185.706C319.411 185.398 319.015 184.969 318.725 184.418C318.436 183.858 318.291 183.209 318.291 182.472C318.291 181.725 318.431 181.077 318.711 180.526C319.001 179.975 319.402 179.546 319.915 179.238C320.438 178.93 321.035 178.776 321.707 178.776C322.398 178.776 322.981 178.93 323.457 179.238C323.943 179.546 324.311 179.952 324.563 180.456C324.825 180.951 324.955 181.497 324.955 182.094C324.955 182.187 324.955 182.285 324.955 182.388C324.955 182.491 324.951 182.607 324.941 182.738H319.173V181.828H323.807C323.779 181.184 323.565 180.68 323.163 180.316C322.771 179.952 322.277 179.77 321.679 179.77C321.278 179.77 320.905 179.863 320.559 180.05C320.223 180.227 319.953 180.493 319.747 180.848C319.542 181.193 319.439 181.627 319.439 182.15V182.542C319.439 183.121 319.542 183.606 319.747 183.998C319.962 184.39 320.237 184.684 320.573 184.88C320.919 185.076 321.287 185.174 321.679 185.174C322.174 185.174 322.58 185.067 322.897 184.852C323.224 184.628 323.457 184.329 323.597 183.956H324.759C324.647 184.376 324.451 184.754 324.171 185.09C323.891 185.426 323.541 185.692 323.121 185.888C322.711 186.075 322.23 186.168 321.679 186.168ZM329.651 186.168C328.969 186.168 328.372 186.009 327.859 185.692C327.345 185.365 326.949 184.922 326.669 184.362C326.389 183.802 326.249 183.167 326.249 182.458C326.249 181.749 326.389 181.119 326.669 180.568C326.949 180.008 327.345 179.569 327.859 179.252C328.381 178.935 328.983 178.776 329.665 178.776C330.243 178.776 330.747 178.893 331.177 179.126C331.615 179.359 331.951 179.686 332.185 180.106V175.92H333.361V186H332.297L332.199 184.838C332.049 185.071 331.858 185.291 331.625 185.496C331.391 185.692 331.111 185.855 330.785 185.986C330.458 186.107 330.08 186.168 329.651 186.168ZM329.791 185.146C330.257 185.146 330.668 185.034 331.023 184.81C331.377 184.586 331.653 184.278 331.849 183.886C332.045 183.485 332.143 183.013 332.143 182.472C332.143 181.94 332.045 181.473 331.849 181.072C331.653 180.671 331.377 180.358 331.023 180.134C330.668 179.91 330.257 179.798 329.791 179.798C329.333 179.798 328.927 179.91 328.573 180.134C328.218 180.358 327.943 180.671 327.747 181.072C327.551 181.473 327.453 181.94 327.453 182.472C327.453 183.013 327.551 183.485 327.747 183.886C327.943 184.278 328.218 184.586 328.573 184.81C328.927 185.034 329.333 185.146 329.791 185.146ZM338.106 189.248C337.471 189.248 336.907 189.164 336.412 188.996C335.927 188.837 335.549 188.59 335.278 188.254C335.007 187.918 334.872 187.503 334.872 187.008C334.872 186.793 334.914 186.565 334.998 186.322C335.091 186.079 335.245 185.841 335.46 185.608C335.684 185.375 335.997 185.165 336.398 184.978L337.21 185.454C336.715 185.659 336.393 185.893 336.244 186.154C336.095 186.425 336.02 186.672 336.02 186.896C336.02 187.204 336.109 187.461 336.286 187.666C336.463 187.871 336.711 188.025 337.028 188.128C337.345 188.231 337.705 188.282 338.106 188.282C338.507 188.282 338.853 188.226 339.142 188.114C339.431 188.002 339.655 187.843 339.814 187.638C339.973 187.433 340.052 187.19 340.052 186.91C340.052 186.583 339.931 186.308 339.688 186.084C339.445 185.869 338.983 185.743 338.302 185.706C337.751 185.669 337.289 185.617 336.916 185.552C336.543 185.487 336.235 185.412 335.992 185.328C335.749 185.235 335.544 185.132 335.376 185.02C335.217 184.908 335.073 184.791 334.942 184.67V184.348L336.3 183.004L337.322 183.368L335.922 184.628L336.104 184.138C336.207 184.213 336.305 184.283 336.398 184.348C336.491 184.413 336.617 184.469 336.776 184.516C336.935 184.563 337.154 184.605 337.434 184.642C337.723 184.679 338.101 184.717 338.568 184.754C339.212 184.801 339.725 184.913 340.108 185.09C340.5 185.267 340.78 185.505 340.948 185.804C341.125 186.103 341.214 186.457 341.214 186.868C341.214 187.269 341.102 187.647 340.878 188.002C340.663 188.366 340.327 188.665 339.87 188.898C339.413 189.131 338.825 189.248 338.106 189.248ZM338.092 183.788C337.504 183.788 337 183.676 336.58 183.452C336.169 183.228 335.857 182.929 335.642 182.556C335.427 182.173 335.32 181.749 335.32 181.282C335.32 180.815 335.427 180.395 335.642 180.022C335.866 179.649 336.183 179.35 336.594 179.126C337.005 178.893 337.504 178.776 338.092 178.776C338.68 178.776 339.179 178.893 339.59 179.126C340.001 179.35 340.313 179.649 340.528 180.022C340.743 180.395 340.85 180.815 340.85 181.282C340.85 181.749 340.743 182.173 340.528 182.556C340.313 182.929 340.001 183.228 339.59 183.452C339.179 183.676 338.68 183.788 338.092 183.788ZM338.092 182.822C338.596 182.822 338.993 182.691 339.282 182.43C339.571 182.169 339.716 181.786 339.716 181.282C339.716 180.787 339.571 180.409 339.282 180.148C338.993 179.887 338.596 179.756 338.092 179.756C337.597 179.756 337.196 179.887 336.888 180.148C336.589 180.409 336.44 180.787 336.44 181.282C336.44 181.786 336.589 182.169 336.888 182.43C337.187 182.691 337.588 182.822 338.092 182.822ZM339.24 179.938L338.89 178.944H341.774V179.826L339.24 179.938ZM345.947 186.168C345.284 186.168 344.696 186.014 344.183 185.706C343.679 185.398 343.282 184.969 342.993 184.418C342.704 183.858 342.559 183.209 342.559 182.472C342.559 181.725 342.699 181.077 342.979 180.526C343.268 179.975 343.67 179.546 344.183 179.238C344.706 178.93 345.303 178.776 345.975 178.776C346.666 178.776 347.249 178.93 347.725 179.238C348.21 179.546 348.579 179.952 348.831 180.456C349.092 180.951 349.223 181.497 349.223 182.094C349.223 182.187 349.223 182.285 349.223 182.388C349.223 182.491 349.218 182.607 349.209 182.738H343.441V181.828H348.075C348.047 181.184 347.832 180.68 347.431 180.316C347.039 179.952 346.544 179.77 345.947 179.77C345.546 179.77 345.172 179.863 344.827 180.05C344.491 180.227 344.22 180.493 344.015 180.848C343.81 181.193 343.707 181.627 343.707 182.15V182.542C343.707 183.121 343.81 183.606 344.015 183.998C344.23 184.39 344.505 184.684 344.841 184.88C345.186 185.076 345.555 185.174 345.947 185.174C346.442 185.174 346.848 185.067 347.165 184.852C347.492 184.628 347.725 184.329 347.865 183.956H349.027C348.915 184.376 348.719 184.754 348.439 185.09C348.159 185.426 347.809 185.692 347.389 185.888C346.978 186.075 346.498 186.168 345.947 186.168ZM357.679 186.168C357.025 186.168 356.437 186.019 355.915 185.72C355.392 185.412 354.981 184.983 354.683 184.432C354.384 183.872 354.235 183.223 354.235 182.486C354.235 181.73 354.384 181.077 354.683 180.526C354.991 179.966 355.406 179.537 355.929 179.238C356.461 178.93 357.053 178.776 357.707 178.776C358.379 178.776 358.971 178.93 359.485 179.238C360.007 179.537 360.418 179.966 360.717 180.526C361.025 181.077 361.179 181.725 361.179 182.472C361.179 183.219 361.025 183.872 360.717 184.432C360.409 184.983 359.993 185.412 359.471 185.72C358.948 186.019 358.351 186.168 357.679 186.168ZM357.693 185.16C358.094 185.16 358.467 185.062 358.813 184.866C359.158 184.661 359.438 184.357 359.653 183.956C359.867 183.555 359.975 183.06 359.975 182.472C359.975 181.875 359.867 181.38 359.653 180.988C359.447 180.587 359.172 180.288 358.827 180.092C358.491 179.887 358.117 179.784 357.707 179.784C357.315 179.784 356.941 179.887 356.587 180.092C356.241 180.288 355.961 180.587 355.747 180.988C355.541 181.38 355.439 181.875 355.439 182.472C355.439 183.06 355.541 183.555 355.747 183.956C355.961 184.357 356.237 184.661 356.573 184.866C356.918 185.062 357.291 185.16 357.693 185.16ZM363.22 186V177.852C363.22 177.404 363.294 177.04 363.444 176.76C363.593 176.471 363.812 176.261 364.102 176.13C364.4 175.99 364.764 175.92 365.194 175.92H365.992V176.928H365.376C365.03 176.928 364.778 176.998 364.62 177.138C364.47 177.278 364.396 177.525 364.396 177.88V186H363.22ZM362.142 179.938V178.944H366.174V179.938H362.142ZM374.076 186C373.656 186 373.292 185.935 372.984 185.804C372.676 185.673 372.438 185.454 372.27 185.146C372.112 184.829 372.032 184.404 372.032 183.872V179.938H370.8V178.944H372.032L372.186 177.236H373.208V178.944H375.252V179.938H373.208V183.872C373.208 184.311 373.297 184.609 373.474 184.768C373.652 184.917 373.964 184.992 374.412 184.992H375.168V186H374.076ZM376.787 186V175.92H377.963V180.134C378.196 179.714 378.523 179.383 378.943 179.14C379.372 178.897 379.839 178.776 380.343 178.776C380.884 178.776 381.355 178.888 381.757 179.112C382.158 179.327 382.466 179.658 382.681 180.106C382.895 180.554 383.003 181.119 383.003 181.8V186H381.841V181.926C381.841 181.217 381.691 180.685 381.393 180.33C381.094 179.966 380.66 179.784 380.091 179.784C379.689 179.784 379.325 179.882 378.999 180.078C378.681 180.274 378.429 180.554 378.243 180.918C378.056 181.282 377.963 181.73 377.963 182.262V186H376.787ZM387.933 186.168C387.271 186.168 386.683 186.014 386.169 185.706C385.665 185.398 385.269 184.969 384.979 184.418C384.69 183.858 384.545 183.209 384.545 182.472C384.545 181.725 384.685 181.077 384.965 180.526C385.255 179.975 385.656 179.546 386.169 179.238C386.692 178.93 387.289 178.776 387.961 178.776C388.652 178.776 389.235 178.93 389.711 179.238C390.197 179.546 390.565 179.952 390.817 180.456C391.079 180.951 391.209 181.497 391.209 182.094C391.209 182.187 391.209 182.285 391.209 182.388C391.209 182.491 391.205 182.607 391.195 182.738H385.427V181.828H390.061C390.033 181.184 389.819 180.68 389.417 180.316C389.025 179.952 388.531 179.77 387.933 179.77C387.532 179.77 387.159 179.863 386.813 180.05C386.477 180.227 386.207 180.493 386.001 180.848C385.796 181.193 385.693 181.627 385.693 182.15V182.542C385.693 183.121 385.796 183.606 386.001 183.998C386.216 184.39 386.491 184.684 386.827 184.88C387.173 185.076 387.541 185.174 387.933 185.174C388.428 185.174 388.834 185.067 389.151 184.852C389.478 184.628 389.711 184.329 389.851 183.956H391.013C390.901 184.376 390.705 184.754 390.425 185.09C390.145 185.426 389.795 185.692 389.375 185.888C388.965 186.075 388.484 186.168 387.933 186.168ZM284.98 202V194.944H286.044L286.128 196.288C286.287 195.971 286.487 195.7 286.73 195.476C286.982 195.252 287.281 195.079 287.626 194.958C287.981 194.837 288.382 194.776 288.83 194.776V196.008H288.396C288.097 196.008 287.813 196.05 287.542 196.134C287.271 196.209 287.029 196.335 286.814 196.512C286.609 196.689 286.445 196.932 286.324 197.24C286.212 197.539 286.156 197.912 286.156 198.36V202H284.98ZM293.052 202.168C292.399 202.168 291.811 202.019 291.288 201.72C290.765 201.412 290.355 200.983 290.056 200.432C289.757 199.872 289.608 199.223 289.608 198.486C289.608 197.73 289.757 197.077 290.056 196.526C290.364 195.966 290.779 195.537 291.302 195.238C291.834 194.93 292.427 194.776 293.08 194.776C293.752 194.776 294.345 194.93 294.858 195.238C295.381 195.537 295.791 195.966 296.09 196.526C296.398 197.077 296.552 197.725 296.552 198.472C296.552 199.219 296.398 199.872 296.09 200.432C295.782 200.983 295.367 201.412 294.844 201.72C294.321 202.019 293.724 202.168 293.052 202.168ZM293.066 201.16C293.467 201.16 293.841 201.062 294.186 200.866C294.531 200.661 294.811 200.357 295.026 199.956C295.241 199.555 295.348 199.06 295.348 198.472C295.348 197.875 295.241 197.38 295.026 196.988C294.821 196.587 294.545 196.288 294.2 196.092C293.864 195.887 293.491 195.784 293.08 195.784C292.688 195.784 292.315 195.887 291.96 196.092C291.615 196.288 291.335 196.587 291.12 196.988C290.915 197.38 290.812 197.875 290.812 198.472C290.812 199.06 290.915 199.555 291.12 199.956C291.335 200.357 291.61 200.661 291.946 200.866C292.291 201.062 292.665 201.16 293.066 201.16ZM300.497 202.168C299.927 202.168 299.451 202.07 299.069 201.874C298.686 201.669 298.401 201.403 298.215 201.076C298.028 200.74 297.935 200.376 297.935 199.984C297.935 199.508 298.056 199.107 298.299 198.78C298.551 198.444 298.901 198.192 299.349 198.024C299.806 197.847 300.343 197.758 300.959 197.758H302.821C302.821 197.319 302.751 196.955 302.611 196.666C302.48 196.367 302.284 196.143 302.023 195.994C301.771 195.845 301.453 195.77 301.071 195.77C300.623 195.77 300.235 195.882 299.909 196.106C299.582 196.33 299.381 196.661 299.307 197.1H298.103C298.159 196.596 298.327 196.176 298.607 195.84C298.896 195.495 299.26 195.233 299.699 195.056C300.137 194.869 300.595 194.776 301.071 194.776C301.724 194.776 302.265 194.897 302.695 195.14C303.133 195.373 303.46 195.705 303.675 196.134C303.889 196.554 303.997 197.053 303.997 197.632V202H302.947L302.877 200.754C302.783 200.95 302.662 201.137 302.513 201.314C302.373 201.482 302.205 201.631 302.009 201.762C301.813 201.883 301.589 201.981 301.337 202.056C301.094 202.131 300.814 202.168 300.497 202.168ZM300.679 201.174C301.005 201.174 301.299 201.109 301.561 200.978C301.831 200.838 302.06 200.651 302.247 200.418C302.433 200.175 302.573 199.909 302.667 199.62C302.769 199.331 302.821 199.027 302.821 198.71V198.668H301.057C300.599 198.668 300.231 198.724 299.951 198.836C299.671 198.939 299.47 199.088 299.349 199.284C299.227 199.471 299.167 199.685 299.167 199.928C299.167 200.18 299.223 200.399 299.335 200.586C299.456 200.773 299.629 200.917 299.853 201.02C300.086 201.123 300.361 201.174 300.679 201.174ZM308.924 202.168C308.243 202.168 307.645 202.009 307.132 201.692C306.619 201.365 306.222 200.922 305.942 200.362C305.662 199.802 305.522 199.167 305.522 198.458C305.522 197.749 305.662 197.119 305.942 196.568C306.222 196.008 306.619 195.569 307.132 195.252C307.655 194.935 308.257 194.776 308.938 194.776C309.517 194.776 310.021 194.893 310.45 195.126C310.889 195.359 311.225 195.686 311.458 196.106V191.92H312.634V202H311.57L311.472 200.838C311.323 201.071 311.131 201.291 310.898 201.496C310.665 201.692 310.385 201.855 310.058 201.986C309.731 202.107 309.353 202.168 308.924 202.168ZM309.064 201.146C309.531 201.146 309.941 201.034 310.296 200.81C310.651 200.586 310.926 200.278 311.122 199.886C311.318 199.485 311.416 199.013 311.416 198.472C311.416 197.94 311.318 197.473 311.122 197.072C310.926 196.671 310.651 196.358 310.296 196.134C309.941 195.91 309.531 195.798 309.064 195.798C308.607 195.798 308.201 195.91 307.846 196.134C307.491 196.358 307.216 196.671 307.02 197.072C306.824 197.473 306.726 197.94 306.726 198.472C306.726 199.013 306.824 199.485 307.02 199.886C307.216 200.278 307.491 200.586 307.846 200.81C308.201 201.034 308.607 201.146 309.064 201.146Z" fill="#1C3A29"/>
</g>
<defs>
<filter id="filter0_d_5233_18319" x="22.6252" y="424.082" width="198.749" height="282.908" filterUnits="userSpaceOnUse" color-interpolation-filters="sRGB">
<feFlood flood-opacity="0" result="BackgroundImageFix"/>
<feColorMatrix in="SourceAlpha" type="matrix" values="0 0 0 0 0 0 0 0 0 0 0 0 0 0 0 0 0 0 127 0" result="hardAlpha"/>
<feOffset dy="5.91762"/>
<feGaussianBlur stdDeviation="5.91762"/>
<feColorMatrix type="matrix" values="0 0 0 0 0 0 0 0 0 0 0 0 0 0 0 0 0 0 0.15 0"/>
<feBlend mode="normal" in2="BackgroundImageFix" result="effect1_dropShadow_5233_18319"/>
<feBlend mode="normal" in="SourceGraphic" in2="effect1_dropShadow_5233_18319" result="shape"/>
</filter>
<filter id="filter1_d_5233_18319" x="20.6252" y="86.0824" width="198.749" height="282.908" filterUnits="userSpaceOnUse" color-interpolation-filters="sRGB">
<feFlood flood-opacity="0" result="BackgroundImageFix"/>
<feColorMatrix in="SourceAlpha" type="matrix" values="0 0 0 0 0 0 0 0 0 0 0 0 0 0 0 0 0 0 127 0" result="hardAlpha"/>
<feOffset dy="5.91762"/>
<feGaussianBlur stdDeviation="5.91762"/>
<feColorMatrix type="matrix" values="0 0 0 0 0 0 0 0 0 0 0 0 0 0 0 0 0 0 0.15 0"/>
<feBlend mode="normal" in2="BackgroundImageFix" result="effect1_dropShadow_5233_18319"/>
<feBlend mode="normal" in="SourceGraphic" in2="effect1_dropShadow_5233_18319" result="shape"/>
</filter>
<filter id="filter2_d_5233_18319" x="348.626" y="334.082" width="198.749" height="282.908" filterUnits="userSpaceOnUse" color-interpolation-filters="sRGB">
<feFlood flood-opacity="0" result="BackgroundImageFix"/>
<feColorMatrix in="SourceAlpha" type="matrix" values="0 0 0 0 0 0 0 0 0 0 0 0 0 0 0 0 0 0 127 0" result="hardAlpha"/>
<feOffset dy="5.91762"/>
<feGaussianBlur stdDeviation="5.91762"/>
<feColorMatrix type="matrix" values="0 0 0 0 0 0 0 0 0 0 0 0 0 0 0 0 0 0 0.15 0"/>
<feBlend mode="normal" in2="BackgroundImageFix" result="effect1_dropShadow_5233_18319"/>
<feBlend mode="normal" in="SourceGraphic" in2="effect1_dropShadow_5233_18319" result="shape"/>
</filter>
<filter id="filter3_d_5233_18319" x="219.194" y="247.097" width="108.611" height="197.607" filterUnits="userSpaceOnUse" color-interpolation-filters="sRGB">
<feFlood flood-opacity="0" result="BackgroundImageFix"/>
<feColorMatrix in="SourceAlpha" type="matrix" values="0 0 0 0 0 0 0 0 0 0 0 0 0 0 0 0 0 0 127 0" result="hardAlpha"/>
<feOffset dy="5.90278"/>
<feGaussianBlur stdDeviation="5.90278"/>
<feColorMatrix type="matrix" values="0 0 0 0 0 0 0 0 0 0 0 0 0 0 0 0 0 0 0.15 0"/>
<feBlend mode="normal" in2="BackgroundImageFix" result="effect1_dropShadow_5233_18319"/>
<feBlend mode="normal" in="SourceGraphic" in2="effect1_dropShadow_5233_18319" result="shape"/>
</filter>
<filter id="filter4_d_5233_18319" x="348.626" y="55.0824" width="198.749" height="282.908" filterUnits="userSpaceOnUse" color-interpolation-filters="sRGB">
<feFlood flood-opacity="0" result="BackgroundImageFix"/>
<feColorMatrix in="SourceAlpha" type="matrix" values="0 0 0 0 0 0 0 0 0 0 0 0 0 0 0 0 0 0 127 0" result="hardAlpha"/>
<feOffset dy="5.91762"/>
<feGaussianBlur stdDeviation="5.91762"/>
<feColorMatrix type="matrix" values="0 0 0 0 0 0 0 0 0 0 0 0 0 0 0 0 0 0 0.15 0"/>
<feBlend mode="normal" in2="BackgroundImageFix" result="effect1_dropShadow_5233_18319"/>
<feBlend mode="normal" in="SourceGraphic" in2="effect1_dropShadow_5233_18319" result="shape"/>
</filter>
<filter id="filter5_d_5233_18319" x="217" y="120" width="212" height="116" filterUnits="userSpaceOnUse" color-interpolation-filters="sRGB">
<feFlood flood-opacity="0" result="BackgroundImageFix"/>
<feColorMatrix in="SourceAlpha" type="matrix" values="0 0 0 0 0 0 0 0 0 0 0 0 0 0 0 0 0 0 127 0" result="hardAlpha"/>
<feOffset dy="5"/>
<feGaussianBlur stdDeviation="5"/>
<feColorMatrix type="matrix" values="0 0 0 0 0 0 0 0 0 0 0 0 0 0 0 0 0 0 0.15 0"/>
<feBlend mode="normal" in2="BackgroundImageFix" result="effect1_dropShadow_5233_18319"/>
<feBlend mode="normal" in="SourceGraphic" in2="effect1_dropShadow_5233_18319" result="shape"/>
</filter>
<clipPath id="clip0_5233_18319">
<rect width="85" height="173.996" fill="white" transform="translate(231 253)"/>
</clipPath>
<clipPath id="clip1_5233_18319">
<rect width="29" height="20" fill="white" transform="translate(243 163)"/>
</clipPath>
</defs>
</svg>
