<svg width="320" height="329" viewBox="0 0 320 329" fill="none" xmlns="http://www.w3.org/2000/svg">
<g clip-path="url(#clip0_5917_22877)">
<path opacity="0.2" d="M170.637 329C215.304 329 251.514 321.567 251.514 312.398C251.514 303.229 215.304 295.797 170.637 295.797C125.97 295.797 89.7598 303.229 89.7598 312.398C89.7598 321.567 125.97 329 170.637 329Z" fill="#3D3D60"/>
<path d="M163.845 299.93V256.467C163.845 250.464 158.983 245.597 152.985 245.597H152.969C146.972 245.597 142.11 250.464 142.11 256.467V299.93C142.11 305.933 146.972 310.8 152.969 310.8H152.985C158.983 310.8 163.845 305.933 163.845 299.93Z" fill="#171759"/>
<path d="M137.153 310.8H152.985C158.983 310.8 163.845 305.933 163.845 299.93V299.914C163.845 293.91 158.983 289.044 152.985 289.044H137.153C131.156 289.044 126.294 293.91 126.294 299.914V299.93C126.294 305.933 131.156 310.8 137.153 310.8Z" fill="#171759"/>
<path d="M219.24 290.869L197.539 253.233C194.541 248.034 187.899 246.255 182.703 249.259L182.689 249.267C177.493 252.271 175.711 258.92 178.709 264.119L200.41 301.755C203.407 306.954 210.049 308.733 215.245 305.729L215.259 305.721C220.455 302.717 222.237 296.068 219.24 290.869Z" fill="#171759"/>
<path d="M218.042 278.963L204.329 286.89C199.134 289.894 197.352 296.542 200.349 301.739L200.357 301.753C203.354 306.95 209.994 308.729 215.189 305.726L228.902 297.798C234.097 294.795 235.879 288.147 232.882 282.95L232.874 282.936C229.877 277.738 223.237 275.96 218.042 278.963Z" fill="#171759"/>
<path d="M170.602 273.278C226.697 273.278 272.171 227.761 272.171 171.613C272.171 115.465 226.697 69.9475 170.602 69.9475C114.506 69.9475 69.0322 115.465 69.0322 171.613C69.0322 227.761 114.506 273.278 170.602 273.278Z" fill="#62657A"/>
<path d="M170.602 226.861C201.086 226.861 225.798 202.126 225.798 171.613C225.798 141.101 201.086 116.365 170.602 116.365C140.118 116.365 115.406 141.101 115.406 171.613C115.406 202.126 140.118 226.861 170.602 226.861Z" stroke="#D3D3DD" stroke-width="9.10894" stroke-miterlimit="10"/>
<path d="M170.602 213.791C193.874 213.791 212.74 194.907 212.74 171.612C212.74 148.318 193.874 129.434 170.602 129.434C147.329 129.434 128.463 148.318 128.463 171.612C128.463 194.907 147.329 213.791 170.602 213.791Z" fill="#D3D3DD"/>
<path opacity="0.2" d="M272.172 171.612C272.172 227.76 226.697 273.278 170.603 273.278C141.938 273.278 116.064 261.397 97.6016 242.274C113.289 252.197 131.864 257.945 151.787 257.945C207.881 257.945 253.34 212.426 253.34 156.279C253.34 128.824 242.481 103.905 224.788 85.6174C253.26 103.616 272.172 135.407 272.172 171.612Z" fill="#3D3D60"/>
<path d="M262.498 174.647C260.958 220.872 225.363 258.458 180.017 263.067" stroke="#4E4E68" stroke-width="9.10894" stroke-miterlimit="10" stroke-linecap="round"/>
<path d="M248.56 180.685C244.854 212.555 222.093 238.598 191.984 247.108" stroke="#4E4E68" stroke-width="9.10894" stroke-miterlimit="10" stroke-linecap="round"/>
<path d="M78.6895 168.579C80.2294 122.355 115.824 84.7681 161.17 80.16" stroke="#4E4E68" stroke-width="9.10894" stroke-miterlimit="10" stroke-linecap="round"/>
<path d="M92.6279 162.526C96.3333 130.655 119.095 104.613 149.203 96.1033" stroke="#4E4E68" stroke-width="9.10894" stroke-miterlimit="10" stroke-linecap="round"/>
<path d="M262.674 248.417C272.171 248.417 279.87 240.711 279.87 231.205C279.87 221.699 272.171 213.993 262.674 213.993C253.177 213.993 245.479 221.699 245.479 231.205C245.479 240.711 253.177 248.417 262.674 248.417Z" fill="#171759"/>
<path d="M136.536 174.869C136.536 170.611 139.979 167.163 144.233 167.163C148.486 167.163 151.93 170.611 151.93 174.869" stroke="#171759" stroke-width="7.28715" stroke-miterlimit="10" stroke-linecap="round"/>
<path d="M190.414 174.869C190.414 172.986 191.086 171.258 192.206 169.928C192.31 169.807 192.396 169.703 192.517 169.599C193.913 168.096 195.895 167.163 198.119 167.163C200.084 167.163 201.894 167.906 203.239 169.133C203.342 169.219 203.446 169.323 203.549 169.427C203.601 169.479 203.653 169.53 203.687 169.582C205.015 170.947 205.808 172.813 205.808 174.869" stroke="#171759" stroke-width="7.28715" stroke-miterlimit="10" stroke-linecap="round"/>
<path d="M85.2632 221.342L94.1612 223.452C98.5561 224.498 98.5561 230.755 94.1612 231.801L85.2632 233.911C84.1465 234.181 83.2639 235.047 83.0117 236.165L80.9043 245.073C79.8596 249.474 73.6095 249.474 72.5648 245.073L70.4574 236.165C70.1872 235.047 69.3226 234.163 68.2059 233.911L59.3079 231.801C54.913 230.755 54.913 224.498 59.3079 223.452L68.2059 221.342C69.3226 221.071 70.2052 220.206 70.4574 219.088L72.5648 210.179C73.6095 205.779 79.8596 205.779 80.9043 210.179L83.0117 219.088C83.2819 220.206 84.1465 221.089 85.2632 221.342Z" fill="#FFCD40"/>
<path d="M60.3412 247.168L63.1963 247.851C66.249 248.57 66.249 252.921 63.1963 253.64L60.3412 254.323C59.3894 254.557 58.6352 255.294 58.4018 256.265L57.7194 259.123C57.0012 262.18 52.6556 262.18 51.9373 259.123L51.2549 256.265C51.0215 255.312 50.2853 254.557 49.3156 254.323L46.4604 253.64C43.4077 252.921 43.4077 248.57 46.4604 247.851L49.3156 247.168C50.2673 246.934 51.0215 246.197 51.2549 245.226L51.9373 242.368C52.6556 239.311 57.0012 239.311 57.7194 242.368L58.4018 245.226C58.6352 246.179 59.3715 246.934 60.3412 247.168Z" fill="#FFCD40"/>
<path d="M288.292 101.937L291.147 102.62C294.2 103.339 294.2 107.69 291.147 108.409L288.292 109.092C287.341 109.326 286.586 110.063 286.353 111.034L285.671 113.893C284.952 116.949 280.607 116.949 279.888 113.893L279.206 111.034C278.973 110.081 278.236 109.326 277.267 109.092L274.412 108.409C271.359 107.69 271.359 103.339 274.412 102.62L277.267 101.937C278.218 101.703 278.973 100.966 279.206 99.9955L279.888 97.1369C280.607 94.0807 284.952 94.0807 285.671 97.1369L286.353 99.9955C286.586 100.948 287.323 101.703 288.292 101.937Z" fill="#FFCD40"/>
<rect x="156.075" y="6.52039" width="22.4991" height="15.4123" fill="white"/>
<path d="M180.004 44.0139C181.1 40.3575 183.37 37.2399 185.618 34.1337C186.211 33.3199 186.805 32.5061 187.375 31.6808C189.634 28.4142 190.958 24.4598 190.958 20.1845C190.958 9.03201 181.967 0 170.876 0C159.786 0 150.795 9.03201 150.795 20.173C150.795 24.4483 152.118 28.4142 154.378 31.6693C154.948 32.4946 155.541 33.3084 156.135 34.1222C158.394 37.2284 160.664 40.3575 161.748 44.0024H180.004V44.0139ZM161.748 20.173C161.748 21.1817 160.927 22.0069 159.923 22.0069C158.919 22.0069 158.097 21.1817 158.097 20.173C158.097 13.0781 163.814 7.33564 170.876 7.33564C171.88 7.33564 172.702 8.1609 172.702 9.16955C172.702 10.1782 171.88 11.0035 170.876 11.0035C165.833 11.0035 161.748 15.1068 161.748 20.173Z" fill="#FFCD40"/>
<path d="M171.124 58.4264C176.167 58.4264 180.252 54.3231 180.252 49.2569V47.423H161.996V49.2569C161.996 54.3231 166.081 58.4264 171.124 58.4264Z" fill="#909090"/>
<path d="M44.1956 167.206C53.6924 167.206 61.3911 159.5 61.3911 149.994C61.3911 140.488 53.6924 132.782 44.1956 132.782C34.6987 132.782 27 140.488 27 149.994C27 159.5 34.6987 167.206 44.1956 167.206Z" fill="#171759"/>
<path d="M182.127 186.725C181.197 191.774 176.658 195.617 171.173 195.617C165.689 195.617 161.15 191.774 160.22 186.725" stroke="#171759" stroke-width="7.28715" stroke-linecap="round" stroke-linejoin="round"/>
</g>
<defs>
<clipPath id="clip0_5917_22877">
<rect width="320" height="329" fill="white"/>
</clipPath>
</defs>
</svg>
