<svg width="867" height="403" viewBox="0 0 867 403" fill="none" xmlns="http://www.w3.org/2000/svg">
<path d="M87.75 177L126.25 278.5L144.75 267L231.75 171M423.75 125.5L469.25 119L475.25 139.5L443.25 163" stroke="#484848" stroke-width="5"/>
<path d="M411.75 105.5L393.75 71H411.75V3L368.75 12.5" stroke="#484848" stroke-width="5"/>
<circle cx="127.25" cy="292" r="101" stroke="#62657A" stroke-width="20"/>
<path d="M24 264.517C37 228.306 66 198.132 100 191" stroke="#4E4E68" stroke-width="3" stroke-miterlimit="10" stroke-linecap="round"/>
<path d="M32.5 261.772C41 234.341 66 210.202 90 201.973" stroke="#4E4E68" stroke-width="3" stroke-miterlimit="10" stroke-linecap="round"/>
<circle cx="509.25" cy="292" r="101" stroke="#62657A" stroke-width="20"/>
<path d="M407 264.517C420 228.306 449 198.132 483 191" stroke="#4E4E68" stroke-width="3" stroke-miterlimit="10" stroke-linecap="round"/>
<path d="M415.5 261.772C424 234.341 449 210.202 473 201.973" stroke="#4E4E68" stroke-width="3" stroke-miterlimit="10" stroke-linecap="round"/>
<path d="M285.363 333.564L115.491 310.842C103.33 309.216 94.25 298.84 94.25 286.571C94.25 273.41 104.652 262.603 117.803 262.101L289.062 255.556C311.278 254.707 329.75 272.487 329.75 294.719C329.75 318.428 308.863 336.707 285.363 333.564Z" fill="#BBD567"/>
<path d="M242.75 259.5C219.75 150.001 36.25 127.002 7.25 277.001" stroke="#BBD567" stroke-width="13"/>
<path d="M605.858 222.1C543.75 127.001 368.75 172 390.75 316" stroke="#BBD567" stroke-width="13"/>
<path d="M249.75 194.001C287.083 211.001 378.65 231.601 422.25 134.001M317.25 276.001L444.75 176.001" stroke="#BBD567" stroke-width="15"/>
<path d="M229.75 156.001L307.25 302.501M409.75 109.501L507.25 287.001" stroke="#9AB445" stroke-width="13"/>
<rect x="215.25" y="148.46" width="23" height="32" rx="10" transform="rotate(-21.5779 215.25 148.46)" fill="#BBD567"/>
<rect x="398.25" y="105.46" width="23" height="32" rx="10" transform="rotate(-21.5779 398.25 105.46)" fill="#BBD567"/>
<circle cx="509.75" cy="291.5" r="20.5" fill="#4E4E68"/>
<path d="M94.25 288C95.75 302 105.75 309 114.25 310.5L286.75 333.5C314.25 336 329.25 313 329.75 297C230.25 294.5 174.25 293 94.25 288Z" fill="#9AB445"/>
<path d="M719.75 14L578.75 175.5L599.25 205.5L878.75 330L719.75 14Z" fill="url(#paint0_linear_2196_11087)" fill-opacity="0.5"/>
<path d="M579.75 174L563.25 177C579.25 184 599.75 203.5 602.25 206.5L600.75 191L579.75 174Z" fill="#FCD579"/>
<circle cx="288.75" cy="293.5" r="20.5" fill="#62657A"/>
<path d="M288.25 294V351.5" stroke="#484848" stroke-width="5"/>
<rect x="265.25" y="348" width="46" height="18" fill="#FCD579"/>
<path d="M285.817 116H178.284C172.374 116 167.629 121.192 169.349 126.846C182.298 169.409 242.776 154.216 257.654 142.278C265.715 135.81 277.089 129.986 285.203 128.103C288.369 127.369 291.25 124.683 291.25 121.433C291.25 118.433 288.817 116 285.817 116Z" fill="#FCD579"/>
<path d="M482.455 157.18L463.058 88.8658C462.151 85.6735 464.549 82.5 467.867 82.5H509.35C511.866 82.5 513.99 84.369 514.31 86.8642L520.837 137.779C521.088 139.738 520.163 141.661 518.476 142.687L489.863 160.087C487.04 161.803 483.358 160.359 482.455 157.18Z" fill="#F0C254"/>
<rect x="455.25" y="79" width="68" height="13" rx="6.5" fill="#FCD579"/>
<rect x="329.25" y="14.6729" width="68" height="13" rx="6.5" transform="rotate(-12.4615 329.25 14.6729)" fill="#FCD579"/>
<defs>
<linearGradient id="paint0_linear_2196_11087" x1="620.75" y1="188.5" x2="787.75" y2="150.5" gradientUnits="userSpaceOnUse">
<stop stop-color="#FCD579"/>
<stop offset="1" stop-color="white" stop-opacity="0"/>
</linearGradient>
</defs>
</svg>
