<svg xmlns="http://www.w3.org/2000/svg" width="944" height="403" fill="none" xmlns:v="https://vecta.io/nano"><g clip-path="url(#B)"><g stroke="#484848" stroke-width="5"><path d="M227.5 177L266 278.5l18.5-11.5 87-96m192-45.5L609 119l6 20.5-32 23.5m-31.5-57.5l-18-34.499h18V3l-43 9.5"/></g><circle cx="267" cy="292" r="101" stroke="#62657a" stroke-width="20"/><g stroke="#4e4e68" stroke-width="3" stroke-miterlimit="10" stroke-linecap="round"><use href="#C"/><use href="#D"/></g><circle cx="649" cy="292" r="101" stroke="#62657a" stroke-width="20"/><g stroke="#4e4e68" stroke-width="3" stroke-miterlimit="10" stroke-linecap="round"><path d="M546.75 264.517c13-36.21 42-66.384 76-73.517m-67.5 70.773c8.5-27.431 33.5-51.571 57.5-59.8"/></g><path d="M425.113 333.563l-169.872-22.722A24.49 24.49 0 0 1 234 286.57c0-13.16 10.402-23.967 23.553-24.47l171.259-6.545c22.216-.849 40.688 16.931 40.688 39.163 0 23.709-20.887 41.988-44.387 38.845z" fill="#bbd567"/><g stroke="#bbd567"><g stroke-width="13"><path d="M382.5 259.499C359.5 150 176 127.001 147 277m598.609-54.901C683.501 127 508.501 171.999 530.5 316"/></g><path d="M389.5 194c37.333 17 128.9 37.6 172.5-60M457 276l127.5-100" stroke-width="15"/></g><path d="M369.5 156L447 302.5m102.5-193L647 287" stroke="#9ab445" stroke-width="13"/><g fill="#bbd567"><rect x="355" y="148.459" width="23" height="32" rx="10" transform="rotate(338.422 355 148.459)"/><rect x="538" y="105.459" width="23" height="32" rx="10" transform="rotate(338.422 538 105.459)"/></g><circle cx="649.5" cy="291.5" r="20.5" fill="#4e4e68"/><path d="M234 288c1.5 14 11.5 21 20 22.5l172.5 23C454 336 469 313 469.5 297L234 288z" fill="#9ab445"/><path d="M859.5 14.001l-141 161.5 20.5 30L1018.5 330l-159-315.999z" fill="url(#A)" fill-opacity=".5"/><path d="M719.5 174l-16.5 3c16 7 36.5 26.5 39 29.5l-1.5-15.5-21-17z" fill="#fcd579"/><circle cx="428.5" cy="293.5" r="20.5" fill="#62657a"/><path d="M428 294v57.5" stroke="#484848" stroke-width="5"/><g fill="#fcd579"><path d="M405 348h46v18h-46zm20.567-232H318.034c-5.91 0-10.655 5.192-8.935 10.847 12.949 42.563 73.427 27.369 88.305 15.431 8.061-6.467 19.435-12.292 27.549-14.174 3.166-.735 6.047-3.42 6.047-6.67 0-3.001-2.433-5.434-5.433-5.434z"/></g><path d="M622.205 157.181l-19.397-68.315c-.907-3.192 1.491-6.366 4.809-6.366H649.1a5 5 0 0 1 4.96 4.364l6.527 50.915a5 5 0 0 1-2.361 4.908l-28.613 17.399c-2.823 1.717-6.505.272-7.408-2.906z" fill="#f0c254"/><g fill="#fcd579"><rect x="595" y="79.001" width="68" height="13" rx="6.5"/><rect x="469" y="14.673" width="68" height="13" rx="6.5" transform="rotate(347.539 469 14.673)"/></g><rect x="76" y="246" width="46" height="46" rx="23" fill="#909090"/><path d="M98.345 276.5v-11.99l-2.596.616v-2.31l3.85-1.716h1.804v15.4h-3.058z" fill="#fff"/><rect x="230" y="322" width="46" height="46" rx="23" fill="#909090"/><path d="M247.772 352.5v-2.178l2.706-2.244 2.376-2.222c.704-.748 1.262-1.474 1.672-2.178s.616-1.386.616-2.046c0-.41-.073-.784-.22-1.122a1.78 1.78 0 0 0-.704-.836c-.308-.22-.711-.33-1.21-.33-.513 0-.946.118-1.298.352s-.616.55-.792.946c-.176.382-.264.814-.264 1.298h-2.86c.03-1.129.279-2.075.748-2.838s1.1-1.327 1.892-1.694c.792-.381 1.68-.572 2.662-.572 1.071 0 1.98.206 2.728.616.748.396 1.313.939 1.694 1.628.396.69.594 1.482.594 2.376 0 .675-.124 1.335-.374 1.98s-.586 1.276-1.012 1.892c-.425.602-.909 1.181-1.452 1.738l-1.672 1.606-1.694 1.408h6.556v2.42h-10.692z" fill="#fff"/><rect x="474" y="337" width="46" height="46" rx="23" fill="#909090"/><path d="M496.971 367.764c-.997 0-1.914-.183-2.75-.55a4.55 4.55 0 0 1-2.002-1.672c-.499-.748-.763-1.694-.792-2.838h2.904c.015.484.125.924.33 1.32a2.36 2.36 0 0 0 .902.924c.396.22.865.33 1.408.33.513 0 .953-.102 1.32-.308a2.12 2.12 0 0 0 .836-.814c.191-.337.286-.726.286-1.166 0-.513-.125-.938-.374-1.276-.249-.352-.601-.616-1.056-.792-.455-.19-.968-.286-1.54-.286h-1.144v-2.442h1.144c.719 0 1.32-.168 1.804-.506s.726-.836.726-1.496c0-.557-.183-1.004-.55-1.342-.352-.337-.843-.506-1.474-.506-.689 0-1.232.206-1.628.616-.381.411-.601.917-.66 1.518h-2.882c.044-.968.286-1.796.726-2.486.44-.704 1.041-1.239 1.804-1.606s1.65-.55 2.662-.55c1.056 0 1.951.191 2.684.572.733.367 1.291.866 1.672 1.496a3.89 3.89 0 0 1 .572 2.046c0 .602-.117 1.137-.352 1.606-.22.455-.521.836-.902 1.144-.367.308-.777.528-1.232.66.572.103 1.071.33 1.496.682.44.338.785.763 1.034 1.276s.374 1.108.374 1.782c0 .836-.205 1.614-.616 2.332-.411.704-1.012 1.269-1.804 1.694s-1.767.638-2.926.638z" fill="#fff"/><rect x="409" y="1" width="46" height="46" rx="23" fill="#909090"/><path d="M433.403 31.501v-2.794h-7.568v-2.354l7.172-10.252h3.344v10.032h2.024v2.574h-2.024v2.794h-2.948zm-4.4-5.368h4.598v-6.754l-4.598 6.754z" fill="#fff"/><rect x="785" y="260" width="46" height="46" rx="23" fill="#909090"/><path d="M808.208 290.764c-1.144 0-2.127-.198-2.948-.594-.807-.41-1.445-.96-1.914-1.65-.455-.689-.719-1.481-.792-2.376h2.904c.117.587.425 1.086.924 1.496.499.396 1.107.594 1.826.594.528 0 .99-.132 1.386-.396s.704-.623.924-1.078c.235-.454.352-.968.352-1.54 0-.601-.117-1.114-.352-1.54-.22-.425-.528-.755-.924-.99s-.851-.352-1.364-.352c-.616 0-1.159.154-1.628.462-.455.308-.777.69-.968 1.144h-2.86l1.32-8.844h8.602v2.596h-6.402l-.66 3.388c.323-.337.755-.608 1.298-.814.543-.22 1.151-.33 1.826-.33.836 0 1.562.147 2.178.44.616.279 1.129.668 1.54 1.166a4.72 4.72 0 0 1 .946 1.672c.205.631.308 1.291.308 1.98 0 .807-.139 1.555-.418 2.244a5.06 5.06 0 0 1-1.144 1.76 5.09 5.09 0 0 1-1.738 1.166c-.675.264-1.415.396-2.222.396z" fill="#fff"/></g><defs><linearGradient id="A" x1="760.5" y1="188.5" x2="927.5" y2="150.5" gradientUnits="userSpaceOnUse"><stop stop-color="#fcd579"/><stop offset="1" stop-color="#fff" stop-opacity="0"/></linearGradient><clipPath id="B"><path fill="#fff" d="M0 0h944v403H0z"/></clipPath><path id="C" d="M163.75 264.517c13-36.21 42-66.384 76-73.517"/><path id="D" d="M172.25 261.773c8.5-27.431 33.5-51.571 57.5-59.8"/></defs></svg>