<svg width="22" height="23" viewBox="0 0 22 23" fill="none" xmlns="http://www.w3.org/2000/svg">
<path d="M1 1L21 21.2766" stroke="#949494" stroke-width="1.84332" stroke-linecap="round"/>
<path d="M9.93996 4.41014C13.2408 4.04336 16.6793 4.80351 20.8429 11.1315C20.8819 11.1908 20.8842 11.2691 20.8469 11.3295C20.2621 12.2745 19.7679 12.8372 18.7879 13.9954M5.70033 6.06911C3.6585 7.46616 2.43524 9.32619 1.33771 11.1295C1.30026 11.191 1.30356 11.2707 1.34416 11.3302C6.90004 19.4735 12.1676 18.9616 16.0229 16.2996" stroke="#949494" stroke-width="1.84332" stroke-linecap="round"/>
<path fill-rule="evenodd" clip-rule="evenodd" d="M7.93555 8.74194C6.71245 10.2912 6.84707 12.5458 8.30331 13.9366C9.75955 15.3273 12.018 15.3581 13.5094 14.0651L12.1647 12.7809C11.3874 13.3439 10.2953 13.2901 9.57641 12.6035C8.85752 11.917 8.75351 10.8285 9.28022 10.0262L7.93555 8.74194Z" fill="#949494"/>
</svg>
