<svg width="24" height="25" viewBox="0 0 24 25" fill="none" xmlns="http://www.w3.org/2000/svg">
<g id="mingcute:exit-line">
<g id="Group">
<path id="Vector" d="M12 3.5C12.2549 3.50028 12.5 3.59788 12.6854 3.77285C12.8707 3.94782 12.9822 4.18695 12.9972 4.44139C13.0121 4.69584 12.9293 4.94638 12.7657 5.14183C12.6021 5.33729 12.3701 5.4629 12.117 5.493L12 5.5H7C6.75507 5.50003 6.51866 5.58996 6.33563 5.75272C6.15259 5.91547 6.03566 6.13975 6.007 6.383L6 6.5V18.5C6.00003 18.7449 6.08996 18.9813 6.25272 19.1644C6.41547 19.3474 6.63975 19.4643 6.883 19.493L7 19.5H11.5C11.7549 19.5003 12 19.5979 12.1854 19.7728C12.3707 19.9478 12.4822 20.187 12.4972 20.4414C12.5121 20.6958 12.4293 20.9464 12.2657 21.1418C12.1021 21.3373 11.8701 21.4629 11.617 21.493L11.5 21.5H7C6.23479 21.5 5.49849 21.2077 4.94174 20.6827C4.38499 20.1578 4.04989 19.4399 4.005 18.676L4 18.5V6.5C3.99996 5.73479 4.29233 4.99849 4.81728 4.44174C5.34224 3.88499 6.06011 3.54989 6.824 3.505L7 3.5H12ZM17.707 8.964L20.535 11.793C20.7225 11.9805 20.8278 12.2348 20.8278 12.5C20.8278 12.7652 20.7225 13.0195 20.535 13.207L17.707 16.036C17.5194 16.2235 17.2649 16.3288 16.9996 16.3287C16.7344 16.3286 16.48 16.2231 16.2925 16.0355C16.105 15.8479 15.9997 15.5934 15.9998 15.3281C15.9999 15.0629 16.1054 14.8085 16.293 14.621L17.414 13.5H12C11.7348 13.5 11.4804 13.3946 11.2929 13.2071C11.1054 13.0196 11 12.7652 11 12.5C11 12.2348 11.1054 11.9804 11.2929 11.7929C11.4804 11.6054 11.7348 11.5 12 11.5H17.414L16.293 10.379C16.1054 10.1915 15.9999 9.93712 15.9998 9.67185C15.9997 9.40658 16.105 9.15214 16.2925 8.9645C16.48 8.77686 16.7344 8.67139 16.9996 8.6713C17.2649 8.6712 17.5194 8.77649 17.707 8.964Z" fill="black"/>
</g>
</g>
</svg>
