<svg width="36" height="36" viewBox="0 0 36 36" fill="none" xmlns="http://www.w3.org/2000/svg">
<g id="Group 230">
<circle id="Ellipse 3372" cx="17.9999" cy="17.9999" r="17.9999" fill="white"/>
<g id="Mask group">
<mask id="mask0_5467_9023" style="mask-type:alpha" maskUnits="userSpaceOnUse" x="0" y="0" width="36" height="37">
<circle id="Ellipse 3371" cx="17.9999" cy="18.0002" r="17.9999" fill="white"/>
</mask>
<g mask="url(#mask0_5467_9023)">
<g id="Group">
<path id="Vector" opacity="0.2" d="M18.217 36.3804C23.2028 36.3804 27.2446 35.5369 27.2446 34.4964C27.2446 33.4559 23.2028 32.6124 18.217 32.6124C13.2312 32.6124 9.18945 33.4559 9.18945 34.4964C9.18945 35.5369 13.2312 36.3804 18.217 36.3804Z" fill="#3D3D60"/>
<g id="Group_2">
<g id="Group_3">
<path id="Vector_2" d="M17.4648 33.0844V28.1522C17.4648 27.471 16.9221 26.9187 16.2527 26.9187H16.2509C15.5814 26.9187 15.0387 27.471 15.0387 28.1522V33.0844C15.0387 33.7657 15.5814 34.318 16.2509 34.318H16.2527C16.9221 34.318 17.4648 33.7657 17.4648 33.0844Z" fill="#171759"/>
<path id="Vector_3" d="M14.4835 34.3187H16.2507C16.9202 34.3187 17.4629 33.7665 17.4629 33.0852V33.0834C17.4629 32.4021 16.9202 31.8499 16.2507 31.8499H14.4835C13.8141 31.8499 13.2714 32.4021 13.2714 33.0834V33.0852C13.2714 33.7665 13.8141 34.3187 14.4835 34.3187Z" fill="#171759"/>
</g>
<g id="Group_4">
<path id="Vector_4" d="M21.3955 33.0843V28.1521C21.3955 27.4708 20.8528 26.9186 20.1834 26.9186H20.1816C19.5121 26.9186 18.9694 27.4708 18.9694 28.1521V33.0843C18.9694 33.7656 19.5121 34.3178 20.1816 34.3178H20.1834C20.8528 34.3178 21.3955 33.7656 21.3955 33.0843Z" fill="#171759"/>
<path id="Vector_5" d="M21.9491 31.8508H20.1819C19.5124 31.8508 18.9697 32.4031 18.9697 33.0843V33.0862C18.9697 33.7674 19.5124 34.3197 20.1819 34.3197H21.9491C22.6185 34.3197 23.1612 33.7674 23.1612 33.0862V33.0843C23.1612 32.4031 22.6185 31.8508 21.9491 31.8508Z" fill="#171759"/>
</g>
</g>
<g id="Group_5">
<path id="Vector_6" d="M18.2172 30.059C24.4786 30.059 29.5545 24.8937 29.5545 18.5219C29.5545 12.1502 24.4786 6.98486 18.2172 6.98486C11.9558 6.98486 6.87988 12.1502 6.87988 18.5219C6.87988 24.8937 11.9558 30.059 18.2172 30.059Z" fill="#62657A"/>
<path id="Vector_7" d="M18.2177 24.7919C21.6203 24.7919 24.3787 21.9849 24.3787 18.5223C24.3787 15.0597 21.6203 12.2527 18.2177 12.2527C14.815 12.2527 12.0566 15.0597 12.0566 18.5223C12.0566 21.9849 14.815 24.7919 18.2177 24.7919Z" stroke="#D3D3DD" stroke-width="0.495139" stroke-miterlimit="10"/>
<path id="Vector_8" d="M18.2173 23.3083C20.815 23.3083 22.9208 21.1653 22.9208 18.5218C22.9208 15.8783 20.815 13.7354 18.2173 13.7354C15.6195 13.7354 13.5137 15.8783 13.5137 18.5218C13.5137 21.1653 15.6195 23.3083 18.2173 23.3083Z" fill="#D3D3DD"/>
<path id="Vector_9" opacity="0.2" d="M29.5551 18.522C29.5551 24.8936 24.4791 30.059 18.2178 30.059C15.0182 30.059 12.1302 28.7107 10.0693 26.5407C11.8204 27.6667 13.8938 28.319 16.1176 28.319C22.3789 28.319 27.4531 23.1536 27.4531 16.7819C27.4531 13.6663 26.2409 10.8385 24.266 8.76318C27.4441 10.8057 29.5551 14.4133 29.5551 18.522Z" fill="#3D3D60"/>
<g id="Group_6">
<path id="Vector_10" d="M28.4762 18.8661C28.3043 24.1117 24.3312 28.3771 19.2695 28.9" stroke="#4E4E68" stroke-width="0.495139" stroke-miterlimit="10" stroke-linecap="round"/>
<path id="Vector_11" d="M26.9205 19.5524C26.5069 23.1691 23.9662 26.1244 20.6055 27.0901" stroke="#4E4E68" stroke-width="0.495139" stroke-miterlimit="10" stroke-linecap="round"/>
<g id="Group_7">
<path id="Vector_12" d="M7.95996 18.1773C8.13185 12.9317 12.1049 8.66635 17.1666 8.14343" stroke="#4E4E68" stroke-width="0.495139" stroke-miterlimit="10" stroke-linecap="round"/>
<path id="Vector_13" d="M9.51562 17.4899C9.92923 13.8732 12.4699 10.9178 15.8306 9.95215" stroke="#4E4E68" stroke-width="0.495139" stroke-miterlimit="10" stroke-linecap="round"/>
</g>
</g>
</g>
<g id="Group_8">
<g id="Group_9">
<path id="Vector_14" d="M16.0557 18.9351V18.4686C16.0557 18.0188 15.6973 17.6542 15.2553 17.6542C14.8133 17.6542 14.455 18.0188 14.455 18.4686V18.9351C14.455 19.3849 14.8133 19.7495 15.2553 19.7495C15.6973 19.7495 16.0557 19.3849 16.0557 18.9351Z" fill="#171759"/>
<path id="Vector_15" d="M21.9805 18.9351V18.4686C21.9805 18.0188 21.6221 17.6542 21.1801 17.6542C20.7381 17.6542 20.3798 18.0188 20.3798 18.4686V18.9351C20.3798 19.3849 20.7381 19.7495 21.1801 19.7495C21.6221 19.7495 21.9805 19.3849 21.9805 18.9351Z" fill="#171759"/>
</g>
<path id="Vector_16" d="M19.6095 19.7493C19.6095 20.5309 18.9865 21.1668 18.2183 21.1668C17.4502 21.1668 16.8271 20.5309 16.8271 19.7493H19.6113H19.6095Z" fill="white" stroke="#171759" stroke-width="0.366403" stroke-linecap="round" stroke-linejoin="round"/>
</g>
<path id="Vector_17" d="M31.9917 18.7237C33.0517 18.7237 33.911 17.8492 33.911 16.7705C33.911 15.6917 33.0517 14.8173 31.9917 14.8173C30.9316 14.8173 30.0723 15.6917 30.0723 16.7705C30.0723 17.8492 30.9316 18.7237 31.9917 18.7237Z" fill="#171759"/>
<g id="Group_10">
<path id="Vector_18" d="M5.40877 19.7624L4.22852 20.3589L8.09897 28.2898L9.27922 27.6933L5.40877 19.7624Z" fill="#FFBC00"/>
<path id="Vector_19" d="M6.59042 19.1661L5.41016 19.7626L9.28061 27.6935L10.4609 27.097L6.59042 19.1661Z" fill="#FFD815"/>
<path id="Vector_20" d="M10.4595 27.0993L8.10059 28.2914L8.53223 29.1759L10.8911 27.9837L10.4595 27.0993Z" fill="#DBD9E2"/>
<path id="Vector_21" d="M8.53125 29.175L10.8902 27.9829L11.2589 28.7385C11.4357 29.1007 11.2904 29.5404 10.9344 29.7203L9.86478 30.2608C9.50878 30.4407 9.07678 30.2929 8.89998 29.9306L8.53125 29.175Z" fill="#FF558A"/>
<path id="Vector_22" d="M6.58642 19.1687L4.22657 20.3621L4.16211 19.012L5.56942 18.3014L6.58642 19.1687Z" fill="#FFE7C5"/>
<path id="Vector_23" d="M5.57054 18.3012L4.16501 19.0118L4.10593 17.7655C4.0916 17.4831 4.41747 17.3191 4.63054 17.5013L5.57054 18.3012Z" fill="#171759"/>
</g>
<path id="Vector_24" d="M7.16939 29.0435C8.22944 29.0435 9.08878 28.169 9.08878 27.0903C9.08878 26.0116 8.22944 25.1371 7.16939 25.1371C6.10934 25.1371 5.25 26.0116 5.25 27.0903C5.25 28.169 6.10934 29.0435 7.16939 29.0435Z" fill="#171759"/>
<path id="Vector_25" d="M30.9829 11.597L31.8674 11.8102C32.3043 11.9159 32.3043 12.5481 31.8674 12.6538L30.9829 12.867C30.8719 12.8943 30.7842 12.9818 30.7591 13.0947L30.5496 13.9948C30.4458 14.4394 29.8245 14.4394 29.7206 13.9948L29.5112 13.0947C29.4843 12.9818 29.3984 12.8925 29.2873 12.867L28.4029 12.6538C27.966 12.5481 27.966 11.9159 28.4029 11.8102L29.2873 11.597C29.3984 11.5697 29.4861 11.4822 29.5112 11.3693L29.7206 10.4692C29.8245 10.0246 30.4458 10.0246 30.5496 10.4692L30.7591 11.3693C30.786 11.4822 30.8719 11.5715 30.9829 11.597Z" fill="#FFCD40"/>
<path id="Vector_26" d="M26.9473 9.62882L27.232 9.69806C27.5364 9.77094 27.5364 10.2119 27.232 10.2848L26.9473 10.354C26.8524 10.3777 26.7772 10.4524 26.7539 10.5508L26.6859 10.8405C26.6143 11.1502 26.181 11.1502 26.1093 10.8405L26.0413 10.5508C26.018 10.4542 25.9446 10.3777 25.8479 10.354L25.5632 10.2848C25.2589 10.2119 25.2589 9.77094 25.5632 9.69806L25.8479 9.62882C25.9428 9.60514 26.018 9.53043 26.0413 9.43204L26.1093 9.14234C26.181 8.8326 26.6143 8.8326 26.6859 9.14234L26.7539 9.43204C26.7772 9.52861 26.8506 9.60514 26.9473 9.62882Z" fill="#FFCD40"/>
</g>
</g>
</g>
</g>
</svg>
