<svg width="320" height="420" viewBox="0 0 320 420" fill="none" xmlns="http://www.w3.org/2000/svg">
<path opacity="0.2" d="M172.514 419.432C226.161 419.432 269.65 410.515 269.65 399.516C269.65 388.517 226.161 379.6 172.514 379.6C118.867 379.6 75.3779 388.517 75.3779 399.516C75.3779 410.515 118.867 419.432 172.514 419.432Z" fill="#3D3D60"/>
<path d="M164.361 384.56V332.421C164.361 325.219 158.522 319.381 151.319 319.381H151.299C144.096 319.381 138.257 325.219 138.257 332.421V384.56C138.257 391.762 144.096 397.6 151.299 397.6H151.319C158.522 397.6 164.361 391.762 164.361 384.56Z" fill="#171759"/>
<path d="M132.304 397.6H151.319C158.522 397.6 164.361 391.762 164.361 384.56V384.541C164.361 377.34 158.522 371.502 151.319 371.502H132.304C125.1 371.502 119.261 377.34 119.261 384.541V384.56C119.261 391.762 125.1 397.6 132.304 397.6Z" fill="#171759"/>
<path d="M230.888 373.695L204.819 328.541C201.218 322.304 193.242 320.168 187.004 323.77L186.987 323.78C180.749 327.381 178.611 335.357 182.211 341.594L208.281 386.747C211.882 392.984 219.858 395.12 226.096 391.519L226.113 391.509C232.351 387.908 234.489 379.932 230.888 373.695Z" fill="#171759"/>
<path d="M229.448 359.405L212.981 368.913C206.743 372.514 204.605 380.49 208.205 386.727L208.215 386.743C211.816 392.98 219.792 395.116 226.03 391.515L242.498 382.007C248.736 378.406 250.874 370.43 247.273 364.193L247.263 364.177C243.663 357.94 235.686 355.804 229.448 359.405Z" fill="#171759"/>
<path d="M172.472 352.587C239.844 352.587 294.46 297.983 294.46 230.627C294.46 163.27 239.844 108.667 172.472 108.667C105.1 108.667 50.4834 163.27 50.4834 230.627C50.4834 297.983 105.1 352.587 172.472 352.587Z" fill="#62657A"/>
<path d="M172.472 296.903C209.084 296.903 238.764 267.23 238.764 230.626C238.764 194.023 209.084 164.35 172.472 164.35C135.86 164.35 106.18 194.023 106.18 230.626C106.18 267.23 135.86 296.903 172.472 296.903Z" stroke="#D3D3DD" stroke-width="3.55556" stroke-miterlimit="10"/>
<path d="M172.472 281.225C200.423 281.225 223.082 258.571 223.082 230.627C223.082 202.682 200.423 180.028 172.472 180.028C144.52 180.028 121.861 202.682 121.861 230.627C121.861 258.571 144.52 281.225 172.472 281.225Z" fill="#D3D3DD"/>
<path opacity="0.2" d="M294.46 230.626C294.46 297.982 239.843 352.586 172.472 352.586C138.044 352.586 106.969 338.333 84.7949 315.394C103.636 327.297 125.946 334.192 149.873 334.192C217.245 334.192 271.843 279.588 271.843 212.232C271.843 179.296 258.8 149.403 237.55 127.465C271.746 149.056 294.46 187.193 294.46 230.626Z" fill="#3D3D60"/>
<path d="M282.844 234.267C280.994 289.719 238.245 334.809 183.781 340.337" stroke="#4E4E68" stroke-width="3.55556" stroke-miterlimit="10" stroke-linecap="round"/>
<path d="M266.101 241.509C261.651 279.742 234.314 310.983 198.152 321.191" stroke="#4E4E68" stroke-width="3.55556" stroke-miterlimit="10" stroke-linecap="round"/>
<path d="M62.0811 226.986C63.9305 171.534 106.68 126.444 161.144 120.917" stroke="#4E4E68" stroke-width="3.55556" stroke-miterlimit="10" stroke-linecap="round"/>
<path d="M78.8232 219.725C83.2736 181.492 110.611 150.251 146.772 140.042" stroke="#4E4E68" stroke-width="3.55556" stroke-miterlimit="10" stroke-linecap="round"/>
<path d="M283.053 322.762C294.459 322.762 303.705 313.518 303.705 302.114C303.705 290.711 294.459 281.467 283.053 281.467C271.647 281.467 262.4 290.711 262.4 302.114C262.4 313.518 271.647 322.762 283.053 322.762Z" fill="#171759"/>
<path d="M131.556 234.533C131.556 229.425 135.692 225.289 140.8 225.289C145.909 225.289 150.045 229.425 150.045 234.533" stroke="#171759" stroke-width="6.4" stroke-miterlimit="10" stroke-linecap="round"/>
<path d="M196.267 234.533C196.267 232.274 197.074 230.201 198.42 228.605C198.544 228.46 198.648 228.336 198.793 228.211C200.47 226.408 202.851 225.289 205.522 225.289C207.882 225.289 210.056 226.18 211.671 227.652C211.795 227.755 211.919 227.88 212.044 228.004C212.106 228.066 212.168 228.128 212.209 228.191C213.803 229.828 214.756 232.067 214.756 234.533" stroke="#171759" stroke-width="6.4" stroke-miterlimit="10" stroke-linecap="round"/>
<path d="M69.9769 290.283L80.6636 292.814C85.9421 294.069 85.9421 301.576 80.6636 302.831L69.9769 305.362C68.6356 305.686 67.5756 306.725 67.2728 308.066L64.7417 318.753C63.487 324.031 55.9803 324.031 54.7255 318.753L52.1945 308.066C51.87 306.725 50.8316 305.664 49.4903 305.362L38.8036 302.831C33.5251 301.576 33.5251 294.069 38.8036 292.814L49.4903 290.283C50.8316 289.959 51.8916 288.92 52.1945 287.579L54.7255 276.892C55.9803 271.614 63.487 271.614 64.7417 276.892L67.2728 287.579C67.5972 288.92 68.6356 289.98 69.9769 290.283Z" fill="#FFCD40"/>
<path d="M40.0431 321.264L43.4723 322.083C47.1387 322.946 47.1387 328.165 43.4723 329.028L40.0431 329.847C38.9001 330.128 37.9943 331.012 37.7139 332.176L36.8944 335.606C36.0317 339.272 30.8125 339.272 29.9498 335.606L29.1302 332.176C28.8499 331.033 27.9656 330.128 26.801 329.847L23.3719 329.028C19.7055 328.165 19.7055 322.946 23.3719 322.083L26.801 321.264C27.9441 320.983 28.8499 320.099 29.1302 318.934L29.9498 315.505C30.8125 311.839 36.0317 311.839 36.8944 315.505L37.7139 318.934C37.9943 320.077 38.8785 320.983 40.0431 321.264Z" fill="#FFCD40"/>
<path d="M313.821 147.041L317.251 147.861C320.917 148.724 320.917 153.943 317.251 154.805L313.821 155.625C312.678 155.905 311.773 156.79 311.492 157.954L310.673 161.383C309.81 165.05 304.591 165.05 303.728 161.383L302.909 157.954C302.628 156.811 301.744 155.905 300.579 155.625L297.15 154.805C293.484 153.943 293.484 148.724 297.15 147.861L300.579 147.041C301.722 146.761 302.628 145.877 302.909 144.712L303.728 141.283C304.591 137.617 309.81 137.617 310.673 141.283L311.492 144.712C311.773 145.855 312.657 146.761 313.821 147.041Z" fill="#FFCD40"/>
<rect x="155.022" y="32.5776" width="27.0222" height="18.4889" fill="white"/>
<path d="M183.763 77.5554C185.079 73.1691 187.806 69.4291 190.505 65.7029C191.218 64.7266 191.931 63.7504 192.616 62.7604C195.329 58.8416 196.919 54.0979 196.919 48.9691C196.919 35.5904 186.12 24.7554 172.8 24.7554C159.48 24.7554 148.682 35.5904 148.682 48.9554C148.682 54.0841 150.271 58.8416 152.985 62.7466C153.67 63.7366 154.382 64.7129 155.095 65.6891C157.808 69.4154 160.535 73.1691 161.837 77.5416H183.763V77.5554ZM161.837 48.9554C161.837 50.1654 160.851 51.1554 159.645 51.1554C158.439 51.1554 157.452 50.1654 157.452 48.9554C157.452 40.4441 164.318 33.5554 172.8 33.5554C174.006 33.5554 174.993 34.5454 174.993 35.7554C174.993 36.9654 174.006 37.9554 172.8 37.9554C166.743 37.9554 161.837 42.8779 161.837 48.9554Z" fill="#FFCD40"/>
<path d="M173.097 94.8445C179.154 94.8445 184.06 89.922 184.06 83.8445V81.6445H162.134V83.8445C162.134 89.922 167.04 94.8445 173.097 94.8445Z" fill="#909090"/>
<path d="M172.8 2V19.0667" stroke="#FFCD40" stroke-width="3.55556" stroke-linecap="round"/>
<path d="M157.866 8.3999L162.244 20.428" stroke="#FFCD40" stroke-width="3.55556" stroke-linecap="round"/>
<path d="M186.422 8.3999L182.044 20.428" stroke="#FFCD40" stroke-width="3.55556" stroke-linecap="round"/>
<path d="M196.611 18.3555L190.577 24.3894" stroke="#FFCD40" stroke-width="3.55556" stroke-linecap="round"/>
<path d="M147.911 18.3555L153.945 24.3894" stroke="#FFCD40" stroke-width="3.55556" stroke-linecap="round"/>
<path d="M20.6525 225.34C32.0586 225.34 41.305 216.096 41.305 204.692C41.305 193.289 32.0586 184.044 20.6525 184.044C9.24645 184.044 0 193.289 0 204.692C0 216.096 9.24645 225.34 20.6525 225.34Z" fill="#171759"/>
<path d="M186.312 248.756C185.195 254.812 179.743 259.422 173.156 259.422C166.569 259.422 161.117 254.812 160 248.756" stroke="#171759" stroke-width="6.18667" stroke-linecap="round" stroke-linejoin="round"/>
</svg>
