<svg width="333" height="259" viewBox="0 0 333 259" fill="none" xmlns="http://www.w3.org/2000/svg">
<path d="M170.165 0L170.268 40.795" stroke="black"/>
<path d="M332.241 74.3887L276 97.4802" stroke="black"/>
<path d="M173.278 51.9227C165.203 51.9524 157.178 52.748 149.479 54.0584C110.452 60.7004 88.4538 78.1186 76.5837 102.579C90.6305 101.484 104.485 100.318 117.968 100.402C128.82 100.47 139.432 101.346 149.711 103.719C156.529 105.294 160.805 111.21 162.135 117.999C163.464 124.789 162.521 132.813 159.86 141.198L159.731 141.605L159.52 141.977C156.027 148.115 148.602 153.001 139.137 158.174C129.673 163.348 118.125 168.386 106.616 172.767C95.1071 177.147 83.6604 180.858 74.4071 183.313C71.1428 184.18 68.1746 184.879 65.5263 185.409C66.5501 199.417 68.4792 213.93 70.9299 228.6C133.983 211.387 194.005 192.65 252.509 173.136C264.18 153.13 265.977 134.234 260.145 116.105C250.068 84.7831 232.74 67.9337 212.798 59.3297C200.335 53.9522 186.737 51.8732 173.279 51.9227H173.278ZM99.3825 109.108C95.3055 109.337 91.1633 109.628 86.9931 109.934L67.4892 176.689C69.012 176.334 70.6104 175.941 72.3285 175.485C74.2341 174.976 76.1332 174.442 78.0255 173.886C82.5354 159.904 97.5105 114.749 99.3825 109.108ZM78.3675 110.576C73.4769 110.947 68.5467 111.32 63.5589 111.642C63.4149 111.842 63.2376 112.068 62.9658 112.662C62.2548 114.215 61.4471 116.9 60.7554 120.188C59.3717 126.764 58.3389 135.815 57.7382 144.883C57.1383 153.95 56.9597 163.08 57.2013 169.895C57.3219 173.302 57.5568 176.152 57.8502 177.977C57.8718 178.114 57.8853 178.117 57.9087 178.242C58.1157 178.238 58.3736 178.222 58.6044 178.213L78.3675 110.576ZM141.6 110.816C134.582 110.816 128.703 116.477 128.703 123.484C128.703 130.49 134.582 136.154 141.6 136.154C148.618 136.154 154.497 130.491 154.497 123.484C154.497 116.477 148.618 110.816 141.6 110.816ZM141.6 118.916C144.354 118.916 146.397 120.971 146.397 123.484C146.397 125.998 144.354 128.054 141.6 128.054C138.846 128.054 136.803 125.997 136.803 123.484C136.803 120.971 138.846 118.916 141.6 118.916ZM245.185 184.105C189.472 202.549 132.278 220.269 72.324 236.618C72.5099 237.66 72.6885 238.701 72.8784 239.744C139.302 227.752 188.067 208.71 239.99 190.62C241.787 188.501 243.52 186.328 245.186 184.104L245.185 184.105Z" fill="#1C3A29"/>
<path d="M292 244.234L250.652 199.663" stroke="black"/>
<path d="M7 245.951L46.6521 199.865" stroke="black"/>
<path d="M1 65.6641L53 97.1641" stroke="black"/>
</svg>
