<svg width="64" height="65" viewBox="0 0 64 65" fill="none" xmlns="http://www.w3.org/2000/svg">
<path d="M46.3362 35.8917L23.7122 13.2677L28.5122 8.46769C30.1122 6.67569 35.8722 6.96369 39.7442 9.49169C43.6162 12.0517 44.3202 13.5877 49.0562 16.2117C52.8322 18.2597 56.8962 20.2437 63.2962 18.9317L46.3362 35.8917ZM44.0642 38.1637L21.4402 15.5397L15.7762 21.2037C15.4795 21.4997 15.2442 21.8514 15.0836 22.2385C14.923 22.6256 14.8404 23.0406 14.8404 23.4597C14.8404 23.8788 14.923 24.2938 15.0836 24.6809C15.2442 25.068 15.4795 25.4196 15.7762 25.7157L19.1682 29.1077C20.4162 30.3557 20.4162 32.4037 19.1682 33.6517C17.2482 35.5717 14.5922 37.2037 12.0962 39.0597C10.9762 39.8917 9.85619 40.7557 8.86419 41.7477C4.57619 46.0357 1.28019 51.9557 4.48019 55.1237C7.64819 58.3237 13.5682 55.0277 17.8562 50.7717C18.8482 49.7797 19.7122 48.6597 20.5762 47.5077C22.4002 45.0117 24.0322 42.3557 25.9842 40.4357C26.2802 40.139 26.6319 39.9037 27.019 39.7431C27.4061 39.5825 27.8211 39.4999 28.2402 39.4999C28.6593 39.4999 29.0743 39.5825 29.4614 39.7431C29.8485 39.9037 30.2001 40.139 30.4962 40.4357L33.8882 43.8277C35.1362 45.0757 37.1522 45.0757 38.4002 43.8277L44.0642 38.1637Z" fill="#1C3A29"/>
</svg>
