<svg width="64" height="57" viewBox="0 0 64 57" fill="none" xmlns="http://www.w3.org/2000/svg">
<path d="M19.5875 28.4991H2C0.9 28.4991 0 29.3991 0 30.4991V34.4991C0 35.5991 0.9 36.4991 2 36.4991H19.775C21.7625 36.4991 23.625 37.8616 23.95 39.8241C24.3625 42.3241 22.4375 44.4991 20 44.4991C18.2375 44.4991 16.7375 43.3491 16.2 41.7616C15.9375 40.9741 15.125 40.4991 14.3 40.4991H10.2C8.975 40.4991 7.9875 41.5991 8.2125 42.7991C9.2875 48.3116 14.1625 52.4991 19.9875 52.4991C27.125 52.4991 32.825 46.2366 31.8875 38.9241C31.125 32.8741 25.675 28.4991 19.5875 28.4991ZM2 24.4991H44C51.4625 24.4991 57.35 17.6491 55.725 9.91165C54.775 5.38665 51.1125 1.72415 46.5875 0.774145C39.6625 -0.675855 33.45 3.88665 32.225 10.2116C31.9875 11.4116 32.9875 12.4991 34.2 12.4991H38.3C39.1375 12.4991 39.9375 12.0241 40.2 11.2366C40.7375 9.64915 42.2375 8.49915 44 8.49915C46.425 8.49915 48.3625 10.6741 47.95 13.1741C47.625 15.1366 45.775 16.4991 43.775 16.4991H2C0.9 16.4991 0 17.3991 0 18.4991V22.4991C0 23.5991 0.9 24.4991 2 24.4991ZM50 28.4991H30.4625C32.875 30.5741 34.6125 33.3491 35.4375 36.4991H50C53.3125 36.4991 56 39.1866 56 42.4991C56 45.8116 53.3125 48.4991 50 48.4991C47.7625 48.4991 45.8375 47.2616 44.8 45.4491C44.4375 44.8241 43.7125 44.4991 42.9875 44.4991H38.7625C37.4 44.4991 36.3875 45.8491 36.85 47.1366C39.075 53.4616 45.6625 57.7366 53.025 56.1741C58.175 55.0866 62.4125 50.9741 63.6125 45.8366C65.75 36.6866 58.8125 28.4991 50 28.4991Z" fill="#1C3A29"/>
</svg>
