<svg width="48" height="58" viewBox="0 0 48 58" fill="none" xmlns="http://www.w3.org/2000/svg">
<path fill-rule="evenodd" clip-rule="evenodd" d="M22.128 0.35381C23.1803 -0.0399176 24.3301 -0.091247 25.4133 0.207144L25.872 0.35381L44.5387 7.35381C45.4851 7.70872 46.3113 8.32529 46.9208 9.13168C47.5303 9.93808 47.8981 10.9011 47.9813 11.9085L48 12.3485V26.6498C47.9999 30.9709 46.8332 35.2119 44.6229 38.925C42.4127 42.6381 39.241 45.6856 35.4427 47.7458L34.7333 48.1165L25.7893 52.5885C25.2969 52.8344 24.7589 52.976 24.2092 53.0044C23.6595 53.0329 23.1099 52.9475 22.5947 52.7538L22.2107 52.5885L13.2667 48.1165C9.40163 46.1839 6.13007 43.2437 3.79734 39.6061C1.46462 35.9686 0.157281 31.7687 0.0133336 27.4498L0 26.6498V12.3485C1.55068e-05 11.3382 0.287004 10.3486 0.827557 9.49507C1.36811 8.64151 2.13999 7.95906 3.05333 7.52714L3.46133 7.35381L22.128 0.35381ZM33.1547 17.5111L20.8933 29.7725L16.1787 25.0578C15.6783 24.5578 14.9998 24.277 14.2924 24.2773C13.585 24.2775 12.9067 24.5588 12.4067 25.0591C11.9066 25.5595 11.6259 26.238 11.6261 26.9454C11.6264 27.6528 11.9076 28.3311 12.408 28.8311L18.8187 35.2418C19.0911 35.5143 19.4145 35.7305 19.7705 35.878C20.1265 36.0255 20.508 36.1014 20.8933 36.1014C21.2787 36.1014 21.6602 36.0255 22.0162 35.878C22.3722 35.7305 22.6956 35.5143 22.968 35.2418L36.9253 21.2818C37.18 21.0358 37.3832 20.7416 37.5229 20.4162C37.6627 20.0909 37.7363 19.741 37.7393 19.3869C37.7424 19.0328 37.6749 18.6817 37.5409 18.3539C37.4068 18.0262 37.2088 17.7285 36.9584 17.4781C36.708 17.2277 36.4103 17.0297 36.0825 16.8956C35.7548 16.7615 35.4037 16.6941 35.0496 16.6971C34.6955 16.7002 34.3456 16.7738 34.0203 16.9135C33.6949 17.0533 33.4007 17.2564 33.1547 17.5111Z" fill="#1C3A29"/>
</svg>
