<svg width="54" height="59" viewBox="0 0 54 59" fill="none" xmlns="http://www.w3.org/2000/svg">
<path fill-rule="evenodd" clip-rule="evenodd" d="M27.0002 46.1673C27.6533 46.1674 28.2837 46.4072 28.7718 46.8412C29.2599 47.2753 29.5717 47.8733 29.6482 48.522L29.6668 48.834V51.5007C29.6661 52.1803 29.4058 52.8341 28.9392 53.3283C28.4727 53.8225 27.835 54.1199 27.1564 54.1598C26.4779 54.1996 25.8098 53.9789 25.2886 53.5426C24.7674 53.1064 24.4324 52.4876 24.3522 51.8127L24.3335 51.5007V48.834C24.3335 48.1267 24.6144 47.4485 25.1145 46.9484C25.6146 46.4483 26.2929 46.1673 27.0002 46.1673ZM13.8002 40.7007C14.3001 41.2007 14.5809 41.8789 14.5809 42.586C14.5809 43.2931 14.3001 43.9712 13.8002 44.4713L11.9148 46.3567C11.6688 46.6113 11.3746 46.8145 11.0492 46.9543C10.7239 47.094 10.374 47.1676 10.0199 47.1707C9.66582 47.1737 9.31468 47.1063 8.98695 46.9722C8.65923 46.8381 8.36149 46.6401 8.11111 46.3897C7.86073 46.1393 7.66272 45.8416 7.52864 45.5139C7.39456 45.1861 7.32709 44.835 7.33016 44.4809C7.33324 44.1268 7.4068 43.7769 7.54656 43.4516C7.68632 43.1262 7.88947 42.832 8.14416 42.586L10.0295 40.7007C10.5296 40.2007 11.2077 39.9199 11.9148 39.9199C12.6219 39.9199 13.3001 40.2007 13.8002 40.7007ZM43.9708 40.7007L45.8562 42.586C46.3419 43.0889 46.6107 43.7625 46.6046 44.4617C46.5985 45.1609 46.3181 45.8297 45.8237 46.3242C45.3293 46.8186 44.6604 47.099 43.9612 47.1051C43.262 47.1112 42.5884 46.8424 42.0855 46.3567L40.2002 44.4713C39.7144 43.9684 39.4456 43.2948 39.4517 42.5956C39.4578 41.8964 39.7382 41.2276 40.2326 40.7331C40.7271 40.2387 41.3959 39.9583 42.0951 39.9522C42.7943 39.9461 43.4679 40.2149 43.9708 40.7007ZM28.6455 0.833985C29.9457 0.833701 31.2011 1.30836 32.1759 2.16871C33.1507 3.02907 33.7776 4.21587 33.9388 5.50598L34.9522 13.6127C38.0126 15.3655 40.4082 18.0805 41.7663 21.3354C43.1244 24.5903 43.369 28.2027 42.4621 31.611C41.5552 35.0193 39.5475 38.0324 36.7513 40.1819C33.9551 42.3313 30.5271 43.4967 27.0002 43.4967C23.4733 43.4967 20.0452 42.3313 17.249 40.1819C14.4528 38.0324 12.4451 35.0193 11.5382 31.611C10.6313 28.2027 10.8759 24.5903 12.234 21.3354C13.5922 18.0805 15.9877 15.3655 19.0482 13.6127L20.0615 5.50598C20.2227 4.21587 20.8496 3.02907 21.8244 2.16871C22.7992 1.30836 24.0547 0.833701 25.3548 0.833985H28.6455ZM5.66683 24.834C6.37407 24.834 7.05235 25.1149 7.55245 25.615C8.05254 26.1151 8.3335 26.7934 8.3335 27.5007C8.3335 28.2079 8.05254 28.8862 7.55245 29.3863C7.05235 29.8864 6.37407 30.1673 5.66683 30.1673H3.00016C2.29292 30.1673 1.61464 29.8864 1.11454 29.3863C0.614448 28.8862 0.333496 28.2079 0.333496 27.5007C0.333496 26.7934 0.614448 26.1151 1.11454 25.615C1.61464 25.1149 2.29292 24.834 3.00016 24.834H5.66683ZM51.0002 24.834C51.7074 24.834 52.3857 25.1149 52.8858 25.615C53.3859 26.1151 53.6668 26.7934 53.6668 27.5007C53.6668 28.2079 53.3859 28.8862 52.8858 29.3863C52.3857 29.8864 51.7074 30.1673 51.0002 30.1673H48.3335C47.6263 30.1673 46.948 29.8864 46.4479 29.3863C45.9478 28.8862 45.6668 28.2079 45.6668 27.5007C45.6668 26.7934 45.9478 26.1151 46.4479 25.615C46.948 25.1149 47.6263 24.834 48.3335 24.834H51.0002ZM45.8562 8.64732C46.3561 9.14739 46.6369 9.82555 46.6369 10.5327C46.6369 11.2398 46.3561 11.9179 45.8562 12.418L43.9708 14.3033C43.7248 14.558 43.4306 14.7612 43.1052 14.9009C42.7799 15.0407 42.43 15.1142 42.0759 15.1173C41.7218 15.1204 41.3707 15.0529 41.043 14.9188C40.7152 14.7848 40.4175 14.5868 40.1671 14.3364C39.9167 14.086 39.7187 13.7883 39.5846 13.4605C39.4506 13.1328 39.3831 12.7817 39.3862 12.4276C39.3892 12.0735 39.4628 11.7236 39.6026 11.3982C39.7423 11.0729 39.9455 10.7786 40.2002 10.5327L42.0855 8.64732C42.5856 8.14739 43.2637 7.86655 43.9708 7.86655C44.6779 7.86655 45.3561 8.14739 45.8562 8.64732ZM11.9148 8.64732L13.8002 10.5327C14.2739 11.0379 14.5325 11.7076 14.5213 12.4C14.51 13.0925 14.2298 13.7535 13.7399 14.243C13.25 14.7326 12.5889 15.0123 11.8964 15.0231C11.2039 15.0338 10.5344 14.7748 10.0295 14.3007L8.14416 12.4153C7.67042 11.9101 7.4118 11.2404 7.42305 10.5479C7.43429 9.85544 7.71451 9.1945 8.20441 8.70494C8.69431 8.21539 9.35546 7.93564 10.048 7.92488C10.7404 7.91413 11.41 8.17321 11.9148 8.64732ZM28.6455 6.16732H25.3548L24.6882 11.5007H29.3122L28.6455 6.16732Z" fill="#1C3A29"/>
</svg>
