<svg width="20" height="21" viewBox="0 0 20 21" fill="none" xmlns="http://www.w3.org/2000/svg">
<g id="ic_close_large">
<path id="icon" d="M5.58958 4.66058C5.26414 4.33514 4.73651 4.33514 4.41107 4.66058C4.08563 4.98602 4.08563 5.51366 4.41107 5.83909L8.82182 10.2498L4.41107 14.6606C4.08563 14.986 4.08563 15.5137 4.41107 15.8391C4.73651 16.1645 5.26414 16.1645 5.58958 15.8391L10.0003 11.4283L14.4111 15.8391C14.7365 16.1645 15.2641 16.1645 15.5896 15.8391C15.915 15.5137 15.915 14.986 15.5896 14.6606L11.1788 10.2498L15.5896 5.83909C15.915 5.51366 15.915 4.98602 15.5896 4.66058C15.2641 4.33515 14.7365 4.33515 14.4111 4.66058L10.0003 9.07133L5.58958 4.66058Z" fill="white"/>
</g>
</svg>
