<svg width="26" height="23" viewBox="0 0 26 23" fill="none" xmlns="http://www.w3.org/2000/svg">
<g id="Vector 4">
<path d="M1 18.2829V3.01654C1 2.34216 1.65388 1.86113 2.29768 2.06188L8.86611 4.11006L17.1674 1.5L24.3161 3.88218C24.7245 4.01827 25 4.40043 25 4.83089V20.1285C25 20.8064 24.3397 21.2879 23.6942 21.0806L17.1674 18.9843L8.86611 21.5L1.69884 19.2364C1.28283 19.105 1 18.7191 1 18.2829Z" fill="#1C3A29"/>
<path d="M8.86611 21.5L1.69884 19.2364C1.28283 19.105 1 18.7191 1 18.2829V3.01654C1 2.34216 1.65388 1.86113 2.29768 2.06188L8.86611 4.11006M8.86611 21.5L17.1674 18.9843M8.86611 21.5V4.11006M17.1674 18.9843L23.6942 21.0806C24.3397 21.2879 25 20.8065 25 20.1285V4.83089C25 4.40043 24.7245 4.01827 24.3161 3.88218L17.1674 1.5M17.1674 18.9843V1.5M17.1674 1.5L8.86611 4.11006" stroke="#EDF9C4" stroke-width="2"/>
</g>
</svg>
