<svg version="1.1" id="Layer_1" xmlns="http://www.w3.org/2000/svg" xmlns:xlink="http://www.w3.org/1999/xlink" x="0px" y="0px"
	 width="100%" viewBox="0 0 1280 1280" enable-background="new 0 0 1280 1280" xml:space="preserve">
<path fill="#000000" opacity="1.000000" stroke="none" 
	d="
M681.000000,1281.000000 
	C454.000000,1281.000000 227.500000,1281.000000 1.000000,1281.000000 
	C1.000000,854.333313 1.000000,427.666656 1.000000,1.000000 
	C427.666656,1.000000 854.333313,1.000000 1281.000000,1.000000 
	C1281.000000,427.666656 1281.000000,854.333313 1281.000000,1281.000000 
	C1081.166626,1281.000000 881.333313,1281.000000 681.000000,1281.000000 
M114.383743,502.907318 
	C95.309807,509.542999 81.508095,522.217590 74.215935,540.856140 
	C70.174980,551.184753 67.608223,562.337219 66.133888,573.353516 
	C64.648743,584.450500 64.471733,595.905090 65.326843,607.080078 
	C66.141273,617.723328 68.665833,628.293762 71.138023,638.730530 
	C72.642799,645.083069 75.137642,651.281677 77.956413,657.182190 
	C78.606888,658.543823 82.415771,658.831482 84.746956,658.764771 
	C85.848892,658.733215 87.514145,656.851807 87.838623,655.540039 
	C88.580772,652.539673 88.832573,649.381775 88.967125,646.274170 
	C89.389511,636.518250 88.963226,626.666321 90.195007,617.021362 
	C91.438683,607.283203 93.475929,597.478943 96.618446,588.195435 
	C100.115242,577.865417 107.034622,570.384827 118.923187,568.881348 
	C130.991150,567.355164 139.866913,561.318542 143.923370,549.333069 
	C144.284088,548.267212 144.693161,547.217224 145.035782,546.145813 
	C147.042404,539.870483 151.126007,535.225586 157.003464,532.577332 
	C172.085815,525.781433 187.945389,526.230408 203.845398,528.463806 
	C212.716476,529.709839 221.494507,531.610474 230.357910,532.922668 
	C233.878922,533.443909 238.395782,533.737061 239.737061,529.720154 
	C241.242859,525.210510 236.982834,523.113098 233.679672,521.329529 
	C208.647720,507.812927 181.818954,500.157562 153.530762,498.145203 
	C140.580856,497.223938 127.571266,498.298981 114.383743,502.907318 
M316.030945,673.386047 
	C314.281097,677.431763 313.051514,681.814514 310.687866,685.462524 
	C302.201935,698.559387 293.980927,711.880066 282.307556,722.599304 
	C280.107269,724.619751 278.478821,727.582947 277.404449,730.420776 
	C276.300751,733.336121 276.991425,735.574463 281.122894,736.122314 
	C288.443024,737.093079 293.223267,732.378784 298.359680,728.946594 
	C314.265808,718.317688 328.352295,705.619934 340.727264,690.926270 
	C349.438110,680.583252 357.206635,669.760498 362.311859,657.210876 
	C367.025604,645.623535 369.845367,633.429626 367.769836,621.053101 
	C363.718719,596.895996 349.312988,579.207764 330.107147,565.059753 
	C317.052368,555.442932 302.811371,547.924622 287.745880,541.917236 
	C276.472809,537.422119 265.045837,533.560669 252.803848,533.116882 
	C250.914017,533.048340 248.967728,534.537109 247.047531,535.305664 
	C248.080078,537.727051 248.443375,541.062317 250.269669,542.399719 
	C255.917465,546.535461 262.163086,549.845886 268.103210,553.593018 
	C281.506348,562.047791 293.898560,571.665039 303.212402,584.735168 
	C308.877533,592.684937 311.389954,601.547546 307.498230,610.685059 
	C302.409363,622.633179 301.835327,633.394287 311.067749,643.687622 
	C318.627869,652.116455 320.808746,661.837769 316.030945,673.386047 
M575.505432,623.975769 
	C563.315430,616.645142 550.823120,609.767273 539.004822,601.879761 
	C520.345825,589.426819 525.072937,569.565674 541.780518,561.699463 
	C554.089111,555.904419 565.486084,559.319153 576.315857,565.878784 
	C589.213745,573.691101 593.865967,586.614197 596.893982,600.340393 
	C598.319946,606.804565 598.500061,607.101074 605.718750,605.222046 
	C605.718750,585.971497 605.718750,566.718201 605.718750,547.233948 
	C602.834778,547.233948 600.230103,547.233948 597.644043,547.233948 
	C595.267517,556.141479 592.855957,557.308350 584.437256,553.805969 
	C582.327393,552.928223 580.150696,552.199463 577.975708,551.491638 
	C555.666687,544.231750 534.602234,543.618591 515.999634,561.274963 
	C506.126831,570.645508 500.888977,588.107666 504.769562,601.506897 
	C509.671753,618.433289 522.640503,627.617615 536.681519,635.923279 
	C550.872314,644.317627 565.706726,651.799500 579.116150,661.295227 
	C595.851685,673.146301 595.559570,694.903076 576.272583,704.906372 
	C568.931396,708.714050 561.144592,709.781189 553.016968,707.985596 
	C538.792053,704.842834 526.550781,698.656433 520.389587,684.586426 
	C517.280090,677.485352 515.383362,669.853149 512.869446,662.253052 
	C510.721466,662.253052 508.126190,662.253052 505.331787,662.253052 
	C505.331787,681.550903 505.331787,700.595337 505.331787,719.797852 
	C508.274628,719.797852 510.886902,719.797852 513.450256,719.797852 
	C515.748291,710.250000 516.644043,709.805054 525.909790,712.410645 
	C534.231201,714.750610 542.506165,717.498474 550.992188,718.959290 
	C568.070557,721.899231 584.454163,720.074341 598.750427,709.054504 
	C623.489990,689.984863 622.452087,655.911011 598.144836,638.116699 
	C591.163757,633.006226 583.565491,628.738770 575.505432,623.975769 
M1030.566162,607.102295 
	C1024.967529,609.392822 1019.344604,611.627014 1013.792419,614.025024 
	C1012.770691,614.466309 1011.171265,616.013184 1011.315613,616.296143 
	C1012.008118,617.653564 1013.018433,619.415405 1014.275635,619.774780 
	C1015.850098,620.224670 1017.794006,619.539246 1019.545105,619.180908 
	C1023.412231,618.389771 1028.384766,621.036194 1028.913330,624.532410 
	C1029.477783,628.266785 1029.921021,632.057678 1029.952515,635.827820 
	C1030.071045,649.988953 1030.000122,664.151794 1030.000000,678.313965 
	C1029.999756,700.806824 1030.038940,723.299805 1029.982666,745.792480 
	C1029.955322,756.693481 1027.173462,761.191528 1019.223572,762.751526 
	C1016.389893,763.307556 1013.355469,762.840515 1010.381714,762.840515 
	C1010.381714,765.272339 1010.381714,766.979431 1010.381714,768.737793 
	C1031.345093,768.737793 1051.940918,768.737793 1072.646729,768.737793 
	C1072.646729,766.762878 1072.646729,765.055237 1072.646729,762.998474 
	C1070.662354,762.998474 1069.008911,763.099304 1067.371338,762.981323 
	C1059.447754,762.410217 1053.323242,759.509521 1053.899170,749.338257 
	C1054.388062,740.702026 1053.999878,732.016174 1053.999878,723.352234 
	C1053.999878,720.308044 1053.999878,717.263855 1053.999878,714.743591 
	C1059.625000,716.297791 1064.525146,718.026123 1069.571655,718.982117 
	C1092.825806,723.387024 1111.894897,712.197876 1122.192261,692.351929 
	C1129.306885,678.640259 1131.506958,664.084229 1130.232422,648.554504 
	C1129.185669,635.802063 1125.034302,624.917542 1117.498657,614.733643 
	C1109.702148,604.197327 1098.990723,600.304626 1086.771606,600.154602 
	C1076.540527,600.028992 1067.623779,604.168274 1060.623291,611.889282 
	C1058.526001,614.202393 1056.507690,616.587158 1053.730957,619.765991 
	C1053.730957,612.874268 1053.730957,607.106750 1053.730957,601.262329 
	C1045.157349,599.917419 1038.360107,603.887695 1030.566162,607.102295 
M905.998901,733.493286 
	C905.662781,740.598816 905.551392,747.725098 904.896667,754.801147 
	C904.563293,758.403564 902.372131,761.217712 898.507812,761.932312 
	C894.829346,762.612427 891.098267,763.008057 887.395996,763.528015 
	C887.395996,765.305359 887.395996,767.009460 887.395996,768.992676 
	C907.257690,768.992676 926.737427,768.996338 946.217102,768.979736 
	C947.013306,768.979004 947.809448,768.788147 948.620728,768.683960 
	C948.620728,766.713806 948.620728,765.007568 948.620728,762.998474 
	C946.607910,762.998474 944.957947,763.046692 943.311523,762.990356 
	C934.904724,762.702942 930.821899,760.108093 930.312256,752.023865 
	C929.523132,739.503662 930.104126,726.897034 930.104126,713.637573 
	C940.769714,719.476562 951.262573,720.844971 962.603333,719.160217 
	C982.239136,716.243103 993.511963,703.826721 1001.001587,686.931641 
	C1006.074585,675.488037 1006.624268,663.300842 1006.132690,650.887512 
	C1005.680054,639.455566 1002.807190,629.121277 997.152649,619.115234 
	C986.246521,599.816162 957.655212,593.661377 941.433777,608.093201 
	C937.656311,611.453857 934.125427,615.091675 929.899048,619.162598 
	C929.899048,612.829407 929.899048,607.099731 929.899048,600.690063 
	C926.093018,601.096497 922.642090,600.807068 919.705017,601.899353 
	C910.039001,605.494141 900.687073,609.958130 890.952698,613.333374 
	C886.253235,614.962891 887.053955,616.892029 888.762085,620.119568 
	C891.252625,619.951721 893.609375,620.050171 895.850769,619.588501 
	C900.583801,618.613708 904.452576,620.961914 904.933838,625.715942 
	C905.464905,630.962646 905.936584,636.242676 905.952942,641.509644 
	C906.047180,671.838074 905.998901,702.166809 905.998901,733.493286 
M240.589935,780.087952 
	C251.165939,770.761536 261.889374,761.592224 272.165100,751.945923 
	C273.779144,750.430603 273.995758,746.645691 273.572937,744.125916 
	C273.403778,743.118042 269.781647,742.265930 267.683807,742.141174 
	C266.044128,742.043762 264.216309,742.965210 262.668457,743.798706 
	C246.803925,752.341064 230.916245,760.700134 213.322922,765.421875 
	C198.874207,769.299683 184.485489,770.064209 170.002274,766.467468 
	C150.708542,761.676086 134.606369,751.827942 121.737221,736.390930 
	C107.191818,718.943176 98.219017,698.839355 92.139183,677.293213 
	C90.695168,672.175781 87.885956,669.648438 83.159912,670.239868 
	C79.106285,670.747192 79.114937,674.957458 78.974998,678.453796 
	C78.276260,695.910828 81.640709,712.776794 85.935303,729.568420 
	C91.631516,751.840271 99.780815,772.611450 116.544083,789.362793 
	C131.040329,803.848755 148.669983,809.572449 168.285660,808.650452 
	C178.729767,808.159424 189.260010,805.252258 199.331924,802.096863 
	C214.119385,797.464050 227.388336,789.500427 240.589935,780.087952 
M688.878723,612.422424 
	C692.911804,614.951843 694.660522,618.446411 695.197083,623.335449 
	C695.719360,628.094238 696.039062,633.155823 700.919250,636.697632 
	C705.610840,640.102478 710.467102,638.771973 715.268311,638.900757 
	C720.113525,639.030701 723.564514,634.928467 724.037964,630.006714 
	C725.143982,618.508545 718.155029,611.589172 709.659485,606.502991 
	C696.746094,598.771912 682.619263,598.575806 668.405334,602.859253 
	C650.150269,608.360596 638.895508,620.981201 633.023682,638.650635 
	C629.211121,650.123535 629.271851,661.921631 630.946533,673.835083 
	C633.381592,691.157166 641.392761,705.162720 656.481445,713.950745 
	C676.348083,725.521545 700.318604,720.374634 714.863403,702.729370 
	C722.153625,693.885071 725.195679,683.437378 728.171204,672.843872 
	C720.889954,669.928711 720.967712,669.966858 717.940979,676.138550 
	C713.268250,685.666809 707.123108,693.522888 696.472717,697.256226 
	C686.490906,700.755188 673.160217,696.971558 666.861755,688.840149 
	C659.310120,679.090820 655.170776,668.260010 653.865723,656.090149 
	C652.239746,640.926575 654.641724,627.144165 666.313293,616.188660 
	C672.727966,610.167664 679.907288,608.192200 688.878723,612.422424 
M1203.932861,689.019653 
	C1203.977661,689.684509 1203.913574,690.378723 1204.083496,691.009888 
	C1206.696411,700.717529 1197.478394,712.061951 1187.502441,710.884766 
	C1177.816650,709.741821 1169.459351,705.332214 1164.189209,697.045532 
	C1160.329590,690.976929 1157.867798,684.019287 1154.706543,677.295105 
	C1152.960327,677.295105 1150.700806,677.295105 1148.364746,677.295105 
	C1148.364746,690.985657 1148.364746,704.379639 1148.364746,718.065857 
	C1151.051514,717.937256 1154.250610,718.742981 1155.496704,717.534668 
	C1158.551270,714.572632 1161.229126,715.941833 1164.375122,716.616577 
	C1177.396362,719.409546 1190.452148,722.457703 1203.576782,716.992737 
	C1218.059204,710.962280 1226.371826,701.320557 1226.780029,685.925720 
	C1227.094604,674.061768 1221.399414,664.251404 1211.086060,658.155457 
	C1201.650879,652.578491 1191.546875,648.144653 1181.907715,642.895020 
	C1177.914917,640.720459 1173.831177,638.243042 1170.734131,635.000549 
	C1165.709717,629.740234 1164.396973,623.230774 1166.985474,618.262268 
	C1172.867920,606.971130 1190.615723,608.408630 1197.317017,614.787842 
	C1202.851807,620.056519 1206.234375,626.463684 1208.050659,633.811768 
	C1210.125854,642.207520 1210.665405,640.057800 1217.632080,639.401672 
	C1217.632080,626.346008 1217.632080,613.286377 1217.632080,600.170166 
	C1213.717896,600.013550 1209.982910,598.879211 1207.843750,603.411377 
	C1207.474487,604.193604 1204.971680,604.566284 1203.694092,604.226685 
	C1194.358887,601.745728 1185.131592,599.195557 1175.241089,600.921997 
	C1168.772583,602.051086 1163.056152,604.317444 1157.946777,608.480591 
	C1150.781982,614.318542 1147.591675,622.201843 1147.168579,630.931519 
	C1146.688843,640.830322 1148.318604,650.442078 1157.806274,656.355957 
	C1164.751709,660.685120 1171.860474,664.751709 1178.871704,668.976196 
	C1187.905762,674.419373 1198.227661,678.215698 1203.932861,689.019653 
M785.015991,622.478455 
	C787.477661,619.554077 789.840637,617.380066 793.286743,621.583557 
	C794.566956,623.145142 796.780518,623.956421 798.599487,625.058533 
	C804.273010,628.496216 813.552917,627.369507 816.627136,622.697205 
	C820.448608,616.889160 819.836548,609.311340 814.055237,604.195923 
	C808.416809,599.207031 795.690002,599.075562 789.765076,603.862244 
	C785.096375,607.634033 780.833496,611.908081 775.903198,616.403259 
	C775.903198,610.874023 775.903198,605.536255 775.903198,600.160217 
	C772.398315,600.160217 769.269165,599.354980 766.812744,600.299438 
	C756.129028,604.407166 745.609924,608.953491 735.131653,613.568909 
	C734.111206,614.018433 732.934143,616.475281 733.323364,617.228882 
	C733.967285,618.475647 735.757507,619.252441 737.211121,619.897339 
	C737.771057,620.145691 738.719910,619.445007 739.510620,619.256714 
	C746.515991,617.588562 750.912598,620.750977 750.950806,628.010559 
	C751.075134,651.658813 751.045471,675.308350 750.958313,698.956970 
	C750.939880,703.960144 748.687012,707.813843 743.544617,709.113220 
	C740.579773,709.862305 737.472473,710.048035 734.372253,710.495544 
	C734.372253,712.280212 734.372253,713.983582 734.372253,715.747070 
	C754.655701,715.747070 774.577759,715.747070 794.669128,715.747070 
	C794.669128,713.778748 794.669128,712.066956 794.669128,710.349426 
	C793.886292,710.200806 793.412537,710.048340 792.933472,710.029114 
	C780.715027,709.538269 776.002441,704.702515 776.000488,692.626709 
	C775.997803,676.305603 776.351379,659.973816 775.853638,643.667847 
	C775.593384,635.141296 778.851501,628.723389 785.015991,622.478455 
M844.001770,634.350342 
	C844.334534,640.949280 844.990234,647.550903 844.934753,654.146606 
	C844.807861,669.241760 844.351685,684.334412 843.990967,699.427185 
	C843.853333,705.186951 839.042725,709.861572 833.252014,710.005554 
	C831.633667,710.045776 830.017029,710.155823 828.384399,710.234558 
	C828.384399,712.288635 828.384399,713.992493 828.384399,715.737610 
	C847.346436,715.737610 865.935486,715.737610 884.653076,715.737610 
	C884.653076,713.754089 884.653076,712.046143 884.653076,709.992981 
	C882.345886,709.992981 880.363159,710.103821 878.396973,709.970520 
	C873.953430,709.669250 869.247864,705.031738 869.033020,700.586731 
	C868.609192,691.819458 868.098877,683.046326 868.046143,674.273071 
	C867.908936,651.458557 867.999878,628.642700 867.999878,605.827332 
	C867.999878,604.040894 867.999939,602.254395 867.999939,599.771912 
	C864.862305,600.117920 862.114807,599.892212 859.782410,600.769653 
	C849.689514,604.566833 839.705872,608.656860 829.712219,612.713623 
	C827.676147,613.540161 824.504944,614.441345 826.526123,617.333130 
	C827.568237,618.824036 830.768188,619.859253 832.689758,619.495972 
	C840.031860,618.107727 843.784241,620.807556 843.992371,628.419861 
	C844.037842,630.083984 843.999939,631.750427 844.001770,634.350342 
M145.372757,742.836670 
	C151.363281,760.536133 172.466400,759.719360 181.156174,752.260010 
	C187.936691,746.439453 190.374084,736.202209 186.791138,727.829224 
	C183.131882,719.278076 175.720703,715.571533 166.866119,715.070740 
	C151.735580,714.215027 142.412018,725.964050 145.372757,742.836670 
M64.586143,476.932617 
	C53.354794,483.198181 53.142197,500.576050 60.968384,508.778931 
	C66.968307,515.067627 73.904572,515.513428 81.354012,514.912415 
	C88.958397,514.299011 95.666260,509.454468 98.524643,499.965637 
	C100.987686,491.789124 98.134422,482.321442 91.833145,477.977264 
	C83.268890,472.072876 74.331848,471.630981 64.586143,476.932617 
M383.243866,634.699890 
	C384.512024,634.982178 385.769836,635.328003 387.049988,635.536926 
	C398.464264,637.399414 409.383331,633.706177 412.765472,622.428284 
	C415.215729,614.257812 412.637543,602.746033 407.554321,599.259399 
	C398.499969,593.048889 389.294373,591.526001 378.721130,598.068848 
	C374.323700,600.789978 368.970825,611.673706 370.109985,616.567261 
	C371.855988,624.067566 374.773010,630.936279 383.243866,634.699890 
M862.749023,543.045959 
	C859.750671,543.030884 856.693665,542.647766 853.772156,543.114014 
	C851.325195,543.504578 848.603943,544.374939 846.762573,545.930542 
	C842.034363,549.924927 839.635742,554.710144 844.390625,562.919800 
	C848.927002,570.752075 862.954529,571.465820 868.001404,563.979858 
	C873.034241,556.514893 871.529358,549.450806 862.749023,543.045959 
z"/>
<path fill="#DA8838" opacity="1.000000" stroke="none" 
	d="
M114.716766,502.680542 
	C127.571266,498.298981 140.580856,497.223938 153.530762,498.145203 
	C181.818954,500.157562 208.647720,507.812927 233.679672,521.329529 
	C236.982834,523.113098 241.242859,525.210510 239.737061,529.720154 
	C238.395782,533.737061 233.878922,533.443909 230.357910,532.922668 
	C221.494507,531.610474 212.716476,529.709839 203.845398,528.463806 
	C187.945389,526.230408 172.085815,525.781433 157.003464,532.577332 
	C151.126007,535.225586 147.042404,539.870483 145.035782,546.145813 
	C144.693161,547.217224 144.284088,548.267212 143.923370,549.333069 
	C139.866913,561.318542 130.991150,567.355164 118.923187,568.881348 
	C107.034622,570.384827 100.115242,577.865417 96.618446,588.195435 
	C93.475929,597.478943 91.438683,607.283203 90.195007,617.021362 
	C88.963226,626.666321 89.389511,636.518250 88.967125,646.274170 
	C88.832573,649.381775 88.580772,652.539673 87.838623,655.540039 
	C87.514145,656.851807 85.848892,658.733215 84.746956,658.764771 
	C82.415771,658.831482 78.606888,658.543823 77.956413,657.182190 
	C75.137642,651.281677 72.642799,645.083069 71.138023,638.730530 
	C68.665833,628.293762 66.141273,617.723328 65.326843,607.080078 
	C64.471733,595.905090 64.648743,584.450500 66.133888,573.353516 
	C67.608223,562.337219 70.174980,551.184753 74.215935,540.856140 
	C81.508095,522.217590 95.309807,509.542999 114.716766,502.680542 
z"/>
<path fill="#51A894" opacity="1.000000" stroke="none" 
	d="
M316.110870,672.989746 
	C320.808746,661.837769 318.627869,652.116455 311.067749,643.687622 
	C301.835327,633.394287 302.409363,622.633179 307.498230,610.685059 
	C311.389954,601.547546 308.877533,592.684937 303.212402,584.735168 
	C293.898560,571.665039 281.506348,562.047791 268.103210,553.593018 
	C262.163086,549.845886 255.917465,546.535461 250.269669,542.399719 
	C248.443375,541.062317 248.080078,537.727051 247.047546,535.305664 
	C248.967728,534.537109 250.914017,533.048340 252.803848,533.116882 
	C265.045837,533.560669 276.472809,537.422119 287.745880,541.917236 
	C302.811371,547.924622 317.052368,555.442932 330.107147,565.059753 
	C349.312988,579.207764 363.718719,596.895996 367.769836,621.053101 
	C369.845367,633.429626 367.025604,645.623535 362.311859,657.210876 
	C357.206635,669.760498 349.438110,680.583252 340.727264,690.926270 
	C328.352295,705.619934 314.265808,718.317688 298.359680,728.946594 
	C293.223267,732.378784 288.443024,737.093079 281.122894,736.122314 
	C276.991425,735.574463 276.300751,733.336121 277.404449,730.420776 
	C278.478821,727.582947 280.107269,724.619751 282.307556,722.599304 
	C293.980927,711.880066 302.201935,698.559387 310.687866,685.462524 
	C313.051514,681.814514 314.281097,677.431763 316.110870,672.989746 
z"/>
<path fill="#3071B2" opacity="1.000000" stroke="none" 
	d="
M575.877808,624.030273 
	C583.565491,628.738770 591.163757,633.006226 598.144836,638.116699 
	C622.452087,655.911011 623.489990,689.984863 598.750427,709.054504 
	C584.454163,720.074341 568.070557,721.899231 550.992188,718.959290 
	C542.506165,717.498474 534.231201,714.750610 525.909790,712.410645 
	C516.644043,709.805054 515.748291,710.250000 513.450256,719.797852 
	C510.886902,719.797852 508.274628,719.797852 505.331787,719.797852 
	C505.331787,700.595337 505.331787,681.550903 505.331787,662.253052 
	C508.126190,662.253052 510.721466,662.253052 512.869446,662.253052 
	C515.383362,669.853149 517.280090,677.485352 520.389587,684.586426 
	C526.550781,698.656433 538.792053,704.842834 553.016968,707.985596 
	C561.144592,709.781189 568.931396,708.714050 576.272583,704.906372 
	C595.559570,694.903076 595.851685,673.146301 579.116150,661.295227 
	C565.706726,651.799500 550.872314,644.317627 536.681519,635.923279 
	C522.640503,627.617615 509.671753,618.433289 504.769562,601.506897 
	C500.888977,588.107666 506.126831,570.645508 515.999634,561.274963 
	C534.602234,543.618591 555.666687,544.231750 577.975708,551.491638 
	C580.150696,552.199463 582.327393,552.928223 584.437256,553.805969 
	C592.855957,557.308350 595.267517,556.141479 597.644043,547.233948 
	C600.230103,547.233948 602.834778,547.233948 605.718750,547.233948 
	C605.718750,566.718201 605.718750,585.971497 605.718750,605.222046 
	C598.500061,607.101074 598.319946,606.804565 596.893982,600.340393 
	C593.865967,586.614197 589.213745,573.691101 576.315857,565.878784 
	C565.486084,559.319153 554.089111,555.904419 541.780518,561.699463 
	C525.072937,569.565674 520.345825,589.426819 539.004822,601.879761 
	C550.823120,609.767273 563.315430,616.645142 575.877808,624.030273 
z"/>
<path fill="#3071B2" opacity="1.000000" stroke="none" 
	d="
M1030.945557,607.009521 
	C1038.360107,603.887695 1045.157349,599.917419 1053.730957,601.262329 
	C1053.730957,607.106750 1053.730957,612.874268 1053.730957,619.765991 
	C1056.507690,616.587158 1058.526001,614.202393 1060.623291,611.889282 
	C1067.623779,604.168274 1076.540527,600.028992 1086.771606,600.154602 
	C1098.990723,600.304626 1109.702148,604.197327 1117.498657,614.733643 
	C1125.034302,624.917542 1129.185669,635.802063 1130.232422,648.554504 
	C1131.506958,664.084229 1129.306885,678.640259 1122.192261,692.351929 
	C1111.894897,712.197876 1092.825806,723.387024 1069.571655,718.982117 
	C1064.525146,718.026123 1059.625000,716.297791 1053.999878,714.743591 
	C1053.999878,717.263855 1053.999878,720.308044 1053.999878,723.352234 
	C1053.999878,732.016174 1054.388062,740.702026 1053.899170,749.338257 
	C1053.323242,759.509521 1059.447754,762.410217 1067.371338,762.981323 
	C1069.008911,763.099304 1070.662354,762.998474 1072.646729,762.998474 
	C1072.646729,765.055237 1072.646729,766.762878 1072.646729,768.737793 
	C1051.940918,768.737793 1031.345093,768.737793 1010.381714,768.737793 
	C1010.381714,766.979431 1010.381714,765.272339 1010.381714,762.840515 
	C1013.355469,762.840515 1016.389893,763.307556 1019.223572,762.751526 
	C1027.173462,761.191528 1029.955322,756.693481 1029.982666,745.792480 
	C1030.038940,723.299805 1029.999756,700.806824 1030.000000,678.313965 
	C1030.000122,664.151794 1030.071045,649.988953 1029.952515,635.827820 
	C1029.921021,632.057678 1029.477783,628.266785 1028.913330,624.532410 
	C1028.384766,621.036194 1023.412231,618.389771 1019.545105,619.180908 
	C1017.794006,619.539246 1015.850098,620.224670 1014.275635,619.774780 
	C1013.018433,619.415405 1012.008118,617.653564 1011.315613,616.296143 
	C1011.171265,616.013184 1012.770691,614.466309 1013.792419,614.025024 
	C1019.344604,611.627014 1024.967529,609.392822 1030.945557,607.009521 
M1063.976929,625.483093 
	C1058.192505,629.849182 1053.422974,634.291016 1053.816528,642.833435 
	C1054.482788,657.295776 1054.168579,671.813904 1053.929565,686.302979 
	C1053.808350,693.646545 1056.688965,699.470581 1061.808838,704.233093 
	C1071.802124,713.528870 1085.750122,712.974060 1094.833252,701.751404 
	C1100.496460,694.754272 1103.185425,686.810059 1104.191528,677.925232 
	C1105.965942,662.255005 1105.206787,647.155334 1097.041870,633.100098 
	C1089.063721,619.366150 1075.637085,615.946594 1063.976929,625.483093 
z"/>
<path fill="#3071B2" opacity="1.000000" stroke="none" 
	d="
M905.998901,732.994385 
	C905.998901,702.166809 906.047180,671.838074 905.952942,641.509644 
	C905.936584,636.242676 905.464905,630.962646 904.933838,625.715942 
	C904.452576,620.961914 900.583801,618.613708 895.850769,619.588501 
	C893.609375,620.050171 891.252625,619.951721 888.762085,620.119568 
	C887.053955,616.892029 886.253235,614.962891 890.952698,613.333374 
	C900.687073,609.958130 910.039001,605.494141 919.705017,601.899353 
	C922.642090,600.807068 926.093018,601.096497 929.899048,600.690063 
	C929.899048,607.099731 929.899048,612.829407 929.899048,619.162598 
	C934.125427,615.091675 937.656311,611.453857 941.433777,608.093201 
	C957.655212,593.661377 986.246521,599.816162 997.152649,619.115234 
	C1002.807190,629.121277 1005.680054,639.455566 1006.132690,650.887512 
	C1006.624268,663.300842 1006.074585,675.488037 1001.001587,686.931641 
	C993.511963,703.826721 982.239136,716.243103 962.603333,719.160217 
	C951.262573,720.844971 940.769714,719.476562 930.104126,713.637573 
	C930.104126,726.897034 929.523132,739.503662 930.312256,752.023865 
	C930.821899,760.108093 934.904724,762.702942 943.311523,762.990356 
	C944.957947,763.046692 946.607910,762.998474 948.620728,762.998474 
	C948.620728,765.007568 948.620728,766.713806 948.620728,768.683960 
	C947.809448,768.788147 947.013306,768.979004 946.217102,768.979736 
	C926.737427,768.996338 907.257690,768.992676 887.395996,768.992676 
	C887.395996,767.009460 887.395996,765.305359 887.395996,763.528015 
	C891.098267,763.008057 894.829346,762.612427 898.507812,761.932312 
	C902.372131,761.217712 904.563293,758.403564 904.896667,754.801147 
	C905.551392,747.725098 905.662781,740.598816 905.998901,732.994385 
M931.808289,695.376526 
	C935.747681,707.682922 952.122681,714.809387 964.123962,707.918457 
	C973.669983,702.437439 977.843384,692.899780 979.760742,682.987305 
	C982.695923,667.812378 982.090820,652.515442 975.913208,637.933533 
	C972.361694,629.550415 963.504211,618.534363 951.362976,619.941833 
	C943.017212,620.909363 938.477112,627.186340 933.033020,632.203186 
	C931.597229,633.526306 930.121216,635.762024 930.141602,637.561951 
	C930.357544,656.623413 930.872375,675.681519 931.808289,695.376526 
z"/>
<path fill="#3071B2" opacity="1.000000" stroke="none" 
	d="
M240.290329,780.296875 
	C227.388336,789.500427 214.119385,797.464050 199.331924,802.096863 
	C189.260010,805.252258 178.729767,808.159424 168.285660,808.650452 
	C148.669983,809.572449 131.040329,803.848755 116.544083,789.362793 
	C99.780815,772.611450 91.631516,751.840271 85.935303,729.568420 
	C81.640709,712.776794 78.276260,695.910828 78.974998,678.453796 
	C79.114937,674.957458 79.106285,670.747192 83.159912,670.239868 
	C87.885956,669.648438 90.695168,672.175781 92.139183,677.293213 
	C98.219017,698.839355 107.191818,718.943176 121.737221,736.390930 
	C134.606369,751.827942 150.708542,761.676086 170.002274,766.467468 
	C184.485489,770.064209 198.874207,769.299683 213.322922,765.421875 
	C230.916245,760.700134 246.803925,752.341064 262.668457,743.798706 
	C264.216309,742.965210 266.044128,742.043762 267.683807,742.141174 
	C269.781647,742.265930 273.403778,743.118042 273.572937,744.125916 
	C273.995758,746.645691 273.779144,750.430603 272.165100,751.945923 
	C261.889374,761.592224 251.165939,770.761536 240.290329,780.296875 
z"/>
<path fill="#3071B2" opacity="1.000000" stroke="none" 
	d="
M688.534058,612.239624 
	C679.907288,608.192200 672.727966,610.167664 666.313293,616.188660 
	C654.641724,627.144165 652.239746,640.926575 653.865723,656.090149 
	C655.170776,668.260010 659.310120,679.090820 666.861755,688.840149 
	C673.160217,696.971558 686.490906,700.755188 696.472717,697.256226 
	C707.123108,693.522888 713.268250,685.666809 717.940979,676.138550 
	C720.967712,669.966858 720.889954,669.928711 728.171204,672.843872 
	C725.195679,683.437378 722.153625,693.885071 714.863403,702.729370 
	C700.318604,720.374634 676.348083,725.521545 656.481445,713.950745 
	C641.392761,705.162720 633.381592,691.157166 630.946533,673.835083 
	C629.271851,661.921631 629.211121,650.123535 633.023682,638.650635 
	C638.895508,620.981201 650.150269,608.360596 668.405334,602.859253 
	C682.619263,598.575806 696.746094,598.771912 709.659485,606.502991 
	C718.155029,611.589172 725.143982,618.508545 724.037964,630.006714 
	C723.564514,634.928467 720.113525,639.030701 715.268311,638.900757 
	C710.467102,638.771973 705.610840,640.102478 700.919250,636.697632 
	C696.039062,633.155823 695.719360,628.094238 695.197083,623.335449 
	C694.660522,618.446411 692.911804,614.951843 688.534058,612.239624 
z"/>
<path fill="#3071B2" opacity="1.000000" stroke="none" 
	d="
M1203.808350,688.642090 
	C1198.227661,678.215698 1187.905762,674.419373 1178.871704,668.976196 
	C1171.860474,664.751709 1164.751709,660.685120 1157.806274,656.355957 
	C1148.318604,650.442078 1146.688843,640.830322 1147.168579,630.931519 
	C1147.591675,622.201843 1150.781982,614.318542 1157.946777,608.480591 
	C1163.056152,604.317444 1168.772583,602.051086 1175.241089,600.921997 
	C1185.131592,599.195557 1194.358887,601.745728 1203.694092,604.226685 
	C1204.971680,604.566284 1207.474487,604.193604 1207.843750,603.411377 
	C1209.982910,598.879211 1213.717896,600.013550 1217.632080,600.170166 
	C1217.632080,613.286377 1217.632080,626.346008 1217.632080,639.401672 
	C1210.665405,640.057800 1210.125854,642.207520 1208.050659,633.811768 
	C1206.234375,626.463684 1202.851807,620.056519 1197.317017,614.787842 
	C1190.615723,608.408630 1172.867920,606.971130 1166.985474,618.262268 
	C1164.396973,623.230774 1165.709717,629.740234 1170.734131,635.000549 
	C1173.831177,638.243042 1177.914917,640.720459 1181.907715,642.895020 
	C1191.546875,648.144653 1201.650879,652.578491 1211.086060,658.155457 
	C1221.399414,664.251404 1227.094604,674.061768 1226.780029,685.925720 
	C1226.371826,701.320557 1218.059204,710.962280 1203.576782,716.992737 
	C1190.452148,722.457703 1177.396362,719.409546 1164.375122,716.616577 
	C1161.229126,715.941833 1158.551270,714.572632 1155.496704,717.534668 
	C1154.250610,718.742981 1151.051514,717.937256 1148.364746,718.065857 
	C1148.364746,704.379639 1148.364746,690.985657 1148.364746,677.295105 
	C1150.700806,677.295105 1152.960327,677.295105 1154.706543,677.295105 
	C1157.867798,684.019287 1160.329590,690.976929 1164.189209,697.045532 
	C1169.459351,705.332214 1177.816650,709.741821 1187.502441,710.884766 
	C1197.478394,712.061951 1206.696411,700.717529 1204.083496,691.009888 
	C1203.913574,690.378723 1203.977661,689.684509 1203.808350,688.642090 
z"/>
<path fill="#3071B2" opacity="1.000000" stroke="none" 
	d="
M784.761414,622.736267 
	C778.851501,628.723389 775.593384,635.141296 775.853638,643.667847 
	C776.351379,659.973816 775.997803,676.305603 776.000488,692.626709 
	C776.002441,704.702515 780.715027,709.538269 792.933472,710.029114 
	C793.412537,710.048340 793.886292,710.200806 794.669128,710.349426 
	C794.669128,712.066956 794.669128,713.778748 794.669128,715.747070 
	C774.577759,715.747070 754.655701,715.747070 734.372253,715.747070 
	C734.372253,713.983582 734.372253,712.280212 734.372253,710.495544 
	C737.472473,710.048035 740.579773,709.862305 743.544617,709.113220 
	C748.687012,707.813843 750.939880,703.960144 750.958313,698.956970 
	C751.045471,675.308350 751.075134,651.658813 750.950806,628.010559 
	C750.912598,620.750977 746.515991,617.588562 739.510620,619.256714 
	C738.719910,619.445007 737.771057,620.145691 737.211121,619.897339 
	C735.757507,619.252441 733.967285,618.475647 733.323364,617.228882 
	C732.934143,616.475281 734.111206,614.018433 735.131653,613.568909 
	C745.609924,608.953491 756.129028,604.407166 766.812744,600.299438 
	C769.269165,599.354980 772.398315,600.160217 775.903198,600.160217 
	C775.903198,605.536255 775.903198,610.874023 775.903198,616.403259 
	C780.833496,611.908081 785.096375,607.634033 789.765076,603.862244 
	C795.690002,599.075562 808.416809,599.207031 814.055237,604.195923 
	C819.836548,609.311340 820.448608,616.889160 816.627136,622.697205 
	C813.552917,627.369507 804.273010,628.496216 798.599487,625.058533 
	C796.780518,623.956421 794.566956,623.145142 793.286743,621.583557 
	C789.840637,617.380066 787.477661,619.554077 784.761414,622.736267 
z"/>
<path fill="#3071B2" opacity="1.000000" stroke="none" 
	d="
M844.001099,633.883057 
	C843.999939,631.750427 844.037842,630.083984 843.992371,628.419861 
	C843.784241,620.807556 840.031860,618.107727 832.689758,619.495972 
	C830.768188,619.859253 827.568237,618.824036 826.526123,617.333130 
	C824.504944,614.441345 827.676147,613.540161 829.712219,612.713623 
	C839.705872,608.656860 849.689514,604.566833 859.782410,600.769653 
	C862.114807,599.892212 864.862305,600.117920 867.999939,599.771912 
	C867.999939,602.254395 867.999878,604.040894 867.999878,605.827332 
	C867.999878,628.642700 867.908936,651.458557 868.046143,674.273071 
	C868.098877,683.046326 868.609192,691.819458 869.033020,700.586731 
	C869.247864,705.031738 873.953430,709.669250 878.396973,709.970520 
	C880.363159,710.103821 882.345886,709.992981 884.653076,709.992981 
	C884.653076,712.046143 884.653076,713.754089 884.653076,715.737610 
	C865.935486,715.737610 847.346436,715.737610 828.384399,715.737610 
	C828.384399,713.992493 828.384399,712.288635 828.384399,710.234558 
	C830.017029,710.155823 831.633667,710.045776 833.252014,710.005554 
	C839.042725,709.861572 843.853333,705.186951 843.990967,699.427185 
	C844.351685,684.334412 844.807861,669.241760 844.934753,654.146606 
	C844.990234,647.550903 844.334534,640.949280 844.001099,633.883057 
z"/>
<path fill="#3071B2" opacity="1.000000" stroke="none" 
	d="
M145.225433,742.453979 
	C142.412018,725.964050 151.735580,714.215027 166.866119,715.070740 
	C175.720703,715.571533 183.131882,719.278076 186.791138,727.829224 
	C190.374084,736.202209 187.936691,746.439453 181.156174,752.260010 
	C172.466400,759.719360 151.363281,760.536133 145.225433,742.453979 
z"/>
<path fill="#DA8838" opacity="1.000000" stroke="none" 
	d="
M64.847305,476.658081 
	C74.331848,471.630981 83.268890,472.072876 91.833145,477.977264 
	C98.134422,482.321442 100.987686,491.789124 98.524643,499.965637 
	C95.666260,509.454468 88.958397,514.299011 81.354012,514.912415 
	C73.904572,515.513428 66.968307,515.067627 60.968384,508.778931 
	C53.142197,500.576050 53.354794,483.198181 64.847305,476.658081 
z"/>
<path fill="#51A894" opacity="1.000000" stroke="none" 
	d="
M382.938110,634.441528 
	C374.773010,630.936279 371.855988,624.067566 370.109985,616.567261 
	C368.970825,611.673706 374.323700,600.789978 378.721130,598.068848 
	C389.294373,591.526001 398.499969,593.048889 407.554321,599.259399 
	C412.637543,602.746033 415.215729,614.257812 412.765472,622.428284 
	C409.383331,633.706177 398.464264,637.399414 387.049988,635.536926 
	C385.769836,635.328003 384.512024,634.982178 382.938110,634.441528 
z"/>
<path fill="#3071B2" opacity="1.000000" stroke="none" 
	d="
M863.163208,543.129211 
	C871.529358,549.450806 873.034241,556.514893 868.001404,563.979858 
	C862.954529,571.465820 848.927002,570.752075 844.390625,562.919800 
	C839.635742,554.710144 842.034363,549.924927 846.762573,545.930542 
	C848.603943,544.374939 851.325195,543.504578 853.772156,543.114014 
	C856.693665,542.647766 859.750671,543.030884 863.163208,543.129211 
z"/>
<path fill="#000000" opacity="1.000000" stroke="none" 
	d="
M1064.246948,625.230652 
	C1075.637085,615.946594 1089.063721,619.366150 1097.041870,633.100098 
	C1105.206787,647.155334 1105.965942,662.255005 1104.191528,677.925232 
	C1103.185425,686.810059 1100.496460,694.754272 1094.833252,701.751404 
	C1085.750122,712.974060 1071.802124,713.528870 1061.808838,704.233093 
	C1056.688965,699.470581 1053.808350,693.646545 1053.929565,686.302979 
	C1054.168579,671.813904 1054.482788,657.295776 1053.816528,642.833435 
	C1053.422974,634.291016 1058.192505,629.849182 1064.246948,625.230652 
z"/>
<path fill="#000000" opacity="1.000000" stroke="none" 
	d="
M931.556580,695.058533 
	C930.872375,675.681519 930.357544,656.623413 930.141602,637.561951 
	C930.121216,635.762024 931.597229,633.526306 933.033020,632.203186 
	C938.477112,627.186340 943.017212,620.909363 951.362976,619.941833 
	C963.504211,618.534363 972.361694,629.550415 975.913208,637.933533 
	C982.090820,652.515442 982.695923,667.812378 979.760742,682.987305 
	C977.843384,692.899780 973.669983,702.437439 964.123962,707.918457 
	C952.122681,714.809387 935.747681,707.682922 931.556580,695.058533 
z"/>
</svg>