<svg width="146" height="160" viewBox="0 0 146 160" fill="none" xmlns="http://www.w3.org/2000/svg">
<path opacity="0.2" d="M86.1287 160C113.671 160 135.998 155.421 135.998 149.773C135.998 144.125 113.671 139.546 86.1287 139.546C58.5869 139.546 36.2598 144.125 36.2598 149.773C36.2598 155.421 58.5869 160 86.1287 160Z" fill="#3D3D60"/>
<path d="M67.6902 145.35L81.6956 122.531C83.63 119.379 82.6432 115.256 79.4914 113.322L79.483 113.316C76.3312 111.382 72.2079 112.369 70.2734 115.521L56.2681 138.34C54.3336 141.491 55.3205 145.615 58.4723 147.549L58.4807 147.554C61.6325 149.489 65.7557 148.502 67.6902 145.35Z" fill="#171759"/>
<path d="M73.7876 141.285L65.4676 136.179C62.3158 134.244 58.1926 135.231 56.2581 138.383L56.2529 138.392C54.3185 141.543 55.3053 145.667 58.4571 147.601L66.7772 152.708C69.929 154.642 74.0522 153.655 75.9867 150.503L75.9918 150.495C77.9263 147.343 76.9394 143.22 73.7876 141.285Z" fill="#171759"/>
<path d="M113.576 140.644L102.541 116.249C101.017 112.88 97.0498 111.384 93.6804 112.908L93.6714 112.912C90.302 114.436 88.8061 118.403 90.3303 121.773L101.365 146.167C102.889 149.537 106.857 151.033 110.226 149.508L110.235 149.504C113.604 147.98 115.1 144.013 113.576 140.644Z" fill="#171759"/>
<path d="M113.625 133.326L104.731 137.349C101.361 138.873 99.8655 142.84 101.39 146.21L101.394 146.219C102.918 149.588 106.885 151.084 110.254 149.56L119.149 145.536C122.518 144.012 124.014 140.045 122.49 136.676L122.486 136.667C120.962 133.297 116.995 131.801 113.625 133.326Z" fill="#171759"/>
<path d="M145.156 67.5415C144.316 90.8539 129.727 110.804 108.927 121.723C90.4015 131.445 66.2088 134.076 48.722 120.694C46.4669 118.973 44.3997 117.035 42.5106 114.918C40.2951 112.426 38.3268 109.706 36.6355 106.837C32.5902 99.9534 29.534 92.5255 25.5085 85.6217C22.5215 80.5082 19.0103 75.6915 16.4288 70.3702C6.48861 49.8965 19.3169 27.8896 35.3201 14.8833C53.9047 -0.219809 79.2942 -4.11675 101.716 4.51785C108.294 7.04987 114.475 10.6699 119.994 15.1306C133.416 25.9312 142.951 41.6773 144.84 58.8673C145.156 61.8049 145.265 64.693 145.156 67.5415Z" fill="#62657A"/>
<path d="M88.2156 94.6714C107.012 94.6714 122.25 79.4339 122.25 60.6375C122.25 41.841 107.012 26.6035 88.2156 26.6035C69.4192 26.6035 54.1816 41.841 54.1816 60.6375C54.1816 79.4339 69.4192 94.6714 88.2156 94.6714Z" stroke="#D3D3DD" stroke-width="4.94536" stroke-miterlimit="10"/>
<path d="M88.2154 86.6206C102.565 86.6206 114.198 74.9877 114.198 60.6377C114.198 46.2877 102.565 34.6548 88.2154 34.6548C73.8654 34.6548 62.2324 46.2877 62.2324 60.6377C62.2324 74.9877 73.8654 86.6206 88.2154 86.6206Z" fill="#D3D3DD"/>
<path opacity="0.2" d="M145.157 67.5418C144.316 90.8542 129.727 110.804 108.927 121.723C90.4016 131.446 66.2089 134.077 48.7221 120.695C46.467 118.974 44.3999 117.035 42.5107 114.918C51.2146 119.725 61.135 122.445 71.6587 122.445C106.247 122.445 134.277 93.0697 134.277 56.8301C134.277 40.9951 128.926 26.4656 119.995 15.1309C133.416 25.9315 142.951 41.6775 144.84 58.8676C145.157 61.8052 145.265 64.6933 145.157 67.5418Z" fill="#3D3D60"/>
<path d="M138.292 67.4824C137.342 95.9578 115.395 119.112 87.4336 121.951" stroke="#4E4E68" stroke-width="4.94536" stroke-miterlimit="10" stroke-linecap="round"/>
<path d="M129.697 71.2017C127.412 90.8347 113.377 106.877 94.8125 112.12" stroke="#4E4E68" stroke-width="4.94536" stroke-miterlimit="10" stroke-linecap="round"/>
<path d="M24.3906 54.6341C29.2272 26.5544 54.132 6.61468 82.2118 7.62353" stroke="#4E4E68" stroke-width="4.94536" stroke-miterlimit="10" stroke-linecap="round"/>
<path d="M33.4209 52.1222C38.3663 32.9837 54.4585 19.0081 73.5673 16.3574" stroke="#4E4E68" stroke-width="4.94536" stroke-miterlimit="10" stroke-linecap="round"/>
<path d="M78.1182 61.7955V59.2634C78.1182 56.8217 76.1387 54.8423 73.697 54.8423C71.2553 54.8423 69.2759 56.8217 69.2759 59.2634V61.7955C69.2759 64.2372 71.2553 66.2166 73.697 66.2166C76.1387 66.2166 78.1182 64.2372 78.1182 61.7955Z" fill="white" stroke="#171759" stroke-width="3.95629" stroke-miterlimit="10"/>
<path d="M110.847 61.7955V59.2634C110.847 56.8217 108.867 54.8423 106.426 54.8423C103.984 54.8423 102.004 56.8217 102.004 59.2634V61.7955C102.004 64.2372 103.984 66.2166 106.426 66.2166C108.867 66.2166 110.847 64.2372 110.847 61.7955Z" fill="white" stroke="#171759" stroke-width="3.95629" stroke-miterlimit="10"/>
<path d="M98.7501 76.5615C98.7501 68.3523 95.3081 61.6958 91.065 61.6958C86.8218 61.6958 83.3799 68.3621 83.3799 76.5615H98.7599H98.7501Z" fill="white" stroke="#171759" stroke-width="3.95629" stroke-linecap="round" stroke-linejoin="round"/>
<path d="M48.1088 46.9485L44.5778 56.948C43.3415 60.4592 45.9427 64.1385 49.6616 64.1385C53.3806 64.1385 55.9818 60.4592 54.7455 56.948L51.2145 46.9485C50.7002 45.4846 48.633 45.4846 48.1088 46.9485Z" fill="#0098FF"/>
<path d="M49.7212 62.2593C51.7041 62.2593 53.3115 60.6518 53.3115 58.6689C53.3115 56.6861 51.7041 55.0786 49.7212 55.0786C47.7383 55.0786 46.1309 56.6861 46.1309 58.6689C46.1309 60.6518 47.7383 62.2593 49.7212 62.2593Z" fill="#0B7AFF"/>
<path d="M47.7029 57.7789C48.6315 57.7789 49.3843 57.0261 49.3843 56.0974C49.3843 55.1688 48.6315 54.416 47.7029 54.416C46.7743 54.416 46.0215 55.1688 46.0215 56.0974C46.0215 57.0261 46.7743 57.7789 47.7029 57.7789Z" fill="#C2F4FF"/>
<path d="M2.68074 90.785C7.67555 90.7751 12.6605 90.7652 17.6553 90.7454C18.407 90.7454 18.7531 89.8157 18.1894 89.3211L14.5892 86.166L21.1467 85.0582C22.0962 84.9 22.027 83.5054 21.0676 83.4361C16.0827 83.1098 11.0878 82.7834 6.10292 82.457C5.34133 82.4075 4.93582 83.3373 5.4897 83.8615C6.61724 84.9297 7.74477 85.988 8.88221 87.0562C6.72603 87.7683 4.57975 88.4804 2.42357 89.1926C1.5433 89.4794 1.75101 90.785 2.68074 90.785Z" fill="#FF3939"/>
<path d="M21.3347 94.0689C15.0838 96.8086 8.83284 99.5582 2.5918 102.298C1.65218 102.713 1.7214 104.068 2.70058 104.385L8.93176 106.383L1.31589 111.358C0.20813 112.08 1.05873 113.791 2.30496 113.336C8.73393 111.022 15.1629 108.697 21.6018 106.383C22.5809 106.027 22.5809 104.642 21.6018 104.286C19.6038 103.574 17.6059 102.852 15.608 102.14C17.9125 100.073 20.227 98.0054 22.5315 95.9283C23.4711 95.0777 22.5018 93.5645 21.3347 94.0788V94.0689Z" fill="#FF3939"/>
<path d="M27.7144 106.471C26.5869 111.337 25.4593 116.194 24.3318 121.06C24.1637 121.792 24.9846 122.346 25.5978 121.911L29.4948 119.131L29.0695 125.778C29.0101 126.747 30.3849 126.994 30.6619 126.065C32.1158 121.278 33.5796 116.5 35.0336 111.713C35.2611 110.981 34.4401 110.378 33.8071 110.793C32.5114 111.654 31.2158 112.505 29.9201 113.365C29.7223 111.11 29.5146 108.845 29.3167 106.59C29.2376 105.67 27.9221 105.571 27.7144 106.481V106.471Z" fill="#FF3939"/>
</svg>
