<svg width="166" height="160" viewBox="0 0 166 160" fill="none" xmlns="http://www.w3.org/2000/svg">
<path opacity="0.2" d="M78.6125 160C106.229 160 128.617 155.409 128.617 149.745C128.617 144.082 106.229 139.491 78.6125 139.491C50.996 139.491 28.6084 144.082 28.6084 149.745C28.6084 155.409 50.996 160 78.6125 160Z" fill="#3D3D60"/>
<path d="M74.4473 142.059V115.212C74.4473 111.504 71.4412 108.498 67.7331 108.498H67.7232C64.0151 108.498 61.009 111.504 61.009 115.212V142.059C61.009 145.767 64.0151 148.773 67.7232 148.773H67.7331C71.4412 148.773 74.4473 145.767 74.4473 142.059Z" fill="#171759"/>
<path d="M57.9348 148.773H67.7233C71.4315 148.773 74.4375 145.767 74.4375 142.059V142.049C74.4375 138.341 71.4315 135.335 67.7233 135.335H57.9348C54.2266 135.335 51.2206 138.341 51.2206 142.049V142.059C51.2206 145.767 54.2266 148.773 57.9348 148.773Z" fill="#171759"/>
<path d="M96.2266 142.059V115.212C96.2266 111.504 93.2205 108.498 89.5124 108.498H89.5025C85.7944 108.498 82.7883 111.504 82.7883 115.212V142.059C82.7883 145.767 85.7944 148.773 89.5025 148.773H89.5124C93.2205 148.773 96.2266 145.767 96.2266 142.059Z" fill="#171759"/>
<path d="M99.2908 135.345H89.5022C85.7941 135.345 82.7881 138.351 82.7881 142.059V142.069C82.7881 145.777 85.7941 148.783 89.5022 148.783H99.2908C102.999 148.783 106.005 145.777 106.005 142.069V142.059C106.005 138.351 102.999 135.345 99.2908 135.345Z" fill="#171759"/>
<path d="M78.6122 125.595C113.294 125.595 141.41 97.4799 141.41 62.7977C141.41 28.1155 113.294 0 78.6122 0C43.93 0 15.8145 28.1155 15.8145 62.7977C15.8145 97.4799 43.93 125.595 78.6122 125.595Z" fill="#62657A"/>
<path d="M78.6125 96.9242C97.4599 96.9242 112.739 81.6454 112.739 62.7981C112.739 43.9507 97.4599 28.6719 78.6125 28.6719C59.7651 28.6719 44.4863 43.9507 44.4863 62.7981C44.4863 81.6454 59.7651 96.9242 78.6125 96.9242Z" stroke="#D3D3DD" stroke-width="4.95876" stroke-miterlimit="10"/>
<path d="M78.6119 88.8508C93.0008 88.8508 104.665 77.1863 104.665 62.7974C104.665 48.4086 93.0008 36.7441 78.6119 36.7441C64.2231 36.7441 52.5586 48.4086 52.5586 62.7974C52.5586 77.1863 64.2231 88.8508 78.6119 88.8508Z" fill="#D3D3DD"/>
<path opacity="0.2" d="M141.41 62.7974C141.41 97.479 113.294 125.595 78.6122 125.595C60.8896 125.595 44.8926 118.256 33.4775 106.444C43.1769 112.573 54.6614 116.124 66.9789 116.124C101.66 116.124 129.767 88.0078 129.767 53.3262C129.767 36.3672 123.053 20.9753 112.114 9.6792C129.717 20.7967 141.41 40.4334 141.41 62.7974Z" fill="#3D3D60"/>
<path d="M135.439 64.6719C134.487 93.2244 112.48 116.441 84.4434 119.288" stroke="#4E4E68" stroke-width="4.95876" stroke-miterlimit="10" stroke-linecap="round"/>
<path d="M126.821 68.4014C124.53 88.0876 110.457 104.174 91.8418 109.43" stroke="#4E4E68" stroke-width="4.95876" stroke-miterlimit="10" stroke-linecap="round"/>
<path d="M21.7939 60.9234C22.746 32.3709 44.753 9.15394 72.7898 6.30762" stroke="#4E4E68" stroke-width="4.95876" stroke-miterlimit="10" stroke-linecap="round"/>
<path d="M30.4121 57.184C32.7031 37.4978 46.776 21.4116 65.3912 16.1553" stroke="#4E4E68" stroke-width="4.95876" stroke-miterlimit="10" stroke-linecap="round"/>
<path d="M66.6416 65.0487V62.5098C66.6416 60.0614 64.6568 58.0767 62.2085 58.0767C59.7601 58.0767 57.7753 60.0614 57.7753 62.5098V65.0487C57.7753 67.497 59.7601 69.4818 62.2085 69.4818C64.6568 69.4818 66.6416 67.497 66.6416 65.0487Z" fill="#171759"/>
<path d="M99.459 65.0487V62.5098C99.459 60.0614 97.4742 58.0767 95.0259 58.0767C92.5775 58.0767 90.5927 60.0614 90.5927 62.5098V65.0487C90.5927 67.497 92.5775 69.4818 95.0259 69.4818C97.4742 69.4818 99.459 67.497 99.459 65.0487Z" fill="#171759"/>
<path d="M86.3278 69.4819C86.3278 73.7365 82.8765 77.1978 78.6219 77.1978C74.3673 77.1978 70.916 73.7365 70.916 69.4819H86.3378H86.3278Z" fill="white" stroke="#171759" stroke-width="3.66948" stroke-linecap="round" stroke-linejoin="round"/>
<path d="M154.919 63.8891C160.79 63.8891 165.55 59.1292 165.55 53.2576C165.55 47.3859 160.79 42.626 154.919 42.626C149.047 42.626 144.287 47.3859 144.287 53.2576C144.287 59.1292 149.047 63.8891 154.919 63.8891Z" fill="#171759"/>
<path d="M7.67226 69.5502L1.13477 72.7969L22.5733 115.966L29.1108 112.719L7.67226 69.5502Z" fill="#FFBC00"/>
<path d="M14.2162 66.3066L7.67871 69.5532L29.1173 112.722L35.6548 109.475L14.2162 66.3066Z" fill="#FFD815"/>
<path d="M35.6462 109.488L22.5801 115.977L24.971 120.791L38.0371 114.302L35.6462 109.488Z" fill="#DBD9E2"/>
<path d="M24.9658 120.786L38.0319 114.297L40.0743 118.41C41.0536 120.382 40.2488 122.775 38.2769 123.754L32.3523 126.696C30.3804 127.675 27.9875 126.871 27.0082 124.899L24.9658 120.786Z" fill="#FF558A"/>
<path d="M14.1978 66.3184L1.12656 72.8144L0.769531 65.4655L8.5647 61.5977L14.1978 66.3184Z" fill="#FFE7C5"/>
<path d="M8.56525 61.5976L0.780003 65.4654L0.452725 58.6819C0.373385 57.1447 2.17837 56.2521 3.35856 57.2438L8.56525 61.5976Z" fill="#171759"/>
<path d="M17.4216 120.062C23.2933 120.062 28.0532 115.302 28.0532 109.43C28.0532 103.559 23.2933 98.7988 17.4216 98.7988C11.55 98.7988 6.79004 103.559 6.79004 109.43C6.79004 115.302 11.55 120.062 17.4216 120.062Z" fill="#171759"/>
<path d="M149.325 25.1013L154.224 26.2617C156.644 26.8369 156.644 30.2783 154.224 30.8535L149.325 32.0138C148.71 32.1626 148.224 32.6386 148.085 33.2535L146.925 38.1528C146.35 40.5726 142.908 40.5726 142.333 38.1528L141.173 33.2535C141.024 32.6386 140.548 32.1527 139.933 32.0138L135.034 30.8535C132.614 30.2783 132.614 26.8369 135.034 26.2617L139.933 25.1013C140.548 24.9525 141.034 24.4765 141.173 23.8616L142.333 18.9624C142.908 16.5425 146.35 16.5425 146.925 18.9624L148.085 23.8616C148.234 24.4765 148.71 24.9625 149.325 25.1013Z" fill="#FFCD40"/>
<path d="M126.971 14.391L128.548 14.7678C130.234 15.1645 130.234 17.5646 128.548 17.9613L126.971 18.3381C126.445 18.4671 126.029 18.8737 125.9 19.4092L125.523 20.9861C125.126 22.6721 122.726 22.6721 122.329 20.9861L121.952 19.4092C121.824 18.8836 121.417 18.4671 120.881 18.3381L119.305 17.9613C117.619 17.5646 117.619 15.1645 119.305 14.7678L120.881 14.391C121.407 14.262 121.824 13.8554 121.952 13.3199L122.329 11.743C122.726 10.057 125.126 10.057 125.523 11.743L125.9 13.3199C126.029 13.8455 126.435 14.262 126.971 14.391Z" fill="#FFCD40"/>
</svg>
