<svg width="312" height="320" viewBox="0 0 312 320" fill="none" xmlns="http://www.w3.org/2000/svg">
<path opacity="0.2" d="M159.611 320C215.023 320 259.944 310.788 259.944 299.424C259.944 288.061 215.023 278.849 159.611 278.849C104.2 278.849 59.2793 288.061 59.2793 299.424C59.2793 310.788 104.2 320 159.611 320Z" fill="#3D3D60"/>
<path d="M151.234 285.038V231.171C151.234 223.731 145.202 217.699 137.762 217.699H137.742C130.302 217.699 124.27 223.731 124.27 231.171V285.038C124.27 292.479 130.302 298.51 137.742 298.51H137.762C145.202 298.51 151.234 292.479 151.234 285.038Z" fill="#171759"/>
<path d="M118.121 298.511H137.762C145.202 298.511 151.234 292.479 151.234 285.039V285.019C151.234 277.579 145.202 271.547 137.762 271.547H118.121C110.681 271.547 104.65 277.579 104.65 285.019V285.039C104.65 292.479 110.681 298.511 118.121 298.511Z" fill="#171759"/>
<path d="M194.953 285.038V231.171C194.953 223.731 188.921 217.699 181.481 217.699H181.461C174.021 217.699 167.989 223.731 167.989 231.171V285.038C167.989 292.479 174.021 298.51 181.461 298.51H181.481C188.921 298.51 194.953 292.479 194.953 285.038Z" fill="#171759"/>
<path d="M201.101 271.567H181.461C174.02 271.567 167.989 277.599 167.989 285.039V285.059C167.989 292.499 174.02 298.531 181.461 298.531H201.101C208.541 298.531 214.573 292.499 214.573 285.059V285.039C214.573 277.599 208.541 271.567 201.101 271.567Z" fill="#171759"/>
<path d="M159.612 252.005C229.201 252.005 285.614 195.591 285.614 126.002C285.614 56.4132 229.201 0 159.612 0C90.0225 0 33.6094 56.4132 33.6094 126.002C33.6094 195.591 90.0225 252.005 159.612 252.005Z" fill="#62657A"/>
<path d="M159.612 200.446C197.428 200.446 228.085 169.789 228.085 131.972C228.085 94.1556 197.428 63.499 159.612 63.499C121.795 63.499 91.1382 94.1556 91.1382 131.972C91.1382 169.789 121.795 200.446 159.612 200.446Z" stroke="#D3D3DD" stroke-width="9.94964" stroke-miterlimit="10"/>
<path d="M159.612 184.247C188.483 184.247 211.887 160.843 211.887 131.972C211.887 103.101 188.483 79.6963 159.612 79.6963C130.741 79.6963 107.336 103.101 107.336 131.972C107.336 160.843 130.741 184.247 159.612 184.247Z" fill="#D3D3DD"/>
<path opacity="0.2" d="M285.614 126.001C285.614 195.589 229.199 252.004 159.611 252.004C124.051 252.004 91.9539 237.278 69.0498 213.578C88.5113 225.876 111.555 233 136.27 233C205.857 233 262.252 176.585 262.252 106.998C262.252 72.9699 248.78 42.0862 226.831 19.4209C262.152 41.728 285.614 81.1286 285.614 126.001Z" fill="#3D3D60"/>
<path d="M273.635 129.764C271.724 187.054 227.568 233.638 171.312 239.349" stroke="#4E4E68" stroke-width="9.94964" stroke-miterlimit="10" stroke-linecap="round"/>
<path d="M256.323 137.247C251.726 176.747 223.489 209.024 186.138 219.57" stroke="#4E4E68" stroke-width="9.94964" stroke-miterlimit="10" stroke-linecap="round"/>
<path d="M45.5889 122.242C47.4992 64.9515 91.6557 18.3673 147.911 12.6562" stroke="#4E4E68" stroke-width="9.94964" stroke-miterlimit="10" stroke-linecap="round"/>
<path d="M62.8813 114.761C67.4781 75.2608 95.7152 42.9841 133.066 32.4375" stroke="#4E4E68" stroke-width="9.94964" stroke-miterlimit="10" stroke-linecap="round"/>
<path d="M135.573 136.589V131.495C135.573 126.582 131.591 122.6 126.678 122.6C121.766 122.6 117.783 126.582 117.783 131.495V136.589C117.783 141.501 121.766 145.484 126.678 145.484C131.591 145.484 135.573 141.501 135.573 136.589Z" fill="#171759"/>
<path d="M201.419 136.608V131.514C201.419 126.602 197.437 122.619 192.524 122.619C187.612 122.619 183.629 126.602 183.629 131.514V136.608C183.629 141.521 187.612 145.503 192.524 145.503C197.437 145.503 201.419 141.521 201.419 136.608Z" fill="#171759"/>
<path d="M145.542 159.116C146.736 152.449 152.567 147.375 159.611 147.375C166.656 147.375 172.486 152.449 173.68 159.116" stroke="#171759" stroke-width="7.36273" stroke-linecap="round" stroke-linejoin="round"/>
<path d="M239.606 56.2362L232.502 76.3543C230.015 83.4186 235.248 90.8212 242.731 90.8212C250.213 90.8212 255.446 83.4186 252.959 76.3543L245.855 56.2362C244.82 53.2911 240.661 53.2911 239.606 56.2362Z" fill="#0098FF"/>
<path d="M242.85 87.0406C246.839 87.0406 250.073 83.8066 250.073 79.8172C250.073 75.8278 246.839 72.5938 242.85 72.5938C238.861 72.5938 235.626 75.8278 235.626 79.8172C235.626 83.8066 238.861 87.0406 242.85 87.0406Z" fill="#0B7AFF"/>
<path d="M238.771 78.0255C240.639 78.0255 242.154 76.511 242.154 74.6427C242.154 72.7744 240.639 71.2598 238.771 71.2598C236.903 71.2598 235.388 72.7744 235.388 74.6427C235.388 76.511 236.903 78.0255 238.771 78.0255Z" fill="#C2F4FF"/>
<path d="M255.864 202.832H189.062V229.219H255.864V202.832Z" fill="#ED5132"/>
<path d="M255.606 213.956H63.5976C60.752 213.956 57.1303 211.588 55.5384 208.623L51.061 200.345C49.2502 197.002 50.3247 194.196 53.4688 194.196H265.734C268.879 194.196 269.953 197.002 268.142 200.345L263.665 208.623C262.053 211.588 258.451 213.956 255.606 213.956Z" fill="#FF7950"/>
<path d="M248.363 202.832H236.961C234.51 202.832 232.523 204.814 232.523 207.26C232.523 209.705 234.51 211.687 236.961 211.687H248.363C250.814 211.687 252.8 209.705 252.8 207.26C252.8 204.814 250.814 202.832 248.363 202.832Z" fill="#777C91"/>
<path d="M247.089 237.179V211.708C247.089 209.257 245.107 207.271 242.662 207.271C240.216 207.271 238.234 209.257 238.234 211.708V237.179C238.234 239.63 240.216 241.617 242.662 241.617C245.107 241.617 247.089 239.63 247.089 237.179Z" fill="#777C91"/>
<path d="M236.841 217.857L248.482 215.15" stroke="#9D9DB2" stroke-width="3.97986" stroke-miterlimit="10" stroke-linecap="round"/>
<path d="M236.841 224.443L248.482 221.717" stroke="#9D9DB2" stroke-width="3.97986" stroke-miterlimit="10" stroke-linecap="round"/>
<path d="M236.841 231.009L248.482 228.303" stroke="#9D9DB2" stroke-width="3.97986" stroke-miterlimit="10" stroke-linecap="round"/>
<path d="M225.499 202.832H214.096C211.645 202.832 209.659 204.814 209.659 207.26C209.659 209.705 211.645 211.687 214.096 211.687H225.499C227.949 211.687 229.936 209.705 229.936 207.26C229.936 204.814 227.949 202.832 225.499 202.832Z" fill="#777C91"/>
<path d="M224.225 237.158V211.687C224.225 209.236 222.243 207.249 219.797 207.249C217.352 207.249 215.37 209.236 215.37 211.687V237.158C215.37 239.608 217.352 241.595 219.797 241.595C222.243 241.595 224.225 239.608 224.225 237.158Z" fill="#777C91"/>
<path d="M213.957 217.857L225.618 215.15" stroke="#9D9DB2" stroke-width="3.97986" stroke-miterlimit="10" stroke-linecap="round"/>
<path d="M213.957 224.443L225.618 221.717" stroke="#9D9DB2" stroke-width="3.97986" stroke-miterlimit="10" stroke-linecap="round"/>
<path d="M213.957 231.009L225.618 228.303" stroke="#9D9DB2" stroke-width="3.97986" stroke-miterlimit="10" stroke-linecap="round"/>
<path d="M255.865 229.218V240.739C255.865 248.918 249.338 255.604 241.378 255.604H203.569C195.609 255.604 189.083 248.918 189.083 240.739V229.218H255.884H255.865Z" fill="#FF7950"/>
<path d="M24.774 141.484L25.7291 153.901L41.0118 177.641L33.1317 182.715L17.849 158.975L6.94422 152.946C6.50643 152.707 6.16814 152.309 6.00895 151.851L0.138667 136.35C-0.21952 135.414 0.138644 134.38 0.954515 133.842L9.86942 128.111C10.7052 127.574 11.7996 127.693 12.4961 128.41L24.1571 140.19C24.4954 140.528 24.7342 141.006 24.774 141.503V141.484Z" fill="#B9B9C6"/>
<path d="M42.4841 188.625L71.8156 234.214L68.8706 236.105C63.2789 239.706 55.7569 238.055 52.1751 232.463L29.3506 196.983C29.6093 196.883 29.8481 196.764 30.0868 196.605L42.504 188.625H42.4841Z" fill="#25E4F2"/>
<path d="M55.5581 180.127L78.3826 215.607C81.9843 221.199 80.3526 228.721 74.7609 232.323L71.7959 234.233L42.4644 188.644L54.9014 180.644C55.1402 180.485 55.3392 180.346 55.5382 180.127H55.5581Z" fill="#00BEEA"/>
<path d="M55.3594 173.48L56.1951 174.774C57.3095 176.505 56.9911 178.753 55.5583 180.126C55.3593 180.325 55.1405 180.485 54.9216 180.644L30.0674 196.623C29.8286 196.782 29.5898 196.902 29.3311 197.001C27.5004 197.737 25.3114 197.081 24.1971 195.349L23.3613 194.056C22.0878 192.086 22.6648 189.439 24.6149 188.186L49.4692 172.207C51.4193 170.953 54.0659 171.51 55.3394 173.5L55.3594 173.48Z" fill="#25E4F2"/>
<path d="M40.1362 241.916C51.9176 241.916 61.4683 232.365 61.4683 220.584C61.4683 208.803 51.9176 199.252 40.1362 199.252C28.3549 199.252 18.8042 208.803 18.8042 220.584C18.8042 232.365 28.3549 241.916 40.1362 241.916Z" fill="#171759"/>
<path d="M290.35 113.526C302.131 113.526 311.682 103.976 311.682 92.1943C311.682 80.413 302.131 70.8623 290.35 70.8623C278.568 70.8623 269.018 80.413 269.018 92.1943C269.018 103.976 278.568 113.526 290.35 113.526Z" fill="#171759"/>
</svg>
