<svg width="280" height="272" viewBox="0 0 280 272" fill="none" xmlns="http://www.w3.org/2000/svg">
<path opacity="0.2" d="M136.579 271.673C184.544 271.673 223.428 263.699 223.428 253.862C223.428 244.025 184.544 236.051 136.579 236.051C88.614 236.051 49.7305 244.025 49.7305 253.862C49.7305 263.699 88.614 271.673 136.579 271.673Z" fill="#3D3D60"/>
<path d="M124.918 247.059V200.43C124.918 193.99 119.697 188.769 113.257 188.769H113.239C106.799 188.769 101.578 193.99 101.578 200.43V247.059C101.578 253.499 106.799 258.72 113.239 258.72H113.257C119.697 258.72 124.918 253.499 124.918 247.059Z" fill="#171759"/>
<path d="M96.2564 258.721H113.258C119.698 258.721 124.919 253.5 124.919 247.059V247.042C124.919 240.602 119.698 235.381 113.258 235.381H96.2564C89.8161 235.381 84.5951 240.602 84.5951 247.042V247.059C84.5951 253.5 89.8161 258.721 96.2564 258.721Z" fill="#171759"/>
<path d="M179.42 236.337L161.96 193.101C159.549 187.129 152.753 184.243 146.781 186.654L146.765 186.661C140.793 189.072 137.907 195.868 140.318 201.84L157.778 245.076C160.19 251.048 166.986 253.934 172.958 251.523L172.974 251.516C178.945 249.105 181.832 242.308 179.42 236.337Z" fill="#171759"/>
<path d="M157.279 257.814L173.043 251.448C179.015 249.037 181.901 242.24 179.49 236.269L179.483 236.253C177.072 230.281 170.276 227.395 164.304 229.806L148.54 236.172C142.568 238.584 139.682 245.38 142.093 251.352L142.1 251.368C144.511 257.339 151.307 260.226 157.279 257.814Z" fill="#171759"/>
<path d="M128.708 218.465C188.945 218.465 237.777 169.633 237.777 109.396C237.777 49.159 188.945 0.327148 128.708 0.327148C68.4705 0.327148 19.6387 49.159 19.6387 109.396C19.6387 169.633 68.4705 218.465 128.708 218.465Z" fill="#62657A"/>
<path d="M121.817 166.945C154.552 166.945 181.089 140.408 181.089 107.674C181.089 74.9391 154.552 48.4023 121.817 48.4023C89.0826 48.4023 62.5459 74.9391 62.5459 107.674C62.5459 140.408 89.0826 166.945 121.817 166.945Z" stroke="#D3D3DD" stroke-width="8.61252" stroke-miterlimit="10"/>
<path d="M121.818 152.923C146.809 152.923 167.068 132.664 167.068 107.673C167.068 82.6821 146.809 62.4229 121.818 62.4229C96.8266 62.4229 76.5674 82.6821 76.5674 107.673C76.5674 132.664 96.8266 152.923 121.818 152.923Z" fill="#D3D3DD"/>
<path opacity="0.2" d="M237.777 109.396C237.777 169.632 188.944 218.465 128.708 218.465C97.9264 218.465 70.1424 205.718 50.3164 185.203C67.1625 195.848 87.1091 202.015 108.503 202.015C168.739 202.015 217.554 153.182 217.554 92.9456C217.554 63.4908 205.893 36.7575 186.894 17.1382C217.468 36.4475 237.777 70.5531 237.777 109.396Z" fill="#3D3D60"/>
<path d="M227.407 112.652C225.753 162.243 187.531 202.567 138.836 207.511" stroke="#4E4E68" stroke-width="8.61252" stroke-miterlimit="10" stroke-linecap="round"/>
<path d="M212.439 119.13C208.46 153.322 184.018 181.261 151.687 190.39" stroke="#4E4E68" stroke-width="8.61252" stroke-miterlimit="10" stroke-linecap="round"/>
<path d="M30.0254 106.142C31.679 56.5506 69.9014 16.2268 118.597 11.2832" stroke="#4E4E68" stroke-width="8.61252" stroke-miterlimit="10" stroke-linecap="round"/>
<path d="M44.9941 99.6472C48.9731 65.4555 73.4155 37.5165 105.747 28.3872" stroke="#4E4E68" stroke-width="8.61252" stroke-miterlimit="10" stroke-linecap="round"/>
<path d="M86.7646 124.778C97.1054 124.778 105.488 116.395 105.488 106.054C105.488 95.7134 97.1054 87.3306 86.7646 87.3306C76.4239 87.3306 68.041 95.7134 68.041 106.054C68.041 116.395 76.4239 124.778 86.7646 124.778Z" stroke="#ED351D" stroke-width="6.89002" stroke-linecap="round" stroke-linejoin="round"/>
<path d="M147.087 124.778C157.428 124.778 165.811 116.395 165.811 106.054C165.811 95.7134 157.428 87.3306 147.087 87.3306C136.746 87.3306 128.363 95.7134 128.363 106.054C128.363 116.395 136.746 124.778 147.087 124.778Z" stroke="#ED351D" stroke-width="6.89002" stroke-linecap="round" stroke-linejoin="round"/>
<path d="M105.488 106.054C107.555 105.055 111.465 103.471 116.633 103.419C122.11 103.35 126.279 105.038 128.38 106.054" stroke="#ED351D" stroke-width="6.89002" stroke-linecap="round" stroke-linejoin="round"/>
<path d="M184.427 157.912L191.726 168.278L260.174 120.083L252.875 109.717L184.427 157.912Z" fill="#FFBC00"/>
<path d="M177.143 147.54L184.441 157.906L252.89 109.711L245.591 99.3449L177.143 147.54Z" fill="#FFD815"/>
<path d="M245.588 99.359L260.176 120.077L267.809 114.702L253.222 93.9841L245.588 99.359Z" fill="#DBD9E2"/>
<path d="M267.817 114.701L253.23 93.9831L259.751 89.3917C262.877 87.1902 267.197 87.9402 269.399 91.0668L276.014 100.461C278.215 103.588 277.465 107.908 274.338 110.109L267.817 114.701Z" fill="#FF558A"/>
<path d="M177.179 147.533L191.768 168.254L179.263 170.804L170.564 158.453L177.179 147.533Z" fill="#FFE7C5"/>
<path d="M170.564 158.454L179.263 170.804L167.705 173.147C165.087 173.681 163.071 170.821 164.467 168.547L170.564 158.454Z" fill="#171759"/>
<path d="M233.608 166.343C243.806 166.343 252.073 158.076 252.073 147.878C252.073 137.68 243.806 129.413 233.608 129.413C223.41 129.413 215.143 137.68 215.143 147.878C215.143 158.076 223.41 166.343 233.608 166.343Z" fill="#171759"/>
<path d="M96.1357 111.273V106.864C96.1357 102.611 92.6885 99.1641 88.4361 99.1641C84.1838 99.1641 80.7365 102.611 80.7365 106.864V111.273C80.7365 115.526 84.1838 118.973 88.4361 118.973C92.6885 118.973 96.1357 115.526 96.1357 111.273Z" fill="#171759"/>
<path d="M153.133 111.273V106.864C153.133 102.611 149.686 99.1641 145.433 99.1641C141.181 99.1641 137.734 102.611 137.734 106.864V111.273C137.734 115.526 141.181 118.973 145.433 118.973C149.686 118.973 153.133 115.526 153.133 111.273Z" fill="#171759"/>
<path d="M104.748 120.593C105.782 126.363 110.829 130.756 116.926 130.756C123.024 130.756 128.071 126.363 129.104 120.593" stroke="#171759" stroke-width="6.37327" stroke-linecap="round" stroke-linejoin="round"/>
<path d="M88.3836 209.353L34.4003 219.947C31.9888 220.412 29.4911 218.896 28.8021 216.571L9.20002 149.358C8.51101 147.016 9.92348 144.742 12.335 144.26L66.3183 133.666C68.7298 133.201 71.2274 134.717 71.9164 137.043L91.5185 204.255C92.2075 206.597 90.7951 208.871 88.3836 209.353Z" fill="#C2E9F9"/>
<path d="M83.699 210.267L29.7157 220.86C27.3042 221.325 24.8066 219.81 24.1176 217.484L4.51545 150.272C3.82644 147.929 5.23891 145.656 7.65042 145.173L61.6337 134.58C64.0452 134.115 66.5428 135.631 67.2318 137.956L86.834 205.168C87.523 207.511 86.1105 209.785 83.699 210.267Z" fill="#F3FDFF"/>
<path d="M85.6623 211.885L28.0789 223.185C25.6674 223.65 23.1698 222.134 22.4808 219.809L2.87873 152.596C2.18973 150.254 3.60214 147.98 6.01365 147.498L63.597 136.198C66.0085 135.733 68.5062 137.249 69.1952 139.574L88.7972 206.786C89.4862 209.129 88.0738 211.403 85.6623 211.885Z" fill="#3A6DED"/>
<path d="M82.9582 212.42L25.3749 223.72C22.9634 224.185 20.4657 222.669 19.7767 220.344L0.174626 153.132C-0.514376 150.789 0.89809 148.515 3.3096 148.033L60.8929 136.733C63.3044 136.268 65.802 137.784 66.4911 140.109L86.0932 207.322C86.7822 209.664 85.3697 211.938 82.9582 212.42Z" fill="#5086FF"/>
<path d="M51.5226 147.878L16.9864 154.647C14.5749 155.112 12.0772 153.596 11.3882 151.271L11.0438 150.065C10.3548 147.723 11.7672 145.449 14.1787 144.967L48.7149 138.197C51.1264 137.732 53.6241 139.248 54.3131 141.573L54.6576 142.779C55.3466 145.122 53.9341 147.395 51.5226 147.878Z" fill="#3A6DED"/>
<path d="M50.9191 145.845L16.3829 152.615C13.9714 153.08 11.4738 151.564 10.7848 149.239L10.4403 148.033C9.75125 145.69 11.1637 143.417 13.5752 142.934L48.1114 136.165C50.5229 135.7 53.0206 137.216 53.7096 139.541L54.0541 140.747C54.7431 143.089 53.3306 145.363 50.9191 145.845Z" fill="#AAB0BA"/>
</svg>
