<svg width="382" height="461" viewBox="0 0 382 461" fill="none" xmlns="http://www.w3.org/2000/svg">
<path opacity="0.2" d="M181.555 460.6C253.016 460.6 310.947 448.72 310.947 434.065C310.947 419.41 253.016 407.529 181.555 407.529C110.093 407.529 52.1621 419.41 52.1621 434.065C52.1621 448.72 110.093 460.6 181.555 460.6Z" fill="#3D3D60"/>
<path d="M170.777 414.175V344.705C170.777 335.11 162.998 327.332 153.403 327.332H153.377C143.782 327.332 136.004 335.11 136.004 344.705V414.175C136.004 423.77 143.782 431.549 153.377 431.549H153.403C162.998 431.549 170.777 423.77 170.777 414.175Z" fill="#171759"/>
<path d="M128.048 431.55H153.377C162.972 431.55 170.751 423.771 170.751 414.176V414.15C170.751 404.555 162.972 396.776 153.377 396.776H128.048C118.453 396.776 110.674 404.555 110.674 414.15V414.176C110.674 423.771 118.453 431.55 128.048 431.55Z" fill="#171759"/>
<path d="M227.132 414.175V344.705C227.132 335.11 219.354 327.331 209.759 327.331H209.733C200.138 327.331 192.359 335.11 192.359 344.705V414.175C192.359 423.77 200.138 431.548 209.733 431.548H209.759C219.354 431.548 227.132 423.77 227.132 414.175Z" fill="#171759"/>
<path d="M235.063 396.801H209.734C200.138 396.801 192.36 404.58 192.36 414.175V414.201C192.36 423.796 200.138 431.575 209.734 431.575H235.063C244.658 431.575 252.437 423.796 252.437 414.201V414.175C252.437 404.58 244.658 396.801 235.063 396.801Z" fill="#171759"/>
<path d="M181.555 371.573C271.3 371.573 344.053 298.82 344.053 209.075C344.053 119.33 271.3 46.5771 181.555 46.5771C91.8099 46.5771 19.0571 119.33 19.0571 209.075C19.0571 298.82 91.8099 371.573 181.555 371.573Z" fill="#62657A"/>
<path d="M181.555 297.383C230.325 297.383 269.861 257.846 269.861 209.076C269.861 160.306 230.325 120.77 181.555 120.77C132.785 120.77 93.249 160.306 93.249 209.076C93.249 257.846 132.785 297.383 181.555 297.383Z" stroke="#D3D3DD" stroke-width="13.8845" stroke-miterlimit="10"/>
<path d="M181.555 276.491C218.788 276.491 248.971 246.308 248.971 209.075C248.971 171.842 218.788 141.658 181.555 141.658C144.322 141.658 114.138 171.842 114.138 209.075C114.138 246.308 144.322 276.491 181.555 276.491Z" fill="#D3D3DD"/>
<path opacity="0.2" d="M344.054 209.074C344.054 298.818 271.299 371.572 181.556 371.572C135.696 371.572 94.3017 352.582 64.7637 322.017C89.862 337.877 119.58 347.064 151.453 347.064C241.196 347.064 313.925 274.31 313.925 184.566C313.925 140.683 296.551 100.854 268.245 71.6235C313.797 100.392 344.054 151.204 344.054 209.074Z" fill="#3D3D60"/>
<path d="M328.604 213.925C326.141 287.809 269.195 347.886 196.646 355.251" stroke="#4E4E68" stroke-width="13.8845" stroke-miterlimit="10" stroke-linecap="round"/>
<path d="M306.303 223.576C300.375 274.517 263.959 316.142 215.79 329.744" stroke="#4E4E68" stroke-width="13.8845" stroke-miterlimit="10" stroke-linecap="round"/>
<path d="M34.5322 204.226C36.9959 130.343 93.942 70.2657 166.491 62.9004" stroke="#4E4E68" stroke-width="13.8845" stroke-miterlimit="10" stroke-linecap="round"/>
<path d="M56.8335 194.55C62.7616 143.609 99.1774 101.984 147.347 88.3823" stroke="#4E4E68" stroke-width="13.8845" stroke-miterlimit="10" stroke-linecap="round"/>
<path d="M333.158 175.708C333.158 258.167 265.095 325.019 181.162 325.019C97.2289 325.019 29.1401 258.167 29.1401 175.708" stroke="#201C3A" stroke-width="19.0091" stroke-miterlimit="10"/>
<path d="M341.891 205.479C296.858 198.294 242.85 192.793 181.789 192.767C120.148 192.74 65.7193 198.268 20.397 205.479C19.4231 205.479 14.2645 205.374 10.106 201.452C7.47405 198.952 5.81592 195.53 5.81592 191.74V169.632C5.81592 162.078 12.3695 155.893 20.397 155.893H341.917C349.918 155.893 356.498 162.078 356.498 169.632V191.74C356.498 199.294 349.944 205.479 341.917 205.479H341.891Z" fill="#312A4C"/>
<path d="M14.7669 180.684C6.1867 180.684 -0.682709 173.446 0.0542397 164.945C8.18699 73.0895 86.7509 0 181.133 0C275.515 0 354.079 73.0895 362.212 164.945C362.975 173.42 356.079 180.684 347.499 180.684H14.7669Z" fill="#FF525F"/>
<path d="M205.321 309.884H156.972C152.495 309.884 148.866 313.513 148.866 317.99V332.019C148.866 336.496 152.495 340.125 156.972 340.125H205.321C209.798 340.125 213.428 336.496 213.428 332.019V317.99C213.428 313.513 209.798 309.884 205.321 309.884Z" fill="#312A4C"/>
<path d="M150.58 214.9V208.331C150.58 201.995 145.444 196.859 139.108 196.859C132.773 196.859 127.637 201.995 127.637 208.331V214.9C127.637 221.236 132.773 226.372 139.108 226.372C145.444 226.372 150.58 221.236 150.58 214.9Z" fill="#171759"/>
<path d="M235.499 214.9V208.331C235.499 201.995 230.363 196.859 224.028 196.859C217.692 196.859 212.556 201.995 212.556 208.331V214.9C212.556 221.236 217.692 226.372 224.028 226.372C230.363 226.372 235.499 221.236 235.499 214.9Z" fill="#171759"/>
<path d="M201.521 226.372C201.521 237.381 192.59 246.338 181.581 246.338C170.571 246.338 161.641 237.381 161.641 226.372H201.547H201.521Z" fill="white" stroke="#171759" stroke-width="10.2745" stroke-linecap="round" stroke-linejoin="round"/>
<path d="M300.507 312.492C315.701 312.492 328.017 300.175 328.017 284.981C328.017 269.787 315.701 257.47 300.507 257.47C285.313 257.47 272.996 269.787 272.996 284.981C272.996 300.175 285.313 312.492 300.507 312.492Z" fill="#171759"/>
<path d="M46.9179 352.6C62.1116 352.6 74.4286 340.283 74.4286 325.089C74.4286 309.895 62.1116 297.579 46.9179 297.579C31.7242 297.579 19.4072 309.895 19.4072 325.089C19.4072 340.283 31.7242 352.6 46.9179 352.6Z" fill="#171759"/>
<path d="M364.532 111.53L377.209 114.533C383.471 116.021 383.471 124.927 377.209 126.415L364.532 129.418C362.94 129.802 361.683 131.034 361.324 132.625L358.321 145.303C356.833 151.565 347.928 151.565 346.439 145.303L343.437 132.625C343.052 131.034 341.82 129.777 340.229 129.418L327.551 126.415C321.29 124.927 321.29 116.021 327.551 114.533L340.229 111.53C341.82 111.145 343.077 109.914 343.437 108.323L346.439 95.6451C347.928 89.3833 356.833 89.3833 358.321 95.6451L361.324 108.323C361.709 109.914 362.94 111.171 364.532 111.53Z" fill="#FFCD40"/>
<path d="M306.688 83.8159L310.768 84.7911C315.131 85.8176 315.131 92.0281 310.768 93.0546L306.688 94.0298C305.327 94.3634 304.25 95.4156 303.916 96.8014L302.941 100.882C301.914 105.244 295.704 105.244 294.677 100.882L293.702 96.8014C293.369 95.4412 292.316 94.3634 290.931 94.0298L286.85 93.0546C282.487 92.0281 282.487 85.8176 286.85 84.7911L290.931 83.8159C292.291 83.4823 293.369 82.4301 293.702 81.0443L294.677 76.9639C295.704 72.6012 301.914 72.6012 302.941 76.9639L303.916 81.0443C304.25 82.4045 305.302 83.4823 306.688 83.8159Z" fill="#FFCD40"/>
</svg>
