<svg width="230" height="258" viewBox="0 0 230 258" fill="none" xmlns="http://www.w3.org/2000/svg">
<path opacity="0.2" d="M99.3969 257.608C143.116 257.608 178.557 250.34 178.557 241.374C178.557 232.409 143.116 225.141 99.3969 225.141C55.6783 225.141 20.2373 232.409 20.2373 241.374C20.2373 250.34 55.6783 257.608 99.3969 257.608Z" fill="#3D3D60"/>
<path d="M191.117 192.658C194.021 197.179 195.717 202.549 195.717 208.295C195.717 216.286 192.435 223.571 187.176 228.831C186.187 229.835 185.135 230.746 184.005 231.578C182.89 232.41 181.712 233.164 180.488 233.855C176.374 236.1 171.649 237.371 166.656 237.371H32.1694C16.1711 237.371 3.09291 224.293 3.09291 208.295C3.09291 202.549 4.7728 197.179 7.69301 192.658C2.7318 180.836 0 167.867 0 154.271C0 99.368 44.4939 54.8584 99.397 54.8584C118.896 54.8584 137.093 60.479 152.432 70.1816C152.463 70.1973 152.495 70.2287 152.526 70.2444C153.342 70.7625 154.159 71.2963 154.975 71.8458C155.635 72.2854 156.294 72.7408 156.938 73.2118C157.44 73.5572 157.942 73.9183 158.429 74.2951C158.712 74.4992 158.994 74.7033 159.277 74.9231C159.779 75.2842 160.266 75.6767 160.753 76.0535C161.396 76.5559 162.009 77.0583 162.637 77.5607C163.359 78.1573 164.065 78.7696 164.772 79.3819C165.322 79.8686 165.871 80.3396 166.405 80.8577C166.939 81.3287 167.457 81.8154 167.975 82.3178C168.697 82.9929 169.419 83.6994 170.11 84.4216C170.895 85.1909 171.649 85.9916 172.371 86.7923C172.779 87.2162 173.172 87.6401 173.533 88.064C174.176 88.7548 174.773 89.4456 175.37 90.1678C175.479 90.2777 175.574 90.4033 175.684 90.5289C176.06 90.9685 176.421 91.4081 176.767 91.8634C177.049 92.2088 177.332 92.5542 177.599 92.8996C178.101 93.5276 178.604 94.1713 179.075 94.8307C179.483 95.3645 179.891 95.9297 180.284 96.4792C180.394 96.6205 180.488 96.7618 180.566 96.9031C180.927 97.3741 181.257 97.8451 181.571 98.3318C181.791 98.6301 182.011 98.9441 182.199 99.2581C182.497 99.6977 182.796 100.153 183.094 100.608C183.596 101.378 184.083 102.178 184.57 102.979C185.025 103.717 185.465 104.471 185.889 105.24C186.046 105.491 186.187 105.758 186.328 106.025C186.721 106.7 187.082 107.391 187.443 108.082C187.757 108.678 188.071 109.29 188.369 109.903C188.589 110.327 188.793 110.751 188.997 111.174C189.531 112.258 190.033 113.341 190.489 114.44C190.834 115.178 191.148 115.932 191.446 116.685C191.478 116.717 191.493 116.764 191.493 116.795C191.855 117.659 192.184 118.506 192.514 119.386C192.954 120.547 193.377 121.741 193.754 122.934C194.037 123.734 194.288 124.551 194.539 125.367C194.602 125.556 194.649 125.744 194.712 125.948C194.947 126.717 195.167 127.518 195.387 128.303C195.434 128.492 195.481 128.68 195.528 128.868C195.78 129.826 196.031 130.784 196.251 131.757C196.517 132.919 196.769 134.112 196.988 135.29C197.13 135.981 197.255 136.687 197.365 137.378C197.459 137.817 197.522 138.257 197.585 138.697C197.664 139.152 197.742 139.607 197.789 140.063C197.868 140.565 197.946 141.067 198.009 141.57C198.135 142.575 198.244 143.595 198.339 144.6C198.449 145.62 198.527 146.657 198.59 147.677C198.653 148.525 198.7 149.357 198.715 150.205C198.747 150.629 198.763 151.053 198.763 151.492C198.794 152.418 198.81 153.345 198.81 154.271C198.81 164.476 197.271 174.304 194.414 183.583C193.927 185.122 193.425 186.66 192.875 188.167C192.341 189.675 191.745 191.166 191.132 192.642H191.117V192.658Z" fill="#62657A"/>
<path d="M99.3969 214.559C129.233 214.559 153.421 190.372 153.421 160.536C153.421 130.699 129.233 106.512 99.3969 106.512C69.5604 106.512 45.373 130.699 45.373 160.536C45.373 190.372 69.5604 214.559 99.3969 214.559Z" stroke="#D3D3DD" stroke-width="7.85002" stroke-miterlimit="10"/>
<path d="M99.3973 201.779C122.176 201.779 140.641 183.313 140.641 160.535C140.641 137.757 122.176 119.291 99.3973 119.291C76.6189 119.291 58.1533 137.757 58.1533 160.535C58.1533 183.313 76.6189 201.779 99.3973 201.779Z" fill="#D3D3DD"/>
<path opacity="0.2" d="M191.116 192.657C194.021 197.178 195.716 202.548 195.716 208.294C195.716 216.285 192.435 223.57 187.175 228.83C186.186 229.834 185.135 230.745 184.004 231.577C182.889 232.425 181.712 233.179 180.487 233.854C176.374 236.099 171.648 237.37 166.656 237.37H144.738C151.599 235.534 157.754 231.891 162.636 226.993C169.874 219.739 174.38 209.754 174.38 198.764C174.38 192.955 173.124 187.444 170.847 182.452C170.816 182.342 170.753 182.216 170.706 182.106C171.099 181.306 171.46 180.505 171.821 179.688C171.931 179.453 172.025 179.217 172.135 178.982C177.426 166.83 180.377 153.407 180.377 139.277C180.377 112.429 169.748 88.063 152.431 70.1807C152.463 70.1964 152.494 70.2278 152.525 70.2435C153.342 70.7616 154.158 71.2954 154.975 71.8449C155.634 72.2845 156.293 72.7398 156.937 73.2108C157.44 73.5562 157.942 73.9173 158.429 74.2941C158.711 74.4982 158.994 74.7023 159.277 74.9221C159.779 75.2832 160.266 75.6757 160.752 76.0525C161.396 76.5549 162.008 77.0573 162.636 77.5597C163.359 78.1563 164.065 78.7686 164.772 79.3809C165.321 79.8676 165.871 80.3386 166.404 80.8567C166.938 81.3277 167.456 81.8144 167.974 82.3168C168.697 82.9919 169.419 83.6984 170.11 84.4206C170.91 85.2056 171.664 85.9906 172.37 86.7913C172.779 87.2152 173.171 87.6391 173.532 88.063C174.176 88.7538 174.772 89.4446 175.369 90.1668C175.479 90.2767 175.573 90.4023 175.683 90.5279C176.06 90.9675 176.421 91.4071 176.766 91.8624C177.049 92.2078 177.332 92.5532 177.598 92.8986C178.101 93.5266 178.603 94.1703 179.074 94.8297C179.482 95.3635 179.891 95.9287 180.283 96.4782C180.393 96.6195 180.487 96.7608 180.566 96.9021C180.927 97.3731 181.257 97.8441 181.571 98.3308C181.79 98.6291 182.01 98.9431 182.199 99.2571C182.497 99.6967 182.795 100.152 183.093 100.607C183.596 101.377 184.083 102.177 184.569 102.978C185.025 103.716 185.464 104.47 185.888 105.239C186.045 105.49 186.186 105.757 186.328 106.024C186.72 106.699 187.081 107.39 187.442 108.081C187.756 108.677 188.07 109.289 188.369 109.902C188.589 110.326 188.793 110.75 188.997 111.173C189.531 112.257 190.033 113.34 190.488 114.439C190.834 115.177 191.148 115.931 191.446 116.684C191.477 116.716 191.493 116.763 191.493 116.794C191.854 117.658 192.184 118.505 192.514 119.385C192.953 120.546 193.377 121.74 193.754 122.933C194.036 123.734 194.288 124.55 194.539 125.366C194.602 125.555 194.649 125.743 194.712 125.947C194.947 126.717 195.167 127.517 195.387 128.302C195.434 128.491 195.481 128.679 195.528 128.867C195.779 129.825 196.03 130.783 196.25 131.756C196.517 132.918 196.768 134.111 196.988 135.289C197.129 135.98 197.255 136.686 197.365 137.377C197.459 137.816 197.522 138.256 197.585 138.696C197.663 139.151 197.742 139.606 197.789 140.062C197.867 140.564 197.946 141.066 198.009 141.569C198.134 142.574 198.244 143.594 198.338 144.599C198.448 145.619 198.527 146.656 198.589 147.676C198.652 148.524 198.699 149.356 198.715 150.204C198.746 150.628 198.762 151.052 198.762 151.491C198.794 152.417 198.809 153.344 198.809 154.27C198.809 164.475 197.271 174.303 194.413 183.582C193.942 185.121 193.424 186.644 192.875 188.167C192.341 189.674 191.744 191.165 191.132 192.641H191.116V192.657Z" fill="#3D3D60"/>
<path d="M189.359 157.238C188.903 171.039 185.324 184.07 179.311 195.625" stroke="#4E4E68" stroke-width="7.85002" stroke-miterlimit="10" stroke-linecap="round"/>
<path d="M175.715 163.143C174.333 175.012 170.251 186.049 164.081 195.626" stroke="#4E4E68" stroke-width="7.85002" stroke-miterlimit="10" stroke-linecap="round"/>
<path d="M9.45117 151.304C10.9584 106.103 45.7968 69.3497 90.1808 64.8438" stroke="#4E4E68" stroke-width="7.85002" stroke-miterlimit="10" stroke-linecap="round"/>
<path d="M23.0947 145.385C26.7214 114.22 48.9998 88.7546 78.4688 80.4336" stroke="#4E4E68" stroke-width="7.85002" stroke-miterlimit="10" stroke-linecap="round"/>
<path d="M128.896 168.935V181.353C128.896 184.148 126.604 186.44 123.809 186.44C121.015 186.44 118.723 184.148 118.723 181.353V168.95C118.723 168.95 118.801 169.044 118.848 169.092C118.942 169.186 119.037 169.28 119.131 169.358C120.355 170.473 122.004 171.148 123.794 171.148C125.819 171.148 127.625 170.3 128.896 168.935Z" fill="#0098FF"/>
<path d="M123.809 184.744C125.682 184.744 127.2 183.226 127.2 181.353C127.2 179.48 125.682 177.962 123.809 177.962C121.936 177.962 120.418 179.48 120.418 181.353C120.418 183.226 121.936 184.744 123.809 184.744Z" fill="#0B7AFF"/>
<path d="M121.894 180.504C122.77 180.504 123.48 179.794 123.48 178.919C123.48 178.043 122.77 177.333 121.894 177.333C121.019 177.333 120.309 178.043 120.309 178.919C120.309 179.794 121.019 180.504 121.894 180.504Z" fill="#C2F4FF"/>
<path d="M82.0163 164.13C82.0163 168.008 78.8763 171.148 74.9984 171.148C71.1205 171.148 67.9805 168.008 67.9805 164.13" stroke="#171759" stroke-width="6.28002" stroke-miterlimit="10" stroke-linecap="round"/>
<path d="M130.812 164.146C130.812 165.857 130.2 167.427 129.179 168.636C129.085 168.746 129.007 168.84 128.897 168.934C127.625 170.3 125.82 171.148 123.794 171.148C122.004 171.148 120.356 170.473 119.131 169.358C119.037 169.279 118.943 169.185 118.849 169.091C118.802 169.044 118.755 168.997 118.723 168.95C117.514 167.709 116.792 166.014 116.792 164.146" stroke="#171759" stroke-width="6.28002" stroke-miterlimit="10" stroke-linecap="round"/>
<path d="M88.3115 185.546C89.2535 180.287 93.8537 176.283 99.4115 176.283C104.969 176.283 109.569 180.287 110.511 185.546" stroke="#171759" stroke-width="5.80902" stroke-linecap="round" stroke-linejoin="round"/>
<path d="M67.1612 233.954L64.4829 225.464C62.1689 218.13 54.347 214.059 47.0123 216.374L46.9973 216.378C39.6626 218.692 35.5925 226.514 37.9066 233.849L40.5849 242.338C42.899 249.673 50.7208 253.743 58.0555 251.429L58.0705 251.424C65.4052 249.11 69.4753 241.288 67.1612 233.954Z" fill="#171759"/>
<path d="M158.19 242.38L160.869 233.891C163.183 226.556 159.113 218.734 151.778 216.42L151.763 216.416C144.428 214.102 136.606 218.172 134.292 225.506L131.614 233.996C129.3 241.331 133.37 249.152 140.705 251.467L140.72 251.471C148.054 253.785 155.876 249.715 158.19 242.38Z" fill="#171759"/>
<path d="M214.54 51.9541L212.562 51.8756C211.95 51.8442 211.432 52.2681 211.306 52.8647L210.929 54.7958C208.386 67.9054 192.199 70.4174 185.009 61.4213C184.553 60.8561 183.69 60.8561 183.187 61.3899L170.91 74.7035C168.586 77.2312 164.536 74.468 166.043 71.3908L174.05 54.8743C174.38 54.1835 174.003 53.32 173.249 53.163C161.443 50.6196 157.015 33.9462 168.492 26.4102L170.141 25.3269C170.643 24.9972 170.831 24.3378 170.58 23.7883L169.764 22.0142C163.154 7.86841 180.142 -5.50803 192.341 4.226L193.863 5.4506C194.334 5.82741 195.025 5.79601 195.465 5.3878L196.894 4.0533C208.292 -6.57563 226.268 5.4349 220.789 20.0516L220.098 21.8886C219.878 22.4538 220.114 23.0975 220.648 23.3958L222.359 24.3378C236.002 31.8895 230.131 52.692 214.556 51.9855L214.54 51.9541Z" fill="#B6E3FF"/>
<path d="M148.35 72.6926L155.352 63.2412C156.074 67.7314 156.812 72.2373 157.534 76.7275C163.296 75.7541 169.074 74.765 174.836 73.7916C173.25 77.3399 171.68 80.8724 170.094 84.4206C172.983 85.7865 175.856 87.1681 178.745 88.534L171.162 94.1075" fill="#62657A"/>
<path d="M148.35 72.6926L155.352 63.2412C156.074 67.7314 156.812 72.2373 157.534 76.7275C163.296 75.7541 169.074 74.765 174.836 73.7916C173.25 77.3399 171.68 80.8724 170.094 84.4206C172.983 85.7865 175.856 87.1681 178.745 88.534L171.162 94.1075" stroke="#4E4E68" stroke-width="6.28002" stroke-linecap="round" stroke-linejoin="round"/>
</svg>
