<svg width="253" height="329" viewBox="0 0 253 329" fill="none" xmlns="http://www.w3.org/2000/svg">
<path d="M126.254 220.1C84.7803 220.101 67.5157 231.62 64.7509 237.38C61.4332 244.013 69.5794 250.165 79.9454 255.351C102.754 266.762 118.664 285.07 126.254 302.437C127.867 297.138 142.344 271.168 162.901 260.179C192.622 244.289 188.245 240.837 187.093 237.38C174.651 220.068 145.838 219.639 126.254 220.1Z" fill="#231F20"/>
<path d="M126.005 242.56C182.049 242.56 227.482 197.138 227.482 141.106C227.482 85.0753 182.049 39.653 126.005 39.653C69.9602 39.653 24.5273 85.0753 24.5273 141.106C24.5273 197.138 69.9602 242.56 126.005 242.56Z" fill="#62657A"/>
<path d="M126.005 196.239C156.461 196.239 181.151 171.555 181.151 141.106C181.151 110.657 156.461 85.9731 126.005 85.9731C95.549 85.9731 70.8594 110.657 70.8594 141.106C70.8594 171.555 95.549 196.239 126.005 196.239Z" stroke="#D3D3DD" stroke-width="7.80053" stroke-miterlimit="10"/>
<path d="M126.005 183.198C149.256 183.198 168.105 164.353 168.105 141.107C168.105 117.861 149.256 99.0162 126.005 99.0162C102.753 99.0162 83.9043 117.861 83.9043 141.107C83.9043 164.353 102.753 183.198 126.005 183.198Z" fill="#D3D3DD"/>
<path opacity="0.2" d="M227.482 141.106C227.482 197.136 182.048 242.559 126.005 242.559C97.3664 242.559 71.5163 230.703 53.0703 211.62C68.7438 221.522 87.302 227.258 107.206 227.258C163.25 227.258 208.668 181.835 208.668 125.805C208.668 98.4063 197.818 73.5396 180.141 55.2902C208.587 73.2512 227.482 104.975 227.482 141.106Z" fill="#3D3D60"/>
<path d="M217.818 144.135C216.28 190.263 180.718 227.771 135.412 232.37" stroke="#4E4E68" stroke-width="7.87239" stroke-miterlimit="10" stroke-linecap="round"/>
<path d="M203.893 150.158C200.191 181.963 177.45 207.951 147.369 216.443" stroke="#4E4E68" stroke-width="7.87239" stroke-miterlimit="10" stroke-linecap="round"/>
<path d="M34.1758 138.077C35.7143 91.949 71.2762 54.4407 116.582 49.8423" stroke="#4E4E68" stroke-width="7.87239" stroke-miterlimit="10" stroke-linecap="round"/>
<path d="M48.1035 132.038C51.8055 100.233 74.5466 74.2451 104.628 65.7533" stroke="#4E4E68" stroke-width="7.87239" stroke-miterlimit="10" stroke-linecap="round"/>
<path d="M91.9656 144.353C91.9656 140.104 95.4063 136.663 99.6556 136.663C103.905 136.663 107.346 140.104 107.346 144.353" stroke="#171759" stroke-width="6.29608" stroke-miterlimit="10" stroke-linecap="round"/>
<path d="M145.796 144.353C145.796 142.474 146.467 140.75 147.587 139.422C147.69 139.301 147.776 139.198 147.897 139.094C149.292 137.594 151.273 136.663 153.494 136.663C155.458 136.663 157.266 137.405 158.61 138.629C158.713 138.715 158.816 138.819 158.92 138.922C158.971 138.974 159.023 139.026 159.057 139.077C160.384 140.439 161.176 142.302 161.176 144.353" stroke="#171759" stroke-width="6.29608" stroke-miterlimit="10" stroke-linecap="round"/>
<path d="M138.348 156.186C137.419 161.224 132.884 165.059 127.404 165.059C121.925 165.059 117.389 161.224 116.461 156.186" stroke="#171759" stroke-width="5.82548" stroke-linecap="round" stroke-linejoin="round"/>
<path d="M221.893 111.76C221.893 164.209 178.601 206.731 125.214 206.731C71.828 206.731 28.5195 164.209 28.5195 111.76" stroke="#201C3A" stroke-width="11.1739" stroke-miterlimit="10"/>
<path d="M227.447 130.697C198.803 126.127 164.451 122.628 125.613 122.611C86.4057 122.594 51.7857 126.11 22.958 130.697C22.3386 130.697 19.0574 130.63 16.4123 128.135C14.7383 126.545 13.6836 124.369 13.6836 121.958V107.896C13.6836 103.091 17.8521 99.1571 22.958 99.1571H227.464C232.553 99.1571 236.738 103.091 236.738 107.896V121.958C236.738 126.763 232.57 130.697 227.464 130.697H227.447Z" fill="#312A4C"/>
<path d="M19.377 114.926C13.9195 114.926 9.55013 110.322 10.0189 104.915C15.1918 46.4892 65.1631 0 125.196 0C185.228 0 235.2 46.4892 240.372 104.915C240.858 110.305 236.472 114.926 231.014 114.926H19.377Z" fill="#FF525F"/>
<path d="M140.581 197.105H109.828C106.98 197.105 104.672 199.413 104.672 202.261V211.184C104.672 214.031 106.98 216.34 109.828 216.34H140.581C143.429 216.34 145.737 214.031 145.737 211.184V202.261C145.737 199.413 143.429 197.105 140.581 197.105Z" fill="#312A4C"/>
<path d="M79.6728 286.286L87.2543 243.581C88.3015 237.682 93.9332 233.75 99.833 234.797L99.8488 234.8C105.749 235.847 109.682 241.478 108.635 247.377L101.054 290.081C100.007 295.98 94.375 299.913 88.4752 298.865L88.4594 298.862C82.5595 297.815 78.6256 292.184 79.6728 286.286Z" fill="#171759"/>
<g filter="url(#filter0_i_5439_33516)">
<path d="M84.5214 276.079L95.4831 278.025C99.6356 278.762 102.153 284.141 101.106 290.04L101.103 290.056C100.056 295.954 95.8407 300.138 91.6881 299.401L80.7264 297.455C76.5739 296.718 74.0565 291.338 75.1036 285.44L75.1064 285.424C76.1536 279.526 80.3688 275.342 84.5214 276.079Z" fill="#171759"/>
</g>
<path d="M103.982 272.85L113.133 263.699H138.505L147.655 272.85V317.77L135.593 329H115.628L103.982 317.77V272.85Z" fill="#7FA948"/>
<path d="M68.6289 189.664V179.265H87.7617L107.31 192.159H145.16L165.124 179.265H183.425V189.664H167.62L146.824 203.805H132.266V238.743H119.788V203.805H105.231L84.4342 189.664H68.6289Z" fill="#414143"/>
<path d="M56.5678 205.051V200.06C45.7537 204.219 32.4439 202.495 27.0369 200.055C21.0066 197.334 12.5856 198.3 8.27288 199.33C7.55625 199.502 7.07227 200.154 7.07227 200.891V201.782C7.07227 202.953 8.25615 203.764 9.38731 203.458C16.3851 201.569 23.6259 203.096 26.6209 204.219C41.2616 209.543 52.6858 206.992 56.5678 205.051Z" fill="#363636"/>
<path d="M195.486 176.354H244.566C248.701 176.354 252.053 179.706 252.053 183.841V185.504C252.053 189.639 248.701 192.991 244.566 192.991H195.486V176.354Z" fill="#FF7950"/>
<path d="M0 183.841C0 179.706 3.35192 176.354 7.48673 176.354H56.5664V192.991H7.48672C3.35191 192.991 0 189.639 0 185.504V183.841Z" fill="#FF7950"/>
<rect x="56.5645" y="176.354" width="12.4779" height="29.115" fill="#231F20"/>
<circle cx="4.15929" cy="4.15929" r="4.15929" transform="matrix(-1 0 0 1 66.5469 195.487)" fill="#A5A5A5"/>
<circle cx="2.49558" cy="2.49558" r="2.49558" transform="matrix(-1 0 0 1 64.8848 197.15)" fill="#231F20"/>
<path d="M195.487 205.051V200.06C206.301 204.219 219.611 202.495 225.018 200.055C231.048 197.334 239.469 198.3 243.782 199.33C244.498 199.502 244.982 200.154 244.982 200.891V201.782C244.982 202.953 243.799 203.764 242.667 203.458C235.67 201.569 228.429 203.096 225.434 204.219C210.793 209.543 199.369 206.992 195.487 205.051Z" fill="#363636"/>
<rect x="114.797" y="238.743" width="22.4602" height="8.31858" fill="#58595B"/>
<rect x="113.133" y="298.637" width="24.9558" height="4.15929" fill="#58595B"/>
<rect x="116.461" y="247.062" width="19.1327" height="51.5752" fill="#8CC540"/>
<rect width="12.4779" height="29.115" transform="matrix(-1 0 0 1 195.486 176.354)" fill="#231F20"/>
<circle cx="189.663" cy="199.646" r="4.15929" fill="#A5A5A5"/>
<circle cx="189.664" cy="199.646" r="2.49558" fill="#231F20"/>
<path d="M235.127 188.246C244.615 188.246 252.307 180.556 252.307 171.07C252.307 161.584 244.615 153.894 235.127 153.894C225.639 153.894 217.947 161.584 217.947 171.07C217.947 180.556 225.639 188.246 235.127 188.246Z" fill="#171759"/>
<path d="M24.6663 193.237C34.1545 193.237 41.8463 185.547 41.8463 176.061C41.8463 166.575 34.1545 158.885 24.6663 158.885C15.1781 158.885 7.48633 166.575 7.48633 176.061C7.48633 185.547 15.1781 193.237 24.6663 193.237Z" fill="#171759"/>
<path d="M171.483 287.116L163.902 244.411C162.855 238.513 157.223 234.58 151.323 235.628L151.307 235.63C145.408 236.678 141.474 242.309 142.521 248.207L150.102 290.912C151.15 296.81 156.781 300.743 162.681 299.695L162.697 299.693C168.597 298.645 172.531 293.014 171.483 287.116Z" fill="#171759"/>
<g filter="url(#filter1_i_5439_33516)">
<path d="M166.635 276.909L155.673 278.855C151.521 279.592 149.003 284.972 150.05 290.87L150.053 290.886C151.1 296.784 155.316 300.968 159.468 300.231L170.43 298.285C174.582 297.548 177.1 292.169 176.053 286.27L176.05 286.254C175.003 280.356 170.787 276.172 166.635 276.909Z" fill="#171759"/>
</g>
<defs>
<filter id="filter0_i_5439_33516" x="74.8672" y="275.995" width="26.4766" height="23.4905" filterUnits="userSpaceOnUse" color-interpolation-filters="sRGB">
<feFlood flood-opacity="0" result="BackgroundImageFix"/>
<feBlend mode="normal" in="SourceGraphic" in2="BackgroundImageFix" result="shape"/>
<feColorMatrix in="SourceAlpha" type="matrix" values="0 0 0 0 0 0 0 0 0 0 0 0 0 0 0 0 0 0 127 0" result="hardAlpha"/>
<feOffset dx="-2.49558" dy="3.32743"/>
<feComposite in2="hardAlpha" operator="arithmetic" k2="-1" k3="1"/>
<feColorMatrix type="matrix" values="0 0 0 0 0 0 0 0 0 0 0 0 0 0 0 0 0 0 0.25 0"/>
<feBlend mode="normal" in2="shape" result="effect1_innerShadow_5439_33516"/>
</filter>
<filter id="filter1_i_5439_33516" x="149.812" y="276.825" width="26.4766" height="23.4905" filterUnits="userSpaceOnUse" color-interpolation-filters="sRGB">
<feFlood flood-opacity="0" result="BackgroundImageFix"/>
<feBlend mode="normal" in="SourceGraphic" in2="BackgroundImageFix" result="shape"/>
<feColorMatrix in="SourceAlpha" type="matrix" values="0 0 0 0 0 0 0 0 0 0 0 0 0 0 0 0 0 0 127 0" result="hardAlpha"/>
<feOffset dx="-2.49558" dy="3.32743"/>
<feComposite in2="hardAlpha" operator="arithmetic" k2="-1" k3="1"/>
<feColorMatrix type="matrix" values="0 0 0 0 0 0 0 0 0 0 0 0 0 0 0 0 0 0 0.25 0"/>
<feBlend mode="normal" in2="shape" result="effect1_innerShadow_5439_33516"/>
</filter>
</defs>
</svg>
