<svg width="320" height="329" viewBox="0 0 320 329" fill="none" xmlns="http://www.w3.org/2000/svg">
<path opacity="0.2" d="M156.091 328.77C210.908 328.77 255.346 319.115 255.346 307.205C255.346 295.296 210.908 285.641 156.091 285.641C101.273 285.641 56.8352 295.296 56.8352 307.205C56.8352 319.115 101.273 328.77 156.091 328.77Z" fill="#3D3D60"/>
<path d="M142.764 298.969V242.512C142.764 234.714 136.798 228.393 129.437 228.393H129.417C122.057 228.393 116.09 234.714 116.09 242.512V298.969C116.09 306.767 122.057 313.088 129.417 313.088H129.437C136.798 313.088 142.764 306.767 142.764 298.969Z" fill="#171759"/>
<path d="M110.007 313.089H129.437C136.797 313.089 142.764 306.767 142.764 298.969V298.948C142.764 291.151 136.797 284.829 129.437 284.829H110.007C102.647 284.829 96.68 291.151 96.68 298.948V298.969C96.68 306.767 102.647 313.089 110.007 313.089Z" fill="#171759"/>
<path d="M205.052 285.986L185.098 233.637C182.341 226.407 174.575 222.912 167.75 225.832L167.731 225.84C160.906 228.76 157.608 236.988 160.364 244.219L180.318 296.568C183.074 303.799 190.841 307.293 197.666 304.373L197.684 304.365C204.509 301.445 207.808 293.217 205.052 285.986Z" fill="#171759"/>
<path d="M179.747 311.991L197.763 304.283C204.588 301.363 207.886 293.135 205.13 285.904L205.123 285.885C202.367 278.654 194.6 275.16 187.775 278.08L169.759 285.787C162.934 288.707 159.635 296.936 162.391 304.166L162.399 304.186C165.155 311.416 172.922 314.911 179.747 311.991Z" fill="#171759"/>
<path d="M147.095 264.347C215.937 264.347 271.745 205.222 271.745 132.289C271.745 59.3546 215.937 0.22998 147.095 0.22998C78.2525 0.22998 22.4446 59.3546 22.4446 132.289C22.4446 205.222 78.2525 264.347 147.095 264.347Z" fill="#62657A"/>
<path d="M139.22 201.968C176.631 201.968 206.959 169.838 206.959 130.203C206.959 90.5688 176.631 58.4387 139.22 58.4387C101.809 58.4387 71.4815 90.5688 71.4815 130.203C71.4815 169.838 101.809 201.968 139.22 201.968Z" stroke="#D3D3DD" stroke-width="9.84288" stroke-miterlimit="10"/>
<path d="M139.221 184.99C167.782 184.99 190.935 160.461 190.935 130.202C190.935 99.9439 167.782 75.4144 139.221 75.4144C110.659 75.4144 87.506 99.9439 87.506 130.202C87.506 160.461 110.659 184.99 139.221 184.99Z" fill="#D3D3DD"/>
<path opacity="0.2" d="M271.745 132.288C271.745 205.221 215.936 264.347 147.095 264.347C111.916 264.347 80.1631 248.913 57.5048 224.074C76.7575 236.963 99.5536 244.429 124.003 244.429C192.844 244.429 248.634 185.303 248.634 112.371C248.634 76.7075 235.307 44.3394 213.593 20.5847C248.536 43.964 271.745 85.2584 271.745 132.288Z" fill="#3D3D60"/>
<path d="M259.894 136.231C258.004 196.274 214.322 245.098 158.67 251.083" stroke="#4E4E68" stroke-width="9.84288" stroke-miterlimit="10" stroke-linecap="round"/>
<path d="M242.787 144.074C238.24 185.473 210.306 219.301 173.356 230.354" stroke="#4E4E68" stroke-width="9.84288" stroke-miterlimit="10" stroke-linecap="round"/>
<path d="M34.3148 128.348C36.2047 68.3041 79.8874 19.4808 135.539 13.4952" stroke="#4E4E68" stroke-width="9.84288" stroke-miterlimit="10" stroke-linecap="round"/>
<path d="M51.4218 120.485C55.9692 79.0861 83.9034 45.2581 120.854 34.2046" stroke="#4E4E68" stroke-width="9.84288" stroke-miterlimit="10" stroke-linecap="round"/>
<path d="M99.1596 150.912C110.978 150.912 120.558 140.762 120.558 128.242C120.558 115.722 110.978 105.572 99.1596 105.572C87.3416 105.572 77.7612 115.722 77.7612 128.242C77.7612 140.762 87.3416 150.912 99.1596 150.912Z" stroke="#ED351D" stroke-width="7.87431" stroke-linecap="round" stroke-linejoin="round"/>
<path d="M168.099 150.912C179.917 150.912 189.498 140.762 189.498 128.242C189.498 115.721 179.917 105.572 168.099 105.572C156.281 105.572 146.701 115.721 146.701 128.242C146.701 140.762 156.281 150.912 168.099 150.912Z" stroke="#ED351D" stroke-width="7.87431" stroke-linecap="round" stroke-linejoin="round"/>
<path d="M120.558 128.242C122.92 127.032 127.389 125.114 133.295 125.051C139.555 124.968 144.319 127.011 146.721 128.242" stroke="#ED351D" stroke-width="7.87431" stroke-linecap="round" stroke-linejoin="round"/>
<path d="M210.773 191.031L219.115 203.582L297.342 145.228L289 132.677L210.773 191.031Z" fill="#FFBC00"/>
<path d="M202.449 178.473L210.79 191.024L289.017 132.67L280.676 120.119L202.449 178.473Z" fill="#FFD815"/>
<path d="M280.673 120.136L297.344 145.22L306.068 138.713L289.397 113.628L280.673 120.136Z" fill="#DBD9E2"/>
<path d="M306.077 138.711L289.406 113.627L296.858 108.068C300.431 105.402 305.369 106.31 307.885 110.096L315.444 121.47C317.96 125.256 317.103 130.487 313.53 133.152L306.077 138.711Z" fill="#FF558A"/>
<path d="M202.491 178.463L219.165 203.553L204.873 206.639L194.931 191.686L202.491 178.463Z" fill="#FFE7C5"/>
<path d="M194.931 191.686L204.872 206.639L191.663 209.476C188.671 210.122 186.368 206.66 187.962 203.907L194.931 191.686Z" fill="#171759"/>
<path d="M266.981 201.239C278.636 201.239 288.084 191.229 288.084 178.882C288.084 166.534 278.636 156.524 266.981 156.524C255.326 156.524 245.878 166.534 245.878 178.882C245.878 191.229 255.326 201.239 266.981 201.239Z" fill="#171759"/>
<path d="M109.869 134.562V129.223C109.869 124.074 105.93 119.9 101.07 119.9C96.2099 119.9 92.2702 124.074 92.2702 129.223V134.562C92.2702 139.71 96.2099 143.884 101.07 143.884C105.93 143.884 109.869 139.71 109.869 134.562Z" fill="#171759"/>
<path d="M175.009 134.562V129.223C175.009 124.074 171.07 119.9 166.21 119.9C161.35 119.9 157.41 124.074 157.41 129.223V134.562C157.41 139.71 161.35 143.884 166.21 143.884C171.07 143.884 175.009 139.71 175.009 134.562Z" fill="#171759"/>
<path d="M119.712 145.845C120.893 152.832 126.661 158.15 133.63 158.15C140.599 158.15 146.367 152.832 147.548 145.845" stroke="#171759" stroke-width="7.28373" stroke-linecap="round" stroke-linejoin="round"/>
<path d="M101.01 253.314L39.3153 266.141C36.5593 266.704 33.7048 264.868 32.9174 262.053L10.515 180.674C9.72757 177.837 11.3418 175.084 14.0978 174.5L75.793 161.674C78.549 161.111 81.4035 162.946 82.1909 165.762L104.593 247.141C105.381 249.977 103.766 252.73 101.01 253.314Z" fill="#C2E9F9"/>
<path d="M95.6561 254.42L33.9609 267.247C31.2049 267.81 28.3505 265.975 27.563 263.159L5.16063 181.78C4.3732 178.943 5.98745 176.191 8.74346 175.607L70.4386 162.78C73.1947 162.217 76.0491 164.053 76.8365 166.868L99.2389 248.247C100.026 251.084 98.4121 253.836 95.6561 254.42Z" fill="#F3FDFF"/>
<path d="M97.8999 256.38L32.0903 270.061C29.3343 270.624 26.4799 268.789 25.6924 265.974L3.29009 184.594C2.50266 181.758 4.11685 179.005 6.87286 178.421L72.6824 164.74C75.4384 164.177 78.2929 166.012 79.0803 168.827L101.483 250.207C102.27 253.043 100.656 255.796 97.8999 256.38Z" fill="#3A6DED"/>
<path d="M94.8095 257.028L29 270.709C26.244 271.273 23.3896 269.437 22.6022 266.622L0.199755 185.243C-0.587675 182.406 1.02657 179.653 3.78258 179.069L69.5921 165.388C72.3481 164.825 75.2025 166.66 75.99 169.476L98.3924 250.855C99.1798 253.691 97.5655 256.444 94.8095 257.028Z" fill="#5086FF"/>
<path d="M58.8829 178.881L19.4129 187.077C16.6569 187.64 13.8025 185.805 13.0151 182.989L12.6214 181.53C11.834 178.693 13.4482 175.94 16.2042 175.356L55.6741 167.16C58.4302 166.597 61.2846 168.432 62.072 171.248L62.4658 172.708C63.2532 175.544 61.6389 178.297 58.8829 178.881Z" fill="#3A6DED"/>
<path d="M58.1939 176.421L18.7239 184.617C15.9679 185.18 13.1135 183.345 12.326 180.529L11.9323 179.069C11.1449 176.233 12.7591 173.48 15.5151 172.896L54.9851 164.7C57.7411 164.136 60.5955 165.972 61.3829 168.787L61.7767 170.247C62.5641 173.084 60.9499 175.837 58.1939 176.421Z" fill="#AAB0BA"/>
</svg>
