<svg width="305" height="296" viewBox="0 0 305 296" fill="none" xmlns="http://www.w3.org/2000/svg">
<path opacity="0.2" d="M144.395 295.579C195.413 295.579 236.771 287.098 236.771 276.635C236.771 266.173 195.413 257.691 144.395 257.691C93.3773 257.691 52.019 266.173 52.019 276.635C52.019 287.098 93.3773 295.579 144.395 295.579Z" fill="#3D3D60"/>
<path d="M136.7 262.436V212.84C136.7 205.989 131.147 200.436 124.297 200.436H124.278C117.428 200.436 111.875 205.989 111.875 212.84V262.436C111.875 269.286 117.428 274.839 124.278 274.839H124.297C131.147 274.839 136.7 269.286 136.7 262.436Z" fill="#171759"/>
<path d="M106.195 274.84H124.278C131.128 274.84 136.682 269.287 136.682 262.436V262.418C136.682 255.568 131.128 250.014 124.278 250.014H106.195C99.3447 250.014 93.7914 255.568 93.7914 262.418V262.436C93.7914 269.287 99.3447 274.84 106.195 274.84Z" fill="#171759"/>
<path d="M176.934 262.436V212.84C176.934 205.989 171.38 200.436 164.53 200.436H164.512C157.661 200.436 152.108 205.989 152.108 212.84V262.436C152.108 269.286 157.661 274.839 164.512 274.839H164.53C171.38 274.839 176.934 269.286 176.934 262.436Z" fill="#171759"/>
<path d="M182.595 250.032H164.512C157.662 250.032 152.109 255.586 152.109 262.436V262.454C152.109 269.305 157.662 274.858 164.512 274.858H182.595C189.446 274.858 194.999 269.305 194.999 262.454V262.436C194.999 255.586 189.446 250.032 182.595 250.032Z" fill="#171759"/>
<path d="M144.395 232.021C208.466 232.021 260.406 180.082 260.406 116.011C260.406 51.9397 208.466 0 144.395 0C80.324 0 28.3843 51.9397 28.3843 116.011C28.3843 180.082 80.324 232.021 144.395 232.021Z" fill="#62657A"/>
<path d="M144.395 179.055C179.213 179.055 207.439 150.829 207.439 116.011C207.439 81.1932 179.213 52.9675 144.395 52.9675C109.577 52.9675 81.3516 81.1932 81.3516 116.011C81.3516 150.829 109.577 179.055 144.395 179.055Z" stroke="#D3D3DD" stroke-width="9.16066" stroke-miterlimit="10"/>
<path d="M144.395 164.14C170.976 164.14 192.525 142.592 192.525 116.01C192.525 89.4288 170.976 67.8802 144.395 67.8802C117.813 67.8802 96.2646 89.4288 96.2646 116.01C96.2646 142.592 117.813 164.14 144.395 164.14Z" fill="#D3D3DD"/>
<path opacity="0.2" d="M260.406 116.01C260.406 180.08 208.465 232.021 144.395 232.021C111.655 232.021 82.1025 218.463 61.0146 196.642C78.9329 207.965 100.149 214.524 122.904 214.524C186.974 214.524 238.896 162.583 238.896 98.5133C238.896 67.1838 226.493 38.7491 206.284 17.8811C238.805 38.4193 260.406 74.6956 260.406 116.01Z" fill="#3D3D60"/>
<path d="M249.376 119.473C247.617 172.22 206.962 215.11 155.168 220.369" stroke="#4E4E68" stroke-width="9.16066" stroke-miterlimit="10" stroke-linecap="round"/>
<path d="M233.455 126.363C229.223 162.731 203.225 192.448 168.835 202.158" stroke="#4E4E68" stroke-width="9.16066" stroke-miterlimit="10" stroke-linecap="round"/>
<path d="M39.4321 112.548C41.191 59.8014 81.846 16.9111 133.64 11.6529" stroke="#4E4E68" stroke-width="9.16066" stroke-miterlimit="10" stroke-linecap="round"/>
<path d="M55.353 105.641C59.5853 69.273 85.5832 39.5558 119.972 29.8455" stroke="#4E4E68" stroke-width="9.16066" stroke-miterlimit="10" stroke-linecap="round"/>
<path d="M122.281 120.169V115.479C122.281 110.956 118.614 107.289 114.091 107.289C109.568 107.289 105.901 110.956 105.901 115.479V120.169C105.901 124.692 109.568 128.359 114.091 128.359C118.614 128.359 122.281 124.692 122.281 120.169Z" fill="#171759"/>
<path d="M182.906 120.169V115.479C182.906 110.956 179.24 107.289 174.717 107.289C170.194 107.289 166.527 110.956 166.527 115.479V120.169C166.527 124.692 170.194 128.359 174.717 128.359C179.24 128.359 182.906 124.692 182.906 120.169Z" fill="#171759"/>
<path d="M158.649 128.359C158.649 136.219 152.273 142.613 144.413 142.613C136.554 142.613 130.178 136.219 130.178 128.359H158.667H158.649Z" fill="white" stroke="#171759" stroke-width="6.77889" stroke-linecap="round" stroke-linejoin="round"/>
<path d="M13.3428 128.485L1.26562 134.483L40.8706 214.231L52.9478 208.234L13.3428 128.485Z" fill="#FFBC00"/>
<path d="M25.4307 122.492L13.3535 128.49L52.9585 208.239L65.0357 202.241L25.4307 122.492Z" fill="#FFD815"/>
<path d="M65.0208 202.264L40.8828 214.252L45.2996 223.145L69.4376 211.158L65.0208 202.264Z" fill="#DBD9E2"/>
<path d="M45.2896 223.137L69.4275 211.149L73.2006 218.747C75.0097 222.389 73.5229 226.81 69.88 228.619L58.9351 234.055C55.2922 235.864 50.8717 234.377 49.0626 230.734L45.2896 223.137Z" fill="#FF558A"/>
<path d="M25.3979 122.515L1.25039 134.515L0.59082 120.939L14.9914 113.794L25.3979 122.515Z" fill="#FFE7C5"/>
<path d="M14.9915 113.794L0.609277 120.939L0.00467273 108.407C-0.141898 105.567 3.19258 103.918 5.37282 105.75L14.9915 113.794Z" fill="#171759"/>
<path d="M31.3524 221.798C42.1995 221.798 50.9929 213.005 50.9929 202.158C50.9929 191.311 42.1995 182.518 31.3524 182.518C20.5052 182.518 11.7119 191.311 11.7119 202.158C11.7119 213.005 20.5052 221.798 31.3524 221.798Z" fill="#171759"/>
<path d="M275.026 46.3714L284.077 48.515C288.547 49.5777 288.547 55.9352 284.077 56.9978L275.026 59.1414C273.89 59.4162 272.992 60.2957 272.736 61.4316L270.592 70.4823C269.53 74.9527 263.172 74.9527 262.11 70.4823L259.966 61.4316C259.691 60.2957 258.812 59.3979 257.676 59.1414L248.625 56.9978C244.155 55.9352 244.155 49.5777 248.625 48.515L257.676 46.3714C258.812 46.0966 259.709 45.2172 259.966 44.0813L262.11 35.0305C263.172 30.5601 269.53 30.5601 270.592 35.0305L272.736 44.0813C273.011 45.2172 273.89 46.1149 275.026 46.3714Z" fill="#FFCD40"/>
<path d="M233.73 26.5853L236.643 27.2815C239.758 28.0144 239.758 32.4481 236.643 33.181L233.73 33.8772C232.759 34.1154 231.989 34.8665 231.751 35.8559L231.055 38.769C230.322 41.8836 225.888 41.8836 225.155 38.769L224.459 35.8559C224.221 34.8849 223.47 34.1154 222.481 33.8772L219.567 33.181C216.453 32.4481 216.453 28.0144 219.567 27.2815L222.481 26.5853C223.452 26.3471 224.221 25.596 224.459 24.6066L225.155 21.6935C225.888 18.5789 230.322 18.5789 231.055 21.6935L231.751 24.6066C231.989 25.5776 232.74 26.3471 233.73 26.5853Z" fill="#FFCD40"/>
</svg>
