<svg width="230" height="246" viewBox="0 0 230 246" fill="none" xmlns="http://www.w3.org/2000/svg">
<g id="Group">
<path id="Vector" opacity="0.2" d="M114.638 245.762C150.374 245.762 179.343 239.821 179.343 232.492C179.343 225.164 150.374 219.223 114.638 219.223C78.9029 219.223 49.9336 225.164 49.9336 232.492C49.9336 239.821 78.9029 245.762 114.638 245.762Z" fill="#3D3D60"/>
<g id="Group_2">
<path id="Vector_2" d="M199.838 164.823C190.406 180.415 177.226 193.659 161.249 202.359C131.591 218.529 93.5024 217.644 64.3198 200.627C35.1501 183.597 15.7207 151.194 13.8855 117.468C12.0761 84.0764 27.2705 49.7862 53.694 29.3558C56.1836 27.4308 59.8154 28.3548 61.0345 31.2679C62.0868 33.7704 63.3573 36.1702 64.8331 38.4417C66.6169 41.188 70.6337 41.265 72.5972 38.6342C86.0977 20.5266 106.644 7.95011 128.704 2.82968C148.364 -1.72609 169.09 -0.596774 188.558 4.89581C192.831 6.10213 193.254 11.9027 189.263 13.8277C183.95 16.3943 179.1 19.7694 175.391 24.3252C168.923 32.2689 166.882 44.4989 172.927 52.7763C176.79 58.0635 183.617 61.028 190.11 60.2452C193.986 59.7704 197.643 57.9737 200.492 55.3301C203.008 52.9945 207.089 53.9954 208.244 57.2294C216.97 81.9717 219.113 109.165 212.594 134.523C209.861 145.162 205.536 155.441 199.838 164.861V164.823Z" fill="#FF7900"/>
<path id="Vector_3" d="M139.625 188.886C100.342 199.948 62.4718 176.207 45.2112 150.373C33.995 133.588 32.3781 116.597 31.9931 111.194C30.5814 91.3024 36.767 75.1968 42.1826 65.11C43.5301 62.6075 47.226 62.8642 48.1885 65.5463C49.2152 68.4594 51.153 70.9876 53.7838 72.6815C58.0957 75.4407 63.7038 75.569 68.3622 73.0794C69.0809 72.6944 69.6584 72.0784 69.9407 71.3084C71.7245 66.573 74.6505 60.3104 79.5142 53.8168C91.6287 37.6855 107.324 31.4486 113.355 29.1515C129.166 23.1199 143.629 23.3766 153.048 24.6086C155.833 24.9679 156.872 28.3815 154.832 30.3193C146.478 38.2887 142.281 48.799 144.168 58.3854C145.977 67.5611 152.958 73.7724 154.716 75.338C156.962 77.34 162.583 82.3449 171.015 83.487C180.768 84.8089 188.788 80.2146 193.306 76.724C195.205 75.261 197.977 76.2363 198.529 78.5719C201.134 89.6855 203.739 109.282 196.309 131.162C194.166 137.489 179.792 177.554 139.599 188.886H139.625Z" fill="#FFCD40"/>
<g id="Group_3">
<g id="Group_4">
<g id="Group_5">
<path id="Vector_4" d="M154.041 218.041L136.735 187.92C134.344 183.759 129.034 182.325 124.873 184.715L124.862 184.721C120.702 187.112 119.267 192.422 121.657 196.583L138.964 226.704C141.354 230.865 146.665 232.3 150.825 229.909L150.836 229.903C154.997 227.512 156.432 222.202 154.041 218.041Z" fill="#171759"/>
<path id="Vector_5" d="M153.165 208.513L142.183 214.823C138.022 217.214 136.587 222.524 138.978 226.685L138.984 226.696C141.374 230.856 146.685 232.291 150.845 229.901L161.828 223.59C165.988 221.2 167.423 215.889 165.033 211.729L165.027 211.718C162.636 207.557 157.326 206.123 153.165 208.513Z" fill="#171759"/>
</g>
<g id="Group_6">
<path id="Vector_6" d="M91.1718 226.693L108.478 196.571C110.869 192.411 109.434 187.1 105.274 184.71L105.262 184.703C101.102 182.313 95.7914 183.748 93.401 187.908L76.0944 218.03C73.7039 222.19 75.1388 227.501 79.2992 229.891L79.3104 229.898C83.4708 232.288 88.7813 230.853 91.1718 226.693Z" fill="#171759"/>
<path id="Vector_7" d="M68.329 223.595L79.3116 229.905C83.472 232.296 88.7825 230.861 91.173 226.7L91.1794 226.689C93.5698 222.529 92.1349 217.218 87.9745 214.828L76.9919 208.518C72.8314 206.127 67.5209 207.562 65.1305 211.722L65.1241 211.734C62.7337 215.894 64.1685 221.205 68.329 223.595Z" fill="#171759"/>
</g>
</g>
<g id="Group_7">
<path id="Vector_8" d="M172.541 182.233C204.274 150.499 204.274 99.0481 172.541 67.3143C140.807 35.5805 89.356 35.5805 57.6222 67.3143C25.8884 99.0481 25.8884 150.499 57.6222 182.233C89.356 213.966 140.807 213.966 172.541 182.233Z" fill="#62657A"/>
<path id="Vector_9" d="M115.075 166.362C139.463 166.362 159.234 146.591 159.234 122.203C159.234 97.8145 139.463 78.0439 115.075 78.0439C90.6866 78.0439 70.916 97.8145 70.916 122.203C70.916 146.591 90.6866 166.362 115.075 166.362Z" stroke="#D3D3DD" stroke-width="6.41657" stroke-miterlimit="10"/>
<path id="Vector_10" d="M115.075 155.917C133.694 155.917 148.788 140.823 148.788 122.204C148.788 103.585 133.694 88.4912 115.075 88.4912C96.456 88.4912 81.3623 103.585 81.3623 122.204C81.3623 140.823 96.456 155.917 115.075 155.917Z" fill="#D3D3DD"/>
<path id="Vector_11" opacity="0.2" d="M196.334 124.758C196.334 169.635 159.952 206.017 115.075 206.017C92.1417 206.017 71.4419 196.521 56.6709 181.236C69.2217 189.167 84.0825 193.762 100.021 193.762C144.899 193.762 181.268 157.38 181.268 112.502C181.268 90.5574 172.58 70.6404 158.425 56.0234C181.204 70.4094 196.334 95.819 196.334 124.758Z" fill="#3D3D60"/>
<g id="Group_8">
<path id="Vector_12" d="M188.609 127.183C187.377 164.129 158.9 194.172 122.621 197.855" stroke="#4E4E68" stroke-width="6.41657" stroke-miterlimit="10" stroke-linecap="round"/>
<path id="Vector_13" d="M177.457 132.021C174.492 157.494 156.282 178.31 132.194 185.111" stroke="#4E4E68" stroke-width="6.41657" stroke-miterlimit="10" stroke-linecap="round"/>
<g id="Group_9">
<path id="Vector_14" d="M41.541 122.344C42.773 85.3974 71.2498 55.355 107.529 51.6719" stroke="#4E4E68" stroke-width="6.41657" stroke-miterlimit="10" stroke-linecap="round"/>
<path id="Vector_15" d="M52.6934 117.506C55.6578 92.032 73.8681 71.2166 97.9559 64.415" stroke="#4E4E68" stroke-width="6.41657" stroke-miterlimit="10" stroke-linecap="round"/>
</g>
</g>
</g>
</g>
<g id="Group_10">
<g id="Group_11">
<g id="Group_12">
<path id="Vector_16" d="M100.33 120.843V117.109C100.33 113.529 97.4285 110.628 93.8493 110.628H93.8365C90.2573 110.628 87.3558 113.529 87.3558 117.109V120.843C87.3558 124.422 90.2573 127.324 93.8365 127.324H93.8493C97.4285 127.324 100.33 124.422 100.33 120.843Z" fill="#171759"/>
<path id="Vector_17" d="M142.795 120.843V117.109C142.795 113.529 139.893 110.628 136.314 110.628H136.301C132.722 110.628 129.821 113.529 129.821 117.109V120.843C129.821 124.422 132.722 127.324 136.301 127.324H136.314C139.893 127.324 142.795 124.422 142.795 120.843Z" fill="#171759"/>
</g>
<path id="Vector_18" d="M125.046 126.349C125.046 131.854 120.58 136.333 115.075 136.333C109.569 136.333 105.104 131.854 105.104 126.349H125.059H125.046Z" fill="white" stroke="#171759" stroke-width="4.74827" stroke-linecap="round" stroke-linejoin="round"/>
</g>
<g id="Group_13">
<path id="Vector_19" d="M96.685 117.738L98.6742 118.213C99.4827 118.405 99.4827 119.56 98.6742 119.753L96.685 120.227C95.8894 120.42 95.2605 121.036 95.0809 121.832L94.6061 123.821C94.4136 124.629 93.2586 124.629 93.0661 123.821L92.5913 121.832C92.3988 121.036 91.7828 120.407 90.9871 120.227L88.998 119.753C88.1895 119.56 88.1895 118.405 88.998 118.213L90.9871 117.738C91.7828 117.545 92.4116 116.929 92.5913 116.134L93.0661 114.144C93.2586 113.336 94.4136 113.336 94.6061 114.144L95.0809 116.134C95.2734 116.929 95.8894 117.558 96.685 117.738Z" fill="white"/>
<path id="Vector_20" d="M139.15 117.738L141.139 118.213C141.947 118.405 141.947 119.56 141.139 119.753L139.15 120.227C138.354 120.42 137.725 121.036 137.546 121.832L137.071 123.821C136.878 124.629 135.723 124.629 135.531 123.821L135.056 121.832C134.864 121.036 134.248 120.407 133.452 120.227L131.463 119.753C130.654 119.56 130.654 118.405 131.463 118.213L133.452 117.738C134.248 117.545 134.876 116.929 135.056 116.134L135.531 114.144C135.723 113.336 136.878 113.336 137.071 114.144L137.546 116.134C137.738 116.929 138.354 117.558 139.15 117.738Z" fill="white"/>
</g>
</g>
<path id="Vector_21" d="M215.533 124.552C223.13 124.552 229.29 118.393 229.29 110.795C229.29 103.197 223.13 97.0381 215.533 97.0381C207.935 97.0381 201.775 103.197 201.775 110.795C201.775 118.393 207.935 124.552 215.533 124.552Z" fill="#171759"/>
<path id="Vector_22" d="M13.7571 124.552C21.355 124.552 27.5143 118.393 27.5143 110.795C27.5143 103.197 21.355 97.0381 13.7571 97.0381C6.15928 97.0381 0 103.197 0 110.795C0 118.393 6.15928 124.552 13.7571 124.552Z" fill="#171759"/>
</g>
<path id="Vector_23" d="M213.852 27.5979L220.191 29.0993C223.323 29.8436 223.323 34.2968 220.191 35.0411L213.852 36.5426C213.056 36.7351 212.427 37.351 212.248 38.1467L210.746 44.4863C210.002 47.6176 205.549 47.6176 204.804 44.4863L203.303 38.1467C203.11 37.351 202.494 36.7222 201.699 36.5426L195.359 35.0411C192.228 34.2968 192.228 29.8436 195.359 29.0993L201.699 27.5979C202.494 27.4054 203.123 26.7894 203.303 25.9937L204.804 19.6541C205.549 16.5228 210.002 16.5228 210.746 19.6541L212.248 25.9937C212.44 26.7894 213.056 27.4182 213.852 27.5979Z" fill="#FFCD40"/>
<path id="Vector_24" d="M28.1178 38.3771L30.1582 38.8648C32.3399 39.3781 32.3399 42.4837 30.1582 42.9971L28.1178 43.4847C27.4376 43.6516 26.8986 44.1777 26.7318 44.8707L26.2441 46.9112C25.7308 49.0928 22.6252 49.0928 22.1119 46.9112L21.6242 44.8707C21.4574 44.1905 20.9312 43.6516 20.2382 43.4847L18.1978 42.9971C16.0161 42.4837 16.0161 39.3781 18.1978 38.8648L20.2382 38.3771C20.9184 38.2103 21.4574 37.6841 21.6242 36.9912L22.1119 34.9507C22.6252 32.769 25.7308 32.769 26.2441 34.9507L26.7318 36.9912C26.8986 37.6713 27.4248 38.2103 28.1178 38.3771Z" fill="#FFCD40"/>
<path id="Vector_25" d="M184.925 13.7375L186.966 14.2251C189.148 14.7385 189.148 17.8441 186.966 18.3574L184.925 18.8451C184.245 19.0119 183.706 19.5381 183.539 20.2311L183.052 22.2715C182.538 24.4532 179.433 24.4532 178.919 22.2715L178.432 20.2311C178.265 19.5509 177.739 19.0119 177.046 18.8451L175.005 18.3574C172.824 17.8441 172.824 14.7385 175.005 14.2251L177.046 13.7375C177.726 13.5707 178.265 13.0445 178.432 12.3515L178.919 10.311C179.433 8.1294 182.538 8.1294 183.052 10.311L183.539 12.3515C183.706 13.0317 184.232 13.5707 184.925 13.7375Z" fill="#FFCD40"/>
</g>
</svg>
