<svg width="32" height="32" viewBox="0 0 32 32" fill="none" xmlns="http://www.w3.org/2000/svg">
<path fill-rule="evenodd" clip-rule="evenodd" d="M15.352 3.20322C14.9371 3.2375 14.6238 3.27917 14.2791 3.34595C14.0729 3.38589 13.6598 3.48352 13.576 3.5121C13.554 3.5196 13.5036 3.53483 13.464 3.54592C13.2275 3.61219 12.7437 3.7851 12.5293 3.88002C12.4933 3.8959 12.4388 3.91893 12.408 3.93118C12.2651 3.988 11.6732 4.29262 11.4718 4.41296C10.8103 4.80824 10.2918 5.21339 9.73584 5.76933C9.1799 6.32528 8.77475 6.84381 8.37947 7.50528C8.25914 7.70666 7.95451 8.29861 7.8977 8.44146C7.88544 8.47226 7.86242 8.52683 7.84653 8.56275C7.75162 8.7772 7.5787 9.26098 7.51243 9.49746C7.50134 9.53706 7.48611 9.58746 7.47861 9.60946C7.41754 9.78851 7.29134 10.3859 7.24053 10.7366C7.17522 11.1872 7.16797 11.3159 7.16797 12.0255C7.16797 12.735 7.17522 12.8637 7.24053 13.3144C7.29134 13.665 7.41754 14.2624 7.47861 14.4415C7.48611 14.4635 7.50134 14.5139 7.51243 14.5535C7.5787 14.7899 7.75162 15.2737 7.84653 15.4882C7.86242 15.5241 7.88544 15.5787 7.8977 15.6095C7.90995 15.6403 7.99322 15.8131 8.08274 15.9935C8.32312 16.4778 8.58077 16.8969 8.91395 17.3455C9.30667 17.8741 9.68413 18.5337 9.9853 19.2175C9.99691 19.2439 10.0286 19.3231 10.0557 19.3935C10.0828 19.4639 10.1111 19.5359 10.1187 19.5535C10.1845 19.7065 10.2989 20.0528 10.3776 20.3375C10.3849 20.3639 10.402 20.4251 10.4156 20.4735C10.528 20.8736 10.6503 21.5998 10.6877 22.0895C10.7064 22.3348 10.8 22.6687 10.9094 22.8809C11.037 23.1283 11.2733 23.3963 11.5142 23.5666C11.6488 23.6618 11.9164 23.7897 12.072 23.8331C12.3692 23.916 12.2344 23.9133 15.992 23.9133C19.7495 23.9133 19.6147 23.916 19.912 23.8331C20.0675 23.7897 20.3351 23.6618 20.4698 23.5666C20.7106 23.3963 20.947 23.1283 21.0745 22.8809C21.184 22.6687 21.2775 22.3348 21.2963 22.0895C21.3337 21.5998 21.4559 20.8736 21.5683 20.4735C21.5819 20.4251 21.599 20.3639 21.6063 20.3375C21.6851 20.0528 21.7995 19.7065 21.8652 19.5535C21.8728 19.5359 21.9012 19.4639 21.9283 19.3935C21.9553 19.3231 21.987 19.2439 21.9986 19.2175C22.297 18.5401 22.6617 17.9009 23.0401 17.392C23.2185 17.152 23.4422 16.8164 23.6044 16.5455C23.7246 16.3445 24.0292 15.7529 24.0862 15.6095C24.0985 15.5787 24.1215 15.5241 24.1374 15.4882C24.2323 15.2737 24.4052 14.7899 24.4715 14.5535C24.4826 14.5139 24.4978 14.4635 24.5053 14.4415C24.5664 14.2624 24.6926 13.665 24.7434 13.3144C24.8087 12.8637 24.816 12.735 24.816 12.0255C24.816 11.3159 24.8087 11.1872 24.7434 10.7366C24.6926 10.3859 24.5664 9.78851 24.5053 9.60946C24.4978 9.58746 24.4826 9.53706 24.4715 9.49746C24.4052 9.26098 24.2323 8.7772 24.1374 8.56275C24.1215 8.52683 24.0985 8.47226 24.0862 8.44146C24.0294 8.29861 23.7248 7.70666 23.6045 7.50528C23.2092 6.84381 22.804 6.32528 22.2481 5.76933C21.6921 5.21339 21.1736 4.80824 20.5121 4.41296C20.3108 4.29262 19.7188 3.988 19.576 3.93118C19.5452 3.91893 19.4906 3.8959 19.4547 3.88002C19.2402 3.7851 18.7564 3.61219 18.52 3.54592C18.4804 3.53483 18.43 3.5196 18.408 3.5121C18.2443 3.45627 17.6512 3.3288 17.3322 3.28088C16.8904 3.21453 16.755 3.2059 16.088 3.20158C15.7228 3.19922 15.3916 3.19995 15.352 3.20322ZM15.64 4.88294C15.0101 4.93742 14.6176 5.00138 14.168 5.12282C13.9413 5.18403 13.6033 5.29208 13.5176 5.33072C13.4898 5.34323 13.4591 5.35346 13.4493 5.35346C13.4395 5.35346 13.419 5.36006 13.4037 5.36814C13.374 5.3839 13.3131 5.41069 13.0911 5.50571C12.7382 5.65675 12.1819 5.97701 11.8382 6.22698C11.1662 6.7157 10.6822 7.19965 10.1935 7.87166C9.94352 8.21538 9.62326 8.7717 9.47222 9.12458C9.3772 9.34658 9.35042 9.40746 9.33466 9.43723C9.32658 9.45251 9.31997 9.47302 9.31997 9.48282C9.31997 9.49261 9.30974 9.52331 9.29723 9.55104C9.22115 9.71979 9.05759 10.2868 8.99192 10.6095C8.88997 11.1103 8.84904 11.516 8.84904 12.0255C8.84904 12.5349 8.88997 12.9406 8.99192 13.4415C9.05759 13.7641 9.22115 14.3311 9.29723 14.4999C9.30974 14.5276 9.31997 14.5583 9.31997 14.5681C9.31997 14.5779 9.32658 14.5984 9.33466 14.6137C9.35042 14.6435 9.3772 14.7043 9.47222 14.9263C9.58947 15.2003 9.8637 15.6972 10.0571 15.9861C10.0985 16.0481 10.1965 16.1849 10.2748 16.2901C10.4476 16.5224 10.7931 17.0485 10.952 17.3215C11.0776 17.5371 11.3396 18.0451 11.4388 18.2655C11.5007 18.4028 11.5851 18.6029 11.6261 18.7095C11.6337 18.7292 11.6462 18.7617 11.6538 18.7815C11.6803 18.8503 11.6997 18.8978 11.7257 18.958C11.7402 18.9913 11.752 19.0273 11.7521 19.038C11.7521 19.0487 11.762 19.0763 11.7741 19.0994C11.7958 19.1411 11.8869 19.4132 11.9662 19.6735C12.1392 20.241 12.2881 21.0125 12.3668 21.7491C12.3979 22.0402 12.4348 22.1101 12.608 22.206L12.672 22.2415L13.972 22.2463L15.272 22.2512V18.7943C15.272 16.2258 15.2673 15.3375 15.2538 15.3375C15.1981 15.3375 14.8068 15.4282 14.656 15.4762C14.3508 15.5731 14.117 15.6855 13.848 15.8644C13.6794 15.9765 13.5661 16.0085 13.3353 16.0091C13.0675 16.0097 12.9039 15.9453 12.7271 15.7697C12.5774 15.6209 12.5212 15.4857 12.5204 15.2729C12.5199 15.1588 12.5338 15.1017 12.6293 14.8255C12.7056 14.6047 12.752 14.3876 12.7839 14.1018C12.8139 13.8338 12.8138 13.6728 12.7838 13.4039C12.7372 12.9868 12.6517 12.6729 12.4972 12.3512C12.3968 12.1424 12.3182 12.0225 12.1652 11.8451C12.1038 11.774 12.0344 11.6793 12.0108 11.6347C11.9722 11.5615 11.968 11.5368 11.968 11.3855C11.968 11.2345 11.9724 11.2084 12.012 11.1277C12.0672 11.0154 12.2028 10.8854 12.3239 10.8286C12.4091 10.7887 12.4315 10.7855 12.624 10.7855C12.8193 10.7855 12.838 10.7883 12.9316 10.8315C13.0072 10.8664 13.065 10.9125 13.1722 11.0235C13.647 11.5148 13.9559 12.1845 14.0894 13.0125C14.1275 13.2488 14.1481 13.9455 14.1244 14.1985C14.1121 14.3295 14.1135 14.3466 14.1352 14.3403C14.1488 14.3363 14.223 14.3145 14.3 14.2918C14.449 14.2478 14.9001 14.1552 15.1316 14.121L15.2712 14.1004L15.2756 11.6989L15.28 9.29746L15.3173 9.19406C15.3692 9.0503 15.4169 8.97419 15.5214 8.86886C15.6789 8.71018 15.8832 8.64269 16.0983 8.67834C16.2434 8.70238 16.3555 8.76104 16.4625 8.86886C16.567 8.97419 16.6148 9.0503 16.6667 9.19406L16.704 9.29746L16.7084 11.6984L16.7128 14.0994L16.8604 14.1203C17.0874 14.1525 17.544 14.2458 17.7 14.2918C17.777 14.3145 17.8511 14.3363 17.8647 14.3403C17.8865 14.3466 17.8878 14.3295 17.8755 14.1985C17.8518 13.9455 17.8724 13.2488 17.9105 13.0125C18.0441 12.1845 18.3529 11.5148 18.8277 11.0235C18.9349 10.9125 18.9927 10.8664 19.0684 10.8315C19.1619 10.7883 19.1806 10.7855 19.376 10.7855C19.5684 10.7855 19.5908 10.7887 19.676 10.8286C19.7972 10.8854 19.9327 11.0154 19.9879 11.1277C20.0275 11.2084 20.032 11.2345 20.032 11.3855C20.032 11.5368 20.0277 11.5615 19.9891 11.6347C19.9656 11.6793 19.8961 11.774 19.8348 11.8451C19.6817 12.0225 19.6031 12.1424 19.5028 12.3512C19.3482 12.6729 19.2627 12.9868 19.2161 13.4039C19.1861 13.6728 19.1861 13.8338 19.216 14.1018C19.2479 14.3876 19.2943 14.6047 19.3706 14.8255C19.4661 15.1017 19.48 15.1588 19.4796 15.2729C19.4788 15.4857 19.4225 15.6209 19.2728 15.7697C19.0961 15.9453 18.9324 16.0097 18.6646 16.0091C18.4339 16.0085 18.3206 15.9765 18.152 15.8644C17.883 15.6855 17.6491 15.5731 17.344 15.4762C17.1828 15.425 16.8006 15.3375 16.7381 15.3375C16.714 15.3375 16.712 15.6051 16.712 18.7943V22.2512L18.012 22.2463L19.312 22.2415L19.376 22.206C19.467 22.1556 19.5025 22.1229 19.5505 22.0451C19.5864 21.9872 19.5965 21.942 19.6171 21.7491C19.6958 21.0125 19.8447 20.241 20.0177 19.6735C20.097 19.4132 20.1881 19.1411 20.2099 19.0994C20.2219 19.0763 20.2318 19.0487 20.2319 19.038C20.2319 19.0273 20.2438 18.9913 20.2582 18.958C20.2726 18.9247 20.2906 18.8812 20.2982 18.8615C20.3313 18.7749 20.3407 18.7509 20.3578 18.7095C20.3678 18.6852 20.3824 18.6492 20.3903 18.6295C20.5361 18.2617 20.8118 17.6997 21.0317 17.3215C21.1852 17.0574 21.4884 16.5988 21.7471 16.2392C22.0531 15.8139 22.3502 15.3037 22.5117 14.9263C22.6067 14.7043 22.6335 14.6435 22.6493 14.6137C22.6574 14.5984 22.664 14.5779 22.664 14.5681C22.664 14.5583 22.6742 14.5276 22.6867 14.4999C22.7628 14.3311 22.9264 13.7641 22.992 13.4415C23.094 12.9406 23.1349 12.5349 23.1349 12.0255C23.1349 11.516 23.094 11.1103 22.992 10.6095C22.9264 10.2868 22.7628 9.71979 22.6867 9.55104C22.6742 9.52331 22.664 9.49261 22.664 9.48282C22.664 9.47302 22.6574 9.45251 22.6493 9.43723C22.6335 9.40746 22.6067 9.34658 22.5117 9.12458C22.3607 8.7717 22.0404 8.21538 21.7905 7.87166C21.3017 7.19965 20.8178 6.7157 20.1458 6.22698C19.8021 5.97701 19.2457 5.65675 18.8928 5.50571C18.6708 5.41069 18.61 5.3839 18.5802 5.36814C18.5649 5.36006 18.5444 5.35346 18.5346 5.35346C18.5248 5.35346 18.4941 5.34323 18.4664 5.33072C18.3807 5.29208 18.0427 5.18403 17.816 5.12282C17.4543 5.02515 17.1257 4.96466 16.6723 4.91224C16.4731 4.88922 15.7911 4.86987 15.64 4.88294ZM11.832 24.3957C11.4267 24.4623 11.16 24.7884 11.16 25.2175C11.16 25.6043 11.3884 25.925 11.7315 26.0196C11.8361 26.0484 11.9864 26.0495 15.992 26.0495C19.9975 26.0495 20.1478 26.0484 20.2524 26.0196C20.5955 25.925 20.824 25.6043 20.824 25.2175C20.824 24.7804 20.557 24.461 20.136 24.3942C20.0035 24.3732 11.9601 24.3746 11.832 24.3957ZM13.384 26.5305C13.0736 26.5977 12.8232 26.8489 12.7592 27.1572C12.7315 27.2905 12.7475 27.5312 12.7917 27.6469C12.9012 27.9336 13.141 28.1254 13.4452 28.1694C13.5101 28.1788 14.5085 28.1848 15.992 28.1848C17.4754 28.1848 18.4738 28.1788 18.5387 28.1694C18.8429 28.1254 19.0828 27.9336 19.1923 27.6469C19.2365 27.5312 19.2524 27.2905 19.2247 27.1572C19.16 26.8451 18.9093 26.5966 18.592 26.5296C18.4284 26.4951 13.5435 26.496 13.384 26.5305Z" fill="#0C2B35"/>
</svg>
