<svg width="320" height="311" viewBox="0 0 320 311" fill="none" xmlns="http://www.w3.org/2000/svg">
<path opacity="0.2" d="M156.091 310.795C210.908 310.795 255.346 301.682 255.346 290.44C255.346 279.198 210.908 270.085 156.091 270.085C101.273 270.085 56.8352 279.198 56.8352 290.44C56.8352 301.682 101.273 310.795 156.091 310.795Z" fill="#3D3D60"/>
<path d="M142.764 282.665V229.376C142.764 222.015 136.798 216.049 129.437 216.049H129.417C122.057 216.049 116.09 222.015 116.09 229.376V282.665C116.09 290.026 122.057 295.993 129.417 295.993H129.437C136.798 295.993 142.764 290.026 142.764 282.665Z" fill="#171759"/>
<path d="M110.007 295.993H129.437C136.798 295.993 142.764 290.026 142.764 282.666V282.646C142.764 275.286 136.798 269.319 129.437 269.319H110.007C102.647 269.319 96.68 275.286 96.68 282.646V282.666C96.68 290.026 102.647 295.993 110.007 295.993Z" fill="#171759"/>
<path d="M205.051 270.411L185.098 220.999C182.341 214.174 174.574 210.875 167.75 213.631L167.731 213.639C160.906 216.395 157.608 224.162 160.364 230.987L180.318 280.399C183.074 287.224 190.841 290.523 197.666 287.767L197.684 287.759C204.509 285.003 207.808 277.236 205.051 270.411Z" fill="#171759"/>
<path d="M179.747 294.957L197.763 287.682C204.588 284.926 207.886 277.159 205.13 270.334L205.123 270.315C202.367 263.49 194.6 260.192 187.775 262.948L169.759 270.223C162.934 272.98 159.635 280.746 162.391 287.571L162.399 287.59C165.155 294.415 172.922 297.713 179.747 294.957Z" fill="#171759"/>
<path d="M147.095 249.986C215.937 249.986 271.745 194.178 271.745 125.336C271.745 56.4933 215.937 0.685425 147.095 0.685425C78.2524 0.685425 22.4446 56.4933 22.4446 125.336C22.4446 194.178 78.2524 249.986 147.095 249.986Z" fill="#62657A"/>
<path d="M139.22 191.106C176.631 191.106 206.959 160.779 206.959 123.368C206.959 85.9565 176.631 55.6288 139.22 55.6288C101.809 55.6288 71.4814 85.9565 71.4814 123.368C71.4814 160.779 101.809 191.106 139.22 191.106Z" stroke="#D3D3DD" stroke-width="9.84288" stroke-miterlimit="10"/>
<path d="M139.22 175.081C167.782 175.081 190.935 151.928 190.935 123.367C190.935 94.8055 167.782 71.6522 139.22 71.6522C110.659 71.6522 87.506 94.8055 87.506 123.367C87.506 151.928 110.659 175.081 139.22 175.081Z" fill="#D3D3DD"/>
<path opacity="0.2" d="M271.745 125.335C271.745 194.176 215.936 249.986 147.095 249.986C111.916 249.986 80.1631 235.418 57.5048 211.972C76.7574 224.138 99.5536 231.186 124.003 231.186C192.844 231.186 248.634 175.377 248.634 106.535C248.634 72.8727 235.307 42.3204 213.593 19.8983C248.535 41.9661 271.745 80.9439 271.745 125.335Z" fill="#3D3D60"/>
<path d="M259.894 129.057C258.004 185.732 214.321 231.816 158.67 237.466" stroke="#4E4E68" stroke-width="9.84288" stroke-miterlimit="10" stroke-linecap="round"/>
<path d="M242.787 136.46C238.24 175.536 210.306 207.467 173.355 217.9" stroke="#4E4E68" stroke-width="9.84288" stroke-miterlimit="10" stroke-linecap="round"/>
<path d="M34.3147 121.616C36.2045 64.9407 79.8873 18.8563 135.539 13.2065" stroke="#4E4E68" stroke-width="9.84288" stroke-miterlimit="10" stroke-linecap="round"/>
<path d="M51.4218 114.194C55.9692 75.1179 83.9033 43.1875 120.853 32.7541" stroke="#4E4E68" stroke-width="9.84288" stroke-miterlimit="10" stroke-linecap="round"/>
<path d="M99.1596 142.915C110.978 142.915 120.558 133.334 120.558 121.516C120.558 109.698 110.978 100.118 99.1596 100.118C87.3416 100.118 77.7612 109.698 77.7612 121.516C77.7612 133.334 87.3416 142.915 99.1596 142.915Z" stroke="#ED351D" stroke-width="7.87431" stroke-linecap="round" stroke-linejoin="round"/>
<path d="M168.099 142.915C179.917 142.915 189.498 133.334 189.498 121.516C189.498 109.698 179.917 100.118 168.099 100.118C156.281 100.118 146.701 109.698 146.701 121.516C146.701 133.334 156.281 142.915 168.099 142.915Z" stroke="#ED351D" stroke-width="7.87431" stroke-linecap="round" stroke-linejoin="round"/>
<path d="M120.558 121.516C122.92 120.374 127.389 118.563 133.295 118.504C139.555 118.425 144.319 120.355 146.721 121.516" stroke="#ED351D" stroke-width="7.87431" stroke-linecap="round" stroke-linejoin="round"/>
<path d="M210.773 180.783L219.115 192.63L297.342 137.549L289 125.702L210.773 180.783Z" fill="#FFBC00"/>
<path d="M202.449 168.929L210.79 180.776L289.017 125.695L280.676 113.849L202.449 168.929Z" fill="#FFD815"/>
<path d="M280.673 113.865L297.344 137.542L306.068 131.399L289.397 107.722L280.673 113.865Z" fill="#DBD9E2"/>
<path d="M306.077 131.398L289.406 107.721L296.858 102.474C300.431 99.9577 305.369 100.815 307.885 104.388L315.444 115.124C317.96 118.698 317.103 123.635 313.529 126.151L306.077 131.398Z" fill="#FF558A"/>
<path d="M202.491 168.92L219.165 192.602L204.873 195.516L194.931 181.401L202.491 168.92Z" fill="#FFE7C5"/>
<path d="M194.931 181.401L204.872 195.516L191.663 198.193C188.671 198.803 186.368 195.535 187.962 192.937L194.931 181.401Z" fill="#171759"/>
<path d="M266.981 190.418C278.636 190.418 288.084 180.97 288.084 169.315C288.084 157.66 278.636 148.212 266.981 148.212C255.326 148.212 245.877 157.66 245.877 169.315C245.877 180.97 255.326 190.418 266.981 190.418Z" fill="#171759"/>
<path d="M109.869 127.481V122.442C109.869 117.582 105.929 113.642 101.07 113.642C96.2097 113.642 92.2701 117.582 92.2701 122.442V127.481C92.2701 132.341 96.2097 136.281 101.07 136.281C105.929 136.281 109.869 132.341 109.869 127.481Z" fill="#171759"/>
<path d="M175.009 127.481V122.442C175.009 117.582 171.069 113.642 166.21 113.642C161.35 113.642 157.41 117.582 157.41 122.442V127.481C157.41 132.341 161.35 136.281 166.21 136.281C171.069 136.281 175.009 132.341 175.009 127.481Z" fill="#171759"/>
<path d="M119.712 138.132C120.893 144.727 126.661 149.747 133.63 149.747C140.599 149.747 146.366 144.727 147.548 138.132" stroke="#171759" stroke-width="7.28373" stroke-linecap="round" stroke-linejoin="round"/>
<path d="M101.01 239.572L39.3152 251.679C36.5592 252.21 33.7047 250.478 32.9173 247.821L10.5149 171.007C9.72745 168.329 11.3417 165.731 14.0977 165.18L75.7929 153.073C78.5489 152.541 81.4033 154.274 82.1908 156.931L104.593 233.745C105.381 236.422 103.766 239.021 101.01 239.572Z" fill="#C2E9F9"/>
<path d="M95.6561 240.616L33.9609 252.723C31.2049 253.254 28.3505 251.522 27.563 248.865L5.16063 172.051C4.3732 169.373 5.98745 166.775 8.74346 166.224L70.4386 154.117C73.1947 153.585 76.0491 155.318 76.8365 157.975L99.2389 234.789C100.026 237.466 98.4121 240.065 95.6561 240.616Z" fill="#F3FDFF"/>
<path d="M97.8998 242.466L32.0903 255.38C29.3343 255.911 26.4798 254.179 25.6924 251.521L3.29003 174.707C2.5026 172.03 4.11679 169.432 6.8728 168.88L72.6824 155.966C75.4384 155.435 78.2928 157.167 79.0802 159.825L101.483 236.639C102.27 239.316 100.656 241.915 97.8998 242.466Z" fill="#3A6DED"/>
<path d="M94.8093 243.078L28.9999 255.991C26.2438 256.523 23.3894 254.791 22.602 252.133L0.199572 175.319C-0.587858 172.642 1.02639 170.043 3.7824 169.492L69.5919 156.578C72.3479 156.047 75.2023 157.779 75.9898 160.437L98.3922 237.251C99.1796 239.928 97.5654 242.526 94.8093 243.078Z" fill="#5086FF"/>
<path d="M58.8829 169.314L19.4129 177.051C16.6569 177.582 13.8024 175.85 13.015 173.192L12.6213 171.814C11.8339 169.137 13.4481 166.539 16.2041 165.987L55.6741 158.251C58.4301 157.719 61.2845 159.452 62.072 162.109L62.4657 163.487C63.2531 166.165 61.6389 168.763 58.8829 169.314Z" fill="#3A6DED"/>
<path d="M58.1938 166.992L18.7239 174.728C15.9678 175.26 13.1134 173.528 12.326 170.87L11.9322 169.492C11.1448 166.815 12.7591 164.216 15.5151 163.665L54.985 155.929C57.741 155.397 60.5954 157.129 61.3829 159.787L61.7766 161.165C62.564 163.842 60.9498 166.441 58.1938 166.992Z" fill="#AAB0BA"/>
</svg>
